/* XPM */
static char *squid_03_05_img[] = {
/* columns rows colors chars-per-pixel */
"52 121 36 1",
"  c #D7D7D7",
". c gainsboro",
"X c gray87",
"o c #DFDFDF",
"O c gray88",
"+ c #E1E1E1",
"@ c #E2E2E2",
"# c gray89",
"$ c #E4E4E4",
"% c gray90",
"& c #E6E6E6",
"* c #E7E7E7",
"= c gray91",
"- c #E9E9E9",
"; c #EAEAEA",
": c gray92",
"> c #ECECEC",
", c gray93",
"< c #EEEEEE",
"1 c #EFEFEF",
"2 c gray94",
"3 c #F1F1F1",
"4 c gray95",
"5 c #F3F3F3",
"6 c #F4F4F4",
"7 c gray96",
"8 c #F6F6F6",
"9 c gray97",
"0 c #F8F8F8",
"q c #F9F9F9",
"w c gray98",
"e c #FBFBFB",
"r c gray99",
"t c #FDFDFD",
"y c #FEFEFE",
"u c gray100",
/* pixels */
"uuuuuuuu88448484844114444488844488848484884444488884",
"uuuuuuue844488444414444844488884888848484884484888e8",
"uuuuueue41488888444448884888844448484848444448888848",
"uuuuuuee41488448444848488888884184848444848888484444",
"uuuueueee4448444848484444848444444484848888448444444",
"uuuuuuueee844444444848444444444448448488484884444444",
"uuuuuuuuuu841444444448448444444484488848444844448888",
"uuuuuuuuuue11841114444444848484848848888144448448448",
"uuueueuuuuu841111;1444114444444484114444e84448488444",
"eeeuuuuuuuue8411144484441111144441444888844884848848",
"88euuuuueeuue844114444411111144414488488484848888488",
"8eeeuuuuuuuuuu844414841;111111141484484484844448884e",
"ueuuuuuuuueuuue8884888414411111144844444444844484448",
"uuuuuuuuuuuuuuuue84488414444111144444441444444484444",
"uuuuuuuuuuuuuuuu8411141;4411444444444484444448884444",
"euuuuuueuuuuuuueu84444411111444844114ee8441448488444",
"uuuuuuuuuuuuuuuuuee844111144484144444444441484411444",
"uuuuuuuuuuuuuuuuuuu844144444444444114144444444111444",
"uuuuuuuuuuuuuuuuuue844444444441144411441444444111488",
"uuuuuuuuuuuuuuuuuuue84444444444444844484444444114488",
"uuuuuuuuuuuuuuuueuuue8444144444484444444444444444488",
"uuuuuuuuuuuuuuuuuuuuue841414444441411444444414481444",
"uuuuuuuuuuuuuuuuuuuuuue41114441111111141444111144414",
"uuuuuuuuuuuuuuuuuueuuue8114441114441114414411;114111",
"uuuuuuuuuuuuuuuuuuuuuueu111441;14441111444111;*;141;",
"euuuuuuuuuuuuueuuuuuuuuu4444444444444444844441111444",
"ueuuuuuuuuuuuuuuuuuuuueu8844444844444444444444111144",
"euuuuuuuuueueueuuuuuuuuu8411114441444444111111111111",
"uuuuuuuuuuuueueeeuuuuuuuu81111141444444411;111144144",
"ueuuuuuuuuuuueeeuuuuuuuuu844114444488448441114481448",
"eeuuuuuuuuuuueeeuuuuuuuuue44444484444484484414484148",
"uuuuuuuueuuuuue8eueuuuuuue414448844441444444444841;1",
"ueuuuuuuuuuuuue8euuuueeuue84444444444444844488441488",
"uuuuuuuuuuuuuu848euuuuuuue84844448848444444488444448",
"uuuuuuuuuuuueee4eeeuuuuu8844488484848444444888844484",
"uuuuuuuuuuuuue8488eeueu88444444448484448144444484488",
"uuuuuuuuuuuuuee48888e8844844484484444484444144888444",
"euuuuuuuuuuuue88844484414444444448444444444444488844",
"eeuuuuuuuuuuu884444444444444444444444444144844448844",
"8eeuuuuueeeee844444444448444448444444414148844411488",
"48eeee884888844444441111411414444848e888484444444488",
"1144888444444411844441114444444484444411444884414411",
"1144144144111114888444144444444411484111444484414448",
"1114444484444448444444444444448811484418881444841448",
"4444444444444444444448484448848484884111844144888888",
"11111111144144411114444484844848884411;;444484441111",
"41414114114444444444444444488448444;;111148844481488",
"44444414844448848884444484444884441*;441444841488844",
"111;111484144884141141148844444814414484844414444448",
"41111144844441114444444448844444144448e8844484848488",
"1111141414444144484448484444444444484444488888844114",
";1114111;114144444844444444444148448441148e884444444",
";;;111;1114111;1414444444441444488488111488414484448",
";;;11;1;;1;1;;;;411111114111114484888848844111441144",
";;1;1111;;;111411111141144444484448444884444;1444488",
"1111111184111144444414411144444444111441444411448448",
"*;*;*;;*;;;*;11;;11141111144444141414114884111;14444",
"****;***1411148411111111141114448444484484411;118848",
"+***;****;1;*11;111111444411114414444441111111111114",
";;11144444444484411111448411111444884441111111441144",
"****;;;;;11;;11;141114444844144444844111111144481444",
"11111144111;;1411114414144444414111141;;41444484111;",
";111111111111111111441141444444484444441414444448444",
";;11111;1411;111111141144414444484441111111144414441",
"111411;;1111;1144488841;11114444448444;;111141111111",
"4114441111111114114444111141448484444111;1111411;111",
";;*;;1;;11111111111144441441444484444144448484444448",
"41;1111;11;11111441411444444444444444444444111114444",
"4111141111111114144444444844444444488444841111144411",
"1;1;;;;;111;1111114484884448444444488441888448884444",
";1441114111;1141111444844844444444444441444444444144",
"+*;11;;111111111411411144448484884444444411444444488",
"11;;;;1111111111444111114144441444448441411111444411",
"1111111;1111;111444444441444444484844884484444448884",
";111411;1;;111114144488844414444441;114441111;;11144",
"11141111;1;11411111144444444444841111141444444111448",
"1;11111411111144141411114444444484448484114444111114",
";1111;11111111144444411144111444444888441;1111111111",
";;;;;111;1;11111141114411144414441144411844444444444",
";;;111;;11;;;;;;;;;;11441111444144448444444111114441",
";;;1;1;11111111111;;;;11;14441141441444141;;;1;11114",
";;11;;111;14411;;111111114441;;;114114411114411;*;11",
";;1;1;1;11;;;111;11141111111;;;;;1414411;1141111;144",
";;;1111141;*;111;;11111;11;111;;;1114111111111484488",
"11111411111444111;;1;111411111;*;;144111;11;11448448",
"111114411111111111;;*;1;11;1441;;;;44111;11111114411",
"11;11411;1;;**;11;;**;;1;;114411;**;44141114411;4111",
";1;;141;14441144111;;;;;144111;1*+.*141484411111;1;;",
"4414448441111111;1;;;1;;;11111;*;*. ;4118;11;;;1;;;;",
"4414411111;11;;11;;1;;;*;1;**;11;;**;4144*11;1;;;111",
"14441111444114411114441;*;;**;11111;**+;4;11;1;11111",
";1141111144;;441;;;;11;**141;;;*1411;..*4*;**;;11111",
";114411114411441;;;111;;*;1;**;*11141;*11*1;;114111;",
"144411118444144441448444****+*;;;1;;11;1++;114111111",
"4441141111111;;111;11111;;*++**;;1;+;;**. +;*;*;1111",
"444148444114411441;11141111;*****1;**;11;+;11114;148",
"4444448444444444411;;111444441111;1;1411444114448848",
"141111414414444444111;144884444141444444844444884888",
"111111111144141144111111444444448884444488444488488e",
";1;1111;4111111411411141444448448e844448444444844848",
"1;1;111144114144414441114444488448441148484444114444",
"1111111141111111111444441444444414411444888884444144",
"1111111111;1;114111114144444444444144444444848484444",
";1;11111111;;;;1111111441444444448444884141444441448",
"1111;11;11111144444114484444144444444444444444444414",
"441;;11;;1111114444444414411111444444444448484888448",
"1111111;1;111114444441114441411114441444114444441114",
";;1111111114114441111144144111411114111111411;144114",
"11;11;;;;1111111411111444411111111111111444411148444",
"e41;11;*;;;;;;;1;;;114411111;1111111111144411;111;;1",
"u4;*;;;*;;1;;11;;1111111111111111;111111;111;1;14144",
"e4+*;1;;;114411411;;;11111111;111111;111;11141444488",
"u1+**;****;;;;;1;;144411;114444488884888888448448888",
"u4*+*;;11;;114444848488844444888eee8e8e8888848888888",
"u4;*;1444484444488844884e888444448888888888888888888",
"ue41111184448888e8888844ee84411144888884e84848888484",
"uu84111111114888888e84441444848484888e88844484884888",
"uu81114441111111144444411144848444844444444844448844",
"uu84;14444411;;1111141114848444411111111144448844114",
"euu8;;;*;;111414414444884441448484411144444888441111",
"8uu8411;4444444411144444144444144441144448488444148e"
};
