/* XPM */
static char *squid_04_01_img[] = {
/* columns rows colors chars-per-pixel */
"108 66 136 2",
"   c #040A08",
".  c #060A09",
"X  c #0A0607",
"o  c #0E0508",
"O  c #090B0A",
"+  c #0E080A",
"@  c #12070B",
"#  c #16050B",
"$  c #190A0F",
"%  c #131313",
"&  c #201418",
"*  c #292023",
"=  c #2D292A",
"-  c gray20",
";  c #414342",
":  c #4E5251",
">  c #606465",
",  c #767A7B",
"<  c #878B8C",
"1  c #939393",
"2  c #959394",
"3  c #949695",
"4  c #989A99",
"5  c #9E9A9B",
"6  c #9D9B9C",
"7  c #A09C9D",
"8  c #A5A1A2",
"9  c #A6A8A7",
"0  c #B1A8AB",
"q  c #BBB2B5",
"w  c #C2BEBB",
"e  c #C4C0BD",
"r  c #C3C5C2",
"t  c #C9C3C5",
"y  c #CCCCCA",
"u  c #D6D2D3",
"i  c #D9D5D2",
"p  c #DBDBD9",
"a  c #DCDADB",
"s  c #DFDBD8",
"d  c #E4E0DD",
"f  c #E5E1DE",
"g  c gray88",
"h  c #E1E1E1",
"j  c #E2E2E2",
"k  c gray89",
"l  c #E6E5E3",
"z  c #E4E4E4",
"x  c gray90",
"c  c #E6E6E6",
"v  c #E7E7E7",
"b  c #E3ECE9",
"n  c #E7E9E8",
"m  c #E7EBEA",
"M  c #E6ECEA",
"N  c #E9E7EA",
"B  c #ECE6E8",
"V  c #EFE6E9",
"C  c #E9E8E6",
"Z  c #ECE8E5",
"A  c gray91",
"S  c #E9E9E9",
"D  c #EAE8EB",
"F  c #EAEAEA",
"G  c gray92",
"H  c #ECEBE9",
"J  c #ECEAED",
"K  c #EDECEA",
"L  c #ECECEC",
"P  c gray93",
"I  c #ECEEED",
"U  c #EEEEEE",
"Y  c #EFEFEF",
"T  c #EEF0EF",
"R  c #EDF3F1",
"E  c #F2E7EB",
"W  c #F1EDEE",
"Q  c gray94",
"!  c #F1F1F1",
"~  c #F2F0F1",
"^  c gray95",
"/  c #F3F3F3",
"(  c #F3F4F6",
")  c #F4F0F1",
"_  c #F5F1F2",
"`  c #F6F2F3",
"'  c #F5F4F2",
"]  c #F6F5F3",
"[  c #F4F4F4",
"{  c gray96",
"}  c #F4F5F7",
"|  c #F6F6F6",
" . c gray97",
".. c #F3F7FA",
"X. c #F5F6F8",
"o. c #F3F9F7",
"O. c #F4F8F7",
"+. c #F6F8F7",
"@. c #F4F8FB",
"#. c #F7F9F8",
"$. c #F7F8FA",
"%. c #F5F9FC",
"&. c #F7FBFE",
"*. c #F9F3F3",
"=. c #F8F4F5",
"-. c #FCF3F4",
";. c #FDF7F9",
":. c #F9F8F6",
">. c #FAF9F7",
",. c #F8F8F8",
"<. c #F9F9F9",
"1. c #F8F9FB",
"2. c #FAF8F9",
"3. c #FBF9FA",
"4. c gray98",
"5. c #FBFBFB",
"6. c #F9FAFC",
"7. c #F8FCFF",
"8. c #FAFEFF",
"9. c #FCF8F9",
"0. c #FCFBF9",
"q. c #FCFAFB",
"w. c snow",
"e. c #FFFBFC",
"r. c #FFFBFD",
"t. c #FFFAFE",
"y. c #FFFCFB",
"u. c gray99",
"i. c #FDFDFD",
"p. c #FCFFFF",
"a. c #FFFCFD",
"s. c #FFFCFF",
"d. c #FFFFFD",
"f. c #FEFEFE",
"g. c #FEFFFF",
"h. c gray100",
/* pixels */
"/ / / / Y / / / / / Y Y Y / Y Y Y / Y Y / Y Y Y / / Y Y Y Y Y Y Y G G Y Y Y G / Y  ./ Y [ / v Y G Y Y Y Y G G Y Y / [ [ [ [  . .Y / / Y / [ [ / [ [  .5.5. . . . . . . .5. .5.5.5.5.5.5.5.5.5.5.5.5.5.5.[ 5. .5.E q.3 . ",
"[ [ / / / / / / / Y Y Y Y / / Y Y Y Y / Y / / Y / / / / Y Y / Y / G G Y Y Y G / [ [ / G / / Y / Y G Y / Y Y Y / v Y / / / / [ [ / / / / [ [ / [ [ [ [ [  .[ [  . . . .5.5.5. .5.5.5.5.5.5.5.5.5.5.5.5.5./  . . .V =.1 . ",
"[ / / / Y / Y / / / / / / / Y Y Y Y Y / / / / Y Y Y Y Y Y Y Y / Y G G Y Y Y Y Y Y Y Y Y Y Y G Y Y Y Y Y Y / / / [ [  .[ / / / / [ / / [ [ / / [  . .[  . . . .5.[ [  .5.5.5.5.5.5.5.5.5.5.5.5.5.5.5.5.5.G [  . .B _ 1 O ",
"/ / / / / Y / Y Y / / / / / Y / Y Y / / / / Y / / Y / / / / / [ / Y Y Y Y Y Y Y Y G Y / Y Y Y G / / / Y Y Y / Y / / [ / / [ / / / / Y / [ [ / [  . . . . . . . . . . .5.5.5.5.5.5.5.5.5.5.5.5.5.5.5.5.5.v  .5.5._ q.6 % ",
"/ / / / Y / / / Y / / / / / Y Y / / / / / / / / / / / / / / / [ / Y Y / / / Y / / Y / / Y Y [ / Y / Y Y Y Y Y / Y / / / / [ [ [ [ [ / / [ [ [ / [ [ [  .[  . .[  . . . .5.5.5.5.5.5.5.5.5.5.5.5.5.5.5.5.v [ 5.5.G _ 3 X ",
"/ / Y / Y / / / / Y / / / Y Y / [ [ / [ / / / / Y / Y Y Y Y Y Y / Y / / / / / Y Y G Y Y G Y / Y G Y Y Y Y Y Y / / [ [ / / / [ / / [ [ / [  . ./ [ [  . . . . .[ 5. .5.5. .5.5.5.5.5.5.5.5.5.5.5.5.5.5.5.k  .5.5.Y [ 5 + ",
"Y / / Y / / Y / / / Y Y Y / / Y [ [ [ [ / / / / [ [ [ / / / / / Y Y Y Y / / / Y v G Y Y Y Y Y G Y Y Y Y / / Y Y v G Y Y Y / [ / [ [ [ [ [ [ [ [  . .5. . .5.5. .5.5.5.5. .5.5.5.5.5.5.5.5.5.5.5.5.5.5.5.k [ 5.5.n [ 6 o ",
"/ / / Y Y Y Y Y / Y Y Y / / Y Y  .[ [ [ / / / Y / / / Y Y Y Y Y Y Y Y Y / / Y Y Y / Y Y / / / [ / Y Y Y / / Y Y / [  .[ / [ [ [ [ / / [  .[ [  .[  . .[ [  . .[  .5.5.5.5.5.5. .5.5.5.5.5.5.5.5.5.5.5.5.a [ 5.5.M +.8 @ ",
"v v G G Y Y Y / / / / Y / [ / / [ [ / Y Y Y Y Y Y / Y Y Y Y / Y Y Y G Y Y / Y Y Y Y Y Y Y / / / Y / / / / / [ [ [ [ [ [ [ [ / / [ [ [ [ [  .[  .5.5.5.5.5.5.5.5. .5.5.5.5.5.5.5.5.5.5.5.5.5.5.5.5.5. .5.v  .5.5.b / 0 # ",
"G G Y Y / / / / / Y / [ / [ [ [ [ [ / / / / / Y Y Y Y Y Y Y G Y Y Y Y Y Y / / Y Y Y Y Y Y Y Y / / / [ / / / / / / / [ [ [  .[ [ [ [ [  .[ [  . .[  . . .5. . .5. .5. .5.5.5.5. .5.5.5.5.5.5.5.5.5.5.5.5.v  .5.5.T / w $ ",
"Y Y / / / / [ [ / / / [ [ [ [ [ [ [ [ [ / / / / [ [ / / / / / / / Y G Y / Y Y / Y Y / / Y / / / / [ [ [ / / / / [ [  . . . .[ [ [ [  .[  .[  .[  .5.5.5.5.5.5.5. . .5.5.5. .5.5.5.5.5.5.5.5.5.5.5.5.5.5.G [ 5.5.o.[ t % ",
"/ / / / / / [ [ / / [ [ [ [ [  .[ [ [ [ / / / / [ [ / / / / / / / Y Y Y Y Y / / / / Y / / / Y / [ [ [ / / Y / [ [ [ [  .[ [ [ [  .[ [ [  .[  . .[ [  . . .5. .5.5.5. .5.5.5.5.5.5.5.5.5.5.5.5.5.5.5.5. .Y  .5.5.o./ u * ",
"/ [ / / / / / /  . . .[ [ / / / [ / [ [ [ [ [ / [ [ [ / [ [ / [ / / Y / Y / / Y / / / / / / [ [ / [ [ [ [ [ [ [ / / [  . . . . . . . . . . . . .[ [  . .5.5. .5.5.5.5.5.5.5.5.5.5.5.5.5.5.5.5.5.5.5.5.5.Y /  .5. .J a = ",
"[ [ / / / / / / [  .[ [ [ / / / [ [ [ [ [ [ / [ [ [ [ [ [ [ [ [ / / / / / / / Y / / / / / / [ [ / [ [  .[ [  . ./ [ [  . . . . . . . . . . . . . .5.5.5.5.5.5.5.5.5.5.5.5.5.5.5.5.5.5.5.5.5.5.5.5.5.5.5./ [ 5. . .G k - ",
"[ [ / / [ [ [ [ [ [ / / / / / / [  . .[ [ [ [  ./ / / / Y Y Y / / / / [ [ [ / / [ [ / Y Y / [  . . . . .[  . . .[  . . . . . . . . . . .5. . .5. .5. .5.5.5.5.5.5.5.5.5.5.5.5.5.5.5.5.5.5.5.5.5.5. .5.5./ [ 5. .5.L n ; ",
"[ [ / / [ [ [ [ / / Y Y / / / /  .[  .[  .[  .[ / [ / / / / / / / / [ [ [ [ / Y [ [ / / / / [  . . . . . . . . . . . .5.5.5.5.5. .5.5. .5.5.5.5.5.5.5.5.5.5.5.5.5.5.5.5.5.5.5.5.5.5.5.5.5.5.5.5.5.5.5.5. . .5.5. .L E : ",
"[ [ [ [ [  . . .[ [ [ [ [ [ [ [  . .[  . .[  . . . .[  . .[ [ [ [ [ / / [  .[ [ / / [  . . . .[ [  .5.5.5. . . .5. . .5. .5. .5.5.5.5.5.5.5.5.5.5.5.5.5.5.5.5.5.5.5.5.5.5.5.5.5.5.5.5.5.5.5.5.5.5.5.5.5. .5.5.5.e.N  .> ",
"/ [  . . . .[ / / [ [ [ [ [  .[  . . . . . . . .[ [ [  .[  .[  . .[ / / [ [ [  ./ [ [ [ [ [  . . . . .5. .5. . . . . .5.5. .5.5. .5.5.5.5.5.5.5.5.5.5.5.5.5.5.5.5.5.5.5.5.5.5.5.5.5.5.5.5.5.5.5.5.5.5.5.5.5.5.5.5.J %., ",
"/ [  . .[ [ / / [ [ [ [ [ [ [ [  . . . . . . . .[ [ [  . . . . .[ [ [ [ [  . . .[ [ [  .[  . .5. . .5.5. . . . .5.5. . .5.5.5. . . .5.5.5.5.5.5.5.5.5.5.5.5.5.5.5.5.5.5.5.5.5.5.5.5.5.5.5.5.5.5.5.5.5.5.5. .5. .e.N [ < ",
"[ [ [ [ [ / / / [ [ [ [ [ [  . . .[  . .[  . .[  . . . . . .[ [ [ [ [ [  . . . . . . . . . .5.5.5.5.5. . . .5.5.5. .5.5. .5.5.5.5.5.5.5.5.5.5.5.5.5.5.5.5.5.5.5.5.5.5.5.5.5.5.5.5.5.5.5.5.5.5.5.5.5.5.5.5.5.5.5.e.W / 4 ",
" . .[ [ [ [ [ [ [  . . . . . . . .[ [ [ [ [  .[  . . . . . . .[  .[ [ [  . . . .5.5. .5.5. .5.5. .5.5.5.5.5.5.5.5.5.5.5.5.5.5.5.5.5.5.5.5.5.5.5.5.5.5.5.5.5.5.5.5.5.5.5.5.5.5.5.5.5.5.5.5.5.5.5.5.5.5.5.5.5.5.5.q._ K 9 ",
" . . . .[ [ / /  . .[  . . . . .[ [  . . .[  .[ [  . .5. . . .5. . .[ [  .5. . . . . .5.5. . . . .5.5.5.5. .5.5.5.5.5.5.5.5.5.5.5.5.5.5.5.5.5.5.5.5.5.5.5.5.5.5.5.5.5.5.5.5.5.5.5.5.5.5.5.5.5.5.5.5.5.5.5.5.5.5.5.y.` r ",
" .[  . . . .[ / [ [  .[ [  . . . . . . . . . . . .[  . .5. . . . . . . . . . . . . .5. . .5. . .5.5.5.5.5.5.5.5.5.5.5.5.5.5.5.5.5.5.5.5.5.5.5.5.5.5.5.5.5.5.5.5.5.5.5.5.5.5.5.5.5.5.5.5.5.5.5.5.5.5.5.5.5.5.5.5.-.-.v y ",
"5. .[ [ [ [  . .[ [ [ [ [ [ [  . . . .5. . . . .5. .5.5. . . . .5. .[  . . . . .5.5. . .5. . .5. .5.5.5.5.5.5. .5.5.5.5.5.5.5.5.5.5.5.5.5.5.5.5.5.5.5.5.5.5.5.5.5.5.5.5.5.5.5.5.5.5.5.5.5.5.5.5.5.5.5.5.5.5.5.5.5.y.K p ",
" . .[  . . .5. . . . . . . .5. .5.5. . . . . . . . . .5. . . . . . . . . . .5. .5.5.5. .5. . . .5.5.5.5.5.5.5.5.5.5.5.5.5.5.5.5.5.5.5.5.5.5.5.5.5.5.5.5.5.5.5.5.5.5.5.5.5.5.5.5.5.5.5.5.5.5.5.5.5.5.5.5.5.5.5.5.8.5.v s ",
" .[ [ [  . . . . . . . . . . . .5. . .5.5. . . .5. . . .5. .5. . .5. . . .5. .5.5.5.5.5. .5. . .5.5.5.5.5.5.5.5.5.5.5.5.5.5.5.5.5.5.5.5.5.5.5.5.5.5.5.5.5.5.5.5.5.5.5.5.5.5.5.5.5.5.5.5.5.5.5.5.5.5.5.5.5.5.5.5.@.5.K Z ",
" . .[ [  . .5.5.[  . .[  . . . . .5.5. . . . .5.5. .5. .5. .5. .5. . . . .5.5.5.5.5.5.5.5.5.5.5.5.5.5.5.5.5.5.5.5.5.5.5.5.5.5.5.5.5.5.5.5.5.5.5.5.5.5.5.5.5.5.5.5.5.5.5.5.5.5.5.5.5.5.5.5.5.5.5.5.5.5.5.5.5.5.5.5.8.[ f ",
"5. .[ [ [  . . . . . . . . . . .5.5.5.5.5.5.5.5. .5. .5. .5. . .5. .5. .5.5. .5.5.5.5.5.5.5.5.5.5.5.5.5.5.5.5.5.5.5.5.5.5.5.5.5.5.5.5.5.5.5.5.5.5.5.5.5.5.5.5.5.5.5.5.5.5.5.5.5.5.5.5.5.5.5.5.5.5.5.5.5.5.5.5.5.5. .] e ",
"5.5. . . . . . . . . .5.5. . .5.5.5.5.5.5.5.5.5.5.5.5.5. .5.5.5.5.5.5. .5.5.5.5.5.5.5.5.5.5.5.5.5.5.5.5.5.5.5.5.5.5.5.5.5.5.5.5.5.5.5.5.5.5.5.5.5.5.5.5.5.5.5.5.5.5.5.5.5.5.5.5.5.5.5.5.5.5.5.5.5.5.5.5.5.5.5.5.&.@.y.w ",
"5.5. . . . . . . .5. .5.5.5.5.5.5.5.5.5.5.5.5.5.5.5.5. .5.5.5. .5.5. . . .5.5.5.5.5.5.5.5.5.5.5.5.5.5.5.5.5.5.5.5.5.5.5.5.5.5.5.5.5.5.5.5.5.5.5.5.5.5.5.5.5.5.5.5.5.5.5.5.5.5.5.5.5.5.5.5.5.5.5.5.5.5.5.5.5.5.5.8.8.5.i ",
"5.5.5. .5.5.5. .5.5. .5.5.5.5.5.5.5.5.5.5.5.5.5.5.5.5.5.5.5.5.5.5.5. .5.5.5.5.5.5.5.5.5.5.5.5.5.5.5.5.5.5.5.5.5.5.5.5.5.5.5.5.5.5.5.5.5.5.5.5.5.5.5.5.5.5.5.5.5.5.5.5.5.5.5.5.5.5.5.5.5.5.5.5.5.5.5.5.5.5.5.5.5.8. . .f ",
"5.5.5.5.5.5.5.5. . . . . . . .5.5.5.5.5.5.5.5.5.5.5.5.5.5.5.5.5.5.5.5.5.5.5.5.5.5.5.5.5.5.5.5.5.5.5.5.5.5.5.5.5.5.5.5.5.5.5.5.5.5.5.5.5.5.5.5.5.5.5.5.5.5.5.5.5.5.5.5.5.5.5.5.5.5.5.5.5.5.5.5.5.5.5.5.5.5.5.5.5.@. .=.Z ",
"5.5.5. .5.5.5.5.5. .5.5.5.5.5.5.5.5.5.5.5.5.5.5.5.5.5.5.5.5.5.5.5.5.5.5.5.5.5.5.5.5.5.5.5.5.5.5.5.5.5.5.5.5.5.5.5.5.5.5.5.5.5.5.5.5.5.5.5.5.5.5.5.5.5.5.5.5.5.5.5.5.5.5.5.5.5.5.5.5.5.5.5.5.5.5.5.5.5.5.5.5.5.5.5.5.5. .",
"5.5.5.5.5.5.5.5.5.5.5.5.5.5.5.5.5.5.5.5.5.5.5.5.5.5.5.5.5.5.5.5.5.5.5.5.5.5.5.5.5.5.5.5.5.5.5.5.5.5.5.5.5.5.5.5.5.5.5.5.5.5.5.5.5.5.5.5.5.5.5.5.5.5.5.5.5.5.5.5.5.5.5.5.5.5.5.5.5.5.5.5.5.5.5.5.5.5.5.5.5.5.5. .5. . . .",
" .5.5.5.5.5.5.5.5.5.5.5.5.5.5.5.5.5.5.5.5.5.5.5.5.5.5.5.5.5.5.5.5.5.5.5.5.5.5.5.5.5.5.5.5.5.5.5.5.5.5.5.5.5.5.5.5.5.5.5.5.5.5.5.5.5.5.5.5.5.5.5.5.5.5.5.5.5.5.5.5.5.5.5.5.5.5.5.5.5.5.5.5.5.5.5.5.5.5.5.5.5. . . .[ [ 5.",
"5.5. .5.5.5.5.5.5.5.5.5.5.5.5.5.5.5.5.5.5.5.5.5.5.5.5.5.5.5.5.5.5.5.5.5.5.5.5.5.5.5.5.5.5.5.5.5.5.5.5.5.5.5.5.5.5.5.5.5.5.5.5.5.5.5.5.5.5.5.5.5.5.5.5.5.5.5.5.5.5.5.5.5.5.5.5.5.5.5.5.5.5.5.5.5.5.5.5.5.5.5.5.5. . .[ [ ",
" .5.5.5.5.5.5.5.5.5.5.5.5.5.5.5.5.5.5.5.5.5.5.5.5.5.5.5.5.5.5.5.5.5.5.5.5.5.5.5.5.5.5.5.5.5.5.5.5.5.5.5.5.5.5.5.5.5.5.5.5.5.5.5.5.5.5.5.5.5.5.5.5.5.5.5.5.5.5.5.5.5.5.5.5.5.5.5.5.5.5.5.5.5.5.5.5.5.5.5.5. .5.5.5.5. . .",
"5.5. .5.5.5.5.5.5.5.5.5.5.5.5.5.5.5.5.5.5.5.5.5.5.5.5.5.5.5.5.5.5.5.5.5.5.5.5.5.5.5.5.5.5.5.5.5.5.5.5.5.5.5.5.5.5.5.5.5.5.5.5.5.5.5.5.5.5.5.5.5.5.5.5.5.5.5.5.5.5.5.5.5.5.5.5.5.5.5.5.5.5.5.5.5.5.5.5.5.5. .5. .[  .[ / ",
"5.5.5.5.5.5.5.5.5.5.5.5.5.5.5.5.5.5.5.5.5.5.5.5.5.5.5.5.5.5.5.5.5.5.5.5.5.5.5.5.5.5.5.5.5.5.5.5.5.5.5.5.5.5.5.5.5.5.5.5.5.5.5.5.5.5.5.5.5.5.5.5.5.5.5.5.5.5.5.5.5.5.5.5.5.5.5.5.5.5.5.5.5.5.5.5.5.5.5.5.5. . .[ / / / / ",
"5.5.5.5.5.5.5.5.5.5.5.5.5.5.5.5.5.5.5.5.5.5.5.5.5.5.5.5.5.5.5.5.5.5.5.5.5.5.5.5.5.5.5.5.5.5.5.5.5.5.5.5.5.5.5.5.5.5.5.5.5.5.5.5.5.5.5.5.5.5.5.5.5.5.5.5.5.5.5.5.5.5.5.5.5.5.5.5.5.5.5.5.5.5.5.5.5.5.5.5.5. . .[ / [ [ 5.",
"5.5.5.5.5.5.5.5.5.5.5.5.5.5.5.5.5.5.5.5.5.5.5.5.5.5.5.5.5.5.5.5.5.5.5.5.5.5.5.5.5.5.5.5.5.5.5.5.5.5.5.5.5.5.5.5.5.5.5.5.5.5.5.5.5.5.5.5.5.5.5.5.5.5.5.5.5.5.5.5.5.5.5.5.5.5.5.5.5.5.5.5.5.5.5.5.5. .5. . . . . .[ / / Y ",
"5.5.5.5.5.5.5.5.5.5.5.5.5.5.5.5.5.5.5.5.5.5.5.5.5.5.5.5.5.5.5.5.5.5.5.5.5.5.5.5.5.5.5.5.5.5.5.5.5.5.5.5.5.5.5.5.5.5.5.5.5.5.5.5.5.5.5.5.5.5.5.5.5.5.5.5.5.5.5.5.5.5.5.5.5.5.5.5.5.5.5.5.5.5.5.5. . . .5.5. .[  .[ Y / / ",
"5.5.5.5.5.5.5.5.5.5.5.5.5.5.5.5.5.5.5.5.5.5.5.5.5.5.5.5.5.5.5.5.5.5.5.5.5.5.5.5.5.5.5.5.5.5.5.5.5.5.5.5.5.5.5.5.5.5.5.5.5.5.5.5.5.5.5.5.5.5.5.5.5.5.5.5.5.5.5.5.5.5.5.5.5.5.5.5.5.5.5.5.5.5.5. . . . .5. . . .[ / Y / / ",
"5.5.5.5.5.5.5.5.5.5.5.5.5.5.5.5.5.5.5.5.5.5.5.5.5.5.5.5.5.5.5.5.5.5.5.5.5.5.5.5.5.5.5.5.5.5.5.5.5.5.5.5.5.5.5.5.5.5.5.5.5.5.5.5.5.5.5.5.5.5.5.5.5.5.5.5.5.5.5.5.5.5.5.5.5.5.5.5.5.5.5.5.5.5. . .[  . . . . . .[ / Y / Y ",
"5.5.5.5.5.5.5.5.5.5.5.5.5.5.5.5.5.5.5.5.5.5.5.5.5.5.5.5.5.5.5.5.5.5.5.5.5.5.5.5.5.5.5.5.5.5.5.5.5.5.5.5.5.5.5.5.5.5.5.5.5.5.5.5.5.5.5.5.5.5.5.5.5.5.5.5.5.5.5.5.5.5.5.5.5.5.5.5.5.5.5.5.5.5. . .[ [ [ [  .[ [ [ Y Y G G ",
"5.5.5.5.5.5.5.5.5.5.5.5.5.5.5.5.5.5.5.5.5.5.5.5.5.5.5.5.5.5.5.5.5.5.5.5.5.5.5.5.5.5.5.5.5.5.5.5.5.5.5.5.5.5.5.5.5.5.5.5.5.5.5.5.5.5.5.5.5.5.5.5.5.5.5.5.5.5.5.5.5.5.5.5.5.5.5.5.5.5.5.5. . . . .[ [ [ / [ [ / / Y / G G ",
"5.5.5.5.5.5.5.5.5.5.5.5.5.5.5.5.5.5.5.5.5.5.5.5.5.5.5.5.5.5.5.5.5.5.5.5.5.5.5.5.5.5.5.5.5.5.5.5.5.5.5.5.5.5.5.5.5.5.5.5.5.5.5.5.5.5.5.5.5.5.5.5.5.5.5.5.5.5.5.5.5.5.5.5.5.5.5.5.5.5. . . .[  . . .[ / / Y Y / Y Y Y G G ",
"5.5.5.5.5.5.5.5.5.5.5.5.5.5.5.5.5.5.5.5.5.5.5.5.5.5.5.5.5.5.5.5.5.5.5.5.5.5.5.5.5.5.5.5.5.5.5.5.5.5.5.5.5.5.5.5.5.5.5.5.5.5.5.5.5.5.5.5.5.5.5.5.5.5.5.5.5.5.5.5.5.5.5.5.5.5. .5.5. . . . . . .[  .[ / Y Y Y Y Y G / G G ",
"5.5.5.5.5.5.5.5.5.5.5.5.5.5.5.5.5.5.5.5.5.5.5.5.5.5.5.5.5.5.5.5.5.5.5.5.5.5.5.5.5.5.5.5.5.5.5.5.5.5.5.5.5.5.5.[ 5.5.5.5.5.5.5.5.5.5.5.5.5.5.5.5.5.5. .5.5.5.5.5.5.5.5.5. .5.5. . . . .[  .[  .[ [ [ / Y Y G G G Y G Y G ",
"5.5.5.5.5.5.5.5.5.5.5.5.5.5.5.5.5.5.5.5.5.5.5.5.5.5.5.5.5.5.5.5.5.5.5.5.5.5.5.5.5.5.5.5.5.5.5.5.5.5.5.5.5.5.5.[ 5.5.5.5.5.5.5.5.5.5.5.5.5.5.5.5.5.5. .5.5.5.5.5.5.5. .5. . . . . . . . . . . .[ [ / / Y Y G G G G v v v ",
"5.5.5.5.5.5.5.5.5.5.5.5.5.5.5.5.5.5.5.5.5.5.5.5.5.5.5.5.5.5.5.5.5.5.5.5.5.5.5.5.5.5.5.5.5.5.5.5.5.5.5.5.5.5. . .5.5.5.5.5.5.5.5.5.5.5.5.5.5.5.5.5.5.5.5.5.5.5. .5. . . . . . .[  . . . . . .[ / Y / Y / Y Y G G v v v G ",
"5.5.5.5.5.5.5.5.5.5.5.5.5.5.5.5.5.5.5.5.5.5.5.5.5.5.5.5.5.5.5.5.5.5.5.5.5.5.5.5.5.5.5.5.5.5.5.5.5.5.5.5.5.5.5.5.5.5.5.5.5.5.5.5.5. .5.5.5. . . . .5.5.5.5. .5.5. . . . . . . .[  .[ [ / / / Y Y Y Y Y Y Y Y G G Y v G G ",
"5.5.5.5.5.5.5.5.5.5.5.5.5.5.5.5.5.5.5.5.5.5.5.5.5.5.5.5.5.5.5.5.5.5.5.5.5.5.5.5.5.5.5.5.5.5.5.5.5.5.5.5.5.5.5.5.5.5.5.5.5.5.5.5.5. .5.5.5. .5. . .5.5.5. . . .5. . . . . . .[ [  .[ [ / Y Y Y Y Y Y Y Y G G Y Y Y G G Y ",
"5.5.5.5.5.5.5.5.5.5.5.5.5.5.5.5.5.5.5.5.5.5.5.5.5.5.5.5.5.5.5.5.5.5.5.5.5.5.5.5.5.5. . . .5.5.5.5.5.5.5.5.5.5.5.5.5.5.5.5.5.5.5. . . . . . . . . .5.5. .[  . . .[  . . . . .[  . .[ / Y Y Y Y Y Y Y Y G G Y Y Y G G G v ",
"5.5.5.5.5.5.5.5.5.5.5.5.5.5.5.5.5.5.5.5.5.5.5.5.5.5.5.5.5.5.5.5.5.5.5.5.5.5.5.5.5.5. . .5.5.5.5.5.5. .5.5.5.5.5.5.5.5.5.5.5. . . . . . . .5.5. . . . . . .[ [ [ / [ [  .[ [ / / / / / / Y Y G Y Y G Y Y Y Y G Y G Y G k ",
"5.5.5.5.5.5.5.5.5.5.5.5.5.5.5.5.5.5.5.5.5.5.5.5.5.5.5.5.5.5.5.5.5.5.5.5.5.5.5.5.5.5.5.5.5.5.5.5.5.5.5.5.5.5.5.5.5.5. .5. . .5. . . . . .5. . .5. . . . .[ [ [ [ / [ [ [ / / / / Y Y Y Y Y Y G G G G G Y Y Y Y G Y Y Y k ",
"5.5.5.5.5.5.5.5.5.5.5.5.5.5.5.5.5.5.5.5.5.5.5.5.5.5.5.5.5.5.5.5.5.5.5.5.5.5.5.5.5.5.5.5. . . .5.5.5. . . . . .5. . . . . . . . . . . . . . .[  . .[ / / / / / [ / / / / / / / Y Y Y / / / Y Y Y Y G Y Y G Y Y G G G L n ",
"5.5.5.5.5.5.5.5.5.5.5.5.5.5.5.5.5.5.5.5.5.5.5.5.5.5.5.5.5.5.5.5.5.5.5.5.5.5.5.5.5.5.5.5. .5.5.5.5.5. . . . . .5.5. . . .[ [ [  .[  . . .[ [ [ /  .[ / / / / / [ / Y / / / / / Y Y / / / / / Y Y Y Y Y Y Y G G v v v z k ",
"5.5.5.5.5.5.5.5.5.5.5.5.5.5.5.5.5.5.5.5.5.5.5.5.5.5.5.5.5.5.5.5.5.5.5.5.5.5.5.5.5.5.5.5.5.5.5.5.5.5. . . . . . . .5. .[ [ [ [ [ [  .[ [ [ [ / / [ [ / / / / / / / / / / / Y Y Y Y Y Y Y Y Y Y Y Y Y G G G G v G G v k a ",
"5.5.5.5.5.5.5.5.5.5.5.5.5.5.5.5.5.5.5.5.5.5.5.5.5.5.5.5.5.5.5.5.5.5.5.5.5.5.5.5.5.5.5.5.5.5.5. .5.5.5. . . . . . . . .[ [ [ [ [ [  .[ [ [ / / Y / [ / / / / / / / / / / / / Y Y Y G G G G G G G G G G G G G Y G Y v v v ",
"5.5.5.5.5.5.5.5.5.5.5.5.5.5.5.5.5.5.5.5.5.5.5.5.5.5.5.5.5.5.5.5.5.5.5.5.5.5.5.5.5.5.5.5.5.5.5. .5.5.5.5.5. .5. . . .[  .[  . .[  . . . .[ / / [ / / [ [ [ [ / / / / / / Y Y / Y Y G Y Y Y Y G G G G v G G G Y Y G k k k ",
"5.5.5.5.5. .5.5.5.5.5.5.5.5.5.5.5.5.5.5.5.5.5.5.5.5.5.5.5.5.5.5.5.5.5.5.5.5.5.5.5.5.5.5.5.5.5.5.5.5.5.5.5.5. .5. . . . . .[  . . . . .[ [ [ [ [ / / [ [ [ / / / [ / / / / Y Y / Y / Y / Y Y Y Y G G G G G G G Y v k v v ",
"5.5.5. .5.5.5.5.5.5.5.5.5.5.5.5.5.5.5.5.5.5.5.5.5.5.5.5.5.5.5.5.5.5.5.5.5.5.5.5.5.5.5.5.5.5.5.5.5.5.5.5.5. . . . . .[ [ [ [ [  . . .[ [ [ [  . .[ [ [ [ / / / / [ / / Y / Y / / / Y Y / Y Y Y / G G G G G G G G G G G v ",
"5.5.5.5.5.5.5.5.5.5.5.5.5.5.5.5.5.5.5.5.5.5.5.5.5.5.5.5.5.5.5.5.5.5.5.5.5.5.5.5.5.5.5.5.5.5.5.5.5.5.5.5.5. . . . . .[ [ / / / [  . .[ / / [  . .[ [ [ [ / / / / / / / / Y Y / / Y Y Y G G G Y Y G G Y Y G G G G v G G G ",
" .5. .5.5.5.5.5.5.5.5.5.5.5.5.5.5.5.5.5.5.5.5.5.5.5.5.5.5.5.5.5.5.5.5.5.5.5.5.5.5.5.5.5.5.5.5.5.5.5. .5.5.5.5.5. . . . . . .[  .[ [ [ / / / [ [ / / / / Y / / / / Y / Y Y / / / [ / Y G Y Y Y Y G Y G Y G G Y G v G G v ",
"5. .5. .5.5.5.5.5.5.5.5.5.5.5.5.5.5.5.5.5.5.5.5.5.5.5.5.5.5.5.5.5.5.5.5.5.5.5.5.5.5.5.5.5.5.5.5.5.5.5.5.5. .5. .5. .5. . . . . .[ [ [  .[ [ / / / / / / / / [ / Y / Y / / / / Y / / / Y Y Y Y G Y G Y G Y G G G v G G k "
};
