/* XPM */
static char *squid_02_01_img[] = {
/* columns rows colors chars-per-pixel */
"108 86 64 1",
"  c gray81",
". c gray82",
"X c #D2D2D2",
"o c LightGray",
"O c gray83",
"+ c #D5D5D5",
"@ c #D7D7D5",
"# c gray84",
"$ c #D7D7D7",
"% c #D2DBD8",
"& c #D8D8D6",
"* c #D8D8D8",
"= c gray85",
"- c #DADADA",
"; c gray87",
": c #DFDFDF",
"> c gray88",
", c #E1E1E1",
"< c #E2E2E2",
"1 c gray89",
"2 c #E1E7E5",
"3 c #E4E4E4",
"4 c gray90",
"5 c #E6E6E4",
"6 c #E7E7E5",
"7 c #E6E6E6",
"8 c #E7E7E7",
"9 c gray91",
"0 c #E9E9E9",
"q c #EAEAEA",
"w c gray92",
"e c #ECECEC",
"r c gray93",
"t c #EEEEEE",
"y c #EFEFEF",
"u c #F1F1EF",
"i c gray94",
"p c #F1F1F1",
"a c #F1F3F2",
"s c #F2F2F0",
"d c gray95",
"f c #F3F3F3",
"g c #F4F4F4",
"h c gray96",
"j c #F6F6F4",
"k c #F7F7F5",
"l c #F6F6F6",
"z c gray97",
"x c #F8F8F8",
"c c #F9F9F9",
"v c #FAF8F9",
"b c gray98",
"n c #FBFBFB",
"m c #FDFDFB",
"M c gray99",
"N c #FDFDFD",
"B c #FCFFFF",
"V c #FFFCFD",
"C c #FEFEFC",
"Z c #FFFFFD",
"A c #FEFEFE",
"S c #FEFFFF",
"D c #FFFEFF",
"F c gray100",
/* pixels */
"bp7>;;------++++------------+++-%%%%%%%%&&&&&&&&&&-&+---++-+-++-++-+++++++++++++XX+XXXXXX++-++X ++++++++&&@@",
"bgr7887>>77>>77>>7777>>77777777>222222226666666667>777>777787777>77>77>7>>>>>>>>>>>>>7>>7>>>>>77777777777766",
"bbgppgggppppprprpppgppprggpppppgpppppppauufffuuupppppppgppppppppppprrrrrppprrrrrpppprpppprrrrppgpppppppguuuu",
"nnnbbbnnbbbbbbgbbbbnbbbbbbbbbbbnbbbbbxbbkkkbkkkkbgbbgbbngbgggbgggggbpggggbggggggggggggggpggbbgbggbgbbgbbfkkf",
"nnnnnnnnnnnnbnnnnnnnnnnnnnnnnnnnnnnnnnnnnnnnnnnnbnnnnnnnnnnnnnnnnnnnnnnnbgnbbbnbnnnnnbbbnnnnnnnnnnnnnnnnbCCC",
"nnnnnnnnnnnnnnnnnnnnnnnnnnnnnnnnnnnnnnnnnnnnnnnnnnnnnnnnnnnnnnnnnnnnnnnnnnnnbnnnnnnnnnnnnnnnnnnnnnnnnnnnCCCC",
"nnnnnnnnnnnnnnnnnnnnnnnnnnnnnnnnnnnnnnnnnnnnnnnnnnnnnnnnnnnnnnnnnnnnnnnnnnnnnnnnbbnnnnbbnnnnnnnnnnnnnnnnCbCC",
"nnnnnnnnnnnnnnnnnnnnnnnnnnnnnnnnnnnnnnnnnnnnnnnnnnnnnnnnnnnnnnnnnnnnnnnnnnnnnnnnnnnnnnnnnnnnnnnnnnnnnnnnCCCC",
"nnnnnnnnnnnnnnnnnnnnnnnnnnnnnnnnnnnnnnnnnnnnnnnnnnnnnnnnnnnnnnnnnnnnnnnnnnnnnnnnnnnnnnnnnnnnnnnnnnnnnnnnnnnn",
"nnnnnnnnnnnnnnnnnnnnnnnnnnnnnnnnnnnnnnnnnnnnnnnnnnnnnnnnnnnnnnnnnnnnnnnnnnnnnnnnnnnnnnnnnnnnnnnnnnnnnnnnnnnn",
"nnnnnnnnnnnnnnnnnnnnnnnnnnnnnnnnnnnnnnnnnnnnnnnnnnnnnnnnnnnnnnnnnnnnnnnnnnnnnnnnnnnnnnnnnnnnnnnnnnnnnnnnnnnn",
"nnnnnnnnnnnnnnnnnnnnnnnnnnnnnnnnnnnnnnnnnnnnnnnnnnnnnnnnnnnnnnnnnnnnnnnnnnnnnnnnnnnnnnnnnnnnnnnnnnnnnnnnnnnn",
"nnnnnnnnnnnnnnnnnnnnnnnnnnnnnnnnnnnnnnnnnnnnnnnnnnnnnnnnnnnnnnnnnnnnnnnnnnnnnnnnnnnnnnnnnnnnnnnnnnnnnnnnnnnn",
"nnnnnnnnnnnnnnnnnnnnnnnnnnnnnnnnnnnnnnnnnnnnnnnnnnnnnnnnnnnnnnnnnnnnnnnnnnnnnnnnnnnnnnnnnnnnnnnnnnnnnnnnnnnn",
"nnnnnnnnnnnnnnnnnnnnnnnnnnnnnnnnnnnnnnnnnnnnnnnnnnnnnnnnnnnnnnnnnnnnnnnnnnnnnnnnnnnnnnnnnnnnnnnnnnnnnnnnnnnn",
"nnnnnnnnnnnnnnnnnnnnnnnnnnnnnnnnnnnnnnnnnnnnnnnnnnnnnnnnnnnnnnnnnnnnnnnnnnnnnnnnnnnnnnnnnnnnnnnnnnnnnnnnnnnn",
"nnnnnnnnnnnnnnnnnnnnnnnnnnnnnnnnnnnnnnnnnnnnnnnnnnnnnnnnnnnnnnnnnnnnnnnnnnnnnnnnnnnnnnnnnbnnnnnnnnnnnnnnnnnn",
"nnnnnnnnnnnnnnnnnnnnnnnnnnnnnnnnnnnnnnnnnnnnnnnnnnnnnnnnnnnnnnnnnnnnnnnnnnnnnnnnnnnnnnnnbbbnnnnnnnnnnnnnnnnn",
"nnnnnnnnnnnnnnnnnnnnnnnnnnnnnnnnnnnnnnnnnnnnnnnnnnnnnnnnnnnnbbnnnnnnnnnnnnnnnnnnnnnnnbgggggnnnnnnnnnnnnnnnnn",
"nnnnnnnnnnnnnnnnnnnnnnnnnnnnnnnnnnnnnnnnnnnnnnnnnnnnnnbbnnnbbbbbggbbnbbbbbbbgbbbgbggbggggpgbnnnnnnnnnnnnnnnn",
"nnnnnnnnnnnnnnnnnnnnnnnnnnnnnnnnnnnnnnnnnnnnnnnnnnbbbbbggbgbggggpppggggpppgppgppprppgpppgppgnnnnnnnnnnnnnnnn",
"nnnnnnnnnnnnnnnnnnnnnnnnnnnnnnnnnnnnnnnnnnnnnnnnnnbbbbbbgbggggpgpppppppprpppppprrpprrrrrgpppbnnnnnnnnnnnnnnn",
"nnnnnnnnnnnnnnnnnnnnnnnnnnnnnnnnnnnnnnnnnnnnnnbbnbbbgggggbggggpgprpppppprpprrppr888rrrppprr8gnnnnnnnnnnnnnnn",
"nnnnnnnnnnnnnnnnnnnnnnnnnnnnnnnnnnnnnnnnnnnnbbbbbbbbbgggggggpgppprrrrppprprr8rr8prpprrr8rr88gnnnnnnnnnnnnnnn",
"nnnnnnnnnnnnnnnnnnnnnnnnnnnnnnnnnnnnnnnnnnnnbgbggggbbgggggpgpppprprrrrrrrrp88rrrr8r88888r8rppgnnnnnnnnnnnnnn",
"nnnnnnnnnnnnnnnnnnnnnnnnnnnnnnnnnnnnnnnnbbnbgbggggggggpppppppprprrrrrr8rrprrrrrr8r888r8r77888rgnnnnnnnnnnnnn",
"nnnnnnnnnnnnnnnnnnnnnnnnnnnnnnbbnbnnnnnngbbggggggggggggggppppppprpprrr8r77887887rr8rr888777878gnnnnnnnnnnnnn",
"nnnnnnnnnnnnnnnnnnnnnnnnnnnnbbbbbbbgbgbbgggggggggggggppgppppprrrrprprr8888r88rr888r88888>77rpgnnnnnnnnnnnnnn",
"nnnnnnnnnnnnnnnnnnnnnnnnbbgbgbbbpgggggpppgggggbgbggggggggpggpppprrprrrr8r888r8rr7788r8r878pbnnnnnnnnnnnnnnnn",
"nnnnnnnnnnnnnnnnnnnnnnbbgggppgbgggggbgggggggggggggbgggggppppprrrrrrrrr88r878888r888887778gnnnnnnnnnnnnnnnnnn",
"nnnnnnnnnnnnnnnnnnnnnbbbbgggpgggggpgpggggpgggggggppggppp8r888888rrrr88r8p888rrr8rr777>>;gnnnnnnnnnnnnnnnnnnn",
"nnnnnnnnnnnnnnnnnnnnnbggbbggppppggpprppgpppppgpppppppprppppppppprr88r888r878887787777>77nnnnnnnnnnnnnnnnnnnn",
"nnnnnnnnnnnnnnnnbbnbbbbgbggggggbggggppppggpppgpppppppprppprpprprr8rrr8rr88778r87>877>7rgnnnnnnnnnnnnnnnnnnnn",
"nnnnnnnnnnnnnnnnbbnbbbggbbbbggggppggggggpgggppgpgpppprprrrrrrrr8p8r88r8rr888788888777rgnnnnnnnnnnnnnnnnnnnnn",
"nnnnnnnnnnnnnnnnnnbbbbbbbbggbggbggggggggggppgpppppprrprppprrrrr8pr8888rr8rr7>7778778gnnnnnnnnnnnnnnnnnnnnnnn",
"nnnnnnnnnnnnnnnnnnbbgbbngpggggggbbggggggppgpppppppprrrrprrrrrrrr88rr8r7788r>>777778gnnnnnnnnnnnnnnnnnnnnnnnn",
"nnnnnnnnnnnnnnnnnnnbbbbngggggbbbbbgbggpgpppppppppprrrrrr8rr8888888r888778r8788r778bnnnnnnnnnnnnnnnnnnnnnnnnn",
"nnnnnnnnnnnnnnnnnnbbbgbbnbnbbggbggbggbggppppprppprrrrrrrr8rr8rr8rr87877777>78887pbnnnnnnnnnnnnnnnnnnnnnnnnnn",
"nnnnnnnnnnnnnnbnbbbbbbbnbbbbbbbggggggpggppprppprrrrr8r8rrrrrr8rrr88877877>>7878pbnnnnnnnnnnnnnnnnnnnnnnnnnnn",
"nnnnnnnnnnnnbbbnbbbgbbbbggbgggggbbgggpppppppprrprrrrrrr88rrr888888rr88>7878pr8pnnnnnnnnnnnnnnnnnnnnnnnnnnnnn",
"nnnnnnnnnnnnnnnnnnnnnbbbgggggbgbggggpprrpprpprprpprrrrr8rrrr88r8778887>>78778pnnnnnnnnnnnnnnnnnnnnnnnnnnnnnn",
"nnnnnnnnnnnnnnbbnnbbbbgbgbbbgbbgrppggpppprprrprprrrr88rr8rr88888888887r87778rbnnnnnnnnnnnnnnnnnnnnnnnnnnnnnn",
"nnnnnnnnbbbnnbbgnbbbbbbgbggbbgbbppggppppppprprrprrr8rrrr88rr888877777888>78pbnnnnnnnnnnnnnnnnnnnnnnnnnnnnnnn",
"nnnnnnnnbbnnnnbbbbgbggbbbgggpgpggggppprpprpprprrrrrrr8rr8r8888887>>7877>>8pbnnnnnnnnnnnnnnnnnnnnnnnnnnnnnnnn",
"nnnnnnnnbnnnnbbbbbbgbbbgggggggpgppppppgprppprrrrrrrrr8r88rr8888r7>7877>>7pbnnnnnnnnnnnnnnnnnnnnnnnnnnnnnnnnn",
"nnnnnnnnbbnnbbbbbbbbbgbbbbbgggggpppppppppprprrrrr88rr88888r88888777>>77>pbnnnnnnnnnnnnnnnnnnnnnnnnnnnnnnnnnn",
"nnnnnnnnbbbbbbbbbbbbbgggbggbbggggggprrrrrprrrrrrrrrrr8778r8877887>>>>8rpnnnnnnnnnnnnnnnnnnnnnnnnnnnnnnnnnnnn",
"nnnnnnnnbbbbgbbbbgbgbbggbggggggggpppprpprrrrr888rrrr88777877777777778pbnnnnnnnnnnnnnnnnnnnnnnnnnnnnnnnnnnnnn",
"nnnnnnnnnnbbbbbgggbgggggpppppppgpppppppppprrrrr88rr8rr88887888777>>7pnnnnnnnnnnnnnnnnnnnnnnnnnnnnnnnnnnnnnnn",
"nnnnnnnnnnbbbggbbbbgbgggpgggggggpprprppprr8888r88r8r8r88888r88777>7rgnnnnnnnnnnnnnnnnnnnnnnnnnnnnnnnnnnnnnnn",
"nnnnnnnnnnbbbbbbbbbgbggbgggggggggpppprrrpprrrrrpr88888r878888777>7rgnnnnnnnnnnnnnnnnnnnnnnnnnnnnnnnnnnnnnnnn",
"nnnnnnnnnnbbgbbgbgbbggggggggggggggpprrrrrppr888p88888888888877>78rgnnnnnnnnnnnnnnnnnnnnnnnnnnnnnnnnnnnnnnnnn",
"nnnnnbnnnnbbbbgbbgggggggggggppppggpprrrrrr888888rr88877788877>77gbnnnnnnnnnnnnnnnnnnnnnnnnnnnnnnnnnnnnnnnnnn",
"nnnnbbnnnnbbbbbbgggbggpppgppppprprprpppprprpr8rrrr8877777877778rnnnnnnnnnnnnnnnnnnnnnnnnnnnnnnnnnnnnnnnnnnnn",
"nnnnnnnnnnbbbbbbgbbgggggggppppppprrrprpppppppprr88887777777788pbnnnnnnnnnnnnnnnnnnnnnnnnnnnnnnnnnnnnnnnnnnnn",
"nnnnnnnnnnbbbbbgbbggbggggggggppppppprrrr8rr8r8778r88777877778rbnnnnnnnnnnnnnnnnnnnnnnnnnnnnnnnnnnnnnnnnnnnnn",
"nnbbnnnnbnbbbbbbnnbbggggggppppprprprrrrrr8888r878888r8887>78gnnnnnnnnnnnnnnnnnnnnnnnnnnnnnnnnnnnnnnnnnnnnnnn",
"nnbbbbbbnnbbbggbnbbgggggggppppppprrrppprrrrrrrr8888r8887>7pbnnnnnnnnnnnnnnnnnnnnnnnnnnnnnnnnnnnnnnnnnnnnnnnn",
"nnbbbbbbnbbbbbbgbgbggggbgppppprprrrrpppprrrrrrrr8r88887>>rbnnnnnnnnnnnnnnnnnnnnnnnnnnnnnnnnnnnnnnnnnnnnnnnnn",
"nnbbbbnnnbbbbbgbbgggggggpprrrpppprrrrrrrrr88888888887777pgnnnnnnnnnnnnnnnnnnnnnnnnnnnnnnnnnnnnnnnnnnnnnnnnnn",
"nnnnnnnnbbgbgbgggggggbggppprppprpprr888888r8888888r88rrpnnnnnnnnnnnnnnnnnnnnnnnnnnnnnnnnnnnnnnnnnnnnnnnnnnnn",
"nnnnbbbbbbbgbbbgggbbbgggpppprprpppr8r887rrr8888r88rppgbbnnnnnnnnnnnnnnnnnnnnnnnnnnnnnnnnnnnnnnnnnnnnnnnnnnnn",
"nbnnbgbbbbbbbggbggggggggpppprrpprrrr8r888rrrr888rpgbnnnnnnnnnnnnnnnnnnnnnnnnnnnnnnnnnnnnnnnnnnnnnnnnnnnnnnnn",
"bbbbbgbgbbbbbbgbbgbbggggpggprrrpr88rrrrr8r8r8888pbnnnnnnnnnnnnnnnnnnnnnnnnnnnnnnnnnnnnnnnnnnnnnnnnnnnnnnnnnn",
"gggggbggbbbbbbbgggggggggggppggp8888rrrr8rr888rrpnnnnnnnnnnnnnnnnnnnnnnnnnnnnnnnnnnnnnnnnnnnnnnnnnnnnnnnnnnnn",
"nnbbbggggbggggbggbbggggpgprpprr8rrrrrr87r888pbbnnnnnnnnnnnnnnnnnnnnnnnnnnnnnnnnnnnnnnnnnnnnnnnnnnnnnnnnnnnnn",
"bbbbbgbgggbggggggggpgpppggggggpprrrrrr88rrrpnnnnnnnnnnnnnnnnnnnnnnnnnnnnnnnnnnnnnnnnnnnnnnnnnnnnnnnnnnnnnnnn",
"gbgggbggbgggbggggggggpggppgprrrr88rrrrr878pbnnnnnnnnnnnnnnnnnnnnnnnnnnnnnnnnnnnnnnnnnnnnnnnnnnnnnnnnnnnnnnnn",
"bggggggggbgggggggggggppppppprrrrr8rrrr887pnnnnnnnnnnnnnnnnnnnnnnnnnnnnnnnnnnnnnnnnnnnnnnnnnnnnnnnnnnnnnnnnnn",
"bbbbbbgbggpggppggggggpppppgppppprrr88r87pgnnnnnnnnnnnnnnnnnnnnnnnnnnnnnnnnnnnnnnnnnnnnnnnnnnnnnnnnnnnnnnnnnn",
"bbbbgggggggggpppgpgppppprprrr8rrprrrr877nnnnnnnnnnnnnnnnnnnnnnnnnnnnnnnnnnnnnnnnnnnnnnnnnnnnnnnnnnnnnnnnnnnn",
"gpggggggggggggggppprprrrppprrrrpr8888r87nnnnnnnnnnnnnnnnnnnnnnnnnnnnnnnnnnnnnnnnnnnnnnnnnnnnnnnnnnnnnnnnnnnn",
"bggpppggpppppppppppprpprrrrrrrrrrr8rp77pnnnnnnnnnnnnnnnnnnnnnnnnnnnnnnnnnnnnnnnnnnnnnnnnnnnnnnnnnnnnnnnnnnnn",
"bgbggggbggggggpgpppppppprrrrr8rrrp88r87bnnnnnnnnnnnnnnnnnnnnnnnnnnnnnnnnnnnnnnnnnnnnnnnnnnnnnnnnnnnnnnnnnnnn",
"bbbgbggbbggggggggpppprrrrrr8r88r8p87878nnnnnnnnnnnnnnnnnnnnnnnnnnnnnnnnnnnnnnnnnnnnnnnnnnnnnnnnnnnnnnnnnnnnn",
"ppggggggpgppppppprrrrrrrrrrrrr888877878nnnnnnnnnnnnnnnnnnnnnnnnnnnnnnnnnnnnnnnnnnnnnnnnnnnnnnnnnnnnnnnnnnnnn",
"ppggpggppppppppr788rrppprrrprr88788787rnnnnnnnnnnnnnnnnnnnnnnnnnnnnnnnnnnnnnnnnnnnnnnnnnnnnnnnnnnnnnnnnnnnnn",
"gggggggggppppppprrrprrrrrrrpr8r88r8rr8rnnnnnnnnnnnnnnnnnnnnnnnnnnnnnnnnnnnnnnnnnnnnnnnnnnnnnnnnnnnnnnnnnnnnn",
"bbgbbgggggpgppppggpprrr8r8r88r8r8r8788rnnnnnnnnnnnnnnnnnnnnnnnnnnnnnnnnnnnnnnnnnnnnnnnnnnnnnnnnnnnnnnnnnnnnn",
"bgggggggppgpppppr8rrrr8rr888888888778>8nnnnnnnnnnnnnnnnnnnnnnnnnnnnnnnnnnnnnnnnnnnnnnnnnnnnnnnnnnnnnnnnnnnnn",
"ggggggggppgpprpprr8r8rrr8r8r88rr8r8878rgnnnnnnnnnnnnnnnnnnnnnnnnnnnnnnnnnnnnnnnnnnnnnnnnnnnnnnnnnnnnnnnnnnnn",
"gbgbgggppgpppppprprrrrrrrrrrr8rrprr8888rnnnnnnnnnnnnnnnnnnnnnnnnnnnnnnnnnnnnnnnnnnnnnnnnnnnnnnnnnnnnnnnnnnnn",
"bggggppppgpppppprpprrrrr8rrr8rrrrrr88777bnnnnnnnnnnnnnnnnnnnnnnnnnnnnnnnnnnnnnnnnnnnnnnnnnnnnnnnnnnnnnnnnnnn",
"gggggggggppppppprrrrrr88888r888887778777pnnnnnnnnnnnnnnnnnnnnnnnnnnnnnnnnnnnnnnnnnnnnnnnnnnnnnnnnnnnnnnnnnnn",
"gggggggggppppgprrrrrrr888888888r777788888pnnnnnnnnnnnnnnnnnnnnnnnnnnnnnnnnnnnnnnnnnnnnnnnnnnnnnnnnnnnnnnnng8",
"bgbgggpppppppppprprprrrrrrrrr8rrrr8888rr8pbnnnnnnnnnnnnnnnnnnnnnnnnnnnnnnnnnnnnnnnnnnnnnnnnnnnnnnnnnnnnnnng8"
};
