/* XPM */
static char *squid_01_01_ctrl[] = {
/* columns rows colors chars-per-pixel */
"144 28 256 2",
"   c #000204",
".  c #010509",
"X  c #000806",
"o  c #010A0B",
"O  c #080005",
"+  c #0A030B",
"@  c #09080D",
"#  c #030D11",
"$  c #0C0D11",
"%  c #03120F",
"&  c #031313",
"*  c #0B1314",
"=  c #0B1419",
"-  c #0B1A1B",
";  c #11000B",
":  c #111215",
">  c #151519",
",  c #141B1C",
"<  c #1B191E",
"1  c #1B1C20",
"2  c #161B21",
"3  c #15211F",
"4  c #132325",
"5  c #1B2124",
"6  c #1D2628",
"7  c #182A2B",
"8  c #25292B",
"9  c #28282C",
"0  c #252E31",
"q  c #292E31",
"w  c #2F2D38",
"e  c #2C3234",
"r  c #2A3338",
"t  c #2C3A3B",
"y  c #363638",
"u  c #323C3D",
"i  c #39393E",
"p  c #3C3E41",
"a  c #37403F",
"s  c #2F4244",
"d  c #324141",
"f  c #354749",
"g  c #384242",
"h  c #3C4749",
"j  c #3C4846",
"k  c #434549",
"l  c #444C4C",
"z  c #4A4E4F",
"x  c #464E50",
"c  c #4B4F50",
"v  c #425352",
"b  c #425758",
"n  c #435859",
"m  c #485354",
"M  c #495C5A",
"N  c #515D5D",
"B  c #53565D",
"V  c #575F62",
"C  c #4C6663",
"Z  c #566A6A",
"A  c #5A6264",
"S  c #5E666B",
"D  c #5F6A6E",
"F  c #536662",
"G  c #5D6C71",
"H  c #5B7374",
"J  c #646469",
"K  c #61696B",
"L  c #6E6F73",
"P  c #657373",
"I  c #607C7F",
"U  c #6A7575",
"Y  c #6E747A",
"T  c #6E7A7B",
"R  c #726F76",
"E  c #717777",
"W  c #76777B",
"Q  c #707B7B",
"!  c #797A7E",
"~  c #647F88",
"^  c #6A7F80",
"/  c #767E81",
"(  c #7B7F82",
")  c #73817E",
"_  c #6D8585",
"`  c #6C878A",
"'  c #728383",
"]  c #75888B",
"[  c #7C8384",
"{  c #7B8A8B",
"}  c #7C878B",
"|  c #7A8F90",
" . c #7F9193",
".. c #818484",
"X. c #818388",
"o. c #838A8D",
"O. c #8A8B8E",
"+. c #878F91",
"@. c #8B8E91",
"#. c #849092",
"$. c #829C9C",
"%. c #8C9494",
"&. c #8D9D9D",
"*. c #929397",
"=. c #94999C",
"-. c #8F9EA3",
";. c #849CA0",
":. c #9E9DA5",
">. c #8FA49F",
",. c #8DA1A2",
"<. c #8FA7A9",
"1. c #8FA8A2",
"2. c #8EACAA",
"3. c #93A3A7",
"4. c #95A5AA",
"5. c #90A9A3",
"6. c #93ADAB",
"7. c #9AA2A4",
"8. c #9CA7A9",
"9. c #9AA9A6",
"0. c #98ADAD",
"q. c #94B1AF",
"w. c #9AB3AD",
"e. c #95B2B0",
"r. c #95BFBD",
"t. c #9BB5B2",
"y. c #9EB4BA",
"u. c #9CB9B7",
"i. c #9EBBBA",
"p. c #A4ACAC",
"a. c #A6AEB0",
"s. c #AAADB1",
"d. c #A2B1AE",
"f. c #A5B1B2",
"g. c #A2BBB5",
"h. c #A2BBBA",
"j. c #ACB3B4",
"k. c #ACBBBC",
"l. c #B1B3B6",
"z. c #B3B6BA",
"x. c #B5BCBB",
"c. c #B8BEBC",
"v. c #B7BFC1",
"b. c #BDBEC2",
"n. c #A4C1BD",
"m. c #BAC0BE",
"M. c #ADC1C2",
"N. c #A6C4C2",
"B. c #AFD1D3",
"V. c #AED8D6",
"C. c #B6C1C2",
"Z. c #B4CBCC",
"A. c #BBC3C4",
"S. c #BCC6C8",
"D. c #BDCBCC",
"F. c #B6D3CF",
"G. c #B5D5D5",
"H. c #B5D7D8",
"J. c #B0D9D5",
"K. c #B5DADA",
"L. c #BCD4D5",
"P. c #B9D6D9",
"I. c #BAD8D6",
"U. c #BADCDD",
"Y. c #BDDEE0",
"T. c #B5E2DC",
"R. c #BAE1DD",
"E. c #BEE0E1",
"W. c #BBEAE5",
"Q. c #C2C4C4",
"!. c #C6C5C9",
"~. c #C6C8C7",
"^. c #C4C9CA",
"/. c #CBC5CA",
"(. c #CBCBCB",
"). c #C2D4D3",
"_. c #C2D7DA",
"`. c #C0DAD7",
"'. c #C2DCDD",
"]. c #C9D4D5",
"[. c #CADEDE",
"{. c #D1C6CD",
"}. c #D2C9CC",
"|. c #D2C8D0",
" X c #DACED2",
".X c gray82",
"XX c #D1DAD7",
"oX c #D1DBDC",
"OX c #D9DADD",
"+X c #D7D2D6",
"@X c #C1DDE1",
"#X c #CBDEE1",
"$X c #D7DEE4",
"%X c #DCDDE1",
"&X c #C1E2DE",
"*X c #CBE1DF",
"=X c #C2E3E4",
"-X c #C5E6E8",
";X c #C3E9E4",
":X c #C6E9E9",
">X c #CBE3E3",
",X c #C8E6E9",
"<X c #CBE9E5",
"1X c #C9EBEC",
"2X c #C7EDF0",
"3X c #CFE7F1",
"4X c #CCEEF0",
"5X c #C5F0ED",
"6X c #CCF1ED",
"7X c #C5F3F1",
"8X c #CDF2F2",
"9X c #CFF2F8",
"0X c #CDF8F1",
"qX c #CEFCFB",
"wX c #D1E4E4",
"eX c #D3E6E8",
"rX c #D3E9E7",
"tX c #D3EBEC",
"yX c #DCE5E5",
"uX c #DBE6E8",
"iX c #DDEDED",
"pX c #D2EEF1",
"aX c #D6EEF8",
"sX c #DBECF0",
"dX c #D2F1ED",
"fX c #DBF1EF",
"gX c #D2F3F4",
"hX c #D4F6F8",
"jX c #D3F9F5",
"kX c #D4FAFA",
"lX c #DCF4F4",
"zX c #D8F5F8",
"xX c #DBFAF5",
"cX c #DBFDFD",
"vX c #E0D4D8",
"bX c #E8DCE0",
"nX c #E0E1E3",
"mX c #E2EBEC",
"MX c #E8E6E9",
"NX c #E3E6EB",
"BX c #E5EFF1",
"VX c #E4F5F4",
"CX c #E2F7F8",
"ZX c #E3F9F5",
"AX c #E3FEFD",
"SX c #EAF4F5",
"DX c #EBF6F9",
"FX c #EBFCF7",
"GX c #EBFDFD",
"HX c #F3E7EB",
"JX c #F1EFF2",
"KX c #FBEFF3",
"LX c #F4F7F9",
"PX c #F1FAF7",
"IX c #F3FDFD",
"UX c #F9FEFE",
/* pixels */
"U.U.U.U.U.U.U.U.P.K.U.U.K.U.U.P.K.P.K.U.U.U.Y.K.Y.K.U.U.U.K.Y.Y.@XU.=XK.U.E.H.@XP.P.Y.Y.U.P.I.H.U.U.U.T.K.V.Y.K.I.R.I.U.I.'.U.U.U.U.H.U.Y.P.U.U.Y.@XP.Y.Y.P.Y._.H.R.'.=X@XP.Y.Y.Y.Y.P.H.U.I.H.U.U.U.U.U.K.Y.K.U.U.U.U.U.U.U.U.U.U.Y.Y.K.Y.K.K.Y.P.Y.Y.K.Y.P.Y.K.U.U.U.U.U.U.U.K.Y.P.Y.K.U.U.U.U.",
"U.U.U.U.U.U.U.U.Y.K.Y.K.U.U.K.Y.Y.Y.K.Y.U.U.K.Y.K.P.K.Y.Y.P.U.Y.G.=XU.H.K.U.@XI.@XY.P.Y.H.'.<XI.'.G.U.U.K.Y.Y.P.T.I.I.'.G.U.G.Y.@XU.@XP.I.@XI.Y._.Y.Y.H.P.P.@XP.&XU.U.G.U.=XP.Y.Y.P.Y.Y.H.U.W.H.U.U.U.U.U.U.U.U.U.U.U.U.U.U.U.U.U.U.U.K.Y.K.Y.K.Y.K.P.Y.K.Y.K.Y.U.U.U.U.Y.U.U.K.U.U.K.Y.U.U.U.U.",
"U.U.U.U.U.U.U.U.P.Y.Y.Y.U.U.K.P.U.K.U.U.U.U.U.U.U.U.Y.U.Y.Y.U.E.E.U.U.,X-XU.U.E.Y.-XB.Y.E.R.U.&X'.U.U.I.-X@XB.Y.I.'.I.'.R.I.I.@XU.H.@XU.U.@XP.U.Y.K.Y.Y.U.U.@XG.I.G.&X&XY.Y.K.Y.@X@XP.P.=XU.K.'.U.U.U.U.U.U.Y.U.Y.U.U.U.U.Y.U.U.U.Y.U.U.Y.P.Y.U.Y.Y.K.K.U.Y.Y.Y.U.U.U.U.K.Y.K.Y.U.U.Y.P.U.U.U.U.",
"U.U.U.U.U.Y.U.U.Y.Y.K.Y.Y.U.Y.Y.Y.Y.U.Y.U.U.U.U.Y.U.U.Y.Y.U.U.Y.R.'.,X`.P.1X=XI.Y.Y.:XG.<XU.&XI.`.>X'.G.Y.Y.Y.-XL.>XG.U.=XU.=XU.=X-XI.E.Y.U.=X=XY.W.V.Y.E.U.U.Y.'.'.R.R.U.H.Y.U.P.P.@X@XP.R.&XU.U.Y.Y.U.E.U.U.U.U.U.U.Y.U.U.U.Y.U.U.U.Y.Y.Y.Y.Y.P.Y.Y.Y.U.U.U.U.U.U.U.U.Y.K.Y.K.K.Y.K.Y.U.U.U.U.",
"Y.U.Y.U.Y.Y.U.Y.Y.Y.Y.Y.Y.Y.Y.Y.Y.Y.Y.Y.Y.Y.Y.Y.E.E.E.E.Y.Y.E.E.R.&XZ.5.0.`.<X&XW.H.R.=XI.=XI.I.-.t.L.tX@XP.=XP.eXZ.1XE.E.U.=X@X'.U.P.R.'.U.U.'.J.9XG.>X[.L.`.=XL.>X=XK.U.W.U.@X#X'.0.;.Z.<X&X'.Y.Y.E.E.Y.Y.E.Y.Y.Y.Y.Y.Y.Y.Y.Y.Y.Y.Y.Y.Y.Y.Y.Y.Y.Y.Y.E.Y.Y.Y.U.U.U.U.U.U.U.U.U.Y.Y.U.Y.U.U.U.U.",
"Y.Y.Y.Y.Y.Y.Y.Y.E.E.E.Y.E.E.E.E.Y.U.Y.E.E.E.E.E.E.=XE.E.Y.E.=XE.*XZ X   . & H rXE.2XI.,X<X`.b X . o 7 _ _.#XY.E.D - Z.U.U.=XY.@X:.. 6.P.P.6.. 3.rXD.*     + +   h { '.<XR.=XY.>XQ = . o . b C.>XE.E.E.E.E.E.E.E.Y.@XE.Y.@XY.Y.Y.E.E.Y.Y.E.E.E.E.Y.E.E.E.Y.Y.E.Y.Y.E.E.Y.Y.Y.Y.Y.Y.Y.Y.Y.Y.E.E.E.",
"E.E.E.W.E.E.E.E.E.Y.E.E.E.Y.E.E.Y.Y.E.Y.E.Y.E.Y.E.E.E.E.=X=XE.U.S X X t a   X T -XU.4XeXZ.4 . = p 7   # ' @XY.E.Y . >X:XY.W.Y.,X:.o -.>X>X,.o :.*X*X  . +         & ) &XU.E.@X$.  . 8 u *   m ].=XE.E.E.E.=XE.=XE.W.E.E.=XE.W.=XE.E.W.E.=X=XE.E.=XE.E.E.E.E.=XE.E.E.E.E.E.=X@X=XY.E.E.E.E.E.E.E.",
"E.E.E.E.E.E.E.E.E.E.E.E.E.E.=XE.E.E.=XY.=XY.=XY.E.=X=X=X=X=XU.B.  q D.wXwXf.: @ P.1X,X#Xf . K ].>X>X8.# o <.1XR.Y   =XE.W.U.@X#X:.. <.@X*X3.  :.T.;XX N =.9.>.>.Y   & n.U.=X1X- : s.OXOX^.e   :.E.=X=XE.=XE.=XE.=X=X=X=X=X=X=X=XE.E.-X=X=XE.=X=X=X=X=X=X=X=X=X=X=X=X=XE.=X=X=X=X@XE.=X=X=X=X=XE.",
"=XE.=XE.=XE.E.=XE.E.=XE.E.E.E.E.E.E.E.E.E.E.E.=X=X=X-X=X@X=X,X~ # y.,XY.3X#XO.O >.;X*Xd.  C <X,X-X=X,Xy.= w sXW.U o eX#X1X=X:X=X1.  6.=X=X2.  >.'.<X. Q [.;X&X=X&X' o B >XR.k.; ~ =X1X1X@Xv.. S =X=X=X-X=X=X=X=X=X=X-X=X=X-X=X=X-X-X-X-X:X=X:X=X-X-X>X=X=X=X>X-X=X,X>X-X=X>X=X=X,X=X>X=X=X>X=X=X",
"=XE.E.=XE.=X=XE.=XE.E.E.E.E.E.=X=X:X=XE.=X=X=X=X=X=X=XE.,X,X@XH . >X,XhX@X3XL.o ` <X<XA * F.6XaX7X1XpX>XG = S.:XQ o tX,X3X-X2X,X5.  6.,X,X6.  5.;XwXo T *X:X:X=XdXU.t 2 *X:X,.+ 2.1X=XT.9X,X7 p -X=X-X:X-X-X:X-X:X:X:X:X-X-X:X=X:X:X:X-X:X:X=X:X,X,X,X=X,X,X-X,X,X-X-X,X,X=X-X,X,X>X-X=X=X=X>X,X",
"=XE.=XE.=XE.=XE.-XE.=X=XE.-X=X=X=XE.-XE.=X=X-X=X-X-XE.E.,X,X@X` X *X1XU.2X2X9Xr.1X1X<X3 l xX6X6X7XgXgXhXM.  | 0XT o sX1X9X1X6X6X6.  e.1X1X0.  0.:XtXX T ;X0X:X7X'.gX' . 0.;Xq.  ;.-X6X:XW.7Xr.W.1X1X2X1X1X:X<X<X:X1X1X:X1X-X:X:X1X1X1X1X:X:X,X<X1X,X1X,X,X-X,X,X1X,X,X1X,X,X-X-X,X,X-X,X,X,X-X-X",
"E.=XE.=XE.=XE.=XE.=X=XE.=XE.=XE.=X=XE.E.-X=X=X=XE.1X-XE.-X-X4Xi.  U BX1XhX1X9X9XgX0XdX% ) dXkXzXqXhX6X1XtX& Z 0X) o lXpXhX0XhXjXw.  e.gXgXt.  w.6XdXX ' fXjX7X9XhX:XF.o | 0X;X- v >XdX1XhX7XW.7X4X8X4X8X6X4X8X1X4X1X4X4X4X1X4X1X1X4X6X1X1X1X1X1X1X1X1X1X1X,X1X1X1X:X1X1X1X1X1X,X1X:X-X1X:X-X:X:X",
"=X=X-XE.=XE.=X=X=XE.E.E.E.-X=X=XE.E.:XE.=X=X:X:X=XW.:X:X1X,XgX1Xy * N &.aXCXhXaXAX6Xq.X p.xX6XAXcXkXkXjXAXu v jX) o lXzXcXcXkXkXt.  u.zXxXu.. t.hXxX. ' xXkXkXkXxX1XdX. ] jXcX' X j #.wXlX1XcXkXzXgX9XhXhXgX9X9XgXgXgX9XgXgXgX6X9X9XgX6XdX6X4X1X8X8X1X8X1X4X6X1X6X8X1X1X8X1X1X8X1X1X1X1X1X:X1X1X",
"=XE.E.=XE.-XW.E.=X-X-XE.E.E.=X=X-X-XE.:X=X-X:X:X1X:X:X1XgX4XzXzX$Xg       m 4.DXAXkXn.  k.GXcXAXAXAXAXkXxXz g xX) X CXAXcXcXcXAXg.  h.cXcXi.  u.cXCX. [ ZXcXkXcXgXAXGX  #.gXcXlXP o . @ r -.#XlXcXcXcXcXcXxXkXhXhXkXhXcXxXjXhXzXhXhX9XzX9X9X9XhX8X8X0X8X9X7X8X9X8XjX7X8X8X6X7X7X9X8X8X7X7X8X8X5X",
"=X=X=X=X=XE.-X-X-X-XE.E.-XW.-X=X-X:X:X:X:X1X1X1X7X1X8X8XgXzXhXcXAXzXn.F , & . S GXxXg.  c.lXGXCXAXAXxXcXxXk p AX..X IXAXAXAXAXAXg.  i.AXAXi.  g.cXGX. [ AXAXcXAXGXcXCX  o.lXkXxXAXZ.' r     t lXcXcXcXcXcXcXcXcXcXcXcXcXcXcXcXcXcXcXcXcXcXcXcXkXqXkXqXhXkXqXqXhXkXqXqX0X8XqXkXkXhXgX0X7X7XjXhX8X",
"=XE.E.=XE.-XE.E.-X-X:X-X-X-X-X:X1X1X:X2X1X1X4X8X0X8XhXhXgXcXcXcXqXcXxXZXFX7.r . ] AXk.X j.GXxXAXCXGXxXAXGXp l CX..X IXFXGXAXAXAXh.  i.AXAXi.  g.AXIX. [ FXAXcXAXGXcXGXo X.CXAXcXkXAXxXGX^.m X g cXcXcXcXcXcXcXAXcXAXcXcXcXcXcXcXcXAXcXcXcXcXcXcXkXcXcXkXkXkXkXkXkXkXhXkXkXhXkXkXqXqXkXkXjXqXkXqX",
"=X=X=X-X=X=X-X-X:X-X:X-X:X1X1X1X1X4X1X4XgXhXaXgXgXcXhXjXAXhXGXlXAXlXlXGXlXGXuX1 t DXGX. { GXCXGXAXGXAXIXIX  U GXo.  UXVXIXFXAXGXx.  f.GXlXS.. c.IXDX. { IXCXAXGXGXDXx.  0.FXFXIXCXAXAXxXAXlXm . eXGXCXAXGXCXAXGXAXAXGXAXAXAXAXAXAXAXAXAXcXAXcXcXAXcXcXcXcXcXcXcXcXcXcXcXcXcXcXcXcXcXcXcXcXcXcXcX",
"=X=X:X-X:X-X:X-X1X:X:X:X1X1X1X1X4X4X4X9X4X4X9XgXhXhX9XcXcXxXtXs _ AXAXjXAXAXGX{ o IXIX4 v DXIXIXAXGXGXIXS.. +.DX/ . IXIXCXFXGXAXp.  x.VXIXj.. k.GXIXo [ LXGXCXGXCXFXo.. C.AX) u UXrXGXAXxXIXs.+ C.DXGXGXGXGXGXGXGXGXAXAXAXAXAXAXAXAXAXAXAXcXAXcXcXAXAXcXcXcXcXcXcXcXcXcXkXcXcXcXkXcXcXcXcXcXcXkX",
"-X:X-X:X-X-X:X1X:X1X1X1X1X1X1X4X9X4X8X4X4XhXhXzXhXcXgXAX9XAXAX# h CXAX6XcXlXZX{   DXDXQ   mXIXDXIXu p.LX(   A.IXA.  A.DXVXIXVXGX[ @ IXIXIXs.. j.IXIX. o.UXIXVXZXGXSXi , BXIXb . SXIXVXZXGXSXc.  k.GXIXCXIXGXGXGXGXGXGXAXGXAXAXAXAXAXAXAXAXAXAXAXAXcXAXcXAXcXcXcXcXcXcXcXcXcXcXcXcXcXcXcXcXcXcXcX",
"=X:X:X:X:X:X:X1X1X1X1X1X1X4X4X4X8X4XgXgXhXhXhXkXhXcXzXcXxXAXGXb   S.ZXAXxXAXIX6 0 UXIXA.o V UXUXuX& . W $ 8 UXUX[.  U IXIXSXFXIXi 1 UXUXUXc.  z.IXFXX O.VXDXIXIXGXp.  R IXVX+.  o.SXUXIXIXIX!   rXIXGXGXIXGXCXGXGXGXGXGXGXGXGXAXGXGXAXAXAXAXAXAXAXAXcXAXcXcXcXcXcXAXAXcXAXcXAXAXAXcXAXcXAXAXcXAX",
":X:X1X:X-X:X1X1X1X4X1X4X4X4X4X4XgX4XhXhXhXhXhXkXAXkXcXcXcXAXxXh.O < c.PXGXDX[ @ { SXIXUXA o V MXLXMX8   . O.UXSXLXu   x.IXIXDX%.  *.UXDXLXA.. z.FXIX  J z.j.j.9.U   > +XIXGXmX$   [ IXIXSXz.X l IXIXGXLXGXGXIXIXGXGXIXGXGXGXGXGXGXGXGXAXAXGXGXAXAXAXAXAXAXcXAXcXAXcXAXAXAXAXcXAXAXAXAXcXAXAXAXcX",
":X:X:X1X1X:X1X1X1X1X1X4X4X4XgXgXgXgX4XgXhXhXhXcXAX9XcXkXcXAXAXGXJ     e k <   q sXIXGXIXBX0 # $ g e +     J SXUXLXp.o   y a ,   > yXIXDXIXv.  !.FXIXX   :     X   # *.UXIXIXUX@.@   e i e   : Q.IXIXIXIXIXGXIXGXIXGXIXGXGXGXGXGXGXGXGXGXGXAXAXAXGXAXAXGXAXAXAXAXAXAXAXAXAXAXAXAXAXAXAXAXAXAXAXAX",
":X-X1X-X:X1X1X1X4X1X4X1X6XgX6XgXgX9XgXhXhXhXhXhXhXhXcXcXxXcXxXGXFXU -   .   z mXGXGXIXVXIXuXK .   O : [ z X A FXIXUX7.3 X X O c !.UXIXIXIXp.= s.IXyX, O   .   O M s.UXUXIXGXSXUX%.8   X O q ~.IXIXIXUXIXIXIXGXDXGXIXGXGXIXGXGXGXGXGXGXGXGXGXAXGXAXGXAXAXAXAXcXAXAXAXAXAXAXAXAXAXAXAXAXAXAXAXAXAX",
"-X:X:X1X1X:X1X1X4X4X4X4X1X4XgXgXgXgXhXgXhXhXhXcXcXAXzXcXcXcXGXCX0XAXZXm.z.oXGXZXAXAXfXIXDXIXDXBXx.z.UXUXmXg j IXIXPXUXUX~.l.nXUXIXIXIXGXAXIXSXUXVXIXnXUXUXUXLXUXGXIXUXIXGXGXIXLXIXUX~.m.(.IXPXPXIXIXDXIXIXIXFXIXIXGXIXIXGXGXGXGXGXGXGXGXGXAXGXGXAXGXAXGXAXAXAXAXAXAXAXAXAXAXAXAXAXAXAXAXAXAXAXAX",
"eXeXeX>X>X>XeXeX6X<X6X6X6X6X6X6XgXjXgXjXjXjXjXjXCXCXCXCXCXAXGXCXGXGXGXGXGXGXGXGXIXIXIXIXIXIXPXIXIXPXIXPXPXSXXXSXPXIXPXIXPXIXPXPXIXIXIXIXUXPXPXPXUXPXUXUXPXPXIXIXUXIXUXIXPXPXUXPXPXPXPXUXUXUXPXPXIXIXPXPXPXPXPXIXLXLXGXLXGXIXIXPXFXAXDXGXGXCXDXDXGXGXGXGXGXGXGXGXAXGXGXGXFXAXGXGXAXFXGXCXFXAXDXZX",
"BXuX#X].^.D.S.A.C.C.C.A.C.C.A.C.A.A.A.A.A.A.A.m.C.C.A.A.S.A.S.S.S.S.A.A.A.A.S.S.A.A.C.A.A.Q.A.m.Q.m.m.m.~.Q.j.Q.A.m.Q.m.m.Q.m.m.A.A.Q.m.m.m.Q.m.m.m.m.m.m.m.m.m.c.c.c.c.c.c.c.c.m.m.c.c.l.c.m.m.c.c.c.c.m.m.m.m.A.A.A.Q.A.A.A.Q.S.S.S.S.A.S.C.b.C.C.v.v.v.C.C.A.C.C.C.C.C.C.C.C.C.C.C.v.x.x.k.c.",
"JXMXOX X/./.!.Q.~./././././././.!./.!.~./.~././.!./.!.!./.~.!.!.!.!.!.!.^.!.!.!.~.Q.^.~.Q.~.~.~.Q.Q.~.Q.~.(.~.~.Q.Q.~.~.~.Q.Q.Q.Q.Q.Q.Q.Q.Q.Q.Q.~.~.Q.Q.~.~.~.Q.Q.Q.Q.Q.Q.Q.Q.Q.Q.Q.m.m.m.Q.m.m.m.Q.Q.Q.Q.~.~.~.^.^.^.^.~.^.^.^.!.!./.(.!.!.b.b.b.b.Q.b.Q.b.b.Q.!.!.Q.!.b.!.b.Q.b.b.b.b.A.b.m.Q.",
"KXHXbX+X X X}.{.}.}.}.(.(.}.}./.}.}.}.}.}.}./.}.}.}.}. X{.{.{.{.|.|.|.|.|.|.|.|.(.(.(.(.(.(.(.(.(.(..X(.~..X.X(.(.(.(.(.(.(.(.(.(.(.(.(.(.(.~.~.~.~.(.(.}.~.(.}.(.(.(.~.~.~.~.~.~.~.~.}./.~./.~./.(.(..X(..X(.}..X(.(.(.(.(.(.(./.|.|.|.|./././.{.{.{.{.{.{.|.|./.|././././././.{./.|././.!./.~."
};
