/* XPM */
static char *freeimage[] = {
/* width height num_colors chars_per_pixel */
"100 32 657 2",
/* colors */
"   c #eaeaea",
" . c #eeeeee",
" X c #f1f1f1",
" o c #efefef",
" O c #ebebeb",
" + c #e9e9e9",
" @ c #ededed",
" # c #e6e6e6",
" $ c #f0f0f0",
" % c #e7e7e7",
" & c #e8e8e8",
" * c #ececec",
" = c #f3f3f3",
" - c #f2f2f2",
" ; c #e4e4e4",
" : c #e5e5e5",
" > c #e5dde8",
" , c #eee9f0",
" < c #e9e7ec",
" 1 c #efeff1",
" 2 c #f0eff4",
" 3 c #e8e5ec",
" 4 c #f6eef9",
" 5 c #b9aebc",
" 6 c #434d4f",
" 7 c #acb6b5",
" 8 c #e1ede9",
" 9 c #e1ece4",
" 0 c #373e37",
" q c #494947",
" w c #f5ecf1",
" e c #ede0e9",
" r c #747973",
" t c #474c46",
" y c #eaefe9",
" u c #f0f5ef",
" i c #f5f6fb",
" p c #e3e4e8",
" a c #ebeff0",
" s c #ecf1ed",
" d c #eef3ef",
" f c #e6e8e5",
" g c #535351",
" h c #f5f3f4",
" j c #f3eef5",
" k c #f2f0f5",
" l c #ebecee",
" z c #4e5251",
" x c #e3e7e6",
" c c #f4f4f6",
" v c #f7f2f9",
" b c #efe7f2",
" n c #f6eff6",
" m c #6a636a",
" M c #676067",
" N c #e8f1ee",
" B c #ebf4f1",
" V c #ecf2ee",
" C c #eef4f0",
" Z c #dee3dd",
" A c #5a5f58",
" S c #8f9289",
" D c #ecefe6",
" F c #fff0fb",
" G c #e3d8e0",
" H c #d9d5d4",
" J c #e5eae3",
" K c #edf9ed",
" L c #e3f0e6",
" P c #e8f5ec",
" I c #ebf6f0",
" U c #e5f0e0",
" Y c #dde8d8",
" T c #e2eddd",
" R c #232e1e",
" E c #f5f5f5",
" W c #e3e8e1",
" Q c #f0f2ed",
" ! c #f2f0f3",
" ~ c #525053",
" ^ c #e0e0e2",
" / c #f0f2f1",
" ( c #eaeceb",
" ) c #ede7e9",
" _ c #868781",
" ` c #000600",
" ' c #001700",
" ] c #052a00",
" [ c #053100",
" { c #002700",
" } c #1e4f17",
" | c #326e24",
".  c #165208",
".. c #1c580e",
".X c #2d691f",
".o c #f2efe6",
".O c #f5f0ec",
".+ c #fef3f9",
".@ c #f2e6f2",
".# c #9b909e",
".$ c #f4f1fc",
".% c #ebeef3",
".& c #b1b9bb",
".* c #4d644a",
".= c #000d00",
".- c #0f3b06",
".; c #3b772f",
".: c #50993f",
".> c #3f9029",
"., c #62b849",
".< c #59b140",
".1 c #46a52f",
".2 c #34931d",
".3 c #379620",
".4 c #399822",
".5 c #f4efe9",
".6 c #e4dcda",
".7 c #f7ecf2",
".8 c #d6cad4",
".9 c #edebf0",
".0 c #e4ede8",
".q c #889f8d",
".w c #001100",
".e c #033e00",
".r c #478a3d",
".t c #5fab50",
".y c #58b143",
".u c #54b83a",
".i c #46b127",
".p c #46b324",
".a c #43b11e",
".s c #379b1d",
".d c #268a0c",
".f c #298d0f",
".g c #eceee9",
".h c #f5f5f3",
".j c #5b6059",
".k c #000a00",
".l c #092e02",
".z c #417a35",
".x c #78bd6a",
".c c #58ae43",
".v c #4fa938",
".b c #43a52c",
".n c #43ad29",
".m c #3ca81e",
".M c #49b82b",
".N c #3eab1e",
".B c #3fac1f",
".V c #3ca121",
".C c #51b636",
".Z c #42a727",
".A c #49ae2e",
".S c #e8f4f2",
".D c #dde8e4",
".F c #87928a",
".G c #000b00",
".H c #547a49",
".J c #8fce7d",
".K c #95ec7b",
".L c #50b531",
".P c #49aa27",
".I c #48ae27",
".U c #3ea91f",
".Y c #49b52b",
".T c #44b027",
".R c #45a92d",
".E c #4bad34",
".W c #46b228",
".Q c #44b026",
".! c #41ad23",
".~ c #e9f2f1",
".^ c #e8eeee",
"./ c #f7fbfc",
".( c #e6e7e9",
".) c #f3f2f0",
"._ c #edece7",
".` c #f0efea",
".' c #e1f1f1",
".] c #133117",
".[ c #4e8045",
".{ c #88cd7a",
".} c #94e886",
".| c #6bc75a",
"X  c #50ae34",
"X. c #44a41e",
"XX c #ebf1ef",
"Xo c #e2e6e7",
"XO c #e9e9eb",
"X+ c #f5f3f6",
"X@ c #dfdde0",
"X# c #edebec",
"X$ c #f2f3ee",
"X% c #eaebe5",
"X& c #031c06",
"X* c #12390a",
"X= c #9ed989",
"X- c #9be983",
"X; c #63bd4c",
"X: c #41a028",
"X> c #48ac28",
"X, c #4eb123",
"X< c #f4f6f3",
"X1 c #e3e3e3",
"X2 c #f9f4f8",
"X3 c #eee9ef",
"X4 c #e4e9e3",
"X5 c #777e76",
"X6 c #86ae79",
"X7 c #9cd286",
"X8 c #a4ed84",
"X9 c #63bb41",
"X0 c #44a728",
"Xq c #49b02d",
"Xw c #51b92e",
"Xe c #41a916",
"Xr c #e9eae4",
"Xt c #faf6f5",
"Xy c #f1e7ef",
"Xu c #f1e7f0",
"Xi c #fffbff",
"Xp c #eceeeb",
"Xa c #bbc9bc",
"Xs c #001200",
"Xd c #9dd58c",
"Xf c #a8eb8c",
"Xg c #6fc24c",
"Xh c #46a724",
"Xj c #42ac28",
"Xk c #41ac2a",
"Xl c #49b32d",
"Xz c #49b126",
"Xx c #edeee8",
"Xc c #e9e5e4",
"Xv c #fff6fe",
"Xb c #f2e8f1",
"Xn c #eceaeb",
"Xm c #dae6da",
"XM c #334d30",
"XN c #143910",
"XB c #a7ea9a",
"XV c #9de985",
"XC c #52ad34",
"XZ c #46ad2a",
"XA c #4ab738",
"XS c #42ae34",
"XD c #42ac30",
"XF c #3fa525",
"XG c #eef1ea",
"XH c #f3f1f2",
"XJ c #e1dae1",
"XK c #eae4e8",
"XL c #e5e8e1",
"XP c #52694d",
"XI c #1c4712",
"XU c #89c27e",
"XY c #9ae48f",
"XT c #7cce68",
"XR c #41a126",
"XE c #40ab27",
"XW c #3fae2e",
"XQ c #38a42c",
"X! c #44ac33",
"X~ c #49ad2f",
"X^ c #e5eae4",
"X/ c #f4eff5",
"X( c #f2f0f1",
"X) c #f1fcec",
"X_ c #0a2b00",
"X` c #447e34",
"X' c #9ee78b",
"X] c #a0ec91",
"X[ c #6bc154",
"X{ c #46aa26",
"X} c #48b42a",
"X| c #45b32e",
"o  c #40ab2a",
"o. c #47ad2d",
"oX c #49ad27",
"oo c #e5eee9",
"oO c #f1f2f4",
"o+ c #efedf2",
"o@ c #eeeeec",
"o# c #d6e5ce",
"o$ c #143c07",
"o% c #91d37c",
"o& c #8cdf73",
"o* c #77c764",
"o= c #4ea731",
"o- c #46ab21",
"o; c #40ae1b",
"o: c #3aaa1a",
"o> c #42ad23",
"o, c #4aaf25",
"o< c #48a91b",
"o1 c #f4f4f4",
"o2 c #f0eff7",
"o3 c #f3f2ee",
"o4 c #e8e7e2",
"o5 c #f6f7f9",
"o6 c #dddfdc",
"o7 c #2a830f",
"o8 c #8dc675",
"o9 c #a1e592",
"o0 c #59be3e",
"oq c #4eb333",
"ow c #45aa2a",
"oe c #45ab2b",
"or c #3fa827",
"ot c #40a928",
"oy c #44ad2c",
"ou c #3fa925",
"oi c #40aa26",
"op c #44ae2a",
"oa c #efeeea",
"os c #ebeae5",
"od c #e9eaec",
"of c #bfc1be",
"og c #50a935",
"oh c #a1da89",
"oj c #a6ea97",
"ok c #55ba3a",
"ol c #4bb030",
"oz c #44a929",
"ox c #44aa2a",
"oc c #41aa29",
"ov c #45ae2d",
"ob c #45af2b",
"on c #efeef6",
"om c #edece8",
"oM c #f6f5f0",
"oN c #8a8c89",
"oB c #60b945",
"oV c #9fd887",
"oC c #a3e794",
"oZ c #4fb434",
"oA c #47ac2c",
"oS c #43a828",
"oD c #46ac2c",
"oF c #42ab2a",
"oG c #46af2e",
"oH c #eae9f1",
"oJ c #e6e5e1",
"oK c #f5f4ef",
"oL c #ecedef",
"oP c #616360",
"oI c #64bd49",
"oU c #9cd584",
"oY c #a7eb98",
"oT c #46ab2b",
"oR c #43a929",
"oE c #40a626",
"oW c #42a828",
"oQ c #f1f0f8",
"o! c #eeede8",
"o~ c #edeef0",
"o^ c #494b48",
"o/ c #66bf4b",
"o( c #41a727",
"o) c #edecf4",
"o_ c #f6f5f1",
"o` c #efeee9",
"o' c #e5e6e8",
"o] c #353734",
"o[ c #5cb541",
"o{ c #9bd483",
"o} c #a4e895",
"o| c #48ad2d",
"O  c #41a626",
"O. c #4aaf2f",
"OX c #e1e0e8",
"Oo c #f1f0ec",
"OO c #e1e2e4",
"O+ c #373936",
"O@ c #59b23e",
"O# c #94cd7c",
"O$ c #4eb234",
"O% c #46aa2c",
"O& c #35991b",
"O* c #25890b",
"O= c #f1f0eb",
"O- c #4a4c49",
"O; c #88c170",
"O: c #9bdf8c",
"O> c #43ac2b",
"O, c #319517",
"O< c #208406",
"O1 c #1e8204",
"O2 c #f1f1ef",
"O3 c #f2f2f0",
"O4 c #eaeae8",
"O5 c #eee9ed",
"O6 c #f9f2f9",
"O7 c #efe8ef",
"O8 c #efedee",
"O9 c #f4f2f3",
"O0 c #f7f3f4",
"Oq c #f4f0f1",
"Ow c #f1edee",
"Oe c #dfdfdf",
"Or c #eeecf9",
"Ot c #e4f1df",
"Oy c #efe2ec",
"Ou c #f1f6f2",
"Oi c #454f44",
"Op c #57a93b",
"Oa c #69bb4c",
"Os c #94e27f",
"Od c #3ead23",
"Of c #43af28",
"Og c #44b029",
"Oh c #40ac25",
"Oj c #3bae1d",
"Ok c #4bb52f",
"Ol c #4baf33",
"Oz c #3dab24",
"Ox c #3eb025",
"Oc c #3fa828",
"Ov c #50ad3b",
"Ob c #2b8a16",
"On c #349719",
"Om c #4eb42c",
"OM c #48b120",
"ON c #ededeb",
"OB c #f6f6f4",
"OV c #efeaee",
"OC c #f8f3f7",
"OZ c #e8e3e7",
"OA c #e7e5e6",
"OS c #eae6e7",
"OD c #ede9ea",
"OF c #efebec",
"OG c #e7f4e2",
"OH c #fff7ff",
"OJ c #e9eeea",
"OK c #545c51",
"OL c #58aa3c",
"OP c #73c556",
"OI c #93e17e",
"OU c #42ae27",
"OY c #44ae28",
"OT c #3db021",
"OR c #42a926",
"OE c #4baa32",
"OW c #3b9f23",
"OQ c #41af28",
"O! c #42b428",
"O~ c #46b12f",
"O^ c #41a02c",
"O/ c #45aa30",
"O( c #4ab030",
"O) c #41ac20",
"O_ c #45b31e",
"O` c #ececea",
"O' c #e5e5e3",
"O] c #eeeced",
"O[ c #eae8e9",
"O{ c #ebe9ea",
"O} c #eef0ef",
"O| c #f3eff0",
"+  c #f6f6f6",
"+. c #f7f4ff",
"+X c #f1e4ee",
"+o c #e0e4e3",
"+O c #666d65",
"++ c #47992d",
"+@ c #62b146",
"+# c #95e284",
"+$ c #41ad26",
"+% c #3fab24",
"+& c #41ab27",
"+* c #46b42d",
"+= c #41a529",
"+- c #52af3c",
"+; c #41a32a",
"+: c #4bba30",
"+> c #31a617",
"+, c #3eac25",
"+< c #4ab026",
"+1 c #48ad29",
"+2 c #4cb032",
"+3 c #43a62f",
"+4 c #eff1f0",
"+5 c #edefee",
"+6 c #f1eff0",
"+7 c #b2b2b2",
"+8 c #3f3f3f",
"+9 c #404040",
"+0 c #969696",
"+q c #8c8c8c",
"+w c #625f6a",
"+e c #45513d",
"+r c #93838e",
"+t c #e2e4e3",
"+y c #454c44",
"+u c #54a33a",
"+i c #5baa41",
"+p c #96e186",
"+a c #42ac26",
"+s c #48b22e",
"+d c #4bb131",
"+f c #48ae2e",
"+g c #48ac2e",
"+h c #4aae30",
"+j c #3fa327",
"+k c #59b342",
"+l c #4da338",
"+z c #4daa37",
"+x c #46b22b",
"+c c #3cb122",
"+v c #44b329",
"+b c #45ab2c",
"+n c #4aad2f",
"+m c #48a82d",
"+M c #4ba931",
"+N c #f5f0f4",
"+B c #efefed",
"+V c #eaece9",
"+C c #e8eae5",
"+Z c #eef3ec",
"+A c #eceeed",
"+S c #f0eeef",
"+D c #e9e7e8",
"+F c #fafafa",
"+G c #ffffff",
"+H c #505050",
"+J c #525252",
"+K c #fffcff",
"+L c #e0ecd8",
"+P c #988892",
"+I c #4c4e4d",
"+U c #000200",
"+Y c #4e9c36",
"+T c #64b14b",
"+R c #98e28b",
"+E c #3ca622",
"+W c #349e1a",
"+Q c #359b1b",
"+! c #369a1c",
"+~ c #399d1f",
"+^ c #3ea224",
"+/ c #50a73e",
"+( c #3e8e2d",
"+) c #186306",
"+_ c #64ba4f",
"+` c #40b125",
"+' c #45b128",
"+] c #42b139",
"+[ c #40ad2e",
"+{ c #47af1c",
"+} c #ebe6ea",
"+| c #f0ebef",
"@  c #e5e7e2",
"@. c #e9eee7",
"@X c #ebf3e8",
"@o c #e1ebe0",
"@O c #edf1f0",
"@+ c #e7e9e8",
"@@ c #e8e6e7",
"@# c #696969",
"@$ c #484848",
"@% c #c9c9c9",
"@& c #e0e0e0",
"@* c #f8f8f8",
"@= c #f8f3fa",
"@- c #e7f0db",
"@; c #fcebf5",
"@: c #c6cbc7",
"@> c #25710d",
"@, c #72be5c",
"@< c #7dc772",
"@1 c #3ca320",
"@2 c #2e9414",
"@3 c #248a0a",
"@4 c #1f8305",
"@5 c #1c8002",
"@6 c #1d8002",
"@7 c #1e8005",
"@8 c #367e28",
"@9 c #002900",
"@0 c #044200",
"@q c #97e285",
"@w c #60bd48",
"@e c #41a823",
"@r c #4aaa2d",
"@t c #36aa13",
"@y c #4fbb32",
"@u c #4aad38",
"@i c #449f36",
"@p c #ebf0e9",
"@a c #f4fcf1",
"@s c #d7e2d4",
"@d c #ecf9e8",
"@f c #eef2f1",
"@g c #eaeeed",
"@h c #c6c6c6",
"@j c #727272",
"@k c #ababab",
"@l c #e2e2e2",
"@z c #e8f1dc",
"@x c #f9e8f2",
"@c c #ececee",
"@v c #c0c2bf",
"@b c #327e1c",
"@n c #95df80",
"@m c #98e08e",
"@M c #3da123",
"@N c #2f9214",
"@B c #23850a",
"@V c #187a00",
"@C c #3c7530",
"@Z c #001800",
"@A c #598b4c",
"@S c #8ecd7c",
"@D c #57ad40",
"@F c #4aad2e",
"@G c #49ac2d",
"@H c #48a32a",
"@J c #6bb63f",
"@K c #5d9e42",
"@L c #295925",
"@P c #001000",
"@I c #eee7ee",
"@U c #eff4ed",
"@Y c #a3ada2",
"@T c #111e0d",
"@R c #1c2918",
"@E c #1b1f1e",
"@W c #020605",
"@Q c #212524",
"@! c #878988",
"@~ c #dee0df",
"@^ c #f4f6f5",
"@/ c #8e8e8e",
"@( c #3d3d3d",
"@) c #f7e6f0",
"@_ c #d3d3d5",
"@` c #000201",
"@' c #9ee98a",
"@] c #a0ea8b",
"@[ c #79c070",
"@{ c #49af2f",
"@} c #49ab30",
"@| c #43a52a",
"#  c #3b9d22",
"#. c #396b30",
"#X c #001300",
"#o c #a9d49e",
"#O c #8bc57b",
"#+ c #75c65f",
"#@ c #5dbd42",
"## c #4ba92d",
"#$ c #4aa12c",
"#% c #000500",
"#& c #000300",
"#* c #fffefa",
"#= c #fff9f9",
/* pixels */
"   . X o O + O o @ o   #     + o o $ @ % + o . & @ . . *   O o = O X o @ X X O + @ - $ . $ O ; : @ $ @ * $ . + O . * O @ $ X . * X . . o o . . X @ o   & * @ @ - > , < 1 2 3 4 5 6 7 8 9 0 q w e r t y u",
"   @ $ o * O @ $ * o * O o . @ X   X - O % O . @ $ o . @ @ @ @ @ X = @ & * o . o O o . . - X o - . $ * O o .   O $ . * @ o o *   X . @ o o @ . X o - . O . * + @ i p a s d f g h j k l z x c v b n n m M",
" O @ . . @ @ o $   . . . X $ . $ . o @   * X $   X o @ . $ X .   o - . O o $ @ . * @ O + * * * . o $ * O . @ O * * O   @ $ X $ . $ . @ o o @ . $ O . . . $ o * . N B V C Z A S D F G H J K L P I U Y T R",
" . . . . . . . .   * * @ o . @ @ $ . O   $ E X + . @ @ . X X $ . @ $ o . - X @ @ - - $ . . @ @ . $ o @ * @ @ * *       @ $ X X o $ . @ o o @ . $ O * @ o $ $ o o W Q @ ! ~ ^ / ( ) _ ` ' ] [ { } |. ...X",
" $ $ o . . . @ * . @ @ @ * @ . @ O o X o @ . o o @ . o o . . $ - $ X * O $ $ . X @ @ . o o $ X $ X o @ @ * @ . * $ o . . . @ *   $ @ @ o o @ @ $ X $ o o @ @ @ *.o.O.+.@.#.$.%.&.*.=.-.;.:.>.,.<.1.2.3.4",
" X $ o . @ @ O O - o o o * . X o @ o o . @ @ . o . X - $ * O @ $ . o * . - $ * o & % O . @ . o @ X . . . @ . . O . . . . . @ * O $ @ * . . * @ $ X @ . @ O @ o ..5.6.7.8.9.0.q.w.e.r.t.y.u.i.p.a.s.s.d.f",
" o o o . @ * O * X @ o o * . - $ - o * * . . . * . o $ o . @ * * O * * $ E $ O @ o @ $ - o o $ * X @ . $ @ . o     O * . o o $ $ o @ * . . * @ o @   * @ O . - $.g.h E.j.k.l.z.x.c.v.b.n.m.M.N.B.V.C.Z.A",
" @ . . . * O * @ * + * @   @ X . @ X - o + % O - * O * . X - . O $ . +   o @ @ = @ + @ o O * .   X * o X . . o   * @ . . . . . . o @ * . . * @ o $ * . o   O . O.S.D.F.G.H.J.K.L.P.I.U.Y.T.n.R.E.W.m.Q.!",
" $ - X . . - = X $ o . . . o $ X * + $ * O $ * X o o o . . o o $ . o * . - @ + $ . . . . . o o $ o o . O * o o * @ O @ $ $ @ * . o o o @ * * o X.~.^./.( X.)._.`.'.].[.{.}.|X X..n.n.n.n.n.n.n.n.n.n.n.n",
"   * * & % & % ; o o . . @ @ @ @   + o * * .   . o . . . . o o $ O @   O o *   o * * * * * * @ @ o o * +   . . * . * * o o @ * o o o . @ * @ o $XXXoXOX+X@X#X$X%X&X*X=X-X;X:X>X,.n.n.n.n.n.n.n.n.n.n.n.n",
" @ o $ o o $ o * o o o . @ * O O + + o . * @ + O . . @ @ . o $ $ + @ *   @ o . o . . o o o o o $ o o O & + @ . * o @ * . . * @ o $ . @ * @ . . oX<X1X2 nX3 @X4X5X6X7X8X9X0XqXwXe.n.n.n.n.n.n.n.n.n.n.n.n",
" @ . o $ $ X X $ . o o o . @ * O O * o o @ * O * @ @ @ @ @ . o $ O $ $ . o - X o o $ $ X X X X X o o @     . . * $ @ * . @ * * o X o @ @ . o o .XrXtXyXuXiXpXaXsXdXfXgXhXjXkXlXz.n.n.n.n.n.n.n.n.n.n.n.n",
" $ o @ * O     O . . o $ $ o o . . $ o o . @ . o @ @ * * @ @ . o * $ - X $ - $ O * * @ . . . @ @ . $ o @ . $ o O X . * . @ O * o X o . . o $ $ .XxXcXvXbXnXmXMXNXBXVXCXZXAXSXDXF.n.n.n.n.n.n.n.n.n.n.n.n",
" X o @ . @ * @ o . . o $ $ $ $ $ . X . $ o @ X $ . @ @ * * * @ @ O * o $ @ . @ & * @ . o $ o . . . $ $ o $ X o O $ . @ . . O O . o . . . o o . .XGXHXJXKXLXPXIXUXYXTXRXEXWXQX!X~.n.n.n.n.n.n.n.n.n.n.n.n",
" *     @ . * @ o o o o . . . . o * $ @ X $ * - $ . . @ * O O O O @ + * o * O . * . o $ X - X $ o . $ o @ . $ o O $ . . o o * O * O * @ @ * * * *X^ *X/X(X)X_X`X'X]X[X{X}X|o o.oX.n.n.n.n.n.n.n.n.n.n.n.n",
" X . o X $ * O @ $ o . @ * * * @ & o * X X * X . o . @ * O O     X + O $ * * X -   O @ . . . * O . o . O * o . O o . . $ o *   * &   O O   + + OoooOo+o@o#o$o%o&o*o=o-o;o:o>o,o<.n.n.n.n.n.n.n.n.n.n.n.n",
" . $ o O * o X o o O o X @ o - o $ * @ O ; # . oo1 . = o o - + O X o @ @ . . * O X * o - $ -o1 . O - $ . X @ & O o . . o X X o @ X % & o o $ X @o2o3o4o5o6o7o8o9o0oqowoeoeorotoy.n.n.n.n.n.n.n.n.nouoiop",
" % O @ @ @ . * & = o X X * * .   $ @ . @ & + o . .   o @ . X * o . * O * @ . @ O * &   @ O @ . + o X $ $ = X * * X . * O @ . o o $ * o X O + * *o2oaosodofogohojokolozoxoeococov.n.n.n.n.n.n.n.nopobopXj",
" o $ $ . . $ X $ o @ o o @ @ o @ $ . o o * @ o . O   . * * o @ X O     O * @ @ * $ . o X o $ $ @ * +   * * @ * % o @ O O * @ . . . @ $ $   %   *onomoM.(oNoBoVoCoZoAoSoxoDoFoFoG.n.n.n.n.n.n.n.nXj.nop.n",
" . @ *     * o o @ @ @ . @ . o . $ . . o . o o . . . o @ O O * . O O O * @ @ @ @ $ o o $ o . . * $ * $ - . $ = . O * . o o . * O @ O O @ @ . . @oHoJoKoLoPoIoUoYoloToSoeoDoFoFoy.n.n.n.n.n.n.n.no.oRoEoW",
"   O @ o o . * O $ X o . @ * O O . . @ * @ . . o X - $ . *   * @ @ @ . @ @ @ @ . o $ $ o o . @ @ & % * @ # % . @ O @ o X $ o @ * O * * * o X $ $oQomo!o~o^o/oVoY.AoTowoeoeoFocoF.n.n.n.n.n.n.n.no(oxo.o.",
" o . o X X o o $ @ $ . @ o . * . * . @ O @ @ @ $ . X @ o . O o . @ . o . @ @ . . @ X $ o $ o @ o . o - X * * -o1 . . o . @ @ . o & o $ @ @ @ . Xo)o_o`o'o]o[o{o}o|oAoToeoxocococ.n.n.n.n.n.n.n.nO olO.O ",
" o O +       * $ + @ * * X X $o1 + o o . $ @ * $ * o   . o * $ * O * @ @ @ @ . o & @ * O @ O + @ @ . O + O * * o * @ . . * * @ . & o .   * @ O .OXOo.`OOO+O@O#ojoAoAoToxoxoFoFoF.n.n.n.n.n.n.n.nO$O%O&O*",
" @ * @ X X . @ o @ $ . @ X $ @ X % o X $ - . O $ * o + . o   . & &   * * * * . $ * - X o - $ . = - -   & X - . $ % O o $ o *     + * % : . X *  o2OoO=o'O-oBO;O:oToToToxoxO>oyoy.n.n.n.n.n.n.n.nX~O,O<O1",
"   . . * * o o O . @ @ $ $ @ * @O2O3O4XnX2O5O6O7 . OXnO8O9O0OqOw . - . O o * & O $ . + X X + . $ $ $ o . . o $ $ X @ O oo1Oe X . o oo1 $ O o $ .OrOtOyOuOiOpOaOsOdOfOgOhoi.noxo(OjOkX:OlOzOxOcOvObOnOmOM",
"   @ . . . o . * X . . o .   + OO2ONOBX(X#OVOCOZ o - XXnOAOSODOF   * O * o o o X o * % . . % * o o o . . . . o o o @ O * @ X @ * *   $ . O * *o1OrOGOHOJOKOLOPOIOhOUOfOYopXZoeoROTOROEOWOQO!O~O^O/O(O)O_",
" * * @ $ $ . @ . X . @ . @   + *O`O' XO]O[O]X(O{O} @ @ $O9O9O|Ow * O @ . @ o X o - X O X X O X - + + +     + + +   E - = .+  &o1 * $ & # o - @ &+.Ot+X+o+O+++@+#Og+$+%+&+&oRoxo.+*+=+-+;+:+>+,Ol+<+1+2+3",
" o * * $ $ @ @ $ o @ * . . * @ $XHX#X# .O2O`O4o@+4+5 o X oO{Xn+6 o O . $ * . X @ * O % @ @ % O * @ . o o o o . @ O   %o1 O & - + $ $ *+7+8+9+0+q+w+e+r+t+y+u+i+pOg+a.n+s+d+f+g+h+j+k+l+z+x+c+v+boS+n+m+M",
" $ * * . o * . - $ @ @ o o . o -+NXHXn+B+V+C+Z+Z+A / / o o -+S+D @ + @ $ * o = $ o X . = = . X o . o $ $ $ $ o . :+F o .o1 :+G ; @ O+H+J .+GX1 @+K+L+P+I+U+Y+T+Rob+E+W+Q+Q+!+~+^+/+(+)+_oE+`+'oz+]+[o>+{",
" o @ * @ @ @ . $ - o . $ o @ @ o+}+|X(O3@ @.@X@o x@O+4@+ + = -@@ . * . o @ . o @   * + @ @ + *   O O O * * O O O -   +   .+FOe@#@$@% O @ +@&@* +@=@-@;  @:@>@,@<ob@1@2@3@4@5@6@7@8@9@0@q@wOY@e@r@t@y@u@i",
" O @ . @ @ o . * o @ @ o o * O @ nO5O{O'@p@a@s@d@f@g@g+4+4 O O . o $ . @ . *   O o X @ o o @ X o o o o . . o o o E . : $ *@h@j@k - -@l o@* +   @ j@z@x@c@v@b@n@moeoxo(@M.s@N@B@V@C@Z@A@S@D@F@G@H@J@K@L@P",
" & @ o . . $ . +   +   . o * * .@IOV hON@U@Y@T@R@E@W@Q@!@~@^ o o + . O   $ o * X o $   O O   $ o o . @ @ @ @ . o +   =@/@( . O X @ *o1   % - $ . j@z@)@_@`@'@]@[+f@{+fO%O%@}@|# #.#X#o#O#+#@###$#%#&#*#="
};
