/* XPM */
static char *freeimage[] = {
/* width height num_colors chars_per_pixel */
"100 89 34 1",
/* colors */
"  c #f0f0f0",
". c #efefef",
"X c #ededed",
"o c #ececec",
"O c #eaeaea",
"+ c #f3f3f3",
"@ c #e6e6e6",
"# c #e8e8e8",
"$ c #f2f2f2",
"% c #ebebeb",
"& c #f1f1f1",
"* c #eeeeee",
"= c #e9e9e9",
"- c #e5e5e5",
"; c #e7e7e7",
": c #e3e3e3",
"> c #f5f5f5",
", c #f4f4f4",
"< c #e4e4e4",
"1 c #e2e2e2",
"2 c #b3b3b3",
"3 c #878787",
"4 c #7c7c7c",
"5 c #989898",
"6 c #e3e8e4",
"7 c #535854",
"8 c #373c38",
"9 c #787a77",
"0 c #494b48",
"q c #000000",
"w c #282826",
"e c #010100",
"r c #4a4a4a",
"t c #fefefe",
/* pixels */
" .XoooX.XOX X.+. X.X@#. $% ..&o$*XX*.*%# %X *&+*.  .oO##X.&& **.$#=.. &o.%* oX o$Oo+& .oX##X$$&$.*..",
"-#%X*.X%&X. oo*% X*X#O..&% ...=X *%%o****O%X%X.% . &+$ ***.*XX* &o.&%#%o.o* o* X+XX*O%&$&X%.$ *X**. ",
".&&**&$.*oX*oX.o.XXXOo..O;o.  o .X%%X.  $. &.&&*Xo%X.*%;**X%O%* .*  O;=%.X. X* *o*&.O%.. Xo* *%O..*X",
".&.==*.ooooXXX*X.XoooX.*=;%. .*&oo*.  .*.***XXXo..   *o%**XoO%* *ooXXX*X.*......=*&*%X*%O==o**oO#X&$",
";%**.& o  .XX%OOXXXX***.&.X .%oXoX.  .*X*.*XXXoX:;%%##OXX*.*XX*.%ooo.   ......*.. %;=..X=O%o*..Xo..o",
"**. &&  X.Xo*X%X%**X .X &&o .OXX..*Xoo* .$& &.*&*&+&**&>o*  .*XX=  XXoX&* *X .X.**O=* X%.  *.  .. X;",
"$o=%O;=*OXo%  *$=*.*&*X&o*=. O.*oXXo%o.&O*X%XoO.$ *%O%oX%X..*Xoo= *Ooo%XX *o *o.=XX ,.=O&$&Xo. *@X *",
"X#O$+oo&X&*o .o.;. .&*o$X.O  ;%#;OX.**. %&.* .X++*##o  .OoX*o%%o=o;-X&%=o Xo *%.%**. O=$X.X=#o*X.&X-",
"=X*oX .%.&X$o.O%.XX*..oO.oo**oX o.O=.*=o &%oo%&  .....**oX*Xoo* *. .XX.&*ooXoOX&X .*& * .**XX**.@%..",
"o**XX*XoX.% %.%o& **.*X% XX  XX.%oO% &. %*%..%*%  .***....*Xo* &%oXo%%X* *XXo=% O*XX& X ..****..o &.",
" ****ooXo*O.O.o*&.**...* . &&*X* X*.*  *=X%..%X=  .****...*.   .   .** &&.**o=%*#ooX& X ..****..&& *",
"$*X..oo *.O.O X *XoX*. &.. & *oo$X &o* oX.%XX%.X.....**XoX.&+$*%%%OO==O% ***XO%.O*oo .X **XXXX** .X%",
" oo..X*$ &o&% X XXoooX*.X. ..*oOo=X o*+.* o**o *X*.  *XoooX.  *%&& .....*XX.*%X .$*o..X&Xoo%%ooX.Xo%",
"Xoo**** .&X&%&X.***X%OO%X..*X*XO%%X*oo.*o *$$* oX*.  *X% *%O%X. *o%OO%O=XoX..oX&&+.X.*X ooo%%ooo **.",
"oX*XX**oo*%&% o*oX**o%oXX..XX..oX .XX%OXo X  X o.***XXXX..XooX.$+&.*..*X*X* .oo.X&.*&.o**XXooXX*&*.&",
"%. Xo*X=#%=.% o*#OX... $*  XX&&.=.Xo *o+. O%%O . .X%%o*.o*&& ...&.XXX*X% ..&.%%*=***$.%o..****.. XX ",
" .***.  X& .$.O%****XO##X.*O=O=;. . &%#. .*.  *o*o%oX. .XOO* *X*oO=X.** =#*X.$*&*..*ooX*$o* O=*.&&X&",
"******. %*o%.*o.#., =;%. & XX..X%*X*&.X$.X%%o.  *Xoo*..*&*X..oOO.%%*.*X*$.$*oX#O...Xo%%%&oX.%O..**O*",
"%*..*X* %XO#ooo %. %O*.X $&**&$ .$*%..oX&.o%%%%O**XX**Xo*oo. .X*&Xo. *X*&*&Xo*OoOOO%X***&%%*Xo..  o ",
"OX  XoX.* o=o%O*o X#O& =. .oo. * ,.OX o%X*..*o#@.***.*oOXoo*   .&*X. *X*XO*%o *$O==o.& . %OX***.&&X&",
"OX  XoX.X Xo.*%*#&$O-=Xo* .o%X*oo&X=*$ .#%*  .*X..**.*o=  .*..XO XX.&.. .o.oo.o  .*. .XO.oOX *X.X*=*",
"%*..*X* O*XX$&.$%..O=ooO.&&**..o*&*%. X****XX* & .****oO***X* *% Xo.&.. .o oo.%*     .Xo*X%X Xo.*.O.",
"******. O*XX&&.$ XO% $*=X &  & X $ . o=X$& X%Oo* .XXX*XoOooo*& X&*X. *X*XO.XX o.%o.  ...X.X* oO.&&o&",
" .***.  o.Xo .X %X & *.$=X...& oo** $o%$o*..XooX *ooX*XXX.*oo.X=+.X. X%o*o&**.Ooo*  *o%%X ** %=.X*=*",
"****.  &**XXX* &== **&X .*. &&.XXo*& oX&&X. oX.o* *%%. .X &*.&&* *ooXXo%&*&$. $*%o*..X%=X. .Xo*&.***",
"**XXXX****XXX*  *X&*oX=X*XX* .*o%O%**%%* X. oX.oX..oo..XOX*oo.*o*XooXX*XX%X.%o*%oX*..**X .***....***",
"&  ..******X**.  X&oOo#oXXoX*.Xo.XX &.*..o*.oX.oX..XX*XOOoXoo*X%ooXooX* .o. X* XXX**..  XO;#%X%=****",
"*****Xoo******..oO.o%XO**XXX*.*X.*X.&&.*.o*.oX.oX..o%XoOoX***..*oX*Xoo* &X. X.&.X**...**&.XX. .****.",
"=OO%%O==***.****##*XX.%. .**. .*OO=OoXo=.o*.o* X. *%OoX%XX*..****..*ooX.*OoX=%*oX*...X%=*. .XX.&X*..",
"oX*..*Xo*....*XXOO *X*Oo&.**.  .Ooo%o*X%.o* X*&*. *OOX*XoO%X*ooX  .*XoX* oX*%X *X*. .o=;=%X%#;OXX*. ",
" &$$$ *X*....*XoXo&*o*OX .XX*...o &..&&..o.&*.$.*..oo*.Xo%%*.oo* .XX****+.  X.+&**..*X%O...***. X*. ",
"XX**oO#@*.. .*Xo*o Xo*o .*ooX***O.&*X..*.X.&* + o..X* .X.X*&&.*&.XoX.  .&XX*OX .....****&*oX. .Xo*. ",
",X*.#;*&&.X*&&.oo&$.X. *O%%ooX**@O&&o. #oO*&* $*.   & ..XXXXXXoo o=O*&.X*o%OOX &X. .***.&** .oo.o%%O",
"*#O    X  .*X*. O. X%X..XXXoo%%%+oX %#%XX%.&*. X *X* &*%  ..XoO=*..*%O%X%oXX***X$.* $& ..Xo. *X.**XX",
"$o%*X**o.&&*%%*$=X*%=%*  .*XoO==X;= .X* .o &**.%**X***o%   .*X%O<;OO;;=%oXX***Xo =@%.*%O.o%X  ..##;;",
".. *OOX..  *oo* o*.o==o ..*Xo%%Oo*.oo *;.o.&**.%o* .o%%X******..ooX*  .* .Xo%o*.+oO.$.X..oOo. .X...*",
"-% &&.*. *X*..*o   *O=o.oooXXX** &o@#*.oX%.&*. o****.*Xo.*XoX* &+$&& *oO..XooX*.&** .X*$ *oo* XO..**",
"OXoo&$*o *oX  XO& ..X%o.%%oX**..XO#%.oX+X%.&*. X&o=o&+.O& *oooX*%X.*O;#%%X.  .XooXXoOOo...XoX.XO&&  ",
" $o;X XX.*XXX*XX Xo..*X.XXXXXXXX**X $O-%.o &**.%%%%o***X****XXoo%X**** +Oo. & *X*&.O% &*o**oo**%OO==",
"<*.o. *&*..XOOX&X==*&.*.& .*Xo%O=&*#%**  *&$XX*=1O&.#@o+=OX...*X o#O* .oXXXX*.  %X=:;.*@OX*%o..X  ..",
"*****... **..%OoX&*o XOX.oo**%%X***..   ...**.  ........*X.& oo oX.*XX. X...*X*..X*&.%%*..*****.X *;",
"XX****..oOo. ..&O*XX&.o..oo**%%XooXX**..ooo%ooX*.*XXXX*.XoX.*%o.O%oooooX%oXo%%%XO=%**oX&..**X***;X.%",
"XXXX****&..& o%oOXX*&.X*.Xo**o%*%%%ooXX*& .   &$&.*XX*.&XooXo%o*%%%%oXoo. & .. &... *OOo  .*XX**X.o;",
"XXXX*****oX..Xo*X*.. *%O.XX.*oo*%%%oXXX**ooX*XX &  ..  &*XXXooX*.XoX..*Xo***XoX*X* & ..&  .*XXX*OX.X",
"XXX******oo**%O%**. *XoO.XX..oo*ooXX**...o%**oX **.  .*****X*..*.*XX..*oX*.*XXX*%X..**.. .**XX**o* .",
"****....$.*.X#@;o%X.X* * XX..oo*XXX*... $**&$*.+O%X**X%O*..*. .oXo%%oo%O &$&   &o*.oOO=#.*****..& X%",
"*.....  oO%. ** *%X*%*&* *X..Xo.XXX**....O=**O% %oX**Xo%o*.*.&*=oXXo%O%%oX*XooX*;%Xoo*.*XXXX*.  %o*.",
"....    .X*&&** $X**Oo.o *X..Xo.oooX***.$oo&&XX+        OX*X.&X;*. .XoX*. & .. &*$+ *..XXXXX*.&&.XO=",
"Oo***XXX* &.oo.$*.*%%Xo#=o*XX*XO%O X%*o .XoX*.*oO .X  O;.XOOo. &XoOOooO=   *%OoX*X;;* oo&oOooO#=  ..",
".*oOOo.&     .*X#o*oo**XX. ** .o.*$X%o#o*Xoo*..*o&*%..%OXo%o*....*oX**XoO%XXX* $.$ *&.o*.o%X*oo*..**",
"Oo* & X%#;#o&$.o;X *oX.**  Xo**oO=*oo X&$ *XXXXX*&X=* X*oooX. .X*XXX*.***...Xooo#.&..%% .XX..X*&&  .",
".*XoX.. *XX*.XO;X &*X*o=*.X==%oO.o Xo*OX .*XX**.*&XO* *.XooX..*X%%%ooXXXO%X*....#*.XX%O &.. *%o .***",
".*XXX*. &$$&*XX*$&*o*.%-..X=#%o% X XX.%X%ooX*.&+o *% &*X*Xoo*.**%ooXXX**oXX*.*Xo&+ * .X .**.XOo.%%OO",
"=o & *XX;Oo%O% , .oOX&*#&$ oo* *X=Xo*$*&X*.*XooX% *o &o%.*ooX**X*.  .. &$&.**oO#oX== $ +o%%**o*&..**",
"X**o=O*+Xo%=##O%oXXOOX.* & XX &.+* XX O%* &.XO==o *%. %O*XX*..Xo. &&.*. X%%o*  .@#@#* .$X%OX.*.&$&& ",
"#X& oOo + XX & .O. %;=* X.*oo. *.%*o*$X.@=X.*XX*X&*O*.OOXX*. .oO*. .XoX* *ooX.*XX& * XOX$Xo* **.Xoo%",
"=.XO* *.%X. & *X&*%o..XO.. &&.%# $*X& o** oO***+  .*Xo%%%*=* *$o*oX  ** X.  &*o%o*  .*.&%X*o==X$.**&",
"o&.o.&..oX*  .**.XX* &.oooX.  .** X%.*%X* o=o%=X..*XXXXXX.O* X %.XX .XX.%oX*.   %* & .. o*.*oo* .XX ",
"X$.o..X*X***....XX*.   .%oX**.&$ &*X& X.&$ .&.X.**XXXX***.o*.X*% **..oo*.***XX**o* & .**X*.......oo*",
"o&*OXXO%***X**. X*.*XX. *. .XXX.* Xo  o*#OO%oo%o*****XXXX*X*.X*o XX.*oo*&*..%o*%X*...**.*XXX. .* Xo*",
"X$.%**%%.*XXX*. *.*oOOX.* &&*ooo%XO=*XOo** $&$& *.  .X%=%%***.*..o%X*oX o=X o*&* .XXX**..XOOX***&*X.",
".,&X  X*.*XXX*. ***%==%*o*. .**X* Xo&&* o%X*%%%#..  .XO=%O.*X X *%%XXo*&*=* %X % .XoX***.oOO%X**&** ",
"X$.%*.oX******..oX*XoooX*XX*....* XX$&*&&* $** o..**XooooO&*X.o .o%oo%X $%. #O.=.*X*..X%*XooX***.X* ",
"=*%#O%==*****...Oo*  .*X&.ooX...;=@@%O#OX=X.%X X .X%%o* X%$*o.O.&XoooO%. #o*;o+*XX* &.o#X**.....XoX ",
"oX..*.&+ ***.*o=%#.oo*@# ....  &*.  .X*&. &.XX* &.o%%%O=%%ooX***&+X%.*OX      ....*..*oO XO=;@O o*.&",
"=o &&.XX .*...oOXO.oo.Oo..***.. o &Xo* *.  .*X* Xo%o*.  XXX***..* o%  *& ..**.   .*..*oO$ . *o*$%oX*",
"&& X%=O% .....Xo.X XX *&**XXXX**@ +*X&.#X*..**.  .**.  ........***oo &.&.*XoX* $ .....Xo.*.& XX.   &",
"$&*%==o.  ....*X** .*. $XXoooooX#. Xo *=XX*.....$&....*X   .**XX.*oo**XXXXooX* & ...  *X*XX  Xo*%OO=",
"=%*... &....**..%*. .X. *Xoo%%oo *%OOo* oX*....*.*X*. .*  .*XXooXo%oXXoOoooX*... .**. .*&.*&&..& .*X",
"X*..*X*.*..*XX. O.* *%.*.*Xooooo*%%*.XooXXX. .*o .**.*o%...*XXoo%#OXo*.%ooX*..** .XX*..* Xo*.** %O=#",
"$&.oO=%X**.*oX* o&X.o#.. .*Xoooo%o*.  X=*XX. .X%$& ..*%=  ..***XXOo.X. %*******..*oo*..**O=o*XX*  ..",
"@=X.*XXXX**Xoo* *+X*%;  & .*XXXX&$X<@ +.*X*. .o=XX*.&$&.&    ...$X &***# .*XoX. .XooX*.*&*X&+& &....",
"...****X.X .o..; &&*%OX OOo..X.+XO=o*ooX $&Xo. XX;=X* *-**%#O. *=X *#;% oO.$XX oX*,&@-o.&%=*&*#@&Xo.",
"ooX*..  Xo*X%.$o*XXX*.  ooX.*oX&*%%*.XX**&&** .oX%.&*. o.& *X*o#...*.. &%%.&*X*X,**.X &X.**&&.*X.%#;",
"ooXX*.  &. X=o*oX%OX&+&*.**.*%%**oX..oX X. .. *o#=**##oX#o.  &&.OOOO%X**O***.*o* #-#o *;;%X%O%X*%*  ",
"****XXXX   *%%oo*XX.&&*o **.*%%XXoX.*%X *.....*Xo* .%%.$*  *ooX*OX *%%*+=.*X *% *XoXX*.XO. o%.$  $X-",
"****XXXX#%X*.*.$%X &.***.Xo..oo*%%o*XO%..*X****...XX*..&****oOo*%X.XO=o.O *o *% o. .X%o.. *%o&&X-X X",
"%%oX**..OoX*&*o #o &.*.&.o%*.XX*oO%XXO%*.XoXXX*&*X==*.oX#=o. *X*oO##O%=#%**X*XX %Xo%Xo=%.*%=%XXOX X@",
"%%ooX*..&&X* o;o%X*..... o%*.XoXX%OX*oo**oo*.XX  $.*+$ $ ** .o=O&*oX.& *Xo*.oo..*&..,+. &  & *.&-Oo%",
"*XXXXooo& %% X=.&.X*  XO&Xo*.Xoo.o%* *X*X%o  XX.% *o *o&$XOo**.$%o*XoX.&*%* Oo&*#**X&.X$oo.&X#%$ &&.",
"*oX&&*X X O..=%-XXooX*. .&&..&&.OO*XO ,X&*X. X*&=O%oXoo%%. . $*=*oO%**oO.  .XX.&O**%=%%O*O=o...&$o% ",
" **  *.&o.O*.o X**XXXX*. $&XOO#< o* oo*o.o%X*oo*%oXX*XXo%X**. *=oXXoo%oo.. .XX.&%..o%XXo.o%.&.. $*%%",
"&.*..* $&+**X%.. .*XXoXXo. ..& Xo;= .X ++ * $& &******XX%oooX.*%o*.XO=%....***. o. *X*..*%o &*oX.oo*",
".*X***. $+&.o%X*..**XXXoOX*oo*XO.oX.*oX**%=OoXo%...**XXooo%%X..**.*oOOo**..****.o*..**  oOOX*o%X+..+",
"%oXX**XXOo.*X** X*****XX%*.XX.*%X .oX**o$& .&$$ .**XXooo*o%X.   &*%OoXXo****..**oX***X* X%%XXoX&**X=",
"OoXXX*X%OO..*.%oXX****XX.&&..&$ #.*OX&&.oXX%OoXo**XXXXXX.Xo* ..  XO%*.*o*XX*..*oXoX*XoX.&.* .X.+o$+.",
"o*.XX..X*%&.* #=**..*Xo%&$.O;##-.+.o*X=%*$+.X.&&.**X**. .o%* *X*XooX*...*XX*..Xo*X*.*%o.&  &.%o.>=#+",
"*  oX $ o#.X.,o*.  .*oO=*.X==X.*X*%X&XO&% $XOo.. ..*. &$.%%*.o%o=o..XX.&*XX* .X% *.&.%o .*. o;@#2345",
"@.&*  * ;X&*.- *.&* @. .......... .@ *&.. .@ *&.@......@................&. * .;.. .@ *&.67890qwer*.t"
};
