/* XPM */
static char *squid_03_02_02_ctrl[] = {
/* columns rows colors chars-per-pixel */
"117 64 256 2",
"   c #040300",
".  c #0B0301",
"X  c #0C0A01",
"o  c #07090A",
"O  c #0A0914",
"+  c #130301",
"@  c #130A01",
"#  c #140A0A",
"$  c #1B0C01",
"%  c #170708",
"&  c #170D14",
"*  c #191306",
"=  c #191614",
"-  c #171823",
";  c #220C02",
":  c #280A02",
">  c #231301",
",  c #241A03",
"<  c #2A1402",
"1  c #2C1B03",
"2  c #28190A",
"3  c #2A1C12",
"4  c #251914",
"5  c #351903",
"6  c #331107",
"7  c #2A2108",
"8  c #372409",
"9  c #332312",
"0  c #392A18",
"q  c #312917",
"w  c #3A3225",
"e  c #302D2D",
"r  c #3B3A41",
"t  c #3F4342",
"y  c #411B03",
"u  c #4B2903",
"i  c #452907",
"p  c #452A15",
"a  c #4C3309",
"s  c #43321C",
"d  c #4A3416",
"f  c #532A02",
"g  c #53340B",
"h  c #5B3B0D",
"j  c #573607",
"k  c #523A1C",
"l  c #5B3B13",
"z  c #5C3E1A",
"x  c #553513",
"c  c #522A13",
"v  c #473524",
"b  c #4F3829",
"n  c #6A3C0A",
"m  c #673803",
"M  c #653D14",
"N  c #713C03",
"B  c #753F11",
"V  c #623B25",
"C  c #58421A",
"Z  c #5C4422",
"A  c #50453F",
"S  c #6A430C",
"D  c #63421B",
"F  c #6C4412",
"G  c #6B441A",
"H  c #6C4A1B",
"J  c #664716",
"K  c #73430B",
"L  c #7C490D",
"P  c #7A460A",
"I  c #734513",
"U  c #744914",
"Y  c #734A1B",
"T  c #7B4A13",
"R  c #7B4C1A",
"E  c #754517",
"W  c #7B511C",
"Q  c #785317",
"!  c #6A501F",
"~  c #6C4A22",
"^  c #664624",
"/  c #6B5326",
"(  c #734C21",
")  c #794D23",
"_  c #785626",
"`  c #795637",
"'  c #6C4E33",
"]  c #7B6019",
"[  c #484847",
"{  c #57524E",
"}  c #5B6153",
"|  c #625755",
" . c #6F6D6E",
".. c #786956",
"X. c #824B0C",
"o. c #824705",
"O. c #814D13",
"+. c #814E1A",
"@. c #8B4E15",
"#. c #8A550C",
"$. c #845213",
"%. c #83531A",
"&. c #8B5314",
"*. c #8A5519",
"=. c #8D5914",
"-. c #8C5A1A",
";. c #845A17",
":. c #95580D",
">. c #945A14",
",. c #935C1B",
"<. c #9A5D14",
"1. c #9A5D1A",
"2. c #935419",
"3. c #934B0B",
"4. c #865823",
"5. c #945D22",
"6. c #995D23",
"7. c #844D24",
"8. c #95611B",
"9. c #9C6115",
"0. c #9C6219",
"q. c #956114",
"w. c #8C611C",
"e. c #8C6329",
"r. c #9C6322",
"t. c #946227",
"y. c #906935",
"u. c #A25D0C",
"i. c #AC5D14",
"p. c #A6670D",
"a. c #A46315",
"s. c #A3641A",
"d. c #A4691C",
"f. c #A96515",
"g. c #A96619",
"h. c #AC6A14",
"j. c #AC691B",
"k. c #A06916",
"l. c #AE7019",
"z. c #B36B15",
"x. c #B26C1C",
"c. c #B96D1B",
"v. c #B56915",
"b. c #B57015",
"n. c #B5701C",
"m. c #BB721C",
"M. c #BA7417",
"N. c #AF700F",
"B. c #A56922",
"V. c #AD6A21",
"C. c #A66725",
"Z. c #AB7324",
"A. c #B26D21",
"S. c #B26A26",
"D. c #B47221",
"F. c #BB7321",
"G. c #B97926",
"H. c #B06E31",
"J. c #A65F27",
"K. c #8A6641",
"L. c #8D7F7C",
"P. c #C2751D",
"I. c #C4781D",
"U. c #CB7B1D",
"Y. c #C87418",
"T. c #D27D1D",
"R. c #D97E1A",
"E. c #C06C18",
"W. c #C17620",
"Q. c #C57920",
"!. c #CC7C20",
"~. c #C77828",
"^. c #D17E22",
"/. c #D4801E",
"(. c #DB841C",
"). c #DE881D",
"_. c #CE831E",
"`. c #CC8021",
"'. c #CF8929",
"]. c #D48121",
"[. c #DB8422",
"{. c #DE8924",
"}. c #DA8726",
"|. c #D79432",
" X c #DEA324",
".X c #E2851C",
"XX c #E4891D",
"oX c #ED8C1E",
"OX c #EB881A",
"+X c #E8911E",
"@X c #F78D19",
"#X c #F5971D",
"$X c #E18622",
"%X c #E28A23",
"&X c #E18C28",
"*X c #EB8C23",
"=X c #EB8C28",
"-X c #E68625",
";X c #EB9122",
":X c #ED912A",
">X c #E69727",
",X c #F18E23",
"<X c #F28F29",
"1X c #F39323",
"2X c #F39329",
"3X c #F49B23",
"4X c #F99525",
"5X c #F99B24",
"6X c #FA9A29",
"7X c #F79729",
"8X c #EB9933",
"9X c #F7A41E",
"0X c #F5A423",
"qX c #F6AA24",
"wX c #FAA225",
"eX c #FBA329",
"rX c #F9AB25",
"tX c #FBAB29",
"yX c #F7A128",
"uX c #FAA233",
"iX c #F6B128",
"pX c #FBB22A",
"aX c #FABB2B",
"sX c #F6B526",
"dX c #E3A32A",
"fX c #FAC32C",
"gX c #FACB30",
"hX c #FAD635",
"jX c #F6E83B",
"kX c #918C8A",
"lX c #A09A98",
"zX c #BAB9B9",
"xX c #ADABAB",
"cX c gray62",
"vX c #C0BEBF",
"bX c #C0BDC4",
"nX c #CEC6B9",
"mX c #C8C8C8",
"MX c #DDDDDC",
"NX c #D6D5D4",
"BX c #CED1D2",
"VX c #D9DAE3",
"CX c #DDE0DA",
"ZX c #DEE3E4",
"AX c #E1DDDC",
"SX c #E0DEE3",
"DX c #E2E1DD",
"FX c #E6EADC",
"GX c #E4E4E4",
"HX c #EBEBEB",
"JX c #E7E6E7",
"KX c #E8E9F4",
"LX c #F2F2F2",
"PX c #FEFEFE",
"IX c #F6F8F8",
"UX c #F1EFEC",
/* pixels */
"^.H.i.Y.Z.1.J.b : ~ ;.9.:.a.A.l.x.x.n.W.!.!.^.]..X:X6X6XyXiXfXhXjXjXhXaXrXeX3X+X}./._./.[././.[.`.`.!.U.Q.Q.Q.Q.Q.W.m.G.m.m.n.h.s.V.f.a.d.,.L F > . x C.v.v.F.F.`.].-X$X-X+X X XdXdX8X>X}.^.P.z.h.g.j.j.j.V.g.V.C.m f y.'   @ } JXLXZXUXHX",
"!.V.i.P.9.2.2.5 < ~ =.9.p.g.D.j.x.x.c.W.I.!.}.]..X:X7X7XeXiXaXgXjXjXhXaXqXyX3XoX{./._./.[.^.^.T.`.U.!.!.Q.!.Q.~.Q.F.Q.F.m.G.D.f.g.V.g.a.0.,.T I , . d r.v.v.G.F.Q.`.^.[.XX&X>X XdX>X>X{.[.~.c.c.x.j.j.j.j.V.g.C.o.N E K.$ 4  .mXJXLXGXHXHX",
"I.s.F.G.#.r.O., y ) =.q.a.g.D.j.g.c.c.W.Q.!.^.].XX:X7X7XeXiXaXfXhXhXgXpXwX6X1XoX}./.U.(././.`./.^.U.`.!.Q.Q.Q.Q.W.W.W.W.F.F.D.f.s.V.f.a.s.,.T R 7 X p 5.v.x.G.G.Q.!./.(.).>X X>X X>X%X{.T.Y.E.c.j.h.a.j.d.s.B.l.T 7.K.p ;  .ZXKXHXHXHXHXLX",
"h.i.G.Z.L C.M * g W -.9.s.V.V.h.x.c.F.P.!.!.T.].%X:X:X7X0XsXsXfXhXhXfXtXwX4X,XOX{./.R.].[.]./.U.`.`.!.!.!.Q.Q.W.I.m.W.F.m.D.n.a.g.j.f.a.s.-.L W 9 @ 9 %.j.n.n.F.I.U.^.].{.>X X>X8X>X{.R.Y.E.c.j.j.a.a.d.d.9.0.9.+.4.V ; L.bXIXVXHXHXHXHXHX",
"p.z.G.8.#.y.i * M ;.q.9.g.V.A.v.x.c.P.W.U.!.T.T.).;X2X7XeXtXsXaXgXgXaXtX5X4X,XOX[.].^.(.[.^.^.^.U./.`.!.Q.Q.Q.W.W.P.W.m.n.G.n.f.V.g.g.a.s.,.L ) p @ 8 ) j.D.A.m.P.U.`.].{.>X8X&X>X&X'.U.E.c.c.x.a.q.<.s.0.>.=.o.e.Y 6 ..NXSXJXJXHXHXHXLXHX",
"p.P.n.] q.t.< 2 +.=.9.k.V.V.c.f.x.F.P.P.U.^.T.R.{.%X=X7XeXeXsXaXfXaXpXeX6X4XoX-X{.[.[.^.[.[.[.^.U.`.U.!.!.Q.Q.W.P.m.I.m.n.D.n.f.g.g.g.i.s.,.L 7.s @ 7 W s.V.D.n.Y.I.`.].].&X&X{.{.(.U.I.W.x.x.S.1.s.B.,.L P $.$.y.j p nXJXAXGXJXJXHXHXHXHX",
"h.Y.9.P 9.R $ w *.=.k.a.V.j.S.v.c.c.W.Y.I.U.R.(.).%X:X2XuX0XqXaXfXsXrX0X7X,X=X-X[.[.[.[.[.[.].R./.U.U.!.Q.Q.Q.Q.W.m.m.m.n.n.n.f.V.g.g.a.s.,.P +.s X 2 Y >.s.x.x.b.Y.U.`.[.'.{.]./.U.M.b.x.j.j.V.B.r.r.@.m N %.e.C 8 kXAXGXVXHXDXHXHXHXHXLX",
"n.Y.:.L Z.L + b 2.:.d.s.V.J.v.v.c.c.E.I.I.R.^.].).%X,X2X6X3XqXsXsXsXsX3X7X1X-X$X{.[.[.[.[.[.[.^.`.U.U.U.Q.Q.Q.W.P.P.m.n.j.n.n.f.C.i.z.g.g.6.P +.s . , J #.<.j.z.b.Y.U.`._.].[.(.U.Y.M.N.a.k.d.C.J.2.5.P N O.4.4.: Z UXKXKXKXSXHXHXHXHXLXHX",
"n.I.3.0.y.p : ;.>.>.0.B.V.j.j.S.c.c.P.I.!.^.[.R..X-X=X2X7X3X0XrXsXiXrX6X7X1X*X{.{.{.).{.[.].(.[.^.^.U.I.P.I.Q.W.W.W.F.c.F.S.x.g.J.f.g.s.r.r.L +.C # 4 Y P d.C.h.M.P.P.I.`.`.Q.I.m.n.l.9.q.9.d.s.6.o.3.o.+.` ' * [ BXJXCXHXGXHXJXLXHXHXHXHX",
"l.z.3.r.] < 6 ;.>.q.s.B.j.V.V.c.c.n.c.!.^.T.].].).-X=X<X7X;XqXsXaXqXrX5X4X1XXX).).{.$X].{.].T.T.].U.U.I.I.Q.P.W.W.F.F.F.F.S.j.z.s.s.d.s.0.t.T O.k + & ^ o.r.C.j.b.P.I.m.M.`.M.M.m.h.k.q.8.s.B.<.o.@.X.y._ d > | xXJXJXGXHXGXGXUXHXUXHXHXHX",
"Z.p.3.C.J $ c -.#.0.B.j.g.g.x.x.c.c.P.~.^.].T.[.(..X*X,X1X3XqXsXpXrXwX5X4X*XXX(..X[.{.].{./.(.U.].`.U.I.I.W.Q.W.W.W.F.F.F.A.j.g.i.s.d.0.>.,.L +.C X * G o.r.B.x.z.M.m.m.m.m.b.v.j.j.0.=.*.r.1.o.N #.e.z < w kXGXGXJXJXGXJXGXGXHXHXHXHXLXLX",
"Z.3.:.y.a $ V ,.:.s.V.B.J.v.S.x.c.c.W.!.!.].].].(.(.-X1X;X#X9XsXpXrXwX4X4X*X-X{.[.[.(.[.].[.T.^.].`.!.U.Q.!.Q.W.W.c.c.c.x.j.j.g.C.s.s.0.=.=.T +.! X # D L ,.0.f.z.b.n.m.m.z.v.h.d.0.8.L O.4.@.N o.e.C 9 | zXZXKXGXVXJXJXGXHXJXGXHXJXHXHXHX",
"Z.o.*.e.1 $ ( =.:.B.V.j.j.j.x.x.c.F.Q.!.^.^.(.[.(.XX*X<X3X#X9XqXpXtXwX#X4X,X=XXX[..X[.[.[.(.(.R.].`.!.U.Q.Q.W.W.P.m.b.x.j.j.g.i.C.i.0.d.=.*.O.W C @ # z L -.r.f.z.n.n.m.A.x.g.j.j.0.$.U R Y K L K.M p [ BXZXZXCXZXHXHXGXGXUXLXGXJXHXHXHXJX",
";.L 4.( ; ; W 2.<.g.V.V.j.z.x.x.c.F.W.!.U.^.^.].(.XX*X<X;X#X0XsXpXrXwX4X4X,X=X-X[.{.[.[.{.T.].].`.`.U.!.!.Q.I.W.F.c.x.x.z.j.s.a.s.s.0.0.=.*.O.%.J $ . z T %.t.f.j.h.n.A.x.j.i.J.B.8.L H ) F K -.| 5 A BXNXZXCXFXGXUXGXHXHXJXHXHXHXHXHXHXHX",
"L +.5.x % 9 ;.1.i.s.j.j.j.j.j.A.c.W.W.!.U.U./.[.(.-XoX<X3X#X9XsXpXrX5X5X,X,X-X-X$X[.$X{.[.[.].].^.!.!.I.Q.Q.I.W.F.m.n.x.j.j.g.a.C.s.0.0.=.*.$.R n @ # k U Q 6.j.h.j.x.V.B.g.J.s.0.w.T n M J U ;.v ' lXAXJXJXDXAXDXGXZXJXHXGXJXJXHXHXUXHXHX",
"K 7.4.i # s w.1.J.g.g.x.j.j.j.n.c.W.W.U.U.U.R.{.(.XXoX1X5X#X9XpXpXwX#X4X,X,X-XR.{.{.{.{.{.].].[.`.U.U.U.I.W.I.F.Q.W.m.n.x.j.j.s.d.0.0.0.=.*.R R h $ # v U T r.f.h.j.j.j.j.s.i.C.#.w.Q j u H W K 2 kXUXDXAXSXJXJXZXZXJXGXGXGXGXHXJXJXHXHXHX",
"S 8.C * : J 4.i.f.j.j.f.g.j.x.x.c.m.P.I.!.T.^.$X(..XoX4X#X#XtXpXtXqX#X4X,X=X-X].-X{.{.[.T.}.].}./.U.U.U.I.Q.Y.E.W.F.n.x.j.j.a.s.8.9.q.<.0.,.O.T C + % s G X.r.s.v.v.z.V.V.r.r.8.=.#.` y u Q Q 5 [ BXAXSXAXAXAXHXGXGXGXGXJXGXGXGXJXJXHXHXJX",
"K w.x @ 5 H 5.j.s.g.j.j.f.j.h.j.b.m.I.U.U.T.^.[.(.OXoX4X#XwXtXtXpXrX#X4X4X*X%X%X{.{.{.[.[.].}.}.^.U.U.U.I.I.W.W.F.F.x.x.j.j.d.s.8.0.q.<.1.,.$.T C @ % p G L 1.s.a.f.g.g.J.d.r.t.-.Q G 6 x Q C < xXHXAXSXSXJXGXJXDXGXGXJXJXJXJXHXGXJXJXHXHX",
"U y.8 X y _ 5.C.j.j.j.j.j.j.h.x.c.M.I.I.U.U.R.].(..X*X4X#X9XrXpXpXqX5X5X4X=X%X%X&X-X}.[.[.].[.].^.U.I.Y.I.Q.I.W.F.m.n.x.j.s.j.s.0.0.<.<.8.,.*.R D $ % w H T ,.s.s.j.g.f.a.1.2.%.Q S f y ^ h 1 { HXSXAXJXGXGXSXGXGXJXJXJXJXJXJXJXHXGXHXHXHX",
"J e.8 X c 4.5.i.s.j.j.g.j.g.x.j.c.m.I.U.U.U.R.].(.XX1X4X5XwXrXpXpXwX5X4X4X=X%X{.}.{.[.[.^.}.].].^.U.U.U.P.Q.Q.Q.F.F.n.x.j.j.j.s.0.0.0.9.1.,.*.T C ; + 0 ~ T 2.0.1.g.f.a.9.,.O.n H S y V V 5 > xXJXNXAXSXGXGXAXGXGXGXGXGXJXJXJXGXFXGXGXGXGX",
"j _ , . M 5.8.j.g.j.j.h.j.j.x.j.c.m.W.U.U.U.R.].(.oX1X4X5X#XrXpXpXqX#X5X4XoX-X%X&X{.}.^.].].[./.`.`.Y.I.I.M.Q.Q.F.m.n.x.j.j.d.s.0.0.a.<.<.,.$.L ! 2 . 0 ~ E -.8.2.1.a.<.0.8.R M _ l y ` x ; w MXAXNXJXAXAXSXAXJXAXDXMXZXGXGXGXJXGXGXHXGXGX",
"i / * # B ,.8.g.g.s.j.j.j.j.l.n.c.m.Q.!.!.R.R.].(.XX1X4X#X5XqXpXrX9X#X4X<X=X-X$X&X}.].].(.'.].`.`.U.I.Y.I.I.G.Q.F.m.n.x.j.j.s.s.s.9.9.<.>.,.*.T / 9 + 9 ( E %.8.6.B.>.>.8.-.W H / 8 c ' 8 .  .JXAXJXJXAXAXGXMXJXGXGXZXGXZXGXGXGXHXJXGXGXJX",
"8 J * 4 ) u.s.s.j.j.j.j.j.x.x.x.b.m.Q.!.^.^.].[.(.XX4X6X5X9XrXpXrX9X#X3X<X,X%X{.{.[.].].].].]./.U.I.I.I.I.M.I.Q.m.m.n.x.j.j.j.a.0.<.a.<.<.1.2.T H 0 + < M n O.#.>.r.1.*.%.U F U j 6 V D * = xXUXAXJXAXSXMXJXZXGXJXGXGXGXGXGXGXGXGXGXGXGXGX",
"5 C X 4 7.a.d.g.g.j.x.j.j.g.j.x.b.m.Q.!.^.^.].[.(.XX4X6X5X#XtXpXrX0X3X4X4X=X%X&X{.{.T.(./.'.]._.U.Y.I.I.I.I.M.Q.m.m.n.D.j.j.s.a.<.a.<.a.<.1.5.O./ v % ; z n R $.#.8.,.*.L n S U 5 y ' z   [ SXAXSXUXNXJXAXGXGXGXZXGXGXGXJXHXUXUXLXLXLXLXLX",
"7 e + a T B.V.n.j.j.j.x.j.z.z.z.m.c.Y.!.T.].{.{..X*X7X4X#X5XrXtXrXqX#X1X1XoX-XXX{.[.^.].[.^.^.^.U.U.I.P.Q.!.M.m.F.m.c.n.n.j.a.a.s.0.q.0.0.1.1.#.R d @ * C U T +.N T t.4.4.S E E 1 d ' , . kXAXDXHXAXAXSXJXJXGXGXMXGXHXLXIXPXPXPXPXPXPXPXPX",
"* q ; M -.B.d.h.h.j.A.j.j.x.x.z.m.P.Q.U.U./.{.$XOX,X7X6X5XwXrXtXrX0X3X1X1X*X%X$X&X].(.].].R./.^.!.I.P.P.I.M.Q.m.m.m.n.n.x.j.a.a.0.1.1.9.1.8.1.#.W k $ $ C F K T S L 4.W _ I ) n < ' Z * q nXDXGXSXAXSXGXGXZXGXGXHXLXLXPXPXPXPXPXPXPXPXPXPX",
"* & : Y >.d.j.h.l.j.j.x.j.x.n.M.c.W.I.U.U.R.[.%XoX<X6X6X5XwXtXpXqX0X5X5X4X*X*X{.{.[.(.[.].^.U.R.!.U.I.P.m.I.Q.Q.F.m.m.x.x.j.f.a.s.<.0.9.0.8.1.#.Q k $ @ b H I U P K W U F F ( f i ' 8 @  .KXMXDXAXDXGXGXGXGXJXHXIXPXPXPXPXPXPXPXPXPXPXPXPX",
"= + : ) =.d.j.N.h.j.j.A.x.x.n.n.c.P.!.U.U.T.(.$X*X1X6X6X5XwXtXpXqX0X5X7X1X:X;X%X{.{.R.].].R.U.T.!.!.I.I.I.I.m.Q.F.m.n.x.x.x.f.a.s.<.9.1.q.s.1.#.R z > . s H J U K S Q I F G M 5 D Z , - BXKXMXMXGXGXGXSXGXJXUXIXPXPXPXPXPXPXPXPXPXPXPXPXPX",
"- . 5 t.<.V.j.N.j.j.V.D.x.x.m.m.P.P.!.^.T.R.(.$X1X1X7X5X5X0XrXpXrX5XwX5X4X<X*X%X&X].].].R.T.U.T.!.!.Q.I.I.P.F.I.m.m.c.x.x.A.j.a.s.<.<.0.0.0.<.#.%.^ 5 @ 9 V n m I S K I ) M x 5 C d * { KXVXGXZXGXGXJXJXHXLXIXPXIXPXPXPXPXPXPXPXPXPXPXPXPX",
"r # a r.<.V.D.l.h.x.j.x.x.A.n.m.c.Y.U.^.^.R.).$X*X1X4X5X#X0XrXpXrXqX5X7X4X=X:X&X&X{.(.]./.T.U.U.U.Q.Q.!.I.I.I.W.W.m.c.x.j.j.j.d.s.a.s.s.s.s.s.=.O.H 9 @ 4 k x f J F F E R z p 1 d 1 $ cXZXMXZXGXZXGXHXHXIXPXPXIXPXPXPXPXPXPXPXPXPXPXPXPXPX",
"[ & h 0.u.S.S.n.h.j.l.A.A.n.n.m.P.I.I.T.(.(.$X%X*X;X3X5XwXqXrXpXqX0X5X5X4X:X*X%X{.].(././.T.T.T.U.!.!.Q.I.I.M.Q.F.m.c.x.x.j.j.a.s.<.s.s.s.B.s.:.P G 0 $ % b j a M U I U E x 0 9 q @ e VXZXGXGXHXGXHXIXIXPXPXPXPXPXPXPXPXPXPXPXPXPXPXPXPXPX",
"[ & h s.u.S.S.j.j.n.x.A.x.A.n.m.Y.P.U.U.^.$X%X*X#X;X3X5XwXqXtXpXqX0X5X7X7X2X;X%X%X{.T././.T.U.`.!.!.I.I.m.I.Q.Q.F.m.n.n.j.j.j.j.s.a.s.s.s.0.s.>.L F s & % s a u h J E F M x d 0      .KXMXGXGXGXHXIXPXPXPXPXPXPXPXPXPXPXPXPXPXPXPXPXPXPXPX",
"e $ H C.s.V.l.h.j.x.j.n.n.n.n.m.P.Q.!.U.R.{.XX*X*X#X7X5X3XrXpXaXqX0X3X5X3XoXoXXX[.[.$X].[.R./.R.^.!.U.I.Y.W.W.W.P.W.F.m.n.h.g.f.f.a.a.a.s.0.0.0.X.U J * @ 4 d g h ( G H u j k 4   { xXCXFXDXGXLXPXPXPXPXPXPXPXPXPXPXPXPXPXPXPXPXPXPXPXPXPX",
"- . h ,.u.V.D.h.D.l.j.j.x.n.n.F.c.Q.U.^.].{.$X%XoX1X5X5X6XeXtXaXqX0XwX3X5X1XoXXX$X[.$X{.{.T.U.R.`.U.U.U.I.W.W.E.c.F.F.m.x.x.j.f.j.g.a.a.s.s.0.0.@.L H , @ 3 d h l ~ M m j _ s + } zXFXUXGXGXIXIXPXPXPXPXPXPXPXPXPXPXPXPXPXPXPXPXPXPXPXPXPX",
"- # h =.<.S.D.f.j.j.j.x.n.x.n.m.P.Q.I.^.{.$X$X*X;X5X5X5XyXrXtXpX0X0X3X5X7X1XXXXX{.{.{.{.{.{.].^./.U.U.U.!.Q.W.I.P.F.n.n.n.j.j.f.j.f.h.s.s.0.0.0.&.$._ 7 + 3 d d C M f f _ K.< % cXFXFXNXDXUXPXPXPXPXPXPXPXPXPXPXPXPXPXPXPXPXPXPXPXPXPXPXPX",
"- * l *.g.F.l.h.j.A.j.x.x.n.m.D.m.Q.!.R.].$XXX*X1X4X6XeXeXeXiXiX9X0X#X3X7X1X*XXX&X{.{.{.].].].(.`.U.U.U.!.!.Q.Q.c.W.m.c.n.x.j.j.j.g.g.a.s.0.B.0.@.R _ 8 X 7 0 a g u f n y.^ + | CXUXMXMXLXPXPXIXPXPXPXPXPXPXPXPXPXPXPXPXPXPXPXPXPXPXPXPXPX",
"O $ j *.g.S.x.h.j.V.n.j.n.x.n.m.P.I.U.T.[.).$X;X1X5X7XeXeXrXtXsX0X0X3X7X3X1X*X-X%X%X{.{.[.[.]././.U.U.U.U.U.I.Q.P.m.n.b.n.A.x.j.j.j.a.s.s.s.d.0.2.T e.s $ 2 9 i g a h / ' ; 4 xXGXMXDXLXPXIXLXPXPXPXPXPXPXPXPXPXPXPXPXPXPXPXPXPXPXPXPXPXPX",
"O % u ,.j.A.j.n.x.j.j.n.n.n.F.n.M.P.U.U.[.XXXX*X;X1X6X5XeXeXrXpX0X9XwX3X1X*X*X*X%X&X{.}.[.[.].].].^.U.U.U.I.Q.`.P.m.z.c.x.x.j.j.j.j.a.d.s.r.d.0.,.K _ z 2 % 0 d i u C b > .  .AXSXMXHXPXPXPXPXPXPXPXPXPXPXPXPXPXPXPXPXPXPXPXPXPXPXPXPXPXPX",
"O @ j 8.V.A.l.l.j.n.n.n.n.m.m.G.M.P.U.R.(.$XXX*X*X1X5X5XeXrXiXpX0X0X3X7X;X1X*X*X&X$X{.[.[.]./.[.]./._.U.I.U.I.I.m.m.x.x.x.x.j.j.j.a.f.s.s.s.s.0.2.m B z 6 ; v b u a C *   e xXNXNXJXUXIXPXPXPXPXPXPXPXPXPXPXPXPXPXPXPXPXPXPXPXPXPXPXPXPXPX",
"O @ j ,.V.V.D.l.j.V.j.D.D.n.m.n.M.I.U.T.{.XX%X;X#X#X4X5XeXeXiXrX0X0X3X7X1X*X*X*X{.{.).[.[./.[./.]._.`.U.U.U.Y.I.P.m.b.x.z.j.j.f.j.j.a.s.s.0.s.0.6.m n V 1 % q 0 u d 0   -  .NXNXBXPXPXPXPXIXPXPXPXPXPXPXPXPXPXPXPXPXPXPXPXPXPXPXPXPXPXPXPX",
"O + h #.D.x.n.x.A.A.x.n.n.n.m.m.M.Y.^.T.%X%X%X*X1X1X4X5XeXeXtXtXyXyX;X7X1X;X%X).{.{.(.].[.].].^.^.^.!.U.U.I.I.P.F.n.x.j.j.g.d.s.i.1.s.1.a.<.s.1.5.N n ( 7 @ * 0 a d $ @ r zXBXBXKXIXPXPXPXPXPXPXPXPXPXPXPXPXPXPXPXPXPXPXPXPXPXPXPXPXPXPXPX",
"O + h #.d.x.x.x.j.x.n.x.n.n.m.m.P.I.U.].{.%X%X*X#X4X7XwXeXeXeXwX0X3X3X3X:X;X&X%X{.{.[.[.[.[.].^.^.^.^.U.U.I.I.P.F.A.x.x.j.g.s.s.a.s.s.s.1.a.<.1.y.B n / 7 @ * w i 8 $ = kXmXNXNXLXIXPXPXPXPXPXPXPXPXPXPXPXPXPXPXPXPXPXPXPXPXPXPXPXPXPXPXPX",
"O + J #.j.x.x.n.x.A.A.x.n.m.m.m.c.P.U.].[.%X*X*X1X7X6X6XeXeXeXwX0X5X1X#X*X;X&X%X$X[.[.[.[.].^.^.^.^.!.I.I.I.I.m.F.x.x.g.g.g.g.s.a.s.s.s.i.9.<.>.6.T n ~ 8 @ @ 0 p 2 . b bXNXGXHXIXPXPXIXIXPXPXPXPXPXPXPXPXPXPXPXPXPXPXPXPXPXPXPXPXPXPXPXPX",
"O $ Q :.x.F.x.n.x.A.n.n.c.c.m.m.P.P.U.].{.$X%X*X4X6XeXeXwXeXrXeXeX3X1XoX;X;X;X%X[.[.[.].}.[.^.^.^.^.!.I.I.P.P.P.n.c.x.x.g.g.s.s.s.s.s.s.0.1.<.<.6.+.K D 9 X o q 0 & & kXBXVXIXPXPXPXPXPXPXPXPXPXPXPXPXPXPXPXPXPXPXPXPXPXPXPXPXPXPXPXPXPXPX",
"# > ;.q.x.F.x.n.x.A.x.x.n.n.m.m.c.I.!.].[.XX%X*X1X4X5X6X5XeXtXtXeX3X1XoXoX%X).{.[.[.[.].].}.].!.~.Y.!.Y.Q.P.m.m.F.x.x.x.j.g.s.s.s.a.9.s.0.9.q.0.5.-.I l 7 o o 4 3 + | mXHXIXPXPXPXPXPXPXPXPXPXPXPXPXPXPXPXPXPXPXPXPXPXPXPXPXPXPXPXPXPXPXPX",
". 5 e.:.x.c.x.n.V.x.x.n.m.m.m.m.P.I.!.[.[.{.%XXX1X3X5X5X5XeXtXtXtX3X1X1X*X%X{.[.[.^.].^.}.^.].!.~.T.Q.Q.I.F.m.m.F.x.x.j.j.g.a.s.s.k.a.1.0.0.0.0.,.,.T u , o = = % & lXBXIXPXPXPXPXPXIXPXPXPXPXPXPXPXPXPXPXPXPXPXPXPXPXPXPXPXPXPXPXPXPXPXPX",
"% 8 e.9.z.c.x.j.x.A.x.n.n.m.c.m.m.I.!.T.[.).XX-X#X7X5XyX5XeXeXtXeX3X*XoXoX%X$X(.[.].].^.^.].^.~.!.!.Y.W.W.P.m.c.c.A.x.j.j.g.s.s.a.s.s.0.0.9.0.>.>.r.%.g * o o O # | mXmXIXIXPXIXPXPXPXPXPXPXPXPXPXPXPXPXPXPXPXPXPXPXPXPXPXPXPXPXPXPXPXPXPX",
"% p t.a.c.x.A.x.x.A.n.n.b.n.m.m.m.I.!.T.[.{.XXoXoX7X6X5X5X5XeXrXyX7X;X+X*X*X$X(.].].].}.^.^.^.!.!.~.Y.W.m.I.m.n.F.c.x.j.j.j.g.s.d.0.0.s.0.9.0.>.=.,.*.z 3 o o o & xXNXHXIXIXIXIXPXPXPXPXPXPXIXPXPXPXPXPXPXPXPXPXPXPXPXPXPXPXPXPXPXPXPXPXPX",
"% c 5.i.c.S.S.V.x.x.c.c.n.n.M.M.M.Y.Y.R.(.).XXXXOX#X#X#XyXeX9X9XeX;X;X%X*X{.).(.^.^.T.T.U.!.U.U.E.Y.W.P.c.c.F.c.F.D.n.j.j.j.k.s.9.s.s.0.0.0.0.1.>.0.T J d *   o e zXSXPXPXPXPXPXPXPXPXPXPXPXPXPXPXPXPXPXPXPXPXPXPXPXPXPXPXPXPXPXPXPXPXPXPX",
"% x 6.u.b.n.n.A.x.c.x.x.M.M.M.M.E.c.!.!.}.{.%X%X@X5X7X3X3X6XeXeXwX;X;X:X=X%X).(.].^.U.U.U.U.U.U.I.Q.P.E.P.m.c.c.n.x.j.j.j.j.f.a.1.s.s.0.0.0.0.1.>.q.T S k 2 X o t vXJXIXIXPXPXPXPXPXPXPXPXPXPXPXPXPXPXPXPXPXPXPXPXPXPXPXPXPXPXPXPXPXPXPXPX",
"+ k 5.a.z.b.v.c.x.x.x.D.n.n.Z.M.v.M.I.^.[.{.XX%XOX4X6X6X6X6XuXuXwX#X;X;X&X-X(.(.^.R.U.T.I.U.U.I.I.I.W.W.c.c.c.c.D.j.j.j.f.d.d.f.a.s.s.0.0.s.0.<.:.1.&.U M 9 * o [ zXHXIXPXPXPXPXPXPXPXPXPXPXPXPXPXPXPXPXPXPXPXPXPXPXPXPXPXPXPXPXPXPXPXPXPX",
". b 6.s.F.c.v.A.V.S.D.A.D.D.G.Z.b.M.I.^.[.{.;X%X,X4X6X6X6X6XeXtX3X+X*X%X&X{./.R.^.^.!.I.U.U.I.I.P.I.Q.c.P.n.x.x.A.j.j.a.g.j.d.s.9.s.s.9.1.0.1.>.<.0.&.T ( 8 = X e xXUXPXPXPXPXIXPXPXPXPXPXPXPXPXPXPXPXPXPXPXPXPXPXPXPXPXPXPXPXPXPXPXPXPXPX",
"$ z t.j.x.x.v.E.c.x.c.c.m.P.c.E.c.Y.U.^.^.-X=X=XOXoX#X#X#XwXwX3X3X+XXX%X&X{.R.R.].^.!.!.!.I.!.I.W.P.m.W.F.n.x.x.x.j.s.i.g.j.s.s.a.s.0.1.0.0.1.>.1.0.=.O.Y i 3 o & kXKXIXPXPXPXPXPXPXPXPXPXPXPXPXPXPXPXPXPXPXPXPXPXPXPXPXPXPXPXPXPXPXPXPXPX",
"@ l ;.0.Z.Z.j.x.x.x.c.c.P.P.Y.Y.M.P.Y.R.R..XOXoX8X:X7X6X#X9XwX#X0X+XXX&X-X{.].(.^.!.!.!.Q.!.Q.I.I.W.I.G.m.n.x.x.j.g.g.g.s.j.d.s.s.0.0.9.1.0.<.>.,.r.&.X.( i 3 = e kXIXIXIXPXPXPXPXPXPXPXPXPXPXPXPXPXPXPXPXPXPXPXPXPXPXPXPXPXPXPXPXPXPXPXPX",
". 0 h U Q _ Q R R %.;.*.-.*.,.,.k.l.Z.Z.W.Q.`.'.|.|.8X6X#XwXeXeX3X>X).%X%X].T./.`.`.!.Q.!.Q.I.P.m.W.F.Q.F.n.x.x.g.g.g.g.g.C.g.d.s.s.s.<.9.0.1.>.-.8.>.O.E i 9 = e kXIXPXPXPXPXPXPXPXPXPXPXPXPXPXPXPXPXPXPXPXPXPXPXPXPXPXPXPXPXPXPXPXPXPXPX",
"o o $ < * > < < , , 7 7 1 8 8 8 8 8 i i a j l S m 3.I.<X5X6X6X7X3X+X).).{.]././.!.!.U.Q.I.I.I.m.W.W.F.F.F.x.x.j.g.g.j.g.g.g.s.d.s.s.0.<.0.0.<.>.w.t.>.X.E i 9 # =  .LXIXIXPXPXPXPXPXPXPXPXPXPXPXPXPXPXPXPXPXPXPXPXPXPXPXPXPXPXPXPXPXPXPXPX",
"  ; : : < , > $ * * @ @ X @ * X . . .       . o + 6 t.8X;X3XuXuX3X+X).).}.^.U.U.U.U.I.I.P.P.P.P.m.m.F.n.A.c.x.x.j.g.f.g.s.s.s.d.s.0.<.1.<.9.1.>.=.,.5.o.U y 3 4 o [ ZXIXPXPXPXIXPXPXPXPXPXPXPXPXPXPXPXPXPXPXPXPXPXPXPXPXPXPXPXPXPXPXPXPXPX",
"% d E R 7.( _ Y U U U E U U U U B B K U I U U Q E O.'.7X#X4X6X6XyX+X%X{.}.}./._.U.U.P.P.I.P.P.m.m.m.c.F.A.S.v.j.j.g.s.f.d.a.s.s.s.9.a.<.1.0.>.<.:.,.5.$.U 5 9 9   e vXPXIXPXIXPXPXPXPXPXPXPXPXPXPXPXPXPXPXPXPXPXPXPXPXPXPXPXPXPXPXPXPXPXPX",
"< M 6.H.H.B.V.V.n.n.n.c.c.A.c.c.Y.^.!.^./.(.(.{.|.].7X@X@X#X4X4X3X+X%X{.{.}././.U.I.P.P.P.P.m.P.m.n.F.c.E.S.v.j.f.g.a.g.s.s.s.s.0.s.<.0.9.1.<.>.q.>.1.,.U 5 3 s X q cXPXIXPXPXPXPXPXPXPXPXPXPXPXPXPXPXPXPXPXPXPXPXPXPXPXPXPXPXPXPXPXPXPXPX",
"< M ,.x.n.n.M.v.b.c.c.P.W.W.E.P.Y.Y.T.T.R.(.XXXX>X:X#X@X@X4X4X5X>X+X).[.}.].U.U.I.P.P.P.P.m.m.M.b.m.n.c.c.c.S.i.g.f.f.s.f.s.s.s.s.s.s.9.9.q.1.>.9.1.6.1.O.5 < s 7 =  .IXIXPXPXPXPXPXPXPXPXPXPXPXPXPXPXPXPXPXPXPXPXPXPXPXPXPXPXPXPXPXPXPXPX",
"3 M -.a.n.n.M.v.n.n.A.D.F.F.S.F.~.~.~.^.].{.%X*X+X;X1X*X1X6X;X3X;XXX[.[.].^.!.!.I.I.P.P.m.M.c.x.n.n.n.n.x.x.j.x.j.f.f.s.s.s.s.s.s.s.1.<.0.<.1.>.q.r.6.<.%.i ; s q * { DXIXPXIXPXPXPXPXPXPXPXPXPXPXPXPXPXPXPXPXPXPXPXPXPXPXPXPXPXPXPXPXPXPX",
"3 C -.a.j.l.x.v.n.n.n.m.F.F.F.W.~.~.~.!.^.].-X=X%X:X=X2X7X:X;X0X3X*X-X[.}.^.!.U.Q.P.P.n.m.m.c.n.n.n.n.n.V.x.j.j.s.g.f.a.f.s.0.0.s.0.a.0.0.<.1.<.:.s.1.2.6.g < 8 w * e vXPXPXPXPXPXPXPXPXPXPXPXPXPXPXPXPXPXPXPXPXPXPXPXPXPXPXPXPXPXPXPXPXPX",
"3 z -.k.l.d.x.x.b.b.b.b.M.c.m.P.P.P.I.U.^.$XXX-X%X:X2X2X2X2X3X3X3X&X{.[.^.^.U.Y.I.P.I.m.m.m.n.n.n.n.n.n.A.x.j.j.j.f.g.g.f.s.d.d.s.s.s.<.1.q.1.>.:.6.1.2.t.~ 8 8 v 2 4 kXPXIXPXPXPXPXPXPXPXPXPXPXPXPXPXPXPXPXPXPXPXPXPXPXPXPXPXPXPXPXPXPXPX",
"2 h X.<.h.n.A.x.n.l.b.n.n.m.m.m.M.I.U.U.R.[.$X%X.XoX*X*X1X2X7X7X;X+X$X[.^.!.Y.E.P.M.m.m.m.m.m.F.n.n.D.x.V.x.V.j.j.g.a.j.s.s.s.d.s.s.s.0.0.0.<.,.i.1.1.<.,._ i 7 v 3 *  .PXIXPXIXPXPXPXPXPXPXPXPXPXPXPXPXPXPXPXPXPXPXPXPXPXPXPXPXPXPXPXPXPX"
};
