/* XPM */
static char *squid_04_02_ctrl[] = {
/* columns rows colors chars-per-pixel */
"117 66 256 2",
"   c #020101",
".  c #0B0402",
"X  c #0B0903",
"o  c #0C0B0C",
"O  c #070708",
"+  c #0A0A11",
"@  c #0A120A",
"#  c #081315",
"$  c #120301",
"%  c #140B01",
"&  c #120B0B",
"*  c #1A0B01",
"=  c #1A0606",
"-  c #13120B",
";  c #1B1203",
":  c #191409",
">  c #131213",
",  c #1B1B1A",
"<  c #171616",
"1  c #140D15",
"2  c #1A1D20",
"3  c #081920",
"4  c #1C2216",
"5  c #230B01",
"6  c #221202",
"7  c #23140B",
"8  c #2C1A03",
"9  c #2B1B0B",
"0  c #261807",
"q  c #241C13",
"w  c #2A1C14",
"e  c #241615",
"r  c #331C02",
"t  c #321804",
"y  c #31160F",
"u  c #2A2215",
"i  c #3B2202",
"p  c #3A230B",
"a  c #362508",
"s  c #392916",
"d  c #352C08",
"f  c #282826",
"g  c #393837",
"h  c #322D29",
"j  c #221B22",
"k  c #3A3B40",
"l  c #3C4043",
"z  c #431D00",
"x  c #432C0C",
"c  c #492806",
"v  c #422A14",
"b  c #472C17",
"n  c #48320C",
"m  c #4B3213",
"M  c #483317",
"N  c #542C03",
"B  c #552D16",
"V  c #54330B",
"C  c #5C3302",
"Z  c #5B3A0C",
"A  c #573506",
"S  c #523A1B",
"D  c #5B3B1B",
"F  c #573713",
"G  c #493825",
"H  c #543B23",
"J  c #623B02",
"K  c #643C0C",
"L  c #6A3D0B",
"P  c #673704",
"I  c #633C12",
"U  c #6A3E13",
"Y  c #643816",
"T  c #733D08",
"R  c #652F08",
"E  c #683F21",
"W  c #5C4116",
"Q  c #5D400E",
"!  c #5A4329",
"~  c #44433E",
"^  c #6C420C",
"/  c #6A4307",
"(  c #634213",
")  c #64441A",
"_  c #6C4212",
"`  c #6C421B",
"'  c #6D4A1C",
"]  c #694914",
"[  c #72430B",
"{  c #79450B",
"}  c #784708",
"|  c #724413",
" . c #734914",
".. c #744C1A",
"X. c #7C4B13",
"o. c #7A4C1A",
"O. c #774518",
"+. c #7B511B",
"@. c #775219",
"#. c #75520C",
"$. c #684823",
"%. c #734B21",
"&. c #764B22",
"*. c #7A5527",
"=. c #775331",
"-. c #7C602C",
";. c #484746",
":. c #504B49",
">. c #5B5B5B",
",. c #575453",
"<. c #55514F",
"1. c #605A5C",
"2. c #636363",
"3. c #6A6869",
"4. c #767676",
"5. c #716F6E",
"6. c #625E60",
"7. c #7D8681",
"8. c #854B0A",
"9. c #834D13",
"0. c #814D1A",
"q. c #894C12",
"w. c #89530B",
"e. c #835314",
"r. c #83541C",
"t. c #8C5414",
"y. c #8A5519",
"u. c #8B5815",
"i. c #8C5A1C",
"p. c #92540D",
"a. c #97580A",
"s. c #925412",
"d. c #945A14",
"f. c #945B1A",
"g. c #9B5C15",
"h. c #9A5D1A",
"j. c #985417",
"k. c #914B11",
"l. c #875925",
"z. c #935C21",
"x. c #965B24",
"c. c #85532D",
"v. c #9B6015",
"b. c #9C611A",
"n. c #96631B",
"m. c #8F6B19",
"M. c #8A6127",
"N. c #946222",
"B. c #9B6322",
"V. c #98662A",
"C. c #926A33",
"Z. c #A45D0B",
"A. c #A15D18",
"S. c #A65D26",
"D. c #A8640E",
"F. c #A36215",
"G. c #A3631A",
"H. c #A4681B",
"J. c #AA6514",
"K. c #A96619",
"L. c #AC6915",
"P. c #AC691B",
"I. c #A36A14",
"U. c #A9741C",
"Y. c #B26A15",
"T. c #B36D1B",
"R. c #BA6E1A",
"E. c #B76B15",
"W. c #B5701C",
"Q. c #BB721C",
"!. c #BB7317",
"~. c #AE6D0B",
"^. c #A26422",
"/. c #A46A23",
"(. c #AB6B22",
"). c #A76A28",
"_. c #A97128",
"`. c #B36D21",
"'. c #B56C23",
"]. c #B47122",
"[. c #BB7421",
"{. c #BE7822",
"}. c #B8762A",
"|. c #B47732",
" X c #807B7C",
".X c #C2761C",
"XX c #C4791D",
"oX c #CA7B1D",
"OX c #C57516",
"+X c #D27D1D",
"@X c #C17010",
"#X c #C27621",
"$X c #C47921",
"%X c #CB7C21",
"&X c #C67A28",
"*X c #D17E21",
"=X c #B3842A",
"-X c #B38D30",
";X c #B88F14",
":X c #85817E",
">X c #CE811D",
",X c #D4811E",
"<X c #D9821E",
"1X c #DB891E",
"2X c #DD901E",
"3X c #CD8122",
"4X c #CB822B",
"5X c #D48221",
"6X c #DA8421",
"7X c #DC8923",
"8X c #D8852B",
"9X c #CE922D",
"0X c #E4881E",
"qX c #E0901F",
"wX c #E28A23",
"eX c #EA8D22",
"rX c #E18A26",
"tX c #EB9124",
"yX c #ED9329",
"uX c #E49327",
"iX c #F29325",
"pX c #F29528",
"aX c #F49827",
"sX c #E49134",
"dX c #CAA231",
"fX c #848484",
"gX c #8B8B8A",
"hX c #989797",
"jX c #8F9090",
"kX c #A19A97",
"lX c #ABAAAB",
"zX c #A3A3A3",
"xX c #BABABA",
"cX c #B5B5B4",
"vX c #AEB4B4",
"bX c #A09DA1",
"nX c #B5BDC0",
"mX c #BDC2C6",
"MX c #C1BDBC",
"NX c #C2C2C2",
"BX c #CACACB",
"VX c #DDDDDD",
"CX c #D4D4D4",
"ZX c #CDCFCE",
"AX c #DEE4E5",
"SX c #E1E1DF",
"DX c #E4E3E3",
"FX c #EAE9E6",
"GX c #EBEBEB",
"HX c #E8E5E8",
"JX c #EDECF0",
"KX c #F3F3F3",
"LX c #FEFEFE",
"PX c #F9FBF6",
"IX c #F0F0EF",
"UX c #DEDDE2",
/* pixels */
"; S &.g.E.E.T.T.T.R.W.R.!.R.Q.!..X.XOXoX+X+XwXwXeXeXiXeXiXiXiXiXiXiXwX*X+X*X$XXXXXQ.Q.Q.Q.Q.Q.Q.U.W.W.T.T.L.L.L.K.K.K.I.K.G.G.G.G.G.b.b.g.g.g.d.f.b.b.h.f.U U V F s u ,.AXLXLXPXLXLXLXLXLXLXLXLXLXLXLXLXLXLXLXLXLXLXLXLXLXLXLXLXLXLXLXLXLX",
"* m O.j.T.E.T.'.T.T.W.R.W.!.Q..X.X.XoXoX+X<X*XwX+XiXeXiXeXiXiXiXiXeX<X6X*X%X.X.XQ.XXQ.Q.Q.Q.Q.W.W.U.Y.U.T.T.L.I.K.K.K.J.K.K.G.K.G.b.b.b.v.n.h.h.n.f.n.h.f.{ I c c a 6 g BXLXLXLXLXLXLXLXLXLXLXLXLXLXLXLXLXLXLXLXLXLXLXLXLXLXLXLXLXLXLXLXLX",
"% x | h.T.R.T.`.R.W.R.R.Q.Q.Q.Q..XXXXXoX+X*X*XwX*XiXeXeXiXiXiXiXiXiX0X6X*XXX.XOXQ.Q.Q.Q.W.W.W.W.Y.T.T.Y.L.L.P.P.P.P.L.P.K.H.K.K.G.F.G.b.b.b.g.b.B.d.h.h.f.X.] N V H 0 f xXIXLXLXLXLXLXLXLXLXLXLXLXLXLXLXLXLXLXLXLXLXLXLXLXLXLXLXLXLXLXLXLX",
"* v | ^.R.R.T.T.T.T.W.T.R.Q.Q..XXX$XoXoX+X+XwXwXiX*XeXeX+XeXiXiXiX0X<X*XoXXXXX!.Q.Q.[.Q.W.W.W.W.W.Y.U.Y.P.T.T.P.T.P.P.P.P.K.P.P.G.G.F.b.v.v.n.v.B.d.h.G.n.r.@.Q n D 6 , lXGXLXLXLXLXLXLXLXLXLXLXLXLXLXLXLXLXLXLXLXLXLXLXLXLXLXLXLXLXLXLXLX",
"; p K /.].R.T.T.T.T.T.R.R.Q.Q.Q.XXoXXX+X+X<X<X6X*XiXiXiX+XiXiXiXtX0X*X*XoX$X.XOXQ.Q.Q.W.T.T.T.W.~.W.Y.U.Y.Y.T.T.T.T.T.P.P.P.P.K.H.H.H.G.G.v.h.v.f.f.g.A.d.i.+.' N S w q lXHXPXKXLXLXLXLXLXLXLXLXLXLXLXLXLXLXLXLXLXLXLXLXLXLXLXLXLXLXLXLXLX",
"0 i R ).T.R.T.U.T.T.T.'.W.Q.Q.Q.Q.oXoXoX+X*X<X<X*XeX+XiX+XeXiXiXeXwX<X+X%X$XQ.Q.R.W.W.W.T.P.T.(.U.T.T.T.T.T.T.T.T.T.T.P.P.P.P.P.P.H.K.G.F.v.v.g.h.h.g.A.d.y.@.@.( $.b w hXAXLXLXLXLXLXLXLXLXLXLXLXLXLXLXLXLXLXLXLXLXLXLXLXLXLXLXLXLXLXLXLX",
"q a C ).T.R.T.`.].R.T.R.R.[.[..XQ.XX%X*X+X*X<X0XeX*XiX+XiXiXiXiXtX7X+X*X$XXX$XQ.!.W.W.E.U.T.P.W.E.T.T.T.W.T.T.`.T.T.T.T.T.P.P.P.P.P.G.G.A.v.v.g.h.h.h.g.g.i.[ / _ ) M q 4.CXLXLXLXLXLXLXLXLXLXLXLXLXLXLXLXLXLXLXLXLXLXLXLXLXLXLXLXLXLXLXLX",
"d d Z _.T.R.L.W.T.T.T.R.].R.R.[.XXXXoX+X+X<X<X<X*XiX*XiX+XiXiXiXtX7X6X*XoXXX.XQ.W.T.Y.U.T.T.T.T.Y.!.W.!.W.W.W.T.R.].T.T.P.P.T.P.K.K.K.F.G.F.g.G.h.B.g.g.b.n./ J _ ) ! w 5.BXPXPXLXLXLXLXLXLXLXLXLXLXLXLXLXLXLXLXLXLXLXLXLXLXLXLXLXLXLXLXLX",
"w m C |.T.R.R.T.T.T.W.R.W.R.R.Q.OXXXOXoX+X,X,X<X7X6XrXrX<XeXaXiXiXwX,XoX.XQ.Q.R.E.T.T.R.W.W.T.W.T.W.W.Q.Q.Q.R.T.].'.].].R.'.T.T.K.K.K.K.F.v.g.v.g.n.b.h.n.i.+.K K ` $.a ;.mXLXLXLXLXLXLXLXLXLXLXLXLXLXLXLXLXLXLXLXLXLXLXLXLXLXLXLXLXLXLXLX",
"a b C _.T.E.T.T.T.T.W.R.R.R.Q.Q.OX.XoXoX+X,X<X<X7X6X6XrX7XeXaXaXaXeX,XOXXXQ.R.R.R.T.T.W.R.T.R.`.T.W.R.W.R.R.W.W.].].T.'.'.T.T.'.'.P.P.K.G.F.v.v.d.f.g.n.n.i.+.+.I U %.p g nXLXLXLXLXLXLXLXLXLXLXLXLXLXLXLXLXLXLXLXLXLXLXLXLXLXLXLXLXLXLXLX",
"w S A _.T.T.T.`.T.R.T.T.R.R.R.[.OXXXOXoX+X,X,X<X6X6X6X6X*XeXpXaXaXtX6XoXXXQ.OX@XT.T.T.T.T.T.T.T.R.R.Q.[.[.W.Q.W.[.].R.T.T.T.T.'.T.P.(.K.I.A.g.g.n.g.f.h.i.X.[ +.( I $.x f vXLXLXLXLXLXLXLXLXLXLXLXLXLXLXLXLXLXLXLXLXLXLXLXLXLXLXLXLXLXLXLX",
"9 S C ).T.T.W.`.T.T.W.R.W.R.Q.Q..XoXoXoXoX,X,X<X6X*X*X6X<XeXpXaXaXuX6XoXQ..XR.R.W.W.R.T.T.T.R.T.Q.Q.Q.Q.W.R.!.W.'.R.'.T.T.T.T.T.'.T.P.K.G.F.n.g.h.b.h.b.b.{ L  . ./ ' m : zXPXLXLXLXLXLXLXLXLXLXLXLXLXLXLXLXLXLXLXLXLXLXLXLXLXLXLXLXLXLXLX",
": H N n.`.T.T.`.T.T.W.W.W.R.Q.Q.OXoXoXoX+X*X6X+X,X,X5X+X+X0XpXpXyXtX<XoX!.!.R.R.T.R.T.T.T.T.T.T.Q.Q.Q.W.Q.W.Q.W.W.T.T.T.P.T.T.T.T.P.P.H.G.F.v.g.d.b.h.b.B.y.O.o. .J ' S : jXKXPXLXLXLXLXLXLXLXLXLXLXLXLXLXLXLXLXLXLXLXLXLXLXLXLXLXLXLXLXLX",
"9 ! N N.].T.T.`.T.W.E.E.W.R.Q.$X.X.XoXoX*X+X+X+X<X,X,XoX+XeXpXpXtXwX,XoXXXXXR.!.R.].T.T.T.T.T.T.!.W.Q.Q.Q.!.W.!.R.W.W.T.T.T.T.T.P.P.K.K.F.F.b.v.g.b.g.h.V.f.0. . .K ` F - 4.KXPXLXLXLXLXLXLXLXLXLXLXLXLXLXLXLXLXLXLXLXLXLXLXLXLXLXLXLXLXLX",
"q $.c d.].].].`.T.T.E.T.R.Q.Q.$X.X.XXX%X*X,X5X+X5X+X+XoX+X*XyXpXtX0X,XoXXXQ.Q.R.W.R.T.T.T.T.R.].!.Q.Q.Q.Q.Q.Q.Q.[.W.Q.W.W.W.R.T.`.T.P.K.G.v.v.g.h.h.j.d.f.y.X._ K _ U b % 2.IXLXLXLXLXLXLXLXLXLXLXLXLXLXLXLXLXLXLXLXLXLXLXLXLXLXLXLXLXLXLX",
"% H r 8.P.T.T.`.T.T.T.T.T.Q.Q.Q..X.XoX%X+X*X+X+X5X5X+X+X+X*XyXyXeXqX,XoX.XQ.Q.R.`.T.T.T.T.T.W.R.Q.!.{.{.{.{.Q.Q.Q.[.].Q.Q.[.R.R.].W.(.P.G.F.g.g.h.h.h.G.h.y.X.| K _ ( v % >.JXLXLXLXLXLXLXLXLXLXLXLXLXLXLXLXLXLXLXLXLXLXLXLXLXLXLXLXLXLXLX",
"% b z T '.T.T.(.`.].].T.T.R.Q.$X.XXXoX%X*X*X*X*X8X5XoX+X+X6XiXpX0X0X+XoX.X.XR.R.R.T.T.'.`.W.W.R.Q.Q.{.Q.XXQ.3X;X[..XQ.Q.R.W.W.W.W.W.T.P.H.b.b.g.f.f.h.h.b.N.y.[ U U H s * :.IXLXPXLXLXLXLXLXLXLXLXLXLXLXLXLXLXLXLXLXLXLXLXLXLXLXLXLXLXLXLX",
"X G B 0.P.T.`.(.P.`.W.T.W.Q.#X#X#XXXoX%X*X*X*X*X<X<XoX+X+X6XiXiX0X0X+XXX.X[.R.R.E.T.T.'.T.T.T.T.!.Q.Q.XXQ.XX!.Q.[.[.[.Q.[.Q.Q.W.W.W.W.P.H.G.b.h.B.b.h.h.f.f.i.X.| ` D p % ,.PXLXLXLXLXLXLXLXLXLXLXLXLXLXLXLXLXLXLXLXLXLXLXLXLXLXLXLXLXLXLX",
". s F O.G.L.`.(.K.W.`.W.R.Q.$X$X#X#XOX%X+X*X*X*X*X*XoX+X+X0XyXeXiX0X<XXX$X[.R.R.T.Y.T.P.T.P.T.W.!.Q.{.XX.X.XQ..XXX#X.XQ.Q.Q.Q.W.Q.[.W.U.H.H.G.b.B.f.h.h.d.f.e.[ O.` D p $ 1.PXLXLXLXLXLXLXLXLXLXLXLXLXLXLXLXLXLXLXLXLXLXLXLXLXLXLXLXLXLXLX",
"  u m L g.K.`.(.J.P.W.W.R.[.Q.Q.#XoXoXOX+X*X*X*X*X,XoX>X*X6XyXiX0XwX6X5XQ.Q.Q.R.T.T.T.P.'.T.T.R.Q..XQ.Q..X.X.X.X.X.X[.XXQ.[.[.[.[.Q.W.(.P.b.b.n.f.d.h.b.h.f.e.} U U F M * <.PXLXLXLXLXLXLXLXLXLXLXLXLXLXLXLXLXLXLXLXLXLXLXLXLXLXLXLXLXLXLX",
"- w b U b.K.`./.D.L.W.Q.Q.Q..X.X$XXXXXXXoX*X+X*X,X>XoX5X*X6XtXiXiXeX*X+X.XR.Q.R.Y.T.T.P.P.T.R.T..X$X#XXX#X$XXXXXQ.XXQ.$X{.Q.{.{.{.Q.W.P.P.G.G.v.b.h.g.g.n.f.f.e.| U B M ; :.IXLXLXLXPXLXLXLXLXLXLXLXLXLXLXLXLXLXLXLXLXLXLXLXLXLXLXLXLXLXLX",
"@ < b L B.I.P.(.F.L.W.W.Q..XR..X$X$X$XoX%XoX*X6X,X,XoX%X,X<XyXtX0XeX*X*X#X.XR.Q.Y.T.T.P.K.Y.T.R.Q.$X#X#X&X%XXXXXXX!..X.X{.$XXX&XQ.Q.!.W.P.H.G.g.b.d.g.g.s.f.e.} o.U x s 6 :.GXLXLXLXLXLXLXPXKXLXLXLXLXLXLXLXLXLXLXLXLXLXLXLXLXLXLXLXLXLXLX",
", O y Z f.g.P.).D.L.].Q.Q..X.XXX$X$XXXXX%XoX5X5X,XoXoX5X+X<XtXtX0X0X6X+X$X[.R.R.Y.T.T.P.A.T.T.R..X[.XXXX$X#XoXoXXXXX.X$X.X{.{.XX.X{.Q.W.].(.G.v.f.g.g.d.d.n.w.} o.` c b 7 :.HXLXLXLXLXLXPXKXKXLXLXLXLXLXLXLXLXLXLXLXLXLXLXLXLXLXLXLXLXLXLX",
"f O 0 N d.a.F.^.D.P.Q.Q.Q.Q..X.XXX$X$XXXoX%X>X>XoXoXoXoXoX<XtXeX0XwX6X5X%X[.R.Y.T.R.T.'.T.T.W.[.Q..X#XXX#XoX.X.X$XXX.X$X.XXXQ.Q.$X$X{.[.].(.G.v.f.n.g.d.d.n.N.#.| $.B b 0 ;.HXLXLXPXLXLXPXJXKXLXLXLXLXLXLXLXLXLXLXLXLXLXLXLXLXLXLXLXLXLXLX",
"g @ f x f.L.L.G.J.T.W.R.Q..XXX.X.X.XoXoXoX%X3X4XoXoXoX>X+XwXeX0X+X0X0X*XXX@XE.T.W.(.(.(.(.(.'.'.Q.$X%XXX#XoX%X%XoXoXoX.XXX#X.XQ.XXXXOXOX.XQ.P.G.n.g.g.g.h.n.f.u.| P A d 9 ,.CXLXPXLXLXPXPXJXGXLXLXLXLXLXLXLXLXLXLXLXLXLXLXLXLXLXLXLXLXLXLX",
";.# e c z.T.`./.J.T.Q.Q.R..X.X.X.XoXXX.XXX%X%X3XoXoXoXoX+XwXeXtX6X0X*X+XoX!.Q.R.`.P.I.n.g.p.k.Z.].Q.Q..XOX%X%X%XoXoX$X.X.X.X.XXX!.XXoX!.Q.Q.P.H.b.g.A.^.h.d.d.t.0.^ A n q 1.CXLXLXLXLXLXPXKXGXPXLXLXLXLXLXLXLXLXLXLXLXLXLXLXLXLXLXLXLXLXLX",
";.+ 1 x y.I.`.g.L.W.[.[.Q.#XXX.XoXXXoXXXoX$X%X%XoXoXoX+X*XwXeXyXwX7X<X+XXXOXQ.Q.`.K.v.h.g.G.P.].&X{.XX.XoX*X*X%X$XoX$XXXQ..XQ.Q.XXXX$XoXXX{.W.K.H.g.h.G.h.h.u.} l...( S w 1.NXPXLXLXLXLXLXIXGXLXLXLXLXLXLXLXLXLXLXLXLXLXLXLXLXLXLXLXLXLXLX",
"f O . t o.I.T.A.L.W.[.{..X.XXX.X.XXXXXXXXXoXXXXX%X%XoX5X*XrXuXpXeX7X6X+XoXXXQ.R.T.K.g.a.s.d.G.(.[.{.$XXX$X*X%X%X%X%X%XoXXXXXXXQ..X$X%XoX$X$X].T.H.v.A.h.h.).f.[ O...] S 7 1.xXLXLXLXPXLXLXJXGXLXLXLXLXLXLXLXLXLXLXLXLXLXLXLXLXLXLXLXLXLXLX",
"u # o 5 o.H.P.G.L.T.{.[.Q.XX$XXXoX.XXX%XXXXXXXXX%X%X%X*X8XrXeXyXeXwX<X,XoXXXQ.Q.'.P.(.^.H.b.(.(.Z.Y.Q.XXoXoXoX%XoX%X%X$XXXXX.XQ.Q.$X>X%XoX$XQ.T.H.H.H.v.g.f.N.z.^  .] m : 1.lXLXLXLXPXLXLXIXGXPXPXLXLXLXLXLXLXLXLXLXLXLXLXLXLXLXLXLXLXLXLX",
"h 2 + $ ] /.K.g.T.Q.[.[.Q..XQ.XXoXXX%XXXoXXXXXXX>X%X%X*X*XrXeXeXuX7X<X+XoX.XQ.Q.}.'.^.d.u.w.p.p.Z.T..XXX.XoXoX%XoXoX$X%X$XXX.XQ.Q.$XXXoXoX$X#XQ.P.K.F.G.h.y.e.e.P ^ Q S 7 3.zXPXLXLXPXLXLXIXHXKXLXPXLXLXLXLXLXLXLXLXLXLXLXLXLXLXLXLXLXLXLX",
";.< O . ( _.P.Z.P.[.[.[.Q..XXXXXXXXX%X%XXXXX%X%X%X%X%X*X*XrXeXeXeXrX,XoX>XXXQ.R.[.'.(.b.n.b._._.W.Q.$XoXoXoXoX%XXX%X%X$X$X#XQ..X[..X%XoX*X%X$XQ.W.K.F.A.h.f.9./ T ^ A m w  XzXLXPXLXLXLXLXIXHXIXPXPXLXLXLXLXLXPXLXLXLXLXLXLXLXLXLXLXPXLXLX",
"<.# + % Z b.P.v.T.R.[.Q.Q..X$XXXoXoX%XoXXXoXXX%XXX%X3X5XrX*XwXwXwX<X<X5X%X$XQ.Y.A.K.H.B.B./././.[.$X$X!..XoX%X%XoXXX$X%XoXXXXXQ.$X$XXX%X%X*X%XQ.P.P.P.g.t.N.V.@.z.*.C p 7 4.bXLXLXLXLXLXLXGXAXIXPXLXLXLXLXLXLXLXLXLXLXLXLXLXLXLXLXPXPXPXPX",
"5.1 + o n (.P.f.E.#X'.#X.XOX#X$XoX%X%X*XoXoXoX5X,XoX,X,X,X7XwXwXeX7X6X%X%X{.`.H.u.X.X.X.0.9.y.k.h.(.'.{..X%X&X&X$X%X$X$XXX$XQ.Q.[.XX%X*X*X*X&XXXQ.J.K./.8.{ r.r.P | Q d :  XbXPXLXLXLXPXLXKXHXHXGXLXLXLXLXPXLXLXKXLXPXLXLXLXLXLXPXLXKXPXLX",
"jX, 1 o c ).A.j.R.'.R.#X#X#XOXoX%X%X%X%XoXoX+X5X+X,X>X,X6X2XwXwX0X7X,X>X3X{.W.K.s.} } } X.t.y.q.k.A.P.P.R.#X&X*X%X$X$X%X$X$X$X$XR.#XoXoX*X*X%X#X`.P.F./.z.9.o.r.9.| V a = gXcXPXLXLXLXLXLXKXGXGXJXLXLXLXLXLXKXLXLXLXPXPXKXLXLXKXLXKXLXLXKX",
"vXf 1 O t B.K.f.'.E.Y.[.&XoX%X%X%X%XoX*X+X*X5X5X,X,X,X,X7X7XwXwX7X7X6XoXQ.W.`.P.b.i.u.z.x.h.^.).).(.`.W.R.#X$X$X$X%X$X$X&X$X$X[.R..XXX+X*X*X*XoXT.].P.G.s.9.r.o.0.O.Z r 0 jXMXPXLXPXLXLXPXGXHXGXIXLXLXLXLXLXPXLXLXCXgXfXgXxXIXLXPXLXLXLXLX",
"ZXg 1 O * V.^.h.'.A.Z.T.$X#X&X#XoXoXoXoX%X*X5X5X5X,X,X,X7XwXwXuXuXrX%X!.D.J.J.v.H.h.h.f.y.q.s.k.s.p.g.G.].R.#X&X$X$X$X#X.XQ.Q.Q..XQ.XX*X*XrX8X*X.XR.`.A.} { l...l.C.' 8 * jXMXPXLXPXLXLXKXHXGXGXHXKXPXLXLXKXLXGXfX  O ;.f   g NXLXJXLXLXLX",
"CX:.> + * l./.A.(.F.a.Y.[.#X&X%XoXoXOX>X,X5X7X5X<X5X<X6X6XwXuXwX7X6XoX@XY.T.(.(.G.p.8.t.y.d.h.g.s.d.h.`.].Q..X#XXXXX#X.XQ.Q.Q.Q.Q..X%X*X7X7X7X<X%XE.L.(.t.[ e.+.C _ ' 8 7 bXBXLXLXPXLXLXIXHXGXIXIXIXLXLXLXKXKX4.  4.DXLXLXhXo 2 CXLXKXLXLX",
"AX5.1 + % ] ).h.(.F.a.K.#X'.#XXXOXOXoX>X3X5X5X7X8X<X<X6X7XrXeXwX7X8X5X$XQ.W.`.(.H.d.s.y.t.t.t.s.s.s.h.S.K.K.J.~.#X$X#X#X$X[.Q.[.Q.Q.XX6XrXrXrX7XoX!.Y.W.G.e.@.@.0.@.%.p : hXCXIXLXLXLXPXIXAXGXGXIXHXLXLXLXLXxX  3.KXLXLXLXKXNX4.PXLXLXLXGX",
"GXkX, 2 X n ).g.(.I.a.K.[.#X#X#XXXoX,X5X3X5X<X6X6X6X8X6X6XeXrXuXsX<XoX$XR.F.p.p.p.q.y.z.i.i.n.V./._._._.'.].[.$X#X&X#X[..X[.Q.#XQ.R..X6XrXwXwX7XoXoXQ.K.b.i.r.^ R L V s =  XCXFXKXPXKXIXGXGXGXGXHXDXPXPXLXLX2.o GXLXKXKXLXLXKXPXLXPXKXhX, ",
"KXcX< 2 X i V.g./.v.g.T.'.#X#X#XoX3X3X6X6X5X5X*X6X6X*X<X7X7XwX7X6XoX.X&X[.J.g.v.G.y.8.e.+.e.e.y.u.s.f.h.S.G.W.Q.#X#XR.#XR.].Q.Q.R.E.oX<XwXwXqXwX7X+X.XT.t.e.l._ L o.V b $ ,.NXFXAXGXGXAXHXGXHXGXGXGXKXLXLXPX> >.LXLXKXLXPXLXLXLXKXLXlXo ;.",
"IXCXf # @ * M.a.T.I.j.`.OX@XOXoXoX>X>X,X5X*X<X6X>X1X,X,X<X0XuX7X!.@XQ.]._.H.b.n.N.f.t.q.8.s.h.t.p.s.p.p.8.p.G.].R.#X[.[.`.R.].].R.R.oX<X0XwXuXuXrX8X#X}./.@./ #.T _ $.a X ~ MXDXVXFXAXGXJXGXIXIXGXHXLXKXLXLXO fXPXLXPXLXLXLXLXLXLXKXh > LX",
"IXUXk # @ % c.j.].K.j.'.&XQ.XX5X3X>XoX8X8X,X*X,X,X1X,X,X<XwXsXuXOX+X3X{.b.p.t.p.i.y.u.y.y.h.h.f.b.b.b.b.g.v./.(.R.'.Q.T.T.T.T.T.R.Q.oX+X2XuX2X2X*X8X[.g.8.V.r.C C L S s % g xXDXSXHXHXFXGXGXIXGXKXIXJXPXLXLX  fXLXPXLXLXPXLXKXLXPXSX  gXLX",
"FXHX>.> @ $ ` h.].I.j.'.[.XXOX%XXX.X.X5X8X*X+X6X,X,X<X<X<X7XrXuX7X,X3X}.d.w.f.i.i.i.z.N.z.V.B.V.V.^.)._.G.F.G.G.Z.J.P.T.T.`.Q.[.R.R.XX6XqXwXuX2XyX6X#XK.} z.C.*.| +.m 9 % g cXFXHXGXHXFXGXAXIXGXGXIXGXKXLXLX> 2.KXLXKXLXLXPXLXLXPXxX  vXLX",
"FXGX5.< - $ m z.T.G.j.'.[.Q.Q.Q.E.~.!.oX5X>X,X6X,X,X7X7X1X<X6X7XeX>X!.P.s.e.y.e.i.i.l.e.X.{ X.X.9.X.t.i.s.g.G.G.A.J.K.Y.T.T.T.R.[.XXoX<X0XuXuX2X1XoXXX}.w.X.+.c.o.+.n 6 ; s jXFXGXGXGXGXGXGXGXIXHXIXIXPXPXLX2.o KXLXLXPXJXLXLXPXPXnX  lXPX",
"GXJXfX4 > - p M.L.K.G.'.{.{.Q.W.D.T.!.{.XXoX,X5X1X5X7XrX7X7X7X7X5XOXJ.G.f.e.X.X.0.9.X.[ P P L  .[ [ } 8.w.d.h.G.H.H.P.T.T.T.R.Q.$X.X>X*X2XuXuX7XuX9XXXL.8.9.P c R U H 9 : f 4.VXHXGXGXGXGXGXGXGXGXKXGXPXLXLXxX  2.PXLXLXLXLXxX4.KXKX  ;.LX",
"IXKXjXh < - 9 M.L.J.h.`.].W.L.P.R.[.4X3XXX>X>X>X,X7X7XrX7XuX7XuX9X}.H.d.e.X.{ X.0.X.| L _ | ..*.l.+.r.l.y.f.b.b.G.H.(.`.].Q.#X&X!.Q.XX<X7XyXsX2X>X>X~.J.g.q.U ' P ` $.9 q h 5.ZXFXAXGXGXGXIXGXGXKXGXGXKXLXKXLX3.  3.VXLXLXhX  , VXLXgX  fX",
"GXJXkX;.4 > * =.L.v.j.(.U.L.L.(.{.{.Q.3XXX>XoX>X,X7X6XrX6X7X6X,X|.b.y.+. .[  .r.0.X.| U _ ( I ( +...r.r.i.h./.B.^././.P.`.Q.Q.#X&XXX5X6X,X7X7XoX~.~.E.&X_.y.[ *.U $.H 5 % f 3.lXFXHXGXGXGXIXHXGXGXGXIXKXLXKXLXHX4.O   ;.f   ;.mXPXKXLX>.  ",
"DXJXzX>.2 > $ D W.A.j.(.`.I.T.|.'.P.Y.Q.!.XX>X>X,X6X6X<X<X6X+X@Xy.} } @.[ ^ X.X.| L L K ` I Z F Z C L [ { 8.d.d.g.g.G.K.K.T.Q.&X$X.XoX*X,X7X5XOXQ.4X&X&X'.|.r.N N U ! y % 4 <.gXGXHXGXGXGXIXHXGXGXHXIXKXLXLXKXLXLXCXjXgXgXcXKXLXLXPXLXKXlX",
"HXJXxX4.f @ ; u ).H.a.Z.h.(.I.'.D.L.Q.{.Q.3XXXoX>X8X%X3X*X&X8X{.u.8.T _ *.*.+.^ F Y I K Z Y Y D ( ) ....o.X.X.X.} { q.f.H.(.].}.Q..XXX%XoX5X8X*XsXsX&X#X$XU.B.#.c F d ; % . 6.4.HXAXIXFXGXGXKXIXIXGXGXIXLXPXLXPXLXPXKXLXLXLXLXLXLXLXPXLXPX",
"JXJXxX7.~ u 7 w V.G.a.A.A.b.a.Z.F.P.{.{.W.!.!.XX;X%XXX4X%XR.[.T.g.s.y.x.C.x.| C F Z I I Z Z F F F K (  .X.y.i.n.b.H.G.F.K.T.W.W.R.R.!.@X.X%X*X%X.X#X'.'.T.v.u.P ( ) W a % 1 1.1.BXGXDXGXGXJXGXJXDXGXIXKXLXPXLXLXPXLXLXLXLXLXLXLXLXLXLXLXKX",
"HXGXBXjX6.< < = *.b.a.G.).g.v.P.`.P.J.J.L.Q.Q.!.,X*XoXoX.XZ.D.J.Y.K.G.f.0.| P C ` ( ( ) ( ) W W V V N C J / #.e.v.v.I.I.I.Y.W.!..XR.R.E.@X&X.XL.Z.S.'.#XQ.P.^.k.V c ! H ; % <. XjXHXAXGXAXFXDXHXGXIXKXJXPXKXLXLXKXLXLXPXLXLXPXJXHXZXxXvXbX",
"HXGXVXzX4.- = $ ` B.a.K.^.p.h.(.'.K.I.I.L.!.Q.4XXXoXR.OXR.T.[.P.T.s.} T L | ` _ ' W n n v x c r m m F F Z K ^ ] 8.8.d./.(.K.H.W.'.[.R.R.Q.$XW.J.E.'.&X#XT.G.).x.%.N m G 9 X j 3.2.ZXHXIXFXGXJXIXGXGXGXGXPXPXLXPXPXJXCXxXlXhXfX4.2.;.h f 2 ",
"HXHXVXxXhX> o X V V.p.A.j.8.d.^.(.G.P.].}.].R.{.XXOXOX[.'.'.(.G.8.} / [ @.' Z A c m m G H H b c S S S W W ) %.-.z.y.t.t.d.d.v.K.'.P.P.Y.T.W.].{.'.}.).x.p.s.t.T c B M b u : 7 ,.<.lXGXAXGXGXHXGXGXUXZXmXxXvXbXgX4.3.:.l f 2 1 O 1 < f g g ",
"FXDXVXBXmXh > o i M.p.j.h.d.b.).G.h./.].`.P.J.P.3X.XQ.`.A.s.p.t.@.] / Q ( Z ( ^ K ` H b b b c N $.D F F V V I $.} y.N.h.v.d.a.w.S.K.A.K.I.P.P.].d.q.{ X.e.z.N.e.U D y 7 f q . & 2.jXSXZXCXNXvXbXfX5.6.;.g h 2 > o o , f g ;.>.5.fXhXlXxXZX",
"FXFXSXCXDX,.2 # r M.g.G.^.g.d.x.s.h.).G.a.a.Z.P.].T.P.H.A.i.q.9.=.$.W ) ' | } P } | c 5 t r C ^ e.X.X.o.o.L R C ^ ^  .e.e.y.n.n.f.x.G.v.I.I.J.K.b.X.| '  .@.@. .&.m r 7 , .   - ;.:.4.2.,.l f f < # < > f g ;.,.4.fXhXzXxXZXDXKXPXPXPXPXLX",
"SXFXSXVXGX2.2 # * *.f.A.h.8.} 9.h.h.g.s.a.P.P.J.P.P.(.G.^.x.0.L B B B $.&.{ } 8.b.B.&.Y $.C.V.).(.g.p.h.B.x.k.8.Y c N _ c.0.X.X.i.B.h.a.g.K.K.K.f.T U Y Z A A ( $.r t 7 <   :   O   > , , h h ;.>.3.fXfXjXlXBXVXGXKXLXPXLXLXLXLXLXLXLXLXLX",
"DXDXVXCXVXhX< > * $.V.#.z.o.@. .e.X.u.n.v.v.h.h.I.b.v.b.f.} / / A R T k.J.S.h.x.x.l.| ( K Y U Y O.O.+.*.M.i.h.K.b.t.N F &.( V Y [ X.w.f.i.c.c.c.$.n r 9 u w q 8 = $ O O   o   @ s f :.:XhXbXcXZXHXIXKXGXVXHXLXLXLXLXLXLXLXLXLXLXLXLXLXLXLX",
"HXGXSXVXAXvXf > . m y.} +.| [ / X.r.B.B.n.a.g.G.n./.g.p.w.e.m.M.w.U.-XdX}.x.&.B t * $ ; ; ; 6 6 t t p m m F U o.C.V.| / X.#.X.O.@.` F m m c d i 9 ; * * $   X % $ 7 7 $   &   @ :.1.hXFXLXPXLXLXKXLXLXGXFXKXLXLXLXLXLXLXLXLXLXLXLXLXLXLXLX",
"HXGXDXSXDXBXg >   r l.y.l...^ / r.z.N.n.u.u.f.f.V.x.q.d.b./.n._.9X-X=X@.A t 5 $ & O O # # @ @   = $ .   X ; w v U &.M.|.=XU.t.R r t : o @ X X X o . X * = w s s v ! H 8 ; w % X g 3.kXFXLXLXLXPXLXLXPXGXAXGXLXLXLXLXLXLXLXLXLXLXLXLXLXLXLX",
"AXFXSXDXVXCX;.>   6 ' r.r._ ^ } X.r.l.i.u.u.e.{ 9.d.g././.n.=X-X=X@.c % . & e e s u 4 u - < 4 q y e & o o o & O 6 t c _ w.n.t.R 5 5 % = , q : u u 0 r p x S W W m m p a p s ; % 7 ,. XBXPXLXPXLXLXLXLXGXVXVXIXLXLXLXLXLXLXLXLXLXLXLXLXLXLX",
"SXSXUXDXVXVX6.f o $ F +.+.^ | { P X.r.l.X.| [ [ y.b.U.U.-X-XdX-XB t = 1 j h M v A c i 8 ; 6 9 p p s s h u < % X   . $ 5 c $.c.*.%.*.O.0.0.&.D b v s M H F D F m x c x W S 8 6 s   f 5.NXLXLXLXLXLXLXLXPXHXVXGXLXLXLXLXLXLXLXLXLXLXLXLXLXLX",
"DXSXAXHXVXAX4.l # . x *.M.#. .T ^ ^  ._ ` ^ ^ ..x.G.~.;X-XC.$.t $ 5 9 d n F F V J A n a 6 6 t p r i x v p r a d u 2 1 + & 6 d s -.C.=X*X*X#XA.q.W i 8 s h s s s a p d s 8 % y h & X 4.CXLXLXLXLXLXLXLXLXPXGXHXIXLXLXLXLXLXLXLXLXLXLXLXLXLX",
"HXSXDXDXDXHXjXk 3 . t %.r./  .| L L U U ' K ( @.I.-XdXdX*.r * X e b D / L L L ` ^ Z b a 7 9 p s x n m m v r 8 a s u , < -   % : a Z i.P.*X8X%X3X).L t 6 w e e w 7 7 8 ; 8 w g 7 % - zXDXLXLXLXPXLXLXLXLXLXKXGXHXPXPXLXLXLXLXLXLXLXLXLXLXLX",
"DXSXDXDXDXDXhXh 3 O 5 `  .J | X.L L U U Y N Q C.;X;X-X=.y O > 4 d S K | 0.T U &...Y v p 9 a d n x p b b b v r r a 8 q u : % & o % ; r V z.'.XX+X8X'.U v s 7 5 = $ 7 u u ; 5 f . . h BXVXLXPXLXLXPXLXLXPXLXLXKXKXJXPXLXLXLXLXLXLXLXLXLXLXLX",
"DXDXVXDXVXDXxXg f @ : ! [  .&..._ K Z F B I t.=XsX-X] @   7 s ! Z U o.o.f.j.j.x.k.9.D r 8 M F A Z V F D F ( ( I A c i t w : e < < + . $ w M ( u.I.U.{.S.0.B R / @.*.=.M . X O   2 4.ZXHXLXLXLXLXLXLXLXLXLXLXLXLXKXPXLXLXLXLXLXLXLXLXLXLXLX",
"DXAXSXSXVXAXxXh f + . F @.*...K D D S S n J v.9X-XQ ; X d d V A Q #.m.U.}.T.].].(.N.` x 8 n F  .#.X...l.e.u.u.y.M. .Z c t 5 0 7 : 0 : - + O ; d x Q X.e.y.&.*.x.-.=.c 5 = +   2 l vXZXGXPXLXLXLXLXLXLXLXLXLXLXLXLXLXPXPXPXLXLXLXLXLXLXLXLX"
};
