/* XPM */
static char *squid_01_02_img[] = {
/* columns rows colors chars-per-pixel */
"306 28 111 2",
"   c #ACAEAE",
".  c #AFAEB4",
"X  c #ACB0AE",
"o  c #A6B2B1",
"O  c #ACB2B3",
"+  c #ACB6B8",
"@  c #AAB9B6",
"#  c #AEBBBA",
"$  c #B2AEAD",
"%  c #B2AEB1",
"&  c #B4B0AF",
"*  c #B9B1AF",
"=  c #B3B4B4",
"-  c #B6B7B9",
";  c #B2BDBD",
":  c #B9B3B4",
">  c #B9B6B9",
",  c #BCBBBB",
"<  c #B4BEC0",
"1  c #B5BFC8",
"2  c #BCBDC1",
"3  c #B0C3BF",
"4  c #B4C1C2",
"5  c #B7C6C9",
"6  c #B7CAC6",
"7  c #B6CAC8",
"8  c #BBC2C3",
"9  c #BCC5CB",
"0  c #BBCACB",
"q  c #BFCED3",
"w  c #BED2D1",
"e  c #B9DBDC",
"r  c #BDDFE0",
"t  c #BEE0E1",
"y  c #BDEAE7",
"u  c #C3B7BB",
"i  c #C2BCBD",
"p  c #C4B7C0",
"a  c #C2BEC1",
"s  c #C9BEC1",
"d  c #C5C1BE",
"f  c #C4C3C3",
"g  c #C6C6C9",
"h  c #C6C9C7",
"j  c #C1CCC8",
"k  c #CAC2C4",
"l  c #C9C3C9",
"z  c #CBCBCB",
"x  c #C3CCD1",
"c  c #C0D0CD",
"v  c #CDD0CE",
"b  c #C1D1D1",
"n  c #C2D5D9",
"m  c #C6DBD6",
"M  c #C5DBDA",
"N  c #CCD3D1",
"B  c #C9DDDE",
"V  c #D2C6CA",
"C  c #D3C9CB",
"Z  c #D8CECF",
"A  c #D8CCD0",
"S  c #D3D4D4",
"D  c #D3DED6",
"F  c #D6DAD9",
"G  c #D9D9D7",
"H  c #DBDBDB",
"J  c #CADDE3",
"K  c #CBE1DE",
"L  c #DBE1DD",
"P  c #C2E4E5",
"I  c #C5E6E8",
"U  c #C6E9E9",
"Y  c #CCE2E3",
"T  c #CBE6EA",
"R  c #CBE9E5",
"E  c #C9EBEC",
"W  c #C5EAF1",
"Q  c #CCEEF0",
"!  c #C4F0ED",
"~  c #CAF0EE",
"^  c #C7F3F2",
"/  c #CDF1F2",
"(  c #CDF5F8",
")  c #CCFAFA",
"_  c #D1E6E7",
"`  c #D0EBE5",
"'  c #D1EAEB",
"]  c #D8EDEE",
"[  c #D1EDF2",
"{  c #D3F0ED",
"}  c #D1F3F4",
"|  c #D4F5F9",
" . c #D2FBF6",
".. c #D5FAFA",
"X. c #DAF3F4",
"o. c #D8F5F8",
"O. c #D9F8F5",
"+. c #DBFDFD",
"@. c #E3E4E3",
"#. c #E6E6E8",
"$. c #E4E8E6",
"%. c #E8E8E6",
"&. c #ECECEC",
"*. c #EFEDF0",
"=. c #EEF0ED",
"-. c #E1F6F7",
";. c #E1FEFD",
":. c #E9FDFB",
">. c #F3F3F3",
",. c #FAF6FA",
"<. c #FEFEFE",
/* pixels */
"e e e e e e e e e e e e e e e e e e e e e e e e e e e e e e e e e e e e e e e e e e e e e e e e e e e e e e e e e e e e e e e e e e e e e e e e e e e e e e e e e e e e e e e e e e e e t t t I t t I t I I U U U U ! E ' [ [ [ [ W ( ) ..R j & , i , , , , a f f f k f h h l h Z N z z z Z v z v S G G H H @.@.H @.#.#.@.H S z 8 v H H H G H @.@.H H H H H @.@.H @.H H H F H H H H H F G H H H H G H H F H G H F G F H H G H G F F G G H G H G F H G H H F H H H @.H H @.H @.H L @.L H H H F G H G H H H H H F F H H H H H H G H _ @.H @.H H H G H H H F F H H H H H @.@.@.H H H H H H H H H H _ H H @.H H L H @.H H H H H H H _ L ",
"e e e e e e e e w e e e e e e 7 e e e e e e e e e e 7 e e e e e e e e e e e e e e e e e e e e e e e e e e e e e e e e e e e e e e e e e e e e e e e e e e e e e e e e w e e e e e e r r t t t t t I t I I U U U ! E E / Q ( Q | ..| ....R 6 - i > 3 , d f f h h z z z z Z N S F S S F S H F F H G H H H H H H H %.H H G G S G H H @.#.#.%.#.%.&.@.%.#.&.&.@.@.@.&.&.&.&.&.&.&.&.&.&.$.#.%.#.@.@.@.@.@.@.@.$.&.@.@.%.@.@.%.@.@.@.@.@.@.@.@.@.@.@.H @.@.@.@.@.$.&.#.&.&.&.&.&.&.&.$.$.&.&.%.&.#.%.@.@.@.@.@.#.@.@.@.@.@.@.%.@.@.#.@.$.@.%.@.#.@.@.%.%.%.&.&.%.&.%.@.%.#.%.@.@.%.#.&.&.&.#.#.$.$.@.%.%.@.#.%.%.%.%.&.#.%.&.%.%.#.#.$.$.",
"e e e e e e e e e e e e e e e e e e e e w e e e e e e e e e e e e e e e e e e e e e e e e e e e e e e e e e e e e e e e e e e e e e e e e e e e e e e e e e e e e e e e 7 e e e e e e r t t t t t t I I I I U U E E ^ | Q ( ( | } +.+.Y 6 , > > , , d h g z v S S G G F H H H @.H @.@.@.@.@.@.@.H @.@.H H H H F H H H @.@.#.#.#.&.&.&.&.&.&.&.&.&.&.*.>.=.=.=.=.&.&.&.&.&.&.&.*.=.=.=.=.&.&.&.&.&.#.&.&.&.&.&.&.&.&.&.&.&.&.&.&.&.&.&.&.#.&.&.&.#.&.*.*.=.=.=.=.>.&.>.>.>.=.>.*.>.=.=.=.>.=.>.&.&.&.&.&.=.&.=.=.&.&.&.#.&.&.&.*.&.&.=.=.*.*.*.*.&.%.&.%.%.=.&.&.>.&.&.&.&.&.>.&.=.=.=.=.&.&.&.&.&.&.&.&.&.&.&.=.&.&.>.&.>.&.&.&.>.=.",
"e e e e e e e e e e e e e e e e e e e e e e e e e e e e e e e e e e e e e e e e e e r e r e e r e r e e r e e e e e e e e e e e e e e e e e e e e e e e e e e e e e e e e e e e e r r t t t t I I I t I I I E U U E ( / ^ ( ^ ....} B f , f k f f h z v S G G L @.@.@.@.@.%.#.@.@.%.&.#.#.@.@.#.#.#.#.@.@.%.%.H H @.#.&.&.*.&.&.&.&.&.&.*.*.>.&.>.>.>.>.=.>.>.>.&.>.>.>.>.>.>.,.>.>.>.>.>.,.>.>.>.>.>.>.=.>.=.=.*.>.&.>.*.>.*.*.>.=.=.=.*.&.&.*.>.>.>.>.>.>.,.>.>.>.>.>.>.>.>.,.>.,.,.>.>.>.>.>.>.>.>.>.>.>.=.=.&.&.&.&.&.&.&.>.=.>.>.>.>.>.>.>.,.>.>.>.>.,.>.>.>.&.>.>.>.>.>.>.>.>.>.=.>.,.>.>.=.*.*.*.=.=.=.>.&.>.>.>.>.*.>.>.>.>.",
"e e e e e t e e e e r r e e e e e e e e e e e e e e r r e r r r r r r r e e r r r e r e r e r e r r e r e r e r r r r r t e t r e t e t e t e t e e e e e e e e e r r r e e e e t r t t t t t J t I I I U E E E Q / / ! ^  . .O.{ c ; a k s k z S S F L @.@.@.@.&.&.$.&.&.&.&.&.&.&.&.&.&.&.$.&.&.&.&.%.#.&.&.&.&.&.&.&.&.&.&.%.&.*.>.=.>.>.>.>.>.>.>.>.>.>.>.>.>.=.>.>.>.>.,.>.>.>.>.>.,.>.>.>.>.>.>.>.>.>.>.>.>.>.>.>.>.=.>.&.=.>.=.>.>.=.=.>.>.>.,.>.,.>.,.>.>.>.>.,.,.>.,.,.,.<.,.<.,.,.>.,.,.,.>.>.>.>.>.=.=.>.>.>.>.>.>.>.>.>.>.>.=.>.=.>.&.>.=.>.>.>.=.>.&.=.>.=.>.>.>.=.=.>.=.>.>.,.>.>.,.,.>.<.>.>.<.>.>.>.>.>.>.>.>.>.>.>.",
"e e t e e t t e r r r r e e e e t e t t t t t e e e r r r r r r r r r t r r r r t t t r r r t r r r t t r t t t t r t r t t t t t t t t t t t t e e t e t t e t r r r r e e r y t t t t I t t P I I I U U E E E ' / / ^ | +.] K c 3 3 k k k z S H @.%.&.=.&.&.%.$.&.&.&.&.&.&.&.>.&.&.&.&.>.*.&.&.*.&.&.&.&.&.&.>.=.&.&.&.&.&.&.&.>.>.>.*.&.&.>.>.&.>.>.>.,.>.>.>.>.,.>.,.>.,.,.>.>.,.>.>.>.>.>.&.*.>.=.>.,.,.>.&.&.=.=.*.>.&.>.=.=.>.>.>.,.>.>.*.>.>.=.>.>.>.=.,.,.>.>.>.,.>.>.,.>.>.>.>.,.,.<.,.,.,.>.>.>.=.>.>.>.>.>.>.>.>.&.>.>.>.=.>.>.=.>.,.>.>.>.,.>.,.>.>.>.>.,.,.>.>.>.>.>.=.>.>.>.>.>.,.>.>.>.<.>.>.>.>.,.>.>.>.>.>.,.,.>.",
"e t t t P t t t r r t t t t e e t t t t t t t t e r t t r r t t r t t t t t r r t t t t t t t t t t t t t t t t t r t t t t r t t t t t t t e t e t t t t e t e r r t t r t r r I t I t I t P I I I I U E E E Q Q ( /  .O.R N 8 > f k f k v S F @.&.>.,.,.,.,.>.&.=.=.=.&.&.&.&.=.&.&.&.&.>.=.&.*.>.&.&.&.&.&.&.&.&.>.>.>.>.>.>.&.*.>.&.=.=.&.>.&.>.>.,.>.,.>.>.<.<.<.<.<.<.<.<.<.<.<.<.<.<.<.,.<.,.<.<.<.<.<.<.,.<.,.<.<.<.,.<.>.,.,.,.,.,.,.,.,.,.>.>.,.>.,.>.>.,.>.>.>.>.,.,.>.,.>.>.,.,.,.,.<.,.>.>.>.>.>.>.>.>.=.>.>.=.&.>.,.>.>.>.>.>.>.>.>.>.,.>.>.,.>.,.>.>.>.>.>.,.>.>.,.,.,.>.,.>.,.,.>.>.>.>.>.>.>.>.,.>.>.>.>.,.,.>.>.,.",
"t t P t P t P t t r t t t t t y t t t t t t t M y r t t r r t t t t t t t t t r t t t t t t t e t t t t t t t t t t t t t t t t t t t t t t P t t t t t t P P t t r t t t t t t t I t t I I P I I U U U E E Q / | [ ( / P 0 , f k i k z z F L $.=.>.,.<.<.<.<.<.<.<.,.,.,.,.>.,.&.>.*.&.&.&.&.&.&.>.>.&.&.&.&.&.*.&.&.&.&.&.>.*.>.&.&.>.>.>.>.>.>.>.&.>.>.,.<.<.<.<.<.<.<.<.<.<.<.<.<.<.<.<.<.<.<.<.<.<.<.,.<.,.<.<.<.<.<.<.<.<.<.<.<.<.<.<.<.<.<.<.<.<.<.<.<.<.<.<.<.<.<.<.<.<.<.<.<.,.,.,.<.<.<.,.,.>.,.<.<.,.,.,.,.,.>.>.>.,.>.>.>.>.>.>.>.,.=.>.>.>.>.=.>.>.=.>.>.>.=.>.>.>.>.>.>.,.>.>.>.,.,.,.,.>.>.>.<.>.>.>.>.>.,.>.,.>.>.>.",
"P P P P P P P I y y J t y r I r P P P P P P P P P P P P P P I P y I I r P P P P P P e P P P P J t t t t t t t J t t P P t t t t t t t t t t t t t t t P P t t t t t t t r J t P t I I r I U T E T T Q E E E E ^ o.o._ n 8 , , f f g v S F @.&.&.<.,.<.<.<.<.<.<.<.<.<.<.<.<.<.<.<.,.,.,.>.=.=.=.&.&.&.=.=.&.&.&.>.&.>.>.&.>.>.&.*.>.>.>.&.>.>.>.>.=.=.,.,.<.<.<.<.<.<.<.<.<.<.<.<.<.<.<.<.<.<.<.<.<.<.<.<.<.<.<.<.<.<.<.<.<.<.<.<.<.<.<.<.<.<.<.<.<.<.<.<.<.<.<.<.<.<.<.<.<.<.<.<.<.<.<.<.<.<.<.<.<.<.<.<.<.<.<.<.<.<.<.<.,.<.,.,.,.>.>.>.>.>.>.>.>.>.=.>.=.>.&.>.>.>.>.>.,.>.,.>.>.>.>.>.>.>.>.>.>.>.,.>.>.>.>.>.>.>.>.>.>.>.>.,.>.",
"I I I I P I I I I r I I I I U U I I I I I P I I P P I P I P I I t y I U I I P P P P P P P P P P I t U t U t t P t t t I t t U t t P P t t P t t P P t r t t t r t t t t P I t y I r I U I y I P U U E Q / } / E ' J 9 1 2 h h d z z S H L %.=.=.,.,.<.<.<.<.<.<.<.<.<.<.<.<.<.<.<.<.<.<.<.<.<.<.,.,.>.=.&.&.&.=.&.&.&.&.&.&.&.&.=.>.>.=.&.>.>.>.=.=.,.,.<.<.<.<.<.<.<.<.<.<.<.<.<.<.<.<.<.<.<.<.<.<.<.<.<.<.<.<.<.<.<.<.<.<.<.<.<.<.<.<.<.<.<.<.<.<.<.<.<.<.<.<.<.<.<.<.<.<.<.<.<.<.<.<.<.<.<.<.<.<.<.<.<.<.<.<.<.<.<.<.<.<.<.,.<.<.<.<.,.<.,.,.,.,.,.,.,.,.>.,.,.>.>.,.>.,.,.>.>.>.>.,.,.>.>.>.>.>.>.>.,.,.>.>.>.>.>.>.>.>.>.>.>.>.",
"I I I I I I U U I I I I I I I I I I I U I I I I I P I I I I I U J I I I I I I I I I I I I I I I I I t U U I P P t t U t U t I t M t P P P t t P t t P P P P P r y t t t r r r r U r I I U U U y W W E Q / } ] ' x 1 2 2 f v h k Z F L $.&.=.,.,.<.<.<.<.<.<.<.<.<.<.<.<.<.<.<.<.<.<.<.<.<.<.<.<.<.<.>.=.>.*.=.>.>.>.>.>.>.,.>.>.*.>.>.&.>.*.>.>.>.>.,.<.<.<.<.<.<.<.<.<.<.<.<.<.<.<.<.<.<.<.<.<.<.<.<.<.<.<.<.<.<.<.<.<.<.<.<.<.<.<.<.<.<.<.<.<.<.<.<.<.<.<.<.<.<.<.<.<.<.<.<.<.<.<.<.<.<.<.<.<.<.<.<.<.<.<.<.<.<.<.<.<.<.<.<.<.<.<.<.<.<.<.<.<.<.<.<.<.<.,.<.<.,.,.,.>.>.>.,.>.>.>.>.,.,.>.,.>.,.>.>.>.>.>.,.>.>.>.>.>.>.>.,.>.,.>.",
"U U U U U I U E U U U U U T U U U U U E I U U U I I U U I I U E y I I U I U I U I I I I U I I I t I I I I U I I U U U I U I I I P P P P P P t I P P P P P t I t J t r y U r U I U I I I y ^ y U y U { { R m 0 5 2 2 s x h h v S F @.&.=.,.,.<.<.<.<.<.<.<.<.<.<.<.<.<.<.<.<.<.<.,.<.<.<.,.<.<.,.<.<.<.<.,.,.>.>.&.>.&.&.&.&.&.>.&.>.>.>.*.>.=.>.>.,.<.<.<.<.<.<.<.<.<.<.<.<.<.<.<.<.<.<.<.<.<.<.<.<.<.<.<.<.<.<.<.<.<.<.<.<.<.<.<.<.<.<.<.<.<.<.<.<.<.<.<.<.<.<.<.<.<.<.<.<.<.<.<.<.<.<.<.<.<.<.<.<.<.<.<.<.<.<.<.<.<.<.<.<.<.<.<.<.<.<.<.<.<.<.<.<.<.<.<.<.<.<.<.,.<.<.,.,.,.>.>.>.>.>.>.>.,.>.,.,.,.,.>.,.>.>.,.>.,.>.,.,.,.,.,.,.",
"E E E E U E E E E E E E W U E U E E U E E E E E U U U U E E E E I I U U U U U U I U U U U U U U U I U I I I I I I I I I I I I I I I I I I I I I t I I t t I t t y I J t y I r U U I I I y y I U E { R K j 0 2 8 f f f g z S H L $.=.>.>.,.,.<.<.<.<.<.<.<.<.<.<.<.<.<.<.<.<.<.<.<.<.<.<.<.<.<.<.<.<.<.<.<.<.,.<.,.>.=.=.&.&.&.=.&.>.>.>.>.=.=.>.,.<.<.<.<.<.<.<.<.<.<.<.<.<.<.<.<.<.<.<.<.<.<.<.<.<.<.<.<.<.<.<.<.<.<.<.<.<.<.<.<.<.<.<.<.<.<.<.<.<.<.<.<.<.<.<.<.<.<.<.<.<.<.<.<.<.<.<.<.<.<.<.<.<.<.<.<.<.<.<.<.<.<.<.<.<.<.<.<.<.<.<.<.<.<.<.<.<.<.<.<.<.<.<.<.,.<.<.<.<.<.<.<.,.>.>.>.>.,.,.>.>.>.,.>.>.>.>.>.,.>.>.>.>.>.>.>.>.",
"E / E E / E E / E E E E Q E E Q E E E E E E E E E U E E E E E E U U U Q Q E E E U U U E U U U U U U U U U U E I I I U U U I I I I I I I I I I U U I U U I U U I I I I I I I Q r I U U E E E Q Q ' K c 5 3 f f k l g z Z G H #.&.=.>.,.<.<.<.,.<.<.<.<.<.<.<.<.<.<.<.<.<.<.<.<.<.<.<.<.<.<.<.<.<.<.<.<.<.<.<.<.<.<.<.<.,.>.>.=.>.=.&.>.>.>.>.>.=.<.<.<.<.<.<.<.<.<.<.<.<.<.<.<.<.<.<.<.<.<.<.<.<.<.<.<.<.<.<.<.<.<.<.<.<.<.<.<.<.<.<.<.<.<.<.<.<.<.<.<.<.<.<.<.<.<.<.<.<.<.<.<.<.<.<.<.<.<.<.<.<.<.<.<.<.<.<.<.<.<.<.<.<.<.<.<.<.<.<.<.<.<.<.<.<.<.<.<.<.<.<.<.<.<.<.<.<.<.<.<.<.<.<.<.>.>.>.>.=.>.=.>.>.,.>.>.,.>.>.>.>.>.>.>.>.>.>.",
"} } } } } } / / / / / / / [ Q [ { / / / / } / / / ' { / / E / / Q Q Q Q Q Q Q E U E E E E E E E U E E E E E E U I U E U U E U U E I E U U E E U E U U U U U U I I U U U I U U Q U E Q / ] _ J J f 3 3 i i f d d g v F @.@.&.*.>.>.<.,.<.<.<.<.<.<.<.<.<.<.<.<.<.<.<.<.<.<.<.<.<.,.<.,.<.<.<.<.<.<.<.,.<.<.<.<.<.<.<.,.,.,.>.>.&.>.>.&.>.>.=.>.<.<.<.<.<.<.<.<.<.<.<.<.<.<.<.<.<.<.<.<.<.<.<.<.<.<.<.<.<.<.<.<.<.<.<.<.<.<.<.<.<.<.<.<.<.<.<.<.<.<.<.<.<.<.<.<.<.<.<.<.<.<.<.<.<.<.<.<.<.<.<.<.<.<.<.<.<.<.<.<.<.<.<.<.<.<.<.<.<.<.<.<.<.<.<.<.<.<.<.<.<.<.<.<.<.<.<.<.<.<.<.<.<.<.<.<.<.,.>.>.>.>.>.>.>.>.>.>.>.>.>.>.>.>.>.>.=.,.,.",
"} O.} } } } O.O.} } | } } } } } } } } } } } } } / / / / } / / | Q } Q } Q Q Q Q E E E ' E E E Q E E E E E E E E E E E E E E E U U E E E E E E E U U E U U U U I U U U U U U T W U W Q E I n 9 1 f f f k k k C Z D L L @.&.>.,.,.,.,.<.<.<.<.<.<.<.<.<.<.<.<.<.<.<.<.<.<.<.<.<.<.<.<.<.<.<.<.<.<.<.<.<.<.<.<.<.<.<.<.<.<.<.<.<.,.>.>.&.>.&.>.>.<.<.<.<.<.<.<.<.<.<.<.<.<.<.<.<.<.<.<.<.<.<.<.<.<.<.<.<.<.<.<.<.<.<.<.<.<.<.<.<.<.<.<.<.<.<.<.<.<.<.<.<.<.<.<.<.<.<.<.<.<.<.<.<.<.<.<.<.<.<.<.<.<.<.<.<.<.<.<.<.<.<.<.<.<.<.<.<.<.<.<.<.<.<.<.<.<.<.<.<.<.<.<.<.<.<.<.<.<.<.<.<.<.<.<.<.<.<.<.,.>.>.>.,.>.>.>.>.>.>.>.>.>.>.>.>.>.>.>.",
"+.+...+.....+...+...+.....+...+...........................................( ( / } } } [ } Q Q Q / / / ' Q Q Q Q Q Q Q Q Q / E E E Q E E E U U Q Q [ [ T U U y ! W W U W Q Q U I ` R m 4 O % , f 8 l h h z Z F H @.$.&.>.,.,.,.<.<.<.<.<.<.<.<.<.<.<.<.<.<.<.<.<.<.<.<.<.<.<.<.<.<.<.<.<.<.<.<.<.<.<.<.<.<.<.<.<.<.<.<.<.<.<.<.<.<.<.,.,.>.,.<.<.<.<.<.<.<.<.<.<.<.<.<.<.<.<.<.<.<.<.<.<.<.<.<.<.<.<.<.<.<.<.<.<.<.<.<.<.<.<.<.<.<.<.<.<.<.<.<.<.<.<.<.<.<.<.<.<.<.<.<.<.<.<.<.<.<.<.<.<.<.<.<.<.<.<.<.<.<.<.<.<.<.<.<.<.<.<.<.<.<.<.<.<.<.<.<.<.<.<.<.<.<.<.<.<.<.<.<.<.<.<.<.<.<.<.<.<.<.<.<.<.<.,.>.>.>.,.>.,.>.>.>.>.>.>.=.>.=.=.",
"+.+.+.+.+.+.+.+.+.+.+.+.+.+.+.+.......+.........+...........................| | | } ..} } } } Q / [ [ } Q Q Q Q Q Q Q Q ( [ [ Q [ [ | } / / [ Q Q Q Q E ( E Q ~ ( Q Q E U ' _ I 3 @ @ o X = 2 f g g z Z F F H @.&.=.>.,.,.,.,.<.<.<.<.<.<.<.<.<.<.<.<.<.<.<.<.<.<.<.<.<.<.<.<.<.<.<.<.<.<.<.<.<.<.<.<.<.<.<.<.<.<.<.<.<.<.<.<.<.<.<.<.,.,.<.<.<.<.<.<.<.<.<.<.<.<.<.<.<.<.<.<.<.<.<.<.<.<.<.<.<.<.<.<.<.<.<.<.<.<.<.<.<.<.<.<.<.<.<.<.<.<.<.<.<.<.<.<.<.<.<.<.<.<.<.<.<.<.<.<.<.<.<.<.<.<.<.<.<.<.<.<.<.<.<.<.<.<.<.<.<.<.<.<.<.<.<.<.<.<.<.<.<.<.<.<.<.<.<.<.<.<.<.<.<.<.<.<.<.<.<.<.<.<.<.<.<.<.<.,.>.>.>.>.>.>.>.>.>.>.>.>.>.>.>.",
"+.+.+.+.+.+.+.+.+.+.+.+.+.+.+.+.+.+.+.+.+.+.+.+.+.+.+.+.+.+.+.+...+.+.+.+.............O...| o.o.} } | } } } } Q | | } } } } } } o.o.} [ / [ Q | ) ( ( Q Q Q Q ' Q ' { ' J x ; o = X X = = - f z v S G H @.$.&.>.>.>.,.,.<.<.,.<.<.<.<.<.<.<.<.<.<.<.<.<.<.<.<.<.<.<.<.<.<.<.<.<.<.<.<.<.<.<.<.<.<.<.<.<.<.<.<.<.<.<.<.<.<.<.<.<.<.<.<.<.<.<.<.<.<.<.<.<.<.<.<.<.<.<.<.<.<.<.<.<.<.<.<.<.<.<.<.<.<.<.<.<.<.<.<.<.<.<.<.<.<.<.<.<.<.<.<.<.<.<.<.<.<.<.<.<.<.<.<.<.<.<.<.<.<.<.<.<.<.<.<.<.<.<.<.<.<.<.<.<.<.<.<.<.<.<.<.<.<.<.<.<.<.<.<.<.<.<.<.<.<.<.<.<.<.<.<.<.<.<.<.<.<.<.<.<.<.<.<.<.<.<.<.<.<.<.<.<.,.>.>.>.>.>.>.>.=.>.>.=.>.=.",
"+.;.;.;.;.;.+.;.;.;.;.+.+.;.;.;.+.+.+.;.;.+.+.+.;.+.+.;.+.+.+.;.+.+.+.+.+.+.+.+.+.+.+.+.......o.| } ....| | } } [ } ......} } ( ( ( ( ........| ) ^ ( ( o.o.o.o.E M 7 # X O & X = = > > - , v G H H @.%.&.=.,.,.<.<.<.<.<.<.<.<.<.<.<.<.<.<.<.<.<.<.<.<.<.<.<.<.<.<.<.<.<.<.<.<.<.<.<.<.<.<.<.<.<.<.<.<.<.<.<.<.<.<.<.<.<.<.<.<.<.<.<.<.<.<.<.<.<.<.<.<.<.<.<.<.<.<.<.<.<.<.<.<.<.<.<.<.<.<.<.<.<.<.<.<.<.<.<.<.<.<.<.<.<.<.<.<.<.<.<.<.<.<.<.<.<.<.<.<.<.<.<.<.<.<.<.<.<.<.<.<.<.<.<.<.<.<.<.<.<.<.<.<.<.<.<.<.<.<.<.<.<.<.<.<.<.<.<.<.<.<.<.<.<.<.<.<.<.<.<.<.<.<.<.<.<.<.<.<.<.<.<.<.<.<.<.<.<.<.<.<.,.>.>.>.>.>.>.>.>.>.>.>.>.>.",
";.;.;.;.;.;.+.;.;.+.;.;.+.;.;.;.;.;.;.;.;.;.;.+.;.;.+.+.;.+.+.;.+.+.+.;.;.+.+.+.+.+.+.+.+...+.......o...o.....} } o.o.| ..o.o.} ) ) ) ) ( / ( / ( ( ..+.] _ x 4 # @ X X X = : * : u > > , h H %.$.$.=.>.,.>.<.<.<.<.<.<.<.<.<.<.<.<.<.<.<.<.<.<.<.<.<.<.<.<.<.<.<.<.<.<.<.<.<.<.<.<.<.<.<.<.<.<.<.<.<.<.<.<.<.<.<.<.<.<.<.<.<.<.<.<.<.<.<.<.<.<.<.<.<.<.<.<.<.<.<.<.<.<.<.<.<.<.<.<.<.<.<.<.<.<.<.<.<.<.<.<.<.<.<.<.<.<.<.<.<.<.<.<.<.<.<.<.<.<.<.<.<.<.<.<.<.<.<.<.<.<.<.<.<.<.<.<.<.<.<.<.<.<.<.<.<.<.<.<.<.<.<.<.<.<.<.<.<.<.<.<.<.<.<.<.<.<.<.<.<.<.<.<.<.<.<.<.<.<.<.<.<.<.<.<.<.<.<.<.<.<.<.<.<.<.<.<.,.=.>.>.>.>.>.>.,.>.,.>.",
";.;.;.;.;.;.;.;.;.;.;.;.;.;.;.;.+.;.+.;.+.;.;.;.;.;.;.;.;.;.;.;.+.;.+.+.+.+.+.+.;.+.;.+.+.+.+.o.o...+...o...o.| ..o...| ..............) ......} X._ n 5 # O O O O O X = * , d i f i d d d G %.%.=.>.>.>.,.<.,.<.<.<.<.<.<.<.<.<.<.<.<.<.<.<.<.<.<.<.<.<.<.<.<.<.<.<.<.<.<.<.<.<.<.<.<.<.<.<.<.<.<.<.<.<.<.<.<.<.<.<.<.<.<.<.<.<.<.<.<.,.<.<.<.<.<.<.<.<.<.<.<.<.<.<.<.<.<.<.<.<.<.<.<.<.<.<.<.<.<.<.<.<.<.<.<.<.<.<.<.<.<.<.<.<.<.<.<.<.<.<.<.<.<.<.<.<.<.<.<.<.<.<.<.<.<.<.<.<.<.<.<.<.<.<.<.<.<.<.<.<.<.<.<.<.<.<.<.<.<.<.<.<.<.<.<.<.<.<.<.<.<.<.<.<.<.<.<.<.<.<.<.<.<.<.<.<.<.<.<.<.<.<.<.<.<.<.,.<.<.<.<.,.>.>.=.>.>.>.>.,.>.,.",
";.;.;.;.;.;.;.;.;.;.;.;.;.;.;.;.;.;.;.;.;.;.;.;.;.;.;.;.;.;.;.;.+.;.;.;.;.+.+.;.+.+.+.+.+.+.+.....o...o.......| ..o...+.......o...O.O.O.{ Y q 5 + O O O   $ = : % > , i a f d h h h C S L %.=.=.,.<.,.,.<.,.<.<.<.<.<.<.<.<.<.<.<.<.<.<.<.<.<.<.<.<.<.<.<.<.<.<.<.<.<.<.<.<.<.<.<.<.<.<.<.<.<.<.<.<.<.<.<.<.<.<.<.<.<.<.<.<.<.<.<.<.<.<.<.<.<.<.<.<.<.<.<.<.<.<.<.<.<.<.<.<.<.<.<.<.<.<.<.<.<.<.<.<.<.<.<.<.<.<.<.<.<.<.<.<.<.<.<.<.<.<.<.<.<.<.<.<.<.<.<.<.<.<.<.<.<.<.<.<.<.<.<.<.<.<.<.<.<.<.<.<.<.<.<.<.<.<.<.<.<.<.<.<.<.<.<.<.<.<.<.<.<.<.<.<.<.<.<.<.<.<.<.<.<.<.<.<.<.<.<.<.<.<.<.<.<.<.<.<.<.<.<.<.<.,.>.>.>.>.>.>.>.>.>.>.",
";.;.;.:.;.:.;.;.:.;.:.;.:.;.;.;.;.;.;.;.;.;.;.;.;.;.;.;.;.;.;.;.;.+.;.+.;.+.;.+.;.+.;.+.;...+.O...+...+.o...| | } ..+...o.} Q Q j 0 1 ; = + = =   $ = $ $ * * * p p s f f h v v v S L =.=.>.<.,.,.<.<.<.<.<.<.<.<.<.<.<.<.<.<.<.<.<.<.<.<.<.<.<.<.<.<.<.<.<.<.<.<.<.<.<.<.<.<.<.<.<.<.<.<.<.<.<.<.<.<.<.<.<.<.<.<.<.<.<.<.<.<.<.<.<.<.<.<.<.<.<.<.<.<.<.<.<.<.<.<.<.<.<.<.<.<.<.<.<.<.<.<.<.<.<.<.<.<.<.<.<.<.<.<.<.<.<.<.<.<.<.<.<.<.<.<.<.<.<.<.<.<.<.<.<.<.<.<.<.<.<.<.<.<.<.<.<.<.<.<.<.<.<.<.<.<.<.<.<.<.<.<.<.<.<.<.<.<.<.<.<.<.<.<.<.<.<.<.<.<.<.<.<.<.<.<.<.<.<.<.<.<.<.<.<.<.<.<.<.<.<.,.<.<.<.<.,.<.<.>.,.>.>.>.>.>.>.>.>.",
":.:.:.:.:.:.;.:.:.:.:.:.:.:.:.:.:.:.:.:.;.:.:.:.:.:.:.:.:.:.:.:.;.:.:.-.-.:.:.-.;.;.+.+.O.O.+.+.-.-.:.X.X._ Y Y S S v f = X = - - * = X = = X - = = = = > i 2 f l z z S S G G G H &.,.,.,.,.,.<.<.<.<.<.<.<.<.<.<.<.<.<.<.<.<.<.<.<.<.<.<.<.<.<.<.<.<.<.<.<.<.<.<.<.<.<.<.<.<.<.<.<.<.<.<.<.<.<.<.<.<.<.<.<.<.<.<.<.<.<.<.<.<.<.<.<.<.<.<.<.<.<.<.<.<.<.<.<.<.<.<.<.<.<.<.<.<.<.<.<.<.<.<.<.<.<.<.<.<.<.<.<.<.<.<.<.<.<.<.<.<.<.<.<.<.<.<.<.<.<.<.<.<.<.<.<.<.<.<.<.<.<.<.<.<.<.<.<.<.<.<.<.<.<.<.<.<.<.<.<.<.<.<.<.<.<.<.<.<.<.<.<.<.<.<.<.<.<.<.<.<.<.<.<.<.<.<.<.<.<.<.<.<.<.<.<.<.<.<.<.<.<.<.<.<.<.<.<.<.<.<.>.&.>.,.>.>.>.>.>.",
"; ; ; ; ; < ; ; ; ; ; 4 ; 1 4 4 4 4 ; 4 ; < ; ; + ; ; ; # < # # 4 ; 1 ; ; 1 1 ; ; ; ; ; ; ; ; ; + + + + - ; ; 9 8 9 8 - = O = = X - - = , , = - > , i f z z S S G F F H H H H @.&.,.<.<.,.<.<.<.<.<.<.<.<.<.<.<.<.<.<.<.<.<.<.<.<.<.<.<.<.<.<.<.<.<.<.<.<.<.<.<.<.<.<.<.<.<.<.<.<.<.<.<.<.<.<.<.<.<.<.<.<.<.<.<.<.<.<.<.<.<.<.<.<.<.<.<.<.<.<.<.<.<.<.<.<.<.<.<.<.<.<.<.<.<.<.<.<.<.<.<.<.<.<.<.<.<.<.<.<.<.<.<.<.<.<.<.<.<.<.<.<.<.<.<.<.<.<.<.<.<.<.<.<.<.<.<.<.<.<.<.<.<.<.<.<.<.<.<.<.<.<.<.<.<.<.<.<.<.<.<.<.<.<.<.<.<.<.<.<.<.<.<.<.<.<.<.<.<.<.<.<.<.<.<.<.<.<.<.<.<.<.<.<.<.<.<.<.<.<.<.<.<.<.<.<.<.<.<.<.,.=.>.,.>.>.>.>.>.",
"2 f 2 2 2 2 2 2 , 2 2 2 1 a 2 f 2 2 a 2 2 , 2 2 2 2 2 2 a 2 f 2 a a a a a a , , > , , > u , , u > > % > f f f z 8 h 8 h h d 3 , - , , i f f i f h h z S F @.H @.H H @.@.@.@.&.&.,.<.<.<.<.<.<.<.<.<.<.<.<.<.<.<.<.<.<.<.<.<.<.<.<.<.<.<.<.<.<.<.<.<.<.<.<.<.<.<.<.<.<.<.<.<.<.<.<.<.<.<.<.<.<.<.<.<.<.<.<.<.<.<.<.<.<.<.<.<.<.<.<.<.<.<.<.<.<.<.<.<.<.<.<.<.<.<.<.<.<.<.<.<.<.<.<.<.<.<.<.<.<.<.<.<.<.<.<.<.<.<.<.<.<.<.<.<.<.<.<.<.<.<.<.<.<.<.<.<.<.<.<.<.<.<.<.<.<.<.<.<.<.<.<.<.<.<.<.<.<.<.<.<.<.<.<.<.<.<.<.<.<.<.<.<.<.<.<.<.<.<.<.<.<.<.<.<.<.<.<.<.<.<.<.<.<.<.<.<.<.<.<.<.<.<.<.<.<.<.<.<.<.<.<.<.<.<.<.,.>.>.>.,.>.>.>.>.",
"l l l l l l l l l l l l a s l l l l l l l l l l l l l l z l l l s s k k s k s k f a a f 2 i , 2 p u u k A V k z N N N S N v f d a f f 8 h h z S S S S H @.@.@.@.#.&.&.&.&.*.>.,.<.<.<.<.<.<.<.<.<.<.<.<.<.<.<.<.<.<.<.<.<.<.<.<.<.<.<.<.<.<.<.<.<.<.<.<.<.<.<.<.<.<.<.<.<.<.<.<.<.<.<.<.<.<.<.<.<.<.<.<.<.<.<.<.<.<.<.<.<.<.<.<.<.<.<.<.<.<.<.<.<.<.<.<.<.<.<.<.<.<.<.<.<.<.<.<.<.<.<.<.<.<.<.<.<.<.<.<.<.<.<.<.<.<.<.<.<.<.<.<.<.<.<.<.<.<.<.<.<.<.<.<.<.<.<.<.<.<.<.<.<.<.<.<.<.<.<.<.<.<.<.<.<.<.<.<.<.<.<.<.<.<.<.<.<.<.<.<.<.<.<.<.<.<.<.<.<.<.<.<.<.<.<.<.<.<.<.<.<.<.<.<.<.<.<.<.<.<.<.<.<.<.<.<.<.<.<.<.<.,.,.>.=.>.,.>.>.>."
};
