/* XPM */
static char *squid_03_02_01_ctrl[] = {
/* columns rows colors chars-per-pixel */
"117 57 256 2",
"   c #030100",
".  c #080808",
"X  c #120401",
"o  c #140B02",
"O  c #190A04",
"+  c #1C1300",
"@  c #16130A",
"#  c #191816",
"$  c #0B0F11",
"%  c #1C2123",
"&  c #210C00",
"*  c #270B03",
"=  c #251301",
"-  c #2A1400",
";  c #2D1A01",
":  c #261908",
">  c #271916",
",  c #321300",
"<  c #331B02",
"1  c #3C1B00",
"2  c #351D0A",
"3  c #301812",
"4  c #2A2108",
"5  c #282118",
"6  c #382407",
"7  c #322313",
"8  c #392617",
"9  c #3C371C",
"0  c #2C2526",
"q  c #322722",
"w  c #393129",
"e  c #303434",
"r  c #201D1F",
"t  c #3E3D47",
"y  c #36463C",
"u  c #3F4247",
"i  c #431B00",
"p  c #482805",
"a  c #462B16",
"s  c #483207",
"d  c #493316",
"f  c #542A03",
"g  c #573409",
"h  c #573815",
"j  c #4A3429",
"k  c #673705",
"l  c #643C16",
"z  c #6D3301",
"x  c #5B4518",
"c  c #594522",
"v  c #6B440A",
"b  c #694518",
"n  c #78470A",
"m  c #734B1C",
"M  c #7B4B13",
"N  c #764915",
"B  c #795218",
"V  c #785209",
"C  c #654624",
"Z  c #784D21",
"A  c #775426",
"S  c #6D512C",
"D  c #464745",
"F  c #55524E",
"G  c #6F7172",
"H  c #5F6467",
"J  c #7A7D84",
"K  c #778487",
"L  c #8A4E0A",
"P  c #854B09",
"I  c #834D13",
"U  c #8B4E13",
"Y  c #8B510A",
"T  c #845113",
"R  c #8B5314",
"E  c #8C541A",
"W  c #8C5A1C",
"Q  c #875618",
"!  c #93540B",
"~  c #9B5B0D",
"^  c #965909",
"/  c #925513",
"(  c #945A13",
")  c #925A1B",
"_  c #9B5C14",
"`  c #9B5D1B",
"'  c #955618",
"]  c #875924",
"[  c #945C22",
"{  c #885A35",
"}  c #9C6115",
"|  c #9D631B",
" . c #95621C",
".. c #906413",
"X. c #8A6329",
"o. c #9B6122",
"O. c #996527",
"+. c #996833",
"@. c #926B2F",
"#. c #A35D0B",
"$. c #A15809",
"%. c #A15C12",
"&. c #A25A1A",
"*. c #B25F1B",
"=. c #A55B24",
"-. c #A7640B",
";. c #A36314",
":. c #A3641A",
">. c #A56A1B",
",. c #AA6514",
"<. c #A9651B",
"1. c #AC6914",
"2. c #AC6A1B",
"3. c #A46A14",
"4. c #B36B15",
"5. c #B26D1B",
"6. c #B96C14",
"7. c #B96D1B",
"8. c #B1651A",
"9. c #B57114",
"0. c #B5711C",
"q. c #BA7215",
"w. c #BB721C",
"e. c #BD791B",
"r. c #B67B1D",
"t. c #B06F11",
"y. c #A36422",
"u. c #A46A23",
"i. c #AC6B22",
"p. c #AB6D29",
"a. c #A66826",
"s. c #AB7122",
"d. c #AC732A",
"f. c #A67226",
"g. c #A97131",
"h. c #B36C21",
"j. c #BB6D21",
"k. c #B56E29",
"l. c #B47222",
"z. c #BB7322",
"x. c #BB742B",
"c. c #BD7922",
"v. c #BC7929",
"b. c #B4732A",
"n. c #B67834",
"m. c #A86833",
"M. c #9D6947",
"N. c #C16D13",
"B. c #C7740B",
"V. c #C37314",
"C. c #C2751C",
"Z. c #C4791C",
"A. c #CA751A",
"S. c #CB7B1D",
"D. c #C87814",
"F. c #D27D1C",
"G. c #D27916",
"H. c #C56B06",
"J. c #C27621",
"K. c #C47922",
"L. c #C37C2A",
"P. c #CB7C21",
"I. c #CA7C29",
"U. c #C67625",
"Y. c #D17D22",
"T. c #D57B29",
"R. c #C4782B",
"E. c #B78034",
"W. c #898077",
"Q. c #CD801D",
"!. c #D3811D",
"~. c #DB841D",
"^. c #DD881D",
"/. c #DB8715",
"(. c #D28813",
"). c #CD8123",
"_. c #C88129",
"`. c #C68233",
"'. c #D48222",
"]. c #D3852A",
"[. c #DB8522",
"{. c #DC8922",
"}. c #DC8A2A",
"|. c #D78729",
" X c #D88D2B",
".X c #E38A1D",
"XX c #EB8C1C",
"oX c #E4851B",
"OX c #EA911E",
"+X c #F6971E",
"@X c #F28E1E",
"#X c #E28622",
"$X c #E38A23",
"%X c #E38B29",
"&X c #EA8D23",
"*X c #EA8B27",
"=X c #E49324",
"-X c #E49A24",
";X c #EC9223",
":X c #EB9329",
">X c #ED9A25",
",X c #ED9B29",
"<X c #E49529",
"1X c #F38C24",
"2X c #F29424",
"3X c #F29428",
"4X c #F39A24",
"5X c #F39B29",
"6X c #FB9525",
"7X c #FA9A24",
"8X c #FB9B2A",
"9X c #F39830",
"0X c #ECA329",
"qX c #E6A329",
"wX c #F3A224",
"eX c #F3A32A",
"rX c #FBA225",
"tX c #FBA22A",
"yX c #FAAA24",
"uX c #FBAA2B",
"iX c #F4AA28",
"pX c #FAA630",
"aX c #FBB32B",
"sX c #FABA2B",
"dX c #F6B529",
"fX c #FBB730",
"gX c #EFA230",
"hX c #FBC32C",
"jX c #F7C82D",
"kX c #FDC931",
"lX c #F7D22E",
"zX c #F8D834",
"xX c #F7E83A",
"cX c #F3F139",
"vX c #FEEC43",
"bX c #FDF441",
"nX c #8D908E",
"mX c #AFB0B0",
"MX c #9D9FA5",
"NX c #BBBDC3",
"BX c #CCC5BD",
"VX c #C8C9C8",
"CX c #DADADA",
"ZX c #CFD5CF",
"AX c #DBE2DB",
"SX c #DCE3E6",
"DX c #E4E5DC",
"FX c #E4E4E4",
"GX c #EAEAEA",
"HX c #E7E9E7",
"JX c #F5F4F4",
"KX c #F8F6F6",
"LX c #FBFAFB",
"PX c #F6F9F8",
"IX c #F1EFEF",
"UX c #D7DBE0",
/* pixels */
"FXFXCXFXHXFXFXFXFXFXCXDXnX# # 0 * N d.2.z.,.6.A.A.I.l.v.w.N.j./ q > X p m.R.G.D.Y.[.[.#X&X&X6X6X8X7X2X;X.X#X}.F.).Z.q.6.5.2.<.p._ L Y / ) E M B n n m a = 6 n z.4.7.J.P.F.F.[.[.{.!.Q.S.P.S.S.S.e.-.( [ M k ] +.& w VXPXIXJXLXJXJXLXLXPXLX",
"HXFXFXFXFXCXCXCXUXFXDXMX# # 3 3 b +.v.z.w.1.7.Y.A.K.0._.C.7.p.z 5 + = m x.T.S.B.F.Y.}.#X&X2X6X6X8X4X;X&X^.[.[.F.Z.q.6.0.5.<.<.<.f.' L U E ] M B V n m 6 - 6 I l.6.w.P.P.P.[.[.~.!.!.'.P.P.P.Q.S.9.,._ Q M M E ] d > nXFXPXIXPXPXLXLXLXLXLX",
"HXHXHXFXFXGXGXFXCXDXZXt   8 < g O.k.C.Z.w.4.z.].K.P.Z.S.J.k.] 1 # X s g.I.S.G.D.F.F.}.&X*X2X6X7X7X>X2XXX^.{.[.S.Z.w.9.5.5.i.8.i.d.} ' R R I T ] T B b 4 : s o.w.4.w.P.).'.[.[.~.~.[.'.'.P.P.S.A.0.<._ P I W I ( S = D VXLXJXGXIXLXJXJXJXJX",
"FXHXFXCXFXGXUXZXIXCXG $ 0 6 f O.p.4.V.A.e.w.K.Y.K.P.P.N.5.O.g 4 $ ; B v.S.G.Q.Q.F.[.#X&X2X2X2X7X7X;X&X&X!.[.[.A.Z.w.0.0.5.2.2.i.>.:.` _ R I T X.( ] b = 6 g u.0.6.C.P.).'.'.[.#X{.~.'.].T.P.S.D.w.<.` P ) O.Y _ +.s 7 J IXPXPXPXLXPXJXJXJX",
"FXHXGXFXIXGXSXFXDXMX$ r 7 p ( r.8.N.G.F.C.z.P.A.I.Y.S.C.y.l ; > = C f.V.D.G.Y.].F.#X*X*X;X>X+X4X3X&X=X&X{.[.'.A.w.0.5.2.5.<.;.;.>.` ` =.[ R M M ( X.c & d k >.q.w.J.P.].Y.'.[.#X^.~.[.P.'.S.D.D.w.2.| _ u.:.Y ;.g.] 2 F UXLXKXLXLXJXJXLXKX",
"FXGXFXFXFXCXFXGXnX% X 3 i M r.9.6.N.F.S.9.L.P.G.I.T.q.v.W 6 3 X p +._.B.G.Y.Y.F.[.#X*X;X;X4X+X+X3XOX.X=X{.).F.C.0.5.0.0.5.;.^ ^ _ :.i.a.o.P n v ! X.d = h k 4.q.w.J.K.P.'.[.[.%X$X^.'.'.Y.F.S.S.Z.0.2.i.u.} ^ 1.5.+.d y mXLXKXIXJXJXJXPXKX",
"GXGXFXFXFXGXGXNXD   q , k 0.e.Z.6.A.F.Z.4.L.Y.G.T.T.7.| v ; 5 > M x.G.B.S.I.P.F.[.#X&X>X>X7X4XrX>X.X^.{.].).Z.C.7.5.5.0.5.;._ ~ L ;.u.p.` I M n P Q a 4 h z z.9.C.J.K.).'.[.[.[.{.{.[.T.].F.Q.S.).q.r.>._ _ ,.1.6.a.S w M.FXLXLXLXLXLXLXLX",
"GXGXFXFXUXHXNXj $ # > h a.E.Z._.J.P.].Z.9._.F.G.T.T.L.n 4 4 + j y.J.B.G.P.J.].G.oX#X*X;X4X4XrXrX&X^.^.{.[.Q.Z.q.z.5.5.l.2.2.>.1.L ~ %.y.| E Q M P N 8 j C I v.q.w.J.P.'.'.'.[.$X.X$X[.|.[.[.F.!.Q.r.r.l._ :.h.;.C.g.S w F VXLXJXJXKXLXJXJX",
"FXJXDXAXDXHXK . $ > i [ I.c.c.Z.B.].L.c.P.'.#XT.t.r.+.p > : , ] K.C.C.P.P.Y.F.F.F.%X:XOX2XuXpXtX.X;X{.[.'.P.C.N.z.5.0.l.2.,.2.2._ ) ( T P  .) [ P g 4 d d P q.z.J.J.P.'.'.[.[.[..X$X$X[.[.!.).Q.K.K.c.4.,.5.l.2.i.J.,.V w K PXPXKXJXKXJXJX",
"PXIXGXGXDXVXe $ @ = N a.v.z.Z.P.B.]._.z.P.}.T.T.q.s.N = > & l n.C.Z.Z.Z.S.'.F.F.~.&X;XXX2XuXpX>X~.$X{.[.P.P.w.7.0.1.5.0.2.2.2.2.u.u.| ..V Q U E ( l 6 c h ) r.Z.C.J.I.T.[.~.$X.X$X$X$X[.!.[.!.F.).K.w.6.;.2.2.;.:.#.-.o.; D SXLXIXLXJXJXJX",
"GXGXAXGXDXF . . : p g.z.K.K.I.].V.|.L.6.F.#XG.A.E.| p > > 2 [ U.J.Z.Z.P.S.Y.P.F.[.$X&XXX4XuX5X.X^.$X[.F.F.S.6.6.5.5.2.2.2.2.>.2.| | f.| P W P U Q g - c g ) q.C.J.J.P.'.F.{.^.$X{.&X&X{.[.).{.F.K.Z.K.0.5.z.z.2.a._ 5.b.s 4 MXPXKXLXJXKXKX",
"GXFXHXSXmX# . > < [ R.J.].J.T.Y.A.|.I.6.F.F.V.J.n.v 2 w O C x.H.I.C.C.P.Y.S.F.[.{.$X.XOX5X8X>X/..X~.[.F.P.C.7.6.0.5.5.2.2.5.2.;.~ ! | ) T | I R W p & c f | q.w.C.Z.P.).[.[.{.=X$X%X&X%X[.{.[.!.).).Z.w.0.w.l.,.a.,.,.z.W : y UXLXJXLXKXKX",
"GXIXIXGXD   : 4 f n.w.V.P.P.P.F.A.].K.q.[.F.C.v.] i 8 3 < +.I.H.I.w.w.'.'.A.F.}.%X~..X;XtXtX;X/.{.[.[.'.S.C.7.4.0.0.0.2.2.2.2.;.| ^ } R T o.R o.] d - C f | 6.w.J.J.S.).[.{.^..X&X;X*X&X{.[.[.).Z.S.Z.Z.w.z.w.,.p.>.,.4.d.f O H GXIXKXKXPX",
"FXIXSXmX$ X 8 6 | v.N.F.C.].F.T.'.].z.V.'.P.x.g.f < a & m n.J.G.K.S.K.P.S.P.Y.'.$X^.$X5XpX5X=X^.%X[.'.P.C.w.7.7.0.0.5.2.h.5.:.;.3.>.| W T ) L | ] 6 ; b f y.9.e.C.Z.P.).[..X$X.X&X:X:X$X{.{.{.[.).S.P.Z.C.K.J.z.d.| s.q.w.) : . mXLXKXKXJX",
"GXSXVXt o 7 p m n.J.S.'.P.].[.F.|.].9.q.Z.J.g.M < d a g m.5.6.J.Z.I.P.S.S.'.[.[.^.~.OX8XpX3X&X^.%X[.F.S.C.7.w.7.5.5.5.2.l.2.,.2.,.0.o.W ) ) P ( b 1 4 b k i.q.w.C.Z.P.'.[.{.$X$X&X*X:X.X%X[.[.[.'.Q.Z.w.6.0.w.5.>.( | 4.6.k.C   H IXKXJXJX",
"CXJXJ $ O p f [ k.7.F.S.|.P.}.B.Q._.9.e.L.x.a.i 6 c < +.i.6.J.z.K.K.S.P.P.F.P.}.^.~.&X8X8X*X%X%X%XF.F.P.w.7.j.l.5.2.2.5.l.2.2.2.1.s./ U [ | Y | v 6 6 x l i.q.7.C.J.P.[.[.^.$XOX&X;X:X*X$X}.#X~.'.F.S.S.e.C.J.J.2.i._ ,.6.i.S @ # ZXPXKXPX",
"IXmX0 $ 3 i M l.C.C.Y.F.F.[.{.S.].L.h.T.C.v.g + j - z n.2.j.v.j.C.U.J.S.F.F.~.{..X.X3XpX5X.X~.^.|.).Z.w.w.0.6.4.0.5.5.0.0.,.;.2.>.f.( ' o.`  .| h < p Z v s.9.C.J.P.P.'.[.$X&X&X2X&X;X&X.X$X#X[.[.P.P.A.C.J.J.z.z.h.| ;.-.v.o.f . H IXLXGX",
"BXF   > j f | E.U.J.T.[.[.{.}.'.}.e.7.I._.! 1 w 7 1 O.h.j.h.J.K.C.Z.S.P.S.F.~.~.$X&X6X8X7XXX$X^.{.Q.Z.V.0.7.q.0.0.2.2.5.h.1.,.5.i.i.! E ` E } u.g 4 d A n s.q.A.P.P.P.F.~.%X*X3XXX2X&X&X$X#X}.[.[.'.P.S.Z.J.J.C.U.l.:.;.-.z.n.] X 0 mXIXIX",
"M.  $ a s Q c.e.P.P.[.Y.[.[.[.Q.[.q.J.J.l.g < j ; v n.5.w.5.w.Z.C.A.S.S.F.~.~.$X.X;X5X8X2X.X$X$X[.Q.C.C.q.7.0.9.0.2.2.2.5.1.2.0.i.>.L / [ / ( O.s 2 h N n >.q.U.P.P.P.[.[.#X*X3X6X;X&X&X*X.X{.$X[.'.S.S.C.U.J.J.C.w.5.4.-.,.p.O.d   H FXLX",
"e . w a g E.Q.H.P.[.T.~.~.[.].Q.F.H.w.E.T 1 j 0 s +.i.w.5.0.C.w.A.J.S.F.F.[.~.$X.X>X8X7XXX&X$X[.!.A.A.w.7.0.0.4.h.0.5.0.5.2.5.l.2.>.L ( o.R ) o.p 2 h V n s.9.C.J.P.].[.%X*X&X2X6X2X2X&X&X$X%X{.[.'.F.S.S.Z.J.C.V.7.7.7.,.$._ u.B = > NXLX",
"$ @ 6 p T _.V.D.[.|.#X#X=X{.'. X~.t.b.E.g , 7 : V g.-.q.0.z.K.V.A.J.F.F.F.[..X$XOX5XtX2XXX.X#X[.Q.S.C.7.7.0.0.0.l.5.0.l.0.5.2.5.h.2.! ( ' U [ I ; 6 b V I i.t.e.Z.P.T.#X%X.X*X1X+X+X2X2X&X&X&X$X}.~.F.F.S.P.S.Z.q.V.A.C.7._ &.s.u.Z O K VX",
"  q 1 k b.w.S./.[.%X}.#X^.{.Q.'.D.q.E.] - 7 & 2 f.| 0.t.K.z.J.A.A.P.F.[.[..X&X=X3XtX7XXXoX#X[.[.S.Z.A.7.7.w.0.0.0.5.l.z.5.2.5.2.k.i.~ ` R U +.N - a B V U i.q.J.P.P.].[.#X*X2X2X6X2X2X2X2X*X&X$X{.[.[.P.P.S.S.J._.A.A.Z.z.;.^ 2.l.O.; e G ",
"@ 8 g o.L.V.[.!.[.%X.X~.^.!.Q.'.6.w.n.g : 5 ; v d.-.w.7.c.z.J.A.P.F.'.[.[..X=X;X4XuX7XXXXXoX#XY.S.A.C.7.7.w.5.0.l.5.l.l.2.5.5.2.k.i._ >.R R O.k 2 a B n U k.0.C.S.T.Y.#X$X*X2X6X+X6X7X6X3X;X&X$X$X~.[.~.'.P.P.S.L.S.F.J.v.y.Y ~ ,.>.g # u ",
"q = C n.J.S.].].#X*X$X$X=X{.'.|.6.5.Q 1 0 @ 6 Q >.6.-.P.5.z.U.Y.F.F.Y.[.{.$X;X;X8XtX7XXXXXoXF.Y.S.D.7.7.j.z.w.5.l.5.0.0.2.2.5.5.k.<.;.f.( P +.k 7 d b z E k.q.e.'.P.[.#X*X;X1X2X6X7X7X7X6X>X;X&X$X$X~.[.'.P.P.S.z.C.A.j.x.p.( 2.:.0.B $ 0 ",
"q p 8.A.Z.).Q./.oX1X}.%X$X~.$XC.7.a.s # r * b 3.2.5.0.9.q.Z.Q.P.F.F.[.oX#XXX&XeXuXtX2XXX&X#XoXF.J.J.C.7.w.w.7.0.z.h.7.2.5.h.l.5.R.' ` s.^ Y { f a a h k E l.9.D.S.Y.$X[..X;X;X4X>X4XrX4X5X2X1XXX{.{.{.!.[.Q.Q.S.S.w.K.e.6.1.2.l.} O.O.< $ ",
"2 m U.B.)._.Q..X@X&X}.%X$XoXF.K.8.I 6 + O p Q } i.h.w.q.q.D.S.P.F.[..X$X&XXX>X8XtX4X2X&X*XoXF.G.J.C.w.w.7.0.0.7.l.5.2.5.2.5.l.2.x.' :.s.^ ( ] i 7 a a k ' 0.q.V.F.Y.T.#X$X;X2X4XwXrXtXtX8X5X2XXX$X{.^.{.[.).'.Q.'.S.P.C.0.5.2.z.( ) [ 1 $ ",
"p g.I.B.[.'.#XoXOX.X{.^.$X~.S.I.U g 7 O = b  .3.h.5.0.e.e.D.S.T.!.^.&X;X;X>X4XtXwX+X@X&X*X&XG.F.C.C.w.w.w.w.7.5.5.5.5.5.2.5.0.2.p.~ | s.^ ( B 1 7 a p N o.5.q.D.S.Y.#X[..X;X3X4XwXrXuXtXtX8X3X2X=X$X{.{.{.[.[.'.).Q.S.Z.e.w.9.E./ R a.g $ ",
"W b.A.G.[.Y.*X1XOX^.{.{..X~.P.v.l a 5 * s W | >.7.7.0.e.Z.C.F.[.oXXX;X@X+X+XwXyXrX7X;X1X&XY.Y.A.w.w.w.w.C.0.7.4.5.4.8.2.1.1.5.2.2.L } u.^ W m ; 7 8 p I y.5.e.Z.A.Y.[.[.$XOX;X>XwXeXeX5X5X8X>X&X;X=X$X^.^.{.[.[.!.D.Z.Q.Z.9.6.L./ I =.Z . ",
"b.e.B.!.!.~.&X1X;X^.{.=X~.~. Xa.p 3 > 3 N _ -.h.7.7.w.c.Z.Z.F.[..X&X2X2X+XrXyXyXrX7X2X;X#X[.P.S.C.C.7.J.w.w.w.5.7.2.<.,.2.1.5.5.<.L } :.! W b ; 7 8 p E u.4.C.Z.S.F.[.[..X&X>X>X>XwXiXeX4X3X;XOX&X$X$X{.$X{.[.~.~.D.S.S.Z.q.4.w.) P <.]   ",
"C.Z.S.Q.[.$XG.1X&X=X{.*X!.'.`.P a 2 & a [ -.;.l.6.7.w.c.C.S.F.{.XX2X6X7X+XrXyXyXrXrX6XXX#X[.P.K.w.w.w.w.z.w.0.5.h.4.5.,.2.2.2.2.2.L y.} Y W x = 5 6 f [ h.5.e.q.S.S.'.{.$X=X3X4XwXeXeXtXeX5X>XOX&X&X&X&X&X$X$X~.{.!.Q.S.P.r.4.0.y.' <.[ + ",
"N.T.P.).|.=XXX@X3X1X#X%XF.).f.g d ; 4 m o.;.,.d.6.w.J.J.J.P.[.$XXX2X8X6X6XuXaXyXrX7X2XXX#XP.K.J.w.C.w.J.C.z.z.7.7.5.5.5.0.2.1.5.| L y.>.! W h + > 2 f o.h.0.q.e.A.P.].^.$X=X>X4XiXiXiXeXeX3X>X=X;XOX&X;X=X$X$X[.|.).).Z.I.w.-.1.n.>.4.y.4 ",
"A.Y.P. X X=X5X1X9XT.%X[.F.L.Q p j + s @.y.;.<.d.6.w.J.J.K.'.}.&X*X6X8X6X7XuXaXiX7X+X2X&X#X'.P.J.J.J.w.w.z.z.w.w.5.h.2.0.l.5.2.5._ L a.<.^ X.x + 5 2 g O.2.9.q.r.A.'.[.{..X>X5X4XeXiXiXeX>X>X;XOXOX;X;X;X:X:X$X#X{.|.'.S.L.e.#.*.n.2.-.<.6 ",
"S.G.~.XXXX;X2X;X,X(.^..XT.j.f x r * E _  .f.u.z.w.J.I.A.A./.&XOX4X7X7X+XyXdXdX5XtX6X2X&X~.'.P.A.C.C.7.C.w.w.w.5.6.4.4.7.7.5.2.5.` R a.:.~ ) x + 5 + g >.1.j.J.Z.Q.).[.&X=X>X>X,XqXgXdXgXeX4X;XOX&X2X2X;X&X&X&X.X&XG.!.Z.Z.z.:.i.u.} | <.p ",
"Q.F..X&X2X3X6X;X=X^.^.F.Y.! f s # d | ;.} u.s.z.C.P.P.A.A.~.OX@X7X7X+XrXdXdXaXiXtX8X3X&X[.'.S.C.C.w.w.C.w.w.w.7.1.5.6.5.7.5.2.5.` / p.;.^ W x + 5 + g >.1.7.R.Z.Q.F.[.$X&X;X>X,XgXiXgXgX5X,X;XOX;X*X;X;X2X*X&X&X&X!.!.Q.P.v.2.&.} :.2.2.p ",
"G.(.$X>X2X7X3X3X$X$X[.'.U.z l 8 O A } ~ ^ | l.0.C.Z.P.A.F.^.&X2X4XrXrXyXdXfXdXeXtX6X1X.X[.'.S.C.C.C.C.w.e.7.w.0.0.4.4.7.7.5.5.2.` ' p.;.~ ) h : 5 = v f.1.z.J.Z.).F.[.$X.X;X>X>X0XiXgX0X,X>X>XOX2X2X;X3X2X;X*X;X%X[.!.Q.).b.;.! ) :.d.a.6 ",
"Q.{.%X3X8X8X8X2X&X$X}.I.y.k C : < X._ ;.3.>.l.q.w.S.Y.F.F..X>X;XtXrXyXyXdXsXdXrX8X5X;X$X[.F.S.w.C.C.C.C.C.w.7.5.9.5.5.7.7.0.2.0.' ` p.:.~ W h + 5 = b >.4.w.L.Q.F.'.[.{..X&X>XeX0XiXpXeX>X3X>X;X;X;X2X2X3X:X2X*X%X%X[.Q.Z.0.;.L E ` a.f.6 ",
").{.<X3X3X5X3X;XoX#XT.x.n l j & b @._ 1.2.l.l.c.Z.S.S.F.~.*X>X7XrXyXyXsXjXjXdXwXtX6X;X^.[.F.Z.w.7.Z.Z.J.J.C.0.6.5.0.7.7.7.5.l.2.~ ` p.,._ [ h : > O m 3.9.w.L.Q.F.Y.}.$X=X;X>XeX0XiXgXeX>X>X4X2X>X;X;X2X2X1X*X;X&X%X[.S.Z.w.>._ E U E ` 4 ",
"Q.{.&X*X3X3X1X&XoX#XP.[ g c 6 , u.| ~ ;.2.h.w.J.A.S.F.F.}.;X6X7XyXyXsXhXjXjXdXwX8X2X&X$X[.P.Z.J.C.C.K.J.J.z.7.6.w.w.z.7.j.0.0.0./ :.h.<.;.E h > > & A 3.6.z.K.D.'.'.#X$X=X;X>XeX0XiXeX5X>X2X;X;X2X1X;X;X:X:X:X*X%X{.F.S.w.5.2.:.[ U M [ 6 ",
"P.}.$X&X2X1X&X&X[.[.j.I l h - j d.} ~ ` h.h.0.c.S.S.F.[.$X3X7X7XaXaXsXkXlXlXsXyX8X>X$X^.F.Z.Z.J.C.J.Z.J.J.J.0.6.0.c.z.7.w.0.i.2.~ &.i.<.:.E h 7 > & ] >.9.7.U.S.).'.[.$X;X;X>XeX0XeXeX>X;X+X2X;X2X2XXX;X3X3X:X&X%X{.!.S.C.2.<.%.+.E P [ 4 ",
"Q.{.%X&X2X2X&XXX!.T.<.z S s * S 2.&.&.&.x.j.J.L.D.S.F.F.&X5X8XtXsXsXhXkXzXlXsXyX8X2X.X^.[.P.K.Z.J.Z.U.C.w.w.w.0.e.c.J.z.w.z.0.2._ :.2.<.:.E h 8 > * X.>.q.j.U.S.S.'.}.$X=X>X>X,X,XeXwX4X;X;X;X2X3X2X;X;X3X3X3X;X$X^.G.!.).0.<.%.O.` R ` 6 ",
"].%X#X#X*X&X!.!.!.V.Y k A 2 , X.y.} } 2.h.w.z.K.S.S.'..X1X6X8XuXfXhXzXxXzXlXsXyX7X2X&X[.F.S.S.A.J.Z.K.K.w.w.z.0.z.z.C.7.z.z.l.i.~ <.2.,.3.T g 4 # - ] 2.5.w.K.P.F.!.{..X$X=X-X-X0XiX0X,X2X2X2X1X;X;X;X+X>X;X&X&X<X[.].T.V.5.i.[ W R I E 3 ",
"}.'.}.%X{.$X^.!.[.-.I m b , h @.} ) } 2.l.w.z.P.'.F.[.&X6X6XtXaXfXkXzXxXzXjXaXyX7X2X$X[.'.S.S.Z.P.J.K.J.7.w.w.w.z.C.C.C.C.j.l.i.%.2.>.3.3.R h 6 5 < O.5.5.w.K.P.'.].[.{.$X>XwX,X0X0XeX>X@X2X2X2X;X;X+X;X;X>X;X;X{.[.P.Y.w.9.i.[ n n N [ * ",
"}.Y.#X&X~.{.}.Q.P.~ M S 6 , { a.( _ :.i.l.w.C.K.Y.'.{.*X1X6XtXuXfXkXzXxXzXjXdXwX6X2X$X'.P.S.S.Z.J.P.K.C.6.w.J.w.w.w.C.w.w.z.l.i._ 2.>.,.;.Q h 7 # 6 X.2.4.0.K.P.F.'.}.$X&X,XeX-X0X0X,X>X;X2X;X;X:X;X;X>X3X;X=X&X%X{.Y.T.C.0.i.[ v z I [ O ",
"Y.|.%X[.~.{.].Q.8.o.m c ; 6 m.<.( _ :.5.z.z.C.P.'.'.{.;X6X6XuXaXkXzXxXxXzXjXiXwX6X2X$X[.S.P.A.A.K.P.P.w.0.C.K.w.w.z.w.w.w.z.l.s.&.2.s.;.~ R h 4 5 = W 2.5.6.J.U.S.'.[.#X;X,X,X0X0X>X3X;XXX2X;XOX5X,X5X3X4X:X=X%X{.Y.P.J.q.1.} ) N f ] Q o ",
"'.}.$X^.!. X_.5.$.[ b 8 + g k.*.} | 2.0.w.w.Z.P.F.~.^.;X6X7XuXfXkXzXxXcXzXsXdXwX3X2X#XF.Y.S.A.S.Z.P.K.w.0.Z.J.c.w.z.C.C.7.z.l.i._ i.i.| 3.R h : # O M ,.0.7.w.P.P.'.#X#X&X,X0X,X0X>X>XOXOX;XOX;X>X,X5X4X>X,X:X%X{.P.K.J.5.1.` E l k X.k . ",
"].F.^.^.!.}.`.#.<.E b 6 ; m 0.%.| 2.i.l.w.w.C.S.F.F.{.>X7XrXuXsXzXzXcXcXzXsXyX5X3X*X^.Y.S.P.S.S.P.P.Z.q.w.Z.Z.c.w.J.w.7.C.j.l.2.&.i.h.,._ R h : # o M <.0.5.w.P.S.'.T.#X$X:X,X-X,X,X4X;X@X;X-X.X%X:X,X;X,X5X:X$X!.S.P.L.w.2.| E M n { f . ",
"'.F.!./.!.].L.%.c.M m < 8 X.t.~ ,.>.5.0.0.e.Z.A.F./.$X5X7XrXuXhXzXvXvXxXzXjX0XwX2XXX[.F.A.S.P.P.P.P.w.V.Z.Z.C.e.z.J.w.w.w.w.i.i._ i.i.| ;.R h : # & T <.5.7.J.J.P.[.|.%X<X:X,X-X-X4X>XOX>X>X;XOX.X=X>X=X;X:X$X~.D.e.J.J.0.3. .Q T M A , # ",
"S.[.^.^.{.P.i.a.e.n m = j f.-.%.;.:.5.5.e.Z.Z.S.!.{.<X8X6XrXaXsXkXzXbXxXlXdXwX4X1X&X~.F.P.P.P.T.P.S.q.q.K.K.w.w.z.J.C.w.7.0.i.2.%.i.s.;.;.W h 3 @ - ] i.5.w.U.Z.P.|.}.%X:X:X,X,X-XwX>X;X@X3X;XOX$X:X>X-XOX=X^.F.D.w.J.J.0.>.) M n n S O % ",
"Y.F.!.{.].`.$.P.=...d < V M.y.$.<.2.l.w.J.Z.P.P.F.~.OX7XeXpXaXhXzXvXvXvXlXsXrX+X;X{.[.Q.P.P.S.P.P.e.q.e.Z.e.K.J.K.Z.q.q.7.0.h.i._ 2.>.,.:.) l 2 @ + A 5.,.5.w.Z.S.F.[.[.%X,X,X,X,X-XqXqX-X<X-X,X9X:X:X%X%X%X'.S.J.7.w.9.>.u.n P k S c X 8 ",
"Y.~.Q.Q._.4.7.K.` Q 2 6 W m.| ^ 2.5.5.z.w.C.S.P.F..XOX2X8XiXsXhXzXvXvXxXkXaXrX6X:X{.F.'.'.P.P.F.).e.e.Z.Z.Z.K.Z.K.z.w.w.w.0.5.i.#.s.>.>.,.E l 2 $ + ] h.4.l.l.A.F.P.[.[.$X<X,X=X=X-XOXOX-X<X<X<X%X%X#X}.[.[.P.A.z.w.5.5.2.} n E k S 4   W.",
").'.!.Q.z.$.L.4.` v - h f.` ;.~ i.5.7.z.J.Z.A.S.~..X+X7X5XuXsXhXzXbXvXzXlXdXrX6X;X[.F.).P.P.P.F.Q.e.D.Z.K.Z.K.C.C.C.w.e.w.z.i.8.;.2.i.>.:.R b < . O A j.4.l.z.S.S.'.[.[.$X=X=X=X=X=XOX-X=X^.<X=X#X[.Y.F.P.P.A.N.z.b.h.k.&.:._ ! N C   e AX",
"Q.|.].).4.#._.$.W p * m f.} ` | h.5.7.w.C.w.S.Q.[..X2X+X5XiXsXkXxXbXxXzXjXiXrX6X;X[.!.S.P.P.P.F.Q.Z.Z.S.Z.K.Z.J.C.z.e.w.w.z.2.i.%.i.| 5.;.U b 6 . o A h.6.0.b.P.F.'.[.{.&X:X-X-X-X-X-X-X-X-X X{.[.P.Y.S.A.Z.0.7.0.z.k.p.` &._ L ] j . nXKX",
"Q.]._.I.#.w.z.! A , i ] s.~ } y.2.5.7.z.Z.C.S.'.T.&X+X4XwXiXsXzXxXbXxXzXjXyXrX6X&X[.F.S.I.P.S.'.P.Z.Z.Z.Z.K.P.C.C.C.w.q.w.l.0.i.&.>.:.2.,.R m 6 o o Z h.7.2.z.Z.S.'.}.$X%X:X<X-X-XqX-X-X<X-X X{.T.P.J.Z.C.w.7.4.t.9.,.i.` ( ^ >.S X t CXHX",
"Q._.U.7.-._.2._ S * g O.| -.` u.5.4.4.J.Z.Z.S.[.#XXX4XrXtXiXsXkXcXcXxXzXjXiX7X2X.X[.F.'.).P.P.'.P.Z.P.Z.C.Z.P.J.J.C.e.0.0.0.2.i.&.i.:.5.,.( m d $ o Z i.7.i.z.C.S.'.T.$X&X=X=X=X-X-X-X-X<X<X}.).K.J.C.w.7.5.4.5.1.,.>.u.P ) O.X.w . MXHXSX",
"Z._.J.$.1.c._ :.9 : v >.&.#.:.u.5.8.7.C.P.A.S.].*X;X7X7XiXdXfXlXcXbXxXlXhXwX6X@X$X/.F.).).Y.P.F.Q.S.P.Z.A.Z.J.A.J.J.w.q.w.0.h.i.&.h.>.<.;.( m h . o b 8.7.i.x.V.F.P.$X$X&X<X-XqX-XqX-X-X=X<X|.S.w.w.7.5.5.2.2.<.h.y.a.E k ] A p   c AXIXJX",
"Q.L.x.~ L.9.Y ` : > V 1.&._ y.s.2.4.7.J.K.A.S.[.*X*X+XrXtXfXjXlXcXcXxXlXdXwX2X1X$X~.!.F.).'.P.P.P.S.S.Z.C.A.P.C.J.C.e.w.w.j.5.i.>.k.<.,.,.^ N h @ o b 2.6.h.x.A.S.F.[.%X<X<X,XqXqXqXqX-X<X%X[.A.7.7.5.5.i.5.h.2.a.m.' z m M.a X u NXJXSXGX",
"P.L.2.l.L.;.` Q + s E } _ :.i.2.5.5.w.J.K.S.S.F.~.&X7X8XpXaXhXlXcXcXxXlXiXtX7X&X%XF.F.~.F.F.'.F.P.S.S.S.K.A.J.J.J.J.w.e.q.0.l.,.<.2.>.3.:.' N x + O h >.h.l.0.J.S.F.[.%X$X=X,XqXqXqX-X-X.X{.P.q.5.2.1.2.2.#.2.2.8.[ k g { l X > MXGXIXFXIX"
};
