/* XPM */
static char *freeimage[] = {
/* width height num_colors chars_per_pixel */
"100 35 136 2",
/* colors */
"   c #e8e8e8",
" . c #ececec",
" X c #ededed",
" o c #eeeeee",
" O c #f2f2f2",
" + c #efefef",
" @ c #e7e7e7",
" # c #eaeaea",
" $ c #ebebeb",
" % c #f1f1f1",
" & c #f0f0f0",
" * c #e5e5e5",
" = c #e6e6e6",
" - c #f3f3f3",
" ; c #f4f4f4",
" : c #e9e9e9",
" > c #f5f5f5",
" , c #e4e4e4",
" < c #f0efed",
" 1 c #e7e7e5",
" 2 c #f1f3f2",
" 3 c #e3e7e8",
" 4 c #edf3f3",
" 5 c #e9f2f1",
" 6 c #e8f0f2",
" 7 c #ebece6",
" 8 c #f1f2ed",
" 9 c #f0eef1",
" 0 c #e7e4eb",
" q c #e9e3ed",
" w c #f2ecf6",
" e c #f4eff5",
" r c #efe8ef",
" t c #e6e4e7",
" y c #f4eff3",
" u c #f2ebf2",
" i c #f8f3f9",
" p c #eae8ed",
" a c #eff3f6",
" s c #c2cece",
" d c #d5cbd3",
" f c #c8bec6",
" g c #a29ca0",
" h c #797576",
" j c #555553",
" k c #545653",
" l c #515650",
" z c #616861",
" x c #7a7d76",
" c c #bfc1bc",
" v c #cecfca",
" b c #efefed",
" n c #e6e4e5",
" m c #f7f5f8",
" M c #f0eef3",
" N c #e7e2e8",
" B c #efe0e5",
" V c #fdf1f5",
" C c #f8ecf0",
" Z c #eee4e5",
" A c #efe6e7",
" S c #faf4f4",
" D c #ebe7e4",
" F c #ece8e5",
" G c #ecefe6",
" H c #eaede6",
" J c #ebedec",
" K c #f0eff4",
" L c #f1f0f6",
" P c #efedf2",
" I c #efedf0",
" U c #f1eff0",
" Y c #f0eff7",
" T c #eeebf2",
" R c #eeeced",
" E c #e9e9e1",
" W c #e5e8d7",
" Q c #96a085",
" ! c #596a48",
" ~ c #1b3009",
" ^ c #001200",
" / c #002500",
" ( c #0b340c",
" ) c #0d3a0f",
" _ c #053406",
" ` c #073908",
" ' c #002f00",
" ] c #023804",
" [ c #0c250f",
" { c #001000",
" } c #000c00",
" | c #74867a",
".  c #ccd9d2",
".. c #e1eae9",
".X c #dee3e7",
".o c #ebf0f6",
".O c #f1fbfa",
".+ c #dde9e7",
".@ c #8f9b97",
".# c #334339",
".$ c #05170b",
".% c #0f2413",
".& c #1f3622",
".* c #435b45",
".= c #2e6c1f",
".- c #1d5b10",
".; c #0c4703",
".: c #013c00",
".> c #003100",
"., c #002b00",
".< c #003000",
".1 c #023900",
".2 c #003500",
".3 c #094104",
".4 c #013800",
".5 c #2c661c",
".6 c #3d7b26",
".7 c #589d40",
".8 c #63ae49",
".9 c #6fbe53",
".0 c #8ad171",
".q c #97de7e",
".w c #9fe986",
".e c #a2ef89",
".r c #8fe079",
".t c #76c95f",
".y c #42982b",
".u c #2b8315",
".i c #1d8200",
".p c #27850d",
".a c #3a8822",
".s c #346f1f",
".d c #2f541e",
".f c #000900",
".g c #565a4c",
".h c #c1bcb8",
/* pixels */
"   .   X o . O + . o o . X + X @ . o X # $ + + . % O O % + o o + X & + #   . + o . + + X o + . * X $ =   o $   o o o o o + & & % & & % % % + X . o o o o + + & % O $ # + o     o X   $ % & & % & % + o o",
" o % X % % o - & o + + + % ; - % # o + . # . o o . o + + o o + % . X o . . o + + + . $ $ . o + % & O o $ + o $ . X o + + + + o X X $ # : # . + %   # X + & o $ : o . X % % X X & % # $ + o o % & . O % #",
" + % X + + . + . o . $ . X . $ . : o & X : # o & + + & o . $ $ . . $ . o & + + + - + o % + : : X o - % $ o & X # : $ X + & & + o @   # $ X o o o & & + + + + + + # X & % + o X o - . $ X $ X & + . % & :",
" + + o o X . . $ O o o % & . $ X $ X o X $ $ o + & % % + . # : # + $ $ + % + o & $ $ X & + . . +   . . $ . o . # . . o + + + o X . X + & & + X . + o . # # $ . X # o & X # $ #   O . . X $ X & o % X . o",
" % & % & & % & & @ * @ . . :   $ o . # $ o o o X . o + o X X o + O X $ + & o X + . o X   @ . & % #   # X . # # $ O O % + o . $ $ - % + X X X + & $ . o o o . # : $ & & $ : $ . : o $ . o . + % . O X . +",
" + X & o o % o & + + % - O & & % & $   $ + & o . X o + o X X o + & o X o o X X o X % & # : X X # % $ X O X : # . + o o X X o + + X X X X X o o + & & + + + + + + o & + . X % % o $ # X + X & % # o & + .",
" X # o $ $ o # X + % & X # $ . . + $ : . o X X o X o o X . $ $ . $ X + X X o o X @ # X & O - % o O o % % . $ o X : # $ . X o o +   # X + & + X . + X #     $ o & + + o o & O % o . $ o o . + +   X o X #",
" % X O o X % $ + X & + :   X % O X $ $ o X $ . & @ : $ $ $ . o + = . & o X + + . - o . & O + + % X X % o   o - o X X o X . : = * + o X . . X + & X o o + & & & & % o X + % & .   o X + o $ o o @ +   @ X",
" + $ X $ X % X + + + + + + & % % & & + + o X X X > o # X % & o o o # # o & X . X o $ o % + o o   & & + + + + & & o $ + O X o % . . + % o # : X % $ . o + & & & + & + o o o + & % & & + X . X & O = & X &",
" & $ X $ . + $ X O % % & + o X . + + + o o o o X o + & % X # . O + . . + + . $ . & . . X . o & X & + + o o + + & o X o & o o + o o o o o o o o + . . . X X o + + o o o + + + + + o + + + o o o + + + $ X",
" & $ o # $ o : $ $ . X + & & & & o o o o o + + + + X X + + X . X + o o + o $ # . + $ . X . + % o + + o o o o + + o & o X + o X + + . $ X % O & . . . $ $ $ X o + X X + + + + X X X X o + & + X . & $ o %",
" + . + $ $ o # X X o + & + o . $ X X X o + + & & o X . o + o . # X o & + X $ $ X . # X % + & + # o o X X X X o o o O o $ + o . & X $ # X & O + . X . . . . X o + X o o o o o X . X X X + & & X $ o : & +",
" + . & X X & X % X o + + + o . $ . . X o + + & &   o O & $ : $ o $ o + + X X X o o $ o % + + o   o o X X X X o o + O o $ + o $ & : # . X o o X X X X o + + + o o + + o X X X X X o X . X + + o . & . + =",
" o . % o X % o - # $ X o + & + + . X X o + + & & $ o & X . . X . $ o + o o + + o O X X o $ X + $ o o X X X X o o + % + X o o . o : $ o o . $ X + X o + & & + o X % & o X . X X o + o X X X o o o $ X o @",
" o X % X . + X % & & & + o . . $ X X o o + + + & % o # : o O +   X + + X o & + $ % . X o $ o & . + o o X X o o + & o & & X X o $ X o o o X . o + o o o o o o X X % & + + o X X X + + + o o o + & : X . o",
" + X % X $ X # + o X X o o + + & X o o o o + + + X & + . $ X + X + % & X o & o : . : X % + & & # + o o o o o o + % X & O X X + # % & o o o + + + o o . . $ . X X & & & & & o X . o + & & o o + & + +   o",
" + O O + o & + $ X + o . . o + X & + o X X o o + + O o @   & % . % $ : X & o X o o X . X X . : @ o . % - . X % o % + o o + + X $ + o o X X o + & . o + + X X + O X . $ . + & + o X + % % + o + & + # $ O",
" & % + $ # X + X + + . : : o % % o o o o o o + + # o + o + % + : % + o & & X : @ % + o X + + + + + o & & X X + o + o o o + + o X + + o o o o o o & X $ $ X + X . X X . X o + o o . o & + o X o o X # $ +",
" X o X # # . X . : . o X o & & X X X o o + + + + X X . . o & + o X + + o o o X # o . # : $ o & & & & X $ o o . o X o o o o o + + + + + + o o X X & X # # . X $ : X o o o X X X o . X o o X X X X % % % %",
" : $ X + + o . # @ . & % % % o : $ . o + & & + + & . # # . o & O o & o : : o & + X $ : : $ X o + + & :   + + . + X + + + X X o & + + & & + o . $ . o o X # : $ o o + & + . $ . X X X o o o o X X   . X .",
" $ . o & & + . $ o & + . . o o $ $ . o + & & + + . $ $ o & + o o O - & #   . X $ & + o + & & & + X o   @ + & X & & & & o . . X + + + & & + o . $ . o + o . . o % o & & + . $ $ X o + + + & + + o $ & - %",
" & o X o o X o & o & & X . o X # X X o o + + + + X X . . X + + o X o + o o + X # + o o + & + X $ X . : : o & o o % % + o . . X o + + + + o o X X & X $ X + % % + + + + o X . . . + + + + & & + o = # X .",
" O + X X X $ X & . + & o o + X : o o o o o o + + o & X : $ & & X # : # + O % + o . . . X o o $ : & . . X X o + $ % & o . X o o o + + o o o o o o % o . X + % & o + o o X o X X . + o o o & & o X X + & &",
" & X X & + $ # . & & X : : X & & & + o X X o o + @ o % + & - o * % $ : X & o X o + + + & % % + X O . o & . X o   % o . . X + & + + o o X X o + & o & & + . $ X + + o X X o o X . o X . X + + X . + o X X",
" & & & + + o o o + + + o X . o + X o + & & & & & $ X o + X X o + & + + + + + + & . . X o + & & % @ X o - - o & . & & + X o % o : X o + o X X X o + + + o X o & O X . $ . X o o o X + & + o o + & % X $ .",
" & + + + o o o X X o + + o X X X . . X X X X X . . X + o X X o + X . . $ $ . . X & & + + o X X X + O X o . : + o X & & o X + o $ X o + o X X X + . o + + + o + & % + o o & % % & X o + + o o + & & X . o",
" + + o o o o X X . X + + o . . . = @ : . o + & % X o + o X . X o o o X X X X o o % % & + o X . $ o & # $ # : % O . + & o X o o X X o + o X X o + # X & % & o X X + X . . X X X . . o + o o X o & + X X &",
" o o o o o X X X . o o o . . . X + + + + o X . . + + o X X . X X + + o o o o + + o o o o o + + + : X # X X $ % & X X X X + + o . X o + + o X o + # . + % & o X X o . $ # $ $ $ # . X o o X X o + + X X &",
" X X X o o o o o o o o . # $ X + + + + + o X . $ & + X X X X X X . $ $ $ $ $ $ . . . X o + & & & $ & X & o # X # & . : . % O o # X + + + o X o + $ X + + o X o o % + o X o + o X . X o o X X o + & X X +",
" X X o o o o + + & + o $ # $ o & @   # . o + + & & o . . X o o o X X X . . X X X o o o o o o o o . & . o X # + o % $   . % % X : o + & + o o o & X o + o X X o & & o X . X o o X . o + o o X o & + X . o",
" X o o o + + + & + + o X $ . o & o o o o X . $ # & o $ $ X o + + & & + + + + & & + + + o o o X X # o $ o o . - O + . . o + . $ $ o + & + o o + & X o + + o o + & X . # $ . X X . X o + + o o + & X $ . o",
" o o o + + & & & + + + o X . o + + & & & & + o o + X $ $ X + + + o X X . . X X o o o o o o o o o . & o % & $ + . X X + % X   : o o + & & o o + & X o & & + + + & & o X o + % % & X + & + o o + & $ # . &",
" , : o & + X o + o & % & & + & O X O O X $ o X   < 1 X 2 3 4 5 6 7 8 9 0 q w e r t y u i p a 6 s d f g h j k l z x c v b n m M N & + + + + X # @ X % X   . o o & + o X o + + o X + . # & .   X # > #   &",
" & o . X & % & o . X o o X X o + @ . X $ . O O X B V C Z A S D F G H J K L P I U Y T R E W Q ! ~ ^ / ( ) _ ` ' ] [ { } |. ...X.o & o . . X X X . . O & o % O + + + o X o + + o X % o . O o # & . # $ . .",
" & o . X & % & o $ . X X . . X o o % + $ $ + . *.O.+.@.#.$.%.&.*.=.-.;.:.>.,.<.1.2.3.4.5.6.7.8.9.0.q.w.e.r.t.y.u.i.p.a.s.d.f.g.h       $ o % % % @ X . : X o $ $ + o X o + + o X X #   o # = $     . X #"
};
