/* XPM */
static char *ctrlVisOff[] = {
/* columns rows colors chars-per-pixel */
"60 45 190 2",
"   c #232526",
".  c #3E3334",
"X  c #413536",
"o  c #443738",
"O  c #473839",
"+  c #4B3A3B",
"@  c #513D3E",
"#  c #543F40",
"$  c #564041",
"%  c #5C4344",
"&  c #614647",
"*  c #624748",
"=  c #654949",
"-  c #6B4C4D",
";  c #714F50",
":  c #745152",
">  c #7B5455",
",  c #7E5658",
"<  c #0B0AAC",
"1  c #0604C6",
"2  c #0503DC",
"3  c #0B09DA",
"4  c #100EDC",
"5  c #1312C3",
"6  c #1F1ECF",
"7  c #1310D4",
"8  c #1614DE",
"9  c #1A18D4",
"0  c #1B19DB",
"q  c #0907E9",
"w  c #0D0AE4",
"e  c #0D0AEC",
"r  c #0402F3",
"t  c #0703FB",
"y  c #0D0BF0",
"u  c #0B08FA",
"i  c #110FE2",
"p  c #1310E1",
"a  c #1110EA",
"s  c #1E1CE2",
"d  c #1B19EC",
"f  c #1311F1",
"g  c #1D1AF2",
"h  c #201DF0",
"j  c #2422D6",
"k  c #2623DF",
"l  c #2A29D5",
"z  c #2E2BDD",
"x  c #302EC8",
"c  c #3230CC",
"v  c #3E3DC5",
"b  c #3C3BC8",
"n  c #3735D2",
"m  c #3735DD",
"M  c #3937D0",
"N  c #3B3AD8",
"B  c #2522EA",
"V  c #2B25E5",
"C  c #2927EA",
"Z  c #2A29E4",
"A  c #2A29E8",
"S  c #2321F3",
"D  c #322FE1",
"F  c #3533E3",
"G  c #3633EB",
"H  c #3A38E4",
"J  c #3C3CE9",
"K  c #413FE0",
"L  c #403EEE",
"P  c #514FB4",
"I  c #504FBF",
"U  c #5655BB",
"Y  c #675EA9",
"T  c #6B6C9F",
"R  c #6060A9",
"E  c #6362B6",
"W  c #6765B9",
"Q  c #4746C2",
"!  c #4B4AC8",
"~  c #4947D9",
"^  c #4D4BD4",
"/  c #564ED0",
"(  c #514FDB",
")  c #5F5EC3",
"_  c #5E5DC8",
"`  c #5755D5",
"'  c #5B59D3",
"]  c #4240E4",
"[  c #4241E9",
"{  c #4E4CE2",
"}  c #5654EF",
"|  c #5856E5",
" . c #5B5AE0",
".. c #605FCD",
"X. c #6463C5",
"o. c #6463CE",
"O. c #6C6BC6",
"+. c #6A69CD",
"@. c #6463D3",
"#. c #6766DA",
"$. c #6E6DD5",
"%. c #6B6AD9",
"&. c #736BDB",
"*. c #7272C4",
"=. c #7372CB",
"-. c #7B7BC1",
";. c #7F7ECD",
":. c #7675DF",
">. c #7A79D2",
",. c #805758",
"<. c #83595A",
"1. c #8A5C5D",
"2. c #876265",
"3. c #886467",
"4. c #8B6568",
"5. c #956A6D",
"6. c #986B6E",
"7. c #996D70",
"8. c #807FBC",
"9. c #8586AB",
"0. c #8686BE",
"q. c #8F8EB3",
"w. c #9191A7",
"e. c #9696B1",
"r. c #9998BB",
"t. c #A4A3AA",
"y. c #ACACA3",
"u. c #A8A8AB",
"i. c #A5A5BE",
"p. c #ACABB3",
"a. c #ADADBD",
"s. c #B3B3BC",
"d. c #BEBEB3",
"f. c #BCBCBD",
"g. c #8E86CF",
"h. c #8E8EC0",
"j. c #8B8BCA",
"k. c #9393C2",
"l. c #9393CB",
"z. c #9991CA",
"x. c #9C9BC3",
"c. c #9C9CCA",
"v. c #9696D4",
"b. c #9A9BD2",
"n. c #A39FD1",
"m. c #B291CF",
"M. c #B696DA",
"N. c #A4A4C4",
"B. c #ADACC2",
"V. c #AAAAC9",
"C. c #B4B4C2",
"Z. c #B4B4C8",
"A. c #BEB7C5",
"S. c #BABAC2",
"D. c #CCA0AB",
"F. c #D0A3AD",
"G. c #D2A9B4",
"H. c #CAAACB",
"J. c #C0A0D4",
"K. c #CBABD3",
"L. c #D4B4CC",
"P. c #DBB0CF",
"I. c #DEBDCE",
"U. c #D5B5D1",
"Y. c #DCB2D2",
"T. c #D9B9D1",
"R. c #E6B8C6",
"E. c #E7BCCE",
"W. c #E8B9C7",
"Q. c #EABFCE",
"!. c #E1B6D4",
"~. c #E4BAD2",
"^. c #E9BED2",
"/. c #C4C5B4",
"(. c #C3C4BD",
"). c #C7C8BE",
"_. c #C9C9B7",
"`. c #CBCBBE",
"'. c #D0D0BD",
"]. c #D7D9BE",
"[. c #D8D9BA",
"{. c #C1C1C1",
"}. c #C7C8C2",
"|. c #C9C1C4",
" X c #CACAC0",
".X c #D0C9C1",
"XX c #D0CAC8",
"oX c #D3D3C4",
"OX c #E3C3CD",
"+X c #EDC2D1",
/* pixels */
". . . . X X o o o O O + + + + # # + $ $ $ $ $ $ % % % % % * * = = - = = - - ; ; ; ; : : ; > > > > > ,.,.,.<.<.<.1.1.1.1.",
"{.{.{.{.{.{.{.{.{.{.{.{.S.{.{.{.S.{.(.S.{.{.{.{.{.{.{.{.{.{.{.{.{.S.(.{.{.{.{.{.f.{.: : > ; > > > ,.,.,.,.<.1.<.1.1.1.1.",
"{.{.{.{.{.S.{.{.{.{.{.{.(.{.{.{.{.{.(.{.(.{.{.{.{.{.{.{.{.{.{.{.{.{.{.{.{.{.{.{.{.{.; : > > > > > ,.,.,.<.<.<.<.1.1.1.1.",
"{.{.{.{.{.{.{.{.|.OX+X+X+X+XOX|.{.{.{.{.(.S.{.{.{.{.{.{.{.{.{.{.{.{.{.{.{.{.{.{.{.{.: : ; > ; > > > > 5.G.+X+XG.7.1.1.1.",
"{.{.{.{.{.{.{.|.OX+X+X+X+X+X+XOX|.{.{.{.{.{.{.{.{.{.{.{.{.{.{.{.|.OX+X+XOX|.{.{.{.{.; ; > > > > > ,.,.G.+X+X+X+XG.1.1.1.",
"{.{.{.{.{.{.|.OX+X+X        +X+XOX X X X'.`. X}.}.{.{.S.{.{.{.{.OX+X+X+X+XOX{.{.{.{.; ; > ; ; > > ,.,.+X+X    +X+X1.1.1.",
"{.{.{.{.{.{.OX+X+X    +X+X    +X+XOX+X+X+X+XI.A.OX+X+XOX+X+X+XOX+X+X    +X+XOX+X+XOX+XG.4.G.+X+X+X+XG.+X+X    +X+X1.1.1.",
"{.{.{.{.{.{.+X+X    +X+X+X    +X+X+X+X+X+X+X+XL.+X+X+X+X+X+X+X+X+X+X    +X+X+X+X+X+X+X+XG.+X+X+X+X+X+X+X+X    +X+X1.1.1.",
"{.S.{.{.{.{.+X+X    +X+X+X+X+X+X+X+X        +X+X+X    +X      +X+X        +X+X    +X  +X+X+X        +X+X+X    +X+X1.1.1.",
"{.{.{.{.{.{.+X+X    +X+XH.+X+X+X+X    +X+X    +X+X      +X+X    +X+X    +X+X+X        +X+X    +X+X    +X+X    +X+X1.1.1.",
"{.{.{.{.{.{.+X+X    +X+Xt p x +X+X    +X+X    +X+X    +X+X+X    +X+X    +X+X+X      +X+X+X    +X+X    +X+X    +X+X1.1.1.",
"{.{.{.{.(.S.+X+X    +X+XJ.+X+X+X+X    +X+X    +X+X    +X+X+X    +X+X    +X+X+X    +X+X+X+X    +X+X    +X+X    +X+X1.1.1.",
"{.{.{.{.{.{.+X+X    +X+X+X+X+X+X+X    +X+X    +X+X    +X+X+X    +X+X    +X+X+X    +X+X+X+X    +X+X    +X+X    +X+X1.1.1.",
"{.{.{.{.{.}.+X+X    +X+X+X    +X+X    +X+X    +X+X    +X+X+X    +X+X    +X+X+X    +X+X+X+X    +X+X    +X+X    +X+X1.1.1.",
"{.{.{.{.{.].I.+X+X    +X+X    +X+X    +X+X    +X+X    +X+X+X    +X+X    +X+X+X    +X+X+X+X    +X+X    +X+X    +X+X1.1.1.",
"{.{.{.{.{.(.g.M.+X+X        +X+X+X+X        +X+X+X    +X+X+X    +X+X+X    +X+X    +X+XG.+X+X        +X+X+X    +X+X1.1.1.",
"{.{.{.{.}.h.b V H.+X+X+X+X+X+XOXOX+X+X+X+X+X+XOX+X+X+X+XOX+X+X+XQ.J.+X+X+X+X+X+X+X+XG.3.G.+X+X+X+X+X+XG.+X+X+X+XG.1.1.1.",
"{.{.{.`.oX@.i z z.OX+X+X+X+XOX|.|.OX+X+X+X+XOX|.OX+X+XOXL.XX+X+XH./ K.+X+XOXOX+X+XOX3.: 4.G.+X+X+X+XG.5.G.+X+XG.7.1.1.1.",
"{.{.{.(.f.N f =.C.`.{.{.{.{.{.{.{.{.{.{.{.{.{.{.{.{.{.{.{.S. XS.w.b D l.S.{.{.{.{.{.; : > ; > > > ,.> <.<.<.<.<.1.1.1.1.",
"{.{.}.f.e.Z S N.).{.{.{.{.{.{.{.{.{.{.{.{.{.{.{.{.{.{.{.{.{.}.{.p.I 9 >.C.}.{.{.{.{.; : ; > ; > > > > <.<.<.<.<.1.1.1.1.",
"S.{.`.C.W Z A C.`.{.{.{.{.{.{.{.{.{.{.{.{.{.{.{.{.{.{.{.{.{.{.}.`.) 6 %.V.`.{.{.{.{.; ; ; > ; > > , , , ,.<.<.<.1.1.1.1.",
"{.{. XB.O.V ] S.`.{.{.{.{.{.{.{.{.S.{.{.{.{.{.{.{.{.{.{.{.{.|.OX+X~.m.&.n..XOX+X+XOX2.D.W.W.D.4.> , , , ,.<.<.1.1.1.1.1.",
"{.{. XB.X.m ' S.`.{.{.{.{.{.{.{.{.{.{.{.{.{.{.{.{.{.S.{.{.{.OX+X+X~.Y.J.b.OX+X+X+X+XD.R.R.R.R.D.> , , , <.<.<.<.1.1.1.1.",
"{.}. XB.@.F | A.`.{.{.{.{.{.S.{.{.{.{.{.S.(.{.{.{.{.{.{.{.{.+X+X    Y.!.v.+X+X    +XW.R.    R.R.> > ,.<.<.<.<.<.1.1.1.1.",
"{.{.`.B...A { C.).f.{.{.{.{.{.{.{.{.{.{.{.{.{.{.{.{.{.{.{.{.+X+X    Y.Y.n.+X+X    +XR.R.    R.R.D.W.R.W.R.D.5.<.<.1.1.1.",
"{.{.`.Z.X.A [ i.(.{.{.{.{.{.{.{.{.{.{.{.{.{.{.{.{.{.{.{.{.{.+X+X    Y.~.T.+X+X    OXR.R.R.R.R.D.W.W.R.W.R.W.D.7.1.1.1.1.",
"{.{.}.C.0.F G q.f.}.{.{.{.{.{.{.{.{.{.{.{.{.(.{.{.{.{.{.{.{.OX+XQ.    ~.+X+X    +X+XR.R.    R.R.R.        W.W.F.7.1.1.1.",
"{.{.{.G.s.{ B =.B.`.{.{.{.{.{.{.{.{.{.{.{.{.S.{.{.{.{.{.{.L. X+XE.    ^.+X+X    +X+XR.R.    R.R.            W.W.F.1.1.1.",
"{.{.{.{. X#.s ^ k.`.{.{.{.{.{.{.{.{.{.{.{.{.{.{.{.{.{.{.{.{.).OX~.    +X+X+X    +X+XR.R.    R.    R.R.R.W.    R.W.1.1.1.",
"{.{.{.}. X0.l f $.(.{.}.{.{.{.{.S.{.{.{.{.{.{.{.S.{.{.{.{.{._.L.Y.Y.    +X    +X+XOXR.R.    R.      R.R.W.R.R.W.F.1.1.1.",
"{.{.{.{.{.p._ u H x.S.}.{.{.{.{.{.{.{.{.{.{.{.{.{.{.{.{.(.oXt.R Y.!.    +X    +X+X{.R.R.    R.R.          W.W.F.7.1.1.1.",
"{.{.{.{.{._.x.[ C ' r.S.(.{.{.{.{.{.{.{.{.{.{.{.{.{.{.}.{.}.R < Y.^.    +X    +X+X(.R.R.    R.R.R.          W.W.F.1.1.1.",
"{.{.{.{.{.).C.j.L h ! r.`.).{.{.{.{.{.{.{.{.{.{.S.}.{.oX(.T 5 y T.+X    +X    +X+X{.R.R.    R.R.R.R.R.R.      R.R.1.1.1.",
"{.{.{.{.{.{.).{.o.8 i ^ h.s.`. X}.{.{.{.{.{.}.}. X X'.p.E 5 p } U.+X+X      +X+XOXS.R.R.    R.    R.R.R.R.    R.R.1.1.1.",
"{.{.{.{.{.{.{.}.e.! Z d N *.i.C.f.f.{.{.}.{.f.f.f.B.i.U 1 e | V.|.+X+X      +X+X|.{.W.R.    R.R.            W.W.G.1.1.1.",
"{.{.{.{.{.{.{.{.f.a.j.H q i c W q.t.d.oXoX/.y.u.9.P j r r #.V.{.{.+X+X      +X+X{.{.W.R.    R.R.R.        W.W.F.5.1.1.1.",
"{.{.{.{.{.{.{.{.}. Xf.j.~ s 4 0 l n ^ @.' ! v n j 7 i J :.V. X}.{.OX+X+X+X+X+XOX{.(.D.W.R.R.R.D.W.W.W.R.W.W.F.5.1.1.1.1.",
"{.{.{.{.{.{.{.{.{.{.}.).a.*.( A a q i p 3 2 q y g H ' N.[.`.{.{.{.|.OX+X+X+XOX|.{.S.3.F.R.R.D.3.D.W.R.W.W.F.5.1.1.<.1.1.",
"{.{.{.{.{.{.{.{.{.{.{.{.f.S.C.x.-.O...' @.o.+.;.c.Z.Z.S.(.{.{.{.{.{.{.{.{.{.{.{.{.{.; : : > : > > , , , , <.<.<.<.1.1.1.",
"{.{.{.{.{.{.{.f.{.{.{.{.}. X'.).s.a.N.x.V.V.B.C.).'.).).S.(.{.{.{.{.{.{.{.{.{.{.S.{.; : : : > : > , , , , <.<.1.1.1.1.1.",
"{.{.{.{.{.{.{.{.{.{.{.{.{.{.f.{.{.}.).`.).}.}.).{.{.{.{.{.{.{.{.{.{.{.{.{.{.{.{.{.{.; : : > > > > > , , <.<.<.<.1.1.1.1.",
"{.{.{.{.{.{.{.{.{.{.{.{.{.{.{.{.{.{.{.{.{.{.{.{.{.{.{.{.{.{.{.{.{.{.{.{.{.{.{.{.{.{.: : : ; ; > > , , , , <.<.<.<.1.1.1.",
"{.{.{.{.{.{.{.{.{.{.{.{.{.{.{.{.{.{.{.{.{.{.{.{.{.{.{.{.{.{.{.{.{.{.{.{.{.{.{.{.{.{.: : > ; > > > , , <.<.<.<.<.1.1.1.1.",
"{.{.{.{.{.{.{.{.{.{.{.{.{.{.{.{.{.{.{.S.{.{.{.{.{.{.{.{.{.{.{.{.{.{.{.{.{.{.{.G.{.{.: : ; > ; > > > , , , <.<.1.1.<.2.2.",
". . . . . . O O O O O O O + + @ $ # # # $ $ $ % $ % % % % % % - * = = - - - - ; ; ; : : > > ; ,.> > , , <., <.1.1.<.1.1."
};
