/* XPM */
static char *ctrlVisOn[] = {
/* columns rows colors chars-per-pixel */
"60 45 200 2",
"   c #232526",
".  c #374538",
"X  c #384638",
"o  c #3A4B3B",
"O  c #3E513E",
"+  c #3F5440",
"@  c #405540",
"#  c #445B43",
"$  c #476046",
"%  c #486147",
"&  c #4A6549",
"*  c #4D6A4C",
"=  c #506E4D",
"-  c #51704F",
";  c #537451",
":  c #567954",
">  c #597D56",
",  c #0B0AAC",
"<  c #0604C6",
"1  c #0503DC",
"2  c #0B09DA",
"3  c #100EDC",
"4  c #1312C3",
"5  c #1F1ECF",
"6  c #1310D4",
"7  c #1614DE",
"8  c #1A18D4",
"9  c #1B19DB",
"0  c #0907E9",
"q  c #0D0AE4",
"w  c #0D0AEC",
"e  c #0402F3",
"r  c #0703FB",
"t  c #0D0BF0",
"y  c #0B08FA",
"u  c #110FE2",
"i  c #1310E1",
"p  c #1110EA",
"a  c #1E1CE2",
"s  c #1B19EC",
"d  c #1311F1",
"f  c #1D1AF2",
"g  c #201DF0",
"h  c #2422D6",
"j  c #2623DF",
"k  c #2A29D5",
"l  c #2E2BDD",
"z  c #302EC8",
"x  c #3230CC",
"c  c #3E3DC5",
"v  c #3C3BC8",
"b  c #3735D2",
"n  c #3735DD",
"m  c #3937D0",
"M  c #3B3AD8",
"N  c #2522EA",
"B  c #2927E6",
"V  c #2927EA",
"C  c #292AE4",
"Z  c #2A29E8",
"A  c #2321F3",
"S  c #322FE1",
"D  c #3533E3",
"F  c #3633EB",
"G  c #3A38E4",
"H  c #3C3CE9",
"J  c #413FE0",
"K  c #403EEE",
"L  c #514FB4",
"P  c #504FBF",
"I  c #5655BB",
"U  c #6B6C9F",
"Y  c #6166A7",
"T  c #6060A9",
"R  c #6362B6",
"E  c #6765B9",
"W  c #4746C2",
"Q  c #4B4AC8",
"!  c #4947D9",
"~  c #4D4BD4",
"^  c #514FDB",
"/  c #5F5EC3",
"(  c #5E5DC8",
")  c #5455D2",
"_  c #5B59D3",
"`  c #4240E4",
"'  c #4241E9",
"]  c #4E4CE2",
"[  c #5654EF",
"{  c #5856E5",
"}  c #5B5AE0",
"|  c #605FCD",
" . c #6463C5",
".. c #6463CE",
"X. c #6C6BC6",
"o. c #6A69CD",
"O. c #6463D3",
"+. c #6766DA",
"@. c #6E6DD5",
"#. c #6B6AD9",
"$. c #6D74DA",
"%. c #7272C4",
"&. c #7372CB",
"*. c #7B7BC1",
"=. c #7F7ECD",
"-. c #7675DF",
";. c #7A79D2",
":. c #5D8459",
">. c #618A5D",
",. c #648E60",
"<. c #659261",
"1. c #689563",
"2. c #6A9A65",
"3. c #6D9E68",
"4. c #6EA069",
"5. c #71A46B",
"6. c #74AA6E",
"7. c #75A172",
"8. c #76AD70",
"9. c #78A474",
"0. c #78AD72",
"q. c #7FAF7B",
"w. c #78B071",
"e. c #7FB07B",
"r. c #807FBC",
"t. c #81B67C",
"y. c #8586AB",
"u. c #8686BE",
"i. c #8F8EB3",
"p. c #9191A7",
"a. c #9696B1",
"s. c #9998BB",
"d. c #A4A3AA",
"f. c #ACACA3",
"g. c #A8A8AB",
"h. c #A5A5BE",
"j. c #ACABB3",
"k. c #ADADBD",
"l. c #B3B3BC",
"z. c #BEBEB3",
"x. c #BCBCBD",
"c. c #8E8EC0",
"v. c #8A8CCB",
"b. c #9393C2",
"n. c #9393CB",
"m. c #949AC9",
"M. c #9C9BC3",
"N. c #9C9CCA",
"B. c #9696D4",
"V. c #9A9BD2",
"C. c #98B7C9",
"Z. c #9EBBD7",
"A. c #A09FD0",
"S. c #A4A4C4",
"D. c #ADACC2",
"F. c #AAAAC9",
"G. c #A0A7D1",
"H. c #B4B4C2",
"J. c #B4B4C8",
"K. c #BABBC2",
"L. c #ACDBAA",
"P. c #B4DDB4",
"I. c #AFE0AD",
"U. c #B0E1AD",
"Y. c #B7E0B6",
"T. c #B8E2B7",
"R. c #B8E3B8",
"E. c #A5C5D0",
"W. c #A9C6D0",
"Q. c #B2CFCD",
"!. c #B2D0C6",
"~. c #B3D0CE",
"^. c #BBDBC4",
"/. c #BCDBCA",
"(. c #B3D0D4",
"). c #B8E2C7",
"_. c #B9E3CA",
"`. c #BEE8CC",
"'. c #C4C5B4",
"]. c #C3C4BD",
"[. c #C7C8BE",
"{. c #C9C9B7",
"}. c #CBCBBE",
"|. c #D0D0BD",
" X c #D7D9BE",
".X c #D8D9BA",
"XX c #C1C1C1",
"oX c #C3CAC2",
"OX c #CACAC0",
"+X c #CAD1C3",
"@X c #D3D3C4",
"#X c #C5E3CC",
"$X c #C1ECC6",
"%X c #C1ECCA",
"&X c #C9E7CB",
"*X c #C8E8C6",
"=X c #CAE8CA",
"-X c #C1F0C0",
";X c #C6F0CA",
":X c #CCF4CD",
/* pixels */
". X . o o o o O @ @ @ # # # # % % % & & # * * * - - - ; ; ; : : > > > > ,.> ,.> 7.,.,.1.1.1.1.2.2.3.3.3.7.5.5.6.6.6.w.w.",
"XXXXXXXXXXXXXXXXXXXXK.XXXXK.XXXXK.XXXXK.XXXXXXXXXXXXXXXXXXXXXXXXXXXXXXXXXXoXXXXXJ.XX,.,.<.1.2.1.2.2.3.3.3.5.5.6.6.6.w.w.",
"XXXXXXXXXXXXXXXXXXXXXXOXXXXXXXXXXXXXXXXXXXXXXXXXXXXXXXXXXXXXXXXXXXXXXXXXXXXXXXXXXXXX1.,.,.1.1.1.3.2.7.3.5.7.5.6.6.w.6.w.",
"XXXXXXXXXXXXXXXXOX&X:X:X:X:X#XOXXXXXXXXXXXXXXXXXXXXXXXXXXXXXXXXXXXXXXXXXXXXXXXXXXXK.1.,.1.1.2.2.2.3.3.t.P.:X:XP.t.6.w.w.",
"K.XXXXXXXXXXXXoX=X:X:X:X:X:X:X=XOXK.XXXXXXXXXXXXXXXXXXXXXXXXXXXXOX=X:X:X#XOXXXXXXXXX,.<.1.1.2.2.3.3.4.R.:X:X:X:XU.w.w.w.",
"XXXXXXXXXXXXoX&X:X:X        :X:X=X@XOX@XOXOXOXOXOXXXXXXXXXXXXXXX=X:X:X:X:X#XXXOXXXXX<.<.<.1.2.2.2.4.4.:X:X    :X:X8.w.w.",
"XXXXXXXXXXXX&X:X:X    :X:X    :X:X#X:X:X:X:X@XQ.#X:X:X=X:X:X:X&X:X:X    :X:X:X:X:X&X:X^.9.P.:X:X:X:XP.:X:X    :X:X8.8.w.",
"XXXXXXXXXXXX:X:X    :X:X:X    :X:X:X:X:X:X:X:X/.:X:X:X:X:X:X:X:X:X:X    :X:X:X:X:X:X:X:XP.:X:X:X:X:X:X:X:X    :X:X8.8.w.",
"XXXXXXXXXXXX:X:X    :X:X:X:X:X:X:X:X        :X:X:X    :X      :X:X        :X:X    :X  :X:X:X        :X:X:X    :X:X8.8.w.",
"XXXXXXXXXXXX:X:X    :X:X(.:X:X:X:X    :X:X    :X:X      :X:X    :X:X    :X:X:X        :X:X    :X:X    :X:X    :X:Xp.8.w.",
"XXXXXXXXXXXX:X:X    :X:Xr i S :X:X    :X:X    :X:X    :X:X:X    :X:X    :X:X:X      :X:X:X    :X:X    :X:X    :X:X8.w.w.",
"XXXXXXXXXXXX:X:X    :X:XW.:X:X:X:X    :X:X    :X:X    :X:X:X    :X:X    :X:X:X    :X:X:X:X    :X:X    :X:X    :X:X8.8.w.",
"XXXXXXXXK.XX:X:X    :X:X:X:X:X:X:X    :X:X    :X:X    :X:X:X    :X:X    :X:X:X    :X:X:X:X    :X:X    :X:X    :X:X6.w.w.",
"XXXXXXXXXXOX:X:X    :X:X:X    :X:X    :X:X    :X:X    :X:X:X    :X:X    :X:X:X    :X:X:X:X    :X:X    :X:X    :X:X8.8.w.",
"XXXXXXXXXX X#X:X:X    :X:X    :X:X    :X:X    :X:X    :X:X:X    :X:X    :X:X:X    :X:X:X:X    :X:X    :X:X    :X:X8.8.w.",
"XXXXXXXXXX].v.Z.:X:X        :X:X:X:X        :X:X:X    :X:X:X    :X:X:X    :X:X    :X:X^.:X:X        :X:X:X    :X:X8.8.w.",
"XXXXXXXXOXi.m Z ~.:X:X:X:X:X:X=X=X:X:X:X:X:X:X#X:X:X:X:X=X:X:X:X;XW.:X:X:X:X:X:X:X:XP.9.P.:X:X:X:X:X:XP.:X:X:X:XR.6.w.w.",
"XXXXXX[.@XO.u l N.=X:X:X:X:X=XXX@X#X:X:X:X:X#XOX=X:X:X#X@X#X:X:X!.) (.:X:X&X=X:X:X=X9.<.9.P.:X:X:X:XP.t.T.:X:XR.t.6.w.w.",
"XXXXXX].x.J d &.H.OXXXXXXXXXXXXXXXXXXXXXXXXXXXXXXXXXXXXXXXXX@XJ.p.c C n.K.XXXXXXXXXX,.<.<.1.1.2.3.3.5.2.5.5.5.6.6.w.6.w.",
"XXXXXXx.a.B g S.[.XXXXXXXXXXXXXXXXXXXXXXXXXXXXXXXXXXXXXXXXXXOXJ.j.P 8 =.J.OXXXXXXXXX,.<.1.1.1.2.2.3.2.5.5.5.5.6.6.6.w.w.",
"XXXXOXH.r.a V H.|.XXXXXXXXXXXXXXXXXXXXXXXXXXXXXXXXXXXXXXXXXXXXXX[./ 5 #.F.[.].'.XXXX>.<.1.1.2.2.2.3.3.5.5.5.5.5.6.6.w.w.",
"XXXXOXD.X.j J XX}.XXXXXXXXXXXXXXOXJ.XXXXXXXXXXXXXXXXXXXXXXXXOX=X:X%XC.$.A.|.$X:X:X=X5.L.-X-XL.9.2.3.3.3.5.5.5.6.6.w.w.w.",
"XXXXOXD.| n } K.}.XXK.XXXXXXK.XXXXXXXXXXXXXXXXXXXXXXXXXXXXXX#X:X;X-X`.E.V.*X:X:X:X;XL.-X-X-X-XL.2.3.5.3.5.5.6.6.6.0.6.w.",
"XXK.|.D.| D } K.}.XXXXXXXXXXXXXXXXXXXXXXXXXXXXXXXXXXXXXXXXXX:X:X    ).`.B.:X-X    ;X-X-X    -X-X2.2.3.5.5.5.5.6.6.6.w.w.",
"XXXX}.D.| Z ] H.}.].XXXXXXXXXXXXXXXXK.XXXXXXXXXXXXXXXXXXXXXX:X:X    ).`.G.;X:X    :X-X-X    -X-XI.-X-X-X-XU.t.6.6.w.w.w.",
"XXXX|.D. .B ' h.].XXXXXXXXXXXXXXXXXXXXXXXXXXXXXXXXXXXXXXXXXX:X:X    _.`.).:X:X    :X-XR.-X-X-XU.-X-X-X-X-X-XI.t.6.6.6.w.",
"XXXXOXH.u.F F s.x.XXXXXXXXXXXXXXXXXXXXXXXXXXXXXXXXXXXXXXXXXX#X=X:X    -X:X:X    ;X:X-X-X    -X-X-X        -X-XU.t.w.6.w.",
"XXXXXX].l.! N &.D.OXXXXXXXXXXXXXXXXXXXXXXXXXXXXXXXXXXXXXXX!.+X:X-X    ;X:X-X    :X:X-X-X    -X-X            -X-XU.6.w.w.",
"XXXXXX[.}.+.a ~ M.[.XXXXXXXXXXXXXXXXXXXXXXXXXXXXXXXXXXXXXXXXOX=X`.    ;X:X:X    -X:X-X-X    -X    -X-X-X-X    -X-Xw.w.w.",
"XXXXXX[.OXr.k d @.].XXXXXXXXK.XXXXXXXXXXXXXXXXXXXXXXXXXXXXXX{./._.`.    :X    :X:X-X-X-X    -X      -X-X-X-X-X-XU.6.w.w.",
"XXXXXXXXXXj.( y J b.XX[.XXXXXXXXXXXXXXXXK.K.XXXXXXXXXXXXXX@Xd.Y `.`.    -X    -X;X].-X-X    -X-X          -X-XU.t.6.w.w.",
"XXXXXXXXXX{.N.J V ) M.x.[.XXXXXXXXXXXXXXXXXXXXXXXXXXXXOXXX].T , `.-X    :X    :X;X].-X-X    -X-X-X          -X-XU.w.6.w.",
"XXXXXXXXXX[.H.n.K g Q s.}.].XXXXXXXXXXXXXXXXXXXXXXXXXX@X].U 4 t #X;X    :X    :X:X'.R.-X    -X-X-X-X-X-X      -X-Xw.w.w.",
"XXXXXXXXXXXXXXXX..7 3 ! b.l.}.OXOXXXXXXXXXXXXXXXOX@X|.j.R 4 3 [ /.;X:X      :X-X*X].-X-X    -X    -X-X-X-X    -X;Xw.w.w.",
"XXXXXXXXXXXXXXoXa.P V s M %.M.x.H.].XXXXXXXX].x.H.k.h.I < w { D.}.:X:X      ;X:X[.XX*X-X    -X-X            -X-XU.6.w.w.",
"XXXXXXXXXXXXXXXXx.k.v.G e u z E i.g.z.OX@X{.f.g.y.L h e r +.F.XXP.;X;X      ;X;X!.].-X-X    -X-X-X        -X-XU.t.6.w.w.",
"XXXXXXXXXXXXXXXXOXOXXXv.! 9 3 9 k b ~ O._ Q v m h 6 3 H -.F.}.[.XX#X:X;X:X;X:X*XXXXXL.-X-X-X-XL.-X-X-X-X-X-XU.t.6.w.w.w.",
"K.XXXXXXXXXXXXXXXXXXXX{.k.%.^ Z p 0 u i 2 1 0 t g G _ F..XOXXXXXXX[.*X:X:X;X*XoXK.XX4.L.-X-XL.9.L.-X-X-X-XL.t.5.6.6.w.w.",
"XXXXXXXXXXXXXXXXXXXXXXXXXXK.K.M.*.X.| _ O.O.o.=.N.H.J.K.XXXXXXXXXXXXXXXX'.XXXXXXXXXX<.<.1.1.2.2.2.3.3.5.5.5.6.6.6.6.w.w.",
"XXXXXXXXXXXXXXXXXXXXXXXXXXOX|.[.l.k.S.M.F.D.D.H.[.OX|.XXXXXXXXXXXXXXK.XX].XXXXXXXXXX<.<.<.1.1.2.3.2.4.4.5.5.5.6.6.w.w.w.",
"XXXXXXXXXXXXXXXXXXXXXXXXXXXXXXXXXXOXOX}.[.OX[.OXXXXXXXK.XXXXXXXXXXXXXXXXXXXXXXXXXXXX<.<.1.1.1.2.2.4.3.4.5.5.5.6.6.6.0.w.",
"XXXXXXXXXXXXXXXXXXXXXXXXXXXXXXXXXXXXXXXXXXXXXXXXXXXXXXXXXXXXXXXXXXXXXXXXXXXXXXXXXXXX<.<.<.1.2.2.2.4.5.4.5.5.5.6.0.6.w.w.",
"XXXXXXXXXXXXK.XXXXXXXXXXXXXXXXXXXXXXXXXXXXXXXXXXXXXXXXXXXXXXXXXXXXXXXXXXXXXXXXXXXXXX>.<.<.1.1.2.2.2.3.4.5.5.5.6.6.6.0.w.",
"XXXXXXXXXXXXXXXXXXXXXXXXXXXXXXXXXXXXXXXXXXXXXXK.XXXXXXXXXXXXXXXX].K.XXXXXXXXK.].XXXX<.1.<.1.2.2.3.2.4.3.5.5.5.6.6.w.0.0.",
". . X X X o O O @ @ @ # @ # # # # & & & * & = = = = ; ; : : : : > > >.> >.>.>.>.>.>.<.<.1.1.1.2.2.2.5.5.5.5.5.6.6.w.w.w."
};
