/* XPM */
static char *JointVis_On[] = {
/* columns rows colors chars-per-pixel */
"60 45 256 2",
"   c #000025",
".  c #00002C",
"X  c #0C0C2E",
"o  c #010132",
"O  c #01013B",
"+  c #090934",
"@  c #0E0E3C",
"#  c #10102E",
"$  c #12123A",
"%  c #191937",
"&  c #232526",
"*  c #000043",
"=  c #00004B",
"-  c #0B0B44",
";  c #000054",
":  c #00005B",
">  c #0A0A58",
",  c #121242",
"<  c #1A1A49",
"1  c #11115B",
"2  c #181857",
"3  c #1B1B5A",
"4  c #000063",
"5  c #00006A",
"6  c #090965",
"7  c #09096B",
"8  c #000074",
"9  c #01017B",
"0  c #080870",
"q  c #09097A",
"w  c #141466",
"e  c #11116A",
"r  c #1F1F67",
"t  c #19196C",
"y  c #10107F",
"u  c #1B1B75",
"i  c #242447",
"p  c #23244A",
"a  c #2A2A4E",
"s  c #2D2D53",
"d  c #26265C",
"f  c #333353",
"g  c #33335D",
"h  c #3D3D5A",
"j  c #2A2A69",
"k  c #242463",
"l  c #2C2C7F",
"z  c #262675",
"x  c #3D3D67",
"c  c #333377",
"v  c #3C3C7F",
"b  c #33337A",
"n  c #374537",
"m  c #364538",
"M  c #384638",
"N  c #3A4B3A",
"B  c #3E513E",
"V  c #3F5440",
"C  c #405540",
"Z  c #445B43",
"A  c #464661",
"S  c #45456B",
"D  c #4B4B6E",
"F  c #505168",
"G  c #515172",
"H  c #5B5B72",
"J  c #476045",
"K  c #486147",
"L  c #4A6449",
"P  c #4D6A4C",
"I  c #506E4E",
"U  c #51704F",
"Y  c #537451",
"T  c #567953",
"R  c #597C56",
"E  c #5A7F58",
"W  c #61617A",
"Q  c #6B6B7D",
"!  c #000081",
"~  c #00008E",
"^  c #0D0D88",
"/  c #010193",
"(  c #01019B",
")  c #141483",
"_  c #15158A",
"`  c #14149B",
"'  c #1E1E95",
"]  c #1D1D9A",
"[  c #0000A3",
"{  c #0101AA",
"}  c #0808AB",
"|  c #0101B4",
" . c #0000BA",
".. c #1414AB",
"X. c #1515A6",
"o. c #1717B3",
"O. c #1B1BB3",
"+. c #282881",
"@. c #2B2B98",
"#. c #25259D",
"$. c #32328F",
"%. c #3F3F88",
"&. c #373799",
"*. c #2020AD",
"=. c #2D2DAD",
"-. c #2A2AB6",
";. c #2F2FB8",
":. c #3838A2",
">. c #3D3DAB",
",. c #0101C1",
"<. c #0000CC",
"1. c #0909C5",
"2. c #0909CB",
"3. c #0000D1",
"4. c #0F0FD8",
"5. c #1212CE",
"6. c #1B1BC7",
"7. c #1212DA",
"8. c #1A1AD7",
"9. c #2222C8",
"0. c #2626D5",
"q. c #2020D9",
"w. c #3636C6",
"e. c #3939C6",
"r. c #3E3EE3",
"t. c #3131F2",
"y. c #424280",
"u. c #494985",
"i. c #4A4A8D",
"p. c #48479D",
"a. c #4A4A94",
"s. c #575783",
"d. c #545489",
"f. c #5C5C89",
"g. c #5F5F95",
"h. c #5B5B98",
"j. c #535398",
"k. c #4444A8",
"l. c #4D4DA1",
"z. c #4343B0",
"x. c #5252B2",
"c. c #5F65A0",
"v. c #676798",
"b. c #686893",
"n. c #6B6B9A",
"m. c #646496",
"M. c #717184",
"N. c #75758B",
"B. c #7D7E87",
"V. c #7A7A8C",
"C. c #797991",
"Z. c #79799D",
"A. c #6A6AA6",
"S. c #6A6AB3",
"D. c #6363B2",
"F. c #7374A6",
"G. c #7B7BB7",
"H. c #4343C1",
"J. c #5757C8",
"K. c #5C5CCA",
"L. c #5C5CC4",
"P. c #4A4AEE",
"I. c #4040F5",
"U. c #7C7CC2",
"Y. c #6060E3",
"T. c #6C6CE8",
"R. c #7474E7",
"E. c #5D8359",
"W. c #618B5D",
"Q. c #648E60",
"!. c #669361",
"~. c #689563",
"^. c #6A9A65",
"/. c #6D9E68",
"(. c #729E6E",
"). c #6EA169",
"_. c #71A46B",
"`. c #74AA6E",
"'. c #77A672",
"]. c #76AD70",
"[. c #79AD72",
"{. c #78B071",
"}. c #7FB47A",
"|. c #80B57A",
" X c #81B87B",
".X c #81808C",
"XX c #898995",
"oX c #8A8A9A",
"OX c #848491",
"+X c #93939D",
"@X c #8484A7",
"#X c #8080AF",
"$X c #8C8CAA",
"%X c #8C8CA5",
"&X c #8A8AB4",
"*X c #8787B7",
"=X c #9393A3",
"-X c #9A9AA1",
";X c #9B9BAC",
":X c #9292B5",
">X c #9696BA",
",X c #9B9BB4",
"<X c #A3A3A7",
"1X c #A3A3AB",
"2X c #AAAAAE",
"3X c #A3A3B4",
"4X c #A7A7B9",
"5X c #A7A8B2",
"6X c #AAAAB1",
"7X c #AEAEB9",
"8X c #A1BEB0",
"9X c #AFB0B7",
"0X c #B1B1B5",
"qX c #B4B4BC",
"wX c #B9B9B7",
"eX c #BCBCBE",
"rX c #8A8AC3",
"tX c #8787D3",
"yX c #9D9DC2",
"uX c #9797D5",
"iX c #B6B6C2",
"pX c #B2B2CF",
"aX c #BEBEC0",
"sX c #9CC798",
"dX c #9DC999",
"fX c #A0CE9C",
"gX c #ACD7A8",
"hX c #ADD8A9",
"jX c #BDC3BC",
"kX c #B1D2AE",
"lX c #B5D4B1",
"zX c #B5DBB1",
"xX c #B8D5B5",
"cX c #B9DDB4",
"vX c #BFC0C1",
"bX c #C1C8BE",
"nX c #C4E0BC",
"mX c #C1C1C1",
"MX c #C4C8C2",
"NX c #CBCBC5",
"BX c #CDCCC8",
"VX c #CFD0C6",
"CX c #D0CFCB",
"ZX c #D3D3C4",
"AX c #D3D3CB",
"SX c #D8D6CB",
"DX c #DAD9CB",
"FX c #D6D6D0",
"GX c #D8D8D1",
"HX c #E0DECD",
"JX c #E3E2CB",
"KX c #E8E8CE",
"LX c #E4E4C6",
"PX c #E3E1D0",
"IX c #E8E5D6",
"UX c #E9E8D6",
/* pixels */
"m m N N N N B B B B C C C Z Z J K K K K L P P P I I I Y Y T T T R E E E.E.E.E.W.W.!.!.!.!.~.~.^.^././.).)._._.`.`.`.{.{.",
"n m m N N N N B B B C C C Z Z Z J K K L L P P P I I U Y Y T T T R E E E.E.W.W.W.W.W.W.!.!.~.~.^.^././.)._._._.`.`.{.{.{.",
"m m HXGXSXSXSXSXSXSXSXSXHXSXSXSXSXSXHXHXDXSXSXJXJXDXSXSXSXSXSXSXDXDXSXSXSXDXDXDXSXHXIX!.~.~.~.^.^././.)._._._.`.`.`.`.{.",
"m m UXSXBXBXBXBXBXBXBXCXBXBXCXBXBXAXSXHXMXqXeXZXDXZXZXBXBXCXBXBXBXBXBXBXBXBXBXBXNXSXIXQ.~.~.~.^.^././.).)._._.`.`.`.{.{.",
"M M HXNXwXeXeXeXeXeXeXeXeXeXaXaXmXNX7XF.p.:.>.x.*XqXbXaXjXkXhXhXgXeXeXeXeXeXeXwXkXgXhXsX_.!.~.^.^././.)._._._.`.`.].].{.",
"M N HXBXeXaXmXaXmXaXaXmXaXaXaXmXBX3Xf.) / [ | | *.S.mXVXkXhXhXhXgXlXaXvXbXvXvXkXgXgXhXhXfX~.~.^.^./.).).[.fXhXgXfX}.].].",
"M M HXVXeXeXmXmXmXmXmXmXmXmXmXMXwXs.6 9 (  .8.7. .*.&XVXhXhX& & hXhXmXmXmXmXmXgXhX& & hXgX!.^.^.^././.).fXhXhXhXhXfX].{.",
"& M HXBXaXaXmXmXmXmXmXmXmXaXMXBX.X2 : ! ` H.T.P.1.{ k.9XhXhX& & gXgXgXgXgXgXlXgXhX& & hXgXgXgXsXhXhXhXdXgXgX& & hXhX X{.",
"B N HXCXeXaXmXmXmXmXmXaXmXaXBXBXW O ; ) A.aXpXK.| [ ] :XgXgX& & hXhXhXhXgXhXgXgXhXhXhXhXhXhXhXgXhXhXhXhXhXhX& & gXhXdX].",
"N N HXBXeXmXmXmXmXmXmXmXmXeXBXBXH o = u ,XUXNXS.[ ~ _ $XgXhX& & hXhX& & & & hXhXhX& & gXhX& & hX& & & hXhX& & & & hXhX{.",
"M M HXCXeXmXmXmXaXmXmXmXmXmXNXAXM.$ O > v.4X$X&.~ ! +.;XgXhX& & hX& & gXhX& & hXhX& & hXhX& & & hXgX& & hXhX& & hXhXfX{.",
"& M PXCXeXaXmXmXmXmXmXmXmXmXmXmXV.< o * r %.+.q 5 : u.qXhXhX& & hX& & hXhX& & hXhX& & hXhX& & hXhXhX& & gXhX& & hXhX X{.",
"B N HXCXaXmXmXaXmXmXmXmXeXmXNX%XS 1 O O * * = = * d +XBXhXhX& & hX& & hXhX& & hXgX& & hXhX& & hXhXhX& & hXhX& & hXhX].{.",
"N N HXBXeXmXmXmXmXmXmXmXmXBXmXd.7 5 : * O O , , s V.bXCXhXgX& & hX& & hXhX& & hXhX& & hXhX& & hXhXhX& & hXhX& & hXhX].{.",
"M N IXCXeXmXmXmXmXmXmXmXmXBX3Xz ; 4 5 4 : 3 S M.<XbXkXhXhXgX& & hX& & gXhX& & hXhX& & hXhX& & hXhXhX& & gXhX& & hXhX}.].",
"& C HXCXeXaXmXmXmXmXmXmXNXmXZ.t : 4 5 5 5 e d.qXFXlXgXhXhXhX& & hX& & hXhX& & gXhX& & hXgX& & hXgXhX& & hXhX& & hXgXfX].",
"M M HXBXeXmXmXmXmXmXmXmXBXwXu.4 : : 5 5 4 0 h.aXmXgXhX& & & & hXhXhX& & & & hXhXgX& & hXhX& & hXhXgX& & hXhXhX& & hXhX{.",
"& N HXBXeXeXmXmXmXmXmXbXBX3Xz : 5 5 5 5 4 %.3XNXbXkXgXgXhXgXhXhXkXhXhXhXhXhXgXlXhXhXhXhXhXgXhXhXdXhXhXhXhXdXhXhXhXhXfX{.",
"B B PXBXeXmXmXmXmXeXbXNXeXn.w : 5 5 5 5 l ,XAXmXaXbXkXkXgXgXhXkXvXkXhXhXhXhXlXjXgXhXhXsXdXgXgXdX).fXhXhXdX{.fXhXhXfX}.{.",
"M N HXBXeXmXmXmXmXmXBXDX6Xc : : 5 5 4 z $XSXBXaXmXmXaXmXmXmXmXbXmXmXmXmXvXbXaXaXaXNXIX!.~.~.~.^.^.).).)._.`._._.].{.{.{.",
"M M PXBXeXmXmXmXmXmXNXZX%Xw : 4 5 4 u @XBXBXmXmXeXmXmXmXmXmXmXmXmXmXmXaXmXmXmXbXaXNXIX!.!.!.~.^.^.).).)._._._.`.].`.`.{.",
"M M PXBXeXeXmXmXBX7X#XD.:.q 4 5 5 7 g.mXZXbXaXmXmXmXmXmXmXmXmXmXbXvXxXlXzXxXjXvXjXxXcXgXdX_.dXgXgXdX].)._._.`.`.`.].{.{.",
"& M PXBXeXmXNXMX=Xa.] } { [ ~ 8 6 i.4XMXmXaXmXmXmXmXmXmXmXeXmXmXbXxXzXzXzXzXxXvXxXzXcXgXgXsXgXgXhXhXdX).)._._.`.].`.{.{.",
"C M HXBXmXMXmX=Xb 9 (  .3.8. .( $.1XNXMXmXbXmXmXmXmXmXmXmXmXmXmXvXzXlX& & zXzXvXlXcX& & gXgXgX& & hXgX)._._._.`.].{.`.{.",
"N N PXBXaXBX1XS 4 9 / O.r.r.4. .x.qXNXNXbXmXmXmXmXmXmXmXmXmXmXmXmXzXzX& & zXzXvXzXcX& & gXgXgX& & gXhXdXhXhXhXhXfX}.{.{.",
"M M HXBXmXCXXX< = 9 @.G.uXY.5.| =.S.rXiXbXNXmXmXmXmXmXmXmXmXmXeXmXzXzX& & zXzXxXzXlX& & gXgXgXgXhXhXdXhXhXhXhXhXzXfX}.{.",
"M M PXBXmXBXV.# O 0 n.DXFXU.o.[ ( ..9.L.yXmXNXbXmXmXmXmXmXmXmXmXmXxXzXzX& & zXzXzX& & gXgXgXgX& & hXgXhX& & & & hXhXfX X",
"M M PXBXMXBX.XX . > n.DXBXG.` / [ ,.<.2.e.U.qXNXmXmXmXmXmXmXmXmXmXjXzXzX& & zXzXzX& & gXgXgXgX& & hXhX& & & & & & hXhXfX",
"M M PXBXmXBX=Xi . O j b.n.$.q 0 [ <.3.3.<.6.L.yXNXbXmXmXBXZXZXVXMXbXxXzX& & zXzXzX& & gXgXgXgX& & hX& & hXhXhXhX& & hXhX",
"& M HXBXaXCX0XH .   O = : : : ; 5 / | ,.3.3.2.e.U.aXBXeX3X:X*X>XqXMXxXzXzX& & zX& & zXgXfXgXgX& & hX& & & hXhXhXzXhXhXfX",
"B B PXCXaXmXmX-XA $ . . o O - O o * : ! { ,.<.3.5.L.>XF.&.X.} O.x.>XbXzXzX& & zX& & zXgX_.gXhX& & hXhX& & & & & hXhXfX X",
"M N HXBXaXaXmXNX6XN.f % % a S < . . o O = 8 [ ,.3.1.' ) ( | ,.<.,.;.&XzXzX& & zX& & cXgX~.hXhX& & hXhXhX& & & & & hXhXfX",
"M M PXBXeXeXmXmXBXmX1X+X+X;XoXx $ + + . . O = 5 ( [ 9 9 ( | q.t.7. .k.zXzX& & zX& & cXhX!.gXgX& & hXhXhXhXhXhX& & & hXhX",
"M M PXBXeXmXmXmXaXNXCXFXFXCXwX=XC.f.D g - .   . = : 5 ! ` x.tXR.0.| ..8XzXzX& & & zXcXdX~.gXgX& & hX& & hXhXhXhX& & hXhX",
"N C PXBXeXmXeXmXmXmXmXNXmXNXNXCXBXMX7X=XN.G x p $ o = 8 p.bXJXyX-.[ ( c.zXzX& & & zXcX(.~.gXgX& & hXhX& & & & & & hXhXfX",
"N & PXBXeXmXaXmXmXaXmXaXaXmXmXmXBXBXBXCXAXbX;X+XW $ O : h.mXJX>X#./ ! i.zXzX& & & zXcX!.!.gXgX& & hXhXhX& & & & hXzXfX X",
"M M PXBXeXaXmXmXmXeXmXmXmXmXaXaXaXmXmXmXBXBXBXGX6Xf . * t m.@Xj.^ 8 0 f.xXzXzXzXzXcXnX!.~.dXgXgXhXhXdXhXhXhXhXhXhXfX X{.",
"M M PXBXeXaXmXmXmXmXmXmXmXmXmXmXaXmXmXaXaXmXmXCXbXW +   * > w 7 4 = k XXMXxXzXzXzXxXJX!.~.(.sXgXhXdX[.dXhXhXhXhXfX X{.{.",
"M M PXBXeXmXmXmXmXmXmXmXmXmXmXmXmXmXmXmXaXmXbXmXBX5Xh     . o o o < M.eXmXbXmXmXeXNXIX!.~.~.^.^.^.).).`.).`.`.`.`.`.{.{.",
"M M PXNXeXmXeXmXeXmXmXmXmXmXaXmXmXmXaXbXaXaXaXeXNXBX-XF i + . X f B.wXBXvXvXmXaXeXNXIX!.!.~.~.^.^.).).).).).).`.`.].{.{.",
"M M HXBXqXeXeXeXeXeXeXeXeXeXeXeXaXaXaXaXeXeXaXeXaXmXBX0XXXQ H Q -XMXBXaXeXeXeXeXeXMXIX!.!.~.^.^.^.).).).)._.`.`.[.].].].",
"M M PXFXNXBXCXBXBXNXBXCXCXBXBXBXBXBXBXBXBXBXBXBXBXBXCXSXGXGXGXGXFXBXBXBXBXBXBXBXNXAXIX!.!.~.~.^.^./.).).).).).`.`.].].].",
"& C HXPXPXPXPXPXHXHXIXHXPXPXPXPXPXPXPXPXPXPXPXPXPXPXPXPXIXIXUXUXPXPXPXPXPXPXPXPXPXPXUX!.!.~.^.^./.^.).).).`.`.`.`.].[.].",
"N N m N N N B N B C C C Z Z Z Z K K K L L P P P I U U Y Y T T T E E E.E.E.E.W.W.W.Q.!.!.!.~.~.^.^.^.).).).`.).[.`.].[.[.",
"N M N N M N B B C C C Z Z Z Z Z K K L L L P P P I U U Y Y Y T R E E E.E.E.W.W.W.Q.Q.Q.!.!.~.^.^.)./.).).)._.`.`.`.].].{."
};
