/* XPM */
static char *JointVis_Off[] = {
/* columns rows colors chars-per-pixel */
"60 45 256 2",
"   c #000025",
".  c #00002C",
"X  c #0C0C2E",
"o  c #010132",
"O  c #01013B",
"+  c #090934",
"@  c #0E0E3C",
"#  c #10102E",
"$  c #12123A",
"%  c #191937",
"&  c #232526",
"*  c #3D3234",
"=  c #000043",
"-  c #00004B",
";  c #0B0B44",
":  c #000054",
">  c #00005B",
",  c #0A0A58",
"<  c #121242",
"1  c #1A1A49",
"2  c #11115B",
"3  c #181857",
"4  c #1B1B5A",
"5  c #000063",
"6  c #00006A",
"7  c #090965",
"8  c #09096B",
"9  c #000074",
"0  c #01017B",
"q  c #080870",
"w  c #09097A",
"e  c #141466",
"r  c #11116A",
"t  c #1F1F67",
"y  c #19196C",
"u  c #10107F",
"i  c #1B1B75",
"p  c #242447",
"a  c #23244A",
"s  c #2A2A4E",
"d  c #26265C",
"f  c #2D2D53",
"g  c #333353",
"h  c #33335D",
"j  c #3D3D5A",
"k  c #2A2A69",
"l  c #242463",
"z  c #232379",
"x  c #2C2C7F",
"c  c #282873",
"v  c #3D3D67",
"b  c #333377",
"n  c #3C3C7F",
"m  c #33337A",
"M  c #413536",
"N  c #443638",
"B  c #463838",
"V  c #4B3A3B",
"C  c #513D3E",
"Z  c #533F40",
"A  c #554041",
"S  c #5B4344",
"D  c #464661",
"F  c #45456B",
"G  c #4B4B6E",
"H  c #505168",
"J  c #515172",
"K  c #5B5B72",
"L  c #604646",
"P  c #624748",
"I  c #654849",
"U  c #6B4C4C",
"Y  c #704F4F",
"T  c #714F50",
"R  c #755152",
"E  c #7B5455",
"W  c #7E5658",
"Q  c #61617A",
"!  c #6B6B7D",
"~  c #000081",
"^  c #00008E",
"/  c #0D0D88",
"(  c #010193",
")  c #01019B",
"_  c #141483",
"`  c #15158A",
"'  c #14149B",
"]  c #1E1E95",
"[  c #1D1D9A",
"{  c #0000A3",
"}  c #0101AA",
"|  c #0808AB",
" . c #0101B4",
".. c #0000BA",
"X. c #1515A6",
"o. c #1414AB",
"O. c #1717B3",
"+. c #1B1BB3",
"@. c #282881",
"#. c #2B2B98",
"$. c #25259D",
"%. c #32328F",
"&. c #3F3F88",
"*. c #363693",
"=. c #37379D",
"-. c #2020AD",
";. c #2D2DAD",
":. c #2A2AB6",
">. c #2F2FB8",
",. c #3838A2",
"<. c #3D3DAB",
"1. c #0101C1",
"2. c #0000CC",
"3. c #0909C5",
"4. c #0909CB",
"5. c #0000D1",
"6. c #0F0FD8",
"7. c #1212CE",
"8. c #1B1BC7",
"9. c #1212DA",
"0. c #1A1AD7",
"q. c #2222C8",
"w. c #2626D5",
"e. c #2020D9",
"r. c #3636C6",
"t. c #3939C6",
"y. c #3E3EE3",
"u. c #3131F2",
"i. c #424280",
"p. c #494985",
"a. c #4A4A8D",
"s. c #48479D",
"d. c #4A4A94",
"f. c #575783",
"g. c #545489",
"h. c #5C5C89",
"j. c #52529D",
"k. c #5F5F95",
"l. c #5B5B98",
"z. c #545493",
"x. c #4444A8",
"c. c #4D4DA1",
"v. c #4343B0",
"b. c #5252B2",
"n. c #6A5698",
"m. c #646496",
"M. c #676798",
"N. c #686893",
"B. c #6B6B9A",
"V. c #717184",
"C. c #75758B",
"Z. c #7D7E87",
"A. c #7A7A8C",
"S. c #797991",
"D. c #79799D",
"F. c #6A6AA6",
"G. c #6A6AB3",
"H. c #6363B2",
"J. c #7474AE",
"K. c #7374A2",
"L. c #7B7BB7",
"P. c #4343C1",
"I. c #5757C8",
"U. c #5C5CCA",
"Y. c #5C5CC4",
"T. c #4A4AEE",
"R. c #4040F5",
"E. c #7C7CC2",
"W. c #6060E3",
"Q. c #6C6CE8",
"!. c #7474E7",
"~. c #805758",
"^. c #83595A",
"/. c #8A5C5D",
"(. c #925D5E",
"). c #965F60",
"_. c #9B6162",
"`. c #CF7071",
"'. c #D26E6E",
"]. c #D56F70",
"[. c #D37172",
"{. c #D87171",
"}. c #EE7777",
"|. c #EF7778",
" X c #EB797A",
".X c #F07878",
"XX c #D2798B",
"oX c #81808C",
"OX c #848491",
"+X c #898995",
"@X c #8A8A9A",
"#X c #93939D",
"$X c #8484A7",
"%X c #8080AF",
"&X c #8C8CAA",
"*X c #8C8CA5",
"=X c #8A8AB4",
"-X c #8787B7",
";X c #9393A3",
":X c #9A9AA1",
">X c #9B9BAC",
",X c #9292B5",
"<X c #9696BA",
"1X c #9B9BB4",
"2X c #A3A3A7",
"3X c #A3A3AB",
"4X c #AAAAAE",
"5X c #A3A3B4",
"6X c #A7A7B9",
"7X c #A7A8B2",
"8X c #AAAAB1",
"9X c #AEAEB9",
"0X c #AFB0B7",
"qX c #B1B1B5",
"wX c #B4B4BC",
"eX c #B9B9B7",
"rX c #BCBCBE",
"tX c #8A8AC3",
"yX c #8787D3",
"uX c #9D9DC2",
"iX c #9797D5",
"pX c #B6B6C2",
"aX c #B2B2CF",
"sX c #BEBEC0",
"dX c #BFC0BF",
"fX c #BFC0C1",
"gX c #DF898A",
"hX c #C5B1B2",
"jX c #C9B5B5",
"kX c #CCB8B6",
"lX c #CDB9B8",
"zX c #E18A8B",
"xX c #E88F90",
"cX c #EA9191",
"vX c #F58281",
"bX c #F98584",
"nX c #F59C97",
"mX c #C1C1C1",
"MX c #C7C8C4",
"NX c #CBCBC5",
"BX c #CDCCC8",
"VX c #CFD0C6",
"CX c #D0CFCB",
"ZX c #D3D3C4",
"AX c #D3D2CB",
"SX c #D9D5CA",
"DX c #DCDACB",
"FX c #D6D6D0",
"GX c #D8D8D1",
"HX c #E0DCCC",
"JX c #EBD4C8",
"KX c #E4E4C6",
"LX c #E3E1CB",
"PX c #E8E8CE",
"IX c #E3E0D0",
"UX c #E8E5D6",
/* pixels */
"* * * M M M N N B B B B V V V C C C C C A A A S A S S S S S I I I U I U I U Y Y Y T T R R E R E E W W ~.^.^.^.^././././.",
"* * * M M M M N B B B V V V V C V C C C Z A A S S S S S S I I I I I U I U U Y Y Y T R T R E E E E W W ~.~.^.^.^.^./././.",
"* * HXDXSXSXSXSXSXSXSXAXSXSXSXSXSXSXHXIXDXSXSXLXLXDXSXSXSXSXSXSXSXSXGXAXDXSXSXSXSXHXUXT E R E E E W W W ^.^.^.^././././.",
"* * UXSXBXBXBXCXBXBXBXBXCXVXBXCXCXAXSXSXMXwXrXBXSXSXVXNXCXBXBXZXVXBXVXBXCXVXBXBXNXSXUXR R R R E W E W W ^.^.^./././.(./.",
"* * IXMXwXrXrXrXlXsXrXsXrXsXsXsXsXMXqXK.s.,.<.b.-XwXMXdXhXzX X XzXhXfXfXdXfXdXjXzX|. X`.^.R R E W W W ~.^.~.^.^././././.",
"* * IXBXrXlXfXfXmXsXfXfXsXrXsXmXBX7Xg._ ( }  . .+.G.rXZXzX X X X XgXdXdXfXdXdXzX X X X X].R E E E W W ~.(.{. X X[._././.",
"* * IXBXdXfXfXfXmXmXmXmXdXdXmXMXeXf.7 0 ) ..0.9. .-.=XNX X X& &  X XfXdXdXdXfX X X& &  XXX~.E E E W W ~.[. X X X X{././.",
"* * IXBXrXfXfXfXdXmXmXmXmXsXMXBXOX3 > ~ ' P.Q.T.3.} x.9X X X& &  X X X X X XzX X X& &  X.X.X|.]. X X X[. X X& &  XzX_./.",
"* * IXBXsXrXdXmXmXmXmXmXmXsXBXCXQ O : _ G.sXaXU.| } [ ,X X X& &  X X X X X X XzX X X X X X X X X X X X X X X& &  X X[./.",
"* * LXBXsXmXmXmXmXmXmXmXmXsXBXBXK o - i 1XPXMXG.{ ^ ` &X X X& &  X X& & & &  X X X& &  X X& &  X& & &  X X& & & &  XXX/.",
"* * IXBXrXmXmXmXmXmXmXmXmXsXMXAXV.$ O 2 M.6X&X=.^ ~ @.>X X X& &  X& &  X X& &  X X& &  X X& & &  X X& &  X X& &  X X{.(.",
"* * IXBXrXdXmXmXmXsXmXmXmXmXmXMXA.1 o = t n @.w 6 > p.qX X X& &  X& &  X X& &  X X& &  X X& &  X X X& &  X X& &  X X_./.",
"* * IXBXdXdXmXmXsXmXmXmXmXmXMX&XF 2 O O = = - - = d *XBX X X& &  X& &  X X& &  X X& &  X X& &  X X X& &  X X& &  X X/.).",
"* * IXBXrXdXmXdXmXmXmXmXdXBXsXg.8 6 > = O O < < f A.MXBX X X& &  X& &  X X& &  X X& &  X X& &  X X X& &  X X& &  X X/./.",
"* * GXBXrXdXmXmXmXmXmXmXmXBX5Xc : 6 6 > > 4 F V.2XkXzX X X X& &  X& &  X X& &  X.X& &  X X& &  X X X& &  X X& &  X X_./.",
"* * IXBXrXdXmXmXdXmXmXmXBXmXD.y > > 6 9 6 r g.wXGXzX X X X X& &  X& &  X X& &  X X& & XX X& &  X X X& &  X X& &  X X[./.",
"* * IXBXrXdXfXfXmXmXdXdXZXwXp.7 > > 6 6 5 q l.sXfX X X& & & &  X X X& & & &  X X X& &  X X& &  X X X& &  X X X& &  X X/.",
"* * IXBXrXdXMXdXmXmXdXdXBX5Xz > 6 6 6 6 5 &.5XMXfXzX X X X X X XzX X X X X X XzX X X X X X X X X[. X X X X[. X X X X[./.",
"* * IXBXrXdXfXMXmXdXMXNXeXB.e > 6 6 6 6 x 1XAXMXfXjXzX X X X XzXjXgX X X X XzXjXgX X X`.`. X X`./.[. X X[._.[. X X[._./.",
"* * IXBXrXdXfXfXMXmXBXDX7Xm > > 6 6 > z *XSXBXfXMXdXdXfXMXfXfXfXfXmXmXmXfXfXfXfXfXBXUXR R R E E W W W W W W ^.^././././.",
"* * HXBXrXfXfXfXmXmXMXAX*Xe : 6 6 > i $XVXBXfXfXdXmXsXmXdXMXdXdXmXmXmXfXdXdXfXdXsXBXUXR R R R E W E W W ^.^.^.^././././.",
"* * IXBXfXfXfXfXBX9X%XH.=.w > 6 6 8 k.rXAXdXfXfXmXmXmXmXfXfXmXmXmXjXcXvXvXcXjXfXjXcXvX.X'./.'.}. X`./.^.^.^.^./././././.",
"* * IXBXrXlXBXMX;Xd.[ |  .} ^ 9 8 a.7XMXMXfXfXfXmXmXmXmXmXmXmXmXmXcXvXvXvXvXcXfXcXvXvX.X}.'.}.}.}.}.[.^.W ^.^.^././././.",
"* * IXBXrXMXmX;Xm 0 (  .2.0...) *.1XZXMXlXfXfXfXmXmXmXmXmXmXmXmXdXvXvX& & vXvXfXvXvX& & }.}.}.& & }.}.^.^.^.^.^././././.",
"* * IXBXsXBX3XF > 0 ) +.y.R.6. .b.wXNXNXMXlXmXdXmXmXmXmXmXmXmXmXfXvXvX& & vXvXjXvXvX& & }.}.}.& & }..X'..X.X.X.X{._./.(.",
"* * IXMXMXBX+X< - 9 #.L.iXW.7. .;.G.-XpXMXNXMXdXmXmXdXmXmXmXmXmXfXbXvX& & vXvXcXvXvX& & }.}.}.}.}.}.'..X.X.X.X.X.X{._./.",
"* * IXBXMXBXZ.# O q F.AXCXE.O.} ) O.q.I.<XMXNXdXmXmXmXmXmXmXmXmXmXcXvXvX& & vXvXvX& & }.}.}.}.& & }..X.X& & & & .X.X{._.",
"* * IXBXmXBXoX# . , B.DXZXJ.' ( } 1.2.4.r.E.pXNXmXmXmXmXmXmXmXmXfXjXvXvX& & vXvX.X& & }.}.}.}.& & }.}.& & & & & & .X.X{.",
"* * GXBXmXCX;Xa   O k N.B.%.w 9 ) 2.5.5.2.8.Y.uXNXNXmXMXVXBXZXZXMXdXvXvX& & vXvXbX& & .X}.}.}.& & }.& & .X.X.X.X& & .X.X",
"* M IXBXmXBXqXK +   O - > > > : 6 (  .2.5.2.4.t.E.pXBXeX5X,X-X<XwXMXcXbXvX& & vX& & vX.X'.}.}.& & }.& & & .X.X.X.X.X.X{.",
"* * IXBXsXmXMX:XD $ . . . O ; O o O > ~ } 1.2.2.7.Y.<XK.=.X.| +.b.<XkXvXvX& & vX& & bX.X^.}.}.& & }.}.& & & & & .X.X{._.",
"* * IXBXsXrXMXmX8XC.g % % s F 1 . . o O - 9 } 1.2.3.] _ )  .1.2.1.>.-XvXvX& & vX& & vX.XR }.}.& & }.}..X& & & & & .X.X{.",
"* * IXBXsXsXmXMXBXrX>X#X#X:X@Xv @ + + . . O - 6 ) { 0 9 )  .e.u.9...v.XXvX& & vX& & bX}.R }.}.& & }.}..X.X.X}.& & & .X.X",
"* * IXBXsXdXdXmXdXBXCXFXGXFXwX;XA.h.G h ; .   o - > 6 ~ ' b.yX!.w. .-.XXbXvX& & & vXbX'.R }.}.& & }.& & .X.X.X.X& & .X.X",
"* * LXBXrXdXdXMXmXmXmXMXMXMXMXAXFXmXqX;XC.J v a $ o : 9 j.rXKXuX:.} ( n.vXvX& & & vXbX^.R }.}.& & }..X& & & & & & .X.X[.",
"* M GXBXsXdXdXfXmXmXmXmXsXsXmXMXMXBXCXCXAXdX3X@XQ $ O > z.MXLX<X$.^ w a.vXvX& & & bXbXR R }.}.& & .X.X.X& & & & .X.X{._.",
"* * PXBXsXsXdXfXdXdXfXfXsXmXsXsXsXsXmXMXBXBXBXGX8Xg . = y N.$Xj./ 9 q h.cXvXvXvX.XbXnXY R '.}.}..X.X'..X.X.X.X.X.X{._./.",
"* * GXBXlXdXdXfXmXMXfXfXmXmXmXmXmXmXmXsXrXsXmXFXdXQ X   = , e 8 > : t @XlXcXvXbXbXcXJXR R /.'.}..X'.(.'..X.X.X X'._././.",
"* * IXBXsXfXfXfXmXdXfXfXmXmXmXmXmXmXmXdXmXmXdXmXBX4Xj     o o o o 1 V.jXfXMXfXdXlXBXUXR R E E E E W W W W ^.^./././././.",
"* * LXBXrXfXfXfXdXmXfXfXlXmXsXmXdXmXdXdXsXsXsXrXMXCX:XH a X . X g Z.eXBXfXfXdXdXrXBXUXR R R E R E W W W W ^.^.^.^./././.",
"* * IXBXpXeXrXrXsXrXrXrXrXrXrXrXrXrXrXrXrXrXrXrXpXMXBXqX+X! K ! :XfXBXfXrXrXsXsXwXNXUXR R R E E E E W W ^.^.^./././././.",
"* * IXAXBXBXBXBXBXBXBXBXBXBXBXBXBXBXBXBXBXBXBXBXBXBXCXSXGXGXGXGXGXCXBXBXBXBXBXBXNXAXUXR R R E R E W W W W ^.^.^.^./././.",
"* * HXIXIXIXIXIXIXIXIXIXIXIXIXIXIXIXIXGXIXIXIXIXIXIXPXIXIXUXUXUXIXIXIXIXIXIXIXIXIXIXUXR R R E E E W W W ^.^.^.^././././.",
"* * M * M * B M B B B V V V V Z C C A Z C A S A S S S S P S P I I I I I U U U Y Y R R R R R E R E W W W W ^.^./././././.",
"* * * * M M M B N B B B B V V Z Z Z Z Z Z C S Z S S S S S P P I I I U U U U U Y Y Y R R R E E E E W W W ^.^.^.^.^./././."
};
