/* XPM */
static char *squid_03_04_ctrl[] = {
/* columns rows colors chars-per-pixel */
"60 121 256 2",
"   c #020101",
".  c #0B0302",
"X  c #0C0A02",
"o  c #06070A",
"O  c #130C01",
"+  c #1B0C01",
"@  c #170503",
"#  c #150913",
"$  c #1B1201",
"%  c #181606",
"&  c #161515",
"*  c #0A0E11",
"=  c #171024",
"-  c #192309",
";  c #260A04",
":  c #221300",
">  c #2A1302",
",  c #2A1A01",
"<  c #261908",
"1  c #281816",
"2  c #360802",
"3  c #371903",
"4  c #361B13",
"5  c #270714",
"6  c #2B1727",
"7  c #282406",
"8  c #292415",
"9  c #342400",
"0  c #3B2301",
"q  c #382906",
"w  c #372716",
"e  c #3A3403",
"r  c #363313",
"t  c #272727",
"y  c #362825",
"u  c #38342A",
"i  c #353334",
"p  c #1F2921",
"a  c #3A3641",
"s  c #3E4204",
"d  c #3A4247",
"f  c #461B03",
"g  c #4A150B",
"h  c #442400",
"j  c #432B02",
"k  c #482805",
"l  c #462815",
"z  c #473505",
"x  c #493716",
"c  c #562904",
"v  c #542817",
"b  c #573703",
"n  c #573816",
"m  c #462A23",
"M  c #463826",
"N  c #563925",
"B  c #502F31",
"V  c #663802",
"C  c #653817",
"Z  c #71340B",
"A  c #653729",
"S  c #561B14",
"D  c #4B3545",
"F  c #4B4406",
"G  c #574606",
"H  c #594616",
"J  c #585404",
"K  c #514C16",
"L  c #484326",
"P  c #574727",
"I  c #514B32",
"U  c #684706",
"Y  c #684717",
"T  c #675505",
"R  c #675717",
"E  c #764706",
"W  c #764917",
"Q  c #785705",
"!  c #785517",
"~  c #674824",
"^  c #695527",
"/  c #665434",
"(  c #754A27",
")  c #775728",
"_  c #785836",
"`  c #6C4937",
"'  c #676604",
"]  c #786708",
"[  c #786618",
"{  c #7A7618",
"}  c #746F0E",
"|  c #786627",
" . c #716C2E",
".. c #5F601A",
"X. c #575754",
"o. c #4D4D4A",
"O. c #6C574A",
"+. c #73674F",
"@. c #727271",
"#. c #5A5C5D",
"$. c #757A82",
"%. c #7D8421",
"&. c #823413",
"*. c #874C18",
"=. c #865807",
"-. c #865717",
";. c #965805",
":. c #975918",
">. c #8D4A0A",
",. c #885826",
"<. c #89552E",
"1. c #876706",
"2. c #886616",
"3. c #986708",
"4. c #976518",
"5. c #987409",
"6. c #977618",
"7. c #86760F",
"8. c #876728",
"9. c #866734",
"0. c #887429",
"q. c #877735",
"w. c #966827",
"e. c #966736",
"r. c #987627",
"t. c #987636",
"y. c #A7570B",
"u. c #A56817",
"i. c #A67818",
"p. c #B6791A",
"a. c #AA6E09",
"s. c #A66927",
"d. c #A67827",
"f. c #A67835",
"g. c #B67726",
"h. c #AE6E34",
"j. c #A55F2B",
"k. c #8D7048",
"l. c #857871",
"z. c #AA774B",
"x. c #84594B",
"c. c #C77911",
"v. c #C8792B",
"b. c #C57B47",
"n. c #8B7A89",
"m. c #988417",
"M. c #918A10",
"N. c #858426",
"B. c #998529",
"V. c #948F31",
"C. c #A58619",
"Z. c #B69819",
"A. c #AF8B0F",
"S. c #A98727",
"D. c #A78637",
"F. c #A89427",
"G. c #A59736",
"H. c #B78726",
"J. c #B88836",
"K. c #B79729",
"L. c #B99537",
"P. c #B3A92F",
"I. c #ADA617",
"U. c #948B49",
"Y. c #B68847",
"T. c #B08E4E",
"R. c #B8A644",
"E. c #B0AD4E",
"W. c #968674",
"Q. c #BCC54A",
"!. c #C69817",
"~. c #CF8E15",
"^. c #C68A27",
"/. c #C88739",
"(. c #C69629",
"). c #C69837",
"_. c #D68B27",
"`. c #D79728",
"'. c #D89636",
"]. c #D48835",
"[. c #D6A718",
"{. c #D2AF12",
"}. c #C8A728",
"|. c #C7A637",
" X c #D9A627",
".X c #D6A836",
"XX c #D7B627",
"oX c #DAB837",
"OX c #C8B72E",
"+X c #E69115",
"@X c #E6932D",
"#X c #E9AB16",
"$X c #E6A936",
"%X c #E7B437",
"&X c #EEAB30",
"*X c #C79845",
"=X c #CF944B",
"-X c #C9A446",
";X c #DBA645",
":X c #D2B34E",
">X c #CFAD64",
",X c #EB9D4B",
"<X c #ECAE49",
"1X c #CD9D66",
"2X c #D4C934",
"3X c #EAC932",
"4X c #DECD1C",
"5X c #D0CB4A",
"6X c #EDCA48",
"7X c #E3DB64",
"8X c #BFC026",
"9X c #8F8F8E",
"0X c #9CA1A8",
"qX c #A69B92",
"wX c #B7B8B7",
"eX c #AFACAB",
"rX c #A49EA1",
"tX c #B3BDC5",
"yX c #C6BCAF",
"uX c #CAAD8B",
"iX c #CBC4B4",
"pX c #E3D1BD",
"aX c #C6C7C7",
"sX c #DCDCDC",
"dX c #D8D6D5",
"fX c #D1D0CF",
"gX c #DADCE3",
"hX c #DBD5F4",
"jX c #DBE2DA",
"kX c #DBE2E5",
"lX c #E4DDD9",
"zX c #E5DBCC",
"xX c #E3DEE3",
"cX c #E3E2DB",
"vX c #E8E6DC",
"bX c #F5ECD9",
"nX c #E4E4E4",
"mX c #E4E4EA",
"MX c #E4E9EB",
"NX c #E9E5E3",
"BX c #E9E5EA",
"VX c #EBEBEB",
"CX c #E8EAE4",
"ZX c #ECECF1",
"AX c #E6E8F2",
"SX c #ECF2E9",
"DX c #ECF3F6",
"FX c #F2EBE8",
"GX c #F3ECF5",
"HX c #F2F2ED",
"JX c #F9F8E9",
"KX c #F1F1F1",
"LX c #FCFBF4",
"PX c #FDFDFD",
"IX c #F6F6F8",
"UX c #C1C2C3",
/* pixels */
"1.C.:XS.W 3 P q . 8 ~ h ; @.zXhXlXsXjXfXvXjXFXIXPXPXPXPXPXPXPXPXPXPXPXPXPXPXPXPXPXPXPXPXPXPXPXPXPXPXPXPXPXPXPXPXPXPXPXPX",
"l W m.6.G.t.[ N. .3 R :X| % yXfXlXdXjXkXCXdXCXsXZXIXPXPXPXPXPXPXPXPXPXPXPXPXPXPXPXPXPXPXPXPXPXPXPXPXPXPXPXPXPXPXPXPXPXPX",
"6 < R G.5.7.C.P.P.] G 9.O.7 U.F N W.cXlXxXBXmXgXgXnXKXPXPXPXPXPXPXPXPXPXPXPXPXPXPXPXPXPXPXPXPXPXPXPXPXPXPXPXPXPXPXPXPXPX",
"  O , R G.I.C.7.Q.:Xm.n l 7 w < C 3 O.zXBXdXBXcXNXnXcXMXIXPXPXPXPXPXPXPXPXPXPXPXPXPXPXPXPXPXPXPXPXPXPXPXPXPXPXPXPXPXPXPX",
"&   . $ | :X2XF.M.P.6X5Xm.J % r T.t.3 +.BXAXsXjXnXnXcXsXnXIXPXPXPXPXPXPXPXPXPXPXPXPXPXPXPXPXPXPXPXPXPXPXPXPXPXPXPXPXPXPX",
"0Xp & & 8 F P.3X2XI.I.2X2XP.x F =.:Xf.j l.AXkXlXsXcXnXkXcXZXPXPXPXPXPXPXPXPXPXPXPXPXPXPXPXPXPXPXPXPXPXPXPXPXPXPXPXPXPXPX",
"PX9X&   i w J 2X4X3XOXq.G.5XE.N.C.C.>X9.% 0XGXlXnXcXmXnXnXnXMXKXIXPXPXPXPXPXPXPXPXPXPXPXPXPXPXPXPXPXPXPXPXPXPXPXPXPXPXPX",
"PXdX$.i * r F V.4XG.N.7 K J I M.|.I.5.b % $.xXNXBXsXdXnXKXMXNXMXKXIXPXPXPXPXPXPXPXPXPXPXPXPXPXPXPXPXPXPXPXPXPXPXPXPXPXPX",
"PXPXsXqXo 7 L < E.5Xs U.L s K I M.Q.M.% r +.#.eXkXAXnXlXBXhXAXvXnXVXIXPXPXPXPXPXPXPXPXPXPXPXPXPXPXPXPXPXPXPXPXPXPXPXPXPX",
"IXPXPXvXX.O % O G.2X..%.s K e } P.V.Q.- u F , 3 9XnXlXMXZXhXMXvXNXVXHXIXIXPXPXPXPXPXIXPXPXPXPXPXPXPXPXPXPXPXPXPXPXPXPXPX",
"PXPXPXPXeX8 o . ' 2X%...%.7X .M.V.r K 7 # F 0.r.: l.AXdXnXIXxXvXCXMXMXCXKXIXPXPXPXPXPXPXPXPXPXPXPXPXPXPXPXPXPXPXPXPXPXPX",
"PXKXPXPXMX@.o o 7 2X%...I.Q.%.8X%.- X 7 @ b >X:X0 B PXkXkXMXxXFXVXNXBXMXVXHXKXIXPXPXPXPXPXPXPXPXPXPXPXPXPXPXPXPXPXPXPXPX",
"PXLXPXHXBXaXD * X J G.e  .%.' 7X..K u I 1 q 2.L.G I BXUXjXnXkXBXNXBXVXVXMXVXZXKXKXIXPXPXPXPXPXPXPXPXPXPXPXPXPXPXPXPXPXPX",
"LXPXHXMXgXAX0Xo o L P.U.e V.5X%.7 ..r L u e T 7.T.H P $ x aXmXAXnXnXVXVXCXMXMXZXHXKXIXIXPXPXPXPXPXIXIXPXIXIXPXPXPXPXPXPX",
"KXHXnXnXgXmXaX& & + V.R.G.' } M.%.%...- r K OX! D.t.b 4.b 4 fXgXcXmXnXnXBXBXCXVXMXVXVXKXHXIXKXIXKXIXIXKXKXIXPXPXPXPXPXPX",
"CXnXnXsXxXsXxXd $ @ ] F.P.7XP.7X8X' Q.V.< K 3XT.6.L.`..X>Xv 6 KXnXsXnXnXMXCXFXVXFXZXKXVXZXHXVXVXVXVXFXVXHXKXIXPXPXPXPXPX",
"nXCXnXnXnXsXaXt #.< z C.S.1...E.5X .r u @ x G.m.K.E  X_.#X^.f n.FXNXzXlXNXHXMXZXKXKXKXVXVXZXVXVXVXVXKXZXKXKXIXPXPXPXPXPX",
"MXMXnXcXnXnXaXt +.L 0 S.-.G T.9 ..r J ' I.] r F.:X5.u.%Xc._.s.@ wXZXnXAXNXnXnXZXZXHXVXVXVXVXHXVXVXKXKXKXVXKXIXPXPXPXPXPX",
"nXMXNXnXBXMXnX@.X.8 5 8.U 2.~ e y w P.8X5XP.q.0.:X6.f p.a.@XH.V #.hXgXAXmXnXMXVXVXVXVXMXVXHXKXKXVXHXKXHXHXKXKXPXPXPXPXPX",
"cXMXVXnXsXcXZXwXI M 5 Y E T.H x < 9 7XR.z U G.t.D.G R b A.,X.X,.t sXcXkXAXZXFXMXVXVXVXVXVXVXVXZXVXZXKXKXVXHXIXPXPXPXPXPX",
"MXBXNXMXnXcXnXaXp t 5 U W r.T.F z ' >X' z x ) I.^ 8 / / T J.! f x yXzXvXsXkXMXMXVXVXNXVXVXVXVXVXZXKXKXZXSXKXIXIXPXPXPXPX",
"CXnXnXFXVXnXnXdXi o : ! W b K F 7...M.} P.G.R { z r r e 0 Q @ 4 9.uXpXJXkXsXcXnXVXVXMXVXVXVXVXVXVXHXKXKXVXKXKXIXPXPXPXPX",
"BXMXBXMXnXsXgXsXd & : 2.,.~ 3 R  .x ' 6.U.7.K ^ 7. .$ r 3 0.w y P / k.eXkXkXcXnXMXNXNXVXVXVXVXVXKXKXVXKXKXKXKXKXPXPXPXPX",
"VXFXVXMXMXnXcXsXo.X > 2.A 3 5 l > i 1 r x w w F }.G.e k.[ 9 H   + X o o.dXmXnXvXnXnXMXVXVXHXZXVXZXVXHXVXVXKXKXVXPXPXPXPX",
"KXVXMXCXNXNXxXnXX.X % w.N > G  .5 %.L L 1 . w T -.C z F.) ; 5 4 > H ` @ n.DXgXAXxXAXAXVXBXnXSXMXKXKXVXVXVXKXKXVXIXPXPXPX",
"VXNXBXBXnXnXNXNX$.* . s.l 3 | f.2 F.+.  r B.G.N.C.k.m R 7.| ~ r Z 3.).<.B 0XxXxXBXZXBXVXMXVXKXKXVXVXKXVXKXKXKXKXIXPXPXPX",
"VXNXnXnXnXnXNXNX@.& % e.l m b f z m.P % R.A.T M z  .L 9 } 0.r F ].^.!.T.4 L dXFXxXnXnXBXMXBXVXZXZXHXVXKXKXKXHXVXIXPXPXPX",
"VXMXNXMXBXnXBXMX9X% 1 :.l ` V E T.T & ^ 5X] q I F {  .q 3 ~ P q U D.2.j y 8 9XvXNXNXnXBXKXBXVXVXKXVXKXVXKXVXZXKXHXIXPXPX",
"MXNXVXVXCXnXnXBXeX= 5 >.z r.S.).[ e # f.2XR.K K 7.| 9 0 <.Y ! 9. .U b q u # i fXvXNXNXCXZXBXMXZXVXVXKXKXHXKXVXKXHXIXPXPX",
"MXMXVXMXnXnXcXnXeX= 5 :.b ! r.! q 2.b P.4X3Xm.N.[ 1 n F..Xg.=.W 9.g.Z j 8 = @ eXcXNXlXNXCXnXBXZXKXKXKXVXZXKXKXKXVXIXPXPX",
"MXMXVXVXnXkXnXnXwXX : g.R h z w ( |.b B.-X4X7XV.: M | 5.Z.%X(.5.c ^.^.n . l k +.lXNXNXnXFXBXZXGXVXKXKXKXZXHXKXKXKXKXPXPX",
"SXSXMXVXMXnXCXVXtX  ; v.t.^ r 5 g OX0.U 6.7.0.k r V.J x.Y.a.}.P.w w.;XB < ).4.( zXvXcXnXFXBXVXZXKXVXKXKXKXVXKXKXKXVXIXPX",
"KXVXVXVXmXcXkXcXrX. q T.U 3 , N m M.R.N 0 R H z [ B.) XX{.}.r.K.0 /.p.^ % k.k & I fXDXgXkXSXNXHXZXFXKXKXIXKXHXVXKXHXKXPX",
"ZXZXCXVXMXnXnXnXeXX L 8.k h / 4 4 [ ~ < : N q M z T.W t.J.w.8.b n g._.[ 9 2 2 P < qXDXDXMXbXJXnXHXZXKXKXKXKXKXZXHXZXIXPX",
"HXVXVXVXBXnXNXVX$.* 8 0 ! ) n h R R 9 x ^ I U.7 F 0.C.w.Q w.T V -Xi.h.V w.T k k 3 l UXDXMXHXnXKXZXKXKXKXKXKXKXKXKXHXIXPX",
"FXVXVXFXMXnXMXVX@.  8 b f.4.! -.G.z > T N.q.{ G z P P.2XS.2.U L.'.=.E (.*XS.k W z.h o.gXDXDXHXFXKXKXKXKXKXHXKXKXIXZXKXIX",
"ZXVXZXVXCXBXBXFX@.o @ Z g.d.J.S.) x ! K.T 8.G ] ) : h h S U f.5.a.d.t.^.d.K.t.4.Y.c 1 AXDXMXKXSXKXKXKXKXVXKXKXIXIXKXKXKX",
"KXVXVXVXCXnXnXMXX.o @ <.^.3.D.2.3 B.Q }..X4.2.-XA ^ 8.r.1XZ.H.).&X=.U ^.a.p.-.J.1Xb + fXDXZXDXDXZXHXKXHXZXKXKXKXIXKXHXIX",
"KXVXVXVXMXnXmXMXI & @ Z *X0.n 0 Q OX2.d.6X3X:Xk.b K.m.|.K.[.!.^..XZ 6.A.(.j.s.a.b j . wXPXMXDXMXKXKXFXZXKXKXKXKXKXVXVXKX",
"KXKXVXVXMXmXcXkX8 . O.U c 9 7 t K OXF.<.H.Z.1.z 6.P.b V A.*Xg.s.(.*.2..X X>.Y.5.W ) < X.fXFXMXDXKXKXZXKXKXKXKXKXKXHXHXIX",
"VXIXVXVXVXZXVXfXp : h.h.B 9 q.I J C.z.N q J T _ d.S.z R D.=.oXV v.L.Q s.z.! J.a.*._ w = iXJXbXAXKXVXVXVXVXVXVXZXKXKXKXVX",
"HXKXZXVXCXVXNXaXo x v.&.q e ! 3 B.D.v N z  . .9 U k.k 3 k V <.E  XOX!.>.*.g.%X/.0.k @ 8 JXvXmXDXKXKXZXVXVXKXKXKXKXKXKXVX",
"KXKXKXVXVXnXVXeX# U _.Z P J V Z 3X' < | G Y k.k n l [ :XB.R n 8..XK.%X[.}. X$XD.> 1 @ L JXSXGXGXVXVXKXHXKXVXHXKXZXKXKXKX",
"KXVXKXVXVXnXDX9X. a.p.S U.7.s.'.-Xe ' 2X).2.7.6.I 3 W R n q ( *XT ! w.5.5.$X&X|.z b q.+.iXJXnXIXVXVXKXKXKXVXVXZXHXKXKXKX",
"VXKXVXVXVXVXIXX.2 Z.:.5 -.5.(.%Xz.n } 3X3X&XXX X: R f.V z n K.A.H ~ 3 3 b |.5.Q K 9 ~ 2 8 9XMXIXVXKXKXKXKXKXKXIXZXKXKXKX",
"VXHXMXKXVXKXnXi C !.b 6 ,.p.-XA.c Y.2.|.%X6X.X:._ 4.Q =.4.f.oXu.k.e.R / H 9.b | f.j ; ~ +.t tXzXHXZXKXKXHXKXKXKXHXHXZXKX",
"VXZXVXHXVXKXwX* O.a.j B [ J.) b 5.7X5.=.6.5.W *.XX XH.;X%X`.~.3.6.^.Y x Y ^ x ).#X7.U 3.>X/ @.cXVXVXVXVXVXVXVXVXZXKXZXHX",
"VXFXKXDXVXDXqX  l.a.V k.T j 3 L.7X!.3.! } 2.d.OX X3.5.$X#X+X=XW z.3X] b 6.T j /.$Xe.G *.>Xx.X.AXVXVXVXHXKXKXKXKXZXHXHXZX",
"VXHXIXBXSXDXo.% k.Y.c A X.b V 6X#XoXA.{.3X<X,X%Xu.4 ^ 2.~.,Xw.' T 2.W 3.;XQ V 5.#XT.x ,.=XO.i FXnXZXAXMXKXZXVXVXFXZXKXZX",
"IXFXGXAXSXkXa o r.8.b Y n G Z.3X3XXX7X3XoX%X6X/.J.b N.E ;.g.U ^ R Q d.).=X3.Y XX,Xr.F 1.Y.H O.FXnXZXVXVXCXMXKXVXVXZXFXKX",
"IXFXGXGXSXkX= $ q.f F.OXq.G.2XZ.[.!.F.>XK.A.U b b q R ,.d.9.+ w b U F.-XJ.Z.E 1.Z E ! ,.| : l.ZXnXZXZXZXnXBXZXVXHXFXKXZX",
"ZXNXGXGXSXfX& x _ v C.T $ x OXr.).P.r.^ 1.5.[ n U./ c a.Z.R F b k.b V K.d.}.Y.1.! g.*XT $ $ yXvXBXZXZXZXVXMXFXVXMXMXMXCX",
"KXHXGXBXCXwX. z G 8.U.@ # / B.H ~ M.Q.M R C.2.) ,._ j.<X.Xx ~ W  .b f S.c c -.OX|.`.p., % M 9XzXVXAXNXBXVXVXKXVXVXVXVXVX",
"DXHXFXFXCX0XX H Y 6.|.F 7 K J Y z { %.K Q -X6.=.=.=.~.`.~.b Q b.T A b Y.n z.k 7.K._./.3 . # ; +.BXBXgXgXBXMXCXMXVXVXVXZX",
"AXCXNXVXVX$.: 9.n ] P.E...s G.2X{  .e G.K.2.:X:Xz.=.(.,X^.( -.Z ! v 4.).b R.x , [.~.H.U 3 Y _ , fXmXxXgXnXnXnXNXcXnXnXNX",
"MXFXNXVXjXX.. 0.B.b w e - %.5X3XF.> : G R.H.Q ! R Y 4.~.~.C *XK.( ! ).OX! b , P _.,XJ.8.^ k _ > 0XdXxXgXnXnXBXMXnXMXVXVX",
"ZXAXlXHXaX* O U.OXE.s s I w 8X .+ , V.P.2X%X{.!.[ z s.1.6.4.Z ! ) Q S..XT.G 3 Y.~.~.4.c ,.c l . $.kXdXdXvXdXcXkXcXmXmXnX",
"GXGXcXVX0X# 8 | w : 7  .+.$ J r K V.6X4X}.L.}..X0 L.<X:XA.H.g.i.S.k c =.1Xk W  X`.L.! 2 9.` + X @.VXdXdXNXdXsXgXgXcXnXcX",
"PXIXMXvX@.o $ z T ; w ..L L = L Q.V.I.{.2XS.T k.T B.J.w.).^.p.^.Y <.=X3.Y.V 4.[.f.q.H , w w $ 8 0XgXdXdXlXlXnXnXcXkXnXnX",
"PXIXDXkX#.* . P S.^ w % ..%.o  .P.' t.A.oX}.0 / 7.h ; H b =.5.b k >X<X.Xd.V ).5.j q $ 1 l x x @.nXfXdXsXdXsXcXsXnXnXnXnX",
"PXPXPXCXd * X ^ 2XV.N. .Q.F $ U.' G k.2.OX{.1 r F.U <.T.] S.K., G m.1.d.r.v T.t.0 < * 8 9 U c <.dXdXzXdXgXcXgXxXcXnXnXnX",
"PXPXIXcXd * 7 e 4X2X5XQ.V.+ L %.I.7.E t.5X] ; x =X/.W T m.z.b _ < 3 ( E 6.k 8.R j M 8 n E Y.w.c 9XbXNXdXMXnXCXKXMXVXVXVX",
"PXPXIXNXd * K J T E.N.I K  .N.M.7X8XI.:X1Xn Y T ).[.).|.M.c r.Q : | ( Q -Xk 3 l f k.z Y ) ,.t.! +.yXFXgXMXnXVXCXZXVXFXVX",
"LXIXPXVXi   K R.| K $ - [ 8X..J 6X2X2XK.c m OX! 6.m.k , 4 O.L.n F ] x.Y.E ! F.8.n E T Y.<.2 k F ` @.lXVXgXZXmXcXNXMXMXBX",
"PXPXIXGXi o ~ 3XXX7.F  .s ' %.e U.P.V.z z P.{.P.b > $ ..7.Q V C Y XXr.w 1 w.p. X6.E g.).Q v m M l.& tXMXjXSXMXZXBXNXVXVX",
"LXLXPXFXi O ~ OX6XP.e 7 8 E.5XP.e J e q.T.[ M.P.T 8.E.7.B.).).=Xl G q @ 4 b f t.*XU 2.i.w.l 4 0 M & tXMXjXMXMXZXVXVXVXKX",
"PXPXPXIXo.. ~ oXXX3X .- * U.E.2XT +.I  .x : q.G v B.} j ` 3.!..Xk.l v 6.9.> # , t.b Y b b ` N > @ i fXSXCXBXMXnXMXCXVXFX",
"PXPXIXPX#.o ~ 5X{.2X .7 t q G M.t.z , z 6 w V.> V z.z N B E {. XG 1 x XX).l 6 : 8.w 5 < > +.M w / qXAXMXCXNXZXMXVXVXZXKX",
"PXPXPXIX9X* n |..XoX[ K e z e R M.k  .T 7 $ , H 2.K.R B n Z.XX:.k G W '.[.d.B c ! v 4 1 $ q > ( l.zXAXjXCXnXVXMXFXVXZXKX",
"PXPXPXPXeXo 3 F.%XXX} { E. .B q [ U :X| q T b o.] 2X-.f C.OX,.f w.5.E )..XS.( 1.W e.0..., 9 ! D.k.zXkXsXCXNXBXvXVXMXMXCX",
"PXPXPXPXaX# + K.&X4X} ' E.M 5 k.b T K.w.c 6.| 3 z 9.A 2.XX) g -..X;XV 5.T.c c K.Z d.:X6., > ( t.k.zXnXnXnXBXmXCXFXZXVXCX",
"PXPXPXIXjXt : L.$X4XM.T e 4 u I.G t.i.J.4.E Y H P l f r.z z ] oX`.#Xi.R q c 8.Z.&.*.;.b n <.3 c ,.pXxXnXnXBXnXvXVXMXBXnX",
"LXPXIXPXGXD ; G.;X{.2XE.K 7 z T.J T.r.r.$XS.x j 3 Q H.5.t.Y.}.}.;X X[. Xd.v l 2.).w.>.4.h.:.s.f I fXAXgXMXBXBXmXVXVXVXMX",
"LXPXPXPXIX#.@ q.oX#X<Xt. .L $ z w P ! E T.W ; k k.B.|.D.R n U ;.3.4.(.i.k v ) T <XH.^.^.u.u.;XZ w aXAXkXvXNXMXDXMXCXVXFX",
"PXPXIXIXIX$.  H XX[.%XE _  .e r y 6 f c V k k.D.! ! n 4 q ~ ( J.6.z.n Y ~ l ; T A.p.~.^.g.u.*Xw.< wXAXkXnXCXMXkXCXMXVXZX",
"PXPXPXIXIX0X# L 2X}.%X=._ P J r e X j J.R T <.j ~ 0 , 8 # m c 6.F.,.4 z T.j f R >.g.(.!.E g c c @ qXkXmXcXcXvXMXVXVXVXVX",
"PXIXPXLXPXwX# 1 D.|.XXA.R n q.t.e % T *XK x 2 V B.H % # + k.9.v P.b j Q K.L.(.c.^.s.=.5.U m m K L eXgXMXcXcXCXZXVXVXVXVX",
"PXPXPXNXfX9X& X h K.{.4X2.j V ! 6 6 T -.l x b Z.0.: $ r + j z 9.z.c ) U |.$X Xa.[.:.-.t.N w 0 G l.iXkXmXvXCXMXmXVXVXCXMX",
"PXZXfX9Xo.t     l |.#X3X-X8.j 0 % g W ) l l N :.G > y u 0 0.[ H g b 9.( W =X,X~.C.E 9.( C ! w.g m eXnXAXNXFXBXZXCXVXBXNX",
"wX9Xo.& O i i X H 2X3X#X3X:XP ,  .S v 4 h F < C | J 7 + G e.4 4 s.*XC.2.f 4.oX`.<.W f.b <.u./.&.4 eXAXkXxXFXBXZXBXVXMXBX",
"i * t i @.wXX.* , >XXX#X<X|.v S.G.b -X2.f n , D H n h ^ w.U V k.i.*XJ.T.T b Y.w.b e.p.E :.j.H.1.< qXSXdXMXBXMXAXVXVXVXnX",
"& o.9XaXKXIX9X  + | <X3X%X!.v F.).c z.E =.9.; q k W k.t.9.h 6.C.c k -.L.M.k <.<.;.'.v.4.,.5.J.k.7 qXHXsXnXnXMXFXMXVXVXMX",
"rXaXKXPXPXPXaX& o 9 |. X[.Z.n K.`.&.c &.d.V n b :.g.v 2 > , B.E Q S.4.8.R Y |.+X`.@Xv.H.w.=.V g . 9XVXMXVXnXCXFXNXVXVXNX",
"IXPXPXPXIXPXIXX.  O 6. X.X X( -.`.`.;Xw.g f t.A ~.u.2 y M @ 9.z.;.:X2.0 f L.#X#X~._.~./.U ; b v u qXnXnXnXkXMXNXVXVXVXVX",
"PXPXPXPXPXPXPX9X*   K 3X$X.Xs.V z.K.S.A g ,.w.f c.u.C ) q 5 ! |.>.,.< 9 E $X`.$X^.+X#Xr.3 l z.z.@.iXvXcXMXMXZXmXVXNXVXVX",
"PXPXIXPXPXPXPXsXp = 4 P.;X[. X3.Z V Z A C C.U k ~.(.Z n ; ~ V Y.c.C < [  X&X,X(.,Xp.=X2.3 e.*.2 P eXbXnXVXMXAXGXVXVXVXVX",
"PXPXPXPXPXPXPXPXX.= # 2.<X#X#X`.[./././.c E ) 5 :.).k.2 _ ,.E c Z c 0.F.!.@X'.K.4.c 3 ) W &.Z Y % qXCXCXnXgXVXKXVXVXMXVX",
"PXPXPXPXPXPXIXLXqXO # j ).@X&X@X@X+X@X'.g.w.k , c ! c V =XZ H.Z.^.d.~ A Z $X&X3.c x.^ < e.=X~.Y O rXVXMXZXKXHXvXCXMXVXVX",
"PXPXPXPXPXPXPXPXKXt * @ ) *X X[.#X+X+Xv.'.i.2 V Y -  .J.3.>.,X'.'.c.Z B / [. Xb <.Z.r.2 e.,Xz.9   9XIXgXMXcXCXSXVXVXVXZX",
"PXPXPXPXPXPXPXPXPX@.X % , t.(.`.+X+X+Xv.`.4.v t.w.O 2 Z :.v.'.+X].d.^ N 5.#X$XW s.L.S.2 s.a.C : * 9XZXZXIXCXFXCXKXKXKXHX",
"PXPXPXPXPXPXPXPXKXMXp   + n 4.'.,X@X+X@X@Xi.Z >.V B k -.y._./.y.C f 4 z {.#X@X_.h.(.T h u.>.l @ u wXSXHXZXVXFXSXKXKXVXVX",
"IXPXPXPXPXPXPXPXPXDX@.* . $ ! f.].@X+X+X@X_.:.&.k 4 ` _ ;._.J.c.=X).f.g L.[.&X&X,X:X9 W v.z.~ 3 o.vXSXFXnXAXKXKXZXKXHXVX",
"KXIXPXPXPXPXPXPXLXKXaX=   . x ^ E ^.@X+Xv.@Xv.v.w.b Y -.~.c.2 Z Z !.).2 f.#X&X&X#XW + w.g.(.n o X.CXCXHXKXKXGXZXKXIXKXVX",
"HXIXPXPXPXPXPXPXJXPXIXo.* . : m f f.@X@X+X+X@X@X].w.C C s.s.C v.>.-.Y c `.&X%X@X&X-.,.z.^.i.~ ; +.bXjXVXGXZXZXZXKXKXVXVX",
"KXKXPXPXPXPXPXPXPXPXPXiXu   . . 0 e.v.c.@Xv._.@Xc.Z g.g.c W ~ h.,Xp.=.v.<X`.;.Z v A.;XJ.A.Z 3 $ X.SXcXsXVXnXVXHXVXVXVXVX",
"KXVXIXPXPXIXPXPXIXPXHXLXl.. . o : *.y.c.+Xc.c.c.v.v E (.z 0 e Y y.c.+X&XH.Q b <.z C &X!.Z *.t.r r bXHXnXHXSXHXVXKXVXHXIX",
"IXIXKXPXPXIXPXPXPXPXHXPXcXO.O $ # 4 <.>.v.v.:.w.^.6.V C k e.W b ^.a._.$X@Xp.`.&X*Xf !.].c.h.i.h i FXGXFXGXZXFXHXZXKXKXKX",
"nXVXKXKXPXPXPXIXPXPXPXLXLXwXu % . @ l j.u.c.;.*.g.g.v.c.y.=X:.n 1XZ &.j._.&X#X<Xf.3 S.>.b.^.5.k o.JXGXGXZXGXKXJXKXHXKXKX",
"KXFXKXHXIXPXPXPXPXPXPXKXLXLXl.% - X % ~ w.H.u.:.w.:.y.c.@Xp.c 2 ~ ,.4.E =X@X,XJ.9 G P G A 1.h 1 X.CXVXDXZXVXIXHXKXHXZXFX",
"MXKXMXVXHXIXIXPXPXIXIXPXLXPXdXi - % % $ n f./.y.-.y.y.v.v.V 0 < + e.g.;.1XZ W k b | / R.l G > # o.vXCXZXZXVXIXFXVXZXHXZX",
"9XKXVXVXKXVXVXIXPXPXIXPXIXPXPXrXy < - $ ; ( h.y.=.:.w.w.j.g ^ T.c f ;._.g.h > 8.$Xv.(.$Xg e.w.v I gXSXKXIXVXKXHXVXZXVXVX",
"o.ZXPXVXIXKXFXKXKXPXPXPXPXIXPXPXn.< O 1 6 4 Z u.j.:.u.;.s.Z E ,.h.b f.;X~.-.O.> &X&X&X>.2 C 1.V M zXHXSXVXVXCXVXVXVXZXVX",
"@.FXKXVXVXFXMXMXKXPXPXIXPXPXIXPXlXo.. X y 5 q H j.s.u.;.u.s.:.Z C g Z h.^.E r.q *.J..Xc z.z G ^ l yXbXFXHXDXCXSXKXVXVXVX",
"KXPXMXIXVXVXHXMXFXIXPXPXPXPXPXZXPXfXa # X < X 7 ( 2.u.v.u.:.s.D._ s.v.Z s.6.W 2 3 d./.=.}.Y.3 V g qXNXJXIXPXIXIXKXHXVXVX",
"rXnXKXVXKXVXKXVXZXIXPXPXPXPXPXIXPXIXdXi X % < O k ) :.;.g.u.a.^.:.>.;Xg.&.'.J.N 2 / 5.3.`.'.g R 7 T.SXIXJXIXPXPXIXVXVXVX",
"fXVXVXVXKXVXKXKXCXKXIXIXPXPXPXPXPXKXIXfX#.. & w ; h Y W >.>.4.u.:.Z h.,Xy.b.j.2.=.c A.`._.2.m ! % ) DXPXLXIXPXLXPXVXVXVX",
"SXKXVXVXKXMXZXVXVXMXKXPXPXPXPXPXPXPXPXHXcXo.+ y 1 : q ) ( W *.s.i.:.W h.3.u.,.A.<XZ #X<X^.c l t.7 N HXPXLXPXPXPXPXVXnXBX",
"KXZXVXKXKXNXFXZXVXVXFXIXPXIXPXPXPXPXIXIXJXfXX.O p 1 : 3 ( <.V =.:.:.-.h.a.^./.;.U.Z &X$XY.b 3 ) 9 l yXHXLXPXIXPXPXVXNXMX",
"MXVXFXKXVXBXVXVXVXVXVXVXKXLXPXPXIXPXPXIXPXKXkXX.& u w + g ( ,.>.W j.:.i.].$X`.:.3 *.&X_.s.=.U c 0 w qXLXIXPXIXPXPXHXVXKX",
"VXKXKXMXCXVXZXCXMXVXVXNXMXIXIXPXPXPXIXPXIXPXIXjXM o + 1 > v ( -.:.<.4.3.a._.&Xg.2.).$X XH.^.1Xm 3 $ _ LXDXLXPXIXPXPXIXPX",
"VXKXVXMXMXHXZXCXVXVXVXBXMXFXKXPXPXFXPXPXPXIXIXIXjXX.  . & ; n | E ! ,.4.p.^.c.~.XX&X,X$XZ.;.C O ! < Y bXIXLXPXPXPXPXPXPX",
"MXKXKXNXMXFXVXVXVXVXCXMXBXBXCXIXPXPXIXPXPXPXIXDXkXfXo.  = & : z 2.-.R <.4.p.g.%X~.>.Z 3.3X:.> L D.7 k iXIXLXPXIXPXPXPXPX",
"CXVXVXBXNXVXVXVXMXVXVXVXNXMXVXVXPXPXPXPXPXPXPXPXLXnXsXo.  & & & M ^ U -.w.e.d.d.C.F.T c T.C b b ~.*.5 W.PXLXLXPXPXPXPXPX",
"CXVXCXMXMXCXVXBXVXVXNXMXMXNXMXVXKXIXPXPXPXPXPXIXPXKXHXfXi   & O . q W *.E ,.2.i.L.:Xw.V w.-.Y.c i.z.+ #.LXJXPXPXPXPXPXPX",
"BXVXFXVXCXMXMXNXMXNXMXnXnXNXMXVXVXIXPXPXPXPXPXIXPXKXPXPXUXi X * * 7 Y :.:.=.E 4.i.H.z.*X).d.;X*.<.t.$ t HXJXPXPXPXPXPXPX",
"BXMXVXMXBXMXnXNXNXnXNXnXnXnXnXNXNXVXIXPXPXPXPXPXPXPXPXIXPXwXt * * X l e.i.1.4.f.i.i.g.H. XZ.i.c c z X   aXLXPXPXPXPXPXPX",
"nXVXBXnXnXnXBXnXnXNXMXMXNXMXnXnXnXnXVXIXPXPXPXPXIXPXPXPXIXPXwX& o & + b s.i.-.-.a.H.=X~.{.`.a.:.5.q t * 9XIXPXPXPXPXPXPX",
"MXNXnXnXgXvXnXnXNXMXnXNXNXnXMXnXnXnXnXKXPXPXPXPXPXPXPXPXPXIXPX9X* # * @ ) Y.w.! 3.Z.(.!. X XXX*X(.O.t t #.IXJXPXPXPXPXPX",
"nXMXnXnXnXMXBXnXnXnXnXnXMXNXnXnXnXnXnXVXKXPXPXPXPXPXKXPXPXPXKXIX@.* & * > ) Y.r.4.H./.i.3.2.).-XH.z.L t i CXPXPXPXPXPXPX",
"NXNXnXnXNXVXMXcXnXnXnXnXnXMXnXnXnXVXVXnXNXIXPXPXPXPXPXPXPXPXPXIXJXo.  o @ : W D.w.6.L.).f.W =.U >.r.^ X 8 iXPXIXPXIXPXPX",
"MXnXnXnXnXNXMXNXnXnXnXnXnXnXnXnXnXMXnXcXcXnXIXPXPXPXPXPXPXPXPXPXPXdXI 8 o O : H t.g.~.^.J.9.: [ -.k f.q * $.IXPXPXPXPXPX"
};
