/* XPM */
static char *squid_03_03_img[] = {
/* columns rows colors chars-per-pixel */
"113 121 91 1",
"  c #020202",
". c #0B0B03",
"X c #0B0B0B",
"o c #0C0817",
"O c #170400",
"+ c #100E02",
"@ c #190400",
"# c #141206",
"$ c #171509",
"% c #121212",
"& c #191A15",
"* c #1C1C1C",
"= c #2B1400",
"- c #211610",
"; c #222014",
": c #21221D",
"> c #28261A",
", c #3F2600",
"< c #232323",
"1 c #2D2427",
"2 c #2C2C2C",
"3 c #352321",
"4 c #36322F",
"5 c #333333",
"6 c #3D3D3C",
"7 c #412809",
"8 c #413D3A",
"9 c #553B20",
"0 c #434343",
"q c #4B4B4B",
"w c #524E4B",
"e c #535353",
"r c #5A5B56",
"t c #5B5B5B",
"y c #656565",
"u c #6A6663",
"i c #6D6D6D",
"p c #706B67",
"a c #737373",
"s c #7C7C7C",
"d c #8B6C36",
"f c #A17F35",
"g c #A48028",
"h c #81817F",
"j c #898B7E",
"k c #C49136",
"l c #848484",
"z c #8D8986",
"x c #8B8B8B",
"c c #8E8691",
"v c #90918D",
"b c #929292",
"n c #9D9D9D",
"m c #A29E9D",
"M c #A59AA0",
"N c #A2A2A2",
"B c #ABABAA",
"V c #B3AFAC",
"C c #B4B4B4",
"Z c #BBB7B6",
"A c #BABABA",
"S c #C1BDBC",
"D c #C3C3C3",
"F c #CCC8C7",
"G c #CCCCCC",
"H c LightGray",
"J c #D3D4D8",
"K c #DAD6D4",
"L c #DBDBDB",
"P c #E2DEDD",
"I c #E5E5E5",
"U c #E5E4EA",
"Y c #E7E8E3",
"T c #E9E7E3",
"R c #EAE6EC",
"E c #EBEBE5",
"W c #ECECEC",
"Q c #EDEBF1",
"! c #F0EEEC",
"~ c #F1EDF4",
"^ c #F2F1ED",
"/ c #F7FCE8",
"( c #FCFCEE",
") c #F2F2F2",
"_ c #F3F2F8",
"` c #F5FCF5",
"' c #F5FCFB",
"] c #F8F5F3",
"[ c #FAF4F8",
"{ c #FCFAF5",
"} c #FCFCFC",
/* pixels */
"['}}}}{}}}''{'{}['{{['''}'{''['['`_`_['[}'}}}}}'[}{'['}{'{`[][[')_`))))QWW))))Q^Q^Q^WWWWWWEWWWUEUW`}}}[}{p-O7dggk",
"'[{}'}}[[[]`_[[['[['{''[{[[[[`['[[`[{[{')))]]]])[''[}'}}[['[)]`')]])]_)))))))))))))QQ^WW)WWWWEWUWQ[}}}}}')[M3@=,9",
"'[['}[[{'['{'[}[}['[``])`[`_)[{{'_{``[['}}}'}'}}_`{[[''}`''')`[}[``[[`_)))))))))`))))W^)WWWURWEEW)}}}}}}''}}Uc2 o",
"`[{}{''}'{['[''}{}'{[[_[)_]{`[['{`_[_{_`)[))Q)))[{'[{'[[[[[{)[[}'[[[`[_``)))))))))))))))WWIWUERIU)}}}}}}/`}}_}Js&",
"]['['{['`']```[`[}'}'[[{[[`[['[''[[_`][`}'{'[['''['{[``_}[]`[['}[}'}{'_`_{_)))))))Q)_)))))WWWWEWE)'}}}}}({{}}}{Wj",
"'[[{}'{'[[[[{_[[_'['}}'}''[[`''['_``]_]_''[[[`{[{'[`[_[]}_))''}{{'{'['[[[_`])]))Q))))`_`)))WQQWWUW['}}}[}~}}[[}}'",
"[['}[{[[}}}''[['[`[_{['}'[[]_['{{[`_]`)`[[`{'`['[[[''['{}[)Q)`['}{'['[_{``[`[_`])``]]_)_Q)))^WEWEW^`}}}}}}}}}}_}'",
"'`[''}'}}}'[{_]`]`[`{''[}{'`{_`['[[]__)_)]_'[[[{`]'['{}}'')WWQ){'[}{}']{[[['[`_)[['[_)]`)]`_`)QQWUW`}}}}`}'`}}'}'",
"]{['[[}}}}'[[_`]['}'}[['}'''''[`{_[[_['[`[`[{[`_)_['}}[)}}`WUW))[['}{[}}'[''''[''''{[``[``)[[`QEWEIIWW`'}}}}}}}}}",
"]'}[``[}'[{'{`]_`[['}'[]'[[[{[[[`])``[{)]_'['[_`]]]'{''{^)QRUW^W{'}''['}`{{[{[`[{[[`{'_[]_`[_`)WWUIIIUWW[}}}}}}}}",
"'''[])[']['[]`))][{}{'``{][``_'`_]]`'{`)`''`[``__``)])['][[]`_[`'''[{_['_[{[[[[{[[[['[`{'[)__)`)WWWIIIILW_}}}}}}}",
"[[`))Q)`))`__'[__]`'[[]_`_][`[[`[[_'[}_)[[[[_[))])[)))[')]'`)`[][[`_`]'[}''}}'''`]`'[[['{_)`]]__)QQWEWRRIE)`}}}}}",
"['{]))][))'['[`]_['[[[[[][`['`[['`_'}{[``])_]))))]_``)]_WQ)Q))`)[`)`]{''[''}}'[[[``[['[']__[`)`]`))Q))WWUWWW]}}}}",
"'['[)`_'_`[_{_[[`[`_``'__[_`[[['))`_[[_))_``[)))_)_)_))))]``)[['[))[['[[{[[{[`'{`[[{[`{')``[`__]])))))))^)^UUW}}'",
")))^QQ^)`][``[`)]_`_])_``[`]_`[_]))]`]])`]_[``_`_))]))_))`'))_[[_{)``'[`[`['['``_[''[[[[)_`_]))))))QW)))^`)EUE)]`",
"`''[))`[_)))))))])))))))`_]_))`]_`]__`_)_`[[[[`_[`))`[)]]_[[)`[`'_`[[[[`[[{'}[[['['['``_)]]))Q))Q)^))))W)W)^QWWUW",
"))W)_)_)))))))))WQ)))`^)`)__`)))_))))))_))`_'[_```_[]_[__`)_])))[[`)_`[')`['))_''[[_[]`))Q)))`))))))Q^Q)WWWWWWWWY",
"][))]))^))))^^^Q^))))))`)_])])))))))))`))])]`)_`)_)])_``)]]`_`)]__`){__`['}[)`[}``[``]))))))))))))^)^))Q)WWWWWWWL",
"))]))_)))))QQ^))))QQ))))))`)))))))))))))_])))))Q)))))`))))]_[__)]`]`_`[[)^)WUWW)))]_)))))`)))))^))^^))^)WWWWWWWWI",
")Q`)Q]`_)))))^))_)))Q^Q)))))))Q)Q)))))`)_))^)Q)^))))]_))Q))))`)])]_'[']]['[`))[}]))_)))Q)])])QW))))))))))WWWW)WWW",
")`[])))Q)_))))))))))`Q)Q))Q)))^)WW))))))))^^)Q^))Q))_`))))W))_`)]_[['[`_]))QW))))])_)))))]_))Q)W))^))))))WWWWWWWI",
"U[))`)`))]]_`)))))_)))^))))^)W)Q))^))))))Q^Q^Q))))))))))Q^^Q^)`[))`_[_]))))))W)]_`])))))_))`)))WQ))))))Q)W)WWWWWQ",
"L}Q`[)[`)))))))))))]))))))^))W)))))^Q)))W)))))))))))])]``))))]_[_`_['{[``))]))))))_)))))))))))))))))^)^)W)WWWWWWW",
"L}))})[)))))))Q)]`)))))`))^)))Q))))))))))^)))^Q)`]))))_[))_`[`[')]{`_`_]_`[_`)])))`))))W)Q))_)))))Q)))QQ)WWW)WWWW",
"K]]{[[{Q`_)))Q)]))))]))])QW)^)))))))))))Q^)))))]_))))]`__`[''[``)])][``))))_]__][[))))]_)`)_]_`)`))Q)Q^^Q^Q^WWWWW",
"G{^])`[`)]`[_)`)))))`)))Q)W))))))Q)))))))))))))]`]))))))]_['{[_)]`_)[__))`[]_]`_[``)))))]))))))))))^^Q)QQ))QWWW)W",
"V{^]))`[[__``)`))Q))))))W)))))W)^^))_)_`]))]`[`_))))))[`]`_[['[``_]_``_)_[_``)))`_))^^Q))))))))Q)WQ^W)^QW)W^)WWWY",
"z]^){QW]`)])`)^QQQ))Q)))^))))W))))))`)))))_)_)_`))))_))_)[[`'[[)'[_])[[`]``[_]`)))Q)^))))))Q^^W)W)W)W))))W)WWWWWI",
"u]!![RW))))^^^)W)^^))))Q^))`)Q)W))))))))]))`))_]]))[]])))__``[['`_]))]'')`)]]_][)QQ))))))`))Q)^^))))))))))WQ^)WWW",
"w^EE!RW))QQWQQ)Q^^Q)))))))))))Q^]_]`)))))_)_)`)))_)`_][`]]`[])]`]__`_){[)__))``_`]`)))))))])`))))))))))))))WWWWWW",
"8]TE!WW~WWQW^WQQ)))_))_)))))))))))_))))]])_)]_)__)[`'`[``__)_)_[`][``)))_)))))_)]_))))))))))))))))`)'`)))))WWWW)W",
"4!E!]W^WWW)^W^^))))`)`))`_Q))))))))))`[_`_])`))]`_`[[_`[_)])``[`['[_]))Q]`)))))])))))__`)Q)))QQ)^)Q)))^)`Q)WWWWWW",
">P_U/EW_)WWW)))))))`))))WWQQ`_`_)_))))))]_[`'_{['[`[{`]))_'])`[`}['`WW)^QW)))))`)Q))))[)))))))))))))))))W)W))W)))",
";K_I^WQ_)W))W^)Q)^WQ)Q))))))))])_`_][``[]``[}[}'{[[`'[_]{'[`[['[])QWUWW^)W)))][[`^)`))])))))]`_))`)))))))W))))))Q",
"$FQIWEWQWWWW)))))Q)))))))))`)])]`['``[_[[[[{['{[`''[['{'[''[[}'[TIW)^Q]')))W))))_)_[_]))))`_))])]_)_`_`))Q)WW))W)",
"#AWWEEW_))^QWWQ`))))))))))_]_)_)[[`[[[`'['''}'['[[}'{'[''[{['[`)JLL^))Q))))]`)))`)`_``_))QQ)))))]))`[))`)^)W))))Q",
"$Z~W/WW)W)WW))WWWQ^Q^^Q)))`]_)[][[[`[[`_}'}{}'}''{}[[''[[{`[[)WUIPU)[QW^))`][[''))_))]))QQ)^)))))))))))))W)))W))^",
"+B~WEEWWWWW)WW))Q^Q)^Q)^^))_]{'``)][`)`[}[}}}}}}'}'[]`[[}[__`WIP)))`'])_)))))QQW)]`)_)Q))))])))))))))))W)))W)W)W^",
".mRRYWIQWWW)))WW)))))))))))]`_`[`_`_`[_`'`[}{}}}{'[]_[[]'`_``QEI[)QQ`))`)))WWIII)_`))))))`)))))))^Q)))W)))))))W)Q",
"+mR!E^W)WWWW)))WWW^W^WQQ))))'[_][[[`_[`_[[['{'[}[_`]`_'`_])]`QWW'[`)]))QWQ)))^^W`[[)])))))))^^WQ)))))Q`))))WW))W^",
".bUQU)EUWWWWW)))WW^Q))))))))_`]_)'}}}}}}_[}}}'`)_`)_[__`])_`)~WP`_[_[`)))))Q)Q))))Q)['))`)Q]_)QQ)`)W_`W[)))))W))^",
"&xWQQ_WWWWWWWWW)))W))))`)))))]`_'}}[[}}`}{[)^Q))^^W))`[`[))`)WUPW))``[]`))))))))Q)WW))W))))]`)`]Q)`Q['Q])))W)WW))",
"-sWIIWYY)WWWWW)WWWWWWQW^)))))_[]]_[`'}}])WUIIWW))WW^))))`_)))WUIQ))`)))))))))))])]`)[`))Q)))WEYWQW^W^)W))))WWW)))",
"0l[WR`)^WWWWW)W)W)W)))))))))_]'`[{}'_])W)^WEUW))_`)))))))))))QEIW))))QQW)))^)QQ)))))QQ)))))))Q^Q}[[`Q)))W))^WW)))",
"0h_UUUEEWW))^QQ^))))))))`)))_]`{}'}}QEIIUWW))`'[[`))`))^))))))WWQ^^))`)_)))))))]Q))Q^)_)[`)`_['``W^)^`_))Q)QQQ^)W",
"rbUQRUWWW^WWQ^QQWQW)))Q)))_]]]_'[]_`EUQ))^QW^UWW)))WQ)))Q)^)))^^Q)^QQQ)`))))]`_']))))```))^^W^QULLUWW))Q)))^)Q)^W",
"vAIUWEWWWQWW^WQW)))``_`^)))`)['[}`]^IW`))))))))))WWW))^))QQ))))^))^^WQWW)^)^`)`')WW)W)_)Q^^Q^_))QW^QQ)WE`Q)^^)QWW",
"G^WQQYWEWW))W^WWW^)^Q^^Q_)))`[[_['[QI)'WWQ^)^)WW))))Q))^))W)W))WWWW^W))W)^Q^Q^WQ[^))))[^)['QWW^)`))W))`[))WQ)^WUW",
"LWWYIWW)W)))))WWWW^Q)^WWQ^``['`]}`)WQ))))))))W)^WW))Q^))^)WWWWWWW))W)W)W`)^^))))_`)))W))))))QWW)Q))))))_^)Q^)WWW)",
"YWWIWWWWWW))WWW))W))))))`Q))_)))])WW^`[))W))))WQ)))Q)WW)`W)W)W))WWW)))W)QQW))))QQ))))))))Q`^)W)))^)))))))))^)WWW)",
"YWWWWWWW))WWWWWQ)))^)))))))`)]))))W))_[`)))))W)^^Q)Q)W)^Q)Q)W)W)W)^)W^)W)W))))`Q)Q)))))`))))^))))QQ)))))))))))QWW",
"WWWQWWWWWW)WWW^))QQ^WW))QQ))))`_])Q)Q`)))`)))))Q^))^W)W)WWWWW^WWW^Q^)QW)WWW)))^)^)))))^`))))))Q)W^)W)^))W)Q^WQQ)W",
"WYWW`UWWWWQ)`Q)))WQQWWQQ))))))]))))Q))`))'))))))))W)W)^QWWWWWW^WWW)Q)W)WWW))))))))))))))))))))))))^Q)))])^^QWW)`E",
"WIIWQWWWWQ)))))`))))))```)))Q)))))))))_[)))`)))))))))QQQWWWWWQ)))WW)))W)WW)W))Q))`]))QW))))))))Q))))))`)QQ^WWW^`W",
"WWWWWWQW^)))))^)))))`)))]])))))Q)`))))`[)_)))))Q))Q^^)WWWWWWWWWW)W)WW))W))))W))))`_))QQ))^))^^QWWW))))))W^^WWWQ)W",
"WWWWQ^^)))))^Q))W^Q))^)WQ))))))`[[)))))_]`)))))`)))W)WQWWWWWWWWWWWW))WW)Q))^W)W`)_])))^))`Q)`)WWW)W)))^QW))QWWWWU",
")W)WWWW)WWWWWW)WWW)W)W))W)))))))[)WIEWQW^Q)))))WQ`))))WWWWWWW)W)))W)W))W``))))))))))))))))))Q)^)WWQQ)W)))_)WWWW)E",
"WWWWWWW)Q)WWW)W)W)))W)))^Q^)))))`)WIEQQWWW)))))W)WWW)W))WWWW)WW)WWW))WW))))))Q)Q)QW))))))))Q)^))])`))))))))WW))`[",
"WWW))WW)))^)W)))W)))))))))^))))))^UYEWWW))))))W)Q^W)W))W)W)))WWWWWWWWWWW)Q^))WWQW)Q)))))Q^^QQ)))_`]])))QQ^W^)}'}}",
"W)))W)W)^QQ^)W)WW))))WW))WQ)W)))QQWWEWWWW)W)^WWW)WW)WWW)W)W)W)W)WWW)W))W)^)))))WWWW)^W))^))))QW)Q)W))))))WWQ[}}}}",
"W))W)W)W)WW)WW)W)))))))WW)Q))))))^WWWQW))W)))WW^QW)WWWWW)W)W))W)WW)W)W)^WW)))`W)WWWWQQ^))^)WW)Q))Q))))]`WWW)'}}}}",
"WWW)W)W)WW)W)W)WW)WWWW))W)))))WWQWWQ)QW)WWWWW)WW^))WWWWWW)W)WWW))QW)))WQ))))))Q^)W))^^)^^WW))Q])]))))))_QWW)'}}}}",
"W)W)WWW)W)W))WWW)WW))))W)W^))W)WWWW`))W)Q))WWWWWW))WWWWWWWWWW))WQ)Q^WWWWWW)))^QWQ^)W)WWWW^QW)))`)]`]])))WW)]}}}}}",
"WWWWWWW)W)))))))WWWWW))W)))W)W))WWW^)QW)Q`W)WWWWWWWWWWW)WWWW)W)W^Q))WWWWWW)W)^QW))W)W)WW))))W)))WQ)_`))WQW)}}}}}}",
"W)QQ)W^QW))))WW)WWYWWQ)W))W))W)WWWWWW)WW)))))W))WW)WWWWWW))))WQ`WQ)W)W))^)Q)))^Q))))))))))QQ^^)))`)_)Q)Q^WW'}}}}}",
"WEWWW)Q`)WW))))W))WW))))))))WWWWW))QW))^WW)W))WW))W))WWWW)WWWW^)W)W))))W^Q^))WQWQ))WW))W))`W)Q)))_`))))^)UW[}}}}}",
"WWWWW))WW)W)W)W)))`)`))WW)W^QIYIWQ`W^W)QWWWWWWWWWWWWWWWW)W)W)W))W^QWW)))Q))))^WWQWW^W)W)W^)W)))))))))))^)WW'}}}}}",
"WW`W)WWW)W)))W)WQQQW))WWW))QWWIYWUWWWWWWW)WW)WWWWWWWWWWWWWWWWWW)^Q^)))))))))WWQI`)))W))))Q^)W)W))))))))W]WW`}}}}}",
"^WWWWWWWWW)W))WW^))WW)WWWW)QQWWYIIWWWIWWW)WW)W)WWUWWWWWWWWW))WWWWWW)W))))``]WWWI^)))W)))W))))))W))^W))^Q]Q^[}}}}}",
"WWWWW))))WW)WW))))W)WW)WWW))WWWWWIIWWWWWWW)WW)W)WWWWWWWWWW)))WWW)W)W)))))`_)WWIIQW^QWWW))))W)W)W_)))))))[QQ{}}}}}",
"IWWWW)))W)W))W^WW))W))W)WW)WWIWWIIIIWWW)WW))))WWWWWWWWWEQ)W`WWWWW)W)W)W)))`WWIIWW^WW)WWW)))))W)W)))))))`')^'}}}}}",
"WWWWWWW)W)WW)WQWWWWWWWWWWWWWWWIWWILIYWWWW)WWWWWWYIYWWWWWQW)W^WWW)W)W))W))QUIIIWW)Q)))))WWW)))))))))))^)`'))[}}}}}",
"YIIWIWWWWWWWWWWIWW)WWWWIYQWIYIWUWWWWWWWW)WQWWWWWWWYWWWWWW)WWWWW)W)))`)WQWWIIIWIWW))))WW))W)WWW)W))Q))^)W)WQ[}}}}}",
"IWWUWWWWWWWWWWWWWWWWWWWWWWWUWWWWWWWWWW)WWW)WWWWWWUWUYWWWWWWWWWWW)WWWWWWWUIIYYWWWWWW)WW)W))W))W))))))))))`)W]}}}}}",
"WIWIWWWWWWWWWWWWWWWWWWWW^YIWW)QWWWWWWWWWWWWWWWWWWWWYWWWWWWWWWWW))W)WWWWYWWWWWW)WWWWW)W)WWWWWWWW))Q)Q)W))WQWW}}}}}",
"WWIWWIWWWWWWUWWWIWWWWWWWWWYW))WWW)WWW)WWWWIWWWWIYWUWWWWWWWWWWWWWW)WWWWWW)QWW))WWWWWW))W)WW)W))W)Q)^))))WWWWW}}}}}",
"YIIUWIIWWWWWWIIWWWWWWIWWWWWWWWWWWWWWWWQWWWWWWIIYWWWWWUWUWWWWWWQ))WWWWWWWWWWWWWWWWWWW))WW)WWWWW)))Q^)^^Q^))WQ}}}}}",
"IIIIIIWIIWIWIWWIWWWIWIIWWWWWWWWWWWW^WW^W`WQWWWWWWWYWWWWWWWW)W`W)^QWWWWWUWIIWWW)W)WWWW))WWW)WW)))W)))^))))^W))}}}}",
"YIIIWIWIWIWIWWIYWWIWIWWWWQWWWW^WWWW)WWW))^WQWWWWWWWWWWYWWWWQWWWQWWWWWWWWWWWWQ)^W)W)WWWW)))W))WW)W)^Q)))WQWQ^Q'}}}",
"IIIIIWWWWWWWWIWWIWIIIYWWWWIYWWWWWWWWWWWWWWWWWW)WUWWYIWWWWWWWWWWWWWWYWYWWWWIWWWWWW))WWW)W)))W))W))W)))WQW`W^)U]}[W",
"WWREWQWIWWWIUWWIYIIWWIIIWWWWQWWWEWRUWWWQQWW^W)WWWWWYIIYWWWWWWUW^WWIWWWIYIUWYIWWWWWWWWW^W`QW)WQ)WWWQWUQQ^))W^UWLAs",
"]`QWWEUWIUWEWQ^WIIIIWWWWIWWWW))WWWWWWW^QQWWW)WWWWWWWWIIYWWWWWWWWQWWWWWWWWWWWWWWQW)W))WW))))))^W)`^W)`'[`Q)WIGny5:",
"}}')WEWWWQWWWWWWWWUWIIIWIIWIYWWWWWWWWW^W)WWWWWWWIYQ)WWWWWEWWQ^WWWWIWWIWYWWWWWWQ^)W))))^Q))WW)W)W^[)))U)W`EDbt2&<t",
"}}}}[)WE)WWWWWREWWWWWWWIWIIWIWWWWWWWW^W)W)WWWWWWIIWWUWQ)WEWWWQWEWWWWWWWWIYIWWYUWW)WWW)))Q))))^))_}))])]UDbe*X<tNH",
"}}}}}}]WWWWWWWWWYIWWWWWWWWWWWWWQWWEWWWWWWQWWW^W)Q)QWWWWWWWWIWWWWWWWWW)QWWIIUWYEWWWWWWQ))W))^W)))^_W`QLCl0*%2ymG_}",
"}}}}}}}_WWWWWWUEWWWWIWIYEUEUWWWWWWWWWEWWW^WW^QW))W)^WWWYWUWWWWWWWWWWWWWWWWIWWWWWWWWWW)))))W)`Q)Q[_^JBs0**5iBLQ``}",
"}}}}}}}}`)EIWEUEWWWWWWIIUWWWWWWWWWWWWWWWWW)WWW))WWWW)WQWWWIWUWWWWWWYWWIIWWWWWQ)W)W)W)Q))))Q)))))`HBi6:*6lCP`QWQ[}",
"}}}}}}}}'QIWWWWWIWWUW)`_`')`)`))QWWWWWWW)W)))WWW)WWWWWWUYWWWWWWU)QWWWWQWYWWWWQWE)W)`))^W)W)^))))Di5%<qxGL'_Q`]]Q}",
"}}}}}}}}}})UE))WWWW][}}}}}}}}}[`]QWWW))))))))`)^)YWWWWW)WQEWW^)EWWWQWWWEEQW)EWQ^Q^Q))))Q))))_))]vX*tnJE^'[)_['))'",
"}}}}}}}}}}]WUWWWWQ)}}}}}}}}}}}}}'[)WWWW))))))^QWWWWWWWWWEQQQQEWW^W)))))QQWQWQW^Q^)^)Q)))))))`)))FxNGE[[['[`)`_))[",
"}}}}}}}}}}}[WIU^)[}}}}}}}}}}}}}}}}[])WWWWQW)WWWWW`WQWWWWWQWUWEW[''}}}}'}'])E)W`[^))Q^``)))``)`_['W{'[Q)`[{[`)))))",
"}}}}}}}}}}}})WW)}}}}}}}}}}}}}}}}}}}}))))QQ)W))Q)WWUWQU``)]`]`_)}}}}}}}}}}}}[)IWPW))^Q)[))))'_[)`)[))'`[')`)`)QWWQ",
"}}}}}}}}}}}}'`[}}}}}}}}}}}}}}}}}}}}}}[))))`)`)]]`WQ)}[}}}'}}}}}}}}}}}}}}}}}}[Q_)W))^)`_)]_`_[`_`)}Q)[WWQQ)))^WWWW",
"}}}}}}}}}}}}}}}}}}}}}}}}}}}}}}}}}}}}}'])))))))Q)WE}_}}}}}}[}}}}}}}}}}}}}}}}}}}Q`)))_[))))))][`_)W[))`}']W)Q)^Q^)W",
"}}}}}}}}}}}}}}}}}}}}}}}}}}}}}}}}}}}}}}[`)WWWWW^QW[}DCASAC)}}}}}}}}}}}}}}}}}}}}bb`^)`)))`[)`)[{`))))WW)CsW^))^Q)WW",
"}}}}}}}}}}}}}}}}}}}}}}}}}}}}}}}}}}}}}}}`Q)W)Q)`[}}Re  . .C}}}}}}}}}}}}}}}}}[}`06[^Q__))[)`Q`[_[)})))))h )))))^))W",
"}}}}}}}}}}}}}}}}}}}}}}}}}}}}}}}}}}}}}}}}[)))))[}}}[}}x }}}}}W}}}}}}}})'}[}}}}}00'{Q'{'[Q`W`L}W)}W})[))h )UW[E[WWI",
"}}}}}}}}}}}}}}}}}}}}}}}}}}}}}}}}}}}}}}}}`)Q)``}}}}}}}x })}[}}GCH)}[}]}}DAL})}[q0}}[)]DCSI[W}Q`]ICBH}^)x )W}WGnDW}",
"}}}}}}}}}}}}}}}}}}}}}}}}}}}}}}}}}}}}}}}}]^WQ[}}}}}}}}l }}[}D6XX 0G})q56.XXv[EX   Q[L6   2t P[Il    0D}a I}B6 % 5C",
"}}}}}}}}}}}}}}}}}}}}}}}}}}}}}}}}}}}}}}}}[QW)'}}}}}}}}l })}}6 n)B%*P}5 <AIi L}A55C}}5%sWA0  [Qa rHIv 0Ux }I0Xv^n%*",
"}}}}}}}}}}}}}}}}}}}}}}}}}}}}}}}}}}}}}}}}')Q]}}}}}}}}}l }}}b B_}}A%N[q C}}J b}}00}}x%i}EWDX WG e)Q`QCBEl [x xWW}D ",
"}}}}}}}}}}}}}}}}}}}}}}}}}}}}}}}}}}}}}}}}']`[}}}}}}}}}l }}}e.xxslb t]05Q}}} b['q0}}eX}L))Wq.Wx DQWWWI[}a It lslla%",
"}}}}}}}}}}}}}}}}}}}}}}}}}}}}}}}}}}}}}}}}}}}}}}}}}}}}}l }[}q%60q06qa}06}}}} x}}50}}66]WQI[s 'iXIWW)])EQh '0 q066q6",
"}}}}}}}}}}}}}}}}}}}}}}}}}}}}}}}}}}}}}}}}}}}}}}}}[}}}}l }}}0*}[[}}}})0q}}[}.x}]e0}}q*EUW)Es Ul H]W)U))Wh Q0*]'Q[WW",
"}}}}}}}}}}}}}}}}}}}}}}}}}}}}}}}}}}}}}}}}}}}}}}}}}}}}}l.}'}x A}[}H*b}00}[}} s}}q6}}l B}))J%.WA hI)W}GS}h `s A}W)G*",
"}}}}}}}}}}}}}}}}}}}}}}}}}}}}}}}}}}}}}}}}}}}}}}}}}}}}}l }}[U%6I}L<%L[5q)}}} b}}6q}})%%CWLi  `Ie b)}A<0Lv `IX5L)H2 ",
"}}}}}}}}}}}}}}}}}}}}}}}}}}}}}}}}}}}}}}}}}}}}}}}}}}}}]lX)[}}m& 6 Xx}}eq}[})Xx)}60})}B*X6%X<XI}J2X%2 &B}s ))m& 0 .x",
"}}}}}}}}}}}}}}}}}}}}}}}}}}}}}}}}}}}}}}}}}}}}}}}}}}}}}UB}}`}}GvbsL}})SS}[}}BL}}DG}[[}GsssGPm)W'InlsnL))HB)W)GashG)",
"}}}}}}}}}}}}}}}}}}}}}}}}}}}}}}}}}}}}}}}}}}}}}}}}}}[}[}}})}}[}}]}}[}}}}]}}}}}}]}}]}IW[W))WW)[WP')[UQ}IE}I`UP)'I)QW",
"}}}}}}}}}}}}}}}}}}}}}}}}}}}}}}}}}}}}}}}}}}}}}}}}}}}}['}[}}]}}{}[}}`}}}}}}[]}}}}[}_})W}I^QU^E)')WE[W^[WIUWW}LU}W)W",
"}}}}}}}}}}}}}}}}}}}}}}}}}}}}}}}}}}}}}}}}}}}}}}}}}}[}}}}}}[}}}'}}}}}'}}}}}}}}}}}}}}W)WI`W))Q'WW)W)WW^WQ)`U'U}WWWPW",
"}}}}}}}}}}}}}}}}}}}}}}}}}}}}}}}}}}}}}}}}}}}}}}}}}}}}}}}}}}}[}}[}}}}}}}}}}}}[}}}}}``UWWIQWWW)Q`U`QWW)]^UQ]T)I]IWWW",
"}}}}}}}}}}}}}}}}}}}}}}}}}}}}}}}}}}}}}}}}}}}}}}}}}}}}}}}}}}}}}}}}}}}}}}}}}}}}}}}}})EWWQWEW)WQ^WWW)))Q)^WQ)WWWWWWWI",
"}}}}}}}}}}}}}}}}}}}}}}}}}}}}}}}}}}}}}}}}}}}}}}}}}}}}}}}}}}}}}}}}}}}}}}}}}}}}}}}')WWUWWQWWWWWW)WW^W^QWQ)^QWWWWWWWW",
"}}}}}}}}}}}}}}}}}}}}}}}}}}}}}}}}}}}}}}}}}}}}}}}}}}}}}}}}}}}}}}}}}}}}}}}}}}}}}}[QWWWWWWWWWQWWWQ))WQWWWWWWWWWWYWWWW",
"}}}}}}}}}}}}}}}}}}}}}}}}}}}}}}}}}}}}}}}}}}}}}}}}}}}}}}}}}}}}}}}}}}}}}}}}}}}}}}]WW^WWWUWEUEWWW^W^)UEIWWWWWWIIWIWWI",
"}}}}}}}}}}}}}}}}}}}}}}}}}}}}}}}}}}}}}}}}}}}}}}}}}}}}}}}}}}}}}}}}}}}}}}}}}}}}]WWW^)QWWUEUWIWWUWWWWWWIWWIIWWIWIWWWW",
"}}}}}}}}}}}}}}}}}}}}}}}}}}}}}}}}}}}}}}}}}}}}}}}}}}}}}}}}}}}}}}}}}}}}}}}}}}}[QWWWWWWWWEEWIIIIWIEWWWIIYWWIIWIIIIIIY",
"}}}}}}}}}}}}}}}}}}}}}}}}}}}}}}}}}}}}}}}}}}}}}}}}}}}}}}}}}}}}}}}}}}}}}}}}}}))WWWWWWWWUUUEIIYWIWWIWIWIWIYIWIIIIIIII",
"}}}}}}}}}}}}}}}}}}}}}}}}}}}}}}}}}}}}}}}}}}}}}}}}}}}}}}}}}}}}}}}}}}}}}}}}}[WWWWWWWWUEWEEUWIIIWIIWWIIIYWUIIWUIIYIII",
"}}}}}}}}}}}}}}}}}}}}}}}}}}}}}}}}}}}}}}}}}}}}}}}}}}}}}}}}}}}}}}}}}}}}}}}}}WWWWWWIIWIYIIWIUWIWIIWIIWIWIWIWIWWIWIIWI"
};
