/* XPM */
static char *AdvGirl_02_05_ctrl[] = {
/* columns rows colors chars-per-pixel */
"51 15 145 2",
"   c #0D0502",
".  c #120A07",
"X  c #150E06",
"o  c #160F07",
"O  c #110E09",
"+  c #150D0A",
"@  c #160F09",
"#  c #160E0B",
"$  c #170F0C",
"%  c #15100A",
"&  c #171008",
"*  c #17100A",
"=  c #14110C",
"-  c #181109",
";  c #18110B",
":  c #19120A",
">  c #1A1108",
",  c #1A130B",
"<  c #1B120B",
"1  c #18100D",
"2  c #19110E",
"3  c #18130D",
"4  c #19120C",
"5  c #1A130D",
"6  c #1A120F",
"7  c #1B140A",
"8  c #19140E",
"9  c #1B140C",
"0  c #1B140E",
"q  c #1C130C",
"w  c #1C150D",
"e  c #1D140D",
"r  c #1C150F",
"t  c #1D160C",
"y  c #1D160E",
"u  c #1E150C",
"i  c #1E170D",
"p  c #1E170F",
"a  c #1F160F",
"s  c #1F180E",
"d  c #1B1310",
"f  c #1C1411",
"g  c #1D1512",
"h  c #1D1610",
"j  c #1E1711",
"k  c #1E1613",
"l  c #1F1714",
"z  c #1F1810",
"x  c #1F1812",
"c  c #1F1A14",
"v  c #20170E",
"b  c #20190F",
"n  c #21180F",
"m  c #201911",
"M  c #201913",
"N  c #211A10",
"B  c #211A12",
"V  c #221910",
"C  c #221912",
"Z  c #221B11",
"A  c #231A11",
"S  c #221B13",
"D  c #231A13",
"F  c #201815",
"G  c #211916",
"H  c #211A14",
"J  c #221B15",
"K  c #221A17",
"L  c #231C12",
"P  c #231C14",
"I  c #221D17",
"U  c #231C16",
"Y  c #241B12",
"T  c #241D13",
"R  c #241D15",
"E  c #241D17",
"W  c #251E14",
"Q  c #251E16",
"!  c #261F17",
"~  c #231B18",
"^  c #201D18",
"/  c #241C19",
"(  c #251D1A",
")  c #251E18",
"_  c #261F19",
"`  c #261E1B",
"'  c #271F1C",
"]  c #23201B",
"[  c #26211B",
"{  c #27201A",
"}  c #282119",
"|  c #28211B",
" . c #29221A",
".. c #2B2219",
"X. c #2A221F",
"o. c #2B241C",
"O. c #2B2320",
"+. c #2C2421",
"@. c #2C2721",
"#. c #302B25",
"$. c #38302D",
"%. c #39312E",
"&. c #3A352F",
"*. c #3D3832",
"=. c #3F3832",
"-. c #3F3C37",
";. c #423F3A",
":. c #473F3C",
">. c #4B4340",
",. c #4D4542",
"<. c #514C46",
"1. c #544D47",
"2. c #544C49",
"3. c #59514E",
"4. c #5E5751",
"5. c #5E5653",
"6. c #655E58",
"7. c #6A625F",
"8. c #6B6660",
"9. c #6C6461",
"0. c #6E6663",
"q. c #716C66",
"w. c #756E68",
"e. c #79716E",
"r. c #7A7772",
"t. c #7F7C77",
"y. c #807875",
"u. c #89817E",
"i. c #8A827F",
"p. c #888580",
"a. c #8D8582",
"s. c #8C8781",
"d. c #8B8883",
"f. c #918986",
"g. c #918A84",
"h. c #9D9A95",
"j. c #A19C96",
"k. c #A19E99",
"l. c #A7A49F",
"z. c #AFACA7",
"x. c #B1ACA6",
"c. c #B6AEAB",
"v. c #C7BFBC",
"b. c #C7C4BF",
"n. c #D5CDCA",
/* pixels */
"0 0 r r h h x h x x x x x x x x r T L 7 b T b 7 M T v Y 7 > ' v T 7 T L s b 7 b M x x x x x x x x x x ",
"r r r h h h h x x x x x x x x x T r 7 r r : 7 ..v 7 Y M v Y u u r L s r L r r M s x x x x x x x x x x ",
"r r h h x h M x x x x x x x x x r b s s R M r : M ..o T o ..D D 7 o.s 7 L 7 x L x x x x x x x x x x x ",
"h h h h x x x M x x x x x x x x s M M r T b M 0 : : : M 5 Y o r s r r M M x M 7 x x x x x x x x x x x ",
"h h h x x x M M x x x x x x x x R h h M M # =.4.8.o.#.2.5 I c @.6.M h ` 5 M M M x x x x x x x x x x x ",
"h h x h x x M M x x x x x x x x M M ~ M M h 2.w.d.h.*.z.&.% 0 q.g.` h ` : x M ` M M M M M M M M x x x ",
"h h h x h x x x x x x x x x x x M ~ ` g l d ,.5.;.n.c k.p.O ] z.>.$ 2 M l ~ h l M M M M M M M M x x x ",
"r h h h x x x x x x x x x x x x M h F G M 2 3.y.l.r.= -.h.c r.d.$ F ` l l ` ` l M M M M M M M M x x x ",
"r r h h x x x x h x h x x x x x T 7 M M M # 7.v.w.= l 2 9.a.c.%.h M M I M M M M ` M M M M M M M x x x ",
"r r h x x x x h x h x h x x x x s M > M r f y.p.  g ` l :.n.f.$ M M M ` M M M M M M M R M M M M x x x ",
"r r h h x x M h h x h x x x x x 7 R 5 R > 2 0.2.g ~ $ l d u.$.g M M R M M M M M M R M M M M M M x x x ",
"r r h x x x x x x h x h x x x x s : h R M > / . c c O.l d ~ l ( ` M M M R R ` M ` M M R M R M M x x x ",
"r r h h M x x h h x h x x x x x b 7 R 7 M M f M d l ` + O.2 O.$ R M M M M ` I M M R M R M M M R x x x ",
"r r h x x x x x x h x h x x x x b } R 0 r F ` l ~ l d ~ l l d O.R M M M I D M M I M M M I M M M x x x ",
"r r h h x x x h h x h x x x x x 7 M 7 M M = l l ` l ` ~ d ~ O.$ M M M M M M M M M ` M M M M M M x x x "
};
