/* XPM */
static char *AdvGirl_03_07_ctrl[] = {
/* columns rows colors chars-per-pixel */
"46 14 189 2",
"   c #0B0700",
".  c #160700",
"X  c #140C03",
"o  c #150E08",
"O  c #1B0100",
"+  c #190C02",
"@  c #1A0E0B",
"#  c #141005",
"$  c #15120B",
"%  c #13190B",
"&  c #191007",
"*  c #19130C",
"=  c #1C180C",
"-  c #161612",
";  c #151B15",
":  c #1C1610",
">  c #1C1913",
",  c #1A1A18",
"<  c #1C2216",
"1  c #1D201B",
"2  c #260100",
"3  c #240D07",
"4  c #240A0B",
"5  c #2C0204",
"6  c #260510",
"7  c #2D0E13",
"8  c #2C0A18",
"9  c #23140C",
"0  c #20190D",
"q  c #28100E",
"w  c #2A1A0B",
"e  c #231513",
"r  c #211A13",
"t  c #241D1A",
"y  c #291413",
"u  c #2B1718",
"i  c #281E15",
"p  c #320002",
"a  c #33050A",
"s  c #370B0A",
"d  c #3D0000",
"f  c #3C0008",
"g  c #3B0A0C",
"h  c #340B10",
"j  c #321207",
"k  c #31130C",
"l  c #34180C",
"z  c #3C190C",
"x  c #301315",
"c  c #311C14",
"v  c #351021",
"b  c #232219",
"n  c #2C2216",
"m  c #2D261C",
"M  c #30231A",
"N  c #312B19",
"B  c #3A2A1B",
"V  c #36301A",
"C  c #322B25",
"Z  c #3E2D25",
"A  c #393221",
"S  c #3E3529",
"D  c #410B01",
"F  c #440C0B",
"G  c #4A070E",
"H  c #4B0A06",
"J  c #461101",
"K  c #41150A",
"L  c #451212",
"P  c #4A1612",
"I  c #4E171D",
"U  c #4C1B16",
"Y  c #571505",
"T  c #57100A",
"R  c #541A0E",
"E  c #521817",
"W  c #54191F",
"Q  c #571E27",
"!  c #452F1A",
"~  c #4C2015",
"^  c #533825",
"/  c #602517",
"(  c #66311F",
")  c #672324",
"_  c #65262E",
"`  c #6C3C38",
"'  c #723D25",
"]  c #7D3527",
"[  c #71363A",
"{  c #763C33",
"}  c #55432B",
"|  c #524131",
" . c #53463D",
".. c #664937",
"X. c #68523D",
"o. c #74472C",
"O. c #7D4230",
"+. c #79453A",
"@. c #534B40",
"#. c #584E45",
"$. c #625545",
"%. c #6B5847",
"&. c #725C47",
"*. c #7A6654",
"=. c #7A665F",
"-. c #7D6855",
";. c #853B32",
":. c #843D39",
">. c #8B4835",
",. c #8F4E38",
"<. c #8C5628",
"1. c #8C583F",
"2. c #92593E",
"3. c #98653A",
"4. c #8A5841",
"5. c #934543",
"6. c #924F49",
"7. c #955740",
"8. c #915E49",
"9. c #9B594B",
"0. c #945857",
"q. c #8B694D",
"w. c #83665E",
"e. c #986747",
"r. c #9D6B52",
"t. c #90705B",
"y. c #9D7158",
"u. c #847361",
"i. c #977B63",
"p. c #987764",
"a. c #9E7D6C",
"s. c #A36550",
"d. c #AD6956",
"f. c #AA6858",
"g. c #A5754D",
"h. c #A17351",
"j. c #AA735C",
"k. c #B5795F",
"l. c #AB7B65",
"z. c #B77567",
"x. c #BD7060",
"c. c #C17F67",
"v. c #9F8974",
"b. c #A2856D",
"n. c #A38771",
"m. c #A58C78",
"M. c #AF9175",
"N. c #B48865",
"B. c #B98C6F",
"V. c #B88874",
"C. c #BC887D",
"Z. c #B7946A",
"A. c #B1957A",
"S. c #BE9776",
"D. c #BDA672",
"F. c #C3876D",
"G. c #C48866",
"H. c #C3896D",
"J. c #C68E77",
"K. c #C3887A",
"L. c #C3936B",
"P. c #C29271",
"I. c #C49479",
"U. c #CE9B7C",
"Y. c #D8A07B",
"T. c #9D8C84",
"R. c #AF9680",
"E. c #B78880",
"W. c #B29481",
"Q. c #B59984",
"!. c #BB9A84",
"~. c #BE9D94",
"^. c #B4A69B",
"/. c #C49C82",
"(. c #D29D84",
"). c #C5A081",
"_. c #C3A78F",
"`. c #CAA280",
"'. c #CAA289",
"]. c #CAB097",
"[. c #D8A288",
"{. c #DDAD89",
"}. c #D1AF93",
"|. c #D5B89A",
" X c #DFB190",
".X c #DDBB98",
"XX c #E0AC84",
"oX c #E5AC91",
"OX c #E3BB98",
/* pixels */
"e e i = = > , ; > * > t e e e @ t : * : 0 9 * 0 0 * : * * @ * * o - o $ o $ $ o * $ $ * o : ",
"* * = % $ = % - * * : : : : t t $ : t > * $ * @ * * : * : : * @ : o $ * : o o $ * @ @ * o > ",
"S A V V N N n m n M i > : o - - t r : - > t r : e : = * : e = o $ $ : $ $ * o $ o * $ * o e ",
"Q.A.A.A.M.n.p.a.Q.!.A.n.u.$.S : X o r > > - - , r > e $ $ : : * : $ $ * - o - @ * * $ @ o r ",
"I.P.L.J.H.k.s.d.I.[.oXOX.X|.].R.*.| w X & * > ; * e : * * * * * $ - * $ $ * * $ @ $ * @ o > ",
"4.1.1.2.7.>.] ;.d.z.G.L.L.L.`./.].S.b.X.B + X 0 $ * = : = : : : : * * * : * $ - * * * * o r ",
"w k z z ~ U L W 6.z.F.Y.{.L.N.V.N.P.`.!.b.&.V + r * * : e : * e * * $ : - @ : o * * @ * o r ",
", r e * y 7 6 v _ 0.j.U.{.g.o.o.<.3.g.N.I._.m.-.C r @ * > : = : - : : : $ * * $ * * $ * o r ",
"r r r r n r r r 8 Q 5.k.oXy.2 L P E ) :.9.j.Z.D.I.q.! + X - > * * = % % - : : e * * * * o r ",
"r r r r r r 0 r t q K { V./...O 2 s F f H / ' e.P.).A.*.B X $ < o = - = $ $ $ o * * $ @ o r ",
"r 0 r r r r r r < = 3 x [ E.Q.} 9 3 s 5 p D d T ' r./.'.v.%.N   9 & = % % - , - : * * * o r ",
"r r r r r r 0 r 0 m , y h [ E./.@.: @ y 7 a f G d R O.j.(.(.t.^ q . o > $ $ % $ * : * : * r ",
"r r r r r r 0 r k = ; 1 y g { K.^.#.o e u 4 h a I G D Y ,.J.U.I.=.Z o = * % : : * : @ * $ r ",
"r 0 r r r r r r y y b % = l K +.~.w.c 9 c 3 w j g L L D J ( 8.l.T. .& # % * * = : * * * @ r "
};
