/* XPM */
static char *AdvGirl_01_04_ctrl[] = {
/* columns rows colors chars-per-pixel */
"17 70 82 1",
"  c #070601",
". c #080702",
"X c #0B0903",
"o c #0F0C08",
"O c #0E1506",
"+ c #0F140E",
"@ c #140201",
"# c #130409",
"$ c #110B05",
"% c #120D09",
"& c #1C0201",
"* c #1A0B06",
"= c #190E0A",
"- c #111206",
"; c #15110A",
": c #1C1106",
"> c #1A120D",
", c #1E1A0F",
"< c #131511",
"1 c #1D1510",
"2 c #191811",
"3 c #230201",
"4 c #250508",
"5 c #230902",
"6 c #220C09",
"7 c #2B0301",
"8 c #2C0B04",
"9 c #2C0B0A",
"0 c #201205",
"q c #23140B",
"w c #25190B",
"e c #2F1204",
"r c #2A1309",
"t c #2F1A09",
"y c #201413",
"u c #211E17",
"i c #330300",
"p c #330A02",
"a c #35090A",
"s c #3D0500",
"d c #3C0B01",
"f c #3C0E0B",
"g c #331207",
"h c #3C1303",
"j c #3F1008",
"k c #321F10",
"l c #232019",
"z c #32210F",
"x c #3C210E",
"c c #420B02",
"v c #410B0B",
"b c #490C00",
"n c #421102",
"m c #46140A",
"M c #4C1301",
"N c #48110A",
"B c #491903",
"V c #4F1B0E",
"C c #540D00",
"Z c #531400",
"A c #561708",
"S c #511902",
"D c #531A0A",
"F c #5A1600",
"G c #5A1B02",
"H c #462106",
"J c #4C230F",
"K c #412517",
"L c #4F2F18",
"P c #502009",
"I c #592309",
"U c #592912",
"Y c #5E3110",
"T c #5C351C",
"R c #622300",
"E c #62210B",
"W c #672B07",
"Q c #64290B",
"! c #65381B",
"~ c #6C3612",
"^ c #6C3919",
"/ c #743120",
/* pixels */
"ooo+o+ooo++ooo+oo",
"............XX.X.",
"......  ........ ",
"........XX.XXX.X.",
"...     .........",
" ...  ...........",
".XXX.XXX.X.XXX.XX",
"........o.XXXXX..",
"....XXX.........X",
".o...X.......o...",
".o..X..X.o..o.o..",
"#.XXXXXXo..o..o.X",
"XX.XXXXX.X..oXXXX",
"XXXXXX$XX.O ...OX",
"XXXXXXXX.O.O....X",
"XX@X$XXX... OO..X",
"XXXXoXXoXXXXXXXXX",
"X$XXo.X.$X$XXX$X$",
"XX$XXo@XXXXX$$XX$",
"$XX$$XoX$oXXXXX$$",
"X$X$oooXo#XoXXoo$",
"ooooX$o$oooXooooX",
"ooooooo%%ooooooo$",
"ooooo%ooo$Xoo#o#%",
"%%%%%%#%%$o%%o%%%",
"%%%%%%%%o%o#%#o$%",
"%%%%%%%%%%%%%%#%$",
"%%%%%%%%%%$%%%+%=",
"%%%;%%%+%%%%%%%%%",
"%%%%%%%%%o%%%%%%%",
"%%%%%%+=%%%%%%%%%",
"%=%==%%%%%;%%%%%o",
"%:;;-=+;=%o;%;%%%",
"=;*o%%-;;-=%%%;%=",
";==;%=;;;o%;=;==;",
";==%-;O;;=;;;;+%%",
";==%o=;;;;;;%>%==",
"=>;;;;;;-=;%;%;=;",
";*>*;;;;;;;;;;><=",
">>;;;;;;;;;=;>%#;",
"8=;;;==O;><>>>#y;",
"96;;<y;+=<>><><<;",
"96=;=>;O>=>;#=>>;",
"p6;;1=%->>>=y=>>;",
"pe;;=;=;;>>>>;>>;",
"d8:=%1<;=;;>>=>;2",
"cp>=<=>>:,>::;>>>",
"cd6;=<>>>;,>>,>,;",
"vf9qq>*q=>>>>>>>>",
"vf96>>=>>>;>>,,>1",
"cjgrw>;<>>>=>>>>>",
"dnhgr,<<>>>>>2>>>",
"dhhhe0>+>>>>>>2,>",
"pacnde:->>1>,>1>1",
"8ivMnhtw>>>>>>>1>",
"9aNAMBxz>,,>11>,,",
"7pnPIZG/YH5@,l,:1",
"35pnBGZF~^Tx:$-l1",
"&&3pMIFCZR~!Lz:;>",
"#@&7pSEFbZIW^TKw,",
"%@@37sMZmMGFRQUJw",
"=#@&3idc8hAFFFGSr",
">*#&4apifNAGZGScp",
"0y=@&377csccbDDha",
"y>*&&3378iidccMBd",
"1>%&&&3877issddc9",
"22;*@&&3iiiiii77y",
";2,=&&&37773334=1",
";2,q=&&&&&&3&6yu2",
"<>>>6&33@&&5866wy"
};
