/* XPM */
static char *AdvGirl_07_01_img[] = {
/* columns rows colors chars-per-pixel */
"103 22 100 2",
"   c #010001",
".  c #000009",
"X  c #000B0B",
"o  c #090601",
"O  c #0B0800",
"+  c #0A1416",
"@  c #100604",
"#  c #100D05",
"$  c #180B03",
"%  c #19120C",
"&  c #131B1E",
"*  c #1C1910",
"=  c #131C23",
"-  c #182B29",
";  c #231A0B",
":  c #201F1D",
">  c #281E15",
",  c #2E261B",
"<  c #2F291D",
"1  c #31251A",
"2  c #30291E",
"3  c #3C2F1C",
"4  c #3D301D",
"5  c #21282E",
"6  c #213131",
"7  c #22333A",
"8  c #28323B",
"9  c #342D21",
"0  c #382E23",
"q  c #3E2F28",
"w  c #343128",
"e  c #3C3325",
"r  c #3C3228",
"t  c #363531",
"y  c #303539",
"u  c #353E45",
"i  c #2E413F",
"p  c #304149",
"a  c #3D4042",
"s  c #394D4C",
"d  c #3A4B52",
"f  c #3E4F59",
"g  c #375057",
"h  c #355559",
"j  c #36595C",
"k  c #3A5152",
"l  c #3A565B",
"z  c #3C5A5D",
"x  c #325364",
"c  c #3F5663",
"v  c #3D5B61",
"b  c #3B5B6B",
"n  c #3E6061",
"m  c #3C606E",
"M  c #3F6371",
"N  c #413625",
"B  c #413628",
"V  c #413826",
"C  c #44392A",
"Z  c #4A3B25",
"A  c #493D2D",
"S  c #4A3E30",
"D  c #4B402E",
"F  c #4D4131",
"G  c #514434",
"H  c #534838",
"J  c #404E59",
"K  c #40545F",
"L  c #435B5F",
"P  c #4C5155",
"I  c #485E5C",
"U  c #54595D",
"Y  c #405664",
"T  c #425A64",
"R  c #445B68",
"E  c #485E6C",
"W  c #416163",
"Q  c #4A616F",
"!  c #416573",
"~  c #446876",
"^  c #466A78",
"/  c #4B667B",
"(  c #4A6A7C",
")  c #5C6165",
"_  c #536370",
"`  c #61666A",
"'  c #4D6D84",
"]  c #467585",
"[  c #4A7989",
"{  c #536E82",
"}  c #527289",
"|  c #557B84",
" . c #5A7387",
".. c #597F88",
"X. c #5C828B",
"o. c #548393",
"O. c #5A8999",
"+. c #648A93",
"@. c #688E97",
"#. c #698F98",
/* pixels */
"9 , , , , > , , , , , , 2 , , 2 , , , , 2 , , 2 , , , 2 , , , , < < < < < < < 9 , 9 9 , 9 < < 9 < 9 < 9 9 9 9 9 < 9 < < 9 < < 2 < 9 9 < w < 2 3 9 9 9 9 9 w w w 3 9 9 9 9 9 9 0 3 1 y  .O.} { ( Q R v v n n W ",
"9 , , , , , 2 , 2 2 2 , 2 , , 2 , , , , 2 2 2 , , , , , < , < < , 9 < < 9 < 9 < , 9 , 9 9 9 9 9 9 9 9 9 9 9 9 < 9 9 w 3 9 w 9 9 9 9 9 9 9 9 w 2 9 9 9 9 3 w 3 w 0 9 0 0 0 0 0 0 N 1 a  .O.} { ( E R v n n n W ",
"9 , , , , , , , 2 , 2 1 , 1 2 2 , 2 < < 2 2 2 2 1 2 2 2 < < 9 9 9 , 9 , < 9 9 < 9 9 9 w 9 9 9 9 9 w 9 9 9 9 9 9 9 9 9 9 9 9 w 3 e 9 9 e w 4 9 e 9 3 9 w w w e e r 9 r 9 0 0 0 0 3 q P +.o.} { ~ R R v n W n T ",
"9 , , , , 2 2 2 2 2 2 2 2 2 2 2 < < 9 < 2 9 9 2 9 2 2 9 9 9 < 9 9 9 9 9 9 9 9 9 9 9 9 0 9 9 9 9 w w < 9 w 0 0 0 w < 9 w w 3 w 9 9 e 9 9 e w e w w w 9 e 4 e e e r r e r r e e q 3 q ) #.[ } ' ~ R c v W n L v ",
"9 2 , 9 , 2 9 2 9 2 2 9 9 2 2 2 9 9 9 9 9 9 9 9 9 9 9 9 9 9 9 9 9 w 0 0 9 0 0 0 0 0 w 0 0 0 0 0 9 0 r 0 0 w 0 0 3 e e 4 e 3 9 e e e 3 9 0 0 0 q e e 4 e e e 4 4 e e e e r e e e 4 N ) #.[ } ( ! c c v n n z z ",
"0 2 9 9 9 2 9 2 9 9 9 9 9 9 9 9 9 9 9 9 9 9 9 9 9 9 0 0 0 9 9 0 0 0 0 0 0 0 0 0 q 0 0 0 r r r 0 0 r 0 r r r r 0 e e e e e e e e e e e e e e e 0 e e 4 N e e 4 i e e e e e e e e 4 B ) +.] { / ! R c v n z z z ",
"r 2 9 9 2 9 9 9 9 9 9 9 9 9 9 9 0 9 9 0 0 9 0 0 9 0 0 0 w 0 0 0 0 0 0 r w r r r 0 r w q r r q r r w r r r 0 r r e e e e e e e e e e N e N e N B e D e 4 i N 4 4 V V V e V e B N N B U X.] ' / m T c v n z j z ",
"r 2 2 9 9 9 9 9 9 9 9 0 9 9 9 9 w 9 0 0 0 w 0 0 0 0 0 w 0 r w r q q q r 0 0 r r r r r r r r q q r r r r r r r r e e V e V e e e e e C e C N B B e e e i 4 N V V e C r e C B r B r B P ..] ' ( b T c v T n j l ",
"B 9 3 e 9 9 w 9 0 0 0 0 e 0 0 e 0 0 e 0 q r r r e e e e e r e e w e e e e e e N 4 4 e e N N q q 0 q q q B B B B e e e e e e e e B B B B C B B B B B C B B B B C C B B B B B C C C q u _  .( b b l z n m j z l ",
"r 9 9 9 9 3 e 3 0 0 0 0 0 e 3 e e e 0 r r r r r e r 0 e e e e e e e e e e e i 4 N N e D N B N q r B q N N B B B C V C V D e D e B N B B B B B B B B B B B B B C C B C C C C C C A B t u R { ( x L h h v j z l ",
"B 0 9 r e 3 e e 0 0 0 e 0 e 0 e r r e N r r r r r r e r r e r e e e e e e e e e V e e e B B B B N B B B N B B B e e r r D e e e B B C V B B B B B B B C C B C C C C C C C C C C B S B : 5 J Q b k l v n j h h ",
"r r r r 0 0 e e 0 0 r r B 0 e e e e e Z r r r r e B r r B r r e e e e e C e V e V e e D B B B C B B B B B B C C D C D V e C V D N C C C B C C C C B C C C C C C S C C S A A A S B S B %   & p c l T v v v v v ",
"C e e e 4 4 e 4 e 4 e e e e e N e e r i r e r e B e N B N N B e D e V V N r B C V V C B C C C C B B B C C C C C C B C C C C C C V Z C C C C C C C C C C C Z C A C C S C S A S A S C 1 $     = 7 J R T T j h z ",
"C e e e Z 4 e e e e e e r N N e e e e e e C e e r B C r B B r C D e V V C C B B Z V C C B B Z C B C C C C C C C C C C C C C C C A A C A C Z A C A C A A A A A C S S C S S S A S S q ; @       X = 8 s L L L k ",
"D 4 e V i 4 V V V e e N e V e N e e D e D e e C V V e V N N B B e V V C C C B C C C C C C C C C C C C C C C C C C A A C C C C A D V D D D D C A A Z Z A Z D Z A S S C S S A S A B 1 % o         .   + 6 s I J ",
"D N e V e 4 V e V 4 N e N e N V D e e e D r C C V V V V N N r B D e V C C N C C C C C C C A C C C A C C Z A A C S S S S S A A A Z D V V D V Z A A A A A D F A A S S S S S S S S B > o . .     o .   . o X - i ",
"D w e V V V C V B B B B B C C B B C B C B B C C C C C C C Z C Z Z C C A A C A A C S Z A A A Z A A Z C S S S Z Z S G A F S S F S A F A A F A A F F F D F A F D D G D F F F F D D w % o o                       ",
"D e N Z V V C r B B B B C B B C B C C C C C C C C C Z C C C C C C C A C C Z A A A C Z A Z A A A A A C A Z S S S F Z D F S S S S A A F A A F D F A F F A F F F S D F G F D F F D 9 #                           ",
"D r D i Z i D r B B B B B C C C B C C C C C C C A C C A C C A C C A A A A A A A A A A A C A Z A A A A A Z S S S F F F Z S S G S F G F F F F F F D F F A F F A F D F H F D F D e % o       . o                 ",
"D e e D N r C D C C C C C C C C C C A A A A C A C A Z A Z A A A A A A A A A A A A S F S S A S S A S A S S S S Z F F F F G S G S F F F F F F F F F G F F F F F F D F G G F H D 3 #         .                   ",
"D D e D Z C D r C C C A C A Z Z C S C S S A A A A S A A A S S S D A A A G A A F F F F A S F S F S S S S S G G G S G S H G S G S F G F F F G F F G F F G F G F G F G H F G H e ; o                             ",
"D r r D e V r D A C C C C A C i C C S C A A A S A A A A A A S S A A F A A A G A F A F F S S F S S S S S G S S S G G S S S G S H F G F G F F F F G F G F G F G F H H H G G G e ; O                             "
};
