/* XPM */
static char *AdvGirl_04_03_img[] = {
/* columns rows colors chars-per-pixel */
"119 14 243 2",
"   c #0C0E03",
".  c #0D0F04",
"X  c #130C04",
"o  c #120D07",
"O  c #150A04",
"+  c #160F07",
"@  c #120F0A",
"#  c #180F06",
"$  c #1E0E0E",
"%  c #1F0F0F",
"&  c #1B0F13",
"*  c #1F0F10",
"=  c #1E0F12",
"-  c #171000",
";  c #161300",
":  c #161207",
">  c #171401",
",  c #151209",
"<  c #16130A",
"1  c #14110C",
"2  c #151509",
"3  c #15150B",
"4  c #16160C",
"5  c #16160E",
"6  c #16180B",
"7  c #16180D",
"8  c #16190E",
"9  c #171A0F",
"0  c #181300",
"q  c #181107",
"w  c #191400",
"e  c #181705",
"r  c #181109",
"t  c #1A1108",
"y  c #1A110A",
"u  c #19110E",
"i  c #19120C",
"p  c #1A130D",
"a  c #1A120F",
"s  c #18140B",
"d  c #19150A",
"f  c #1A160B",
"g  c #19150C",
"h  c #18150E",
"j  c #19160D",
"k  c #1B140C",
"l  c #1A150F",
"z  c #1B140E",
"x  c #1A160D",
"c  c #1B170C",
"v  c #1A170E",
"b  c #1B170E",
"n  c #1D1008",
"m  c #1C1209",
"M  c #1C130A",
"N  c #1F120A",
"B  c #1C130C",
"V  c #1D120C",
"C  c #1E140B",
"Z  c #1C150D",
"A  c #1D140D",
"S  c #1C150F",
"D  c #1D140F",
"F  c #1D160E",
"G  c #1E150C",
"H  c #1E150E",
"J  c #1F160D",
"K  c #1E170F",
"L  c #1A1907",
"P  c #18180C",
"I  c #19190F",
"U  c #181A0F",
"Y  c #1A180C",
"T  c #1B180F",
"R  c #1A1A0E",
"E  c #1C180D",
"W  c #1C180F",
"Q  c #1F180E",
"!  c #1E1A0F",
"~  c #171611",
"^  c #161C12",
"/  c #1B1310",
"(  c #181510",
")  c #1B1610",
"_  c #1D1113",
"`  c #1E1010",
"'  c #1F1013",
"]  c #1C1014",
"[  c #1C1411",
"{  c #1C1711",
"}  c #1D1610",
"|  c #1F1410",
" . c #1E1711",
".. c #1F1611",
"X. c #181810",
"o. c #191911",
"O. c #1A1A10",
"+. c #1A1A12",
"@. c #1A1B13",
"#. c #1B1B13",
"$. c #181E14",
"%. c #1C1912",
"&. c #1D1812",
"*. c #1D1A13",
"=. c #1F1810",
"-. c #1E1913",
";. c #1F1812",
":. c #1E1A11",
">. c #1E1B12",
",. c #1F1B12",
"<. c #1E1B14",
"1. c #1F1A14",
"2. c #1D1D11",
"3. c #1C1C12",
"4. c #1D1D13",
"5. c #1F1C13",
"6. c #1D1D15",
"7. c #1D1E16",
"8. c #1F1C15",
"9. c #1F1F17",
"0. c #163F37",
"q. c #200F08",
"w. c #200E0A",
"e. c #240F0A",
"r. c #2E070C",
"t. c #2B0D0B",
"y. c #290F10",
"u. c #2D0F11",
"i. c #25100B",
"p. c #24150E",
"a. c #2B130F",
"s. c #201211",
"d. c #221310",
"f. c #221212",
"g. c #231313",
"h. c #201511",
"j. c #201712",
"k. c #211612",
"l. c #231512",
"z. c #221711",
"x. c #221713",
"c. c #211614",
"v. c #261110",
"b. c #251611",
"n. c #241613",
"m. c #251613",
"M. c #251714",
"N. c #261714",
"B. c #201911",
"V. c #201913",
"C. c #211813",
"Z. c #211A10",
"A. c #211A12",
"S. c #221B11",
"D. c #221B13",
"F. c #231A13",
"G. c #211916",
"H. c #201B15",
"J. c #211A14",
"K. c #231814",
"L. c #221B15",
"P. c #231A15",
"I. c #221A17",
"U. c #211D12",
"Y. c #211F13",
"T. c #221E13",
"R. c #211D14",
"E. c #201D16",
"W. c #231C14",
"Q. c #221D17",
"!. c #231C16",
"~. c #251812",
"^. c #241A11",
"/. c #271811",
"(. c #271A12",
"). c #241D15",
"_. c #241D17",
"`. c #261D16",
"'. c #231E18",
"]. c #251E18",
"[. c #2A1011",
"{. c #291514",
"}. c #2C1414",
"|. c #291811",
" X c #281912",
".X c #2B1C15",
"XX c #281F18",
"oX c #31060D",
"OX c #32070E",
"+X c #34070E",
"@X c #331517",
"#X c #361216",
"$X c #311917",
"%X c #351916",
"&X c #3A1117",
"*X c #232115",
"=X c #242216",
"-X c #39211D",
";X c #143C46",
":X c #153D47",
">X c #163C45",
",X c #123C48",
"<X c #133D49",
"1X c #143E4A",
"2X c #0F493B",
"3X c #17463C",
"4X c #104A3C",
"5X c #164C3F",
"6X c #15414E",
"7X c #1C5245",
"8X c #42131B",
"9X c #482122",
"0X c #482C29",
"qX c #513331",
"wX c #593B39",
"eX c #664443",
"rX c #428CA5",
"tX c #438DA6",
"yX c #458DA5",
"uX c #448EA7",
"iX c #488FA5",
"pX c #459AAF",
"aX c #4C93A9",
"sX c #4F96AC",
"dX c #479CB1",
"fX c #4A9FB3",
"gX c #549FBF",
"hX c #50A2B7",
"jX c #55A8BA",
"kX c #56A7C5",
"lX c #5CADC0",
"zX c #62B3C4",
"xX c #65B6C7",
"cX c #65C0DB",
"vX c #7AD1D8",
"bX c #7DDADF",
"nX c #6ACCE5",
"mX c #7EE0F9",
"MX c #84DFFA",
"NX c #81EDED",
"BX c #87EDEF",
"VX c #88F4F4",
"CX c #8FF5F7",
/* pixels */
"rXpX6X1 L ~ & 5 ) B j.[ B B V.%.j.[ V.%.j.B V.%.V.%.V.j.%.V.V.V.J.V.V.V.V.V.V.%.[ V.V.V.V.V.J.J.W.J.W.Q.J.J._._.J.J.V.^.S.B.S.B.W.W.V.W.V.S.W.W.V.W.V.S.W.W.V.W.V.S.W.W.V.V.V.V.9XeXwX$Xb._.o.#.#Xr.OX8X8X+XOX&XqX0X-X|.n : < 6 [ %.B E a b J.",
"rXdX1X@ e ~ & o.[ [ E [ %.j.[ j.%.V.B V.%.V.[ j.p.%.[ V.p.V.V.V.V.V.V.V.V.V.V.V.j.V.V.V.V.J.J.J.J.W.J.J._.J.J.J.J.J.B.W.V.S.Z.S.S.V.S.W.W.W.S.V.S.W.W.W.S.V.S.W.W.W.S.V.S.W.S.V.t.%Xa.q.^.^.) W.{.v.y.@X@Xu.y.}.e.e.q.n q f L R B V.B [ t b _.",
"uXfX<Xo > ) ] o.B %.[ %.V.B V.E j.B V.[ j.E j.E V.j.V.V.V.V.V.V.V.V.V.V.V.V.V.V.V.V.-.-.V.J.J.J.J.J.I._._.J.J.J.J.J.V.V.B.Z.Z.Z.W.W.W.S.V.W.V.W.W.S.V.S.W.W.W.S.V.W.W.W.S.S.V.B.W.p.i.V.XX_.B %.6.-.J.n.b.j.V.%.B p.B B.B.E 9 J B %.B B a a J.",
"uXhX<Xo ; 5 ` ) [ B %.B B %.[ j.%.V.B j.[ V.[ V.[ V.E V.j.V.V.V.V.V.V.V.V.V.V.V.J.%.J.n.J.J.J.J._._.J.J.J.J._._.J.J.V.V.S.Z.Z.Z.S.V.W.V.S.W.S.W.W.V.W.W.S.V.W.S.S.W.W.W.W.W.V.S.! 5.S.S.^._.W.J.$.9.9.[ [ J.%.o.%.9 9 E E B E B [ V.[ %.a b _.",
"uXjX>X+ w ) * b B %.[ %.%.B V.%.p.%.%.%.V.j.%.p.V.V.j.%.j.V.V.V.j.V.j.V.V.J.J.J.J.J.J.J.J.J.J.Q.J.J._.J.J._.J.J.W.J.J.W.S.S.S.S.W.W.V.W.W.S.W.S.V.S.V.S.S.S.V.S.S.W.W.W.W.S.S.V.L 5.*X5.b J.].W.9.9.j.j.j.j.[ J.6 6 6 5 b B B p.[ V.B B B [ !.",
"aXjX>Xq 0 b ` f [ B [ B [ j.[ j.V.j.V.j.[ V.%.V.%.V.V.j.V.V.V.V.%.j.%.V.V.J.J.J.J.J.J.J.J.J.J.W.J._.J.J.J.J._.J.Q.W.S.S.S.S.S.S.S.V.S.W.W.V.W.S._._._.S._._._.S.W.W.W.W.W.W.W.S.=X*XS.9.5.-.J.W.'.[ j.N.b.v.j.J.6.9.S.V.%.E b b B V.[ %.b B _.",
"aXzX>Xq 0 B * f E [ p.%.V.[ V.E V.%.V.j.V.V.V.%.j.%.%.%.j.V.V.V.j.j.V.V.V.J.J.J.J.J.J.J.J.Q.W.J.J.J._._._._.J.J.J.J.W.J.S.S.S.S.W.W.W.S.V.S.S.S.S._.S._.S._.S._.W.W.W._.W.W.W.V.^.B m B.W.%.%.'.9.o.j.J.N.j.j.J.b ) B %.V.V.[ B %.V.B [ a B _.",
"sXxX>X# 0 D * E %.B [ %.B E [ j.V.V.[ V.E V.V.V.V.p.V.j.%.V.V.V.%.B V.V.V.J.J.!.J.J.J.J.J.J.J.W._.J.J.J.J.J.J._.J.Q.S.W.S.S.S.S.S.V.W.V.W.W.W.W._.S._.S._.S._.S.W.W._._.W.W.W.S. X.X XV.S.5.%.W.o.@.%.V.[ J.-.6.N.j.[ p.D [ %.%.B V.%.[ b [ _.",
"gXvX0.O D b n.9 [ E B V.V.B V.%.B %.B.E V.B.B.B p.V.j.V.p.V.V.V.V.V.V.V.V.V.J.J.!.I.!.J.J.S.W.S.B.B.V.S.S.B.B.B.J.!.V.S.W.S.W.W.W.W.W.W.W.W._.W.W.W.W.W.W.W.W.W.W.W.W.W.W.W.W.W._.W.S.S.V.S.S.V.S.V.S.V.J.J.G.G.j.[ j.V.[ B V.%.V.[ B %.[ B !.",
"kXbX3XX t ] ` < [ j.%.B [ V.[ j.%.p.B B.B B.V.%.%.j.%.j.%.j.%.V.V.V.V.V.J.J.J.J.J.I.J.!.W.S.J.S.B.B.V.V.V.B.B.B.W.V.W.W.W.V.S.V.S.V.W.W.W.W.W.W.W.W.W.W.W.W.W.W.W.W.W.W.W.W.W.W.W.W.W.S.V.W.W.W.B.S.V.V.J.n.G.G.J.J.%.V.V.V.[ j.V.E B J.E [ _.",
"cXBX7X, b ` g.5 B B %.V.j.E V.E B.E B.B B.E B.E %.V.j.%.%.V.V.[ V.V.J.J.J.J.!.J.I.I.!.J.W.W.S.^.B.B.V.W.W.B.V.V.^.S.W.S.V.W.W.W.W.W.W.W.W.W._._.W.W.W.W.W.W.W.W.W.W.W.W.W.W.W.W._.S.W.V.S.W.W.W.S.B.V.V.J.J.G.G.V.V.V.V.j.V.V.V.V.V.[ %.[ [ =X",
"nXmX2X  b a n.E %.j.[ V.[ V.[ j.B B.E B.B.B.B.p.%.j.V.j.%.j.j.V.J.J.J.J.J.!.J.!.I.I.J.!.S.S.S.B.V.S.S.S.S.W.S.V.W.V.W.V.S.W.S.V.S.S.W.W.W.W._.W.W.W.W.W.W.W.W.W.W.W.W.W.W.W.W.W._._.W.S.V.S.V.S.B.S.V.J.J.J.G.G.J.V.V.V.V.V.E V.V.V.[ J.%.B ].",
"mXVX2X  E a $ B [ B B %.V.%.[ %.V.E p.%.p.B.V.E j.%.j.V.V.[ V.E J.J.J.J.!.J.!.J.I.I.!.J.!.V.W.W.S.S.S.S.S.S.V.S.V.W.V.W.W.S.W.W.S.S.W.W.W.W._.W.W.W.W.W.W.W.W.W.W.W.W.W.W.W.W.W._.W.S.W.V.S.W.V.S.B.S.V.J.J.J.G.V.V.V.V.V.V.V.V.V.j.B J.%.E _.",
"BXCX5X, ^.[ $ %.%.j.%.V.%.p.B j.E B %.B %.V.E p.V.j.%.j.V.%.V.V.V.V.J.J.J.J.J.!.I.I.J.!.J.^.V.W.B.V.V.S._.V.V.V.S.W.S.W.W.V.S.V.W.W.W.W.W.W.W._.W.W.W.W.W._.W.W.W.W.W.W.W.W.W.W.W.W.S.S.V.W.W.S.B.S.V.S.^.V.J.Q.V.V.V.V.V.[ %.V.V.V.B J.j.B _."
};
