/* XPM */
static char *AdvGirl_02_01_ctrl[] = {
/* columns rows colors chars-per-pixel */
"43 15 95 2",
"   c black",
".  c #000100",
"X  c #010100",
"o  c #010101",
"O  c #020200",
"+  c #020300",
"@  c #030301",
"#  c #020202",
"$  c gray1",
"%  c #030400",
"&  c #040500",
"*  c #040402",
"=  c #050503",
"-  c #050600",
";  c #050601",
":  c #060701",
">  c #060702",
",  c #040404",
"<  c gray2",
"1  c #060604",
"2  c #070705",
"3  c #060606",
"4  c #070707",
"5  c #060608",
"6  c #070802",
"7  c #070803",
"8  c #080904",
"9  c #080806",
"0  c #090907",
"q  c #0A0B06",
"w  c #0B0C07",
"e  c gray3",
"r  c #090909",
"t  c #0A0A08",
"y  c #0B0B09",
"u  c gray4",
"i  c #0C0C0A",
"p  c #0D0D0B",
"a  c #0E0F0A",
"s  c #0C0C0C",
"d  c gray5",
"f  c #0E0E0C",
"g  c #0F0F0D",
"h  c #0E0E0E",
"j  c gray6",
"k  c #10100E",
"l  c #11110F",
"z  c #101010",
"x  c #131311",
"c  c gray7",
"v  c #151515",
"b  c #161616",
"n  c #181816",
"m  c #181818",
"M  c #1D1D1D",
"N  c gray12",
"B  c #232323",
"V  c #252525",
"C  c #272725",
"Z  c gray17",
"A  c #2C2C2C",
"S  c #2D2D2D",
"D  c #313131",
"F  c #323230",
"G  c gray20",
"H  c #343432",
"J  c gray21",
"K  c gray22",
"L  c gray27",
"P  c #464644",
"I  c #565656",
"U  c gray34",
"Y  c #5A5A5A",
"T  c #686868",
"R  c gray42",
"E  c #717171",
"W  c gray46",
"Q  c #777777",
"!  c gray50",
"~  c gray56",
"^  c #909090",
"/  c gray58",
"(  c #959595",
")  c #9F9F9F",
"_  c #A0A0A0",
"`  c #A2A2A2",
"'  c #A4A4A2",
"]  c #A5A5A3",
"[  c gray66",
"{  c gray68",
"}  c gray70",
"|  c gray71",
" . c gray74",
".. c gray",
"X. c #C3C3C1",
/* pixels */
"g 1 * 7 * * 7 7 1 1 1 - < 7 > > 7 $ w - 1 $ 1 u 5 $ $ $ u 1 $ 5 1 5 1 5 1 5 1 5 1 5 1 ",
"g 1 * 7 * 7 7 * 1 1 1 8 > > > > 7 - $ $ 1 1 u 1 u u 1 $ 5 u 1 5 5 1 5 1 5 1 5 1 5 1 5 ",
"g 1 * 7 - - 7 7 1 1 - > > > > > 7 w $ 0 $ $ $ 5 $ g $ g 1 $ 5 5 1 5 1 5 1 5 1 5 1 5 1 ",
"g 1 * 7 - - 7 - 1 1 1 > > > > > - * $ p $ g $ < u $ $ g $ 1 g u 5 1 5 1 5 1 5 1 5 1 5 ",
"g < $ 8 - - 8 - 1 1 1 > - 7 - 7 7 - $ 1 w U m 1 g I v $ B A $ 1 1 5 1 5 1 5 1 5 1 5 5 ",
"g < - 8 - - 7 - 1 1 1 7 7 - 7 - 7 0 7 $ l ( D $ N ^ $ Z ) Y 5 5 5 1 5 1 5 1 5 1 5 1 1 ",
"g 1 $ 1 - - 7 - 1 1 1 < - 7 - 7 $ 7 0 $ 8 ) S $ v R J ~ R $ $ 5 1 5 1 5 1 5 1 5 1 5 1 ",
"g 1 - 8 - - 7 - 1 1 1 - 8 - 7 - - * - 1 g ` A $ z !  .W $ 5 1 1 5 1 5 1 5 1 5 1 5 1 5 ",
"g 1 - 1 * 1 1 1 * 7 7 7 7 - 7 - 8 * * * l ' B $ z ^ W | S $ g $ 1 5 1 5 1 5 1 5 5 1 5 ",
"g 1 < 1 1 * 1 1 7 * 7 * - 8 - 8 $ p * $ p ' F $ V [ u E } K $ j 5 1 5 1 5 1 5 1 1 5 1 ",
"k 1 $ 1 * 1 1 1 1 1 * 8 5 1 1 5 * $ k $ v X.H $ G  .u 1 W { z $ 1 5 1 5 1 5 1 5 5 1 1 ",
"g 1 * 1 1 1 1 1 5 5 5 5 5 5 5 5 9 % 0 0 0 P l * v L 5 $ z M 5 1 5 1 5 1 5 1 5 1 1 5 1 ",
"g 1 $ 1 1 1 1 1 5 5 5 5 5 5 5 5 9 9 * 9 $ $ $ * $ $ u 1 $ $ $ $ 1 5 1 5 1 5 1 5 5 1 5 ",
"g 1 1 1 $ - 1 $ 1 5 1 1 1 5 1 1 0 $ 9 % 0 0 $ * $ j $ g $ 5 u $ 5 1 5 1 5 1 5 1 1 5 1 ",
"g 1 - 1 1 1 1 1 8 * 7 7 1 7 * 7 % u $ l $ u $ 5 $ $ 1 g $ 5 $ $ 1 5 5 1 1 5 1 5 5 1 5 "
};
