/* XPM */
static char *AdvGirl_03_06_ctrl[] = {
/* columns rows colors chars-per-pixel */
"28 14 160 2",
"   c #17120C",
".  c #16120F",
"X  c #18130D",
"o  c #1E170D",
"O  c #171310",
"+  c #161415",
"@  c #171516",
"#  c #181411",
"$  c #191512",
"%  c #1A1613",
"&  c #1A1414",
"*  c #1B1515",
"=  c #1B1718",
"-  c #1B1B13",
";  c #191A14",
":  c #1A1B15",
">  c #1D1812",
",  c #1F1810",
"<  c #1E1913",
"1  c #1F1812",
"2  c #1D1814",
"3  c #1D1916",
"4  c #1D1A15",
"5  c #1F1A14",
"6  c #1C1C14",
"7  c #1C1D17",
"8  c #1B1A18",
"9  c #1B191C",
"0  c #1C1819",
"q  c #1C1A1D",
"w  c #2C0F0B",
"e  c #21190C",
"r  c #21190E",
"t  c #221A0D",
"y  c #231B0E",
"u  c #2F1307",
"i  c #2A1409",
"p  c #2E110B",
"a  c #2D100C",
"s  c #2E110D",
"d  c #2F120E",
"f  c #2C1408",
"g  c #2C140A",
"h  c #2F1409",
"j  c #201911",
"k  c #201913",
"l  c #211A12",
"z  c #221B13",
"x  c #201B15",
"c  c #211A14",
"v  c #221B15",
"b  c #241C11",
"n  c #301408",
"m  c #311509",
"M  c #30150A",
"N  c #32160A",
"B  c #33170B",
"V  c #2A2112",
"C  c #282015",
"Z  c #2D2317",
"A  c #2E2516",
"S  c #31271B",
"D  c #372B1D",
"F  c #352C1D",
"G  c #382C1E",
"H  c #393027",
"J  c #3C3324",
"K  c #3E352C",
"L  c #413829",
"P  c #42392A",
"I  c #433A2B",
"U  c #453C33",
"Y  c #713A26",
"T  c #723B27",
"R  c #733C28",
"E  c #4A4132",
"W  c #4D4435",
"Q  c #4A4138",
"!  c #534A3B",
"~  c #70422B",
"^  c #73432D",
"/  c #74442D",
"(  c #78462F",
")  c #7A482F",
"_  c #7A4631",
"`  c #7B4732",
"'  c #7B4930",
"]  c #7D4931",
"[  c #7C4833",
"{  c #7D4934",
"}  c #7E4A35",
"|  c #5C5344",
" . c #655C4D",
".. c #6E6556",
"X. c #756C5D",
"o. c #797061",
"O. c #834F3A",
"+. c #86523D",
"@. c #947F64",
"#. c #B27759",
"$. c #B3785A",
"%. c #B27D5B",
"&. c #B37D5B",
"*. c #B4795B",
"=. c #B57A5C",
"-. c #B57D58",
";. c #B57D5A",
":. c #B47E5A",
">. c #B77D58",
",. c #B47E5C",
"<. c #978265",
"1. c #9D886B",
"2. c #B48156",
"3. c #B58257",
"4. c #B68358",
"5. c #B78459",
"6. c #B9865B",
"7. c #BC895E",
"8. c #BD8A5F",
"9. c #A58D71",
"0. c #A78F73",
"q. c #AA9276",
"w. c #BF8C61",
"e. c #B69977",
"r. c #B0997A",
"t. c #B29A7E",
"y. c #BB9E7C",
"u. c #C08C65",
"i. c #C28E67",
"p. c #C5916A",
"a. c #C8946D",
"s. c #C39675",
"d. c #C49776",
"f. c #C59877",
"g. c #C79A79",
"h. c #CA9D74",
"j. c #CB9E75",
"k. c #C89B7A",
"l. c #C99C7B",
"z. c #CB9F78",
"x. c #C3A57F",
"c. c #CCA079",
"v. c #CCA27C",
"b. c #CDA37D",
"n. c #B89F81",
"m. c #B9A185",
"M. c #BEA586",
"N. c #BEA68A",
"B. c #BFA78B",
"V. c #C1A482",
"C. c #C4A680",
"Z. c #C5A781",
"A. c #C6A882",
"S. c #C7A983",
"D. c #C5A886",
"F. c #C2A98A",
"G. c #C0A88C",
"H. c #CEA380",
"J. c #CCA480",
"K. c #C8AA84",
/* pixels */
"% % O O . . . . & & * 0 0 9 9 q r r y e e e e r , 7 x x ",
"V A F J I I I I D D S Z C b r o X X X       X X & @ + @ ",
"9.q.t.m.B.B.B.B.F.M.n.r.0.1.<.@.o.X... .| ! W E Q U K H ",
"s.d.f.g.k.l.l.l.h.h.z.z.b.b.J.J.K.A.A.Z.x.x.x.x.D.V.y.e.",
"*.$.#.#.#.*.*.=.>.;.;.;.;.,.;.%.2.2.4.4.6.7.7.u.u.i.p.p.",
"_ _ [ } } [ [ ` [ ' ) _ / ^ ~ ~ T T T T T T R R _ [ +.+.",
"n n n n n n n n N N g n g i i i s a w w w w s M a a a u ",
", , l , l l l l , , , 3 3 3 8 8 7 3 : : : : : : 6 6 6 - ",
"1 k k k l 1 v v x x v v v v v v v v v v v v v v l v l l ",
"k k k l v v l l v x v v v v v v v v v v v v v v l b v v ",
"k k v l v * v v v v v v v v v v v v v v v v v v v b l l ",
"v v v l v v v v v v v v v v v v v v v v v v v v l v v l ",
"k v v k v v v v v v v v v v v v v v v v v v v v z z z z ",
"1 k k v v v v v v v v v v v v v v v v v v v v x z z z z "
};
