/* XPM */
static char *AdvGirl_03_04_ctrl[] = {
/* columns rows colors chars-per-pixel */
"30 14 116 2",
"   c #121B24",
".  c #1B242D",
"X  c #2B343D",
"o  c #2F3841",
"O  c #323B44",
"+  c #2C4349",
"@  c #2B4E52",
"#  c #255C5C",
"$  c #2D5054",
"%  c #364B46",
"&  c #344B51",
"*  c #3F5549",
"=  c #385B5F",
"-  c #3A5E64",
";  c #2B6559",
":  c #2D6956",
">  c #2E6B5C",
",  c #2D6266",
"<  c #2E636B",
"1  c #316865",
"2  c #3D6166",
"3  c #3F6A67",
"4  c #36716B",
"5  c #3A736C",
"6  c #387273",
"7  c #3C7974",
"8  c #523E33",
"9  c #5B423D",
"0  c #455E44",
"q  c #40575D",
"w  c #455F54",
"e  c #465D63",
"r  c #496445",
"t  c #4B6655",
"y  c #4F6950",
"u  c #436267",
"i  c #44646A",
"p  c #416C6C",
"a  c #496066",
"s  c #4C6369",
"d  c #4C6A6D",
"f  c #467167",
"g  c #45736B",
"h  c #4B756C",
"j  c #4B796D",
"k  c #4E7B71",
"l  c #516F71",
"z  c #51766F",
"x  c #507F6F",
"c  c #527371",
"v  c #517C74",
"b  c #547B78",
"n  c #597E77",
"m  c #6D5549",
"M  c #74624E",
"N  c #7B654D",
"B  c #51806E",
"V  c #538273",
"C  c #54847B",
"Z  c #578A77",
"A  c #56897C",
"S  c #588A76",
"D  c #598C7C",
"F  c #5C937D",
"G  c #609B7D",
"H  c #428C94",
"J  c #438D98",
"K  c #449194",
"L  c #46909B",
"P  c #489495",
"I  c #4B9A9D",
"U  c #578980",
"Y  c #598C80",
"T  c #5C9382",
"R  c #5F9885",
"E  c #5E9E8D",
"W  c #559D9B",
"Q  c #599E9C",
"!  c #4C96A3",
"~  c #4E9AA3",
"^  c #509CA4",
"/  c #529CA9",
"(  c #5DA18E",
")  c #5FA293",
"_  c #5BA39D",
"`  c #55A1A5",
"'  c #56A2A9",
"]  c #5BA4A3",
"[  c #5AA3A9",
"{  c #5DA8A3",
"}  c #5EA8AA",
"|  c #609782",
" . c #619B83",
".. c #619A88",
"X. c #66A087",
"o. c #69A484",
"O. c #68A28B",
"+. c #6BA88B",
"@. c #61A092",
"#. c #60A29B",
"$. c #66AA95",
"%. c #63AB9D",
"&. c #6CB09C",
"*. c #70AB8D",
"=. c #75B28B",
"-. c #7CB98F",
";. c #75B294",
":. c #72B39A",
">. c #73B89C",
",. c #7BBB96",
"<. c #60A6A2",
"1. c #61A8A2",
"2. c #60ABB0",
"3. c #816E4E",
"4. c #8C7958",
"5. c #8D7C60",
/* pixels */
"8 w 7 6 5 k j j B B S S F G  . .E E #.#.#.Q Q W Q W W I I K ",
"M t 4 4 g j j j B B V S D F  . .E @.#.^ <.Q Q #.#.Q ^ ~ I K ",
"5.y > 4 g j h v x v C A D F | ..E @.#.#.Q Q <.#.<.] ] ` ~ P ",
"4.r : 5 f g h v x C C D Y D R ..E E #.<.<.<.<.^ <._ ` ` ~ K ",
"N r : 4 3 f j b v n D Y Y T T E ( @.) <.{ { { { } ] ' ` I K ",
"N 0 ; , 3 h z b b n D T R F R ..( ) %._ _ { { { [ _ ' ` I K ",
"m * ; , p h k b V V S D F G |  .( ) %.1.1.} { _ { ] ' ~ I K ",
"9 % # < p h h n S V S A G |  .| ( @._ 1._ { _ _ { ` ' ~ I K ",
"o + $ 2 i l v v j V C U Y Y F F O.@.#._ { } } } } [ / / ! J ",
"O & @ - d l h h k k C U T E +.*.;.:.&.1._ } } [ 2.} / / / L ",
"X = @ - d d h g k V C C Y F X.+.=.;.&.%._ ] } } } / / ! ! H ",
". e - - s d h j k v C C Y | O.*.-.,.>.%._ ] ' ' [ ^ / / ! J ",
"  s i - u d z j k k C D Y T  .o.=.;.>.%._ ` [ / ' ^ ^ / ! J ",
". e - - 2 d z g k k V A A D F F o.+.$.) _ ` [ [ ^ W ! ! ! H "
};
