/* XPM */
static char *AdvGirl_03_01_ctrl[] = {
/* columns rows colors chars-per-pixel */
"42 14 166 2",
"   c #040502",
".  c #060509",
"X  c #040902",
"o  c #040A0A",
"O  c #0A0302",
"+  c #090509",
"@  c #090904",
"#  c #0B0B0A",
"$  c #030A10",
"%  c #061103",
"&  c #110200",
"*  c #120B03",
"=  c #160D08",
"-  c #1D0004",
";  c #100919",
":  c #180410",
">  c #240000",
",  c #21030D",
"<  c #2F0700",
"1  c #240014",
"2  c #220813",
"3  c #2B0917",
"4  c #20130D",
"5  c #251A12",
"6  c #2B1D1A",
"7  c #30070D",
"8  c #360616",
"9  c #310B12",
"0  c #350C1C",
"q  c #3B0C14",
"w  c #361005",
"e  c #35120E",
"r  c #37171C",
"t  c #321E13",
"y  c #391112",
"u  c #3D141B",
"i  c #381819",
"p  c #320B26",
"a  c #390C23",
"s  c #3C1323",
"d  c #2B2315",
"f  c #2B201A",
"g  c #30271E",
"h  c #382517",
"j  c #302826",
"k  c #322F38",
"l  c #43141A",
"z  c #411A15",
"x  c #461B1B",
"c  c #42172A",
"v  c #45241D",
"b  c #462D26",
"n  c #412929",
"m  c #492B37",
"M  c #45392B",
"N  c #522C23",
"B  c #562D35",
"V  c #57362F",
"C  c #58312C",
"Z  c #5D3826",
"A  c #5C3B34",
"S  c #583E3F",
"D  c #653835",
"F  c #484637",
"G  c #4E513C",
"H  c #534238",
"J  c #5E433C",
"K  c #6A4034",
"L  c #704733",
"P  c #544E42",
"I  c #5D4C45",
"U  c #565867",
"Y  c #5E614C",
"T  c #694644",
"R  c #6E464E",
"E  c #65584B",
"W  c #695647",
"Q  c #655D50",
"!  c #6A5F5B",
"~  c #7E564C",
"^  c #785D4C",
"/  c #7D5A56",
"(  c #6E6D5B",
")  c #79604A",
"_  c #786254",
"`  c #7F6C5E",
"'  c #766F67",
"]  c #766868",
"[  c #8F633C",
"{  c #815C41",
"}  c #855C4A",
"|  c #805F58",
" . c #8B6253",
".. c #8A6956",
"X. c #976B44",
"o. c #98725F",
"O. c #857263",
"+. c #817369",
"@. c #997C6E",
"#. c #A37F65",
"$. c #9B816A",
"%. c #91827B",
"&. c #AC825C",
"*. c #A68365",
"=. c #A3886B",
"-. c #A48370",
";. c #A78A7C",
":. c #A98472",
">. c #AC8C7C",
",. c #B48C65",
"<. c #B98D68",
"1. c #B28672",
"2. c #B38E7B",
"3. c #B88977",
"4. c #BD916A",
"5. c #B79677",
"6. c #C09572",
"7. c #C09874",
"8. c #C49D7C",
"9. c #CDA079",
"0. c #9B908A",
"q. c #989294",
"w. c #A58F82",
"e. c #AC9A8E",
"r. c #B09183",
"t. c #B59A87",
"y. c #BA9A81",
"u. c #B4A193",
"i. c #BEB89E",
"p. c #BDC0C5",
"a. c #C49E89",
"s. c #C5A78F",
"d. c #CFAB8B",
"f. c #CEAB92",
"g. c #C9AC9C",
"h. c #CDB19C",
"j. c #D1AD97",
"k. c #DCB594",
"l. c #CBBDB0",
"z. c #D1BEAF",
"x. c #DCBCA5",
"c. c #E4BFA4",
"v. c #D8C1AF",
"b. c #EACDA1",
"n. c #EFC8AB",
"m. c #EACDBD",
"M. c #E7D2A3",
"N. c #EAD4BD",
"B. c #F5D3AE",
"V. c #F8D3B6",
"C. c #F6E2BF",
"Z. c #CFC9C9",
"A. c #DCD3C4",
"S. c #E4D4C7",
"D. c #E1DACA",
"F. c #F1EACD",
"G. c #FDE3C2",
"H. c #FAEBCE",
"J. c #FDEED7",
"K. c #FAF4D2",
"L. c #FDF2DC",
"P. c #FFFADB",
"I. c #FDECE2",
"U. c #FFFBE4",
"Y. c #FAF8E9",
"T. c #FFFEF5",
/* pixels */
"#     +           . @   .     .   @ + . .     X o o     @     @         o   .   + + ",
"#               .     . @ + o     . . . .         X #               @ o X o         ",
"#     @     .   . .     . . @ . @ . + $ . .     @ O       o o o #                   ",
"# #   #     @       @           # . + + O       @   O .       . 4 f F G Y ( E Q E E ",
"#     @             @ @               . + . O * .     O 4 H ] w.g.N.H.F.L.J.z.g.f.f.",
"* X   @       X @ X     @   @ @       . O     O   5 I O.t.x.c.n.B.G.H.U.U.z.>.>.3.1.",
"# X   X     X       @ X   X     X           = 6 ^ @.s.d.d.8.<.9.b.C.L.T.Z.] S T A C ",
"* X   @     @   @         @             + j ! 0.9.6.6.<.&.X.[ 4.M.P.Y.p.U ; : , O O ",
"# X X X     X       @ O O O O O .   O b / 2.8.,.=.../ R B z L k.K.A.q.k     O . @   ",
"* X   @     @     @         O . . 6 W :.5.*. .~ C x u u > N a.V.i.P # .     O @     ",
"#     @ X   @   +     +       # S @.5.*.^ Z z 9 a c 9 > v r.m.>.d     # X X   o     ",
"* X   @         .   #     O M +.8.1. .D z 7 9 i p , - b u.S.+.= .       X %   .   @ ",
"* X   @     X         O h ^ -.2.o.D x q 8 0 0 3 2 & I l.A.' + +     .   X %   +     ",
"# X X X X       %     d _ >.:.} m i e w < q s 1 O t e.I.%.& O O @   + #     @ . @   "
};
