/* XPM */
static char *AdvGirl_09_02_ctrl[] = {
/* columns rows colors chars-per-pixel */
"35 33 256 2",
"   c #040000",
".  c #100503",
"X  c #171018",
"o  c #1E3233",
"O  c #201E1F",
"+  c #2B1C26",
"@  c #3F1C34",
"#  c #37261E",
"$  c #332D1F",
"%  c #26252C",
"&  c #292526",
"*  c #262E39",
"=  c #2B3335",
"-  c #2C333D",
";  c #322129",
":  c #392121",
">  c #3B232B",
",  c #352A26",
"<  c #332630",
"1  c #372E31",
"2  c #3C3324",
"3  c #3A3935",
"4  c #373839",
"5  c #173D50",
"6  c #1B3E51",
"7  c #243E4F",
"8  c #2F3B47",
"9  c #2E4237",
"0  c #294038",
"q  c #3E513D",
"w  c #2D444C",
"e  c #204659",
"r  c #204B5C",
"t  c #294758",
"y  c #3B4E48",
"u  c #375659",
"i  c #225362",
"p  c #345868",
"a  c #3B5562",
"s  c #3B5864",
"d  c #3C5C6B",
"f  c #2D616F",
"g  c #376C7A",
"h  c #402625",
"j  c #432C2B",
"k  c #42272C",
"l  c #422E39",
"z  c #442633",
"x  c #45302F",
"c  c #4C332F",
"v  c #443230",
"b  c #4B3436",
"n  c #51343C",
"m  c #543B3B",
"M  c #593F3E",
"N  c #512B42",
"B  c #503442",
"V  c #573C45",
"C  c #583647",
"Z  c #5E3C4A",
"A  c #4B423B",
"S  c #564636",
"D  c #59433A",
"F  c #5C4A3C",
"G  c #54433B",
"H  c #655C3C",
"J  c #6A5C3C",
"K  c #61553B",
"L  c #74403D",
"P  c #794B3E",
"I  c #715A3C",
"U  c #425541",
"Y  c #514746",
"T  c #544548",
"R  c #564940",
"E  c #5D4541",
"W  c #5B4C45",
"Q  c #5E574F",
"!  c #5A5B49",
"~  c #595E58",
"^  c #425562",
"/  c #445D6C",
"(  c #4C5D66",
")  c #4C5D6A",
"_  c #556751",
"`  c #52685B",
"'  c #5F6152",
"]  c #596059",
"[  c #476169",
"{  c #446271",
"}  c #4B6872",
"|  c #4A6C78",
" . c #4A6576",
".. c #47736B",
"X. c #566061",
"o. c #556269",
"O. c #58676E",
"+. c #5F6563",
"@. c #526D7A",
"#. c #58747F",
"$. c #5F7A75",
"%. c #604645",
"&. c #624942",
"*. c #644C49",
"=. c #6C4B4D",
"-. c #68424C",
";. c #6D4A51",
":. c #6B4755",
">. c #665343",
",. c #64554B",
"<. c #665B43",
"1. c #635B4A",
"2. c #685646",
"3. c #6B564A",
"4. c #695D45",
"5. c #6D5E48",
"6. c #665C50",
"7. c #6F5651",
"8. c #6A5D52",
"9. c #655152",
"0. c #705540",
"q. c #755B43",
"w. c #705D4C",
"e. c #735352",
"r. c #795E53",
"t. c #795C5D",
"y. c #74535A",
"u. c #64644A",
"i. c #6C6145",
"p. c #6D624A",
"a. c #6D694C",
"s. c #676558",
"d. c #6B6452",
"f. c #6D6459",
"g. c #6C6951",
"h. c #6C6D5B",
"j. c #726146",
"k. c #716149",
"l. c #786343",
"z. c #79614E",
"x. c #78684F",
"c. c #726352",
"v. c #74675E",
"b. c #716D54",
"n. c #7C6555",
"m. c #7F6558",
"M. c #786851",
"N. c #7C6A59",
"B. c #717755",
"V. c #72755A",
"C. c #747A5E",
"Z. c #787554",
"A. c #646660",
"S. c #616669",
"D. c #696C61",
"F. c #6B7565",
"G. c #697768",
"H. c #647372",
"J. c #62767B",
"K. c #64797C",
"L. c #6C7970",
"P. c #6B7B78",
"I. c #7D6960",
"U. c #766E63",
"Y. c #757D62",
"T. c #7F7E60",
"R. c #73726D",
"E. c #777672",
"W. c #3D7B92",
"Q. c #4E7280",
"!. c #547888",
"~. c #597982",
"^. c #5D7885",
"/. c #5E7F90",
"(. c #607E88",
"). c #627A81",
"_. c #6E827E",
"`. c #718278",
"'. c #768C7F",
"]. c #4A8188",
"[. c #4C8D8F",
"{. c #5D8288",
"}. c #55959E",
"|. c #5092A2",
" X c #519BA6",
".X c #62808B",
"XX c #63888E",
"oX c #6B8A85",
"OX c #6B898D",
"+X c #658A90",
"@X c #6A8795",
"#X c #688799",
"$X c #6B8B94",
"%X c #6F928B",
"&X c #679094",
"*X c #738984",
"=X c #708E96",
"-X c #718F99",
";X c #70908F",
":X c #7A9687",
">X c #7C978E",
",X c #7B9D85",
"<X c #7B9D8F",
"1X c #73998E",
"2X c #7A9894",
"3X c #749691",
"4X c #649FA7",
"5X c #6CA4A3",
"6X c #6AAAB4",
"7X c #63AABC",
"8X c #7CA8A9",
"9X c #876754",
"0X c #84745A",
"qX c #916456",
"wX c #936158",
"eX c #816561",
"rX c #817660",
"tX c #837B63",
"yX c #897B60",
"uX c #80825D",
"iX c #868060",
"pX c #838B6B",
"aX c #8D8B65",
"sX c #8D8C69",
"dX c #828C73",
"fX c #8F916A",
"gX c #8E9573",
"hX c #8F9B77",
"jX c #8D977B",
"kX c #908766",
"lX c #918D68",
"zX c #919A6F",
"xX c #94916E",
"cX c #919570",
"vX c #949A73",
"bX c #939D7B",
"nX c #85A37F",
"mX c #94A17D",
"MX c #839F88",
"NX c #8C9F83",
"BX c #82A38C",
"VX c #8EA48B",
"CX c #87A483",
"ZX c #81A392",
"AX c #8CA594",
"SX c #91A59A",
"DX c #91ABAC",
"FX c #8FBFCB",
"GX c #88CFD1",
"HX c #A7C8D1",
"JX c #A4C4D1",
"KX c #B8DEEB",
"LX c #ACEDF1",
"PX c #C1DAD6",
"IX c #CBFFFF",
"UX c #CBF3FB",
/* pixels */
"<.<.4.<.4.4.<.4.<.4.4.4.<.4.<.4.2.>.<.<.u.$   X L qX9Xq.,.! <.H <.5.<.",
"<.<.2.H <.4.2.H <.<.4.4.4.<.4.4.3.<.4.i.4.2 . + L qXqX9XU.f.<.I <.<.<.",
"4.4.4.4.H 4.4.<.<.<.<.1.4.4.<.4.1.1.4.J 5.S , b P qX9X8.E.R.,.q.4.<.<.",
"4.4.4.<.2.4.<.4.<.<.<.4.4.4.4.4.5.5.<.H 5.>.D *.I r.d.~ J._.' K i.5.i.",
"<.<.4.<.<.<.<.4.4.4.4.4.4.4.4.5.5.3.p.5.,.F G 3.u.g.G.$.$X8X'._ 4.i.i.",
"4.4.4.4.<.4.4.4.4.4.4.4.4.4.i.i.5.5.w.c.R , , Y q U ` ..].6X5X..4.4.<.",
"4.4.<.4.4.4.4.<.4.4.5.4.i.1.i.i.4.4.w.6.3 X % 4 0 9 y u f |.6X[.4.4.4.",
"4.4.4.5.4.4.4.4.4.4.4.5.i.i.4.4.I k.5.A & % 8 * o = 0 w r W.7X X4.4.4.",
"5.4.i.5.4.4.4.i.5.J i.p.4.4.u.<.H a.R ; + ; 3 3 4 = 8 7 e g }.GXSXq.I ",
"4.5.4.5.i.5.5.4.i.i.5.p.p.<.5.i.a.W v > l T Q Q ] X.^ t 5 i 4XLXPXw.k.",
"i.5.i.5.4.5.5.<.<.k.<.<.i.5.k.i.W x z V 9.U.T.T.`.*X).a 6 e FXIXDX1.8.",
"5.i.<.5.i.5.5.i.i.k.<.<.w.k.8.F z z Z t.I.rXsXsX:X>X;X@.t p KXUXP.3.8.",
"5.5.w.i.j.5.i.j.p.p.i.i.i.k.3.j @ C y.eX0XiXxXzXBX2X;X(.{ d JXHX' 5.4.",
"5.5.w.4.i.5.w.i.d.i.i.j.4.w.D : N :.t.m.yXxXvXhXBXZX3X$X^.d .X-X<.k.w.",
"i.w.i.i.q.5.5.w.p.<.5.J j.3.c k Z ;.r.9XkXvXmXCXBXZX2X$X#X} a } a.5.<.",
"w.w.w.j.5.5.w.i.1.u.i.J l.>.h n -.>.r.0XkXcXNXAXBX<X2XOX{.$.s d u.d.s.",
"i.w.j.5.5.j.w.5.4.4.5.k.n.D k n -.=.r.0XaXvXmXmXCXVX2X$X#X| ^ ) p.p.p.",
"j.5.5.5.i.i.w.5.i.4.k.5.3.M z C ;.e.9XyXaXvXmXmXVXSX2X$X.X .a ) a.p.p.",
"w.j.w.j.w.w.k.w.i.i.k.k.3.G b V :.e.N.yXaXzXhXmXmXBX2XXX!.{ ^ ) p.p.p.",
"w.i.i.j.w.j.5.k.k.5.k.k.3.E m n -.7.N.yXsXgXbXhXnX,X1XXXQ./ / ) p.p.p.",
"j.k.i.k.k.5.k.5.p.4.5.i.3.F M m *.3.N.iXsXcXzXhXCX'.;X.X| { ) o.p.k.p.",
"i.k.5.k.5.k.w.k.p.i.5.k.K D D -.E ,.b.iXfXgXzXzXCX:XoX#. .) o.S.p.k.k.",
"k.k.k.k.i.k.k.p.p.k.5.k.3.F &.*.W ,.i.V.`.aXpXuX'.oX).#.@.O.A.A.k.k.k.",
"i.k.w.k.k.k.k.k.p.k.4.x.M.>.&.*.f.5.i.i.l.B.`.`.H._.#.^.).H.A.s.k.a.k.",
"k.5.k.k.i.k.k.k.k.k.k.k.k.p.5.5.1.u.d.b.V.C.Y.Y.oXoX_.G.D.s.d.w.j.k.k.",
"k.k.k.j.k.k.p.k.k.k.k.k.k.i.5.k.5.p.p.g.b.V.V.C.G.G.F.h.g.k.k.z.k.k.k.",
"k.k.k.w.j.j.w.k.k.k.k.k.k.k.k.k.k.k.p.p.p.g.b.b.a.a.i.a.k.j.j.l.k.k.k.",
"w.k.k.w.j.w.w.k.k.j.w.k.k.k.k.k.w.k.k.k.k.i.k.k.l.i.l.J j.k.k.k.j.x.k.",
"k.k.k.k.k.k.k.k.k.k.j.k.k.k.x.k.z.k.k.k.k.g.z.k.x.k.k.p.k.g.d.d.x.j.j.",
"j.k.j.j.k.j.i.j.j.i.j.i.j.j.j.x.k.k.k.z.l.k.k.k.k.p.p.p.g.d.d.d.k.k.k.",
"k.j.k.k.j.k.k.k.j.j.k.j.k.j.k.j.k.x.k.k.k.z.k.k.i.k.k.k.k.k.k.k.x.k.k.",
"j.k.k.k.k.j.k.j.i.j.k.k.k.k.i.k.k.k.a.k.k.k.k.z.l.j.l.j.l.l.l.l.k.k.x.",
"x.x.a.x.x.x.x.x.x.x.x.x.x.x.x.x.x.x.x.x.x.x.x.x.x.x.x.x.x.x.x.M.x.x.M."
};
