/* XPM */
static char *AdvGirl_03_05_ctrl[] = {
/* columns rows colors chars-per-pixel */
"45 14 187 2",
"   c #031016",
".  c #00181A",
"X  c #0B181E",
"o  c #140C05",
"O  c #150E0A",
"+  c #190D04",
"@  c #1C0D0C",
"#  c #1F0F12",
"$  c #15120C",
"%  c #1A1004",
"&  c #1B130D",
"*  c #191B06",
"=  c #1C190C",
"-  c #1D1610",
";  c #1E1811",
":  c #10282A",
">  c #1F3236",
",  c #220C0E",
"<  c #2A0D06",
"1  c #230E10",
"2  c #24140A",
"3  c #22180B",
"4  c #2D120B",
"5  c #2B190D",
"6  c #211412",
"7  c #231A11",
"8  c #2A1115",
"9  c #32120D",
"0  c #351B0A",
"q  c #39180F",
"w  c #351812",
"e  c #3A1C13",
"r  c #3D1E19",
"t  c #332113",
"y  c #3C291B",
"u  c #21252E",
"i  c #0F5557",
"p  c #144D54",
"a  c #155B5D",
"s  c #1F6064",
"d  c #275761",
"f  c #3D767F",
"g  c #412116",
"h  c #44231E",
"j  c #4E2A1C",
"k  c #50341F",
"l  c #433022",
"z  c #4B372C",
"x  c #4D392E",
"c  c #542420",
"v  c #522E20",
"b  c #532B29",
"n  c #553022",
"m  c #5A3427",
"M  c #503C31",
"N  c #653823",
"B  c #61392D",
"V  c #693C26",
"C  c #613B38",
"Z  c #554136",
"A  c #574338",
"S  c #59453A",
"D  c #5B4A3D",
"F  c #6E412B",
"G  c #664232",
"H  c #634833",
"J  c #684434",
"K  c #6B4835",
"L  c #6F4A38",
"P  c #73432E",
"I  c #734631",
"U  c #7B4732",
"Y  c #784B36",
"T  c #7B4E39",
"R  c #75503D",
"E  c #5A5947",
"W  c #44766D",
"Q  c #604E42",
"!  c #675549",
"~  c #6C594D",
"^  c #704741",
"/  c #725C47",
"(  c #7D5744",
")  c #7C5953",
"_  c #7B604D",
"`  c #746055",
"'  c #7F6451",
"]  c #7B655A",
"[  c #696967",
"{  c #1F7680",
"}  c #257F88",
"|  c #2B7080",
" . c #297C92",
".. c #377F98",
"X. c #3D7D99",
"o. c #218C96",
"O. c #258C9B",
"+. c #2D9397",
"@. c #308A8A",
"#. c #378592",
"$. c #3F8F90",
"%. c #36928F",
"&. c #39939C",
"*. c #3F87A0",
"=. c #3B90A5",
"-. c #468283",
";. c #488E90",
":. c #469091",
">. c #42909D",
",. c #548D87",
"<. c #5D8B81",
"1. c #688D86",
"2. c #718E87",
"3. c #83553D",
"4. c #845E4B",
"5. c #8C5D45",
"6. c #84654C",
"7. c #89634E",
"8. c #816854",
"9. c #806A5F",
"0. c #8B6C50",
"q. c #93614A",
"w. c #9F6A48",
"e. c #946D5C",
"r. c #996750",
"t. c #947257",
"y. c #826C61",
"u. c #917361",
"i. c #917B66",
"p. c #90786E",
"a. c #9F7D61",
"s. c #9D7D6E",
"d. c #A36E4C",
"f. c #AA7352",
"g. c #AC7D51",
"h. c #B07B51",
"j. c #B37B5A",
"k. c #AB7F62",
"l. c #84877E",
"z. c #99836E",
"x. c #9C8671",
"c. c #B3835D",
"v. c #AE8164",
"b. c #A9836E",
"n. c #AA886C",
"m. c #A68272",
"M. c #A58878",
"N. c #B38463",
"B. c #BA8A63",
"V. c #BC8C6A",
"C. c #B28F73",
"Z. c #BF9064",
"A. c #B59676",
"S. c #B5977D",
"D. c #B3987A",
"F. c #B9907A",
"G. c #BB9974",
"H. c #C68E63",
"J. c #C59165",
"K. c #C49368",
"L. c #CA9066",
"P. c #CC946A",
"I. c #C79771",
"U. c #C59976",
"Y. c #C49C7A",
"T. c #CC9B74",
"R. c #CA9C78",
"E. c #D09D7E",
"W. c #C4A175",
"Q. c #C6A27D",
"!. c #CCA27C",
"~. c #D0A379",
"^. c #929582",
"/. c #A39685",
"(. c #A39B84",
"). c #B19B86",
"_. c #B39988",
"`. c #D09D81",
"'. c #C6A482",
"]. c #C9A384",
"[. c #C9A883",
"{. c #CDAA89",
"}. c #D3A784",
"|. c #D3AE8C",
" X c #DAAF8C",
".X c #D4B08C",
"XX c #D9B18D",
/* pixels */
"%.W E n 0 3 + + & @ O O $ $ - $ - - - - - ; ; - = = & = * - * = * * * * * * * * = * = * & ",
"$.1./.F.b.i./ H l y e 5 2 2 2 2 @ + @ 6 7 & O o - $ & & $ $ $ $ o O & $ O $ & - $ $ - - - ",
";.2._.`.R.].Y.U.C.n.a.t.0.6.6.6.' _ ' i.x.z.i.i.y.y.] ` ~ E Q Q A D A Z x z M A D ~ y.p.p.",
":.2.).R.R.!.!.!.T.T.R.R.R.R.R.Y.R.U.R.}. X X.X X|.|.|.|..X|.{.'.{.|.|.{.].'.].{.[.'.Q.Y.Y.",
"@.<.(.].}.Q.Y.W.T.P.T.T.T.T.U.I.L.P.P.L.H.L.J.H.P.P.H.H.K.K.H.B.V.V.B.B.N.N.c.c.g.g.f.h.h.",
"+.,.^.S.A.S.A.G.V.V.B.N.v.v.v.v.f.j.j.f.d.d.d.w.r.q.7.q.7.5.3.T T Y I P P V V N V F U U U ",
"o.-.l.M.m.s.t.e.7.4.( R L K J G B B B m v v v j h h r r e w w 5 4 4 4 4 9 9 8 5 2 4 9 9 9 ",
"O.f [ ) ^ C b c g q q 0 4 4 < < 8 1 1 1 1 1 1 1 & $ , & & & - 3 & = 7 3 = = ; ; - 6 6 6 8 ",
"X.s s > # , @ , & $ $ & & & - & - = = - - - ; - 3 & - 7 - - - 7 ; ; ; ; 7 ; ; ; ; ; ; ; - ",
" .f s > - - $ O & $ & & & = & - - - - ; ; ; - ; = 3 = 7 = 7 ; - ; ; ; ; ; ; ; ; ; ; ; ; 7 ",
" .} a : O $ ; - & & & & & - - - - - - - - ; - - 3 & = - - 7 ; ; ; ; ; ; ; ; ; ; ; ; ; ; - ",
"..#.p X # & - - - & & - - - - - - & - - ; - - - = 7 3 - - - ; ; 6 ; ; ; ; ; ; ; ; ; ; ; ; ",
"*.=.p   # 2 & 3 & & - - - - - - - - - - - - - 7 - 3 = 7 - - 7 - ; ; ; ; ; ; ; ; ; ; ; 6 - ",
"=.=.i . - -   - - & & & - & = - - = - - - - - - 3 = - - 7 = ; ; ; ; ; ; ; ; ; 6 ; ; ; ; 7 "
};
