/* XPM */
static char *AdvGirl_02_02_ctrl[] = {
/* columns rows colors chars-per-pixel */
"49 15 117 2",
"   c #000100",
".  c #010000",
"X  c #010200",
"o  c #020100",
"O  c #020300",
"+  c #030200",
"@  c #030400",
"#  c #040300",
"$  c #040301",
"%  c #040500",
"&  c #050400",
"*  c #050600",
"=  c #050601",
"-  c #060500",
";  c #060501",
":  c #060701",
">  c #070601",
",  c #060702",
"<  c #070602",
"1  c #060604",
"2  c #060606",
"3  c #070802",
"4  c #070803",
"5  c #080702",
"6  c #080703",
"7  c #0A0702",
"8  c #080705",
"9  c #0C0701",
"0  c #080903",
"q  c #090803",
"w  c #0B0803",
"e  c #080904",
"r  c #090804",
"t  c #090A05",
"y  c #0A0904",
"u  c #0A0905",
"i  c #0A0907",
"p  c #0A0B06",
"a  c #0B0A06",
"s  c #0B0C07",
"d  c #0C0902",
"f  c #0D0802",
"g  c #0D0A03",
"h  c #0E0903",
"j  c #0C0904",
"k  c #0D0804",
"l  c #0C0B06",
"z  c #0C0B07",
"x  c #0E0905",
"c  c #0E0B04",
"v  c #0F0A04",
"b  c #0B0A08",
"n  c #0C0D08",
"m  c #0D0C08",
"M  c #0D0C0A",
"N  c #0D0E09",
"B  c #0E0D09",
"V  c #0E0F0A",
"C  c #0F0E0A",
"Z  c #0F100B",
"A  c #100F0A",
"S  c #11100B",
"D  c #10110C",
"F  c #12110D",
"G  c #12110F",
"H  c #13120E",
"J  c #131210",
"K  c #161511",
"L  c #161712",
"P  c #171614",
"I  c #181914",
"U  c #1A1B16",
"Y  c #1D1C1A",
"T  c #21201E",
"R  c #21221D",
"E  c #23241F",
"W  c #292A25",
"Q  c #2E2D2B",
"!  c #302F2D",
"~  c #31322D",
"^  c #32332E",
"/  c #343331",
"(  c #353432",
")  c #373833",
"_  c #383733",
"`  c #3B3A38",
"'  c #464742",
"]  c #4D4C4A",
"[  c #4E4F4A",
"{  c #51504C",
"}  c #555452",
"|  c #595854",
" . c #595856",
".. c #5A5957",
"X. c #5A5B56",
"o. c #5C5B57",
"O. c #62615F",
"+. c #676863",
"@. c #6F706B",
"#. c #797A75",
"$. c #7F7E7A",
"%. c #82837E",
"&. c #83847F",
"*. c #8A8987",
"=. c #939290",
"-. c #9D9C9A",
";. c #A09F9B",
":. c #A2A39E",
">. c #A5A6A1",
",. c #A7A6A4",
"<. c #ABAAA8",
"1. c #ACABA9",
"2. c #AEAFAA",
"3. c #B1B0AC",
"4. c #B2B1AD",
"5. c #B5B6B1",
"6. c #BEBFBA",
/* pixels */
"1 1 1 , , , , , 3 3 3 3 3 3 3 3 , 0 p O V O O n , $ S O A 5 5 $ 0 0 3 5 5 5 5 9 k k k k x x x x h ",
"1 1 1 , , , , , 3 3 3 3 3 3 3 3 0 , , p , @ P O A $ 5 x O 5 5 8 3 , 3 5 5 9 9 5 k k k k x x x x 9 ",
"1 1 1 , , , , , 3 3 3 3 3 3 3 3 O , , , b O O V 5 , O H O p x 5 , , 3 5 5 0 9 0 k k k k x x x x 9 ",
"1 1 1 , , , , , 3 3 3 3 3 3 3 3 , s 0 , , p O O O 5 8 $ $ 5 O 8 , , , 5 0 9 x x k k k k x x x x h ",
"1 1 1 , , , , , 3 3 3 3 3 3 3 3 p , O , p ] +.^ b ] G O M $  .Y , , , 5 p 9 x x k k k k x x x x h ",
"1 1 1 , , , , , 3 3 3 3 3 3 3 3 , O , O W @.X.2.Q =.} O $ ( <.T , , , 5 5 0 5 k k k k k x x x x v ",
"1 1 , , , , , , 3 3 3 3 3 3 3 3 O p V O ^ X.L 5.` ..,.8 O *.O.8 5 3 5 5 5 5 9 5 k k k k x x x x h ",
"1 1 , , , , , , 3 3 3 3 3 3 3 , p 3 O O E #.%.:.G O -.( ! <.P O 0 0 , 5 5 9 5 9 k k k k x x x x 9 ",
"1 2 2 1 1 , , , , , , , , , , , O b O O E 6.&.U O 1 _ $.;. .O 8 5 5 5 5 5 5 5 5 5 p 5 p 5 p 5 p v ",
"1 2 2 1 1 , , , , , , , , , , , p , 1 O ' >.e O $ $ x 3.4.M 5 5 p 5 5 5 5 5 p 5 x 0 x 0 x 0 x 0 x ",
"2 2 2 1 1 , , , , , , , , , , , @ e , O ( +.O @ x 8 O o.{ O M x 5 0 5 5 5 5 5 0 0 p 5 x 0 p 5 x h ",
"2 2 2 1 1 , , , , , , , , , , , @ s O p O O p p , $ A O O K , $ x 5 5 5 5 5 x 5 x 5 p 0 x 5 p 0 h ",
"2 2 2 1 1 1 , , , , , , , , , , @ s 3 O O , 3 s x O $ , 5 8 $ 8 5 5 5 5 5 5 5 0 0 x 0 p x p 5 x 0 ",
"2 2 2 1 1 , , , , , , , , , , , O e p @ e e O b 8 k 5 H 8 O A p p 5 5 5 5 5 x 5 p 5 x 5 5 p p 5 h ",
"2 2 2 1 1 , , , , , , , , , , , e O O V O , n $ $ , 5 $ , x ; 8 5 0 5 5 5 5 5 0 x 5 0 p p 5 5 p h "
};
