/* XPM */
static char *AdvGirl_07_02_ctrl[] = {
/* columns rows colors chars-per-pixel */
"25 22 221 2",
"   c #010200",
".  c #000709",
"X  c #000805",
"o  c #000A08",
"O  c #090000",
"+  c #0C0008",
"@  c #001403",
"#  c #00120A",
"$  c #031C0B",
"%  c #061917",
"&  c #081513",
"*  c #110000",
"=  c #100805",
"-  c #1F0000",
";  c #1F0B0A",
":  c #17120F",
">  c #171916",
",  c #0B200D",
"<  c #11201B",
"1  c #112818",
"2  c #1D271E",
"3  c #1A2A2A",
"4  c #17302C",
"5  c #193E36",
"6  c #270B0A",
"7  c #290706",
"8  c #2B161B",
"9  c #320202",
"0  c #3C0405",
"q  c #36101D",
"w  c #2F1C20",
"e  c #391924",
"r  c #282923",
"t  c #2D342D",
"y  c #293A28",
"u  c #2D3130",
"i  c #352727",
"p  c #32342F",
"a  c #333A34",
"s  c #3D3A35",
"d  c #20483F",
"f  c #334037",
"g  c #3C4339",
"h  c #3F503D",
"j  c #294641",
"k  c #2B524B",
"l  c #2A594E",
"z  c #2D5550",
"x  c #2C5B52",
"c  c #314745",
"v  c #3F4B49",
"b  c #325653",
"n  c #315A54",
"m  c #345D59",
"M  c #3B5A55",
"N  c #3B5D5C",
"B  c #2C6054",
"V  c #316155",
"C  c #34625A",
"Z  c #36685F",
"A  c #3B625A",
"S  c #396856",
"D  c #3C6A5F",
"F  c #3D6C62",
"G  c #3F7168",
"H  c #41443B",
"J  c #404936",
"K  c #4C4F3C",
"L  c #404B45",
"P  c #4B4843",
"I  c #41544E",
"U  c #4B554C",
"Y  c #495352",
"T  c #5E5F59",
"R  c #4A6248",
"E  c #40645D",
"W  c #54635C",
"Q  c #5B655C",
"!  c #5D775A",
"~  c #446A62",
"^  c #4C6D64",
"/  c #4B6E68",
"(  c #427167",
")  c #43746A",
"_  c #4C7062",
"`  c #4A756A",
"'  c #497963",
"]  c #4D7D73",
"[  c #557E6C",
"{  c #527D73",
"}  c #5A7971",
"|  c #616D63",
" . c #60746B",
".. c #6D7067",
"X. c #6A7E75",
"o. c #70706E",
"O. c #4E8275",
"+. c #4E8679",
"@. c #4F8973",
"#. c #4E8A7B",
"$. c #4D937B",
"%. c #56866E",
"&. c #5C8A6E",
"*. c #528176",
"=. c #528679",
"-. c #528C76",
";. c #528C7D",
":. c #5C8174",
">. c #5A847A",
",. c #5D8B74",
"<. c #5C8F7C",
"1. c #54917A",
"2. c #5B9075",
"3. c #5E957E",
"4. c #618D69",
"5. c #698667",
"6. c #61847D",
"7. c #609275",
"8. c #63947A",
"9. c #639A7C",
"0. c #69987B",
"q. c #67A37D",
"w. c #6EA677",
"e. c #72A77D",
"r. c #76AC78",
"t. c #548F81",
"y. c #5C8D82",
"u. c #5B8E89",
"i. c #519681",
"p. c #5A9384",
"a. c #5D9489",
"s. c #608E83",
"d. c #6B8A83",
"f. c #619485",
"g. c #63958A",
"h. c #629A81",
"j. c #63998B",
"k. c #6D9088",
"l. c #6D9D85",
"z. c #6D9B8B",
"x. c #6F9A90",
"c. c #71948D",
"v. c #70988D",
"b. c #78968C",
"n. c #739A93",
"m. c #7D9C93",
"M. c #7C9F98",
"N. c #6EA880",
"B. c #74AC83",
"V. c #75A393",
"C. c #7BA597",
"Z. c #7BA99D",
"A. c #8D898A",
"S. c #829287",
"D. c #8D928B",
"F. c #859B93",
"G. c #869F99",
"H. c #8D9393",
"J. c #8C9A93",
"K. c #918E89",
"L. c #909996",
"P. c #999393",
"I. c #81A196",
"U. c #84A49A",
"Y. c #80AA92",
"T. c #83A99B",
"R. c #8AA39C",
"E. c #89A99E",
"W. c #8EB199",
"Q. c #91A29A",
"!. c #94A89F",
"~. c #9EA59E",
"^. c #8CA6A0",
"/. c #8BAAA2",
"(. c #8DAEA8",
"). c #85B0A7",
"_. c #8AB0A6",
"`. c #8CB4AA",
"'. c #8CB9A5",
"]. c #92ABA3",
"[. c #93AEA9",
"{. c #99ACA3",
"}. c #98AEA8",
"|. c #93B0A6",
" X c #94B3AB",
".X c #95B8A2",
"XX c #94B9AC",
"oX c #9BB3AB",
"OX c #9ABBAD",
"+X c #96B0B1",
"@X c #96B9B1",
"#X c #9EB7B6",
"$X c #99B5B8",
"%X c #9BBBB2",
"&X c #A5AFA6",
"*X c #A1B5AC",
"=X c #A3B3B0",
"-X c #A2BCB4",
";X c #A5BABF",
":X c #A8BFB7",
">X c #ABBDB8",
",X c #B0B3AC",
"<X c #B0BDB6",
"1X c #9EC0AF",
"2X c #9EC2B3",
"3X c #9CC0BC",
"4X c #A6C4AC",
"5X c #A4C7B1",
"6X c #A5C2BB",
"7X c #A5C9B5",
"8X c #A9C4BB",
"9X c #A8C9B4",
"0X c #B1C6BB",
"qX c #B5C7C1",
"wX c #B2C9C3",
"eX c #BDC8C0",
"rX c #BDD1C6",
"tX c #C0CDC4",
"yX c #CBD4CC",
"uX c #D0DDD3",
"iX c #EEF1EA",
/* pixels */
"m m n z l B B B l B Z C Z G ) ) { *.+.#.t.t.y.y.j.",
"C m n C n l l B V Z C C G G G +.] *.;.#.#.;.y.g.a.",
"m m x n x x n V B C C C F ( ) ) ] O.=.;.#.;.t.p.a.",
"m m x z x V n l l V D ' ` *.p.>.>.*.] +.t.p.p.a.a.",
"z m m m x b z n ` :.z.(.`._.XX`.`.Z.x.f.=.O.1.p.a.",
"m z z n z b ^ >.m.[.E.I./._.OXXXXX@X%X`.C.f.p.a.a.",
"m n z z b / k./.}.OX*X:X-X*X-X].oX%X-X8X%X).h.1.a.",
"z m m k E d.^.[.!. .X.*X].J.*X{.6X].R.[.6X%XZ.p.a.",
"N b b k >.^.F.oXS.2 Q P K.t &X*XeXW I 0X6XOX7XC.p.",
"b b z A c.^.G.oXD.a iXr ,Xg | uX&Xf R.8X%X1X9X.X3.",
"b b k ~ M.E.R.*XK.p ~.t eXD.p yX..U rX-XXX1X9X9X9.",
"m N k ~ n.^.E.oXP.> L Q.0X<Xa o.H ~.0X-X.X1X9X4Xe.",
"b n n N k.(.R.}.A.u qX8X[.qXL.  Q yX[.OX@X2X7XE.r.",
"n m N z [ I.^.oXH.v wXU./.oX>XY }.:X|.#X%X2X'.N.w.",
"m N C x A 6.G.}.=X}.[./.(. X-X-XwX).#X$X%X`.z.1.h.",
"n C m A m A d.I.^.[.^.`.).(. X[.).%X$X;X$Xx.+.$.a.",
"% 3 c M A A F G z.I.|.}.}.|.XXXXoXOX_.V.p.#.#.t.a.",
". . . % 3 j M E / } d.b.I.E.T.C.V.z.3.@.@.1.1.-.i.",
"          . $ > 5 d l S ' %.,.&.:.,.3.2.2.2.8.0.9.",
"O     O           o # $ 1 y g K W %.,.9.9.q.e.B.r.",
"  O             + + O O * - 9 0 8 i s g h R ! 5.4.",
"              o   .     = ; 6 7 q e w :   X @ , , "
};
