/* XPM */
static char *AdvGirl_01_02_ctrl[] = {
/* columns rows colors chars-per-pixel */
"16 70 40 1",
"  c #050503",
". c #060608",
"X c #060802",
"o c #040A0B",
"O c #090602",
"+ c #0A0803",
"@ c #0B0A0A",
"# c #130301",
"$ c #120608",
"% c #120903",
"& c #140A08",
"* c #1B0401",
"= c #1B0902",
"- c #230400",
"; c #250508",
": c #230904",
"> c #240A09",
", c #2B0401",
"< c #2C0903",
"1 c #2B0A0A",
"2 c #330401",
"3 c #330A02",
"4 c #350D0B",
"5 c #390501",
"6 c #3B0B01",
"7 c #3B0E08",
"8 c #351008",
"9 c #3A1005",
"0 c #3C130A",
"q c #410C01",
"w c #431304",
"e c #451509",
"r c #4B1303",
"t c #4E1907",
"y c #4A190A",
"u c #421912",
"i c #531A07",
"p c #521A09",
"a c #612D2A",
"s c #793B3C",
/* pixels */
"@@@@.@@o@@.o@@@@",
"               .",
"                ",
"         . .....",
"               .",
"                ",
"  ..  ... .. ...",
" .          .. .",
" .           ..O",
". .             ",
"...             ",
"..       .    O.",
"...     XX XX X ",
"....      X  XXX",
". .     X XXX  X",
"...     XX X XX ",
"        XXXXXXXX",
"      . XXXXXXXX",
"      .OXXXXXXX+",
"     O. XXXXXXX+",
"X XXXXXXXX+XX+XX",
" XXX++X+++X+XXXX",
" XXXX+@X+++++XXX",
" XXX++++++++XX O",
"XXXXX+XX+X++++O.",
"XXXXXX+X++X++XO+",
"XXXXXX+XXX+++OO+",
"XXXXX+X+X++X+XO+",
"XXXXXX++XX+X+.OX",
"X XXXX++XX+X++++",
"XXXXXXX++++++++X",
"XXXXXXX++XX+OXOO",
"OXOOOOOOOOOOOOO$",
"O OO OXXOOOOOO%+",
"OXXOXOO OO.+O+++",
"OOX OOOOOOO+O%$%",
" OOOO XO++.+++%+",
"XOX OOXO+O+++++%",
"X XOO OOOOO+O+O%",
"OOOOO O OOO+OO#O",
"OO++O++++$$+  O*",
"XOXOX+++++$.oX#*",
"OOX+O++++#$@XX%*",
" XX+++++++++oX#-",
"OO++.++++%+%++=-",
"O+X.X+++++++X+*,",
"OO+O+X++X+%++%:,",
" O+X++++X+%+X%=<",
"O X+++%+@%+%%=<<",
"OOO++%+$&++%#*<u",
"OOO++++%@XX++:3a",
"OO++++%@& X+%-5s",
"OO++++%+%+X+*-5s",
"XO+%+%+%+++=<<,a",
"XO++@+&@+&#;1<-u",
"X++++%+&+&#14<-<",
"%+@@oX++$><qe9-#",
"+.X@@@=%=19ww3-#",
"OO+++==*,9yrq,*#",
"X++##-<86tpq5,#$",
"%O#*:<69rpr5,-&$",
"%#*,9w65rrq2,-*$",
"**36wr65qq5,;*&&",
"*10ewq9q552;;***",
";40355333,,,-*&&",
"<145255532,,**&&",
"*-,,2255,,,-*#%+",
"+#=,,226,---=%@+",
"O+%*--,3---*=%++",
" O#**-------=%++"
};
