/* XPM */
static char *AdvGirl_01_05_img[] = {
/* columns rows colors chars-per-pixel */
"85 70 207 2",
"   c black",
".  c #010101",
"X  c #010103",
"o  c #030301",
"O  c #020202",
"+  c gray1",
"@  c #010005",
"#  c #020204",
"$  c #030400",
"%  c #030500",
"&  c #040300",
"*  c #040500",
"=  c #050400",
"-  c #040402",
";  c #050503",
":  c #040601",
">  c #050600",
",  c #050601",
"<  c #050702",
"1  c #060500",
"2  c #060501",
"3  c #060700",
"4  c #060701",
"5  c #070601",
"6  c #060702",
"7  c #070602",
"8  c #040404",
"9  c gray2",
"0  c #040406",
"q  c #050507",
"w  c #060604",
"e  c #070705",
"r  c #060606",
"t  c #070707",
"y  c #060608",
"u  c #040902",
"i  c #070800",
"p  c #060902",
"a  c #070802",
"s  c #070803",
"d  c #080401",
"f  c #090502",
"g  c #090601",
"h  c #080702",
"j  c #080703",
"k  c #0A0501",
"l  c #0A0603",
"z  c #0A0702",
"x  c #0B0602",
"c  c #080705",
"v  c #080607",
"b  c #0A0605",
"n  c #0B0704",
"m  c #0C0703",
"M  c #0C0704",
"N  c #080903",
"B  c #090803",
"V  c #090A02",
"C  c #0B0801",
"Z  c #0B0803",
"A  c #0A0A00",
"S  c #0A0A02",
"D  c #080904",
"F  c #090804",
"G  c #080806",
"H  c #090806",
"J  c #090A04",
"K  c #090A05",
"L  c #0A0904",
"P  c #0A0905",
"I  c #0A0B05",
"U  c #0B0A05",
"Y  c #0B0A06",
"T  c #090C05",
"R  c #0B0C06",
"E  c #0C0900",
"W  c #0D0900",
"Q  c #0C0902",
"!  c #0D0802",
"~  c #0D0A01",
"^  c #0D0A03",
"/  c #0E0903",
"(  c #0E0A00",
")  c #0E0A01",
"_  c #0F0B02",
"`  c #0C0805",
"'  c #0C0904",
"]  c #0D0804",
"[  c #0D0906",
"{  c #0D0A05",
"}  c #0C0B06",
"|  c #0C0B07",
" . c #0E0905",
".. c #0E0B04",
"X. c #0F0A04",
"o. c #0E0A07",
"O. c #0E0B06",
"+. c #0F0A06",
"@. c #0C0D07",
"#. c #0D0C07",
"$. c #0F0C07",
"%. c gray3",
"&. c #090909",
"*. c gray4",
"=. c #0B0B0B",
"-. c #0B0B0D",
";. c #0B0D08",
":. c #0F0B08",
">. c #0D0C08",
",. c #0D0D0B",
"<. c #0C0E09",
"1. c #0D0F0A",
"2. c #0E0D08",
"3. c #0E0D09",
"4. c #0F0E09",
"5. c #0E0F0A",
"6. c #0C0C0C",
"7. c gray5",
"8. c #0C0C0E",
"9. c #0E0E0C",
"0. c #0F100B",
"q. c #100B05",
"w. c #100B07",
"e. c #100C03",
"r. c #100D04",
"t. c #100D06",
"y. c #110C06",
"u. c #110E05",
"i. c #110E07",
"p. c #130C04",
"a. c #120D07",
"s. c #120E05",
"d. c #120F06",
"f. c #130F06",
"g. c #140D05",
"h. c #140D07",
"j. c #150E06",
"k. c #160F07",
"l. c #100B08",
"z. c #100A0A",
"x. c #110B0B",
"c. c #100C09",
"v. c #100D08",
"b. c #110C08",
"n. c #110C09",
"m. c #110D0A",
"M. c #110E09",
"N. c #120D09",
"B. c #120D0A",
"V. c #120F08",
"C. c #130E08",
"Z. c #120F0A",
"A. c #130E0A",
"S. c #130E0B",
"D. c #140C09",
"F. c #140F09",
"G. c #150E08",
"H. c #140F0B",
"J. c #160F09",
"K. c #141007",
"L. c #10110B",
"P. c #11100B",
"I. c #11120A",
"U. c #12110C",
"Y. c #13120D",
"T. c #151108",
"R. c #14110A",
"E. c #15100A",
"W. c #15120B",
"Q. c #16110B",
"!. c #17100A",
"~. c #161209",
"^. c #15100C",
"/. c #14130E",
"(. c #16130C",
"). c #17120C",
"_. c #17140D",
"`. c #18110B",
"'. c #19100B",
"]. c #18130D",
"[. c #19120C",
"{. c #18130F",
"}. c #1A110C",
"|. c #1A130D",
" X c #1B120D",
".X c #18150E",
"XX c #19140E",
"oX c #1B140C",
"OX c #1B140E",
"+X c #1C130E",
"@X c #1C150B",
"#X c #1C150D",
"$X c #1C150F",
"%X c #1D140F",
"&X c #1D160C",
"*X c #1D160E",
"=X c #1E170D",
"-X c #1E170F",
";X c #1F180E",
":X c #111111",
">X c #191410",
",X c #1A1511",
"<X c #1D1610",
"1X c #1E1711",
"2X c #1F1714",
"3X c #1F1810",
"4X c #1F1812",
/* pixels */
"0.0.0.0.5.5.5.5.5.5.1.1.1.0.1.;.9.:.8.9.9.8.=.5.-.-.-.-.-.8.-.-.=.&.y =.=.=.e e y y e y e y e e y y y y e e y e y y y y =.y =.e y y =.y =.e y y =.y =.e y y =.y =.e y e :X",
"s s s 6 6 6 6 6 % % D % % % % % o o % o % o e o 0 0 q y q q q 0 e 0 e 0 o 0 0 0 o o o o o o o o o o o o o o o o o o o o o o o o o o o o o o o o o o o o o o o o o o o o y ",
"6 6 6 6 6 6 % 6 6 % s s % % % % o o o o o o o o 0 0 q q 0 e 0 0 0 o o 0 0 o o o o o o o o o o o o o o o o o o o o o o o o o o o o o o o o o o o o o o o o o o o o o o o e ",
"K K K K 6 K N K D D D K D D D s e 6 e & e e e & y e =.y =.y e e o 0 e o o o o o e 0 0 0 o o o o o o o o o o o o o o o o o o o o o o o o o o o o o o o o o o o o o o o o =.",
"K s 6 s s s s 6 s s D D D s 6 6 6 6 6 6 6 6 6 6 0 e 0 e e 0 0 0 e 6 e & 0 & 6 & 0 o 0 o o o o o o o o o o o o o o o o o o o o o o o o o o o o o o o o o o o o o o o o o =.",
"s K K s s s s s 6 l 6 l D e 6 6 6 6 6 6 6 6 6 6 o & e e e o e o o 6 % 6 % 6 % o 0 o o o o o o o o o o o o o o o o o o o o o o o o o o o o o o o o o o o o o o o o o o o y ",
"K K K K K s K 6 K n l K K n 6 6 N N N N 6 6 N N e e e e e e e e 6 6 o % 6 o o % 0 0 0 0 o 0 0 o o o o 0 o o o o o o o o o o o o o o o o o o o o o o o o o o o o o o o o =.",
"s s s 6 6 6 6 6 & 6 6 l & & & & 6 6 6 6 6 6 6 l e e e e e e e e 6 6 6 6 6 % 6 6 o o o 0 o o o 0 o o o o o o o o o o o o o o o o o o o o o o o o o o o o o o o o o o o o e ",
"e n e e e e e n n e e e e n e e N m N N l N N N s l 6 s l s s l 6 6 o 6 6 6 o % & 6 & & o o 0 o o 0 0 o o o o o o o o o o o o o o o o o o o o o o o o o o o o o o o o o =.",
"e 6 l l l n 6 l l e n 6 l 6 l e N l l N m N l N 6 s l l s l 6 s % 6 % 6 6 6 6 6 6 0 0 e e & o 6 0 o o o o o 0 o o o o o o o o o o o o o o o o o o o o o o o o o o o o o y ",
"K l e N K K K l 6 6 l 6 l 6 s 6 N N N N N N l m l s l s 6 l 6 l 6 6 6 6 6 6 6 6 o e 6 & o o 6 & o o o 0 0 o o o o o o o o o o o o o o o o o o o o o o o o o o o o o o o =.",
"l K D n D l l K K n K n n K n K l N m l l N N N s l 6 s l s s l 6 6 6 6 6 6 6 6 e & 0 e e o o % 0 0 0 o o 0 0 o o o o o o o o o o o o o o o o o o o o o o o o o o o o o e ",
"s l N N N l N N l N N N s l N l N m N N N N N l 6 l s 6 s l s s 6 6 s s s s s s 6 6 6 6 % 6 6 o o 0 o 0 0 o o o o o o o o o o o o o o o o o o o o o o o o o o o o o o o y ",
"N N N l K K N l N { N { K K K N N l l N m l N N l s s l l 6 6 l s s s s s s s s 6 6 6 6 % 6 o 6 0 0 e o o 0 0 0 0 o 0 o o o o o o o o o o o o o o o o o o o o o o o o o y ",
"~ N N ~ A A A ~ ~ N I N ~ N N ~ N N N N N l l N s l l s l s s l N N N N N N N N 6 6 6 6 6 o 6 6 0 e 0 0 0 o 0 0 o 0 0 o o o o o o o o o o o o o o o o o o o o o o o o o =.",
"A ~ N N N I A N ~ N A A A N ~ N l N m l N N N N 6 s l 6 s l 6 l N N N N N N N N 6 6 6 6 6 6 6 % e 0 0 e 0 0 o o 0 o o 0 o 0 o o o o o o o o o o o o o o o o o o o o o o =.",
"~ { q.m q.~ ~ q.N { N K N { N { l N l N N N l N K l K l K l K l n K l K n e &.y l 6 s l 6 s l 6 6 6 6 6 6 6 & 6 6 o % o o o 0 e o o o o o o o o o o o o o o o o o o o o &.",
"w.~ m m ~ q.~ ~ K l { l K N K l l N N l l N l N n N l K l K l K N N D D y n e e s s l 6 l l s s 6 6 6 6 6 6 6 6 6 6 o 6 o 0 o 0 o o o o o o o o o o o o o o o o o o o o &.",
"w.{ w.q.~ q.q.q.K K K K m K N K N K ~ K K n { N l N N N N N N N l N l l n e e n l s l s s l s l 6 D 6 6 6 6 6 & 6 6 % & o o 0 e o o o o o o o o o o o o o o o o o o o o &.",
"w.w.w.w.q.q.q.q.{ K { { { K { { { N K n K K ~ K K N { { K l K l m N N l l l n n l 6 s l 6 s l 6 n 6 l 6 6 6 l 6 6 6 6 & 6 0 0 o o o o o o o o o o o o o o o o o o o o o &.",
"l.l.l.l.w.g.w.g.$.K $.K $.K $.K K { K { { K { K I N A N N I A A ~ l N ~ l l l l s l l 6 l l l l 6 n 6 e 6 6 l 6 6 6 6 e 0 0 & e o 0 o 0 0 o o o o o o o o o o o o o o o &.",
"H.H.l.l.g.w.g.{ K $.K $.K $.K { { K { K K { K { A A A I ~ A A ~ m ~ ~ m m m m l N N N N N N N N n l l l l l f f % 6 6 e 6 0 0 0 e o 0 o o o 0 o o o o o o o o o o o o o &.",
"H.x.l.l.l.l.l.g.K K K { $.K K { { { 5.K { 5.{ { A A A A A A N N q.m m m m m m m l N l N N l N l n n l l l l l f 6 6 6 e 0 e 0 & o 0 o 0 0 o 0 o o 0 o o o o o o o o o o &.",
"l.6.:.:.g.l.:.{ $.$.$.5.{ 5.5.5.5.K { { K K { { A A A A A A ~ N ~ ~ ~ ~ q.M m ~ N N l N N l N N n n n l l l l f 6 6 6 e e e 0 e 0 0 0 o 0 0 o o 0 o o o o o o o o o o o &.",
"x.H.l.H.^.l.H.H.l.l.H.5.l.l.l.l.:.:.:.{ { { { M :.:.K $.K K { K ~ ~ ~ ~ ~ ~ ~ ~ { M n n n n l l N N N l s l l s 6 l s s s 6 6 % y e 0 0 e & % 6 o o 0 o 0 o o 0 o o o o y ",
"S.l.S.x.l.^.l.H.H.9.H.l.l.5.l.l.:.:.:.:.{ K { :.K { $.K $.K K { ~ ~ ~ ~ ~ ~ ~ ~ M M M n n n n l l l N l l 6 s l s s s s s 6 6 s 0 e e 0 & e 6 o o o o o o 0 0 o o o o o y ",
"g.S.l.S.l.l.l.l.l.R.l.l.g.5.$.$.$.$.:.{ $.$.$.$.$.$.1.K { { I I ~ { ~ ~ ~ N ~ { { K { l K N m n N N N N s 6 N l N s s s s 6 6 6 0 e e 6 e 6 o % o o o 0 o 0 0 o o o o o =.",
"l.S.S.S.^.l.R.R.U.l.U.l.5.$.R.$.$.$.l.l.$.$.$.$.5.l.l.{ $.$.5.$.q.~ { w.$.g.~ { n ~ { { M m ~ n ~ m l m ~ N l l s s s s s s s s e e 0 e % 6 6 6 6 % o o o o o 0 o o o o e ",
"S.k.g.l.R.l.R.l.R.R.K.$.K.$.K.$.g.$.$.u.$.u.$.u.l.l.l.R.l.l.l.K.:.{ g.{ { { { { { ~ N m ~ l l ~ l N ~ M { m l N s s s s s N N N e 6 e 6 6 6 o 6 6 6 6 o & 0 o o o o o o =.",
"S.l.g.k.l.T.g.g.K.$.0.u.u.u.$.0.$.$.u.$.$.u.0.u.0.R.l.U.5.R.l.l.5.{ 5.{ g.5.5.l.~ ~ ~ ~ N ~ ~ l ~ l { { { M l l s s s N s N N N e e 6 6 6 6 6 6 6 % o 6 & o o 0 o o o o =.",
"K.f.f.f.K.K.g.u.K.u.K.K.u.u.u.u.K.~ K.u.u.u.u.u.l.T.H.l.l.l.l.S.w.:.:.:.:.:.w.:.~ ~ ~ m ~ m ~ ~ m M { M M { l l s s s N N N N N s s 6 6 6 6 6 6 6 6 6 6 % 0 o o o o 0 o =.",
"K.f.f.f.K.K.K.K.$.K.u.u.K.u.u.u.~ u.~ K.u.K.K.u.T.l.H.l.l.R.T.l.:.:.:.:.:.:.:.:.~ ~ ~ ~ ~ ~ m ~ m m w.w.~ ~ m l s s s N N N I A s s 6 6 6 6 6 6 6 6 6 % % o o o 0 o o o =.",
"k.S.k.}.S.k.S.k.R.l.S.S.R.l.S.l.p.D.k.D.k.p.D.D.l.^.l.k.S.S.H.H.l.l.l.l.H.H.l.l.{ { $.K I I I T I N { N N l N N { N N m N N l l 6 n 6 s 6 l l s 6 6 6 6 6 o 6 6 o o 0 o y ",
"}.k.S.k.k.}.k.k.g.g.k.S.g.g.k.k.k.k.w.D.D.D.k.k.^.l.T.S.S.S.S.l.l.H.H.l.l.l.l.H.$.$.K $.I $.I I K K N { { N N l l { N N l N N l n 6 e l l s 6 s 6 6 6 6 6 6 6 % 0 o o o =.",
"k.k.k.S.}.k.S.}.l.T.l.T.l.T.S.k.D.k.k.k.k.D.k.k.T.H.S.S.S.S.H.H.S.l.S.l.l.l.l.l.R.5.g.$.$.I $.I K { { K l K { K K N K l N l N N l s s l s 6 n l 6 6 6 6 6 6 6 & 0 o 0 o =.",
"S.}.'.'.k.S.T.'.l.T.T.T.l.T.S.S.w.k.k.w.k.k.S.k.l.H.S.S.l.k.l.H.S.S.S.g.S.S.l.l.l.l.5.l.5.I I 0.$.{ K { K { K K N { m K N N N l s l 6 e 6 n 6 e 6 6 l 6 l 6 & f 0 o o o -.",
"!.K.'.'.S.}.S.T.^.T.^.T.^.T.^.T.S.k.S.k.k.k.S.k.^.H.H.H.H.H.H.H.l.g.g.g.k.g.l.g.g.l.l.l.{ 5.{ 5.K $.{ { K { { K { N K m ~ l N N s 6 n 6 l 6 e 6 6 l 6 6 & l & & 0 0 0 o 6.",
"'.'.T.'.}.[.'.'.T.^.T.^.T.^.T.H.k.}.k.}.}.S.k.S.H.H.H.H.H.H.H.H.R.R.l.k.g.l.R.l.D.D.S.S.l.$.5.1.I $.{ K K 1.K { { K { K n K N l l s 6 n s s l n f f f f l & f f e o 0 o 9.",
"(.'.'.'.T.[.T.'.S.T.^.T.^.T.S.T.'.K.S.k.S.'.T.'.H.H.H.H.H.H.S.U.K.K.K.u.u.u.g.$.D.D.l.l.l.l.l.R.5.K $.5.{ 1.K K K { { N n K K ~ 6 l 6 n l s n 6 f f f f f f f f e 0 e 0 9.",
"'.'.(.'.[.[.[.'.[.^.[.^.T.'.^.^.T.'.'.'.}.T.'.^.H.H.H.H.H.H.T.^.K.g.u.K.K.u.u.K.D.S.S.5.g.R.l.l.{ 5.$.I { { { { { K K { K K n K s l e 6 n 6 6 l f f f f f f & f e 0 e 0 6.",
"T.'.'.'.[.[..X[.[.}.H.'.'.T.[.[.'.'.[.}.S.'.'.T.'.'.'.'.(.T.(.T.K.T.R.l.k.g.l.T.l.S.S.g.l.T.l.H.l.l.l.l.w.w.{ g.{ K K $.K K { K l K N N l N N 6 N l N N u u u u 6 o e o 0.",
"oX'.'.[.[.[.[.[.T.[.[.'.[.[.T.'.'.'.[.T.'.'.[.[.'.'.(.'.^.T.U.(.R.l.T.T.S.k.T.l.S.l.l.l.l.g.l.T.l.g.S.l.w.l.l.l.$.{ $.{ K { K { { N { l l N l N N N N N s s s s 6 o 6 6 0.",
"T.[.[.[.'.oX'.'.[.[.'.[.[.}.H.'.T.'.T.[.[.T.[.T.'.'.'.'.^.[.^.T.H.T.T.S.S.S.S.T.l.H.^.T.S.S.S.^.T.l.S.l.l.l.l.l.5.$.K K K $.{ K N K K { N N l n m N N N s u s s 6 6 e 6 0.",
".X.X+X[..X(.'.'.T.'.'.H.T.[.[.'.[.[.[.[.}.[.[.[.'.'.'.'.(.T.(.(.T.^.H.T.T.T.S.S.^.H.l.H.S.S.S.l.H.T.l.T.S.l.g.S.K $.5.{ $.K $.{ { K { K { N K ~ ~ m N N N N l N 6 6 s 6 0.",
"$X'.+X.X'.'.'.oX[.[.[.[.[.[.[.[.[.[.[.[.[.[.[.[.'.'.[.[.^..X(.(.[.^.^.T.^.T.^.T.^.H.H.H.H.H.H.H.H.H.H.l.H.S.l.S.5.{ I $.5.$.K { K K { K K l { N ~ { ~ n l N N N s 6 N s R.",
".X$X'.[..X'..X'.[.[.[.[.[.[.[.[.[.[.[.[.[.[.[.[.+X'.[.[..X(.(.(.^.^.T.[.^.^.T.^.H.H.H.H.H.H.H.H.H.H.H.H.H.l.S.l.$.5.5.$.K $.{ 5.$.K K { { { K K M M { K N N N N N s N s 0.",
"'.'.$XoX$X'..X'.[.[.[.[.[.[.[.[.[.[.[.[.[.[.[.[.+X'..X'.[.^.(.(.[.[.^.^.[.^.[.T.^.^.^.^.^.^.^.^.^.S.l.H.H.H.l.l.5.5.5.$.5.5.5.K K $.$.K { K K { M m m { N l N l N s N N u.",
"'.oX'..X'.$X.X$X[.[.[.[.[.[.[.[.[.[.[.[.[.[.[.[.'.oX'..X^.[.(.(.[.^..XT.T.^.T.^.^.^.^.^.^.^.^.^.l.^.l.H.T.l.S.l.5.g.l.5.{ { 5.$.$.$.K $.K { { { { { M m { l N l N N N N 0.",
".X.X.X.X.X.X.X.X.X.X.X(..X(..X(.(..X(..X(..X>X(.(..X(.(.(.(.(.(.(.(.(.(.^.(.(.^.(.U.(.(.R.R.^.T.T.S.T.S.S.g.l.g.K.K.R.g.5.S.l.l.S.g.l.l.g.l.w.w.N N N l N l K K l 6 l & 0.",
".X.X.X.X.X>X.X.X.X(.(.(.(..X(..X.X.X.X(..X(.(.(..X(.(.(.(.(.>X(.(.(.(.(.(.T.(.T.(.(.T.^.(.(.(.^.T.S.S.k.T.l.g.l.K.K.l.g.l.l.^.l.l.l.l.l.l.l.w.5.N l N N l N ~ K N l N 6 0.",
"[..X.X.X.X[.[..X[.[.[.[.[.[..X[.[.[..X[.[.[.[.[..X[.(.[.(.[..X[..X^.T.[.(.^.^.^.(.[.T.[.T.^.^.T.^.T.k.l.l.T.g.g.g.K.$.$.S.S.l.H.S.l.l.l.l.g.l.g.l K ~ K N { N K l 6 6 6 U.",
".X$X.X.X+X.X.X+X.X.X>X.X>X.X.X>X.X[..X[..X.X>X.X.X.X.X^.^.[.[.[.[..X.X(.'..X[.T..X^.^..X^.T.T.T.T.^.T.T.T.l.l.k.u.K.R.g.l.l.H.l.S.l.T.l.l.l.l.l.K { K n K l { m N l K 6 H.",
"$X$X$X$X$X$X$X$X$X+X$X+X.X+X.X+X.X+X$X.X.X+X+X.X+X[.+X[.[.[.[.$X[.[.+X[.[.[.[.[.'..X'.'.'.'.'.(.^.^.T.^.S.T.S.k.K.K.S.l.T.l.S.l.H.l.l.S.l.l.l.l.{ { K { K K N K l s N l H.",
"$X$X$X$X$X$X$X$X+X.X+X.X$X$X+X$X+X$XoX+X+XoX$X+X.X$X[.[.+X[.$X[..X+X+X.X[.'.[.[..X'.'..X.X'.'.'.T.[.^.T.T.S.K.S.K.K.K.k.H.S.H.H.T.l.H.l.T.l.T.l.1.$.{ K { K { N N l N 6 U.",
"$X%X%X%X%X%X%X%X+X+X+X+X+X+X+X+X+X+X+X+X+X+X+X+X+X+X+X}.+X+X+X+X+X+X+X+X}.}.}.}.}.+XoXoX+X'.'.'.[.^.^.T.T.T.S.K.K.K.S.S.H.H.H.H.^.l.k.S.l.l.l.l.K $.$.5.{ K N K N l N l U.",
"%X%X%X%X%X%X%X%X+X+X+X+X+X+X+X+X+X+X+X+X+X+X+X+X+X+X+X+X[.+X+X+X+X+X+X[.+X}.}.}.+X+X+X'.'.'.+X'.^.[.^..XH.'.S.S.K.K.T.S.l.l.H.H.l.T.l.l.S.S.g.S.5.{ I { K { { l N N N l U.",
"$X$X$X@X$X@X@X@X@X@X@X;X$X$X$X$X$X$X$X$X$X$X+X$X$X$X$X$X$X$X$X$X+X[.+X.X+X'..X+X.X+X'.oX'..X'.oX'..X.X'.'.'.oX'.k.S.K.S.!.K.S.K.S.S.S.S.S.l.l.l.:.5.5.5.$.K :.K ~ N ~ 6 H.",
"$X$X@X@X@X@X@X@X@X@X=X$X@X;X$X$X$X$X$X$X$X+X.X$X$X$X$X$X$X$X$X$X$X$X$X+X$X+X.X'.'.+X$X'.'.'..X'.oX'.'.oX.X.X'..XS.K.S.S.k.S.K.S.S.S.S.l.S.S.S.S.l.l.l.{ :.=.:.:.{ N N 6 U.",
"$X3X;X$X$X=X;X@X@X@X@X$X$X$X$X$X$X1X$X$X$X$X$X$X$X$X$X$X$X$X$X$X$X$X+X.X$X+X$XoX.XoX.X[..X'.oX'.'..X.X'.'.oX'.'.K.S.S.S.S.S.S.K.S.S.S.k.S.g.l.l.l.l.$.5.$.$.{ { { l K N U.",
"$X1X$X$X;X@X@X@X@X@X$X;X;X;X$X$X1X$X1X1X$X$X$X$X$X$X$X$X$X$X$X$X$X$X$X$XoX.X+X$X$X'.+X+X.X'.'..X'.'.'.'..X'..X'.T.T.T.T.T.T.T.'.S.T.S.S.S.S.S.S.l.R.R.l.l.$.g.{ { K K l U.",
"1X$X$X$X$X@X;X;X@X@X$X;X;X$X;X$X1X1X1X$X1X$X1X$X$X$X$X$X$X$X$X$X$X$X$X$X+X.X+X$X$XoX+X[.'.$X.X'..X'.oX'.'.'..X'.T.^.^.T.T.H.S.'.S.T.S.S.T.l.l.g.R.l.l.K.w.w.q.q.{ K { N U.",
"$X1X$X;X;X@X@X@X@X@X;X;X;X$X$X1X1X1X1X1X1X1X$X1X$X1X1X$X1X$X$X1X$X$X$X$X$X$X.X+X+X.X.X+X.X'.+X+X$X'.$X.X.X[.+XoX^.T.^.[.[.T.^.T.^.T.T.S.S.R.T.R.l.T.R.g.k.w.q.g.$.K $.N >X",
"1X1X;X;X;X$X;X@X;X@X;X$X;X$X1X$X4X4X4X1X1X1X1X$X$X1X$X1X$X1X$X1X$X$X$X$X$X$X$X+X$X+X$X+X$X'.[..X.X'.'..X[.+X+X.X[.^.T.^.T.^.[.^.T.T.T.T.T.T.K.K.k.k.k.k.p.p.p.p.$.K $.N U.",
"1X3X;X$X;X@X;X;X;X@X;X$X3X;X$X1X4X4X4X4X1X1X1X1X1X$X1X$X1X$X1X$X1X3X$X$X$X$X$X$X+X.X+X.X@X$X+X[.@X$X'.$X+X.X[.$X^.T.^.[.^.[.^.T.T.T.T.T.T.K.K.g.k.k.k.g.k.p.p.f.5.K $.K :X",
"2X2X4X4X4X;X4X;X;X@X;X;X;X@X;X@X;X;X;X;X;X4X4X4X;X4X$X$X;X$X@X@X$X1X$X$X$X$X$X$X$X$X$X[.$X'..XoX'..X'..X'.oX'..X.XT.[.[.^.[..X[.T.T.^.S.T.S.S.K.S.S.S.g.l.l.S.l.l.{ l.w.[.",
"2X2X4X4X;X4X;X;X;X$X;X@X;X;X;X@X;X;X;X4X4X;X4X4X4X;X3X;X$X$X@X$X1X$X1X$X1X$X$X$X1X$X$X$X$X'.+X'..X[.[.oX$X'..X[.^.[.^..X.X^.^.[.T.H.T.^.T.S.!.S.S.H.S.S.S.S.l.S.S.g.l.{ >X",
"2X2X4X4X4X;X4X;X;X;X;X;X;X;X;X;X;X;X;X;X;X4X4X4X;X;X$X$X;X$X;X;X1X1X1X1X$X$X1X$X1X$X1X$X$X$X+X+X+X'..X'..X'.+X'.^..X^.[.T..X[.T.^.[.T.T.T.T.K.'.T.H.S.S.S.l.l.l.S.w.S.w.>X",
"2X2X4X4X;X4X;X;X;X;X;X;X;X;X;X;X;X;X;X4X4X;X4X4X$X;X;X3X;X4X;X4X1X1X1X1X1X1X$X1X1X1X$X$X$X+X.X.X$X+X$X$X$X$X$X$X[.T..X^.[.^.^..X^.^.^.^.[.S.T.T.S.S.T.S.S.k.T.H.S.w.w.w.1X",
"2X2X4X4X4X;X4X;X;X;X;X;X;X;X;X;X;X;X;X4X;X4X4X4X3X;X;X$X$X4X;X4X1X1X1X1X1X1X$X1X1X$X$X$X$X.X$X+X$X.X$X$X$X$X.X+X.XT.[.[.^.[.^.[.T.^.T.^.^.^.T.H.H.H.H.S.S.S.S.H.k.w.S.w.>X",
"2X2X4X4X;X4X;X;X;X;X;X;X;X;X;X;X;X;X;X;X4X;X4X4X$X$X3X;X;X3X;X$X1X3X1X1X$X$X1X1X$X1X1X$X$X+X$X[.[.[.oX'.'.oX$X'.^.[.^..X.XT..X'.[.^.[.[.S.T.H.T.H.T.S.S.S.S.l.l.l.w.l.w..X"
};
