/* XPM */
static char *AdvGirl_02_06_ctrl[] = {
/* columns rows colors chars-per-pixel */
"45 15 162 2",
"   c #040000",
".  c #060000",
"X  c #0A0300",
"o  c #0B0700",
"O  c #0C0701",
"+  c #0C0703",
"@  c #0E0701",
"#  c #0E0903",
"$  c #0F0802",
"%  c #0F0B00",
"&  c #0F0B02",
"*  c #0E0905",
"=  c #0F0A04",
"-  c #0F0A07",
";  c #100806",
":  c #110906",
">  c #100B05",
",  c #110A04",
"<  c #100B07",
"1  c #120B05",
"2  c #100C03",
"3  c #130F03",
"4  c #110D04",
"5  c #110C06",
"6  c #120D07",
"7  c #130C06",
"8  c #120E05",
"9  c #130F06",
"0  c #140D07",
"q  c #110C09",
"w  c #120D09",
"e  c #130E08",
"r  c #130E0A",
"t  c #130E0B",
"y  c #140C0A",
"u  c #140F09",
"i  c #150E08",
"p  c #140F0B",
"a  c #160F09",
"s  c #140F0C",
"d  c #170F0C",
"f  c #141007",
"g  c #151106",
"h  c #161207",
"j  c #151108",
"k  c #15100A",
"l  c #171008",
"z  c #16110B",
"x  c #17100A",
"c  c #161209",
"v  c #17130A",
"b  c #15100C",
"n  c #15100D",
"m  c #16110D",
"M  c #16110E",
"N  c #17120C",
"B  c #17120E",
"V  c #17120F",
"C  c #18110B",
"Z  c #19120A",
"A  c #1A130B",
"S  c #18100D",
"D  c #18130D",
"F  c #19120C",
"G  c #18130F",
"H  c #1A130D",
"J  c #1A120F",
"K  c #18140B",
"L  c #1A160A",
"P  c #19150C",
"I  c #19140E",
"U  c #1A150F",
"Y  c #1B140E",
"T  c #1A160D",
"R  c #1B170C",
"E  c #1B170E",
"W  c #1C150F",
"Q  c #1D160E",
"!  c #1C180D",
"~  c #181310",
"^  c #1A1210",
"/  c #191411",
"(  c #1A1511",
")  c #1A1512",
"_  c #1B1610",
"`  c #1B1612",
"'  c #1C1711",
"]  c #1D1610",
"[  c #1E1711",
"{  c #1F1714",
"}  c #1D1910",
"|  c #1D1812",
" . c #1E1913",
".. c #1F1812",
"X. c #1E1A11",
"o. c #1F1B10",
"O. c #1D1814",
"+. c #1F1A16",
"@. c #201911",
"#. c #201913",
"$. c #211A14",
"%. c #201B17",
"&. c #221B15",
"*. c #201C10",
"=. c #211C16",
"-. c #231C16",
";. c #221E15",
":. c #241D17",
">. c #251E16",
",. c #261F17",
"<. c #221D19",
"1. c #261E1B",
"2. c #242017",
"3. c #27201A",
"4. c #2C281D",
"5. c #2F2724",
"6. c #2E2925",
"7. c #312926",
"8. c #36312D",
"9. c #3B342E",
"0. c #3C3432",
"q. c #3E3935",
"w. c #463F39",
"e. c #454136",
"r. c #48403D",
"t. c #4F4A47",
"y. c #504845",
"u. c #534B48",
"i. c #544F4B",
"p. c #574F4D",
"a. c #5B5350",
"s. c #5B5351",
"d. c #595450",
"f. c #635C56",
"g. c #605B58",
"h. c #625D5A",
"j. c #635E5B",
"k. c #69615E",
"l. c #6A6260",
"z. c #6C6462",
"x. c #726D6A",
"c. c #736E6A",
"v. c #7A7572",
"b. c #7E7674",
"n. c #837F74",
"m. c #86817D",
"M. c #8A8582",
"N. c #8C8482",
"B. c #8D8884",
"V. c #8F8A86",
"C. c #938B89",
"Z. c #928D8A",
"A. c #968E8C",
"S. c #96918E",
"D. c #AAA2A0",
"F. c #B1ACA9",
"G. c #B2ADAA",
"H. c #BDB5B2",
"J. c #C2BAB8",
"K. c #C3BBB8",
"L. c #C5BEB8",
"P. c #CEC6C4",
/* pixels */
"[ [ W [ Y W [ W W [ Y Y Y F Y Y 9 ! x x j X.& j | c n q c ) n V n n s s r 9 9 & r - 9 # ) ",
"..[ [ W W W W [ [ W W Y Y Y Y W ;.9 P 2.f P P T & | P n / ) / V s s n r r r 9 9 r 9 9 - ! ",
"..[ [ [ W [ [ W W [ W W Y Y F F c P Y c P / c | & | & c P n / - V c n r 9 9 9 9 r - 9 - Y ",
"..[ [ W [ W [ [ [ [ W W W Y Y F c r | r # ( +.+ P c P  .n q V  .n V V n r x f 9 9 7 9 7 Y ",
"....[ [ W [ [ [ [ [ Y W [ W F C i.q.t +.d.6.- +.e.& & ! P ) r c V n V n c r f f r 9 9 - Y ",
"#.[ [ [ [ W [ [ ..W W W [ W F i m.x.+ +.V.8.) B.m.4.P & &  .r V V V V c c c c f r 9 r 9 ) ",
"#...[ [ [ [ [ [ ..[ W W [ W F i M.k.q / s.t.v.S.! o R ! P P - x / V V n n r q f r r r - Y ",
"#...[ [ [ [ [ [ [ [ W W [ [ C 0 Z.s.n t v.G.G.  g L ! h x P P P V / V V c x c c i 9 9 7 ) ",
"..................#.#.[ [ [ F x A.l.* ^ N.b.J.a.4 9 $.d 7 #.W F P V x c c c r c r r r r Y ",
"................[ #.#.[ [ [ F i C.z.y ^ D.0.p.P.f.x 7 :.F F F C x V c n n s c c x r c & ..",
"#.#.#.#.#.#.#.#.[ ..#.....[ F 0 H.j.7 1.K.w.. a.L.e.9 [ F F [ F n x x n c c n x x c c q ..",
"#.#.#.#.#.#.#.#.W ..#.....#.W x u.7.^ { u.7.F d 9.C 7 F [ [ C C s c c x n x x n c r x 9 | ",
"#.#.#.#.#.#.#.#.[ #...[ ..$.$.[ : @.-.[ , F [ C @ [ $.C 0 F i W c r V n n x x n V r c r ..",
"#.#.#.#.#.#.#.#...#...W [ $.$...1.W d F F #.C #.#.W F C F [ [ F c c c c x n c x x c c r [ ",
"..................#...[ [ #...Y Z Z #.W :.@ :.C C i W $.F 0 C F n V c P j n c r x r c r #."
};
