/* XPM */
static char *AdvGirl_07_03_ctrl[] = {
/* columns rows colors chars-per-pixel */
"25 22 256 2",
"   c #010201",
".  c #020B01",
"X  c #00090B",
"o  c #0A0000",
"O  c gray5",
"+  c #0E1609",
"@  c #091410",
"#  c #120A08",
"$  c #19070D",
"%  c #120010",
"&  c #192414",
"*  c #102226",
"=  c #172A28",
"-  c #280007",
";  c #2B010B",
":  c #2F0B0D",
">  c #2E0211",
",  c #320718",
"<  c #320717",
"1  c #291222",
"2  c #331223",
"3  c #3A1A2A",
"4  c #2C211F",
"5  c #283724",
"6  c #28352E",
"7  c #23322F",
"8  c #283E3C",
"9  c #2F3A36",
"0  c #303F38",
"q  c #393F3D",
"w  c #302825",
"e  c #24463C",
"r  c #2B433B",
"t  c #394B35",
"y  c #2D4640",
"u  c #3C4542",
"i  c #3B4C48",
"p  c #3C5A58",
"a  c #355546",
"s  c #396663",
"d  c #3A7D76",
"f  c #403E3F",
"g  c #4A3934",
"h  c #4B3E38",
"j  c #423E35",
"k  c #513F31",
"l  c #4E4435",
"z  c #4C453B",
"x  c #4F4836",
"c  c #56482D",
"v  c #534429",
"b  c #544533",
"n  c #584737",
"m  c #58453E",
"M  c #414543",
"N  c #444944",
"B  c #444D48",
"V  c #4B5F44",
"C  c #495855",
"Z  c #406752",
"A  c #4C605F",
"S  c #4B755F",
"D  c #566D50",
"F  c #58635D",
"G  c #5B7456",
"H  c #417F7B",
"J  c #467A75",
"K  c #566761",
"L  c #686866",
"P  c #616C6E",
"I  c #656D70",
"U  c #60756C",
"Y  c #6B7C75",
"T  c #637370",
"R  c #347F84",
"E  c #3E837E",
"W  c #3C8677",
"Q  c #428C7F",
"!  c #508269",
"~  c #598B70",
"^  c #52947F",
"/  c #519A7F",
"(  c #58927A",
")  c #639C7D",
"_  c #77807B",
"`  c #76AF7C",
"'  c #7FB577",
"]  c #7FB77A",
"[  c #2F8383",
"{  c #37888B",
"}  c #3F8680",
"|  c #3B858B",
" . c #3E898F",
".. c #368488",
"X. c #3E8B91",
"o. c #418582",
"O. c #418589",
"+. c #438984",
"@. c #458C89",
"#. c #4D8A83",
"$. c #4A8D8C",
"%. c #418B92",
"&. c #488E98",
"*. c #4C8B94",
"=. c #4C9186",
"-. c #4D938C",
";. c #45939B",
":. c #45989E",
">. c #4B9390",
",. c #48929B",
"<. c #528789",
"1. c #538C8D",
"2. c #5D8C85",
"3. c #588D88",
"4. c #569483",
"5. c #54928A",
"6. c #569E88",
"7. c #589483",
"8. c #5B948B",
"9. c #5D998B",
"0. c #599B82",
"q. c #539292",
"w. c #57919D",
"e. c #5C9493",
"r. c #5C9C94",
"t. c #5F9A98",
"y. c #5A959B",
"u. c #459BA5",
"i. c #4B99A3",
"p. c #5E9DA6",
"a. c #5AA186",
"s. c #55A09C",
"d. c #46A5A7",
"f. c #46A2AD",
"g. c #4CA3AA",
"h. c #4DAAAF",
"j. c #4EA5B2",
"k. c #4AA8B2",
"l. c #4BB3B4",
"z. c #53A3A9",
"x. c #53A8AF",
"c. c #5EA9AF",
"v. c #52A3A6",
"b. c #52A5B4",
"n. c #53ABB3",
"m. c #52AEBA",
"M. c #51B1BF",
"N. c #5AB0B8",
"B. c #6E8281",
"V. c #639C8D",
"C. c #689F82",
"Z. c #679D86",
"A. c #629A93",
"S. c #6C9C9E",
"D. c #7A8982",
"F. c #7B9592",
"G. c #65A281",
"H. c #6EA786",
"J. c #6BA28B",
"K. c #6DAA84",
"L. c #69AA88",
"P. c #65A294",
"I. c #6EA596",
"U. c #6BA991",
"Y. c #69A39D",
"T. c #72AA84",
"R. c #73AC8B",
"E. c #73A693",
"W. c #75B280",
"Q. c #74B38C",
"!. c #77B88D",
"~. c #79B284",
"^. c #79B78E",
"/. c #7FBB85",
"(. c #7EB19E",
"). c #64A0A5",
"_. c #64A7AF",
"`. c #69A2A2",
"'. c #6CABAD",
"]. c #69AAA8",
"[. c #64ADB3",
"{. c #73ABA3",
"}. c #74AEAA",
"|. c #79ABB4",
" X c #7DB1A3",
".X c #7AB1AC",
"XX c #73B4BA",
"oX c #7FBEC7",
"OX c #88BD7A",
"+X c #8EC37F",
"@X c #92C579",
"#X c #8D8B8C",
"$X c #86978F",
"%X c #819F9D",
"&X c #899A97",
"*X c #949695",
"=X c #88A39E",
"-X c #84B981",
";X c #82A4A4",
":X c #85ACAB",
">X c #8AAAA7",
",X c #86AFB3",
"<X c #8AAAB7",
"1X c #8CB5AD",
"2X c #86B6AA",
"3X c #86B2B5",
"4X c #83B9BB",
"5X c #8BB3B4",
"6X c #8CB6BC",
"7X c #8EB8B3",
"8X c #8BBBB9",
"9X c #82BAB7",
"0X c #9FA8A5",
"qX c #9AB5AE",
"wX c #94B6B9",
"eX c #92BCB3",
"rX c #92BBBB",
"tX c #9BBBB4",
"yX c #9BBCBB",
"uX c #95B4B6",
"iX c #A3BCB5",
"pX c #B3B7B6",
"aX c #8DBCC1",
"sX c #9ABBC2",
"dX c #95B9C3",
"fX c #A0B8C4",
"gX c #B6B9C0",
"hX c #8DC181",
"jX c #9EC4B7",
"kX c #9AC2BB",
"lX c #A3C4BE",
"zX c #A8C2B7",
"xX c #87C2C8",
"cX c #95C2C3",
"vX c #94C4CD",
"bX c #9BC2C1",
"nX c #99C2C9",
"mX c #9DC9C4",
"MX c #9CC8C9",
"NX c #9ACDD2",
"BX c #92CDD5",
"VX c #9FD4DA",
"CX c #A3C3C4",
"ZX c #A1C5CB",
"AX c #A8C7C9",
"SX c #ACCBC4",
"DX c #AACCCB",
"FX c #A6C8C5",
"GX c #AED1CA",
"HX c #B5CEC4",
"JX c #B4CFCB",
"KX c #B1CDD0",
"LX c #B5D0CC",
"PX c #B8D2CC",
"IX c #CCD9D3",
"UX c #C9E7DD",
/* pixels */
"' +X@X@X+X/.L./ $.-.$.E -.=.Q W [ { %.:.i.z.h.h.M.",
"` -XhXOX] W.a./ >.} @.| +.E Q d | | X.;.i.g.g.k.m.",
"C.K.~.~.` K.a.^ >.@.+.} o.H W H R R  .,.:.u.f.k.m.",
"9.V.H.R.Q.L.0.^ @.>.q.1.1.1.<.<.O.| | %.;.u.f.k.m.",
"t.A.P.U.U.U.L.V.`.}.9X8X4XaX6X3X'.`.y.*.&.i.j.k.m.",
"e.r.P.P.P.I. X1X5XmXrX5XwXrX3X6X8XrXaX|.p.i.g.k.m.",
"8.8.V.9.I. XkXFXLXPXAXCXyXrX5XsXuXtXbXnX4X_.z.x.m.",
"A.V.8.V.(.8XjXlX&XT %XJXF.1XFX:XiX;X;XaXBXaX[.z.N.",
"t.A.e.`.8XkXyXJXM M f #XC F SXiXpX* :XMXaXvXoXc.n.",
"8.V.A.}.cXbXyXJXq pX*Xt 0X= iXPXT A bXMXdXvXBX[.k.",
") Z.J. XmXkXyXHXN Y K #XIX0 Y IX6 =XGXrXsXnXVX'.k.",
"T.R.H.(.kXkXyXLXB 6 T zXHX$XM L C lXkX5XsXnXNX'.b.",
"~.T.C.E.eXkXCXLXr _ UXtXtXHX9 O qXDX1X7XsXZXxX].b.",
"H.) ( V.2XbXFXDXC F.FX1X1XzXB.I HXeX7XsXsXMXXXv.b.",
"C.^ 7.e.Y.5XsXfXKXbXbX8XwX:XAXyXwX:XwXsXaX|.z.d.n.",
"4.8.t.8.1.S.7XsXyXZX5X8X5XcX,XwXwXrXdX6X|.i.:.l.N.",
"3.3.e.e.q.$.q.).<XdXsXsXsXwX5XwX8X9X].y.>.>.-.3.J ",
"0.4.4.5.8.=.#.-.-.t.`.{..X,X}.{.P.8.( d s p i u g ",
"C.) C.H.E.V.V.Z.a.6.7.7.2.2.J s e e y i N z l h b ",
"Q.!.!.Q.T.) ~ ! S Z a r 8 8 = X   # 2 h m n v v x ",
"G D V t 5 & + . : ; - ; , 3 2 % o   : w g b v c x ",
". .             > > : , 2 3 1 % . .   @ w t z n b "
};
