/* XPM */
static char *AdvGirl_01_03_ctrl[] = {
/* columns rows colors chars-per-pixel */
"59 70 256 2",
"   c #050502",
".  c #050903",
"X  c #090502",
"o  c #0A0904",
"O  c #0B0C09",
"+  c #06070A",
"@  c #0C100A",
"#  c #081109",
"$  c #130401",
"%  c #130A03",
"&  c #120C09",
"*  c #1B0201",
"=  c #1B0B02",
"-  c #1A0B0A",
";  c #16050A",
":  c #1A0B14",
">  c #13120B",
",  c #1A140C",
"<  c #151506",
"1  c #1A1310",
"2  c #1C1812",
"3  c #080D10",
"4  c #230201",
"5  c #230B03",
"6  c #2B0300",
"7  c #2B0902",
"8  c #27070A",
"9  c #260A15",
"0  c #261005",
"q  c #330401",
"w  c #330903",
"e  c #340B0A",
"r  c #3A0402",
"t  c #3B0A03",
"y  c #3B0C09",
"u  c #370409",
"i  c #3A0712",
"p  c #371307",
"a  c #3A1111",
"s  c #281318",
"d  c #291322",
"f  c #361726",
"g  c #2E1C32",
"h  c #3B2733",
"j  c #36232D",
"k  c #1E1720",
"l  c #430C02",
"z  c #490D03",
"x  c #440808",
"c  c #470815",
"v  c #441004",
"b  c #44120A",
"n  c #4B1203",
"m  c #4B1309",
"M  c #441A09",
"N  c #471616",
"B  c #530807",
"V  c #570819",
"C  c #521303",
"Z  c #52140A",
"A  c #541A02",
"S  c #591906",
"D  c #531717",
"F  c #471925",
"G  c #541626",
"H  c #4C2216",
"J  c #5B2308",
"K  c #552516",
"L  c #50290F",
"P  c #472739",
"I  c #5A2727",
"U  c #533431",
"Y  c #631B02",
"T  c #631819",
"R  c #690B15",
"E  c #681724",
"W  c #6C1125",
"Q  c #692605",
"!  c #652719",
"~  c #67331C",
"^  c #742704",
"/  c #763413",
"(  c #682827",
")  c #693428",
"_  c #683834",
"`  c #75262A",
"'  c #782A32",
"]  c #78372A",
"[  c #793634",
"{  c #6F2D31",
"}  c #593847",
"|  c #493045",
" . c #623740",
".. c #6D4435",
"X. c #7B442B",
"o. c #784536",
"O. c #7A4F33",
"+. c #674015",
"@. c #574450",
"#. c #664756",
"$. c #774846",
"%. c #79585B",
"&. c #6C4F50",
"*. c #7B586C",
"=. c #7A5C77",
"-. c #69506A",
";. c #786C73",
":. c #6F605B",
">. c #767189",
",. c #893604",
"<. c #803412",
"1. c #873837",
"2. c #893835",
"3. c #8F3D43",
"4. c #924207",
"5. c #874736",
"6. c #895239",
"7. c #92443D",
"8. c #934A3A",
"9. c #98563B",
"0. c #84472C",
"q. c #AD4D02",
"w. c #AA662D",
"e. c #8B4943",
"r. c #885546",
"t. c #865B56",
"y. c #934B43",
"u. c #964744",
"i. c #945B49",
"p. c #9B5344",
"a. c #9C5B42",
"s. c #965946",
"d. c #935752",
"f. c #815C6B",
"g. c #8A6454",
"h. c #9B6346",
"j. c #976656",
"k. c #9B7055",
"l. c #8A644A",
"z. c #886567",
"x. c #866576",
"c. c #966B65",
"v. c #926D73",
"b. c #98736A",
"n. c #977475",
"m. c #8D7075",
"M. c #A25A48",
"N. c #AA5E51",
"B. c #A4644A",
"V. c #A46A4B",
"C. c #AA644C",
"Z. c #AB6A4C",
"A. c #A56446",
"S. c #AC6C52",
"D. c #A56855",
"F. c #AC7353",
"G. c #A97459",
"H. c #B26C54",
"J. c #B2734D",
"K. c #B37453",
"L. c #B57A54",
"P. c #B57B5A",
"I. c #B97B56",
"U. c #BA7C5A",
"Y. c #B87557",
"T. c #AA704D",
"R. c #A67967",
"E. c #A47A75",
"W. c #B37A64",
"Q. c #BB7D74",
"!. c #A36F62",
"~. c #CC6C0F",
"^. c #C16E20",
"/. c #C0795A",
"(. c #C07F61",
"). c #8D708C",
"_. c #A77C82",
"`. c #A67D9F",
"'. c #9B827A",
"]. c #BB825C",
"[. c #B7825B",
"{. c #A9816A",
"}. c #AA8476",
"|. c #B38163",
" X c #BB8462",
".X c #BD8B6A",
"XX c #B78669",
"oX c #B38A7A",
"OX c #BB837B",
"+X c #BC8C7A",
"@X c #B78674",
"#X c #BC9373",
"$X c #BD927A",
"%X c #BB9777",
"&X c #C2835C",
"*X c #C6885C",
"=X c #C38462",
"-X c #C48A64",
";X c #C38C69",
":X c #CA8D64",
">X c #CD8866",
",X c #C48B74",
"<X c #C58978",
"1X c #C5926C",
"2X c #CB9165",
"3X c #CB936B",
"4X c #C79669",
"5X c #C39474",
"6X c #C2947B",
"7X c #C4997B",
"8X c #CB9574",
"9X c #CB9A74",
"0X c #CA9C7B",
"qX c #C69975",
"wX c #D0966B",
"eX c #D29B73",
"rX c #D19D7B",
"tX c #D49877",
"yX c #D18D74",
"uX c #CCA07B",
"iX c #C9A77E",
"pX c #D2A17B",
"aX c #D6A37B",
"sX c #E28827",
"dX c #8F8891",
"fX c #9491A6",
"gX c #B68885",
"hX c #B89686",
"jX c #B08F89",
"kX c #B192AE",
"lX c #BDA598",
"zX c #BEA289",
"xX c #B8A6A4",
"cX c #B0ADB6",
"vX c #9DA3B3",
"bX c #B5B7C7",
"nX c #AEB5C6",
"mX c #BFCCD4",
"MX c #C49B83",
"NX c #C59A85",
"BX c #C49B97",
"VX c #C18E8A",
"CX c #CBA282",
"ZX c #C7A489",
"AX c #C6A894",
"SX c #D1A482",
"DX c #D3A885",
"FX c #D2B399",
"GX c #C5A9A5",
"HX c #D4B7A5",
"JX c #C7AFB0",
"KX c #E1BBA4",
"LX c #E8C8B8",
"PX c #D3C4B6",
"IX c #D3D2CC",
"UX c #EFDECE",
/* pixels */
"O 3 O O O o O O @ & O o O O o . O o o @ @ # + + 3 3 @ @ + & @ o o o O @ @ o @ o O . O O > & > > O & @ & O > O > O & > ",
"    +           o .     o . . .   X . . + . +   + + + .     X .   .           o X + o & O     o o X o o X o o X X .   ",
"                  X . .   o . . + + X X + X X X + + O       X +             o o ; ; X + + o o o X o . X o X . o     X ",
"+ + + + o . o .           X     . .   . X       X     O o o X o . o O o       o + X X   X o . . o o o o o o o o o o o ",
"X                           X X         o o o X X X     . . . o + . o o +     X . . # . +       o     X X . X X . X   ",
"+   +           .   X   X X X X X X o % = = 5 0 7 5 % X o o = , 5 0 0 0 5 5 5 = o o       O + +   X o   . X . X X   o ",
"+ + + X       .           X $ ; 5 8 8 w p y t v b N M 7 * 7 e a b b m m b m v b p w 5 $ X X + + o o o o o o o o o X X ",
"                .   X + X & - - u r y l l l z B B T I b 7 q x c C B B C B B B S ! ) ) H 8 X + 3 o     X X X           ",
"  . . . +   X + . . o % 4 7 e e t t l t v v l v B S K t w t r N z m Z Z Z Z B S Y ^ q.~.^.M   3 . + + + $ $ X . o     ",
"+   + +       X   . % = 5 7 u t t y t l t l l l C S S t q y r l l z m b B S S Y ! ^ ,.q.~.^.+.$     + O X $ o . X o X ",
"+ X   .     X X X % = 5 7 e w t y r y l v v z z S Z v r t m C C z z x m x z z n B Y ,.q.~.sX^.^ % X O O X X o . o X . ",
"X   .     + X X $ * 5 7 e w r r t t y b m m m m C Z M t v S S S m Z m Z m z z z B B <.,.4.~.~.~.p * X O X X o .   o o ",
"    . .   X X ; 4 4 7 7 w w r t t l x b b z v z C S M v A J Q Y C C C Z m m v l B l C ^ 4.q.q.q.~ 0 o o o o o . o o o ",
"o   .   X + $ % 4 6 7 q q q r t t l l v z n m m Y S z l Z ! ^ Q Y A C C m z l v l x m A Q / 4.4./ A * o o o o o o o o ",
". . . . X % % * 7 6 7 q 7 t t t t l v v n n A J ^ Q C l A Q <.^ ^ ^ Q Y S C m m l l z l J Q / ,.^ J 0 % X $ % o o o o ",
". . . . X o ; ; 6 7 7 7 t w t t l v v z l z n S ^ ^ S n C J Q Q ^ ^ Y C B z m n z l l n A J ^ ^ ^ Q M = X o % ; o o o ",
"o     . . $ * 4 6 6 q q t r t y b r t r v J ~ X.9.h.T.S.h.6.X.X./ Q J n v v l x l m m l l A J J Y Y B w % o o o o o o ",
"+   . .   $ * 6 7 q 7 6 w y r 6 6 l K 5.h.F.|.;X:X3X9X0X8X8X1X1X;X.XF.6.) Z l r b r r b v n n J C C z y 5 o o o o o o ",
"+ X     X ; 4 4 6 7 6 w w 6 q y ) O.D.W..X;X;X1X:X2XwXwX3X3XrXrX9XeXrXrX5XR.o.L q q t r t C A n n z z l 5 % o o o o o ",
"+ X X o $ $ 4 4 8 6 8 6 6 q D o.B.G.W..X X].].:X2X2X2XwX3XeXeXeXpX0XuX0XCXDX%X{._ N q t t l l v v l l x t 5 % . o o < ",
"X X X X $ * 4 4 8 u 6 6 t I r.D.F.F.U.U.].&X:X2X*X2X2XwXwXeXeXeX9XpXaXiXuXCXZX7X$Xt.K y q t v t p t r l x 7 * O & o o ",
". X X $ $ * 4 4 8 6 6 b ) i.D.S.F.L.I.].&X*X:X*X2X2X2XwXeXaXeXaXuXpXuXuXCXDXZX7XAXAX{._ e e y t t w r r x q = % o o @ ",
"o + X $ * * 4 4 6 4 l _ i.B.A.Z.J.L.I.&X&X=X*X>X2X2XwXwXwXeXtXeX0XpXuXpXNXpXCXiXZXFXHXhXg.a 4 t w w w q r r 8 ; O & @ ",
"o X $ $ $ 4 4 4 6 b _ r.i.A.Z.L.K.I.(.&X/.&X*X:X>X>XwXeXtXaXaXaXSXrXpXiXCXCXNXiXZXDXHXLXKXj.M 4 q t 7 6 r x 8 ; O O o ",
". X * 4 $ 5 4 4 q { e.r.a.A.Z.F.L.I.U./.&X&X&X:X*X:XwXwXpXaXeXpX0XtX0XrXSXSXNXCXZXZXAXHXLXLXb.0 6 y q q 7 7 q q @ % & ",
". X * * * * 4 6 G [ e.9.M.Z.Z.F.L.L.I.&XU.&X&X&X*X:XwXwXeXrXeXpXSXrXrXNXNXCXCXMXhXZXAXFXGXLXHX:.4 q r q 6 7 7 q o > & ",
"+ X ; 4 $ 4 4 y [ e.y.p.C.H.S.K.K.Y.I.I.I.&XU.&X&X*X:XwXeXeX9X9X8X8X0X6X0XNX7XMXNXAXzXAXAXPXUXlXH $ y q 6 7 6 w < & & ",
"o $ $ * 4 * 6 F 3.e.u.M.C.H.Z.K.K.K.I.Y.I.I.I.&X/.&X:XwX8X9X8XqX0X8X7X0X0XMXMXMXNXNXhXZXAXxXPXUX%.* y q 6 7 6 q = & = ",
"% $ * * 4 * u I 3.3.p.M.S.C.S.H.K.K.K.K.K.L.I.U.&X&X;X;X8X8XqX8XqXqXqX6X6X6X6XMXgXNX$XhXAXlXAXIXxX2 8 w 6 6 6 q 5 < % ",
"o $ * * 4 4 i { 3.e.p.M.B.B.Z.H.S.J.K.J.J.K.Y.I.].&X=X3X8X8X5X5X#X#X#X#X#X6X$X6XNX6XhXjXzXlXGXPXmXU 4 q 6 7 7 q 7 = % ",
"% $ 4 * * 6 c [ 3.u.p.h.B.V.V.S.Z.Z.Z.T.T.J.L.Y.U.].-X3X8X8X5X5X%X%X%X%X#X#X$XNXhXhXhXhXjXlXAXJXIX;.4 6 w 7 6 6 w & = ",
"X $ * * $ 6 D 1.3.7.p.h.h.V.V.B.A.A.V.A.Z.Z.J.J.].&X;X1X8X5X7X5X%X#X#X@XW.R.R.R.@XhXhXhXjXjXBXGXmXfXe 6 q 6 6 6 q = % ",
"$ $ * * ; q I ' 2.u.p.D.d.o.( K ! ~ 2.5.a.F.Z.J.[.].;X5XqX5X6XNXtXK.M.9.<.Q T ! X.j.gXhXgXhXlXlXcXcXP 5 q 7 4 7 r 5 < ",
"% ; * 4 * 8 E 3.u.p.d.e.! z z l z l n S <.w.A.K.I.].;X4XqX6X6X6X@X6.~ ~ ~ ` ) ( b L r.oXhXjXjXxXcXbX} 7 6 7 4 q r = = ",
"$ $ * 4 * u ( 3.7.p.r.~ Z K ) ] 2.] ] / 5.A.Z.H.K.].;X4XqX%X#X<XoXc.l.k.!.D.c.c.r.) K $.}.hXjXhXxXbX-.= q 7 4 7 q 5 0 ",
"$ * * 4 * e ( 3.y.M.] S ) 6.6.i.s.s.6.5.6.a.B.C.L.U.;X9X9X5X+X+X}.R.R.{.R.R.R.}.@XG...) c.hXhXlXxXmX;.5 6 7 6 q r 7 5 ",
"$ * * 4 4 i { 3.y.s.[ ) 6.6.6.h.S.K.D.a.9.9.B.C.K.].1X9X9X7X+X+XXX@XP.G.P.P.|.|.G.@X!.g.'.jXjXzXxXbX>.0 7 w 7 7 q w 7 ",
"$ * * 4 4 i { u.s.s.h.9.0.6.h.F.F.].W.K.9.6.B.S.K.].1X9X9X%X#X+XXXW.K.J.].:X&X[.W.W.@X$XzXzXhXjXlXbXfX9 4 u 6 6 q q 7 ",
"* * 4 4 4 a [ 3.p.j.j.9.X.6.K./.*X2X:X=XA.9.A.C.L.].1X9XqX7X6X+XOXW.F.J.&X-X:X2X.XR.XXhX%XhXhXlXxXcXvXf 6 q 8 6 q r t ",
"% * * 4 4 a ' 3.N.D.V.5.0.9.H.U.*X:X2X:XJ.9.B.S.I. X3XeX0X7X<X$X+XW.S.K.=X2X2XwX#XXX{.%XZXlXzXhXGXcXnXg 6 q u 7 q r r ",
"8 4 4 = * F ' e.j.W.j.o.5.9.J.J.*X*X2X2XL.h.A.Z.J.[.2XaXaX9X6X6X@XW.G.(.>X>XeX8X:XXX{.jXAXAXzXlXxXcXnXU 6 q 7 4 6 e e ",
"$ 4 4 * 4 c ' e.D.W.D.5.8.A.H.L.*X*X1X.X[.V.B.A.[.].4XaXuXuX6X6X.XK.A./.>X:X3X;X8X+X'.'.zXzXzXzXGXnXnX@.6 q 8 7 6 e e ",
"4 7 4 $ ; G ' e.S.W.N.o.o.s.S.P.P.XX.X.X[.V.A.H.[.].eXaXpX0X7X7X:X[.Z./.4X:X.X#XR.'.dX%XzXzXiXlXGXcXnX@.4 6 5 7 6 q w ",
"4 6 4 $ 8 c ' u.D.Y.j._ ~ o.$.6.j.R.|.XX|.Z.A.K.P.].3XpXpX0XMXqX4X[.9.A.V.6.O.k.&.:.;.'.zXDXlXFXJXnXnX#.4 6 7 7 q w y ",
"4 q 7 * 4 c ' 1.h.G.i.~ L U U ~ M L ~ O.k.G.F.L.[.[.2XpXpX0XuX7X7XG.X.L L H U :.%.&.#.m.AXKXKXFXJXnXmX#.6 6 6 7 w 7 w ",
"7 6 6 $ 4 V ' 1.6.V.i.) K +.O...O.6.l.k.[.[.P.J.[.[.;X9X0X7XuXuXDX%Xk.l.g.l.g.b.b.g.z.}.FXKXHXGXJXbXnX:.6 q 6 4 q t y ",
"4 6 e 5 4 c ' 1.8.9.s.d.r.i.h.i.G.XX.X.XXX[.[.K.T.F.[.1XqXqXuXuXiXSX5X5X7X#X@X@X@XE.gXNXDXDXGXJXJXbXnX-.6 I ) H q t t ",
"7 N ..U e x ` 2.5.2.p.N.H.Y.Y.(.].;X-X#X.X.X[.F.9.h.F.]..X5XqXiX8XaXeX3XuX4XyXyX,X$XNX<X,X6XBXJXcXnXnX@.c c.gX@Xt.t p ",
"] 8.M.2.q c ` 1.1.3.p.N.N.H././.=X=X>X>X;X;X[.V.6.V.5X6XXX#XiX7XCXDXDXpXyXyXyXyXQ.yX<XVXgXVXVXBXJXbXnX} x W.OXOX<Xj.r ",
"0.9.9.] 6 c E 3.2.u.p.M.N.H.H.Y.U.=X=X;X]. XV.6.X.0.j.!.c.R.hXzXCXSXSXpX0XyX<XyX<X<XQ.<XgX_.BXBXJXnXcX| r W.<XOX<XVX{ ",
"p.9.9.5.q x W 3.7.u.u.M.M.C.J.H.Y.W.=X].=X[.h./ ! Z D { $.t.}.zXiXSXSXpXyX,X,XQ.Q.(.Q.Q.<X_.gXBXkXcXvXP N W.NX<X+XNXr.",
"p.9.M.8.r i E ' 2.u.u.M.M.N.Z.C.Y.U.].]. X].V.6.[ ~ ( $.t.b.oXAXSXCXCXSXqX,X,X,XyXQ.Q.Q.VX_.`.gXkXvXfXf I @X6X<X5XOXj.",
"y.M.C.8.B l E ' 2.1.u.p.M.M.Z.Z.Y.P.U.].[.[.G.F.V.h.h.{.@X#XiXZXCXCXCX0XqX5X<XOX<XQ.OXOX_.E._.gXkXkXdXd $.%X6X6X<XgXg.",
"u.9.A.9.l l W ' 1.1.u.u.p.N.C.J.F.Y.U. X.X[.[.[.[..X4XuXCXiXaXiXCXCXCXiX7X7X$X+XOXOXOX_._._._._.`.kX>.h t.6X#X6X@XhX_ ",
"1.8.a.a.m x V W ' 1.2.7.u.M.N.C.V.L.[.[.[..X.X1X.X4X9XiXpXaXDXiXFXDXDXuXuX6X$X+X_.Q._.Q._.n.n.m.).fX>.-.E.6X#X$XoXE.N ",
"[ 2.9.A.! V V W W 2.1.2.7.9.9.a.V.J.L.[.[.4X#X1X4XeXiXaXDXDXaXDXDXDXCXiXMX6X$X+XOXQ._.E.n.n.m.f.).).>.).hX6X.X#X}.$.6 ",
"i _ e.y.5.T V V W ` ' 1.2.7.9.M.V.K.F.F.P.[.F.[.I.I.[.*X-X.X;X7XNXAXZXZX7X%X%X}.Q.E.E.b.v.m.x.).>.>.x.`.jXgX}.b.} * $ ",
"$ e D ( ( V c W E W ` ' 1.5.8.u.9.B.B.s.5.~ ~ ( ) ) ) _ _ [ $.$.%.j.}.hXMXhXoX}.E.E.b.v.v.x.).=.>.=.-.*.%.U U a $ $ ; ",
"  $ * 6 w e c V V R E { ] 1.7.7.6.9.6.] Z r r i b G F F F I I F t M _ g.oXgXoXE.E.b.v.z.v.x.=.=.=.} h j 9 ; $ $ % % % ",
"    $ $ $ ; 8 9 V R W ` ` ] 1.1.6.6.i.r..._ $.e.j.!.R.R.R.E.E.c.$.r.r.j.}.gXE.n.v.n.v.x.*.x.=.=.@.g : ; % , , 2 , 2 1 ",
". o - - > O ; ; c V G E ` ` 2.[ 6.6.j.G.j.j.G.R.L.[.XX.X.X5X#X#XNXNXMXoXR.b.R.b.v.v.v.x.f.=.-.-.g : : : 2 2 > 2 > , , ",
"@ & ; & O O 3 : 9 c G W E ` ` ] ] 5.s.i.s.9.h.k.F.L.P. XXX.X.X#XoX$X%X}.R.b.b.b.v.v.x.x.).>.#.P g 3 1 3 < < > 2 2 , , ",
"o O % ; O O + ; ; 9 c V R W ` ( ` 1.5.6.6.6.i.h.G.G.W.@X@X@X@X}.oX}.}.{.b.b.v.z.z.x.f.x.-.#.| d , @ > 2 < < , 0 > , , ",
". O ; & & o ; 8 + ; i V R W ( ( ( ] 1.[ 5.e.6.s.l.k.k.R.{.{.{.{.}.n.b.b.v.v.z.x.f.*.f.f.-.| d : , < < < < , , = , < , ",
"o > O & & & & % & > % 8 c V W W G ` ` ' 2.] 0.5.r.s.j.j.c.c.b.c.c.c.z.z.t.f.f.t.*.f.*.-.| d 9 0 , > , < , < 0 < , , , ",
"o o % O o & & & & & & 8 i V V W E T E ( ( ) { ) ] ] o.5.r.r.%.t.t.f.t.t.f.t.%.%.#.#.} | g s : ; , > > > , , , , , , , ",
"O % @ > % & % & % & @ % 8 c V c V V R T T E I I ! ) ) _ ..[ ..$.&.$.$.#.#.#.#.#.} } P d : 1 2 2 > , 1 2 1 , 0 , , 1 , ",
"o & O % O & & % % > # @ ; 8 i i c x c V V V V V N D K I U U _ }  . .} }  .} } | | g d 9 > > > > 2 , 1 > 1 1 1 2 2 0 2 ",
"o & O % & & % & ; & # # O ; - - u c c x c B c B c V G G F G P G P P P P P | P P d d : : s 1 2 > 1 > 1 1 1 1 1 1 1 , 1 ",
"O o & O & & & & ; O # @ & 8 8 8 u u x x B B B B i i c c c f f f c F N F F f d d : : : : : 1 2 > 2 , 1 , , , 1 - , , , "
};
