/* XPM */
static char *AdvGirl_02_03_ctrl[] = {
/* columns rows colors chars-per-pixel */
"36 15 161 2",
"   c #040500",
".  c #060902",
"X  c #0D0600",
"o  c #0F0609",
"O  c #0D0A02",
"+  c #0E0C08",
"@  c #0E1005",
"#  c #0D1209",
"$  c #100402",
"%  c #110C04",
"&  c #110D09",
"*  c #1A0608",
"=  c #190C04",
"-  c #1D0B0B",
";  c #1A0F13",
":  c #121105",
">  c #13100A",
",  c #181206",
"<  c #19130C",
"1  c #1B190C",
"2  c #1D1314",
"3  c #1D1A11",
"4  c #1E211A",
"5  c #22070C",
"6  c #2A0A0F",
"7  c #2D0810",
"8  c #201C0D",
"9  c #211C11",
"0  c #360612",
"q  c #310810",
"w  c #3C0614",
"e  c #262316",
"r  c #242219",
"t  c #282617",
"y  c #282619",
"u  c #2B281C",
"i  c #212D23",
"p  c #22362A",
"a  c #2D352A",
"s  c #233833",
"d  c #333224",
"f  c #35312B",
"g  c #3C3724",
"h  c #383529",
"j  c #353B39",
"k  c #3D4A43",
"l  c #3F7673",
"z  c #400007",
"x  c #43010D",
"c  c #4A090F",
"v  c #450213",
"b  c #460910",
"n  c #4B0316",
"m  c #4C0817",
"M  c #4C0A1B",
"N  c #5A1A1B",
"B  c #58201F",
"V  c #403E2F",
"C  c #65292B",
"Z  c #713F38",
"A  c #464334",
"S  c #474539",
"D  c #4B4B3D",
"F  c #7E433D",
"G  c #465F5C",
"H  c #565447",
"J  c #595748",
"K  c #5C5946",
"L  c #5D5B4F",
"P  c #5B5F51",
"I  c #4C6255",
"U  c #486F5D",
"Y  c #40785D",
"T  c #4C715F",
"R  c #52655F",
"E  c #42776F",
"W  c #477C6C",
"Q  c #4A7466",
"!  c #447772",
"~  c #417873",
"^  c #4C7D7A",
"/  c #55756C",
"(  c #517A6E",
")  c #5C7669",
"_  c #5B7B6E",
"`  c #537E76",
"'  c #605E51",
"]  c #666457",
"[  c #65685F",
"{  c #6D665E",
"}  c #6E6B5C",
"|  c #6C705F",
" . c #706E5F",
".. c #74735E",
"X. c #747A5E",
"o. c #63776B",
"O. c #617C7D",
"+. c #726F68",
"@. c #717161",
"#. c #7E7B68",
"$. c #737874",
"%. c #4D806F",
"&. c #4B8674",
"*. c #4E877E",
"=. c #528273",
"-. c #51807A",
";. c #558877",
":. c #518B7D",
">. c #5E8070",
",. c #58877D",
"<. c #598B72",
"1. c #5B8B7B",
"2. c #56917F",
"3. c #5A957F",
"4. c #7A815F",
"5. c #618271",
"6. c #698674",
"7. c #619473",
"8. c #679C72",
"9. c #72817E",
"0. c #518680",
"q. c #5C8587",
"w. c #5B8D84",
"e. c #628587",
"r. c #698681",
"t. c #689983",
"y. c #708282",
"u. c #824B42",
"i. c #8D5943",
"p. c #8C5B4D",
"a. c #945F4F",
"s. c #975D52",
"d. c #96664F",
"f. c #9B6944",
"g. c #9F6B55",
"h. c #A57547",
"j. c #A37456",
"k. c #85826F",
"l. c #838172",
"z. c #868478",
"x. c #8A8774",
"c. c #8C8B7B",
"v. c #95937E",
"b. c #939184",
"n. c #999687",
"m. c #9B9A8A",
"M. c #ABA895",
"N. c #ADAB9D",
"B. c #B5B29F",
"V. c #B0AEA1",
"C. c #B5B5A4",
"Z. c #C3C3B7",
"A. c #D6D6BC",
"S. c #CAC7C2",
"D. c #D2D3C6",
"F. c #DBDCCE",
"G. c #DDDDD5",
"H. c #E0D9C7",
"J. c #E7DFCA",
"K. c #E3E0D9",
"L. c #E8E8DE",
/* pixels */
"X X % % X O : X O O & + & & o + & X & , & X % % % & & - - 0 n n x m M M ",
"X $ X % % X X @ : + O O & + + > & + + X + < < & & & & & - 7 w v m x m M ",
"$ % X X : O : 1 t e 1 % + X O & & < > > + % & > & & > + * - 6 q n n n n ",
"% = X O O X > u c.l.L d 1 : : : & > + X & & % & & & # # + & - ; n c x z ",
"% : O O % O O r ] b.V.m.} S y , X & : & & < , X X O & # # # & > x c c N ",
"X O % O O O . # > f L z.N.N.l.J h 9 % X X % : : > & & > > # @ > n C F s.",
"O X O O O O . O + & > r S @.m.C.n.} A u 1 1 9 : < , % = = & : > B K a.g.",
"O O O O . @ # @ O + & > < 1 d H x.M.B.k.K ..#.K 9 < % = = = = < Z p.d.j.",
"O O O O O + o + O + + + + % & ; e V | m.C.D.G.S...g = - * X 2 f u.i.f.h.",
"O O O O O O O + O + + + + & & < : 1 1 d c.F.L.K.A.v.A > . i G 6.[ | X.4.",
"O O O O O O + + + + + > + + & & = & % , D m.Z.D.J.H.b.a p o.t.Y / _ >.5.",
"O O X O O O O O O + + + & % + % ; $ - = 8 g D I { +.$.$.r.` W &.%.=.;.1.",
"O O O O O O O O + + + @ & + % + o & % $ < O   # s G O.e.q.*.! E =.=.1.1.",
"O . O O O O + + + . + + + & & & & 2 < = X 4 k R ,.w.:.~ l ^ ^ ` *.:.2.3.",
"O O O O O O O O + + + @ & + : > +   X = X j y.O.U U Q ( ( / ) o.<.<.<.8."
};
