/* XPM */
static char *AdvGirl_04_01_img[] = {
/* columns rows colors chars-per-pixel */
"115 14 196 2",
"   c #000100",
".  c #010000",
"X  c #010101",
"o  c #000201",
"O  c #010302",
"+  c #020200",
"@  c gray1",
"#  c #000306",
"$  c #020307",
"%  c #000400",
"&  c #000503",
"*  c #020403",
"=  c #020701",
"-  c #010506",
";  c #030504",
":  c #020605",
">  c #030706",
",  c #040000",
"<  c #050000",
"1  c #050001",
"2  c #040301",
"3  c #060000",
"4  c #070000",
"5  c #060201",
"6  c #070200",
"7  c #070302",
"8  c #040207",
"9  c #040500",
"0  c #050402",
"q  c #050600",
"w  c #050601",
"e  c #040603",
"r  c #060501",
"t  c #070400",
"y  c #060503",
"u  c #060701",
"i  c #060702",
"p  c #070602",
"a  c #040404",
"s  c gray2",
"d  c #040406",
"f  c #040507",
"g  c #040605",
"h  c #050704",
"j  c #060405",
"k  c #070506",
"l  c #060604",
"z  c #070604",
"x  c #070705",
"c  c #060606",
"v  c #070707",
"b  c #000508",
"n  c #030708",
"m  c #02070A",
"M  c #050608",
"N  c #05060A",
"B  c #070508",
"V  c #06050A",
"C  c #060709",
"Z  c #070709",
"A  c #07060B",
"S  c #010801",
"D  c #030804",
"F  c #060900",
"G  c #060902",
"H  c #070802",
"J  c #070803",
"K  c #070A03",
"L  c #040905",
"P  c #040807",
"I  c #060805",
"U  c #070904",
"Y  c #060807",
"T  c #060B07",
"R  c #070908",
"E  c #07080A",
"W  c #060A09",
"Q  c #060A0B",
"!  c #080000",
"~  c #0B0100",
"^  c #0B0102",
"/  c #0B0301",
"(  c #0B0203",
")  c #090305",
"_  c #080500",
"`  c #080403",
"'  c #090502",
"]  c #080702",
"[  c #0A0502",
"{  c #0B0603",
"}  c #090504",
"|  c #080705",
" . c #0A0607",
".. c #0B0706",
"X. c #0D0302",
"o. c #0F0000",
"O. c #0D0304",
"+. c #0C0306",
"@. c #0C0401",
"#. c #0C0704",
"$. c #0E0604",
"%. c #0F0705",
"&. c #080609",
"*. c #09070A",
"=. c #080903",
"-. c #090803",
";. c #080904",
":. c #090804",
">. c #080806",
",. c #090806",
"<. c #080B04",
"1. c #090A04",
"2. c #0A0904",
"3. c #0B0A05",
"4. c #0D0805",
"5. c #0C0807",
"6. c #0C0B06",
"7. c #0E0A07",
"8. c #0D0C07",
"9. c #0F0C07",
"0. c gray3",
"q. c #090909",
"w. c #08080A",
"e. c #0B0B09",
"r. c gray4",
"t. c #0B0B0B",
"y. c #0B0B0D",
"u. c #090E0A",
"i. c #0A0C09",
"p. c #0A0C0B",
"a. c #0E0A09",
"s. c #0F0B08",
"d. c #0E0D08",
"f. c #0F0E09",
"g. c #0E0F0A",
"h. c #0C0E0D",
"j. c #0F100B",
"k. c #110102",
"l. c #120403",
"z. c #110706",
"x. c #170505",
"c. c #120807",
"v. c #130908",
"b. c #100C09",
"n. c #100D08",
"m. c #110E09",
"M. c #120D09",
"N. c #120F0A",
"B. c #130E0A",
"V. c #150D0B",
"C. c #190305",
"Z. c #1A0104",
"A. c #180809",
"S. c #13100B",
"D. c #10110C",
"F. c #11100E",
"G. c #1B1311",
"H. c #1E1010",
"J. c #191E18",
"K. c #1D1C18",
"L. c #1E1D19",
"P. c #200308",
"I. c #200C0E",
"U. c #251A16",
"Y. c #201F1B",
"T. c #271F1D",
"R. c #2B1719",
"E. c #2B1D1D",
"W. c #2C191B",
"Q. c #39181F",
"!. c #3B1B1E",
"~. c #23221E",
"^. c #252420",
"/. c #2C2422",
"(. c #362023",
"). c #3B2226",
"_. c #492A30",
"`. c #4D2F31",
"'. c #493735",
"]. c #53383D",
"[. c #593F40",
"{. c #4B6671",
"}. c #4C6772",
"|. c #4E6974",
" X c #506B76",
".X c #536E79",
"XX c #5B6E7C",
"oX c #5C6F7D",
"OX c #56717C",
"+X c #57727D",
"@X c #58737E",
"#X c #5E717F",
"$X c #716967",
"%X c #746C6A",
"&X c #617482",
"*X c #637684",
/* pixels */
"g.i i J i i ;.i i   i U.'.].`.!.W.A.P.Q._.R.X.| ! /.%X$XT.7 ! ! _ i i i i i i i i i i i i i i i i i i i i i i i 7 i i i i J J J F F F J J J =._ =._ =._ ;._ ;._ ;.;.;.;.8.=.4.=.8.#.8.6.8.8.=.8.8.6.6.8.8.8.8.8.8.8.f.8.f.j.8.S.z.J.{.",
"g.i i ;.i i ;.i J i _ @.l.C.C.C.X.l.).].).A._ i X.7 G.V.7 7 z.@.i i i i i i i i i i i i i i i i i i i i i i i i   i   i i _ J J K K F U J J _ =._ =._ ;._ ;._ ;.;._ =.6.4.=.1.4.=.1.8.6.8.8.8.8.4.8.6.8.8.8.8.8.f.8.8.8.S.8.j.8.z.J.{.",
"g.i i i i i J 9 U ;.| 7 7 ! X.$._ 7 H.R.l.! i ;._   7   7 _ 7 7 i i i i i i i i i i i i i i i i i i i i i i i i i i i i J J J J K K K K J =.=.=.;._ ;._ ;._ ;._ _ @.;.4.8.1.=.4.#.8.8.8.6.6.6.8.6.6.6.8.8.8.8.8.8.8.8.8.f.f.8.S.c.J.|.",
"g.i i ;.i i ;.i *.B B w.y.y.*.j w.i 7 7 ! 7   h 7 O.| $.t.$.7 | i i i i i i i i i i i i i i i i i i i i i i i i i i i i J J =.=.K 6.K K 1.=.=.4._ ;._ ;._ ;._ ;.;.;.4.;.=.4.=.1.=.1.#.=.6.6.6.=.6.6.6.8.8.8.8.8.m.m.m.S.m.m.8.S.c.J. X",
"g.i i i i i ;.i 8 B A m $ $ - m 9 u.- i F.w.  h | h i 7 i i | | j h O.h i h | i i i i i i i i i i i i i i i i i i i i i J J =.=.1.K 6.6.6.;.;.4.;._ ;._ ;._ ;._ =.=.1.4.8.=.4.1.=.#.8.8.8.8.8.4.6.6.6.8.8.8.8.8.m.m.m.m.m.m.S.m.c.J..X",
"g.i i ;.i i J 9 m B Q B $ - m Q 9 P -     7 $ h t.*.h w.| $ |   h h h i i h h j i i i i i i i i i i i i i i i i i i i J J J =.=.K 1.K K 1.4.;.;._ ;._ ;._ ;._ ;._ =.=.=.=.#.4.=.=.#.1.8.=.8.=.=.6.6.6.8.8.8.8.8.m.m.m.m.S.S.m.S.c.J.OX",
"g.i i ;.i i ;.i U P i h w.;.    U m h - h h | O.7 h j w.|   | w.h j h j i j h O.i i i i i i i i i i i i i i i i i i i J =.=.=.=.K K =.=.=.=._ 4.;._ ;._ ;._ ;._ =.#.=.4.6.4.1.=.=.#.8.4.4.8.=.8.6.6.6.8.8.8.8.8.c.m.m.M.B.B.N.N.c.J.+X",
"g.i 9 J i i ;.i S 9 9 i i _ $.$.  Q Q h Q j   O.- w.  w.h.$ - h h i h j h h h h i i i i i i i i i i i i i i i i i i J J J =.=.=.K K =.=.=.=.=.=._ ;._ ;._ ;._ ;._ =.=.=.6.=.1.4.=.=.=.=.8.=.8.#.6.6.6.8.8.8.8.8.M.M.m.B.B.B.B.B.c.J.@X",
"j.J 9 J 9 9 J J J i i i i i i i i i i i i i i i i i i i i i i i i i i i i i i i i i i i i i i i i i i i J J J J i J =.=.=.=.=.1.4.;.=.4.;.=.4.;.4._ ;.4._ =.4._ 4.=.=.#.=.#.8.=.4.8.=.4.=.8.8.8.9.9.9.8.m.m.m.N.m.m.m.m.m.m.N.N.m.K.XX",
"j.J 9 J J i J 9 i i i i i i i i i i i i i i i i i i i i i i i i i i i i i i i i i i i i i i i i i i i i J J J J J J =.=.=.=.1.1._ =.=._ _ =._ =.;.=.=._ 4.=.=.=.;.=.=.=.=.4.=.8.8.=.6.8.6.6.8.;.9.9.9.m.m.m.m.N.m.m.m.m.N.N.N.N.4.K.XX",
"j.J J J i i J J i i i i i i i i i i i i i i i i i i i i i i i i i i i i i i i i i i i i i i i i i i i i J J J J J J J =.=.=.1.1.;.=.=.;.4.=._ =.=.=.=.=.;.=.#.=.4._ _ 4.#.=.6.=.6.6.6.6.6.8.8.8.9.9.8.m.m.m.m.N.m.m.N.N.N.N.S.S.8.~.#X",
"j.J 9 J i i J i i i i i i i i i i i i i i i i i i i i i i i i i i i i i i i i i i i i i i i i i i i i J J J J J J J J =.=.=.1.1.4._ =.4.;.=.4.;.4._ ;.4._ =.=.=.;.=.=.=.=.=.;.6.6.6.6.8.8.8.8.8.9.9.c.m.m.m.m.N.N.N.N.N.S.S.S.S.#.~.*X",
"j.J J J i i J J i i i i i i i i i i i i i i i i i i i i i i i i i i i i i i i i i i i i i i i i i i i i J J J J J J =.=.=.=.1.1._ 4.;._ 4._ ;.4.;._ 4.;._ =.=.=.4.=.=.=._ 4.4.6.6.6.6.8.8.8.8.8.9.9.9.m.m.m.m.N.N.N.N.N.S.S.S.S.4.~.*X",
"j.U J U i i J J i i i i i i i i i i i i i i i i i i i i i i i i i i i i i i i i i i i i i i i i i i i i J J J J J =.=.=.=.=.1.1.=.=.=.=.;.=.=._ =.=.=.=.=.=.=.@.4.=.=.=.;.;.8.4.6.6.6.6.6.8.8.8.9.9.9.m.m.m.m.N.m.m.N.N.N.N.S.S.m.~.*X"
};
