/* XPM */
static char *AdvGirl_07_04_img[] = {
/* columns rows colors chars-per-pixel */
"109 22 154 2",
"   c #31271B",
".  c #342A1E",
"X  c #273129",
"o  c #263B36",
"O  c #243839",
"+  c #362C21",
"@  c #382E22",
"#  c #33322D",
"$  c #343A2E",
"%  c #3C3325",
"&  c #3D3428",
"*  c #3F3826",
"=  c #3F3828",
"-  c #353C34",
";  c #37383C",
":  c #3B3B33",
">  c #264236",
",  c #104E4B",
"<  c #2E4E49",
"1  c #334745",
"2  c #36434B",
"3  c #31494D",
"4  c #3A4A59",
"5  c #375851",
"6  c #385752",
"7  c #2F5E64",
"8  c #376062",
"9  c #3D6D71",
"0  c #413626",
"q  c #413628",
"w  c #423826",
"e  c #44392A",
"r  c #4F3526",
"t  c #493D2D",
"y  c #453238",
"u  c #463F37",
"i  c #4A3E30",
"p  c #503D2E",
"a  c #583728",
"s  c #5A3D2D",
"d  c #513E30",
"f  c #44422C",
"g  c #404A2F",
"h  c #4C442D",
"j  c #454434",
"k  c #45473A",
"l  c #4D4131",
"z  c #4E4639",
"x  c #52472E",
"c  c #514434",
"v  c #52443A",
"b  c #544832",
"n  c #584534",
"m  c #5A463D",
"M  c #434B42",
"N  c #44554D",
"B  c #4A7876",
"V  c #427C87",
"C  c #46798A",
"Z  c #3DA7B5",
"A  c #478286",
"S  c #4A8C8A",
"D  c #4A959A",
"F  c #55928B",
"G  c #5A9599",
"H  c #5F9C97",
"J  c #4F95A1",
"K  c #4E9DA1",
"L  c #44A5B2",
"P  c #43AAB3",
"I  c #44ABBC",
"U  c #4EAAB5",
"Y  c #48ABBE",
"T  c #4FB1B4",
"R  c #4CB5BB",
"E  c #57A0A6",
"W  c #5AAAB1",
"Q  c #5AACBA",
"!  c #54B4B6",
"~  c #56BABC",
"^  c #61ADB4",
"/  c #78BDBA",
"(  c #49AFC2",
")  c #43B1C5",
"_  c #4BB3C3",
"`  c #49B3CD",
"'  c #4AB8C9",
"]  c #51A9C1",
"[  c #55B5C5",
"{  c #54B4C9",
"}  c #54B9C1",
"|  c #54B9CB",
" . c #5AB4C4",
".. c #5BB5CB",
"X. c #59BCC3",
"o. c #5ABBCB",
"O. c #54BDD3",
"+. c #55BFD9",
"@. c #5CB5D2",
"#. c #5CBCD1",
"$. c #61AEC8",
"%. c #65B7C5",
"&. c #61B4CB",
"*. c #63B9C4",
"=. c #60BCCA",
"-. c #6BB7C5",
";. c #6AB9C8",
":. c #62BED3",
">. c #7AC1BD",
",. c #40C4DD",
"<. c #5BC0CA",
"1. c #54C4D2",
"2. c #53C1DC",
"3. c #5EC0D1",
"4. c #5CCED9",
"5. c #57C6E2",
"6. c #5BD4E7",
"7. c #5FD1EB",
"8. c #63C1CD",
"9. c #62C2D3",
"0. c #66C7D8",
"q. c #67CBDB",
"w. c #6AC7D6",
"e. c #68C8D8",
"r. c #70D9D4",
"t. c #65CFE9",
"y. c #64D0EC",
"u. c #66DBEF",
"i. c #69D5E2",
"p. c #62D3F1",
"a. c #62D8F6",
"s. c #66DDFB",
"d. c #67E6F7",
"f. c #66EBFE",
"g. c #68E2F2",
"h. c #6CE6FE",
"j. c #66F1FF",
"k. c #67F9FF",
"l. c #69F1FF",
"z. c #6FFFFF",
"x. c #74EDFF",
"c. c #71F6FF",
"v. c #73FEFF",
"b. c #7EF9F7",
"n. c #7AFDFF",
"m. c #84D0C4",
"M. c #90E3D9",
"N. c #81EEE8",
"B. c #82FEF6",
"V. c #80FFFC",
"C. c #8FFFFA",
"Z. c #95F6ED",
"A. c #93FEF6",
"S. c #91FFFC",
/* pixels */
"o.3.0.q.3.| _ ( Y 4.a.c.n.B.m.o # @ % % @ % * . * . * * % % % % @ % % % % @ % % % @ @ @ @ @ @ @ % % % % & @ @ @ @ @ @ @ @ @ @ @ . % @ @ @ @ @ @ . @ @ . . @ . . . @ . @ . . @ @ + + @ + + + + + + +   +   +     + + @   @ ",
"o.o.9.0.0.O._ ( P 1.u.x.c.B.M.6 @ @ % % % % . * * * * . % % @ % % @ @ % % % % % % % % % % % % % % % % % @ & q @ @ & @ & @ q & @ 0 . @ @ @ % 0 @ @ @ @ @ @ @ % @ @ @ @ @ @ @ . @ @ + @ @ + + # + + + + + +   @ + @   @   % ",
"o.o.3.3.3.3.{ I L ' y.h.l.n.Z.B @ & % % % % @ * % * * * % % % % % % % % % % % % % % % % % % % % % % % @ % @ % % q @ q @ & & & @ . 0 @ % & @ & @ @ 0 @ & . % % . @ . . . @ @ @ @ @ @ . @ @ + + + + + + + + + + + @ + @   & ",
"[ o.9.o.o.#.{ Y L ) 5.s.j.n.A.H @ & & = % % @ * % * * . % = % = % * % w % * % % % % = % % * * % q & & & % % % % & & & & & & & q % % % % @ & @ & @ @ @ 0 % % % % 0 0 & 0 @ 0 @ & @ @ % @ @ @ @ + @ + + + @ + @ @ @ @ @   q ",
" .8.q.9. .o.| R L ) 2.a.j.v.C./ & & & = * * * % * * * * = = = = = = = = * % % w = % % % % % & % % q = % % % % % % % % % @ & & % % % % % % & @ 0 q @ @ * @ * % % % % % @ 0 % % @ % @ @ @ @ % @ % @ @ @ @ @ @ @ @ @ @ @ + & ",
" .9.w.o.o.o.o.[ L Y +.p.f.z.C.>.& & $ q * % * * * * e = = = q = q = q = w w 0 * % = % = 0 = % & & q = % 0 0 % % % w % % q & & & % % 0 % 0 & & @ % % * @ * @ % % % % % % @ & % 0 % @ % % % . % . & @ & @ @ @ & @ @ @ @ @ q ",
"X.9.8.o. .| o.[ ! P O.y.d.n.N.S & = = = * * % w % = = = = = q = q = = = q = w q = q q = q = q = 0 0 = w = % w w w % % w % w & 0 0 % % * % % 0 0 % % % @ % % % % % % % % % % @ * % % % % % . @ % @ @ @ @ q @ @ @ & @ @ @ & ",
"=.=.=. .[ o.o.[ ~ Z ' t.d.n.r., & = = = = * w w * = e = q q q q q q e = q q q = q = q = q q q q 0 = w % w % % % w w w % w % 0 w % % % % % % @ q 0 0 % w * * % % % % % % % % % % % % @ % % % % % q & & & @ q & @ @ & @ + q ",
"-.;.&.{ ] { ....! [ ` ,.k.b.F X r w w w w w w w w w e q q 0 q w q q q e q q q q y e e e y q e e y q q q q q q w 0 0 e q q q q q q q q 0 0 0 q q % = % = % % % % * * % * 0 @ q q @ q % % % = % % % % % % % % % % q % % @ e ",
"! X.<.<.o.| o.o.} Z ) 6.i.D < : e e e w w r e e r e e w w q r w q e q e e e e e q e q e e e e e q q e q q q q w q q q q q q q q q q q q q q q q = q = = q & q & % % * % @ 0 0 @ q % q % % & % q % % % % % @ % % & % % @ e ",
"T ~ <.| | { o.o.I I ' U V 3 # l e e e e e e t t e e r 0 t w w w e e e e e e e e e e e e e e e e q e e e q r e w e q e q e e q q e e q e q q r q q q q q q q q q 0 % * * 0 0 0 q q % % q = = = q % w 0 % % % % % q % % % e ",
"Q Q ..@.{ ....&.3.[ D 7 O : t r e t t t t t t e t e t t e e t w e e t e e e e e i e i y i t y e q t e e e q w e e t e t e e q q e q e q q q q q e e e q q q q q 0 % % r q q q q = = q = = q & = = = % % % % = % % % % % t ",
"&.&...@.#.:.:.:.-.C 4 ; $ h h a t t t t t t t t t t t t t t t t i e i e e i e i e e e i e e i e t e t e e e t w w t w e e q e q q e e q q r e e q e q e q q q e 0 0 q & q q q q q = = = = = q q 0 = % 0 % & % % = = % % t ",
"] ....:.o.*.W K 9 2 y d j > h s t t t t t t t t t t t t t t t t t i e i e i i e i i i e i i e t t t t t e f e t t e t w e r e q e e e e e e e e e e r e r e q q * r q r q q q q q q = = e = = e = = = 0 = = 0 0 = % = % e ",
"X.&.;.^ G B 5 o - u n x e g t r t t t t t t t i t i t t t t t t i t i e i i e i i t t t t t t t t h t e t r f r r f t r e e t e e i e e e e y e e e e e e q q r w w q e r q e e q = e e = i q = = q 0 = q = = 0 = % = % j ",
"^ E A 8 1 u p s n t f f h l t z c t c c i h l l i h t h t t t t i i i i i i i i e i t t t e t t t t t t t t f t t f t t t t t t e i i e i i i i i e i e t t e t r 0 e e q q e e q q = e e = = = q q q q = q = q q % = % t ",
"N M j i p d c z l b l l z l l l l l l h i c i c l l l l l l l c l i l l i h l i i t t i t l t l t t t h t i h t c t t t t t t t t t t t t e t t t r e e e t e e e i e e t e t e w t t r e e e e w w w w w 0 q q e q e 0 e ",
"k k j l d n l l l l l l l l l l l l l i l i l t l l l l l l l i h c t i l l l l c l i h l t l t t x c t l t i i t t l t h i t t t t t t t t t t t t e t t t e t e e e e e e e e t e e w e e e q w w w w r 0 q e q q e 0 p ",
"z l b b b c v c l l l z l l l l l l l l i i c h l l l l l l l h c c l c c c c l l l l l l c l l c t t c l l l l c l t t t t t t t t t t t t t t t t t t t t t t e i e i e i t t w e w e w e w r e w e w e q q e e q e & e ",
"n b x x l b v v c l b c b l c c c z c c c c c c l b l z l l z c c i l c c i l l l c l l c l l c l l c i l l l l c t c t c c t c l i c i t h t t t l t h l t t t i i e t i i i t t t t e t e t q e e e t e i e e t e e q d ",
"n b x x x z c v c c z v v c c c c c c c c c c c c c c c z c c v c c l c c l l c c c l l c l c l c t h d l l l l l c l c i c t c l l l l i c l d l l l t l t l t i i i i t h t i t t t t t e t e e t t t i i e i e t t q x ",
"z l l b b c v c c c b c c c c b c c c c c c v c c c c c c c c c l l l l l c c l t c l l l i l l l l c i l l l i c l l l c l c t l l l l l i i i t l l l i h t i i i i i t t i i t t t t t t t t e e t t e e t y t t t q i "
};
