/* XPM */
static char *AdvGirl_01_01_img[] = {
/* columns rows colors chars-per-pixel */
"85 70 39 1",
"  c black",
". c #010101",
"X c #020202",
"o c gray1",
"O c #040500",
"+ c #040402",
"@ c #050503",
"# c #050600",
"$ c #050601",
"% c #060701",
"& c #060702",
"* c #040404",
"= c gray2",
"- c #060604",
"; c #070705",
": c #060606",
"> c #070707",
", c #070802",
"< c #070803",
"1 c #080702",
"2 c #080703",
"3 c #0A0603",
"4 c #0A0702",
"5 c #080903",
"6 c #090803",
"7 c #0B0803",
"8 c #090907",
"9 c #090A04",
"0 c #0A0904",
"q c #0C0904",
"w c gray3",
"e c #090909",
"r c gray4",
"t c #0B0B0B",
"y c #0E0F0A",
"u c #0C0C0C",
"i c gray5",
"p c #0E0E0E",
"a c gray6",
/* pixels */
"a>>>>>w>>>wwwwwwwwwwwwwwwwwwwwwwwwwwwwwwawwwwaawwawwawwwwwwwwwww>ww>wwwwwwtwwttwuuatt",
"w                  >                       >           >     >> ******* *  * ***** **",
"w                                                                       * *  * *  *  ",
"w  >>  >  >  >    >  >    >>> > >  >  >>  >   >   >>  >>> >>> >>**=***>***>>*>>>>>>>>",
"w                           >                        >       >   * ** *  ** *********",
"w        >                       >   >       >   >             >* *  * ** *  * ******",
"a  >        > > >  > > >> >  > >> >  >>  > >    >>>>>>>>> >> >> ====>*==***>>>>>>*>>>",
">                 >    >                                       >**************** ** *",
"w               > > >    > >       >    >  >  >>>     > >   >>  * * *** ********>****",
"w>                          > >>>   > >          > >> >>   >  > **** ****************",
"w  >  >          > >>> >> >       > > > >   >  > >   >> >       * *** * *************",
"w  >    > > >  >      >      > >>>        >       >    > >> >> >** ******************",
"w  >  > > >    >>   >  >>>           > >>    > >>>   > > >>   > *********************",
"w            >   >>       > > > > >     >  >   >   > >> >  >>  >****************=*===",
"w >      > >>  >>    >  >   > >     > >>  > >>   >  >  > >>  >> ****************=====",
"w  >               >   >   >     > >    >     > >  >  >>    > > ****************=====",
"w  >  > >    >     >    >    > > > > >> >    >>   >  > > > >  > *********** ####->@@@",
"w         >   >  >     >  >               >>>  > > > >> > > >> >**********#>=#=#-7@@@",
"w >   > >   >        >  >   > >>>    >>  >   >>  > >>  >> >> >>>*********** =###--@@@",
"w  >  >   >> >>  >>    >  >     > > >   > > > >   >  >   > >> > **********=>###,@>@@@",
"w  >   >  >  >  >     >   >>>    >   > >  > > >>>> > > > > >> > *********=>#*@@,##@@,",
"w  >> > >  >> >>  > >    >    > >  > >> > >> >> > >>> > > >> >>>********==> @@,,##,,@",
"a >      >>   >  > >> >    >   > >> >  > > >> >   > > >> >> >> >********===#>,@@,#,,@",
"w  > > >>  > > >> >  > >>    > >>  > >  > >  >>>>> > > > > >  > ********===>@,,,#,,@@",
"w  > >   > > >    >  > >         > >  > > >> > > >>  >> > > >> >********=>=>=&&&,#,#,",
"a     > >   > > >  > >>  >>  >>   >  > > >> > > > >>>> > > > >>  * =****>=>#>&&&#,#,#",
"w  > >>   > > >  > >> >  >> >  >> >> > >>  >> >> >>  >> >> >>  >*******==>=>#,-,,#,#,",
"w  >  > >> > >          > >> >>> >    > > >  > > > >> > > >  > > ****===>=>=>##,#,#,#",
"a  > >>  > > > >> >  > >> >> >> > > >> >> >>>> >> >>>> >> >>>> >****=====>=>>#,#,#,#,",
"a     > > >   >          >  >  >>> >>  > > >  >  >>  >>  >  > > ***=====>=>#=,#,#,#,#",
"w  >> >   > > >>> > >  >> >> >>  > > >>  > >> >>>  >>  >>> >> > ***======>=>>#,#,#,#,",
"a >> >>  > > >   > > >>  >> >  >> > >> >> >> > > >>  >> > > >> >**====>=>=>#=,#,#,#,#",
"u= >**>=************************ > >> >  > >> > > >>> >> > >>>> =>=@>@#,########,,,,,",
"u= >**> ************************ >>  >>>>>>  >>  >>  >> > >  >>>>=>=@,,#########,,,,,",
"u  w**>*************************> >>>> >> >>>> >>  >>  >> >>>> >=>=>@,,,#,#,#,#,,,,,,",
"u= =**> ************************ >>   >  >   >>  >> > >  > >> >>>=>#@,@,,#,#,#,#,,,,,",
"u *>**==************************>> >> >>>> >> >>> > >>>>>  > >>>=>=>=&-##,#,#,#,,,,,,",
"u* >**> ************************  >  >>  >>  >  >> >>  >>>>>>> >>=>#>&,,,#,#,#,#,,,,,",
"u* >**>=************************> >>>  >>  >>> > >   >>  > > >>>=>=>#,,#########,,,,,",
"u= >*== ************************ > > >>  >> > > > >>>  >>>>>>>>>>=>=>##,########,,,,,",
"u  w=*= ************************>> > > >> > > >>**====>=> >@@@,,,#,#,#,#,-,4>333>4473",
"u= >==>=************************> > >>>  >>> > >**=====>>>>@@,,@#,#,#,#,-,-4433344333",
"u *>**> ************************> > > >>>> > > >**====>=>> @@,,@,#,#,#,#,-4@@43333333",
"u* >**>=************************>> > >    > > >>**=====>>>>>@@,,#,#,#,#,,9@>443333333",
"u= >**= ************************ > > > >> > > > **====>=>=>#,,,@,#,#,#@,,,,-444333333",
"u= >**>=************************> >>> >  > >>> >**=====>=>=>>@,,#,#,#,,,-9,5@33333333",
"u  w**> ************************  > > >>>> > >  **====>=>=>#>#@,,#,#,#,@5--5>44433333",
"u= =**>=************************>> > > >> > > >>**=====>=>=>#,#,#,#,#,,,,,55777533333",
"u *>**===***********************===*****= = = = ====#####@#,#,#,&,,,,,,,,,9,9,9,045@5",
"u* >**> ************************===*****=*=*=*=====#=#=#,,,#,#,#&&&,,,,,,9,9,9,945505",
"u* >**>=************************=================*==#####,#,#,#,&&&&,,,,9,9,9,9,04045",
"u= >**> *************************===============>>=>>#,,,#,#,#,####&&&&,,9,9,9,940404",
"u  w==>***************************===>=>=>=>>=>==>=@>@,@#,#,#,#,###&,,,,9,9,9,9,-540-",
"u= >*=> **************************===>>>>=>==>=>>=>=@@,@,#,#,#,#&&&&&,,,,9,9,9,955044",
"u *>**==**************************===>>>=>=>>=>==>=>@,,,#,#,#,#,&&,,,,,,9,9,9,9,45400",
"u* >**> **************************==>>>>>=>==>=>>=>#@,@,,#,#,#,#&,,,,,9,,9,9,9,9055@4",
"u=*= *==********====********==== =*==>>>>=>=>=>=>#>#&&&&#,#,#,#,#&,,,,,9404555044qqqq",
"u> ==== ********====********==== =*====>=>=>=>=>=>#,&&&&,#,#,#,#&,,,999,04055-404q4qq",
"a*===*>**=*==>**====********=====**===>=>=>=>=>=@>>#&&&&#,#,#,#,,,,999994-@540044q4qq",
"u= =**=* = =  = =====******=======*==>=>=>=>=>=>@@#&&&&&,#,#,#,#,,,,99995504044544qqq",
"a= >**=*****=***>=>=====*====>=>========>=>=>=>>@@,,&&&&#,#,#,#,#,,-990,540404054q4qq",
"a==>*=>*****==**=>=>=========>>==========>=>=>=>>@>@&,&&,#,#,#,###,,55-040@040@544qqq",
"a=*===>=========>=>=========>=>=========>=>=>=-w@>@,#-#,#,#,#,#,##,,,,,,0455544444qqq",
"u=*>==>=>=>=>=>==>=>=========>=>=========>=>=>--@@@,,#,#,#,#,#,####,,,,,404555-44q4qq",
"y##,##:#--------========================>=>=,&&&&&&&&&&&&&&&&&&&#&,,9,9,40404-5444-00",
"a##-####--------=========================>-==&&&&&&&&&&&&&&&&&&&#&,,,9,95504555540500",
"y##,##:#-------->=-->=>=>=>=>=>=>=>=>=>==>--&&&&&&&&&&&&&&&&&&&&#&,,9,9,@540540@40500",
"y##@####--------=>=w=>=>=>=>=>=>=>=>=>=>>=w-:&&&&&&&&&&&&&&&&&&&#&,,,9,90404404044500",
"y##:=#:#=---:=&:>=>=>=>=>=>=>=>=>=>=>=>==>----&&&&&&&&&&&&&&&&&&&,,,9,9,04-55455@5000",
"y##&##&#&=--&&===>=>=>=>=>=>=>=>=>=>=>=>>===:,&&&&&&&&&&&&&&&&&&#,,9,9,94055455,45450"
};
