/* XPM */
static char *AdvGirl_03_02_ctrl[] = {
/* columns rows colors chars-per-pixel */
"32 14 192 2",
"   c #000100",
".  c #000002",
"X  c #000103",
"o  c #010002",
"O  c #000200",
"+  c #010300",
"@  c #000302",
"#  c #030000",
"$  c #000400",
"%  c #000405",
"&  c #010506",
"*  c #030504",
"=  c #030406",
"-  c #020607",
";  c #040000",
":  c #040100",
">  c #050000",
",  c #050100",
"<  c #060000",
"1  c #060100",
"2  c #070000",
"3  c #060200",
"4  c #060300",
"5  c #070200",
"6  c #070300",
"7  c #040004",
"8  c #050005",
"9  c #060006",
"0  c #070007",
"q  c #050702",
"w  c #070400",
"e  c #060701",
"r  c #040605",
"t  c #050704",
"y  c #060407",
"u  c #030708",
"i  c #050608",
"p  c #070508",
"a  c #07040B",
"s  c #05040C",
"d  c #05050D",
"f  c #070802",
"g  c #070803",
"h  c #080000",
"j  c #090000",
"k  c #090003",
"l  c #090303",
"z  c #0A0000",
"x  c #0A0100",
"c  c #0A0300",
"v  c #080500",
"b  c #080403",
"n  c #090601",
"m  c #080703",
"M  c #0A0603",
"N  c #080405",
"B  c #08050C",
"V  c #09060D",
"C  c #080A00",
"Z  c #0C0C02",
"A  c #070711",
"S  c #080812",
"D  c #121208",
"F  c #1A1A0E",
"G  c #2C1106",
"H  c #2F1107",
"J  c #2E1308",
"K  c #2F1409",
"L  c #301208",
"P  c #30130B",
"I  c #31160B",
"U  c #30150E",
"Y  c #33180D",
"T  c #34190E",
"R  c #371C11",
"E  c #381E11",
"W  c #381F18",
"Q  c #232115",
"!  c #29271A",
"~  c #2F2B1F",
"^  c #3B2114",
"/  c #3D2314",
"(  c #3D2217",
")  c #3E2415",
"_  c #3F2516",
"`  c #3B2019",
"'  c #3C211A",
"]  c #3D2219",
"[  c #3A291F",
"{  c #3B2C19",
"}  c #3C2C1F",
"|  c #312D21",
" . c #40231B",
".. c #42261B",
"X. c #44261C",
"o. c #43281D",
"O. c #40311E",
"+. c #472C21",
"@. c #403023",
"#. c #463629",
"$. c #483926",
"%. c #4D3D2E",
"&. c #52412D",
"*. c #554536",
"=. c #5A4935",
"-. c #5C4C3C",
";. c #614F39",
":. c #65533D",
">. c #66543E",
",. c #605040",
"<. c #6E5D53",
"1. c #746359",
"2. c #75645A",
"3. c #76655B",
"4. c #7D6C62",
"5. c #92664B",
"6. c #94604A",
"7. c #94624B",
"8. c #97644F",
"9. c #94684D",
"0. c #966A4F",
"q. c #976C4C",
"w. c #986D4D",
"e. c #986C4F",
"r. c #976856",
"t. c #966858",
"y. c #976959",
"u. c #996651",
"i. c #996955",
"p. c #986957",
"a. c #9A6A56",
"s. c #996D50",
"d. c #996A58",
"f. c #9A6B59",
"g. c #9C7055",
"h. c #9D7156",
"j. c #89786E",
"k. c #8A796F",
"l. c #8D7C72",
"z. c #A07459",
"x. c #A5795E",
"c. c #AB7F64",
"v. c #9D8875",
"b. c #AC8065",
"n. c #A08B78",
"m. c #A6917E",
"M. c #B7957C",
"N. c #B8967D",
"B. c #B9977E",
"V. c #BA987D",
"C. c #BB997E",
"Z. c #C5967C",
"A. c #C69874",
"S. c #C79975",
"D. c #C7987C",
"F. c #C99377",
"G. c #C89578",
"H. c #C99679",
"J. c #C8967B",
"K. c #C9967B",
"L. c #C8967D",
"P. c #C89A76",
"I. c #C89A79",
"U. c #C99B79",
"Y. c #C99B7A",
"T. c #AD9782",
"R. c #B39D88",
"E. c #BD9B80",
"W. c #BAA18B",
"Q. c #BCA38D",
"!. c #BEA58F",
"~. c #C09E82",
"^. c #C19F83",
"/. c #C99A80",
"(. c #CB9C82",
"). c #CD9F85",
"_. c #C3A185",
"`. c #C4A286",
"'. c #C5A286",
"]. c #C8A484",
"[. c #C8A587",
"{. c #C9A487",
"}. c #C8A389",
"|. c #CAA58B",
" X c #CFA189",
".X c #CEA18A",
"XX c #CFA28B",
"oX c #CFA38A",
"OX c #CEA98F",
"+X c #D1AC92",
"@X c #D3AE94",
"#X c #D5B096",
/* pixels */
"n w 4 w n n n n i B y w y n b b 7 q & y w y f f a a y y s s A S ",
"& & & & & u & & . . q . . . . q w 4 4 . . 4 . 4 b n b b 4 4 4 . ",
". . . . . i i . Z Z D F Q ! ~ ~ [ } @.#.%.*.-.;.>.:.;.=.&.$.} { ",
"<.1.3.3.4.k.l.k.n.n.n.T.R.W.Q.!.M.B.B.V.E.~.^.].].{.{.{.'.^.E.C.",
"OX+XOX|.|.#X#X+X).XXXX X).(./.Z.S.S.S.Y.Y.P.A.A.F.K.K.K.L.L.Z.Z.",
"b.b.x.g.g.h.h.g.f.f.f.a.u.8.7.6.5.u.e.e.s.e.q.q.a.u.a.a.a.t.t.y.",
"o.o.] R T K K J I I U P P P H H K K T E / E  . .X.X.X. .] W W W ",
"p 8 8 8 8 8 7 8 . . . 4 . 4 4 4 8 b k b b b b b b b z z z b b 4 ",
"w f w f w q f q f q f q w q f q q f q f f f f f n w g g M M M M ",
"f f q f q f q f q w q f q f q f w q f q f f f f f f g g g M M M ",
"f q f q f q w q f q f q f q w q q f f w f f f f t f f g M M M M ",
"q f q w q f q f q f q w q f q f f q f f f f f f Z y f w g M M M ",
"f q f q f q f q f q f q f q f q q w q f t f f f g g t M M M M M ",
"q w q f q w q f q w q f q w q f f q f q w Z f f g g g g t M M M "
};
