/* XPM */
static char *AdvGirl_09_03_ctrl[] = {
/* columns rows colors chars-per-pixel */
"38 33 256 2",
"   c #030200",
".  c #010800",
"X  c #152324",
"o  c #20110A",
"O  c #281819",
"+  c #351818",
"@  c #2E1229",
"#  c #361E2B",
"$  c #361A30",
"%  c #38251C",
"&  c #2B2423",
"*  c #23272A",
"=  c #302428",
"-  c #3D242A",
";  c #3D282A",
":  c #352A3A",
">  c #3B312F",
",  c #37373F",
"<  c #452B28",
"1  c #412635",
"2  c #482D3B",
"3  c #472C35",
"4  c #4C3236",
"5  c #4D323E",
"6  c #423338",
"7  c #533B36",
"8  c #523A3B",
"9  c #52373C",
"0  c #443629",
"q  c #543846",
"w  c #513543",
"e  c #623D4E",
"r  c #54423D",
"t  c #594939",
"y  c #634D36",
"u  c #61553D",
"i  c #695C3E",
"p  c #64593D",
"a  c #704733",
"s  c #735A3E",
"d  c #69603F",
"f  c #63603F",
"g  c #5B4243",
"h  c #5C4149",
"j  c #514A52",
"k  c #5C5B43",
"l  c #59594A",
"z  c #55545C",
"x  c #4C5868",
"c  c #5F675A",
"v  c #467472",
"b  c #5B6966",
"n  c #597175",
"m  c #61464E",
"M  c #624C44",
"N  c #634B4B",
"B  c #6A4E4B",
"V  c #624642",
"C  c #6A4F56",
"Z  c #655443",
"A  c #655C42",
"S  c #645C49",
"D  c #6B5444",
"F  c #6C524D",
"G  c #695D45",
"H  c #6D5E48",
"J  c #63554C",
"K  c #6A5C51",
"L  c #665653",
"P  c #705740",
"I  c #715C43",
"U  c #715D4A",
"Y  c #795947",
"T  c #725654",
"R  c #71555A",
"E  c #725E53",
"W  c #77565A",
"Q  c #646244",
"!  c #64624D",
"~  c #65684C",
"^  c #6C6144",
"/  c #6D6049",
"(  c #6E694B",
")  c #61615D",
"_  c #646952",
"`  c #6E6151",
"'  c #6B6C57",
"]  c #686B59",
"[  c #6B725B",
"{  c #716246",
"}  c #72624A",
"|  c #71694B",
" . c #786046",
".. c #786048",
"X. c #78684F",
"o. c #746452",
"O. c #736A53",
"+. c #7E6355",
"@. c #786950",
"#. c #7D695B",
"$. c #7A6759",
"%. c #737054",
"&. c #7A7558",
"*. c #797957",
"=. c #646A66",
"-. c #696B60",
";. c #697568",
":. c #657C79",
">. c #6A7A78",
",. c #7E6962",
"<. c #757C65",
"1. c #797E67",
"2. c #787A79",
"3. c #577786",
"4. c #7B856D",
"5. c #7B8975",
"6. c #7B8771",
"7. c #598787",
"8. c #5B8D86",
"9. c #5A9B9F",
"0. c #5FA6AC",
"q. c #678A87",
"w. c #778F81",
"e. c #758587",
"r. c #71948C",
"t. c #7C9881",
"y. c #7B9297",
"u. c #6993A1",
"i. c #7799A3",
"p. c #71A195",
"a. c #67AEA8",
"s. c #6EAEB0",
"d. c #69BABD",
"f. c #7DAAAE",
"g. c #74ABB0",
"h. c #76BEBD",
"j. c #6CD9DE",
"k. c #70CED6",
"l. c #6CC6C6",
"z. c #7CD5E3",
"x. c #73E4DE",
"c. c #69E5F1",
"v. c #7DE3E8",
"b. c #80523B",
"n. c #805948",
"m. c #827058",
"M. c #83795E",
"N. c #84795A",
"B. c #9A664E",
"V. c #926852",
"C. c #857C61",
"Z. c #827268",
"A. c #887572",
"S. c #9A6E61",
"D. c #94736A",
"F. c #89845E",
"G. c #85855F",
"H. c #8B8563",
"J. c #8D8A64",
"K. c #80896A",
"L. c #8B9268",
"P. c #8A9479",
"I. c #8A9B71",
"U. c #908768",
"Y. c #908B68",
"T. c #908C66",
"R. c #90916C",
"E. c #939472",
"W. c #959977",
"Q. c #90A07C",
"!. c #879984",
"~. c #899D93",
"^. c #909F82",
"/. c #8CA592",
"(. c #93A283",
"). c #9DA986",
"_. c #95AB99",
"`. c #9CB69D",
"'. c #88A8A6",
"]. c #89ABBA",
"[. c #96B9B7",
"{. c #98BAAA",
"}. c #A39E98",
"|. c #A7B995",
" X c #A1BBBB",
".X c #B5B5B7",
"XX c #8EBAC5",
"oX c #8FBFCD",
"OX c #9DC7BC",
"+X c #A8C8A7",
"@X c #A9C3BA",
"#X c #B3CEB6",
"$X c #B7D6B9",
"%X c #86CAC5",
"&X c #9AC0C9",
"*X c #9CC5D0",
"=X c #9DCCDB",
"-X c #94C4D2",
";X c #84DAD9",
":X c #85D8E3",
">X c #96CFE2",
",X c #99D6E3",
"<X c #88EAF7",
"1X c #8FE2F2",
"2X c #AAC8CA",
"3X c #A5C8C5",
"4X c #A8CED6",
"5X c #A7CAD0",
"6X c #A6D4CC",
"7X c #A7D4D8",
"8X c #B0D3D5",
"9X c #A0D5E7",
"0X c #A3D9E9",
"qX c #A3DEF0",
"wX c #B3DBE7",
"eX c #ACE0DC",
"rX c #BBE6DD",
"tX c #A8E0EE",
"yX c #A7EDEB",
"uX c #A8E1F4",
"iX c #A5E7F7",
"pX c #A5F4FF",
"aX c #BEEFEB",
"sX c #B2E3F4",
"dX c #B0E6FF",
"fX c #B2EAFC",
"gX c #B8EDFB",
"hX c #B9F0ED",
"jX c #B4F3FB",
"kX c #BDFBFE",
"lX c #B4FEFF",
"zX c #C1E3C8",
"xX c #CDF4D7",
"cX c #C0EEFE",
"vX c #CEF6EB",
"bX c #C1F7F7",
"nX c #C1F7FF",
"mX c #C2FCFE",
"MX c #CBFBFE",
"NX c #C5F7F5",
"BX c #DAFAEC",
"VX c #D9FDE3",
"CX c #D7F6F8",
"ZX c #D3FEF9",
"AX c #DEF8F7",
"SX c #D8FEF7",
"DX c #DBE9EA",
"FX c #F5E6DF",
"GX c #EDE9E8",
"HX c #E2F6EB",
"JX c #E6F4F5",
"KX c #E5FCFF",
"LX c #EBFAF6",
"PX c #E9FAF6",
"IX c #F6E3E4",
"UX c #F2EBE9",
/* pixels */
"H A Z ^ S o.J o .   + b.B.S.n.{ A A Q G i G G A G G G G A G G G G G A G Z G ",
"S H A A A / S %   O < a V.D.A.J G G G G G A G H A G A H H A H A A G G A A G ",
"Z H H ^ G ^ G t X 2.A.Y Y Z..X~.P D s i ^ p S H H A H A G A A G G A G A G A ",
"S H A ^ i i / A * z L y m.}.DX3XF s s { i A G K G G A H H H A H A G G A G G ",
"H A ^ ^ i ^ | u > 6 L ( P._.OXg.] S D I ^ Q S H G G ^ A A A H A G G G / G G ",
"/ G ^ i p | H 0 O = ) [ w.5.v 5.q.b S U ^ f / H / G H H / H / / / A H A G G ",
"^ ^ ^ i S H g O & , n p.%Xl.0.a.d.7.=.K G f ^ H S / A / G / G / A H G G H G ",
"^ p G H o.l > O & x i.h.l.k.z.z.j.9.b K p f ^ G H ^ / G / A / G / G H H Q / ",
"| A ^ ^ / N # @ : z e.*XqX1Xv.v.c.k.8.l Y Y i ^ H G U ^ H } H G ^ H / H / S ",
"A / G { H r 2 $ : j e.2XMXkXjXyX<Xz.s.:.L Y } ! H / H H H G H } / / H ^ / ^ ",
"p / G { F 8 5 1 e L 2.@XCXKXKXJXkXiX:Xg.b Z o.G / } G H ^ U H H / G / G / / ",
"| G } H U r - w R #.P.#XBXJXUXIXLXMXpX,Xr.! { } G H U ^ U G { H U ^ H } G H ",
"O.G } o.E 8 - m W Z.Q.$XVXHXGXIXFXAXkXlX@X<.p Y } G H H H G U G G } H G } G ",
"H U H $.F < 8 T ,.C.L.+XxXVXLXLXUXLXMXmXNX~.S I U H } H / } } } / H U / U / ",
"G } / E 7 < F W #.C.L.|.zXvXSXZXKXKXSXmXkX*X;.G ^ } G } } / H / U } U ^ } G ",
"} Z #.N % 7 T T +.M.J.).#XrXbXkXMXNXZXbXjXdX~.k / H } / H U ^ U ^ U } U } } ",
"| G m.M + q R T o.M.U.W.|.$XeXhXNXjXkXMXgXsX XG H H } U / } U } U } H U { / ",
"U { } g O 2 C T @.C.U.E.).+X6XeXeXjXkXmXtXuX2X' / / U } } G { H ^ } } H } U ",
"H X.G y # 1 m F $.C.U.R.(.|.OX6X7XtXfXgX,XtX7X-./ U / U U H U } H U U U G U ",
"H | H B 4 2 9 B ' M.H.R.W._.{.OX4X=X9X0X>XuX7X] } } } } } } / } { } { { } { ",
"H { } D 8 w 3 B / &.H.J.E.(._.OX3X=X>X-X9XgX[._ } U / } } } U } U { } { { } ",
"} G } Z 8 q 4 B ~ &.H.J.E.Q./.'.[.XXoX-XcXsXe.! } } } U } / } } { { { H { { ",
"} ^ H D 8 h g N ~ *.*.F.R.P.!.~.'.f.oX4XwX].b G / } } } } } H } { H { { H { ",
"{ { { o.h m N t u d | *.G.4.5.w.r.f.7X5Xi.3.=.Y U } / } U H } } { { U } I { ",
"/ o.o.} U G u M Q ~ ~ [ <.5.!.!.].'.y.>.=.] o./ { } } } { { } } } } { { } } ",
"o./ / o.o.U D H ( | %.*.4.4.6.5.:.:.;._ ! S ( { } { { { } } { } } { } } { } ",
"} U o.o.o.o.} } ^ / | O.' ' ] ] ! _ ~ Q / { {  .} / } X.{ X.} } } } { } } } ",
"} } } ..} } } X./ } X.} ( / ~ ~ ^ ^ ( { { { { { } } } } } } } } { } } } } { ",
"} } } } } } X.} X...} } / | X.@.{ Y } { U } } } } } } ..} X.{ { { } } { } } ",
"} X.} { } } } } H { } } } } { { ..} Y X.o.o.o.$.X.} } } } } } } } { } } } } ",
"} X.X.{ } } X.U } } } } X.{ { { / } / X.} } } } } } { } X.} X.} } X.{ X.} } ",
"} } X.} } } X.{ } } { { { { { { | ^ ( | X.{ { | { X.X.} } { X.} } } } } } } ",
"@.X.@.@.X.@.X.@.X.X.X.X.X.X.X.X.@.X.@.@.X.@.@.X.X.X.X.X.X.X.X.X.@.@.@.@.@.@."
};
