/* XPM */
static char *AdvGirl_09_04_img[] = {
/* columns rows colors chars-per-pixel */
"96 33 87 1",
"  c #5E513E",
". c #5F533D",
"X c #5F523F",
"o c #60543E",
"O c #61553F",
"+ c #605340",
"@ c #605342",
"# c #615441",
"$ c #615443",
"% c #625542",
"& c #625640",
"* c #635741",
"= c #635643",
"- c #625544",
"; c #635645",
": c #645746",
"> c #645842",
", c #645943",
"< c #655943",
"1 c #675843",
"2 c #665A42",
"3 c #675B43",
"4 c #655847",
"5 c #655A44",
"6 c #665A44",
"7 c #675B45",
"8 c #675A47",
"9 c #665948",
"0 c #675A49",
"q c #685942",
"w c #695942",
"e c #695A43",
"r c #6A5A43",
"t c #685944",
"y c #695A45",
"u c #6A5B44",
"i c #6A5B46",
"p c #685C44",
"a c #695D45",
"s c #685C46",
"d c #695D47",
"f c #6B5C45",
"g c #6A5E46",
"h c #6B5F47",
"j c #6C5D46",
"k c #6D5E47",
"l c #6A5E48",
"z c #6B5F49",
"x c #6E5F48",
"c c #6F5F48",
"v c #6E5F4A",
"b c #6E6046",
"n c #6F6146",
"m c #6F6147",
"M c #6C6048",
"N c #6D6149",
"B c #6C604A",
"V c #6D614B",
"C c #6F6049",
"Z c #6F604B",
"A c #6E624C",
"S c #6E634D",
"D c #6F644E",
"F c #716147",
"G c #706247",
"H c #706049",
"J c #716148",
"K c #70614A",
"L c #71614A",
"P c #726248",
"I c #726249",
"U c #73634A",
"Y c #70644E",
"T c #71654F",
"R c #72664E",
"E c #73674F",
"W c #74654E",
"Q c #75664F",
"! c #76664D",
"~ c #76664F",
"^ c #77674E",
"/ c #76684E",
"( c #77694F",
") c #78684F",
"_ c #726650",
"` c #746850",
"' c #796950",
/* pixels */
"pppppppphhhffhffppppp333888888883333rqqq1r11r1i111i1i1118;83*8*3***8***p**p********.*.***..%@.$4",
"ppppppppffrrrrrrpppp3333888888883333qqqq818ww811i1i111i1q8%33*8*p*,*p**5********%*****.*...*X.X4",
"pppppppprrrfrfrrppppp33389888888333rqqqqi88rr1ii1i111i1i%%%%****5**********,****.**..****..%XX;4",
"pppppphprrpfrfprphpppppp8lppssssp33rwqwqirrriii1111i1i11qq3338*3**p8*s8*s*8**************..%%XX9",
"MpMpMpMpffffxrlfphppppprppl8ssssppprwwfrrri8r8lri11i1111*s*s**8*3*8*3%%q*p**5*****p*p*5**..%@@;9",
"pMpMpMpMxfffxrfxpMMpppphpppppsppppppwwrr8ii8r88rii1iiiiis*s*833s*8*p*q:q8*s*p**pp*****p**%*8%@;9",
"MMppMMppxfxxfxxxMppMMpppppppppppppprrrrriiiif8rl11iiii11ssss*ps83*3*8*8q**s***8****5******%,%@;9",
"MpMMMpMMxxfxxxfhMpMpMprhppppppppppprrrrriiiirflliii11iiissssssss*8*8*3;8p**s,****8*8,p*83.%*%.;d",
"xxxxxxxxfxxfxxxfkkkkkkkkphpphpphpxpppppppppppppp3333333s3rrrrrrpw1rw1r11qqqqqqqq3q:q*5**5*5s***s",
"xxxxxxxxfxxfxfxxkkkkkkkkMpMMppMpppMppppppppppppp3333333rr33rrrrr881881i1qqqqqqqq333%s*555***s*5s",
"xxxxxxxxxxxxfxfxkkkhkkkkpMMpMppMpMppppMpppppppppppppsppp33rr3r8r8r8iri11qqqqqqqq:qq:8*,,s*5s***s",
"xxxxxxxxxffxxxfxkkkhkkkkMppMpMMpMpMMMppppppMppppppppppprrrr3rr3rrr8iriiiqqqqqqqqqqq3,,,,8**3**sl",
"xxxxkkJxxxxxxxxxxxxxxxxxMpMMxlpMMpMpMpMpMMpMpMpMpppMphpprrrrr8rr8rrrr888qqqq3rqq:q8r3q55***ss*ss",
"MJJvvJJxxxxxxxxxxxxxxxxFMMMMMMMMMMMpMMpMMpMpMpMpppppphphrrrrrrpr8i8rrfw:rrq33rr3q8q:8,,,sp*ss**s",
"JvxJJvvvxxxxxxxxxxxxxxvkMMMMMMMMMMMMpMppppMMppMMMpMphphpppffffphiiiifrllrrrr3rrrq8qq38*s**sss*sl",
"xLMvvJvvxxxxxxxxxxxxxxvMMMMMMMMMMMMMMMMMMMMpMMMppMpMhphhfhffffffiiiiiirrrq3rrr888qq8,,8*s**s**ss",
"LvLvLIvIJMJLMLxMvvkFvcccvvkxxxxxMMMMMMMMxxkkkkkkMMpMMMpMpppMpMpppppppp33prrrrrrrr888r8irs*ss,,*s",
"vJvJIvIvMIMJLMJxkvvkFcccvvkJxxxxMMMMMMMMxxJvkkkkMMMMMpMMpMMpppMppppppp3phrfprfrrrrrir8ir*sp*8*ss",
"JvJvIvvFkkGkxxxxLvIIcIIcvMvJJxMvMMMMMMxMJxvkkkkkMMpMMMMMMMppMppppMpMppppfffrrprriiri8ri8ssss*3ss",
"JJJJFFIFnnkkMFhFLFvFccIvJLMvxJJZxxxxxxxxJxJFkvvhMpMMMpMpMMMMpMpMpMpppMppfffhrrrriiiiiiiissss*8ss",
"FIFIIFIFnnnnkFkFLcLcIIccJvJxvIvIxxxxxxxxxZvJvvvJMMMMMMMMMMMMMMppMpMppppMffffwfrriiii8fri*sssspsM",
"FFFFkFFFnnnnGkFFcLcLcccLvvxJvvvvMvvJJvxLMJJxMxkkMMMMMMMMMMMMMMMMpMpMMMppffffffffiiiif8iissss*8*s",
"FFFFFFFFGGGGGGFFLLLLLLLLLLLvIvZvvJJLvJxLLJvMxxMMMMMMMMMMMMMMMMMMMMMppMMphhfffffwiiiirllpssss*ssl",
"FFFFFFFFGGGGGGPFLLLLLLLLJJLIvIIZJvLxJvLJvLvLJJMMMMMMMMMMAMMMMMMppMMMMppMffcfffffiiiillrp*sss38ss",
"IIIIIIIIIIIIIIIIIcIIIFIIIIZILLLLvJFIvFvIAkAnNNNNvxJvLxLMMJxxxxxxMMMMMMMMMMMpMppMrifff8wqsp*s**,l",
"IIIIIIIIIIIIIIIIIIIcFccFcILLHILLJvvPIvFvMAnANNnMJLxLxJvvvMxxxxxxMMMMMMMMMpMMpMppiiffrrwws*sss*,d",
"IIIIIIIIIIIIIIIIcIIcFIIFHILLIHIIvJvvIvIvMMAMNknAvMvMvJLJkxxxxxxxMMMMMMMMpMMpMpMpcffffffws8*ps*ss",
"IIIIIIIIIIIIIIIIFFIFIFcIIHIHFIIFLLLPFIFFYvJLAAAIJLJLMvMvFxxxxxxxMMMMMMMMMMMMpMpMiciffwffs*s8***M",
"IIFIIIFFIIFFIIFFIIIIIIIIIIIIIIUIFIFFFIFILvYvLvLLvvJxJxLJxxxxxxxxMMMMMMMMMpMMMpppxxpxfrrr3*ss8*,d",
"III!I!!F!L!F!L!LIIIIIIIIIIFIFIPPFFFFFFFcLvJLLLLLMLxLvLxvxxxxxxxxMMMMMMMMMMMMMMMMrfxrffrrss,s3%8d",
"IILLIF!!IF!!FL!FIIIIIIIIIFIFUPPPFFFFFFFFLLLLLLLLvJvJxMvJxxxxxxxxMMMMMMMMMMMpMpplxrlrrrrrs**p3*,l",
"L!!IL!FLL!FL!FF!IIIIIIIIFIFIFPPPFFFFFFFFLLLLLLLLMLMvJxJMxxxxxxxxMMMMMMMMMMMMlxMxlrprrrr383ss8*,d",
"'''''()))))))))^(()^///^^^!!!!^^~~~~~~~~~W~W~~~~___~~Y~Y~Y~~Y~~Y```_Y_Y_Y_Y_YYYYDDDvDMMLvlVvVlVD"
};
