/* XPM */
static char *AdvGirl_04_02_ctrl[] = {
/* columns rows colors chars-per-pixel */
"28 14 69 1",
"  c #3E5A65",
". c #405C67",
"X c #405D6A",
"o c #456467",
"O c #45646A",
"+ c #47686F",
"@ c #4A6E6A",
"# c #496573",
"$ c #4A6779",
"% c #4A6972",
"& c #4C697B",
"* c #4B736B",
"= c #4E786E",
"- c #4E7572",
"; c #4F7B71",
": c #517C72",
"> c #538176",
", c #558579",
"< c #568A7A",
"1 c #58867C",
"2 c #588B7D",
"3 c #59907D",
"4 c #458E9D",
"5 c #5B8E81",
"6 c #5B9383",
"7 c #5D9886",
"8 c #5C998A",
"9 c #5E9C94",
"0 c #5D9F9D",
"q c #4B95A2",
"w c #4F99A1",
"e c #529CA4",
"r c #549EA9",
"t c #589FA1",
"y c #5AA096",
"u c #5DA29C",
"i c #56A0A6",
"p c #56A0A9",
"a c #5BA4A3",
"s c #5AA4A9",
"d c #5FA8AE",
"f c #5DA7B4",
"g c #609688",
"h c #619C8D",
"j c #609E96",
"k c #65A292",
"l c #61A29A",
"z c #62AA9F",
"x c #68A696",
"c c #6FAF97",
"v c #6CAB99",
"b c #6CB49E",
"n c #78BB8F",
"m c #72B29C",
"M c #74BA95",
"N c #75B99D",
"B c #78BB94",
"V c #78BB98",
"C c #62A4A1",
"Z c #64ABA3",
"A c #63ABAA",
"S c #68ADA5",
"D c #68AFAB",
"F c #66AFBE",
"G c #6CB2A4",
"H c #6BB2AA",
"J c #70B5A2",
"K c #73B9A1",
"L c #6EB7C6",
/* pixels */
"# o@***=><<338yyuCC000ewwwq4",
"# o@@==>>,<333yxuCSAaiirwwq4",
"# o@@==>>><367hyCCSHDdaiwwq4",
"# o@*==>,<<3679lCuuSHDsieew4",
"# o@*:=>,<2368yyl0yzGdsiieq4",
"# O@@::1223368jluluzaussieq4",
"$.@@*=:1223g7hkluzbZuaasieq4",
"$.o@*:>123377hllSSHbzaaiieq4",
"& O-*::1226668xvnBBMbzaaprq4",
"$ +@*::1225669xvBVVNJSdaprq4",
"$ +*;::522687hjxmNNNJSdaewqq",
"$#%-;::1256ghkkxxvmJGSaddpqr",
"& $-::1255ghhkxxxvGGGGdspwrL",
"&#%-::1156gghxvvcMNJHHdsppfL"
};
