/* XPM */
static char *AdvGirl_05_01_img[] = {
/* columns rows colors chars-per-pixel */
"99 25 74 1",
"  c black",
". c #010000",
"X c #010100",
"o c #010101",
"O c #020001",
"+ c #020100",
"@ c #030102",
"# c #020200",
"$ c #030301",
"% c #040300",
"& c #040301",
"* c #050200",
"= c #040203",
"- c #060300",
"; c #050304",
": c #050400",
"> c #040402",
", c #050600",
"< c #060500",
"1 c #060501",
"2 c #070400",
"3 c #060701",
"4 c #070601",
"5 c #070602",
"6 c #060405",
"7 c #070506",
"8 c #070604",
"9 c #070802",
"0 c #070803",
"q c #080500",
"w c #090601",
"e c #080702",
"r c #080703",
"t c #0A0603",
"y c #0A0702",
"u c #080607",
"i c #0B0704",
"p c #090708",
"a c #080903",
"s c #090803",
"d c #0B0803",
"f c #080904",
"g c #090804",
"h c #090A04",
"j c #0A0904",
"k c #0A0905",
"l c #0B0A05",
"z c #0B0A06",
"x c #0C0805",
"c c #0C0904",
"v c #0D0906",
"b c #0D0A05",
"n c #0C0B06",
"m c #0C0B07",
"M c #0E0A07",
"N c #0E0B06",
"B c #0D0C07",
"V c #0F0C07",
"C c #0A0809",
"Z c #0F0B08",
"A c #0D0C08",
"S c #0E0D08",
"D c #0E0D09",
"F c #0F0E09",
"G c #0F0E0A",
"H c #100B07",
"J c #100D08",
"K c #110C08",
"L c #110D0A",
"P c #100F0B",
"I c #120D09",
"U c #130E0A",
"Y c #11100B",
"T c #12110C",
/* pixels */
"Pr1grrgg19,,,,9,9,9,9,9,99999999,,,,9,99,9,,99999999rrtdrtdrtdrtd911dgnd99h99hhhd9dghnnnnnnnnnnnYnn",
"Pr1g1rgg999,,999,9,9,9,999999999,,9,,9,99,999999999drddttdtddttdg9d99dghdh9hh99h9dgdnnnnnnnnnnFnYnn",
"Pr1g1ggr919,,,,99,9,9,9,99999999,9,9,999,99999999999rtrdddttrddrgdd11dgghhhh9hh9dghnhnnnnnnPYnFnGhG",
"Pr1grggg99919999,9,9,9,9999999999,9,99999999999h9999rdttrtdrttdt9d999ggghghd9d9dghhnnnnnFnnnnYnYGGn",
"Pr1g1rgg99,9,,999,9,9,9,999999999,99999999999h9h9991ddtdtddtdrtdgd9d9dngghghgnddnnhdnnnnnnGnnGncGgg",
"Pr1g1rgr999,9999,9,9,9,999999999,9999999999hh9h999991rrddtrdtddt9d91ddghdddddNNNnnnnnnnnnGnnccdrggr",
"Pr1grrgg999999999,9,9,9,999999999999999h999h9hhh999ddrrtrtrttrrt9g9d9dggddddNKnnnnnnnnngnnnggdrr1%%",
"Pr1g1gggh999999h,9,9,99999999999,99999h99999h9hh99919rtdtddtddtddd1199ggdddddnKKnnnnnnnnGnnd99r%1oo",
"Yu1g19dd9h,h800099999999999999999999999999999999dgg9g99ddrrrrrrr91dd9dd99dddgnnnnKKnKNNdgC8;%oooooo",
"Gg1g1dguh9h900009999999999999999999999999999999999ddddggrrrrrrrrd191d9g9ddhnnnnnnKKKKJdNgC8=%oooooo",
"Y11g8ggghh8hhhhh9hh99h9h9h9h9h9h9h99h99h99999999gd9g9gd9rrrrrrrrd9d999gd9ghgndnnNNnKKNdH7;;=ooooooo",
"Pd1g19gr8hh888h8hhhhhhhhhhhhhhhhhhhhhhhh99999999g9dg9dg9rrrrrrrr199ggddg9dgdnhnnNNKnKdHd;;ooooooooo",
"P81g1rrrggrxhuddhhhhhhhhhhhhhhhhhhhhhhhh99999999dd9g9d9drrrrrrrr9d99dhngggghdhnnNNNJNdtt=oooooooooo",
"P91grrcrxtxturxrhhhhhhhhhhhhhhhhhhhhhhhh999999999g9dd9d9rrrrrrrrg9gdggdhd9hgnnnnNNNNNdrrooooooooooo",
"Y11grrxrrtttttrr9h9h9h9h9h9h9h99h9h9h9h999999999g9gd9d9drrrrrrrrgdddhghgddgnhhNNNNJNddr%ooooooooooo",
"Yd1grrgrtttttttth9h9h9h9h9h9h9hd9h9h9h9h99999999ddg9d9ddrrrrrrrr9d9ddngh9dgddNhdnYJNdd1%ooooooo%ooo",
"Th9d99gd1d991d91d91d991d1d991d919dd1d1199ddgdgg9119d9d11gddhghgnd9dghghnnndnNJJHHPGg11ooooooooooooo",
"T8dgd1d99d1d19d1d19d1d199d1d19d1119999ddgg9999dd9d911d9dg9dghggd9dghghdggnnnNNHJHnZggoooooooooooooo",
"T91g91g991d1dd999911d1d991d1dd99d91d1d91d9gdgd9gd9d119d9dd9gghhgddghndnnhhnKNJKKnKZg11ooooooooooooo",
"Td1gd9ddd199911d1dd999d1d199911dd19d19d1dg9dg9dg11d9d9119ggghddnnghdnghnndNNJJKKKKZg1oooooooooooooo",
"Yd9g11gd91ddd1199dd111d991ddd119991d1d9999gdgd999d19d19ddg9ggdhgghgdnggcnnnKnYKKnnnd1%ooooooooooooo",
"Td1g9dg9d19199dd1199d9d1d19199dd1d199d1dgdg99dgd91d9d91d99dhndghhdnnnnnnnnnKnKKUKKgd1oooooooooooooo",
"Td9d19gdd9191d91d91d9d91d9191d91d1d9919ddgd99gdgdd111199gdddghndgnnngnnnnnnnYKYKPcc11oooooooooooooo",
"T91gd9d919dd19d1d19d119d19dd19d199d1d19999dgdg99199d9dd1g9ddnghddnggnnnnnnnKKKKKKGcrooooooooooooooo",
"Y1d99g91d91d91d991d91d91d91d91d91d9gd9d1gd9gd9gd9dg9dddgd9hgnhnncccnnGnnHHIIIIUPPHxr%oooooooooooooo"
};
