/* XPM */
static char *AdvGirl_09_01_img[] = {
/* columns rows colors chars-per-pixel */
"93 33 92 1",
"  c #5F523F",
". c #604F3D",
"X c #60513E",
"o c #61503E",
"O c #61523F",
"+ c #62513F",
"@ c #60543E",
"# c #61553F",
"$ c #605340",
"% c #605342",
"& c #605343",
"* c #625340",
"= c #635240",
"- c #615441",
"; c #615443",
": c #635441",
"> c #625542",
", c #625640",
"< c #635741",
"1 c #635643",
"2 c #615444",
"3 c #625544",
"4 c #645542",
"5 c #655442",
"6 c #655643",
"7 c #665742",
"8 c #645744",
"9 c #645842",
"0 c #655943",
"q c #675843",
"w c #675B43",
"e c #655845",
"r c #665A44",
"t c #675B45",
"y c #685743",
"u c #695942",
"i c #695A43",
"p c #6A5A43",
"a c #685944",
"s c #695844",
"d c #685946",
"f c #695A45",
"g c #695A47",
"h c #6A5945",
"j c #6A5B44",
"k c #6B5B44",
"l c #6A5B46",
"z c #6B5A46",
"x c #685C44",
"c c #695D45",
"v c #685C46",
"b c #695D47",
"n c #685E45",
"m c #695F46",
"M c #6B5C45",
"N c #6A5E46",
"B c #6B5F47",
"V c #6C5D46",
"C c #6D5E47",
"Z c #6A5E48",
"A c #6B5F49",
"S c #6B5E4D",
"D c #6E5F48",
"F c #6F5F48",
"G c #6C5F4E",
"H c #6C6048",
"J c #6D6149",
"K c #6D614B",
"L c #6F6049",
"P c #6D604F",
"I c #6E624C",
"U c #6F634D",
"Y c #6E6150",
"T c #706049",
"R c #716148",
"E c #71614A",
"W c #726248",
"Q c #726249",
"! c #72624B",
"~ c #71654D",
"^ c #70644E",
"/ c #71654F",
"( c #72664E",
") c #74654E",
"_ c #706352",
"` c #746550",
"' c #756651",
"] c #766750",
"[ c #776750",
"{ c #766752",
"} c #746850",
"| c #786650",
/* pixels */
"5=o.o=o=o=o=====&&&&2222###,,,,9,9,9,999,,r,,,,,r,rrr,r,rrr,r,rr0000rrrrrrrrrrrrrrrbrrrbrArAr",
"5=o.oo=o=o=oo===&&&&2222##,,,#9,9,9,0099,r,rrrr,rr,rrrrr,rrrrr,r000rrrrrrrrrrrrrrbrbrbrrnbbrb",
",=o  o=% o= %=,==%,22228,,,,,9,,,9,,9999r,r,,r,rrrrrr,rrr,r,rrrrrrrrrrrrbrbrrbrbrrbrrrbrbanbr",
"8,oo%==,o#o, ,==22222222,,,09,099,909990,r,rr,r,,r,rrr,rrrrr,r,rrrrrrrrrrrbrrbrrArbrAbrArnnwA",
"85oo,,==oo==o==,=2,22,r29,,,0099,9999000rrr,,rrrrrrrrrrrrrrrrrrrrrrrwwkHrbbrrbbrrbrbrArbbbbbb",
"8,  %=%,#%%,,,=%,22,82,,,999990009990000rrrrrrrrrrrrrrrrrrrrrrrrrrrrnww#rrrrrrrrArArbrArbbbbb",
"8,=%,,2&##,2,,2,,,288,050999000099990000rrrrrrrrrrrrrrrrrrrrrrrrrrrrnrHHArbrArbrrbrArbrbbbbbb",
"88%%%,,=,22,2822,,0,,r0#0999000099900000rrrrrrnarrrrrrrrrrrrrrrrrrrnrr#nrArArArAArbrArArbbbbb",
"w###9# 9,89,9,9,00#0#0000,,09995500i0yiaa5aiaaaaggggggllrrrrrrrrnn#c#Hpn#HwwwwwwbnnbwHwwH#HHw",
"w#######,9,9,9,90#00000#00009990055yya5a0i5aaaaa88ggs8glrAArrAArH#HcccnpH#HwwwHHbkwkHHHHHHHnH",
"w9 #9# 9999999990005#000,000990050i0aaaai0aaaaaagglvlgbarrrrArrrHnwHcccc#HwwHwkwwwbbHwHHnHnnH",
"w  9w#,,9999999900000000y05i005iii5iaaaa5aaaaazagslasgaaArArrrrA#nn##ccc#HHwwHHHHHkHwHHHnnnHb",
"n, 999,9999999990000000005i00yi0i55iaaaaaaaaaaAasaaaaabarArrAArARHnHHRHRH#RHbbHkHwHHHwHHHHVHb",
"n99999999999999900000000yi0ya55a0iaaaaaaaaazaVaaaaaziiiirrAArrrr#n#Rw#n#HnnnHVHbHHHwHHHHHHRHH",
"n9#99990000000r800000000yyyyyyssyisaaaabaaaaaaaziVVakkbaArArrAArRHnnH#HnHRHnHVZZHHHHHHUJHHHRR",
"n99909900000000000000000yyyyyssa0iaaaaaaaaabaVZziiiVkkzarArrArrA#nnwHHH#H#HnZZZZHHHHHHHHkHHkV",
"b8,0r999000000000000rrrraaaaaaaak#iikkkkkwwkkkkkbwwwHwHwwHwHwwwHCCCCCCCCRRZRZRFTZRRZzRRZFFRRR",
"b090r9,900000000000rrrrraaaaaaaa#iiikkkk0kkwkkkVkkwHwwwHwHwHHHHwZVCCCCCCRzRZRZzTRzRRTRZTFRZzZ",
"b099r999000r00000r0rrrrblalalalaR#ii0kkwkkkkwkVkwwbkwHHwHHwHwHHwZRzRCCCCRZZRZRRZZRFzSRRzFFRRR",
"b09rr990ia5s5a0i5aaaaaaaalalalal#RiwkkkkkkkkkbkkHHwHHwHHwHHwHHwHzRZzCCCCRRzFTzRRRZRZRZRZFFzRR",
"Ar9rr99raaaaaaaaaaaaazaaaVaaabaaR#R#kkkbwkwkVkbkHwHwHHHwwHHHHHwHRZRFzRRZzRRZRZRZFRzRRzRRFFFFR",
"Ar9rn999aaaaaaaaaaaabaaVaaalaaai#R#RwwHwkkkbkVkHwHwHwHHHHHHHHHHHZRZRRRZRRSTTRRRZTSSRSTRZRTTTT",
"Ar9rr99rsssssssshshhazazbzaVVzkbwwkkwHwHkkkbVkkbHHwHHHHHHHHHHHHHTSZRZRTSRTTSZTTRSTRRTTRSTTTTT",
"Arrrrr9rssssssazssazzzzzzzZazbbbwkHkwwHkkbkkkkHbHHHHHHHHHHHHHHHHzRRzRZzRZTTTRTSRRTRZRZRTTTTTT",
"Ar9rrrrrrs5aaaaaallglggg8azakkkkH##HH#RHHwHHwHHwFVFVFFAFHHHHHHHHZRRSRZZRFFFFFFFFRZTTTTTT~TTT!",
"ArrrvrrA8s0aaaaazlggllggaaaVkkkbwHnHnnnnHHHHHHHHbFVFFVHFHHHHHHHHRzzTZRRzFFFFFFFFRRTTTT!TWT~TT",
"Ar9rrrrva5iaaaaaggggllllikVikkkVH#H#H#cHwHHHHHHHHVVVFFFFHHHHHHHHZRzRRRZRTTTTTTTTRTTTT!T!TW(W!",
"ArrrrrrviaaaaaaAlllllllakkkkkkbkwHHHHHcnHHHHwHHwFVHbFFFFHHHHRVRCRZRRRzRZTTTTTTTTRTTTTT!TTTFWT",
"ArrrrrrraaaabazallaVaVaVkkkkkbkVccccHHHcHHHHHHHHVFVFAHHFVHFFVFFFZRRZZRzRTTTTTTTTTTT!!TT!WWWWW",
"AnrrrrrAaaaaazaaalkiVaVikkVkkkkVHHcHHcHHHHHHHHHJFVFVFFVTFAFAFFFFTTSRRSRRTTTTTTTTT!TTT`!!WWWWW",
"ArrrrrrraaaaaalzaVaVaViiwbkkVbVVcHcHcHHHHHHHHHAAFVVFAFFFFFFFFFFFZRTTRRTST!T!T!T!T!T!!!!!WWWWW",
"ArrrrrrAaaaaVaAazaVaViiVbkkbkVVVcHHHHHHHHHHHHHFFVVHbFFFFFFFFFFFFRRSTTZTT!T!T!T!T!T!T!!!!WWWWW",
"YYSSSIYYAIIAIIAIIAIIIUFUUUUUU(U(W(WUUU}U}U//////}UU}}U((W}()))))''((()))``````{{}{{{{||||||||"
};
