/* XPM */
static char *AdvGirl_03_03_ctrl[] = {
/* columns rows colors chars-per-pixel */
"39 14 129 2",
"   c #030100",
".  c #070802",
"X  c #090602",
"o  c #0C060A",
"O  c #0C0904",
"+  c #0C0B09",
"@  c #0E110A",
"#  c #130502",
"$  c #100608",
"%  c #120905",
"&  c #120B08",
"*  c #1B0005",
"=  c #1A0B0A",
"-  c #171506",
";  c #10110B",
":  c #191007",
">  c #1C160B",
",  c #1B190C",
"<  c #1A1511",
"1  c #220507",
"2  c #250709",
"3  c #270C01",
"4  c #2A0B03",
"5  c #201D0E",
"6  c #2C1105",
"7  c #2F1308",
"8  c #271515",
"9  c #2B1114",
"0  c #3E0D00",
"q  c #321507",
"w  c #331309",
"e  c #36180E",
"r  c #3B1A0B",
"t  c #29210E",
"y  c #262113",
"u  c #292316",
"i  c #302B18",
"p  c #35301D",
"a  c #352122",
"s  c #3C3321",
"d  c #461506",
"f  c #481909",
"g  c #462015",
"h  c #4C2113",
"j  c #4D2519",
"k  c #512212",
"l  c #542B1E",
"z  c #5B2C1C",
"x  c #473A29",
"c  c #4D3D2D",
"v  c #5B3123",
"b  c #623525",
"n  c #633929",
"m  c #6D3E2A",
"M  c #524432",
"N  c #5B4C39",
"B  c #64533F",
"V  c #70412D",
"C  c #744531",
"Z  c #794A36",
"A  c #7C4D39",
"S  c #7F503C",
"D  c #6B5A46",
"F  c #6B5A4A",
"G  c #74624E",
"H  c #7B6453",
"J  c #84533C",
"K  c #89573E",
"L  c #8B593E",
"P  c #855740",
"I  c #895641",
"U  c #8E5B43",
"Y  c #915E43",
"T  c #915D48",
"R  c #826D5B",
"E  c #966244",
"W  c #946249",
"Q  c #996546",
"!  c #9D6948",
"~  c #887360",
"^  c #8F7568",
"/  c #8F7A67",
"(  c #A16B45",
")  c #A46D4A",
"_  c #A8734D",
"`  c #AA794E",
"'  c #AA7450",
"]  c #AE7A52",
"[  c #B47B4E",
"{  c #B07650",
"}  c #B27953",
"|  c #96816E",
" . c #9C8774",
".. c #B58051",
"X. c #B68B5E",
"o. c #B98456",
"O. c #BC895C",
"+. c #A98467",
"@. c #AC896B",
"#. c #A48F74",
"$. c #A18C79",
"%. c #A7917A",
"&. c #A99175",
"*. c #AC957B",
"=. c #B18A6D",
"-. c #BD8C63",
";. c #BE8C69",
":. c #BA9163",
">. c #BF996A",
",. c #B19374",
"<. c #B39A7A",
"1. c #BE9076",
"2. c #B89D7F",
"3. c #C08A5E",
"4. c #C28C60",
"5. c #C1906F",
"6. c #C09271",
"7. c #C19379",
"8. c #C9987F",
"9. c #C3A17D",
"0. c #C8A27E",
"q. c #B09781",
"w. c #B79E88",
"e. c #BA9F81",
"r. c #BBA08B",
"t. c #D09E85",
"y. c #C2A180",
"u. c #CBA381",
"i. c #C0A590",
/* pixels */
"$ O O $ $ X X o o o o o o o o $ o o + o X X o O O % O X X X X % O O . % % 8 a ",
"X             .     .                   X X % % X X # : : : : 5 t p M D R ^ R ",
"8 u u , , - , , - > 5 5 u i i s x c M N B D G H R R ~ / / $.$.$.<.<.,.,.@.+.=.",
"r.i.i.r.q.q.*.$.#.&.*.<.<.<.e.e.r.9.9.9.9.9.9.0.0.0.0.0.u.u.0.0.>.-.X.X.X.` ] ",
"t.t.t.y.7.1.7.1.5.6.5.6.;.5.;.4.-.-.-.X.O.O.O.O.3.3.3.4.3.4.3.3.O.O.O...o...[ ",
"U T T I J J P P L L U U Y Y Q ! Q Q ! ! ! ) _ ' { { { } } } } } _ ] } ] _ ( ) ",
"w w 7 6 3 1 4 6 4 4 4 w w r r r g h j l l v b n m m m C C A J J U J K W Y Y W ",
"      . O .   . X X # X X X X # # * * * 1 * 1 2 4 4 4 4 4 4 4 4 0 d f k f z b ",
"X . X . X O . . . . O X O O O O O O O O % O O O X X + % + O % O X % X = * * 9 ",
"X X . X . X . o X O X O O O O O O O O O O O O O X $ @ % O % % % O @ O ; % + > ",
". . . X . X . X X X O X O O O O O O % O @ O O O O O & + & % % & ; @ ; ; @ @ @ ",
"X X . . . . O . . O X O O O O % O & O @ % O O O O O & & & & & & = = % % % + O ",
".   . X . X O . X O O X O O O O O @ O % ; O % O O + % ; & % ; & : % = % % O O ",
"X X . X . O X . X O X O O O O O O O O O O O O O O + & & % + & & ; @ + ; @ @ ; "
};
