/* XPM */
static char *AdvGirl_05_02_ctrl[] = {
/* columns rows colors chars-per-pixel */
"60 25 256 2",
"   c #000000",
".  c #040903",
"X  c #0B0101",
"o  c #0A0804",
"O  c #0D0A09",
"+  c #020609",
"@  c #091109",
"#  c #0A1817",
"$  c #140B03",
"%  c #120D09",
"&  c #180F08",
"*  c #12110B",
"=  c #151A0C",
"-  c #1B140C",
";  c #1A1709",
":  c #1D1610",
">  c #1E1812",
",  c #171719",
"<  c #0F0C10",
"1  c #111D22",
"2  c #182214",
"3  c #122A28",
"4  c #290C19",
"5  c #22150E",
"6  c #231C0C",
"7  c #241605",
"8  c #221512",
"9  c #201913",
"0  c #2A121E",
"q  c #24171A",
"w  c #31151F",
"e  c #3A171B",
"r  c #2C1420",
"t  c #2C1926",
"y  c #351923",
"u  c #381A26",
"i  c #2E1334",
"p  c #252316",
"a  c #212129",
"s  c #25272A",
"d  c #2B2A35",
"f  c #26372B",
"g  c #273638",
"h  c #372329",
"j  c #3E2B3E",
"k  c #281940",
"l  c #263A45",
"z  c #383444",
"x  c #222744",
"c  c #2A4139",
"v  c #33473E",
"b  c #1B4745",
"n  c #1C5A4B",
"m  c #16564B",
"M  c #185757",
"N  c #194D58",
"B  c #186759",
"V  c #1A6A61",
"C  c #2C4443",
"Z  c #254649",
"A  c #294B56",
"S  c #225A4D",
"D  c #2A544D",
"F  c #255D52",
"G  c #2A5C52",
"H  c #275858",
"J  c #344B53",
"K  c #37535A",
"L  c #304246",
"P  c #295C66",
"I  c #365D63",
"U  c #274A6A",
"Y  c #2B655A",
"T  c #33635B",
"R  c #35645A",
"E  c #25676B",
"W  c #25716B",
"Q  c #297467",
"!  c #257572",
"~  c #2B7873",
"^  c #277A74",
"/  c #306364",
"(  c #31626A",
")  c #3B6562",
"_  c #3A646C",
"`  c #3C6863",
"'  c #356A6A",
"]  c #3A6773",
"[  c #3B7465",
"{  c #377768",
"}  c #347D74",
"|  c #387679",
" . c #2B6475",
".. c #401C1E",
"X. c #441D28",
"o. c #471B39",
"O. c #43212A",
"+. c #4B2222",
"@. c #4B222B",
"#. c #44282A",
"$. c #462932",
"%. c #4E3027",
"&. c #4B3335",
"*. c #55282C",
"=. c #5B2C31",
"-. c #572C38",
";. c #53312E",
":. c #53343A",
">. c #5A3336",
",. c #633336",
"<. c #6B3B3B",
"1. c #673738",
"2. c #703B3B",
"3. c #473444",
"4. c #493856",
"5. c #593649",
"6. c #503D51",
"7. c #673946",
"8. c #713C46",
"9. c #723C5E",
"0. c #4F4855",
"q. c #445C69",
"w. c #514E6E",
"e. c #47675C",
"r. c #446A6A",
"t. c #4A656B",
"y. c #49696A",
"u. c #416765",
"i. c #486875",
"p. c #477669",
"a. c #42727D",
"s. c #477872",
"d. c #526C75",
"f. c #537876",
"g. c #547268",
"h. c #6A4451",
"j. c #76474A",
"k. c #794956",
"l. c #754A4D",
"z. c #795778",
"x. c #764B67",
"c. c #607E72",
"v. c #297D8A",
"b. c #387C8F",
"n. c #457C85",
"m. c #597C87",
"M. c #596C8D",
"N. c #687688",
"B. c #38816C",
"V. c #3A8578",
"C. c #46846B",
"Z. c #428A7E",
"A. c #498576",
"S. c #528D7D",
"D. c #55847A",
"F. c #5A937C",
"G. c #5E9B79",
"H. c #6D8777",
"J. c #6C907A",
"K. c #67A37A",
"L. c #2C9397",
"P. c #328482",
"I. c #3A8C8B",
"U. c #368A85",
"Y. c #348E90",
"T. c #2A98A4",
"R. c #3D97A4",
"E. c #2DA4A9",
"W. c #2AACB2",
"Q. c #2CB2BC",
"!. c #36ACB8",
"~. c #30B1B7",
"^. c #38B5C5",
"/. c #36B6CE",
"(. c #438B81",
"). c #488E83",
"_. c #49878E",
"`. c #4A9284",
"'. c #4B9585",
"]. c #479997",
"[. c #588986",
"{. c #549384",
"}. c #53948A",
"|. c #5C9483",
" X c #5E9B83",
".X c #5A9889",
"XX c #5D9890",
"oX c #449DA5",
"OX c #55A489",
"+X c #57AB97",
"@X c #4FA896",
"#X c #46A3A8",
"$X c #44B5BC",
"%X c #47B6BB",
"&X c #53A4A2",
"*X c #5CADAD",
"=X c #59A7AC",
"-X c #5BACB3",
";X c #55AEB6",
":X c #53B5BA",
">X c #56B4B8",
",X c #4AAAB4",
"<X c #639A8A",
"1X c #649B89",
"2X c #669C91",
"3X c #658C9D",
"4X c #62A184",
"5X c #6AA48A",
"6X c #6AA98B",
"7X c #67A488",
"8X c #6BAA98",
"9X c #73AC87",
"0X c #77B78D",
"qX c #77B996",
"wX c #6BB09B",
"eX c #66ABA5",
"rX c #6BB2A8",
"tX c #64B1A8",
"yX c #61B4B6",
"uX c #71B7A8",
"iX c #41B5C3",
"pX c #52BBC3",
"aX c #5BBDC5",
"sX c #69B9C2",
"dX c #76C1AC",
"fX c #4BC0CC",
"gX c #46CAD6",
"hX c #53C2CB",
"jX c #59C3C7",
"kX c #5CCCD5",
"lX c #55D2DC",
"zX c #58DCE9",
"xX c #56E6F1",
"cX c #64D5DB",
"vX c #73D0D5",
"bX c #74D8E6",
"nX c #63EAF6",
"mX c #78F8FE",
"MX c #77E4F9",
"NX c #834D4D",
"BX c #864B59",
"VX c #815258",
"CX c #885A67",
"ZX c #965E7C",
"AX c #8D6167",
"SX c #976578",
"DX c #8D6077",
"FX c #A7637C",
"GX c #946B89",
"HX c #A2728A",
"JX c #84C38E",
"KX c #84DDEF",
"LX c #8AF4FB",
"PX c #83F7FD",
"IX c #91FAFC",
"UX c #8CE4F8",
/* pixels */
"% % % % % % % * $ % * % ; X d N.d.u.i.f.C.D.A.S.F.F. X X2X8X8X8X6XwXeXrXrXrXtXeX=X-X-XbXLXLXb 4 - - - : : : : : > - 8 > ",
"O % % % % $ % & $ % * % ; $ d N.d.t.y.f.f.D.D.S.|.1X<X5X6XqXqX0XtXtXtXtX*X*X=X=X&X=XsXKXIXLXb & : - : : : : : : > > > > ",
"% % % % < % % * & % % % & o g m.d.q.d.f.f.[.[.[.XX2X2X5X9XJXJXJXdXdXtXtXtX-X-X-X-XyXvXUXIXIXn $ : - : : : : : : > 8 8 > ",
"O O o % % % % % % O O $ $ o L [.i._ s.s.s.A.D.[.[.XX2X<X5X0X0X0XdXqXwXwXeXeXtX=X-XaXbXMXPXIXS $ : : : : > : : : > > > > ",
"O O O O % O O O o o o O o . z m.] P ' [ { s.A.(.Z.V.F.Z.'.OXOXOXwX+X+X+X&X#X#XoX,XpXzXzXnXPX/ $ : - : : : : : 9 > > > > ",
"X o o o o o + o X o + . o   z M.A A A D D G T R B.Q B.{ B.B.V.V.V.U.V.Y.Y.P.v.v.b.T.T.E.^.cXI % : > : > : > 9 : 9 > 8 > ",
"  + . . X . X   X   . .   o z 4.z t d d s s f d f f f c c c v v C C C C l l Z l J I I q.i.3XJ 5 > > : : : 9 : 9 > 9 9 8 ",
"  X           X X         X 3.4.j i X.h O.$.$.:.>.>.<.<.j.j.j.j.NXNXNXNXl.l.k.VXDXSXZXFXGXGX0.4 - > : : > : 9 : 9 > 9 > ",
"                          + z o.0 0 r y y u u $.%.*.=.>.1.,.1.2.2.2.<.j.8.1.7.8.j.k.k.k.CXGXh.4 5 5 2 = - > : 2 , 9 9 > ",
"                X       + < 3.o.0 4 0 0 r r y h e e e @.+.+.+.*.%.%.;.;.:.:.5.h.k.CXCXCXZXHXz.i 7 - = ; 5 > : > 9 9 9 9 ",
"                X     X X , 4.o.0 0 0 0 r y e u e h +.%.;.;.=.,.2.2.2.8.8.j.BXCXAXAXAXZXZXGXDXi - 6 - ; 9 8 > > 9 9 9 > ",
"                      X + a z i t r w u u u X.@.#.@.@.*.;.>.1.1.1.<.<.7.7.7.9.k.BXBX9.BX9.x.M.k - 9 9 - 5 > 9 9 9 : 9 9 ",
"                  X   X + l x i 4 4 , r t w y u @.#.@.@.*.*.=.=.;.=.=.>.-.-.5.5.7.7.6.6.4.w.M.U % > q 8 5 8 9 > > 9 > 9 ",
"                        # J Z x a a a t a 2 a s h h $.$.%.&.&.;.:.:.>.:.3.3.3.0.0.q._ (  .b.R.T.# * 9 8 5 9 6 : 9 > 9 > ",
"                        g ' N A J J A Z b b c G e.g.c.H.H.J.H.H.p.p.T F H Y Q | _.I.L.L.T.T.Q.gXc @ > q - 2 > : > 9 > 9 ",
"                      . A | M P Y H Y M m m B V B.A..X7X8X6X7XG.'.B.Q B V ^ V.R.,X!.W.W.Q.W.Q.xXe.# - 9 - > = > 9 > 9 > ",
"                . X X # a.E Y K ) R K Y n n Y Q C.F.<X<X1X5X8X X).V.Q E V W I.&X>X;X%X%XiX~.^.xXaX# 7 6 2 , 9 6 9 9 9 9 ",
"                      z n.E P u.u.) Y F n n Y B.C.S.<X5XK.4X6X.X).Z.} W V ! I.].;X>X:XpXhXiX^.gXbXD $ 6 = , q 6 9 q 9 9 ",
"                    + t.i.P ( y.r.` T F n n Y { C.F. X2XK.G.4X}.`.(.| ~ W ! P.].#X>XpXpXkXgXQ.gXmX}.@ 6 ; q q > 9 9 9 9 ",
"                    3 m.] ( _ y.r.` T F n F R { C.S. X1XK.G. X.X).).V.~ ! ~ P.I.oX,X:XpXkXkXfXiXnXvX3 ; 9 9 p 9 9 9 9 9 ",
"                X + A m._ _ r.r.u.R T F S F Y p.C.S.|.5X9XK. X{.).(.} ! W ! P.I.#X,X:XaXhXcXcX~.gXLX/ @ q 5 6 9 9 9 9 9 ",
"                  # i.| _ u.r.u.u.R G G S F R [ C.D.<X9X0X9X X}.).(.} W W ! P.I.R.#X>XjXjXcXcX$X/.mX@X@ 9 : 9 9 9 9 p 9 ",
"                  g n.| _ y.y._ ` R G F n S R p.s.).F.K.K.7X X}.`.).V.W W ! P.U.R.#X:XjXjXkXcX%X/.nXbXc & > > , 9 > 9 9 ",
"                X K _.| I y.y.i.` R G H S G R p.C.S.F.K.K.K. XXX}.'.(.} ! ^ P.P.L.#X:XjX:XhXjX%X^.lXLXp.o p 2 p 9 q 9 9 ",
"                # f.n.] i.t.r.r.R K G S n Y R [ A.A.|.1X X.X2X}.{.'.Z.B.~ ^ } Y.R.oX:XpXpXhXhXiX!.gXmX>X, : = 9 9 9 > 9 "
};
