/* XPM */
static char *AdvGirl_05_03_img[] = {
/* columns rows colors chars-per-pixel */
"103 25 36 1",
"  c #1F180E",
". c #1E1711",
"X c #1F1714",
"o c #1F1810",
"O c #1F1812",
"+ c #20190F",
"@ c #201911",
"# c #201913",
"$ c #211A10",
"% c #211A12",
"& c #221B11",
"* c #221B13",
"= c #201815",
"- c #211916",
"; c #211A14",
": c #221B15",
"> c #221A17",
", c #231C12",
"< c #231C14",
"1 c #231C16",
"2 c #241D15",
"3 c #241D17",
"4 c #251E16",
"5 c #261D16",
"6 c #261F17",
"7 c #271E17",
"8 c #231B18",
"9 c #251E18",
"0 c #261F19",
"q c #271F1C",
"w c #281F18",
"e c #272016",
"r c #272018",
"t c #282119",
"y c #28211B",
"u c #29221A",
/* pixels */
"        oOO:OO::::::::::::*** e e***************ee:e:e:e********2*2*2*2*2*2*2*2*22@2@2@2O:OOO:O:::oO..3",
"        o:O:O:O:::::::::::**e  ******************:***e**:*:**e**22222222*2*2*2*22*2*2@2@O:O:OOO:OOo:..3",
"       oOOOOOO::::::::::::**** e********e**e*e**:**::**:**:**::*222222222222222222****@2oO:O:O:O3OOO..3",
"ooooooooO::O:::O::::::::::** e  *********:**:**:**e***e*e**ee**e2626626222222222222@*@22:O:O:O:OXOo3X.y",
"oooooooo:OO::O::::::::::::**** e********:*e:e**ee*:e**:::::::::e626262626262626222*2*@22=:*:=:*=3Oo:Oor",
"@@@@@@ooOO::::::::::::::::***  e**e****e*****:**e::::ee:eeeeeee:2626262626262626622*222*:@O::@:*3:O:OOy",
"@=@=@=*::::O::::::::::::::*** e :**::***:ee::e*:e:eeee:ee:e::ee:62626262666666662222*2*2*:=:*==:XXX:OOr",
"=@=@=@oO:O:O::::::::::::::**** **e*e**e**e:*e:e::ee::ee:ere:ee:e2626262666666666262*2*22=*:@:*:@::O:OOr",
"OOO::OOO::::::::*o*o*************e*:e:ee***:::e*e::e:ee::ee:ee:e222262622626262662222*2*@2@2@@@*XXXqXXr",
"::OOOO::::::::::****************:**e:**::e:e:e:e:er:er:er:r::rr:2222262662626262222222*22@2@2**@qXXXXOy",
"OOOOO:OO::::::::* *****e:***e*:*e**e:ee:e:e*::e:rere:r:re:re:ee:22=2662626262626622222222@@2@@*@X3Or3Xu",
"::::O::O::::::::******:**ee*:****:*:e:*e:e:ee:e:e::e:ee::ee:er:e266626666262626626262222222@2@2@rXOr3Xu",
"::O:O:::::::::::*****:e**e**e**e*:*e:e*:ee:re:re::e:e:eer:er::e:262266662626666,626222222**2@***X*OeeOt",
"O:O:::O:::::::::***:e***:**:**:*e**:e:e:e:e::e:ereerr::ree::reer626666666666666666262622*22*2***:*.eO*t",
":O:::O:O::::::::*******::*e:e::e**ee*:ee::eere::e::e:ee::e:ee::e2666666w666666676622626222*22@**eO XOOr",
":::O:O::::::::::***e*:e:ee:e:*e:*:*::e*:ee:re:re:er:er:er:er:er:666666666666666766662622222**2**   e or",
"OOO:::::************:*e:::**e***2626262626262626rer:er:e967777777777777777,755557777777722226@,2,OOe Ot",
":OO::OO:**********e**ee::ee:e:e:6262626262626262rrrrrrrr66777777777777777755575577777777622266,2OeOOOOt",
"OO::::::**********e:*::e::e:::::2626262626262626reerr::r677777777777777777777777777777772622=62=eeO2eOt",
":::O::::*o***o***:**ee:*ee:reeee6262626262626262:rr:erre7777777777777777777777777777777762622222,X e  t",
":O:O::::**********:e:e*e:re:e::e2626262626266626rr:rrerr7777777777777777777777777777777722622222e,O,O t",
"::::::::********:e::e:e:e::e:ee:6666666666666666rere:r:r7777777777777777777777777777777766262622OeOeOet",
"O:::::3:**:**e*:e:e::ee:reerreee6666666666666666:errrr:e77777777777777777wwwwwww7777777766626262e2OteOu",
":::::3:3e:e*e::e*e::ee:e:e::e::e6666666666666666rr:rrerr7777777777777777wwwwwwww7777777666662622e2Oe Ou",
":::***:*e**:*e**:e:e:ee:e:ee::e:27777777777wwwwwwwwwwwwwwwwwwwwwwwwwwwwwwwwwwwww7777t7www6666222Oe2eOOu"
};
