/* XPM */
static char *AdvGirl_02_04_ctrl[] = {
/* columns rows colors chars-per-pixel */
"38 15 203 2",
"   c #050D00",
".  c #0D0700",
"X  c #0D0C02",
"o  c #0B0D08",
"O  c #041203",
"+  c #091102",
"@  c #0E1900",
"#  c #140603",
"$  c #140D04",
"%  c #160E0A",
"&  c #1A0E0D",
"*  c #1C0D10",
"=  c #141105",
"-  c #151209",
";  c #16180A",
":  c #191106",
">  c #1A130D",
",  c #181E02",
"<  c #1E180D",
"1  c #171111",
"2  c #121E14",
"3  c #131C1B",
"4  c #1C1510",
"5  c #1E1811",
"6  c #210D11",
"7  c #201B0E",
"8  c #20141D",
"9  c #221B12",
"0  c #2B151C",
"q  c #291C1B",
"w  c #3A0005",
"e  c #3F0712",
"r  c #261528",
"t  c #381F35",
"y  c #252113",
"u  c #2B2517",
"i  c #2B2418",
"p  c #2A2813",
"a  c #312B1B",
"s  c #273633",
"d  c #332D21",
"f  c #3D2521",
"g  c #3E242F",
"h  c #3E2B3E",
"j  c #373025",
"k  c #393226",
"l  c #3A352A",
"z  c #3E4233",
"x  c #3A4B43",
"c  c #3F494B",
"v  c #430A13",
"b  c #440F1B",
"n  c #481019",
"m  c #441423",
"M  c #43162B",
"N  c #441B2E",
"B  c #4A1522",
"V  c #4F1D26",
"C  c #481929",
"Z  c #421E33",
"A  c #442D27",
"S  c #422134",
"D  c #40243A",
"F  c #462E3E",
"G  c #4C2C39",
"H  c #403A2C",
"J  c #453F33",
"K  c #4A3C39",
"L  c #542A36",
"P  c #464031",
"I  c #4E4C3D",
"U  c #514B3D",
"Y  c #604439",
"T  c #7A433E",
"R  c #424C4D",
"E  c #4B5143",
"W  c #534E42",
"Q  c #594954",
"!  c #575143",
"~  c #585242",
"^  c #446665",
"/  c #6D604F",
"(  c #656153",
")  c #6A6552",
"_  c #716557",
"`  c #706B5C",
"'  c #647A78",
"]  c #766F69",
"[  c #796567",
"{  c #78636C",
"}  c #797461",
"|  c #7C7668",
" . c #7D7865",
".. c #457F83",
"X. c #498B7F",
"o. c #5A957D",
"O. c #7E8551",
"+. c #678C7A",
"@. c #688D7B",
"#. c #738472",
"$. c #71927F",
"%. c #7D9676",
"&. c #78967C",
"*. c #3F9497",
"=. c #4E8C87",
"-. c #469697",
";. c #42999C",
":. c #4C9091",
">. c #4E9199",
",. c #5A8F93",
"<. c #559189",
"1. c #519886",
"2. c #51998B",
"3. c #5B9682",
"4. c #5B978D",
"5. c #5F9A86",
"6. c #5B9B8C",
"7. c #569292",
"8. c #549599",
"9. c #559D93",
"0. c #539D9A",
"q. c #5F9295",
"w. c #5B9098",
"e. c #5B9C93",
"r. c #5C9A9B",
"t. c #529DA2",
"y. c #5BA094",
"u. c #4BA9AB",
"i. c #668E90",
"p. c #658C9B",
"a. c #629C84",
"s. c #6B9280",
"d. c #6C968B",
"f. c #639594",
"g. c #689693",
"h. c #779E9B",
"j. c #63A08C",
"k. c #60ABA6",
"l. c #77BEC2",
"z. c #8B5855",
"x. c #9D6D57",
"c. c #84676C",
"v. c #817C6C",
"b. c #8C736C",
"n. c #887770",
"m. c #956767",
"M. c #936C6F",
"N. c #868E5B",
"B. c #86816E",
"V. c #868072",
"C. c #889569",
"Z. c #849670",
"A. c #928076",
"S. c #968279",
"D. c #928C7E",
"F. c #95907D",
"G. c #AB815B",
"H. c #B08A5B",
"J. c #BE8655",
"K. c #A18378",
"L. c #A68C7D",
"P. c #B08370",
"I. c #B68C7C",
"U. c #B2927A",
"Y. c #BC9472",
"T. c #BB987C",
"R. c #C69263",
"E. c #C29D70",
"W. c #C19E7E",
"Q. c #C89870",
"!. c #C3A078",
"~. c #958F81",
"^. c #989284",
"/. c #9F9989",
"(. c #8FB4A3",
"). c #81B3B2",
"_. c #83BFBD",
"`. c #A28A88",
"'. c #AA8D87",
"]. c #AE9286",
"[. c #A09E91",
"{. c #B38F83",
"}. c #B39482",
"|. c #A5A696",
" X c #AAA494",
".X c #AEA898",
"XX c #B5AF9F",
"oX c #AEAFA1",
"OX c #B6B0A2",
"+X c #BAB4A4",
"@X c #86C7C1",
"#X c #A6DACE",
"$X c #C6B3AC",
"%X c #C3C1B5",
"&X c #C6C8BB",
"*X c #CDC7B9",
"=X c #C6D5B8",
"-X c #D0CABC",
";X c #D8D3CD",
":X c #E0DDD4",
">X c #E3DBD9",
",X c #E3E7D3",
"<X c #EDE8E2",
/* pixels */
"n b B B m M M M g 0 6 6 & : : ; > % : 7 4 9 4 : 4 1 1 4 9 4 $ 4 > 4 5 4 > 5 ",
"n v b m M N Z t 0 6 * & 4 : - ; 7 > > & % > > % % 4 9 : $ > 9 : > 4 4 4 5 4 ",
"v v b C N S D t * * & 1 & - - = o & 4 4 & - 1 & 4 % % 9 9 u l u 4 4 4 4 > 4 ",
"w v V L G F D r & > 1 - - - = - 9 4 & & & > > 1 $ 9 9 k ~ n.D.~ 9 5 > 4 5 4 ",
"T z.m.M.c.{ Q 8 % - - - > - - - 1 % % : 9 > : 4 a P / [.+X X| l 5 5 4 4 4 4 ",
"x.P.I.{.'.`.[ q $ : - - < - X % $ : : 7 : 7 k W  . XXXF.( P j 9 5 4 > 5 4 5 ",
"G.Q.W.W.}.].b.f $ ; : : > $ & i y 9 7 7 J ` ^.+X.Xv.U k i > > > 4 4 5 > > 5 ",
"H.Y.!.}.U.}.K.Y . : $ $ & > i K v. .) v. X+XD./ H u 9 > % > 1 4 > > 4 5 4 4 ",
"J.R.Q.Y.U.L.S.b.l 3 + , , p _ $X:X;X%X|.B.U d i > > > > > > > 4 > 5 5 4 4 4 ",
"O.N.C.Z.%.&.$.+.h.^ 3 $ A n.-X,X<X:X[.I y > % % > 4 > > 4 > > > 4 4 > 5 > 4 ",
"@.s.d.d.g.f.q.,.u.l.i.c ] *X,X=X&XoX( 7 = > 1 4 4 > 4 4 > 4 4 > 4 4 < 4 5 > ",
"<.<.e.e.r.8.8.8.>.8.@X#X(.#.` / E z y $ ; < 1 4 > 4 4 > 4 > 4 4 4 4 4 4 4 5 ",
"o.3.5.j.6.6.4.4.p.w.:.k.@Xh.c 8 O + ; < : : 9 * > 4 > 4 > 4 > 4 4 4 4 4 4 < ",
"6.6.6.9.9.9.0.0.0.-.;.;.*.t.0...x 2 X < : % 9 1 4 > 4 4 4 > > 4 < 4 4 4 4 > ",
"o.a.j.j.y.y.y.9.2.0.e.7.7.=.=.1.' s o > : : = < > > > > 4 > > > 4 4 5 > 4 4 "
};
