/* XPM */
static char *freeimage[] = {
/* width height num_colors chars_per_pixel */
"16 70 327 2",
/* colors */
"   c #0b0b0b",
" . c #0a0a0a",
" X c #0c0c0c",
" o c #040404",
" O c #030303",
" + c #050505",
" @ c #060606",
" # c #070707",
" $ c #040406",
" % c #040402",
" & c #060604",
" * c #050507",
" = c #050503",
" - c #060608",
" ; c #060702",
" : c #060701",
" > c #070802",
" , c #080903",
" < c #070705",
" 1 c #090a04",
" 2 c #070803",
" 3 c #080904",
" 4 c #050600",
" 5 c #0a0b05",
" 6 c #090803",
" 7 c #080702",
" 8 c #0a0702",
" 9 c #0c0703",
" 0 c #0d0804",
" q c #0b0803",
" w c #0e0905",
" e c #0a0904",
" r c #0c0904",
" t c #0f0705",
" y c #100708",
" u c #0a0809",
" i c #030907",
" p c #030802",
" a c #0f0400",
" s c #1a0100",
" d c #030905",
" f c #060803",
" g c #100501",
" h c #1d0100",
" j c #090901",
" k c #0f0704",
" l c #0f0607",
" z c #040905",
" x c #130600",
" c c #1f0100",
" v c #0a0907",
" b c #050a06",
" n c #170501",
" m c #220300",
" M c #090b00",
" N c #0d0802",
" B c #0b0706",
" V c #070904",
" C c #0c0902",
" Z c #1a0701",
" A c #270402",
" S c #080b00",
" D c #0b0704",
" F c #0e0903",
" G c #1e0602",
" H c #2b0502",
" J c #110a04",
" K c #200703",
" L c #2d0503",
" P c #080c00",
" I c #0c0900",
" U c #110a02",
" Y c #210803",
" T c #2f0604",
" R c #0e0906",
" E c #100b07",
" W c #0b0600",
" Q c #130c04",
" ! c #100300",
" ~ c #1c0800",
" ^ c #270a02",
" / c #2c0b02",
" ( c #0f0a07",
" ) c #0e0b06",
" _ c #0a0700",
" ` c #100c03",
" ' c #1e0700",
" ] c #2c0903",
" [ c #441913",
" { c #0e0a07",
" } c #070800",
" | c #0c0c02",
".  c #100600",
".. c #220700",
".X c #330704",
".o c #632d2b",
".O c #0f0b08",
".+ c #060900",
".@ c #0b0b01",
".# c #120800",
".$ c #250601",
".% c #380605",
".& c #793b3c",
".* c #0d0a05",
".= c #0d0c08",
".- c #080800",
".; c #0f0b02",
".: c #1b0a02",
".> c #280702",
"., c #360403",
".< c #0f0a06",
".1 c #0c0b07",
".2 c #0d0600",
".3 c #190a05",
".4 c #240b06",
".5 c #2b0804",
".6 c #300300",
".7 c #602d2a",
".8 c #0a0905",
".9 c #120a07",
".0 c #110200",
".q c #240a09",
".w c #2e0c0a",
".e c #2e0805",
".r c #290200",
".t c #401912",
".y c #140a08",
".u c #150000",
".i c #2c0a0b",
".p c #340c0c",
".a c #2f0906",
".s c #230200",
".d c #280c01",
".f c #0f0600",
".g c #090b0a",
".h c #050a0d",
".j c #040a0a",
".k c #070906",
".l c #0d0a03",
".z c #120c00",
".x c #150609",
".c c #200806",
".v c #2e0901",
".b c #3e0e02",
".n c #451507",
".m c #3a0f06",
".M c #0b0700",
".N c #080806",
".B c #0a0c0b",
".V c #110801",
".C c #120500",
".Z c #1c0400",
".A c #2b0c07",
".S c #3b1007",
".D c #431204",
".F c #441305",
".G c #340c04",
".H c #200300",
".J c #140000",
".K c #090804",
".L c #0c0805",
".P c #100805",
".I c #170803",
".U c #1c0801",
".Y c #1f0600",
".T c #2a0600",
".R c #3e1408",
".E c #4a190a",
".W c #481305",
".Q c #2f0801",
".! c #1c0201",
".~ c #120203",
".^ c #0f0802",
"./ c #160300",
".( c #1f0300",
".) c #2b0a03",
"._ c #330e06",
".` c #3d0c00",
".' c #4e1907",
".] c #521a09",
".[ c #440f01",
".{ c #370800",
".} c #290600",
".| c #190403",
"X  c #130407",
"X. c #0f0601",
"XX c #130400",
"Xo c #1b0400",
"XO c #250700",
"X+ c #300a01",
"X@ c #370c05",
"X# c #3b0e08",
"X$ c #4c1300",
"X% c #531a07",
"X& c #4d1305",
"X* c #3b0700",
"X= c #2f0400",
"X- c #250603",
"X; c #1a0607",
"X: c #130709",
"X> c #120606",
"X, c #150301",
"X< c #1c0300",
"X1 c #2b0900",
"X2 c #391105",
"X3 c #421407",
"X4 c #3e0e04",
"X5 c #380800",
"X6 c #4d1403",
"X7 c #4d1506",
"X8 c #410b01",
"X9 c #310000",
"X0 c #290100",
"Xq c #220605",
"Xw c #190707",
"Xe c #140808",
"Xr c #190306",
"Xt c #1f0504",
"Xy c #2d0a04",
"Xu c #3b1105",
"Xi c #441406",
"Xp c #451405",
"Xa c #3f0f01",
"Xs c #390900",
"Xd c #420c02",
"Xf c #410c04",
"Xg c #370601",
"Xh c #2c0000",
"Xj c #260403",
"Xk c #1e0405",
"Xl c #170505",
"Xz c #160807",
"Xx c #1b0005",
"Xc c #29090a",
"Xv c #3c130d",
"Xb c #451509",
"Xn c #441100",
"Xm c #400d00",
"XM c #3e0f00",
"XN c #401203",
"XB c #370500",
"XV c #380703",
"XC c #310303",
"XZ c #2b0304",
"XA c #250508",
"XS c #1c0306",
"XD c #150303",
"XF c #160805",
"XG c #280700",
"XH c #351008",
"XJ c #3a120a",
"XK c #360a01",
"XL c #340500",
"XP c #360a00",
"XI c #320800",
"XU c #330603",
"XY c #2e0201",
"XT c #280000",
"XR c #220301",
"XE c #1b0603",
"XW c #160b07",
"XQ c #150e08",
"X! c #260702",
"X~ c #300d07",
"X^ c #370e0a",
"X/ c #370703",
"X( c #370400",
"X) c #390700",
"X_ c #3b0900",
"X` c #320603",
"X' c #310504",
"X] c #2c0301",
"X[ c #260301",
"X{ c #200401",
"X} c #1a0703",
"X| c #140b06",
"o  c #110e07",
"o. c #1b0300",
"oX c #220501",
"oo c #2a0403",
"oO c #2e0000",
"o+ c #320000",
"o@ c #360000",
"o# c #390200",
"o$ c #3b0401",
"o% c #2e0702",
"o& c #2c0603",
"o* c #290602",
"o= c #240502",
"o- c #160903",
"o; c #100b05",
"o: c #0c0d05",
"o> c #120904",
"o, c #160702",
"o< c #1e0604",
"o1 c #270504",
"o2 c #2d0304",
"o3 c #360604",
"o4 c #3a0807",
"o5 c #280500",
"o6 c #270400",
"o7 c #260500",
"o8 c #210501",
"o9 c #1b0601",
"o0 c #140903",
"oq c #0c0c04",
"ow c #0a0d04",
"oe c #070a01",
"or c #0b0801",
"ot c #140701",
"oy c #300b05",
"ou c #240300",
"oi c #210200",
"op c #190600",
"oa c #120902",
"os c #080e04",
"od c #050500",
"of c #140500",
"og c #190200",
"oh c #1d0000",
"oj c #200200",
"ok c #250200",
"ol c #1f0200",
"oz c #190400",
"ox c #130802",
"oc c #0e0b04",
"ov c #0b0e05",
/* pixels */
"                 . . .         X",
" o o o o o o o o O O O O o o o o",
" O O O O O O O O O O O o o o o +",
" + + + + + + + + @ @ @ # # # # #",
" O O O O O O O O o o o o + + + +",
" O O O O O O O O o o o o o + + +",
" @ @ @ @ @ @ @ @ @ @ @ # # # # #",
" + + + + + + + + + + + + @ @ @ @",
" $ $ $ o o % % % & & & & & & & &",
" $ $ $ o o % % % & & & & & & & &",
" * * * + + = = = & & & & & & & &",
" - - - @ @ & & & & & & & & & & &",
" - - - @ @ & & & ; ; ; ; ; ; ; ;",
" - - - @ @ & & & ; ; ; ; ; ; ; ;",
" * * * + + = = = : : : : : : : :",
" * * * + + = = = : : : : : : : :",
" & & & & & & = = : : > > > > > >",
" & & & & & & & & : : : > > > > >",
" & & & & & & & & : : : > > , , ,",
" & & & & & < < < : : : > > , , 1",
" ; ; ; ; 2 2 2 3 : > > > , , , ,",
" ; ; ; 2 2 3 3 3 , , , , , , > >",
" 4 : : > > , 1 1 1 1 1 , , > > :",
" 4 : : > , , 1 1 5 5 1 , > > : :",
" > > > > > , , , 6 6 6 6 6 6 6 6",
" > > > > > , , , 6 6 6 6 6 6 6 6",
" > > > > > , , , 6 6 6 6 6 6 6 6",
" > > > > > , , , 6 6 6 6 6 6 6 6",
" > > > > > , , , 6 6 6 6 6 6 6 6",
" > > > > > , , , 6 6 6 6 6 6 6 6",
" > > > > > , , , 6 6 6 6 6 6 6 6",
" > > > > > , , , 6 6 6 6 6 6 6 6",
" 7 7 7 7 7 7 7 7 7 7 7 8 8 8 9 0",
" 7 7 7 7 7 7 7 7 6 7 7 8 8 q 0 0",
" 7 7 7 7 7 7 7 7 6 6 6 8 q q 0 w",
" 7 7 7 7 7 7 7 7 e 6 6 q q r w w",
" 7 7 7 7 7 7 7 7 e 6 6 q q r w w",
" 7 7 7 7 7 7 7 7 6 6 6 8 q q 0 w",
" 7 7 7 7 7 7 7 7 6 7 7 8 8 q 0 0",
" 7 7 7 7 7 7 7 7 7 7 7 8 8 8 9 0",
" 7 7 6 6 6 6 e e q t y u i p a s",
" 7 7 6 6 6 6 e e q t y u d f g h",
" 7 7 6 6 6 6 e e j k l u z > x c",
" 7 7 6 6 6 6 e e j 0 t v b 6 n m",
" 7 7 6 6 6 6 e e M N t B V C Z A",
" 7 7 6 6 6 6 e e S C k D 3 F G H",
" 7 7 6 6 6 6 e e S C k D , J K L",
" 7 7 6 6 6 6 e e P I k D e U Y T",
" 7 7 7 q q r 0 0 R E W Q ! ~ ^ /",
" 7 7 7 q q r 0 w ( ) _ ` ! ' ] [",
" 7 7 6 q r r w w { 6 } |. ...X.o",
" 7 7 6 q r r w w.O >.+.@.#.$.%.&",
" 7 6 6 r r.* w w.= 7.-.;.:.>.,.&",
" 6 6 6 r r.* w.<.1 r.2.3.4.5.6.7",
" 6 6 e r.*.*.<.<.8.9.0.q.w.e.r.t",
" 6 6 e r.*.*.<.<.8.y.u.i.p.a.s.d",
".f r.g.h.j.k.l.z.x.c.v.b.n.m m.u",
".M 8.N.g.B.O.V.C.Z.A.S.D.F.G.H.J",
".- 6.K.L.P.I.U.Y.T.R.E.W.b.Q.!.~",
" j C.^.C./.(.)._.`.'.].[.{.}.|X ",
" 0X.XXXoXOX+X@X#X$X%X&X*X=X-X;X:",
"X>X,X<X1X2X3X4X5X6X7X8X9X0XqXwXe",
"XrXtXyXuXiXpXaXsXdXfXgXhXjXkXlXz",
"XxXcXvXbXnXmXMXNXBXVXCXZXAXSXDXF",
"XGXHXJXKXL.{XPXIXUXCXYXTXRXEXWXQ",
"X!X~X^X/X(X)X_XsX`X'X]X[X{X}X|o ",
"o.oXoooOo+o@o#o$o%o&o*o= Go-o;o:",
"o>o,o<o1o2XCo3o4o5o6o7o8o9o0oqow",
"oeoroto9oXo6o&oyou.soi.(opoaoqos",
"od.2ofogohojouo7okok.solozoxocov"
};
