/* XPM */
static char *freeimage[] = {
/* width height num_colors chars_per_pixel */
"32 14 192 2",
/* colors */
"   c #090601",
" . c #070400",
" X c #060300",
" o c #080500",
" O c #070508",
" + c #060407",
" @ c #080405",
" # c #080403",
" $ c #090303",
" % c #030406",
" & c #030504",
" * c #040605",
" = c #050704",
" - c #050702",
" ; c #09060d",
" : c #08050c",
" > c #07040b",
" , c #05040c",
" < c #05050d",
" 1 c #070711",
" 2 c #080812",
" 3 c #010506",
" 4 c #020607",
" 5 c #030708",
" 6 c #000405",
" 7 c #000302",
" 8 c #000400",
" 9 c #010300",
" 0 c #000200",
" q c #000100",
" w c #070300",
" e c #060200",
" r c #050100",
" t c #030000",
" y c #040100",
" u c #0a0300",
" i c #070200",
" p c #060100",
" a c #040000",
" s c #000002",
" d c #000103",
" f c #050608",
" g c #080a00",
" h c #0c0c02",
" j c #121208",
" k c #1a1a0e",
" l c #232115",
" z c #29271a",
" x c #2f2b1f",
" c c #312d21",
" v c #3a291f",
" b c #3c2c1f",
" n c #403023",
" m c #463629",
" M c #4d3d2e",
" N c #554536",
" B c #5c4c3c",
" V c #605040",
" C c #66543e",
" Z c #65533d",
" A c #614f39",
" S c #5a4935",
" D c #52412d",
" F c #483926",
" G c #40311e",
" H c #3b2c19",
" J c #6e5d53",
" K c #746359",
" L c #76655b",
" P c #75645a",
" I c #7d6c62",
" U c #89786e",
" Y c #8d7c72",
" T c #8a796f",
" R c #9d8875",
" E c #a08b78",
" W c #a6917e",
" Q c #ad9782",
" ! c #b39d88",
" ~ c #baa18b",
" ^ c #bca38d",
" / c #bea58f",
" ( c #b7957c",
" ) c #b8967d",
" _ c #b9977e",
" ` c #ba987d",
" ' c #bd9b80",
" ] c #c09e82",
" [ c #c3a185",
" { c #c4a286",
" } c #c8a484",
" | c #c9a487",
".  c #c8a587",
".. c #c5a286",
".X c #c19f83",
".o c #bb997e",
".O c #cea98f",
".+ c #d1ac92",
".@ c #c8a389",
".# c #caa58b",
".$ c #d3ae94",
".% c #d5b096",
".& c #cea18a",
".* c #cfa28b",
".= c #cfa38a",
".- c #cfa189",
".; c #cd9f85",
".: c #cb9c82",
".> c #c99a80",
"., c #c7987c",
".< c #c89a79",
".1 c #c99b7a",
".2 c #c99b79",
".3 c #c89a76",
".4 c #c79975",
".5 c #c69874",
".6 c #c99377",
".7 c #c89578",
".8 c #c99679",
".9 c #c9967b",
".0 c #c8967b",
".q c #c8967d",
".w c #c5967c",
".e c #ac8065",
".r c #ab7f64",
".t c #a5795e",
".y c #9d7156",
".u c #9c7055",
".i c #a07459",
".p c #9a6b59",
".a c #996a58",
".s c #9a6a56",
".d c #996955",
".f c #996651",
".g c #97644f",
".h c #94624b",
".j c #94604a",
".k c #92664b",
".l c #94684d",
".z c #966a4f",
".x c #986c4f",
".c c #996d50",
".v c #986d4d",
".b c #976c4c",
".n c #986957",
".m c #976856",
".M c #966858",
".N c #976959",
".B c #472c21",
".V c #43281d",
".C c #3d2217",
".Z c #371c11",
".A c #33180d",
".S c #31160b",
".D c #2e1308",
".F c #2c1106",
".G c #30150e",
".H c #30130b",
".J c #301208",
".K c #2f1107",
".L c #2f1409",
".P c #34190e",
".I c #381e11",
".U c #3b2114",
".Y c #3d2314",
".T c #3e2415",
".R c #3f2516",
".E c #44261c",
".W c #42261b",
".Q c #40231b",
".! c #3d2219",
".~ c #3c211a",
".^ c #3b2019",
"./ c #381f18",
".( c #070007",
".) c #050005",
"._ c #040004",
".` c #060006",
".' c #010002",
".] c #050000",
".[ c #060000",
".{ c #090003",
".} c #080000",
".| c #0a0000",
"X  c #0a0100",
"X. c #090000",
"XX c #070000",
"Xo c #060701",
"XO c #070802",
"X+ c #070803",
"X@ c #080703",
"X# c #0a0603",
/* pixels */
"   . X o     o o O O + @ @ # $ $ % & * * = = - - ; : > , , < 1 2",
" 3 3 3 3 4 5 4 6 7 7 8 9 0 q q q w e r t t t y y u u i i p a t t",
" s d d s d f f d g h j k l z x c v b n m M N B V C Z A S D F G H",
" J K L P I U Y T R E W Q ! ~ ^ / ( ) _ ` ' ] [ { } | |. ...X '.o",
".O.+.O.@.#.$.%.+.&.*.=.-.;.:.>.,.<.1.1.2.2.3.4.5.6.7.8.9.0.q.w.w",
".e.r.t.y.u.i.i.u.p.a.s.d.f.g.h.j.k.l.z.x.c.v.b.b.s.d.d.n.m.M.M.N",
".B.V.C.Z.A.S.D.F.G.G.G.H.H.J.J.K.L.S.P.I.U.Y.T.R.E.E.W.Q.!.~.^./",
".(.)._.).`.)._._.'.' t t a.].[ i.{.{.{.}.}.}.}.}.|.|.|X X..}XX.[",
"XoXoXoXoXoXoXoXoXoXoXoXoXoXoXoXoXoXoXoXoXOXOXOXOX+X+X+X@X@X#X#X#",
"XoXoXoXoXoXoXoXoXoXoXoXoXoXoXoXoXoXoXoXoXOXOXOXOX+X+X+X@X@X#X#X#",
"XoXoXoXoXoXoXoXoXoXoXoXoXoXoXoXoXoXoXoXoXOXOXOXOX+X+X+X@X@X#X#X#",
"XoXoXoXoXoXoXoXoXoXoXoXoXoXoXoXoXoXoXoXoXOXOXOXOX+X+X+X@X@X#X#X#",
"XoXoXoXoXoXoXoXoXoXoXoXoXoXoXoXoXoXoXoXoXOXOXOXOX+X+X+X@X@X#X#X#",
"XoXoXoXoXoXoXoXoXoXoXoXoXoXoXoXoXoXoXoXoXOXOXOXOX+X+X+X@X@X#X#X#"
};
