/* XPM */
static char *freeimage[] = {
/* width height num_colors chars_per_pixel */
"45 15 162 2",
/* colors */
"   c #1e1711",
" . c #1d1610",
" X c #1c150f",
" o c #1b140e",
" O c #1a130d",
" + c #130f06",
" @ c #1d1910",
" # c #17130a",
" $ c #161209",
" % c #1e1a11",
" & c #110d04",
" * c #1b1610",
" = c #15100a",
" - c #17120c",
" ; c #120d09",
" : c #140f0b",
" > c #1a1512",
" , c #140f0c",
" < c #17120f",
" 1 c #15100d",
" 2 c #130e08",
" 3 c #120e05",
" 4 c #110c06",
" 5 c #120d07",
" 6 c #0f0a04",
" 7 c #1a150f",
" 8 c #1f1812",
" 9 c #221e15",
" 0 c #18140b",
" q c #242017",
" w c #151108",
" e c #1a160d",
" r c #1c1711",
" t c #19140e",
" y c #16110b",
" u c #1a1511",
" i c #1b1612",
" p c #15100c",
" a c #140f09",
" s c #100b05",
" d c #18130d",
" f c #18130f",
" g c #16110d",
" h c #0f0a07",
" j c #16110e",
" k c #19120c",
" l c #1d1812",
" z c #0e0903",
" x c #211c16",
" c c #0c0701",
" v c #1e1913",
" b c #100b07",
" n c #1d1814",
" m c #141007",
" M c #17100a",
" N c #544f4b",
" B c #3e3935",
" V c #130e0a",
" C c #201b17",
" Z c #595450",
" A c #2e2925",
" S c #0e0905",
" D c #221d19",
" F c #454136",
" G c #0f0b00",
" H c #0f0b02",
" J c #1b170e",
" K c #201913",
" L c #160f09",
" P c #86817d",
" I c #736e6a",
" U c #0c0703",
" Y c #1f1a16",
" T c #8f8a86",
" R c #36312d",
" E c #8d8884",
" W c #837f74",
" Q c #2c281d",
" ! c #151106",
" ~ c #100c03",
" ^ c #17120e",
" / c #150e08",
" ( c #8a8582",
" ) c #625d5a",
" _ c #110c09",
" ` c #191411",
" ' c #635e5b",
" ] c #4f4a47",
" [ c #7a7572",
" { c #96918e",
" } c #201c10",
" | c #0b0700",
".  c #1b170c",
".. c #1f1b10",
".X c #19150c",
".o c #181310",
".O c #18110b",
".+ c #140d07",
".@ c #928d8a",
".# c #605b58",
".$ c #130e0b",
".% c #726d6a",
".& c #b1aca9",
".* c #b2adaa",
".= c #040000",
".- c #130f03",
".; c #1a160a",
".: c #1c180d",
".> c #161207",
"., c #968e8c",
".< c #6a6260",
".1 c #100806",
".2 c #1a1210",
".3 c #8c8482",
".4 c #7e7674",
".5 c #c2bab8",
".6 c #5b5351",
".7 c #231c16",
".8 c #110a04",
".9 c #938b89",
".0 c #6c6462",
".q c #140c0a",
".w c #aaa2a0",
".e c #3c3432",
".r c #574f4d",
".t c #cec6c4",
".y c #635c56",
".u c #120b05",
".i c #241d17",
".p c #bdb5b2",
".a c #69615e",
".s c #110906",
".d c #261e1b",
".f c #c3bbb8",
".g c #48403d",
".h c #060000",
".j c #5b5350",
".k c #c5beb8",
".l c #463f39",
".z c #130c06",
".x c #504845",
".c c #312926",
".v c #1a120f",
".b c #1f1714",
".n c #534b48",
".m c #2f2724",
".M c #18100d",
".N c #170f0c",
".B c #3b342e",
".V c #211a14",
".C c #0f0802",
".Z c #0e0701",
".A c #221b15",
".S c #27201a",
".D c #1a130b",
".F c #19120a",
".G c #201911",
".H c #1d160e",
".J c #251e16",
".K c #0a0300",
".L c #261f17",
".P c #171008",
/* pixels */
"     . . X X . . . . X o o O o o + @ # $ $ % & $ * = - ; : > , < 1 1 : : 2 2 3 3 2 4 5 6 7",
" 8   . . X X . . . . X o o o o o 9 & 0 q w # # e & r t y u i > < 1 1 p : a 2 + 3 2 4 2 s 7",
" 8   . . . . . . . . X X o o O O a t 7 = d 7 a r & @ 5 2 f g f h j 1 p : a 2 + + 2 4 2 s 7",
" 8     . . . .     . X X X o O k y 2 l 2 z 7 x c 0 w 0 v y b f n j j g p a a m + a 5 2 s 7",
" 8 8   . . .       . X X . X k M N B V C Z A S D F G H J t 7 2 p < j g g = a m m a 5 2 s *",
" K 8     . .     8 . X X . X k L P I U Y T R i E W Q ! ~ & l a t < < ^ g y = w m a 5 a 4 *",
" K 8             8 . X X   . k / ( ) _ ` ' ] [ { } |. ...X.X 6 y.o < ^ g y = w w a 5 a 4 *",
" K 8 8           8 . X .   ..O.+.@.# ,.$.%.&.*.=.-.;.:.> # e # t.o.o ^ ^ y y w w a 5 a 4 *",
" 8 8 8 8 8 8 8 8 8 K K   .   o M.,.<.1.2.3.4.5.6.+.+.7 M.8 K o o d - - y = = a a = 2 a 4 *",
" 8 8 8 8 8 8 8 8   K K       O.+.9.0.q.2.w.e.r.t.y.O.u.i O O k M - - y y y = = = = 2 = 5 r",
" K K K K K K K K . 8 K 8 8   k.+.p.a.s.d.f.g.h.j.k.l.z . k O . o y y y y y y y y y a = 5 l",
" K K K K K K K K . 8 K 8 8 K X M.x.c.v.b.n.m.M.N.B k.z O . . M.O = = y y y y y y y a y 2 l",
" K K K K K K K K   K 8   8.V K ..8  .7  .C o ..O.Z ..7 M / k L o = = y y y y y y - = y 2 l",
" K K K K K K K K 8 K 8 .  .A.A 8.S X.O O k.A.O K K o k.O k   . k y y y y y y y y - = y 2 l",
" 8 8 8 8 8 8 8 8 8 K 8 .   K 8 o.D.F.G.H.J.K.L.P k L o.V k.+ k O - - y y y = = = y a y 2 l"
};
