/* XPM */
static char *freeimage[] = {
/* width height num_colors chars_per_pixel */
"103 25 36 1",
/* colors */
"  c #1f180e",
". c #1f1812",
"X c #201913",
"o c #211a14",
"O c #221b15",
"+ c #221b13",
"@ c #221b11",
"# c #241d15",
"$ c #231c14",
"% c #1e1711",
"& c #251e18",
"* c #1f1810",
"= c #251e16",
"- c #261f19",
"; c #201911",
": c #261f17",
"> c #211a12",
", c #211916",
"< c #1f1714",
"1 c #231b18",
"2 c #201815",
"3 c #271f1c",
"4 c #221a17",
"5 c #241d17",
"6 c #28211b",
"7 c #282119",
"8 c #272018",
"9 c #211a10",
"0 c #231c12",
"q c #20190f",
"w c #272016",
"e c #271e17",
"r c #261d16",
"t c #231c16",
"y c #281f18",
"u c #29221a",
/* pixels */
"        ..XXXXooOOOOOOOOOO+++@@@++++++++++++++++########++++++++$$$$$$$$$$$$$$$$#$++++++XXXXXXXXoX%o%%&",
"        .XXXXoooOOOOOOOOOO+++@@@++++++++++++++++$$$$$$$$$$$$$$$$########$$$$$$$$#$$+++++XXXXXXXXoX%o%%&",
"        XXXXXoooOOOOOOOOOO+++@@@++++++++$$$$$$$$$$$$$$$$$$$$$$$$#################$$++++$XXXXXXXXoX%o%%&",
"********XXXXooooOOOOOOOOOO+++@@@++++++++$$$$$$$$$$$$$$$$$$$$$$$$========##########$+++$$ooooooooOo%O.%-",
"********XXXooooOOOOOOOOOOO+++@@@++++++++$$$$$$$$$$$$$$$$########================##$$++$$ooooooooOo%O.%-",
";;;;;;;;XooooOOOOOOOOOOOOO+++@@@$$$$$$$$$$$$$$$$########=========================##$$$$$ooooooooOo.O..-",
"XXXXXXXXoooooOOOOOOOOOOOOO+++@@@$$$$$$$$########========================::::::::=##$$$$#ooooooooOo.O..-",
"XXXXXXXXooooOOOOOOOOOOOOOO+++@@@$$$$$$$$########========================::::::::==#$$$$#ooooooooOo.O..-",
"XXXXXXXXOOOOOOOO>>>>++++++++++++$$$#####$$$$$$$$================####=============####$$$++++>>>>,,<1223",
"XXXXXXXXOOOOOOOO>>>+++++++++++++$$$#############================###==============#####$$+++++>>>4,<1,23",
"XXXXXXXXOOOOOOOO>>>++++$$$$$$$$$$$$#############================###====:==========#####$$++++>>>OOX5oo6",
"ooooooooOOOOOOOO>++++$$$$$$$$$$$$$$#####========================#====:::============####$$$++++>OOX5Oo6",
"ooooooooOOOOOOOO++++$$$$$$$$$$$$$$$#####============================::::============####$$$$++++++;#+>7",
"ooooooooOOOOOOOO+++$$$$$$$$$$$$$$$$#####===========================::::::::::::::=====##$$$$$+++++;#>>7",
"ooooooooOOOOOOOO+++$$$$#########$$$#####===========================::::8::::::::::=====##$$$$++++>*$>;8",
"ooooooooOOOOOOOO++$$$$##########$$$#####==========================::::88:::::::::::====###$$$$++99 0qqw",
"XXXooooO++++++++++$$$$##$$$$$$$$================::::::::eeeeeeeeeeeeeeeerrrrrrrreeeeeeee=####$$$$+;$;;8",
"XXoooooO+++++++++$$$$###########================::::::::eeeeeeeeeeeeeeeerrrrrrrreeeeeeee=#####$$$+;$;;8",
"XoooooOO++++++++$$$$$###########================::::::::eeeeeeeeeeeeeeeeeeeeeeeeeeeeeeee==#####$$$;#>;7",
"ooooOOOO>>>>>>>>$$$$####========================::::::::eeeeeeeeeeeeeeeeeeeeeeeeeeeeeeee====#####$;#>;7",
"ooooOOOO++++++++$$$####=========================::::::::eeeeeeeeeeeeeeeeeeeeeeeeeeeeeeee====#####$>#>>7",
"ooOOOOOt++++++++$####===========::::::::::::::::::::::::eeeeeeeeeeeeeeeeeeeeeeeeeeeeeeee:=====###$>#>>7",
"oOOOOOtt$$$$$$$$#####===========::::::::::::::::::::::::eeeeeeeeeeeeeeeeyyyyyyyyeeeeeeee::=====###>=+>u",
"oOOOOttt############============::::::::::::::::::::::::eeeeeeeeeeeeeeeeyyyyyyyyeeeeeeee:::====#=#>=+>u",
"$$++++$$$$$$$$$$####========####eeeeeeeeeeeyyyyyyyyyyyyyyyyyyyyyyyyyyyyyyyyyyyyyyyyyyyyy8:::=###+=#=>+u"
};
