/* XPM */
static char *freeimage[] = {
/* width height num_colors chars_per_pixel */
"42 14 353 2",
/* colors */
"   c #0d0d0b",
" . c #060604",
" X c #050503",
" o c #080806",
" O c #040402",
" + c #060606",
" @ c #060503",
" # c #070506",
" $ c #08060b",
" % c #07060c",
" & c #05060a",
" * c #050608",
" = c #030802",
" - c #030801",
" ; c #030c09",
" : c #050b07",
" > c #010600",
" , c #050801",
" < c #0b0b01",
" 1 c #080600",
" 2 c #070300",
" 3 c #0e0800",
" 4 c #070700",
" 5 c #050505",
" 6 c #060608",
" 7 c #070707",
" 8 c #080705",
" 9 c #060501",
" 0 c #0c0308",
" q c #0d0409",
" w c #07050a",
" e c #05040a",
" r c #030207",
" t c #020403",
" y c #040601",
" u c #060902",
" i c #000100",
" p c #080903",
" a c #0b0c06",
" s c #080904",
" d c #030500",
" f c #000200",
" g c #000400",
" h c #020703",
" j c #010300",
" k c #050908",
" l c #040a08",
" z c #020806",
" x c #060a09",
" c c #060807",
" v c #030301",
" b c #020305",
" n c #080607",
" m c #09090b",
" M c #09080d",
" N c #07060b",
" B c #050601",
" V c #060700",
" C c #100b05",
" Z c #080300",
" A c #030000",
" S c #000000",
" D c #010506",
" F c #060b0e",
" G c #030a10",
" H c #00080d",
" J c #0a080b",
" K c #070602",
" L c #000300",
" P c #090a05",
" I c #070709",
" U c #08070c",
" Y c #080609",
" T c #050304",
" R c #040300",
" E c #040400",
" W c #0c0807",
" Q c #050100",
" ! c #0a0605",
" ~ c #0a0809",
" ^ c #040203",
" / c #010000",
" ( c #000002",
" ) c #050507",
" _ c #20130d",
" ` c #30271e",
" ' c #484637",
" ] c #4e513c",
" [ c #5e614c",
" { c #6e6d5b",
" } c #655d50",
" | c #65584f",
".  c #665a4a",
".. c #645848",
".X c #0d0e09",
".o c #060702",
".O c #040500",
".+ c #070904",
".@ c #030303",
".# c #0b090c",
".$ c #0d0804",
".% c #0f0a04",
".& c #050000",
".* c #0c0200",
".= c #251810",
".- c #534238",
".; c #7f6c5e",
".: c #a58f82",
".> c #cdb19c",
"., c #ead4bd",
".< c #f8eacf",
".1 c #f1eacd",
".2 c #fff9dd",
".3 c #fdeed7",
".4 c #d8c1af",
".5 c #c9ac9c",
".6 c #d1ad97",
".7 c #ceaa94",
".8 c #020401",
".9 c #09070a",
".0 c #080405",
".q c #040000",
".w c #060000",
".e c #251c15",
".r c #5c4e45",
".t c #857263",
".y c #b59a87",
".u c #dcbca5",
".i c #e4bfa4",
".p c #efc8ab",
".a c #f5d3ae",
".s c #fde3c2",
".d c #fdecce",
".f c #fffde4",
".g c #fff9e5",
".h c #d1beaf",
".j c #a78a7c",
".k c #af897c",
".l c #b88977",
".z c #b58674",
".x c #0d0e08",
".c c #060701",
".v c #050600",
".b c #040902",
".n c #050702",
".m c #160d08",
".M c #2b201a",
".N c #79604a",
".B c #9b816a",
".V c #c5a78f",
".C c #ceac91",
".Z c #cfab8b",
".A c #c79f7c",
".S c #b98d68",
".D c #cda079",
".F c #eacda1",
".G c #f6e2bf",
".H c #fdf2dc",
".J c #fffef5",
".K c #cfc9c9",
".L c #766868",
".P c #583e3f",
".I c #694644",
".U c #5c3b34",
".Y c #57362f",
".T c #0f090b",
".R c #302826",
".E c #6a5f5b",
".W c #9b908a",
".Q c #c79f7b",
".! c #c09874",
".~ c #c09572",
".^ c #b48a64",
"./ c #ac825c",
".( c #976b44",
".) c #8f633c",
"._ c #bd916a",
".` c #e7d2a3",
".' c #fffbd9",
".] c #faf8e9",
".[ c #bdc0c5",
".{ c #565867",
".} c #100919",
".| c #180410",
"X  c #21030d",
"X. c #0f0101",
"XX c #0a0000",
"Xo c #090500",
"XO c #0d0600",
"X+ c #0e0403",
"X@ c #0e0204",
"X# c #0c0004",
"X$ c #020607",
"X% c #010002",
"X& c #412929",
"X* c #805f58",
"X= c #b48f7c",
"X- c #c39c7d",
"X; c #b48e67",
"X: c #a5886a",
"X> c #8a6956",
"X, c #7d5a56",
"X< c #6e464e",
"X1 c #562d35",
"X2 c #421915",
"X3 c #704733",
"X4 c #dcb594",
"X5 c #faf4d2",
"X6 c #e1daca",
"X7 c #989294",
"X8 c #322f38",
"X9 c #020005",
"X0 c #0a0404",
"Xq c #080004",
"Xw c #070601",
"Xe c #030200",
"Xr c #020100",
"Xt c #060405",
"Xy c #070004",
"Xu c #2b1d1a",
"Xi c #695647",
"Xp c #a2886d",
"Xa c #b79677",
"Xs c #a37f65",
"Xd c #896251",
"Xf c #7e564c",
"Xg c #58312c",
"Xh c #461e1e",
"Xj c #3f161c",
"Xk c #3c131b",
"Xl c #250000",
"Xz c #522c23",
"Xx c #c49e89",
"Xc c #f8d3b6",
"Xv c #beb89e",
"Xb c #544e42",
"Xn c #0c070b",
"Xm c #000005",
"XM c #050704",
"XN c #090502",
"XB c #0b0509",
"XV c #0a090e",
"XC c #010005",
"XZ c #020204",
"XA c #0c0c0c",
"XS c #070906",
"XD c #0b0e07",
"XF c #5e433c",
"XG c #997c6e",
"XH c #ba9a81",
"XJ c #a68365",
"XK c #815c41",
"XL c #5d3826",
"XP c #401b15",
"XI c #300c10",
"XU c #390c23",
"XY c #42172a",
"XT c #350b17",
"XR c #240000",
"XE c #45241d",
"XW c #b09385",
"XQ c #eacdbd",
"X! c #aa8f7c",
"X~ c #282516",
"X^ c #050200",
"X/ c #0a0e0d",
"X( c #050b01",
"X) c #010700",
"X_ c #000306",
"X` c #040507",
"X' c #0a0a08",
"X] c #090601",
"X[ c #0b0100",
"X{ c #45392b",
"X} c #837568",
"X| c #c09b7e",
"o  c #b08771",
"o. c #8e6255",
"oX c #653835",
"oo c #43141a",
"oO c #30070d",
"o+ c #381819",
"o@ c #320b26",
"o# c #220011",
"o$ c #1d0004",
"o% c #462d26",
"o& c #b4a193",
"o* c #e4d4c7",
"o= c #80716a",
"o- c #160805",
"o; c #0d0a05",
"o: c #010206",
"o> c #000600",
"o, c #040f00",
"o< c #060f00",
"o1 c #010400",
"o2 c #08080a",
"o3 c #000800",
"o4 c #030300",
"o5 c #0d0300",
"o6 c #382517",
"o7 c #785d4c",
"o8 c #a48370",
"o9 c #b38e7b",
"o0 c #98725f",
"oq c #6a4034",
"ow c #471919",
"oe c #3b0c14",
"or c #360616",
"ot c #350a1b",
"oy c #350f1e",
"ou c #2b0917",
"oi c #220813",
"op c #110000",
"oa c #5e4b45",
"os c #cbbdb0",
"od c #dcd3c4",
"of c #766f67",
"og c #0e0808",
"oh c #070209",
"oj c #030102",
"ok c #06070b",
"ol c #000500",
"oz c #000b00",
"ox c #030600",
"oc c #061103",
"ov c #050300",
"ob c #2e2214",
"on c #786254",
"om c #b09081",
"oM c #a98472",
"oN c #855c4a",
"oB c #492b37",
"oV c #37171c",
"oC c #35120e",
"oZ c #361005",
"oA c #2f0700",
"oS c #391112",
"oD c #3c1323",
"oF c #270017",
"oG c #0f0000",
"oH c #321e13",
"oJ c #ac9a8e",
"oK c #fdece2",
"oL c #91827b",
"oP c #120401",
"oI c #080000",
"oU c #0d0103",
"oY c #120f00",
"oT c #040100",
"oR c #0b0b0d",
"oE c #090d0c",
"oW c #070508",
/* pixels */
"   . X o X O . X + + + + + + + + @ # $ % & * = - ; : > , < 1 2 3 4 4 X 5 6 7 8 9 0 q",
"   . X o X O . X + + + + + + + + @ # w e r t y u i p a s d f g h . j k l z x c v b b",
"   . X o X O . X + + + + + + + + @ n m M N 5 B V C Z A S D F G H J i f g g f i K L L",
"   . X o X O . X . . . . . . . . P 7 I U Y T R E W Q ! ~ ^ / ( ) _ ` ' ] [ { } |. ..",
".X.o B s B.O.o B . . . . . . . ..+ O.@ Y.# W.$.% ) /.&.*.=.-.;.:.>.,.<.1.2.3.4.5.6.7",
".X.o B s B.O.o B.o.o.o.o.o.o.o.o y.8 5.9.0.q.w.w.w.e.r.t.y.u.i.p.a.s.d.f.g.h.j.k.l.z",
".x.c.v p.v.O.c.v.o.o.o.o.o.o.o.o.b.n + T.q.w.m.M.N.B.V.C.Z.A.S.D.F.G.H.J.K.L.P.I.U.Y",
".x.c.v p.v.O.c.v.o.o.o.o.o.o.o.o - d v ^.T.R.E.W.Q.!.~.^./.(.)._.`.'.].[.{.}.|X X.XX",
".x.c.v p.v.O.c.v V V 1XoXOX+X@X#X$X%X@X&X*X=X-X;X:X>X,X<X1X2X3X4X5X6X7X8X9 @X0Xq . .",
".x.c.v p.v.O.c.v RXw KXeXr @ #XtXyXuXiXpXaXsXdXfXgXhXjXkXlXzXxXcXvXbXnXmXM pXNXB . .",
".x.c.v p.v.O.c.vXVXCXZXAXS i iXDXFXGXHXJXKXLXPXIXUXYXTXRXEXWXQX!X~X^XZX/X(X).O J . .",
".x.c.v p.v.O.c.vX_X`X'X].wX[X{X}X|o o.oXoooOXIo+o@o#o$o%o&o*o=o-o; ^o:o>o,o<o1o2 . .",
".x.c.v p.v.O.c.vo3 -o4o5o6o7o8o9o0oqowoeorotoyouoiopoaosodofogoh Aojokolozo<ox I . .",
".x.c.v p.v.O.c.voco>ovobonomoMoNoBoVoCoZoAoSoDoFoGoHoJoKoLoPoIoUoYoToRoE LX) poW . ."
};
