/* XPM */
static char *freeimage[] = {
/* width height num_colors chars_per_pixel */
"109 22 387 2",
/* colors */
"   c #5bbccd",
" . c #5fc0d1",
" X c #66c7d8",
" o c #67cbdb",
" O c #61c4d7",
" + c #54b9cb",
" @ c #4aafc3",
" # c #46abbf",
" $ c #4cb5bb",
" % c #5cced9",
" & c #68e0f1",
" * c #76efff",
" = c #78fbff",
" - c #82fef6",
" ; c #84d0c4",
" : c #263b36",
" > c #383023",
" , c #393124",
" < c #3b3326",
" 1 c #3b3424",
" 2 c #3a3323",
" 3 c #3a3321",
" 4 c #3b3422",
" 5 c #3c3324",
" 6 c #3a3122",
" 7 c #3c3226",
" 8 c #3b3125",
" 9 c #392f23",
" 0 c #372d21",
" q c #372d23",
" w c #362c22",
" e c #362c20",
" r c #352b1f",
" t c #342a1e",
" y c #31271b",
" u c #58b9c9",
" i c #5dbecf",
" p c #62c3d4",
" a c #62c6d6",
" s c #60c3d6",
" d c #58bdcf",
" f c #4db2c6",
" g c #45aabe",
" h c #46adb6",
" j c #54c4d2",
" k c #66dbef",
" l c #73ecff",
" z c #71f6ff",
" x c #80fffc",
" c c #90e3d9",
" v c #385752",
" b c #3a3225",
" n c #3c3525",
" m c #3d3327",
" M c #3a3024",
" N c #382e22",
" B c #382e24",
" V c #32281c",
" C c #56b6c6",
" Z c #5bbccc",
" A c #5fc0d0",
" S c #60c1d2",
" D c #5ec2d2",
" F c #5dc0d3",
" G c #51b6c8",
" H c #44a9bb",
" J c #44a6b3",
" K c #4ab8c9",
" L c #5fd1eb",
" P c #6ce6fe",
" I c #69f1ff",
" U c #7dffff",
" Y c #95f6ed",
" T c #4b7976",
" R c #3c3427",
" E c #3c3523",
" W c #3d3425",
" Q c #33291d",
" ! c #54b4c4",
" ~ c #5ebece",
" ^ c #63c3d3",
" / c #5ebfd0",
" ( c #5dc1d1",
" ) c #55b8cb",
" _ c #48abbe",
" ` c #44a4b4",
" ' c #47b0c5",
" ] c #57c6e2",
" [ c #66ddfb",
" { c #66f2ff",
" } c #75ffff",
" | c #93fef6",
".  c #5f9c97",
".. c #3d3528",
".X c #3d3626",
".o c #3d3624",
".O c #3e3526",
".+ c #3e3428",
".@ c #57b4c3",
".# c #62c2d0",
".$ c #68c8d8",
".% c #5fbfcf",
".& c #59baca",
".* c #5cbdce",
".= c #56baca",
".- c #4db1c1",
".; c #43a3b1",
".: c #48afc2",
".> c #53c1dc",
"., c #62d8f6",
".< c #67f0ff",
".1 c #70ffff",
".2 c #91fffc",
".3 c #78bdba",
".4 c #3e3629",
".5 c #3e3727",
".6 c #3e3725",
".7 c #3f3627",
".8 c #3f3529",
".9 c #59b6c5",
".0 c #66c3d2",
".q c #6ac7d6",
".w c #57b7c7",
".e c #59bacb",
".r c #54b5c6",
".t c #46a7b0",
".y c #46adbe",
".u c #55bfd9",
".i c #62d3f1",
".p c #66ebfe",
".a c #6fffff",
".s c #8ffffa",
".d c #7ac1bd",
".f c #3f372a",
".g c #3f3828",
".h c #3f3826",
".j c #403728",
".k c #3b3223",
".l c #40362a",
".z c #5dbbc7",
".x c #64c2ce",
".c c #65c2d1",
".v c #5bbbc9",
".b c #56b7c8",
".n c #4fb2b7",
".m c #43abb8",
".M c #54bdd3",
".N c #64d0ec",
".B c #67e6f7",
".V c #74feff",
".C c #81eee8",
".Z c #4a8c8a",
".A c #40382b",
".S c #403929",
".D c #403927",
".F c #413829",
".G c #403726",
".H c #3f3625",
".J c #3e3524",
".K c #3d3423",
".L c #60bcc9",
".P c #62c0cc",
".I c #60bdcc",
".U c #5ab7c6",
".Y c #5abaca",
".T c #56b7c7",
".R c #58bec0",
".E c #40a8b1",
".W c #50b9ce",
".Q c #65cfe9",
".! c #69e4f4",
".~ c #7affff",
".^ c #70d9d4",
"./ c #104e4b",
".( c #413a2a",
".) c #413827",
"._ c #41372b",
".` c #6bb7c5",
".' c #6ab9c8",
".] c #62b7cb",
".[ c #5bb3c9",
".{ c #56b2c9",
".} c #58b4cb",
".| c #5ab5ca",
"X  c #59b4c7",
"X. c #53b5b6",
"XX c #57b7c5",
"Xo c #49b3cd",
"XO c #40c4dd",
"X+ c #67f9ff",
"X@ c #7ef9f7",
"X# c #55928b",
"X$ c #273129",
"X% c #433727",
"X& c #443828",
"X* c #433729",
"X= c #44382c",
"X- c #43372b",
"X; c #42362a",
"X: c #413529",
"X> c #413527",
"X, c #443b2c",
"X< c #56b4b6",
"X1 c #5abbc1",
"X2 c #5bc0ca",
"X3 c #58becc",
"X4 c #54bbcc",
"X5 c #55bacc",
"X6 c #59b9c9",
"X7 c #54b9c1",
"X8 c #3da7b5",
"X9 c #40b3c6",
"X0 c #5bd4e7",
"Xq c #69d5e2",
"Xw c #4a959a",
"Xe c #2e4e49",
"Xr c #3b3d32",
"Xt c #453929",
"Xy c #44382a",
"Xu c #423628",
"Xi c #4fb1b2",
"Xp c #56babc",
"Xa c #58bfc6",
"Xs c #54bcc9",
"Xd c #50b7c8",
"Xf c #53b6c9",
"Xg c #5ab9cb",
"Xh c #5ebbcd",
"Xj c #45afbf",
"Xk c #40aebd",
"Xl c #49b7c4",
"Xz c #4eaab5",
"Xx c #427c87",
"Xc c #31494d",
"Xv c #33322d",
"Xb c #4d4133",
"Xn c #473b2b",
"Xm c #463a2a",
"XM c #45392b",
"XN c #45392d",
"XB c #42392a",
"XV c #5aacba",
"XC c #5db3c2",
"XZ c #5fb7cb",
"XA c #5bb7ce",
"XS c #56b4cd",
"XD c #59b5ce",
"XF c #5cb6ce",
"XG c #5eb6cc",
"XH c #59bed2",
"XJ c #58b1c3",
"XK c #4f95a1",
"XL c #2f5e64",
"XP c #243839",
"XI c #393833",
"XU c #4c3a2e",
"XY c #4f3526",
"XT c #483c2c",
"XR c #463a2c",
"XE c #463a2e",
"XW c #453c2d",
"XQ c #61aec8",
"X! c #60b1cc",
"X~ c #5eb5d1",
"X^ c #5bb6d3",
"X/ c #5cbad4",
"X( c #60bed7",
"X) c #63bfd4",
"X_ c #62bdd0",
"X` c #65b7c5",
"X' c #46798a",
"X] c #3a4a59",
"X[ c #37383c",
"X{ c #343a2e",
"X} c #40432e",
"X| c #4d3e2b",
"o  c #583728",
"o. c #493d2d",
"oX c #473b2d",
"oo c #463d2e",
"oO c #51a9c1",
"o+ c #57b1c9",
"o@ c #5ebad1",
"o# c #65c0d2",
"o$ c #63bac4",
"o% c #5aaab1",
"o& c #4e9da1",
"o* c #3d6d71",
"o= c #36434b",
"o- c #453238",
"o; c #4d3a34",
"o: c #454732",
"o> c #404a2f",
"o, c #47412b",
"o< c #593c2e",
"o1 c #4a3e2e",
"o2 c #483c2e",
"o3 c #46382b",
"o4 c #45372a",
"o5 c #443629",
"o6 c #5db7c2",
"o7 c #62bac6",
"o8 c #66b8c3",
"o9 c #63acb5",
"o0 c #5a9599",
"oq c #4a7876",
"ow c #375851",
"oe c #264236",
"or c #353c34",
"ot c #463f37",
"oy c #5a463d",
"ou c #514030",
"oi c #433e28",
"op c #44462e",
"oa c #463f2c",
"os c #4a382a",
"od c #4b3f2f",
"of c #493d2f",
"og c #493e2c",
"oh c #483d2b",
"oj c #473c2a",
"ok c #463b29",
"ol c #47392c",
"oz c #60afb4",
"ox c #57a0a6",
"oc c #478286",
"ov c #376062",
"ob c #334745",
"on c #3e3e34",
"om c #513e30",
"oM c #5b3e2c",
"oN c #574433",
"oB c #4b3f29",
"oV c #48422a",
"oC c #474129",
"oZ c #4d422c",
"oA c #504332",
"oS c #4b3f31",
"oD c #4e4639",
"oF c #4d4131",
"oG c #4a3e30",
"oH c #4a3f2d",
"oJ c #493b2e",
"oK c #483a2d",
"oL c #473e2f",
"oP c #44554d",
"oI c #434d44",
"oU c #464237",
"oY c #4c3c2f",
"oT c #503d2e",
"oR c #4f4432",
"oE c #4b4633",
"oW c #4e4232",
"oQ c #433826",
"o! c #3f3325",
"o~ c #444a40",
"o^ c #45473a",
"o/ c #4b4336",
"o( c #4f4232",
"o) c #544333",
"o_ c #544434",
"o` c #504434",
"o' c #4d4435",
"o] c #4c4030",
"o[ c #4c4535",
"o{ c #4d4433",
"o} c #504531",
"o| c #524731",
"O  c #544832",
"O. c #534635",
"OX c #524437",
"Oo c #504438",
"OO c #4f4333",
"O+ c #443927",
"O@ c #403426",
"O# c #584534",
"O$ c #574632",
"O% c #53472f",
"O& c #51472e",
"O* c #4e462f",
"O= c #504533",
"O- c #55443c",
"O; c #4c4032",
"O: c #524636",
"O> c #514535",
"O, c #483c30",
"O< c #473b2f",
/* pixels */
"   . X o O + @ # $ % & * = - ; : > , < 1 2 2 3 4 5 5 5 5 5 5 5 5 5 5 5 5 5 5 5 5 6 6 6 6 6 6 6 6 7 7 7 7 7 8 8 8 9 9 9 9 9 9 9 9 9 9 9 9 9 9 9 9 0 0 0 0 0 0 0 0 0 0 0 0 0 0 0 0 q q q q w w w w e e r r r r t t r e 0 y 8",
" u i p a s d f g h j k l z x c v > b < n 1 2 4 4 5 5 5 5 5 5 5 5 5 5 5 5 5 5 5 5 5 5 5 5 5 5 5 5 m m 7 7 7 7 8 8 8 8 8 8 8 8 8 8 M M M M M M M M 9 9 9 9 9 9 9 9 N N N N N N N N B q q q q q w w e e e e r r r r e e 0 V 7",
" C Z A S D F G H J K L P I U Y T , < R n 1 1 4 E W W W W W W W W W W W W W W W W W W W W W W W W m m m m 7 7 7 7 m m m m m m m m 8 8 8 8 8 8 8 8 8 8 8 8 8 8 8 8 9 9 9 9 9 9 9 9 B B B B B q q q 0 0 0 0 e e e e 0 0 N Q m",
" ! ~ ^ / i ( ) _ ` ' ] [ { } |.  b R...X n n E.o.O.O.O.O.O.O.O.O.O.O.O.O.O.O.O.O.O.O.O.O.O.O.O.O.+.+.+ m m m m m.+.+.+.+.+.+.+.+ 7 7 7 7 7 7 7 7 7 7 7 7 7 7 7 7 8 8 8 8 8 8 8 8 9 9 9 9 9 N N N 9 N N N N 0 0 0 N N 9 t.+",
".@.#.$.%.&.*.=.-.;.:.>.,.<.1.2.3 <...4.5.5.X.o.6.7.7.7.7.7.7.7.7.7.7.7.7.7.7.7.7.O.O.O.O.O.O.O.O.7.7.7.O.O.O.O W.O.O.O.O.O.O.O.O W W W W W W W W 5 5 5 5 5 5 5 5 5 5 5 5 5 5 5 5 8 M M M M 9 9 9 M M M 9 9 9 9 N 9 9 M r.8",
".9.0.q.%.w.e.e.r.t.y.u.i.p.a.s.d R.4.f.g.g.5.6.h.j.j.j.j.j.j.j.j.j.j.j.j.j.j.j.j.O.O.O.O.O.O.O.O.j.j.7.7.7.7.O.O.O.O.O.O.O.O.O.O.O.O.O.O.O.O.O.O 5 5 5 5 5 5 5 5 W W W W W W W W 5.k.k.k.k 6 6 6 8 8 8 8 M M M M M M 8 e.l",
".z.x.c.v C u.&.b.n.m.M.N.B.V.C.Z...4.A.S.g.g.h.D.F.F.F.F.F.F.F.F.F.F.F.F.F.F.F.F.j.j.j.j.j.j.j.j.G.G.G.G.H.H.H.H.H.H.H.H.H.H.H.H.J.J.J.J.J.J.J.J.K.K.K.K.K.K.K.K.K.K.K.K.K.K.K.K 5 5 5 5.k.k.k.k 7 7 7 7 8 8 8 8 8 8 7 0.l",
".L.P.I.U C.Y.&.T.R.E.W.Q.!.~.^./...f.A.(.S.g.D.D.F.F.F.F.F.F.F.F.F.F.F.F.F.F.F.F.F.F.F.F.F.F.F.F.).G.G.G.G.H.H.H.G.G.G.G.G.G.G.G.J.J.J.J.J.J.J.J.H.H.H.H.H.H.H.H.K.K.K.K.K.K.K.K W W 5 5 5 5.k.k m m 7 7 7 7 8 8 8 8 7 0._",
".`.'.].[.{.}.|X X.XXXoXOX+X@X#X$X%X%X%X%X%X%X%X%X&X&X&X&X&X%X%X%X*X*X*X*X*X*X*X*X=X=X=X=X=X=X=X=X-X-X-X;X;X;X;X;X;X;X;X:X:X:X:X:X>X>X>X>X>X>X>X>.7.O.O.O.O W W W.O.O.O.O.O.O.O.O.O.O.O.O.O.O.O.O W W W W 5 5 5 5.O 5 W 6X,",
"X<X1X2X3X4X5.eX6X7X8X9X0XqXwXeXrXtXtXtXtXtXtXtXtXtXtXtX&X&X&X&X&XyXyXyXyXyXyXyXyX=X=X=X=X=X=X=X=XyX*X*X*X*XuXuXuXyX*X*X*X*XuXuXuXuXuXuXuXuXuXuXu.j.j.j.7.7.7.7.7.O.O.O.O.O.O.O.O.O.O.O.O.O.O.O.O W W W W W 5 5 5.O 5 W 6X,",
"XiXpXaXsXdXfXgXhXjXkXlXzXxXcXvXbXnXnXnXnXnXnXnXnXmXmXmXtXtXtXtXtXMXMXMXMXMXMXMXMXNXNXNXNXNXNXNXNXyXyXyXyXyX*X*X*XMXMXMXMXyXyXyXyXyXyXyXyXyXyXyXyXBXB.F.F.F.F.j.j.7.7.7.7.7.7.7.7.7.7.7.7.7.7.7.7.O.O.O W W W W W.7 5.O.kX,",
"XVXCXZXAXSXDXFXGXHXJXKXLXPXIXUXYXTXTXTXTXTXTXTXTXnXnXnXnXmXmXmXmXRXRXRXRXRXRXRXRXEXEXEXEXEXEXEXEXRXRXMXMXMXMXyXyXRXRXMXMXMXMXyXyXyXyXyXyXyXyXyXyXyXyXyXyX*X*X*X*XuXuXuXuXuXuXuXu.j.j.j.j.j.j.j.j.7.7.O.O.O.O.O W.7 W.O.kXW",
"XQX!X~X^X/X(X)X_X`X'X]X[X{X}X|o XTXTXTXTXTXTXTXTo.o.XTXTXTXTXnXnoXoXoXoXoXoXoXoXoXoXoXoXoXoXoXoXXnXnXnXnXmXmXmXmXmXmXtXtXtXtX&X&XyXyXyXyXyXyXyXyXyXyXyXyX*X*X*X*XuXuXuXuXuXuXuXu.j.j.j.j.j.j.j.j.j.7.7.7.7.7.O.O.j.O.7 5oo",
"oOo+o@X)o#o$o%o&o*o=o-o;o:o>o,o<o.o.o.o.o.o.o.o.o1o1o1o.o.o.o.o.o2o2o2o2o2o2o2o2o2o2o2o2o2o2o2o2XTXTXTXTXTXnXnXnXmXmXmXmXtXtXtXtXMXMXMXMXMXMXMXMo3o3o4o4o4o4o5o5o5o5o5o5o5o5o5o5.F.F.F.F.F.F.F.F.j.j.j.j.j.7.7.7.j.O.7 5oo",
"o6o7o8o9o0oqowoeorotoyouoiopoaosodododododododododododo1o1o1o1o.ofofofofofofofofo.o.o.o.o.o.o.o.ogogogogogohohohohohohojojojojokXRXRXRXRXRXRXRXRolololololo3o3o3o4o4o4o4o4o4o4o4XBXBXBXBXBXBXBXB.F.F.F.j.j.j.j.j.F.O.j 5oo",
"ozoxocovobonomoMoNoBoVoCoZoAoSoDoFoFoFoFoFoFoFoFodododododo1o1o1oGoGoGoGoGoGoGoGo.o.o.o.o.o.o.o.oHoHoHogogogogogogogogogogohohoho2o2o2o2o2o2o2o2oJoJoJoKoKoKoKolo4o4o4o4o4o4o4o4XBXBXBXBXBXBXBXB.F.F.F.F.j.j.j.j.F.7.j WoL",
"oPoIoUoYoTouoRoEoWoWoWoWoWoWoWoWoFoFoFoFoFoFoFoFoWoWoWoWoWoWoWoWoFoFoFoFoFoFoFoFododododododododododododododododododo1o1o1o1o.o.o.XTXTXTXTXnXnXnXTXTXTXTXTXnXnXnXRXRXRXRXRXRXRXRXmXmXmXmXtXtXtXtoQoQX%X%X*X*X*X-X*X*Xyo!of",
"o~o^o/o(o)o_o`o'oWoWoWoWoWoWoWoWoFoFoFoFoFoFoFoFoFoFoFoFoFoFoFoFoFoFoFoFoFoFoFoFo]o]o]o]o]o]o]o]o]o]o]o]o]o]o]o]odododo1o1o1o1o.o.o.o.o.XTXTXTXTo.XTXTXTXTXTXnXnXRXRXRXRXRXRXRXRXmXmXmXtXtXtXtX&oQoQX%X%X*X*X*X-X*X*XMo!of",
"o[o{o}o|O O.OXOoOOOOOOOOOOOOOOOOoWoWoWoWoWoWoWoWoWoWoWoWoWoWoWoWOOOOOOOOOOOOOOOOoWoWoWoWoWoWoWoWoFoFoFoFoFoFoFoFo]o]o]ododododo1odo1o1o1o1o1o.o.o1o.o.o.o.XTXTXToXoXoXoXoXoXoXoXXmXmXmXmXtXtXtXtO+O+X&X&XyXyXyX=XyXyXRO@oG",
"O#O$O%O&O*O=OXO-o`o`o`o`o`o`o`o`o`o`o`o`o`o`o`o`OOOOOOOOOOOOOOOOOOOOOOOOOOOOOOOOOOOOOOOOOOOOOOOOoWoWoWoWoWoWoWoWoWoWoFoFoFoFo]o]oFoFoFo]o]o]o]ododododododo1o1o1ofofofofofofofofXTXTXnXnXnXnXnXmokokXmXmXRXRXRXEXRXRoXXuO;",
"O#O$O%O&O*O=OXO-O:O:O:O:O:O:O:O:O>O>O>O>O>O>O>O>O>O>O>O>O>O>O>O>OOOOOOOOOOOOOOOOOOOOOOOOOOOOOOOOoWoWoWoWoWoWoWoWOOOOOOOOoWoWoWoWoWoWoWoWoFoFoFoFoFoFoFo]o]o]o]odoSoSoSoSoSoSoSoSo.o.o.o.XTXTXTXTohohXTXTo2o2o2O,oXo2ofX*Xb",
"o[o{o}o|O O.OXOoO>O>O>O>O>O>O>O>O>O>O>O>O>O>O>O>O>O>O>O>O>O>O>O>OOOOOOOOOOOOOOOOoWoWoWoWoWoWoWoWoFoFoFoFoFoFoFoFOOOOoWoWoWoWoFoFoFoFoFoFoFo]o]o]o]o]o]o]o]odododoGoGoGoGoGoGoGoGo.o.o.o.XTXTXTXTojojXnXnoXoXoXO<oXoXo2X*Xb"
};
