/* XPM */
static char *freeimage[] = {
/* width height num_colors chars_per_pixel */
"85 70 207 2",
/* colors */
"   c #0f100b",
" . c #0e0f0a",
" X c #0c0e09",
" o c #0d0f0a",
" O c #0b0d08",
" + c #0d0d0b",
" @ c #0b0b0d",
" # c #0c0c0e",
" $ c #0a0a0a",
" % c #090909",
" & c #080808",
" * c #070707",
" = c #111111",
" - c #070803",
" ; c #060702",
" : c #040601",
" > c #050702",
" , c #030500",
" < c #040402",
" 1 c #040406",
" 2 c #050507",
" 3 c #060606",
" 4 c #050505",
" 5 c #040404",
" 6 c #010101",
" 7 c #000000",
" 8 c #050601",
" 9 c #030301",
" 0 c #030303",
" q c #020202",
" w c #090a05",
" e c #080904",
" r c #060604",
" t c #050503",
" y c #080703",
" u c #090804",
" i c #070602",
" p c #060501",
" a c #040500",
" s c #030400",
" d c #080903",
" f c #070705",
" g c #080806",
" h c #050400",
" j c #040300",
" k c #060701",
" l c #080705",
" z c #090803",
" x c #080702",
" c c #050600",
" v c #070802",
" b c #0a0904",
" n c #0a0a02",
" m c #0e0903",
" M c #0e0a01",
" N c #0e0a00",
" B c #0a0905",
" V c #090806",
" C c #080607",
" Z c #0e0905",
" A c #0f0a06",
" S c #0f0a04",
" D c #0f0b02",
" F c #100b07",
" G c #100b05",
" H c #100c03",
" J c #0b0a05",
" K c #0b0801",
" L c #0b0803",
" P c #0a0702",
" I c #0a0603",
" U c #0a0605",
" Y c #110c09",
" T c #110c08",
" R c #110c06",
" E c #0c0b06",
" W c #0c0900",
" Q c #0c0902",
" ! c #0b0704",
" ~ c #090502",
" ^ c #110b0b",
" / c #0a0a00",
" ( c #0d0900",
" ) c #0d0802",
" _ c #0d0804",
" ` c #0c0703",
" ' c #0c0704",
" ] c #100a0a",
" [ c #100b08",
" { c #0d0c07",
" } c #120d0a",
" | c #110d0a",
".  c #100c09",
".. c #0f0b08",
".X c #0e0a07",
".o c #0d0906",
".O c #0d0a01",
".+ c #0c0805",
".@ c #060608",
".# c #020204",
".$ c #010103",
".% c #010005",
".& c #120d09",
".* c #110e09",
".= c #100d08",
".- c #0f0c07",
".; c #0e0b06",
".: c #0d0a03",
".> c #0c0904",
"., c #130e0a",
".< c #120f0a",
".1 c #0e0b04",
".2 c #130e08",
".3 c #120f08",
".4 c #110e07",
".5 c #100d06",
".6 c #0d0a05",
".7 c #090601",
".8 c #130f06",
".9 c #120f06",
".0 c #110e05",
".q c #100d04",
".w c #0b0602",
".e c #0a0501",
".r c #090a04",
".t c #060700",
".y c #0b0b0b",
".u c #0c0c0c",
".i c #160f09",
".p c #140d07",
".a c #0a0b05",
".s c #090c05",
".d c #0b0c06",
".f c #150e08",
".g c #0c0d07",
".h c #17100a",
".j c #140f09",
".k c #0e0d08",
".l c #15100a",
".z c #140f0b",
".x c #120d07",
".c c #18110b",
".v c #140c09",
".b c #080401",
".n c #0d0d0d",
".m c #120e05",
".M c #16110b",
".N c #19120c",
".B c #1a130d",
".V c #19100b",
".C c #15120b",
".Z c #060902",
".A c #040902",
".S c #0e0e0c",
".D c #1b140e",
".F c #1a110c",
".G c #17120c",
".H c #16130c",
".J c #10110b",
".K c #15100c",
".L c #0f0e09",
".P c #090a02",
".I c #070800",
".U c #11120a",
".Y c #18150e",
".T c #17140d",
".R c #14110a",
".E c #070601",
".W c #060500",
".Q c #11100b",
".! c #19140e",
".~ c #18130d",
".^ c #1c150f",
"./ c #141007",
".( c #130e0b",
".) c #12110c",
"._ c #1d140f",
".` c #1c130e",
".' c #1b120d",
".] c #1c150d",
".[ c #1c150b",
".{ c #1d160c",
".} c #1d160e",
".| c #0e0d09",
"X  c #0d0c08",
"X. c #0c0b07",
"XX c #0b0a06",
"Xo c #1d1610",
"XO c #1e170f",
"X+ c #13120d",
"X@ c #1e1711",
"X# c #1e170d",
"X$ c #14130e",
"X% c #1f1812",
"X& c #151108",
"X* c #160f07",
"X= c #150e06",
"X- c #140d05",
"X; c #130c04",
"X: c #161209",
"X> c #1f1714",
"X, c #1f1810",
"X< c #1f180e",
"X1 c #1b140c",
"X2 c #18130f",
"X3 c #191410",
"X4 c #1a1511",
/* pixels */
"           . . . X o o o o X O O + + + + + + + + @ @ # # # # @ @ $ $ % % % % & & * * * * * * * * & & & & & * * * % % % % % % % % % % % % % % % % % % % % % % % % % * % * =",
" - - - ; ; ; ; ; : > > > > : , , < < < < < < < < 1 1 2 2 2 2 1 1 3 4 4 4 4 5 5 5 6 6 6 7 7 7 7 7 6 6 7 7 7 7 7 7 7 7 7 7 7 7 7 7 7 7 7 7 7 7 7 7 7 7 7 7 7 7 7 7 7 7 6 7 &",
" ; ; ; ; 8 8 8 8 : : > > : : , , 9 9 9 9 9 9 9 9 1 1 2 2 2 2 1 1 0 0 0 0 0 q q q q q 6 6 7 7 7 7 7 7 7 7 7 7 7 7 7 7 7 7 7 7 7 7 7 7 7 7 7 7 7 7 7 7 7 7 7 7 7 7 7 7 7 7 *",
" w w w w e e e e e w w w w e e - r r r r r r r r * * & & & & * * t t t t < < < < 3 3 4 5 0 q 6 6 q q q q q 6 6 6 6 6 6 6 6 6 6 6 6 6 6 6 6 6 6 6 6 6 6 6 6 6 6 6 q 6 0 7 $",
" e e - - - - - ; - - e e e - ; ; 8 8 8 8 8 8 8 8 4 4 4 3 3 4 4 4 r r r t t t t t 5 5 0 q 6 7 7 7 7 7 7 7 7 7 7 7 7 7 7 7 7 7 7 7 7 7 7 7 7 7 7 7 7 7 7 7 7 7 7 7 7 7 6 7 %",
" e e e - - - - - y y y u y y i p ; ; ; ; ; ; ; ; < t t r r t t < 8 8 a a a a s s 5 0 0 q 6 6 7 7 7 7 7 7 7 7 7 7 7 7 7 7 7 7 7 7 7 7 7 7 7 7 7 7 7 7 7 7 7 7 7 7 7 7 6 7 &",
" w w w w e e e e u u u u u y y i d d d d d d d d f f g g g g f f 8 8 a a a a s s 4 4 4 5 5 5 5 0 0 q q q q 6 6 6 q q q q q q q q q q q q q q q q q q q q q q q q 6 7 q 7 $",
" - - - ; ; ; ; 8 p p p i p p h j k k k k k k k k r r f f f f r r - ; ; ; ; 8 8 8 0 0 0 0 0 0 0 0 q q 6 6 6 6 7 7 7 7 7 7 7 7 7 7 7 7 7 7 7 7 7 7 7 7 7 7 7 7 7 7 7 7 7 7 *",
" l l l l l l l l l l l l l l l l z z z z z z z z x x x x x x x x c c c c c c c c t t t < < < < < 0 0 0 q q q q 6 6 7 7 7 7 7 7 7 7 7 7 7 7 7 7 7 7 7 7 7 7 7 7 7 7 7 6 7 %",
" y y y y y y y y y y y y y y y y z z z z z z z z x x x x x x x x c c c c c c c c t t t t < < < < 0 0 0 q q q q q 6 6 7 7 7 7 7 7 7 7 7 7 7 7 7 7 7 7 7 7 7 7 7 7 7 7 6 7 %",
" u u u u u u u u y y y y y y y y z z z z z z z z x x x x x x x x k k k k k k k k t t t t < < < < 0 0 0 0 0 q q q 6 6 6 6 7 7 7 7 7 7 7 7 7 7 7 7 7 7 7 7 7 7 7 7 7 7 6 7 %",
" u u u u u u u u u u u u u u u u z z z z z z z z x x x x x x x x k k k k k k k k r t t t t < < < 5 5 5 0 0 0 0 0 q q 6 6 6 6 7 7 7 7 7 7 7 7 7 7 7 7 7 7 7 7 7 7 7 7 6 7 %",
" z z z z z z z z z z z z z z z z z z z z z z z z x x x x x x x x v v v v v v v v ; ; ; 8 8 8 8 a 5 5 5 5 5 0 0 0 q q q q 6 6 6 6 7 7 7 7 7 7 7 7 7 7 7 7 7 7 7 7 7 7 6 7 %",
" z z z z z z z z b b b b b b b b z z z z z z z z x x x x x x x x v v v v v v v v ; ; ; ; 8 8 8 8 4 4 4 5 5 5 5 5 0 0 q q q q 6 6 7 7 7 7 7 7 7 7 7 7 7 7 7 7 7 7 7 7 6 7 %",
" n n n n n n n n n n n n n n n n z z z z z z z z x x x x x x x x d d d d d d d d k k k k c c c c 4 4 4 4 4 5 5 5 0 0 0 0 q q q q 7 7 7 7 7 7 7 7 7 7 7 7 7 7 7 7 7 7 6 7 %",
" n n n n n n n n n n n n n n n n z z z z z z z z x x x x x x x x d d d d d d d d k k k k k c c c 3 4 4 4 4 5 5 5 0 0 0 0 q q q q 7 7 7 7 7 7 7 7 7 7 7 7 7 7 7 7 7 7 6 7 %",
" m m m m M M N N b b b b b b b b z z z z z z z z u u u u u u u u b B u u V V C C x x x x x x x x - ; ; ; ; 8 8 8 ; 8 a 9 9 0 5 4 6 7 7 7 7 7 7 7 7 7 7 7 6 6 6 6 7 7 6 7 %",
" Z m m m M M N N b b b b b b b b z z z z z z z z u u u u u u u u z z u u V l l C x x x x x x x x - ; ; ; ; ; 8 8 ; 8 a < 9 5 5 4 6 6 6 7 7 7 7 7 7 7 7 7 7 7 7 6 7 7 6 7 %",
" A A A S S D D D b b b b b b b b b b b b b b b b z z z z z z z z z z z y y l l l x x x x x x x x - - ; ; ; ; ; 8 ; 8 8 < < 5 5 4 q 6 6 6 6 7 7 7 7 7 7 7 7 7 7 7 7 7 6 7 %",
" F F F G G G H H J J J J J J J J b b b b b b b b b b b b b b b b K L L P I I U U x x x x x x x x y y y y i i i i ; ; 8 t < 5 5 5 q q q q 6 6 6 6 7 7 7 7 7 7 7 7 7 7 6 7 %",
" Y Y T T T R R R E E E E E E E E J J J J J J J J n n n n n n n n K K K L P I I I x x x x x x x x y y y y i i i i ; ; ; r t 4 5 5 0 0 0 0 q q q q 6 6 6 7 7 7 7 7 7 7 6 7 %",
" Y Y Y T T R R R E E E E E E E E J J J J J J J J n n n n n n n n W Q Q K L L ! I z z z z z z z z ! I I I I I ~ ~ 8 ; ; r r 4 4 5 5 5 5 0 0 0 0 q q q 6 6 7 7 7 7 7 7 6 7 %",
" ^ ^ Y Y T T T R E E E E E E E E E E E E E E E E / / / / / / / / M ( ) ) _ ` ` ' z z z z z z z z ! ! I I I I I ~ 8 ; ; f r 3 4 5 5 5 5 5 5 0 0 0 0 0 q q 6 7 7 7 7 7 6 7 %",
" ] ] [ [ F F F F { { { { { { { { E E E E E E E E / / / / / / / / M M M ) ) _ _ _ z z z z z z z z ! ! ! I I I I ~ 8 ; - f f 3 4 5 4 4 5 5 5 5 5 0 5 0 0 q 6 6 7 7 7 7 6 7 %",
" } } } } } } } } | | |. . . . . .......X.X.o.o.o E E E E J J J J.O.O.O.O.O.O.O.O.+.+ ! ! ! ! I I z z z x x x x x d d v v k k k c.@ 3 4 4 t t a a < 9 0 q.#.$.$.% 6 7 6 7 %",
" } } } } } } } } | | | |. . . . .........X.X.o.o E E E E E J J J.O.O.O.O.O.O.O.O.+.+.+ ! ! ! ! I z z z x x x x x d d v v k k k k 3 3 3 4 t t 8 a < 9 9 0 q.#.$.$ 6 7 6 7 %",
".&.&.&.&.&.&.&.&.*.*.*.*.=.=.=.=.-.-.-.-.-.;.;.; { { { E E E E E.:.:.:.:.:.:.:.:.>.>.> L L L L L z z z z x x x x d v v v v k k k 3 3 3 t t 8 8 8 < < < 0 q.#.#.$ 7 7 6 7 &",
".,.,.,.,.,.,.,.,.<.*.*.*.*.=.=.=.-.-.-.-.-.-.-.-.=.=.-.-.-.-.-.;.1.1.1.1.1.1.1.1.>.>.>.> L L L L L L L L L L P P v v v v v v v v 3 3 r r 8 8 c c 8 a < 9 0 q q.# 6 7 6 7 %",
".2.2.2.2.2.2.2.2.3.3.3.4.4.4.4.5.5.5.5.5.5.5.5.5.*.=.=.=.=.=.-.-.;.;.;.;.;.;.;.;.: Q Q Q Q K K K L L.>.>.> L P P v v v v v d d d f r r ; ; c c c 8 8 8 < < 0 0 q 6 7 q 7 %",
".2.2.2.2.2.2.2.2.3.3.3.3.4.4.4.4.5.5.5.5.5.4.4.4.*.*.*.*.*.=.=.=.-.-.-.-.-.-.-.-.:.:.: Q Q Q Q K L L.>.6.6.> P.7 v v v d d d d d f f - ; k k k c k c 8 8 < 9 9 0 q 7 q 7 $",
".8.8.8.8.8.8.8.8.9.9.9.9.0.0.0.0.q.q.q.q.0.0.9.9.,.,.,.&.&.&.&.&.................O.O.O W W W W W ` _ Z Z Z _.w.e v v v d d d.r.r - - - k k k.t.t k k c 8 a < < 9 0 6 0 6.y",
".8.8.8.8.8.8.8.8.9.9.9.9.9.0.0.0.q.q.q.0.0.9.9.9.,.,.,.,.&.&.&.&.................O.O.O.O W W W W ` _ Z A Z _.w.e v v v d d.r.r.r - - - v k.t.t.t k k k 8 8 < < 9 5 q 5 6.u",
".i.i.i.i.i.i.i.i.2.2.2.2.2.2.2.2.p.p.p.p.p.p.p.p.,.,.,.,.,.,.,., } } } Y Y Y Y Y.;.; E E.a.a.a.s J b b b b z z z b b z z z z x x y y y y y y y y ; ; ; ; ; 8 8 8 5 q 0 7.y",
".i.i.i.i.i.i.i.i.2.2.2.2.2.2.2.2.p.p.p.p.p.p.p.p.,.,.,.,.,.,.,., } } } } Y Y Y Y.-.- E E.d.d.a.a J J b b b b z z b b b z z z z x y y y y y y y y ; ; ; ; ; 8 8 8 5 q 0 7.y",
".i.i.i.i.i.i.i.i.2.2.2.2.2.2.2.2.f.f.f.f.f.f.f.f.,.,.,.,.,.,.,.,.&.&.&.& T T T T.=.=.- { {.g.d.d J J J J b b b b b b b z z z z z y y y y y y y y ; ; ; ; ; 8 8 8 5 q 5 6.y",
".h.h.h.h.h.h.h.h.j.j.j.j.j.j.j.j.f.f.f.f.f.f.f.f.,.,.,.,.,.,.,.,.,.&.&.&.& T T T.& T.=.=.k {.g.g E E J J J J b b b b b b z z z z y y y y y y y y i i i i i p p p 4 0 5 6.u",
".h.h.h.h.h.h.h.h.l.l.l.l.l.l.l.l.i.i.i.i.i.i.i.i.z.z.z.z.z.z.z.z.2.2.2.x.x.x.x R.&.&.&.*.=.k.k.k E E E E J J J J J b b b b z z z y y y y y y y y i i i i i p p p 4 0 4 q.u",
".c.c.c.c.c.c.c.c.l.l.l.l.l.l.l.l.i.i.i.i.i.i.i.i.z.z.z.z.z.z.z.z.2.2.2.2.x.x.x.x.v.&.&.&.=.=.k.k { { E E E E J J J J J b b b b z y y y y y y y y ~ ~ ~ ~ ~.b.b.b 3 5 4 q.n",
".c.c.c.c.c.c.c.c.l.l.l.l.l.l.l.l.h.h.h.h.h.h.h.h.z.z.z.z.z.z.z.z.8.8.8.8.m.m.m.m.v.v.&.& T.=.=.= { { { { E E E E J J J b b b b b y y y y y y y y ~ ~ ~ ~ ~.b.b.b 3 5 3 0.n",
".c.c.c.c.c.c.c.c.M.M.M.M.M.M.M.M.h.h.h.h.h.h.h.h.z.z.z.z.z.z.z.z.8.8.8.8.8.m.m.m.v.v.v T T.=.=.= { { { { E E E E J J J J b b b b y y y y y y y y ~ ~ ~ ~ ~.b.b.b * 4 3 0.n",
".h.c.c.c.N.N.B.B.c.c.c.c.c.c.c.c.c.c.c.c.c.c.c.c.V.V.c.c.M.M.C.C.j.j.j.j.2.2.2.2.&.&.&.&.&.&.&.& T T F F F F A A E E E E J J J J b b b z z z z x z z d v.Z.Z.Z.A r < f <.S",
".c.c.c.N.N.N.N.N.c.c.c.c.c.c.c.c.c.c.c.c.c.c.c.c.V.V.c.c.M.M.C.C.l.j.j.j.j.2.2.2.&.&.&.&.&.&.&.& T T T T F F F F E E E E J J J J b b b z z z z z z z z d v.Z.Z.Z ; 8 - a .",
".N.N.N.N.N.N.c.c.c.c.c.c.c.c.c.c.c.c.c.c.c.c.c.c.V.V.c.c.M.M.C.C.l.l.l.j.j.j.j.j.,.,.,.,.,.,.,.,.&.&.&.& T T T T { { E E E E J J b b b b b z z z z z z d v.Z.Z.Z - 8 - 8  ",
".B.B.B.N.N.c.c.c.c.c.c.c.c.c.c.c.c.c.c.c.c.c.c.c.V.V.c.c.M.M.C.C.l.l.l.l.l.j.j.j.,.,.,.,.,.,.,.,.,.,.,.,.&.&.&.& { { { { E E E E J J J b b b b b.> L z z d v v.Z - ; e 8  ",
".D.B.B.B.N.N.c.c.N.N.N.N.N.N.N.N.N.N.N.N.N.N.N.N.F.F.N.N.G.G.H.H.M.M.M.l.l.l.l.l.z.z.z.z.z.z.z.z.z.z.,.,.,.,.&.&.k.k { { { { E E J J J J J b b b.>.>.> z z d d v d k d k.J",
".B.B.B.B.B.N.N.N.N.N.N.N.N.N.N.N.N.N.N.N.N.N.N.N.F.F.N.N.G.G.H.H.M.M.M.M.M.l.l.l.z.z.z.z.z.z.z.z.z.z.,.,.,.,.&.&.k.k.k.k { { { { E E E J J J J J _ _.>.> z z z d d v.r k.J",
".N.N.B.B.B.B.B.B.N.N.N.N.N.N.N.N.N.N.N.N.N.N.N.N.F.F.N.N.G.G.H.H.G.G.G.M.M.M.M.l.K.K.K.K.K.K.K.K.z.,.,.,.,.,.&.&.L.L.k.k.k.k { { E E E E E J J J _ _ _.> L z z z.P.I.P.I.U",
".N.N.N.B.B.D.D.D.N.N.N.N.N.N.N.N.N.N.N.N.N.N.N.N.F.F.N.N.G.G.H.H.G.G.G.G.M.M.M.M.K.K.K.K.K.K.K.K.,.,.,.,.,.&.&.&.L.L.L.k.k.k.k { { E E E E J J J _ _ _.>.> z z z.P.I.P.I.U",
".Y.Y.Y.Y.Y.Y.Y.Y.T.T.T.T.T.T.T.T.T.T.T.T.T.T.T.T.T.T.H.H.H.H.T.T.H.H.H.H.C.C.C.C.H.C.C.C.C.R.R.R.j.j.j.2.2.x.x R.8.8.x.x.&.& Y Y T T T T F F F F z z z z z z b b z.E z.W.Q",
".Y.Y.Y.Y.Y.Y.Y.Y.T.T.T.T.T.T.T.T.T.T.T.T.T.T.T.T.T.T.H.H.H.H.T.T.H.H.H.H.H.C.C.C.H.C.C.C.C.C.R.R.j.j.j.2.2.x.x.x.8.8.2.x.&.& } Y T T T T T F F F z z z z z b b b z.E z.W.Q",
".!.!.!.!.!.!.!.!.~.~.~.~.~.~.~.~.~.~.~.~.~.~.~.~.~.~.G.G.G.G.~.~.~.G.G.G.G.M.M.M.G.G.M.M.M.M.M.l.l.l.j.j.2.2.x.x.8.8.2.x.&.& } }.& T T T T F F F b b b b b b b b z.E z.E.Q",
".!.!.!.!.!.!.!.!.!.!.!.!.!.!.!.!.!.!.!.!.!.!.!.!.!.~.~.G.G.~.~.!.~.~.~.G.G.G.G.M.G.G.G.G.M.M.M.M.l.l.l.j.j.2.2.2.8.8.2.2.&.& } }.&.&.& T T T T F J J b b b b b b z.E b.E.Q",
".^.^.^.^.^.^.^.^.D.D.D.D.D.D.D.D.D.D.D.D.D.D.D.D.D.B.B.N.N.B.B.D.B.B.B.B.N.N.N.N.N.N.N.N.c.c.c.c.M.M.l.l.j.j.2.2./.8.2.2.,.& } }.&.&.&.& T T T T E E J J J b b b z x b.E.Q",
".^.^.^.^.^.^.^.^.D.D.D.D.D.D.D.D.D.D.D.D.D.D.D.D.D.D.B.B.B.B.D.D.B.B.B.B.B.N.N.N.B.N.N.N.N.N.c.c.M.M.M.l.l.j.j.j././.j.2.,.,.( }.&.&.&.&.& T T T { E E E J b b b b x b.E.)",
"._._._._._._._._.`.`.`.`.`.`.`.`.`.`.`.`.`.`.`.`.`.`.'.'.'.'.`.`.`.'.'.'.'.F.F.F.'.'.F.F.F.F.F.V.G.G.M.M.l.l.j.j././.j.2.,.,.(.(.,.&.&.&.& T T T { { { E J J b b b x b x.)",
"._._._._._._._._.`.`.`.`.`.`.`.`.`.`.`.`.`.`.`.`.`.`.'.'.'.'.`.`.`.`.'.'.'.'.F.F.'.'.'.F.F.F.F.V.G.G.M.M.l.l.j.j././.j.j.,.,.(.(.,.,.&.&.&.& T T.k { { E J J b b b x b x.)",
".^.^.].].].[.[.[.[.[.{.}.}.}.^.^.^.^.^.^.D.D.D.D.^.^.^.^.^.^.^.^.^.D.D.D.D.B.B.B.B.B.B.N.N.N.N.N.N.N.N.N.N.N.N.N.j.j.j.j.j.j.j.j.(.(.( } } } } Y.|.|.|X X X.X.XX J z b.E.)",
".^.^.].].].[.[.[.[.[.{.}.}.}.^.^Xo.^.^.^.^.D.D.D.^.^.^.^.^.^.^.^.^.D.D.D.D.D.B.B.B.B.B.B.N.N.N.N.N.N.N.N.N.N.N.N.j.j.j.j.j.j.j.j.(.(.( } } } } }. . . .....X.X.X J z b.E.)",
"XoXo.}.}.}.{.{.{.[.[.{.}.}.}.^.^XoXoXo.^.^.^.^.^.^.^.^.^.^.^.^.^.^.^.D.D.D.D.D.B.B.B.B.B.N.N.N.N.N.N.N.N.N.N.N.N.j.j.j.j.j.j.j.j.,.,.,.,.,.&.&.&.*.*.=.=.-.-.;.; J z J x.)",
"XoXo.}.}.}.{.{.{.[.{.{XOXO.}Xo.^XoXoXoXoXo.^.^.^.^.^.^.^.^.^.^.^.^.^.^.^.D.D.D.D.D.B.B.B.B.N.N.N.N.N.N.N.N.N.N.N.l.l.l.l.l.l.l.l.z.z.z.,.,.,.,.,.*.*.*.=.=.-.-.- E b J xX+",
"XoXo.}.}.}.{.{.{.[.{.{XOXO.}Xo.^X@X@X@XoXoXoXoXo.^.^.^.^.^.^.^.^.^.^.^.^.D.D.D.D.D.D.D.B.B.B.B.N.N.N.N.N.N.N.N.N.l.l.l.l.l.l.l.l.j.j.j.j.j.2.2.2.2.2.x.x R R G G E b E zX+",
"XoXo.}.}.}.{.{.{.{.{X#XOXOXOXoXoX@X@X@X@X@XoXoXoXoXoXoXoXoXoXoXoXo.^.^.^.^.^.D.D.D.D.D.D.B.B.B.B.B.B.B.B.B.B.B.B.M.M.M.M.M.M.M.M.l.l.l.j.j.j.j.j.2.2.2.x.x R R R { J E zX$",
"X@X@XOXOXOX#X#X#.{.{X#XOXOXOXoXoX%X%X%X@X@X@X@XoXoXoXoXoXoXoXoXoXoXo.^.^.^.^.^.D.D.D.D.D.B.B.B.B.B.B.B.B.B.B.B.B.M.M.M.M.M.M.M.MX&X&X&X&X&./././X*X*X=X=X-X-X;X; { J { bX$",
"X@X@XOXOXOX#X#X#.{.{X#XOXOXOXoXoX%X%X%X%X@X@X@X@XoXoXoXoXoXoXoXoXoXoXo.^.^.^.^.D.D.D.D.D.D.B.B.B.B.B.B.B.B.B.B.B.M.M.M.M.M.M.M.MX:X&X&X&X&./././X*X*X=X=X-X-X;X;.k E { bX$",
"X>X>X%X%X,X,X,X<X#X#X#X#X#X#X#X#X<X<X<X,X,X,X%X%X,X,XO.}.}.].]X1XoXoXo.^.^.^.^.^.^.^.^.D.D.B.B.N.N.N.N.N.N.N.N.N.G.G.G.G.G.G.G.G.l.l.l.j.j.j.j.j.,.,.&.&.&.&.& T T A T ZX2",
"X>X>X%X%X,X,X,X<X#X#X#X#X#X#X#X#X<X<X<X,X,X,X%X%X,XOXOXO.}.}.].]XoXoXoXoXo.^.^.^Xo.^.^.D.D.B.B.B.B.B.B.B.B.B.B.B.G.G.G.G.G.G.G.G.l.l.l.l.l.j.j.j.,.,.,.,.&.&.&.&.& F T ZX3",
"X>X>X%X%X,X,X,X<X<X<X<X<X<X<X<X<X<X<X<X,X,X,X%X%XOXOXOXOXOXOXOXOX@X@X@XoXoXoXoXoXoXoXo.^.^.D.D.B.B.B.B.B.B.B.B.B.G.G.G.G.G.G.G.G.M.M.M.l.l.l.l.l.z.z.,.,.,.,.&.&.& F.& AX3",
"X>X>X%X%X,X,X,X<X<X<X<X<X<X<X<X<X<X<X<X,X,X,X%X%XOXOXOXOXOX,X,X,X@X@X@X@X@XoXoXoX@XoXo.^.^.D.D.D.D.D.D.D.D.D.D.D.G.G.G.G.G.G.G.G.M.M.M.M.M.l.l.l.z.z.z.z.,.,.,.,., T.& AX4",
"X>X>X%X%X,X,X,X<X<X<X<X<X<X<X<X<X<X<X<X,X,X,X%X%XOXOXOXOXOX,X,X,X@X@X@X@X@XoXoXoX@XoXo.^.^.D.D.D.D.D.D.D.D.D.D.D.G.G.G.G.G.G.G.G.M.M.M.M.M.l.l.l.z.z.z.z.,.,.,.,., T.& AX4",
"X>X>X%X%X,X,X,X<X<X<X<X<X<X<X<X<X<X<X<X,X,X,X%X%XOXOXOXOXOXOXOXOX@X@X@XoXoXoXoXoXoXoXo.^.^.D.D.B.B.B.B.B.B.B.B.B.G.G.G.G.G.G.G.G.M.M.M.l.l.l.l.l.z.z.,.,.,.,.&.&.& F.& AX3"
};
