/* XPM */
static char *freeimage[] = {
/* width height num_colors chars_per_pixel */
"115 14 196 2",
/* colors */
"   c #0e0f0a",
" . c #060702",
" X c #050601",
" o c #080904",
" O c #060900",
" + c #000100",
" @ c #070400",
" # c #251a16",
" $ c #493735",
" % c #593f40",
" & c #4d2f31",
" * c #3b1b1e",
" = c #2b1d1d",
" - c #200c0e",
" ; c #200308",
" : c #39181f",
" > c #492a30",
" , c #2b1719",
" < c #0b0100",
" 1 c #090804",
" 2 c #080000",
" 3 c #2c2422",
" 4 c #746c6a",
" 5 c #716967",
" 6 c #271f1d",
" 7 c #070000",
" 8 c #0b0301",
" 9 c #060701",
" 0 c #040500",
" q c #050600",
" w c #070802",
" e c #060902",
" r c #080702",
" t c #090803",
" y c #0a0904",
" u c #0b0a05",
" i c #0c0b06",
" p c #0d0c07",
" a c #0e0d08",
" s c #0f0e09",
" d c #110706",
" f c #191e18",
" g c #4b6671",
" h c #080500",
" j c #0c0401",
" k c #120403",
" l c #170505",
" z c #190305",
" x c #1a0104",
" c c #0d0302",
" v c #110102",
" b c #362023",
" n c #53383d",
" m c #3b2226",
" M c #180809",
" N c #0b0603",
" B c #1b1311",
" V c #150d0b",
" C c #060000",
" Z c #0f0705",
" A c #0e0604",
" S c #4c6772",
" D c #080806",
" F c #090806",
" G c #080705",
" H c #070302",
" J c #0b0102",
" K c #0d0304",
" L c #090502",
" P c #1e1010",
" I c #2c191b",
" U c #0f0000",
" Y c #070602",
" T c #070904",
" R c #0a0502",
" E c #040000",
" W c #050000",
" Q c #0c0704",
" ! c #070200",
" ~ c #070a03",
" ^ c #080903",
" / c #120807",
" ( c #4e6974",
" ) c #09070a",
" _ c #080609",
" ` c #070508",
" ' c #08080a",
" ] c #0b0b0d",
" [ c #070709",
" { c #040406",
" } c #0a0c09",
" | c #070604",
".  c #0b0203",
".. c #060201",
".X c #020200",
".o c #030804",
".O c #090504",
".+ c #0b0706",
".@ c #0e0a09",
".# c #0c0807",
".$ c #080403",
".% c #080b04",
".& c #090a04",
".* c #100d08",
".= c #110e09",
".- c #120f0a",
".; c #506b76",
".: c #040207",
".> c #06050a",
"., c #07060b",
".< c #05060a",
".1 c #020307",
".2 c #000306",
".3 c #000508",
".4 c #02070a",
".5 c #000400",
".6 c #090e0a",
".7 c #060604",
".8 c #050402",
".9 c #11100e",
".0 c #0b0b09",
".q c #040603",
".w c #040301",
".e c #060503",
".r c #536e79",
".t c #050608",
".y c #07080a",
".u c #060709",
".i c #040507",
".p c #010506",
".a c #030708",
".s c #060a0b",
".d c #000503",
".f c #040807",
".g c #020605",
".h c #000201",
".j c #010302",
".k c #030303",
".l c #070506",
".z c #0b0b0b",
".x c #080808",
".c c #050505",
".v c #0a0a0a",
".b c #040404",
".n c #060606",
".m c #010101",
".M c #56717c",
".N c #060b07",
".B c #040905",
".V c #050704",
".C c #060805",
".Z c #070705",
".A c #010000",
".S c #030706",
".D c #030504",
".F c #0a0607",
".G c #090305",
".H c #070707",
".J c #090909",
".K c #120d09",
".L c #130e0a",
".P c #57727d",
".I c #010801",
".U c #020701",
".Y c #060501",
".T c #0d0805",
".R c #060a09",
".E c #070908",
".W c #060405",
".Q c #050001",
".! c #0c0306",
".~ c #040605",
".^ c #0a0c0b",
"./ c #020403",
".( c #0c0e0d",
".) c #060807",
"._ c #130908",
".` c #58737e",
".' c #0f100b",
".] c #070803",
".[ c #0f0c07",
".{ c #0f0b08",
".} c #1d1c18",
".| c #5b6e7c",
"X  c #0e0a07",
"X. c #1e1d19",
"XX c #5c6f7d",
"Xo c #10110c",
"XO c #13100b",
"X+ c #201f1b",
"X@ c #5e717f",
"X# c #23221e",
"X$ c #617482",
"X% c #100c09",
"X& c #252420",
"X* c #637684",
/* pixels */
"   . X o . . o X O + @ # $ % & * = - ; : > , < 1 2 3 4 5 6 7 8 2 9 9 9 9 9 9 9 9 . . . . . . . . 9 9 9 9 9 9 9 9 0 q q 9 9 w w w e e e w w r r r r r r r r r r r r t y y u y y y u u i i p p i i i i i p p p p p a a a a a s s s d f g",
"   . X o . . o X e 9 h j k l z x c v b n m M N X 8 2 B V C C Z A 9 9 9 9 9 9 9 9 . . . . . . . . 9 9 9 9 9 9 9 9 q q q 9 9 w w w e e e w w r r r r r r r r r r r r t y y u y y y y u i i p p i i i i i p p p p p a a a a s s s s d f S",
"   . X o . . o X D F G H C 2 J K L C P I U 7 Y T R E E E W Q ! E . . . . . . . . . . . . . . . . 9 9 9 9 9 9 9 9 q q q 9 9 w w w ~ ~ ~ ^ ^ t t t r r r r r r r r r t y y u y y y y u i i i i i i i i i p p p p p a a a a s s s s / f (",
"   . X o . . o X ) _ ` ' ] ] [ { } | W 2. ...X.o E.O.+.+.@.#...$ . . . . . . . . . . . . . . . . 9 9 9 9 9 9 9 9 q q 9 9 w w ^ ^.%.%.%.&.& y y y r r r r r r r r r t y y u y y y y u u i i i i u i i i p p p p p.*.*.*.=.=.=.=.- / f.;",
"   . X o . . o X.:.>.,.<.1.2.3.4.5.6.7.8.9.0 +.q G |.w.8.e.e G G.7.7.7.7.7.7.7.7 . . . . . . . . 9 9 9 9 9 9 9 9 q q 9 9 w w ^ ^.%.%.%.&.& y y y r r r r r r r r r t y y u y y y y y u i i i u u i i i p p p p p.*.=.=.=.=.-.-.- / f.r",
"   . X o . . o X {.t.y.u.i.p.a.s.d.f.g.h.j.k.k.l.z.x.c.v.x.b.n.m.7.7.7.7.7.7.7.7 . . . . . . . . 9 9 9 9 9 9 9 9 9 9 9 w w ^ ^ ^.%.%.%.&.& y y y r r r r r r r r r t y y u y y y t y u u i i u u i i i p p p p p.=.=.=.=.-.-.-.- / f.M",
"   . X o . . o X.N.B.V.C D.Z.w.A.f.S.f.g.D.n.F.G.k.n.k.x.H.m.H.J.7.7.7.7.7.7.7.7 . . . . . . . . 9 9 9 9 9 9 9 9 9 9 9 w w ^ ^ ^ ~ ~ ~ ^ ^ t t t r r r r r r r r r t y y u y y y t y u u u u u u i i i p p p p p.K.K.K.K.L.L.L.L / f.P",
"   . X o . . o X.I.U.U X.Y L Q.T.h.R.R.S.E.W.Q.!.~.^./.E.(./.D.).7.7.7.7.7.7.7.7 . . . . . . . . 9 9 9 9 9 9 9 9 9 9 9 w w ^ ^.& ~ ~ ~ ^ ^ t t t r r r r r r r r r t y y u y y y t y y u u u u u i i i p p p p p.K.K.K.L.L.L.L.L._ f.`",
".' . 0.] X X.] X 9 9 9 9 9 9 9 9 9 9 9 9 9 9 9 9 9 9 9 9 9 9 9 9 . . . . . . . . 9 9 9 9 9 9 9 9 9 9 9 9 w w w w w w ^ ^ ^ ^.&.& t t t t t t t t t t t t t t t t y t t t t y u u u u u u u i i i.[.[.[.*.=.=.=.-.*.=.=.=.=.=.-.-.{.}.|",
".' . X.] X ..] X 9 9 9 9 9 9 9 9 9 9 9 9 9 9 9 9 9 9 9 9 9 9 9 9 . . . . . . . . 9 9 9 9 9 9 9 9 9 9 9 9 w w w w w w ^ ^ ^ ^.&.& t t t t t t t t t t t t t t t t y t t t t y u u u u u i i i i i.[.[.[.*.=.=.=.-.=.=.=.=.-.-.-.-X X.XX",
"Xo.] X o . . o . 9 9 9 9 9 9 9 9 9 9 9 9 9 9 9 9 9 9 9 9 9 9 9 9 . . . . . . . . 9 9 9 9 9 9 9 9 9 9 9 9 w w w w w w ^ ^ ^ ^.&.& t t t t t t t t t t t t t t t t y t t t t y u u i i i i i p p p.[.[.[.*.=.=.=.-.=.=.-.-.-.-XOXOX X+X@",
"Xo.] X o . . o . 9 9 9 9 9 9 9 9 9 9 9 9 9 9 9 9 9 9 9 9 9 9 9 9 . . . . . . . . 9 9 9 9 9 9 9 9 9 9 9 9 w w w w w w ^ ^ ^ ^.&.& t t t t t t t t t t t t t t t t y t t t t y u u i i i p p p p p.[.[.[.*.=.=.=.-.-.-.-.-XOXOXOXOX X#X$",
"Xo.] X o . . o . 9 9 9 9 9 9 9 9 9 9 9 9 9 9 9 9 9 9 9 9 9 9 9 9 . . . . . . . . 9 9 9 9 9 9 9 9 9 9 9 9 w w w w w w ^ ^ ^ ^.&.& t t t t t t t t t t t t t t t t y t t t t y u u i i i p p p p p.[.[.[.*.=.=.=.-.-.-.-.-XOXOXOXOX%X&X*",
"Xo.] X o . . o . 9 9 9 9 9 9 9 9 9 9 9 9 9 9 9 9 9 9 9 9 9 9 9 9 . . . . . . . . 9 9 9 9 9 9 9 9 9 9 9 9 w w w w w w ^ ^ ^ ^.&.& t t t t t t t t t t t t t t t t y t t t t y u u i i i i i p p p.[.[.[.*.=.=.=.-.=.=.-.-.-.-XOXOX%X#X$"
};
