/* XPM */
static char *freeimage[] = {
/* width height num_colors chars_per_pixel */
"43 15 95 2",
/* colors */
"   c #0f0f0d",
" . c #060604",
" X c #040402",
" o c #070803",
" O c #050601",
" + c #070802",
" @ c #050600",
" # c #060702",
" $ c #060701",
" % c #020300",
" & c #0e0f0a",
" * c #030301",
" = c #070705",
" - c #030303",
" ; c #050505",
" : c #0a0a0a",
" > c #070707",
" , c #040404",
" < c #090909",
" 1 c #060606",
" 2 c #020202",
" 3 c #080808",
" 4 c #030400",
" 5 c #000100",
" 6 c #010100",
" 7 c #080806",
" 8 c #0b0c07",
" 9 c #0c0c0a",
" 0 c #000000",
" q c #0f0f0f",
" w c #0e0e0c",
" e c #0e0e0e",
" r c #0c0c0c",
" t c #101010",
" y c #0d0d0d",
" u c #080904",
" i c #040500",
" p c #575757",
" a c #181818",
" s c #565656",
" d c #161616",
" f c #232323",
" g c #2d2d2d",
" h c #0a0b06",
" j c #020200",
" k c #11110f",
" l c #959595",
" z c #313131",
" x c #1f1f1f",
" c c #949494",
" v c #2b2b2b",
" b c #a0a0a0",
" n c #5a5a5a",
" m c #9f9f9f",
" M c #151515",
" N c #686868",
" B c #363636",
" V c #8f8f8f",
" C c #6b6b6b",
" Z c #a2a2a2",
" A c #2c2c2c",
" S c #121212",
" D c #7f7f7f",
" F c #bebebe",
" G c #777777",
" H c #050503",
" J c #10100e",
" K c #a5a5a3",
" L c #272725",
" P c #909090",
" I c #757575",
" U c #b5b5b5",
" Y c #0d0d0b",
" T c #a4a4a2",
" R c #323230",
" E c #252525",
" W c #a8a8a8",
" Q c #717171",
" ! c #b3b3b3",
" ~ c #383838",
" ^ c #181816",
" / c #c3c3c1",
" ( c #343432",
" ) c #333333",
" _ c #bdbdbd",
" ` c #adadad",
" ' c #060608",
" ] c #090907",
" [ c #0a0a08",
" { c #464644",
" } c #454545",
" | c #1d1d1d",
".  c #0b0b09",
".. c #131311",
".X c #010101",
/* pixels */
"   . X o O O + @ . . . # # # $ $ o % & * = - ; : > - - , < 1 2 3 1 1 1 1 1 1 1 1 1 1 1",
"   . X o O O + @ . . . # # # $ $ o 4 5 6 7 > : 1 < < ; ; > < 1 1 1 1 1 1 1 1 1 1 1 1 1",
"   . X o O O + @ . . . # # # $ $ o 8 5 9 X 0 , > 0 q , q > 0 > > 1 1 1 1 1 1 1 1 1 1 1",
"   . X o O O + @ . . . # # # $ $ 4 o 5 w 0 e 0 ; r 0 0 t 0 1 y < 1 1 1 1 1 1 1 1 1 1 1",
"   . X o O O + @ . . . # # # $ $ u i 5 7 9 p a 1 q s d 0 f g 0 > 1 1 1 1 1 1 1 1 1 1 1",
"   . X o O O + @ . . . # # # $ $ o h h j k l z , x c 0 v b n < > 1 1 1 1 1 1 1 1 1 1 1",
"   . X o O O + @ . . . # # # $ $ 5 u u 0 7 m g 0 M N B V C 0 2 3 1 1 1 1 1 1 1 1 1 1 1",
"   . X o O O + @ . . . # # # $ $ O o % =   Z A - S D F G 0 3 ; ; 1 1 1 1 1 1 1 1 1 1 1",
"   . X = H H = H $ $ $ $ $ $ $ $ = * X = J K L 6 S P I U v 0 q ; 1 1 1 1 1 1 1 1 1 1 1",
"   . X = H H = H # # # # # # # # * w * H Y T R 0 E W r Q ! ~ 0 q 1 1 1 1 1 1 1 1 1 1 1",
"   . X = H H = H 1 1 1 1 1 1 1 1 . 0   0 ^ / ( 0 ) _ : > I ` S 0 1 1 1 1 1 1 1 1 1 1 1",
"   . X = H H = H ' ' ' ' ' ' ' ' 7 X 7 ] [ { J H M } > 0 t | 3 3 1 1 1 1 1 1 1 1 1 1 1",
"   . X = H H = H ' ' ' ' ' ' ' ' 7 ] H = * 0 * . , 0 y ; 2 , - 0 1 1 1 1 1 1 1 1 1 1 1",
"   . X = H H = H 1 1 1 1 1 1 1 1 [ 6 7 X 7 [ * . - t 0 e 0 < r ; 1 1 1 1 1 1 1 1 1 1 1",
"   . X = H H = H # # # # # # # # X.  0.. 6 9 * [.X 2 3 e 0 3 0 , 1 1 1 1 1 1 1 1 1 1 1"
};
