/* XPM */
static char *freeimage[] = {
/* width height num_colors chars_per_pixel */
"96 33 87 1",
/* colors */
"  c #685c44",
". c #6b5c45",
"X c #675b43",
"o c #665a42",
"O c #675a47",
"+ c #685942",
"@ c #695942",
"# c #685944",
"$ c #655943",
"% c #645842",
"& c #635741",
"* c #625640",
"= c #61553f",
"- c #5f533d",
"; c #615441",
": c #605340",
"> c #5e513e",
", c #605342",
"< c #645746",
"1 c #6a5b44",
"2 c #695a43",
"3 c #60543e",
"4 c #655847",
"5 c #695a45",
"6 c #5f523f",
"7 c #615443",
"8 c #695d45",
"9 c #685c46",
"0 c #625542",
"q c #6a5e46",
"w c #6a5a43",
"e c #625544",
"r c #665948",
"t c #6c5d46",
"y c #665a44",
"u c #635643",
"i c #675a49",
"p c #6d5e47",
"a c #6a5b46",
"s c #675b45",
"d c #635645",
"f c #6b5f47",
"g c #6e5f48",
"h c #675843",
"j c #645943",
"k c #695d47",
"l c #655a44",
"z c #6f6049",
"x c #6c6048",
"c c #6a5e48",
"v c #706049",
"b c #6f5f48",
"n c #716148",
"m c #6e6046",
"M c #6f6147",
"N c #716147",
"B c #6f6146",
"V c #706247",
"C c #71614a",
"Z c #70614a",
"A c #6d6149",
"S c #726249",
"D c #73634a",
"F c #726248",
"G c #796950",
"H c #78684f",
"J c #77694f",
"K c #76684e",
"L c #77674e",
"P c #76664d",
"I c #76664f",
"U c #75664f",
"Y c #746850",
"T c #73674f",
"R c #72664e",
"E c #74654e",
"W c #726650",
"Q c #71654f",
"! c #70644e",
"~ c #6f644e",
"^ c #6e634d",
"/ c #6e624c",
"( c #6d614b",
") c #6f604b",
"_ c #6e5f4a",
"` c #6c604a",
"' c #6b5f49",
/* pixels */
"        ........   XXXXoOOOOOOOOXXX+++@@################$$$$$$$$%%%%%%%%%%%&&&&&********=--;:>,<",
"        11111111   XXXXXOOOOOOOOXXX2++@@################$$$$$$$$%%%%%%%%%%%%&&&&********=33;:>,4",
"        11111111     XXXOOOOOOOOXXX2++@@55555555########%%%%%%%%%%%%%%%%%%%%&&&&*********33;:674",
"8888888811111111888     99999999 XX22+@@55555555########$$$$$$$$$$$$$$$$$%%%%&&&&&&&&&&&*=30;674",
"qqqqqqqq........88888   99999999   222w@55555555########$$$$$$$$$$$$$$$$$$$%%%%&%%%%%%%%&==0;:er",
"qqqqqqqqttttttttqqq88888           122ww5555555555555555yyyyyyyy$$$$$$$$$$$$%%%%%%%%%%%%&**u0:ei",
"qqqqqqqqppppppppqqqqq888           122wwaaaaaaaa55555555ssssssss$$$$$$$$$$$$%%%%%%%%%%%%%**u0;di",
"ffffffffppppppppfqqqq888           112wwaaaaaaaa5555555599999999$$$$$$$$$$$$$%%%$$$$$$$$%**u0;di",
"ggggggggpppppppppppppppp888888888888            XXXXXXXX11111111########++++++++hhh$$jjj$%%y$&%9",
"ggggggggppppppppppppppppqqqqqqqqq8888           XXXXXXXX22222222########++++++++hhh$$jjj$%%y$&%9",
"ggggggggppppppppppppppppqqqqqqqqqqq88888                2222222255555555++++++++hhh$$jjj$%%y$&$9",
"ggggggggppppppppppppppppqqqqqqqqqqqqq88888888888        2222222255555555++++++++hhh$$jjjy%$y$&$k",
"ggggggggggggggggggggggggfffffffffffqqqqqqqqqqqqq888888882222222255555555++++++++###yyllly%$sy%$k",
"zzzzzzzzggggggggggggggggxxxxxxxxfffffqqqqqqqqqqq88888888111111115555555522222222###yyllly$$sy%$k",
"zzzzzzzzggggggggggggggggxxxxxxxxxxxffffqqqqqqqqqqqqqqqqq........aaaaaaaa22222222###yyllly$$sy%yk",
"zzzzzzzzggggggggggggggggxxxxxxxxxxxxffffffffffffqqqqqqqq........aaaaaaaa22222222###yyllly$$sy%yc",
"vvvvvvvvzzzzzzzzbbbbbbbbggggggggxxxxxxxxggggppppffffffffqqqq88888    XXX.111122255555555yssy$$y9",
"vvvvvvvvzzzzzzzzbbbbbbbbggggggggxxxxxxxxgggggpppffffffffqqqq888888    XX.111112255555555yssy$$y9",
"vvvvvvvvggggggggvvvvvvvvzzzzzzzzxxxxxxxxzggggpppffffffffffqqqq888888    ..11111255555555ysss$$s9",
"nnnnnnnnmmmmmmmmvvvvvvvvzzzzzzzzggggggggzzzggggpffffffffffffqqqqqq8888  ....1111aaaaaaaass9syys9",
"nnnnnnnnMMMMMMMMvvvvvvvvzzzzzzzzggggggggzzzzggggxxxxxxxxxxffffqqqqqq8888....1111aaaaaaaas99syysk",
"NNNNNNNNBBBBBBBBvvvvvvvvzzzzzzzzzzzzzzzzzzzzzgggxxxxxxxxxxxxffffffqqqq88t.....11aaaaaaaas99syysk",
"NNNNNNNNVVVVVVVVCCCCCCCCZZZZZZZZvvvvvvvvZzzzzgggxxxxxxxxAAxxxxffffffqqqqtt.....1aaaaaaaas999yy9k",
"NNNNNNNNVVVVVVVVCCCCCCCCZZZZZZZZvvvvvvvvZZzzzzggxxxxxxxxAAAxxxxfffffqqqqttt....1aaaaaaaas999yy9k",
"SSSSSSSSSSSSSSSSnnnnnnnnCCCCCCCCvvvvvvvvAAAAAAAAzzzzzzzzggggggggxxxxxxxxffqqqq88...1122+syysy%$k",
"SSSSSSSSSSSSSSSSnnnnnnnnCCCCCCCCvvvvvvvvAAAAAAAAzzzzzzzzggggggggxxxxxxxxfffqqqq8t..11222syysy%$k",
"SSSSSSSSSSSSSSSSnnnnnnnnCCCCCCCCvvvvvvvvAAAAAAAAzzzzzzzzggggggggxxxxxxxxfffqqqqqttt..112syysy%$k",
"SSSSSSSSSSSSSSSSnnnnnnnnnnnnnnnnnnnnnnnnZZZZZZZZzzzzzzzzggggggggxxxxxxxxffffqqqqptt..111syysy%$k",
"SSSSSSSSSSSSSSSSSSSSSSSSSSSSSSSSnnnnnnnnZZZZZZZZzzzzzzzzggggggggxxxxxxxxxffffqqqptt..111syysy%$k",
"DDDDDDDDDDDDDDDDSSSSSSSSFFFFFFFFNNNNNNNNZZZZZZZZzzzzzzzzggggggggxxxxxxxxxxxffffqttt..112syysy%$k",
"DDDDDDDDDDDDDDDDSSSSSSSSFFFFFFFFNNNNNNNNCCCCCCCCzzzzzzzzggggggggxxxxxxxxxxxffffft..11222syysy%$k",
"DDDDDDDDDDDDDDDDSSSSSSSSFFFFFFFFNNNNNNNNCCCCCCCCzzzzzzzzggggggggxxxxxxxxxxxxffff...1122+syysy%$k",
"GGGGGGGGHHHHHHHHJJJJKKKKLLPPPPLLIIIIIIIIUUUUUUUUYYTTTTRREEEEEEEEWWWWQQQQQQQQQ!!!~~^/()__`'`(`c`!"
};
