/* XPM */
static char *freeimage[] = {
/* width height num_colors chars_per_pixel */
"25 22 539 2",
/* colors */
"   c #7fb577",
" . c #8ec37f",
" X c #95c87d",
" o c #90c376",
" O c #88bf7b",
" + c #7fbb85",
" @ c #69ad88",
" # c #519a7f",
" $ c #488c8b",
" % c #4b8f8e",
" & c #488f8b",
" * c #3f8680",
" = c #4f968e",
" - c #499186",
" ; c #428c7f",
" : c #3c8677",
" > c #2f8383",
" , c #37888b",
" < c #408f93",
" 1 c #46959a",
" 2 c #4b9ba2",
" 3 c #4ea3aa",
" 4 c #4ea7ad",
" 5 c #4daaaf",
" 6 c #51b1bf",
" 7 c #76af7c",
" 8 c #84b981",
" 9 c #8dc181",
" 0 c #88bc7a",
" q c #7fb77a",
" w c #74b281",
" e c #63a683",
" r c #539981",
" t c #4c9491",
" y c #408684",
" u c #458c88",
" i c #438a86",
" p c #428782",
" a c #3f857d",
" s c #448a80",
" d c #367c72",
" f c #36878a",
" g c #38878b",
" h c #3e8b91",
" j c #47949c",
" k c #4c9ca5",
" l c #4ca1a8",
" z c #4aa4ac",
" x c #4aa8b0",
" c c #51aebd",
" v c #67a080",
" b c #71a984",
" n c #79b184",
" m c #7bb481",
" M c #77b380",
" N c #6eac83",
" B c #5ea182",
" V c #52967f",
" C c #499190",
" Z c #448c8b",
" A c #428886",
" S c #3d827f",
" D c #428482",
" F c #3e7f7b",
" G c #417f7c",
" H c #427f7a",
" J c #347f84",
" K c #368186",
" L c #3e898f",
" P c #48929b",
" I c #4a98a2",
" U c #459ca6",
" Y c #45a1ac",
" T c #48a9b2",
" R c #50aeba",
" E c #5f998d",
" W c #639e8c",
" Q c #6ba68a",
" ! c #72ae8c",
" ~ c #73b18c",
" ^ c #69a889",
" / c #5c9c84",
" ( c #53927f",
" ) c #468c8a",
" _ c #4e9291",
" ` c #519392",
" ' c #508d8e",
" ] c #559191",
" [ c #558d8e",
" { c #518789",
" } c #54878a",
" | c #43878a",
".  c #408389",
".. c #3f848b",
".X c #428892",
".o c #44909d",
".O c #469aa5",
".+ c #47a3ae",
".@ c #48a8b4",
".# c #51adb8",
".$ c #5f9a98",
".% c #619d95",
".& c #67a495",
".* c #6ba992",
".= c #6ba990",
".- c #68a38d",
".; c #659e8b",
".: c #649d8e",
".> c #68a3a1",
"., c #72adab",
".< c #81b9b8",
".1 c #87bdbd",
".2 c #85b8bb",
".3 c #8dbdc1",
".4 c #8cbcc0",
".5 c #85b2b7",
".6 c #6ea8aa",
".7 c #67a1a5",
".8 c #5a959b",
".9 c #4c8b94",
".0 c #488e98",
".q c #4a9aa5",
".w c #4da5b1",
".e c #4ba9b5",
".r c #55afba",
".t c #5d9594",
".y c #5f9a94",
".u c #63a196",
".i c #65a493",
".p c #66a391",
".a c #6fa595",
".s c #7db0a1",
".d c #8bb9ae",
".f c #8cb6b4",
".g c #9ec8c6",
".h c #93bdbb",
".j c #8bb5b4",
".k c #90b9bb",
".l c #86afb3",
".z c #90b9bd",
".x c #8db9b8",
".c c #91bfbf",
".v c #79aeb4",
".b c #5e9da6",
".n c #4e98a1",
".m c #4ca0aa",
".M c #4fa9b2",
".N c #57afb9",
".B c #5c938d",
".V c #5e978e",
".C c #5e9a8e",
".Z c #619e8e",
".A c #6da697",
".S c #81b4a5",
".D c #98c2b8",
".F c #a7cac3",
".G c #b6cfcc",
".H c #b7d1ce",
".J c #a9c6c4",
".K c #a5c3c1",
".L c #9bbdbc",
".P c #96baba",
".I c #8db3b4",
".U c #97bfbf",
".Y c #95b8b4",
".T c #99bbba",
".R c #9dc3c4",
".E c #98c5c8",
".W c #82b9be",
".Q c #64a7af",
".! c #53a2a9",
".~ c #53a8af",
".^ c #59b0b9",
"./ c #669b91",
".( c #5f998b",
".) c #5b9889",
"._ c #76afa0",
".` c #91bfb4",
".' c #a2c7bf",
".] c #a6c5bf",
".[ c #8a9994",
".{ c #637370",
".} c #889c9a",
".| c #afc8c5",
"X  c #819f9d",
"X. c #8caead",
"XX c #a3cac9",
"Xo c #86aead",
"XO c #a1bcb5",
"X+ c #89a6a2",
"X@ c #82a2a1",
"X# c #93bbbd",
"X$ c #99ccd0",
"X% c #82c1c8",
"X& c #63aeb4",
"X* c #52a5ab",
"X= c #619996",
"X- c #5c9493",
"X; c #6ba1a3",
"X: c #89bbba",
"X> c #95bfbd",
"X, c #9bbfbb",
"X< c #b2d1cb",
"X1 c #414745",
"X2 c #424443",
"X3 c #403e3f",
"X4 c #8d8b8c",
"X5 c #4e5251",
"X6 c #566761",
"X7 c #afcdc3",
"X8 c #9ec4b7",
"X9 c #b6b9c0",
"X0 c #102226",
"Xq c #83a7a7",
"Xw c #9cc8c9",
"Xe c #8fbcc2",
"Xr c #93c5ce",
"Xt c #7fbec7",
"Xy c #5ea9af",
"Xu c #54adb3",
"Xi c #5d9588",
"Xp c #61998e",
"Xa c #619990",
"Xs c #75a9a5",
"Xd c #95c6c2",
"Xf c #9cc5c1",
"Xg c #9cbfb9",
"Xh c #b2cfca",
"Xj c #393f3d",
"Xk c #b3b7b6",
"Xl c #949695",
"Xz c #3f4342",
"Xx c #9fa8a5",
"Xc c #1c2b26",
"Xv c #a6bdb5",
"Xb c #b9d4cb",
"Xn c #656d70",
"Xm c #4c605f",
"XM c #9fc3c1",
"XN c #9cc6c5",
"XB c #92bdc3",
"XV c #95c4cc",
"XC c #92cdd5",
"XZ c #65acb2",
"XA c #50a9b1",
"XS c #649b7e",
"XD c #6ca28a",
"XF c #6ba28f",
"XG c #7eb2a5",
"XH c #9dcac3",
"XJ c #9cc3be",
"XK c #9dbcb7",
"XL c #b5d0cb",
"XP c #444a46",
"XI c #77807b",
"XU c #58635d",
"XY c #7a8982",
"XT c #ccdbd4",
"XR c #303f38",
"XE c #6d7a73",
"XW c #cdd8d2",
"XQ c #23322f",
"X! c #88a39e",
"X~ c #a8cfca",
"X^ c #94bcbb",
"X/ c #98bec1",
"X( c #98c0c8",
"X) c #9fd4da",
"X_ c #6aabaf",
"X` c #4fa5b2",
"X' c #73aa83",
"X] c #76ae8b",
"X[ c #71a88b",
"X{ c #7eb19e",
"X} c #9ac5bb",
"X| c #9abfb8",
"o  c #9dbab6",
"o. c #b8d1ce",
"oX c #444d48",
"oo c #28352e",
"oO c #60756c",
"o+ c #a8c2b7",
"o@ c #b4cec3",
"o# c #86978f",
"o$ c #404642",
"o% c #686866",
"o& c #475c55",
"o* c #abcac2",
"o= c #9bc3bb",
"o- c #8cb3b0",
"o; c #9abdc1",
"o: c #9bc0c8",
"o> c #9cced5",
"o, c #6cacae",
"o< c #4fa5b4",
"o1 c #79b287",
"o2 c #73ab86",
"o3 c #689f82",
"o4 c #73a693",
"o5 c #9dc1bd",
"o6 c #a3c1bf",
"o7 c #b6d0cf",
"o8 c #3a4642",
"o9 c #697e77",
"o0 c #c9e7dd",
"oq c #9abeb2",
"ow c #9cbdb2",
"oe c #b7cec6",
"or c #2f3a36",
"ot c #0d0d0d",
"oy c #9ab5ae",
"ou c #aed1ca",
"oi c #8fb8b0",
"op c #8eb5b4",
"oa c #99bcc0",
"os c #a0c7ce",
"od c #8cc3c8",
"of c #65abad",
"og c #52a5b5",
"oh c #6da985",
"oj c #629d7d",
"ok c #58927a",
"ol c #669c8e",
"oz c #86b5ad",
"ox c #9bc3c2",
"oc c #a4c6c7",
"ov c #adc9cc",
"ob c #485c5b",
"on c #7b9592",
"om c #a9ccc6",
"oM c #8bb4ac",
"oN c #8eb6ae",
"oB c #a4c3be",
"oV c #6e8281",
"oC c #616c6e",
"oZ c #aecdc7",
"oA c #92bab2",
"oS c #8eb8b4",
"oD c #98c0c0",
"oF c #98bdc5",
"oG c #9ac6cf",
"oH c #73b4ba",
"oJ c #52a3a6",
"oK c #53a6b4",
"oL c #5e9c83",
"oP c #589681",
"oI c #559283",
"oU c #5c958e",
"oY c #6da19d",
"oT c #87b3b4",
"oR c #9ac0c1",
"oE c #a2c1c4",
"oW c #b1cdd0",
"oQ c #9dbcbe",
"o! c #9ac1c0",
"o~ c #8eb8b6",
"o^ c #92bcba",
"o/ c #86adac",
"o( c #a8c7c9",
"o) c #9ebabd",
"o_ c #98b8b7",
"o` c #84abaa",
"o' c #90bcbb",
"o] c #97c0c4",
"o[ c #8bb6bf",
"o{ c #7aaeb9",
"o} c #55a2a8",
"o| c #46a5a7",
"O  c #57abb5",
"O. c #579685",
"OX c #59978a",
"Oo c #5e9b93",
"OO c #599490",
"O+ c #558b8d",
"O@ c #6c9c9e",
"O# c #8db5b7",
"O$ c #99b8bd",
"O% c #a3c4c9",
"O& c #8bb3b5",
"O* c #90bcbd",
"O= c #89b5b6",
"O- c #95c1c2",
"O; c #88b1b3",
"O: c #8eb6b8",
"O> c #95b4b6",
"O, c #92b8b9",
"O< c #95c1c4",
"O1 c #8cb7be",
"O2 c #7aa6b1",
"O3 c #57919d",
"O4 c #45989e",
"O5 c #4bb3b4",
"O6 c #5cb1b8",
"O7 c #5c8f8a",
"O8 c #5b908a",
"O9 c #5c938e",
"O0 c #5e9695",
"Oq c #4e8b8c",
"Ow c #549496",
"Oe c #61a0a5",
"Or c #8aaab7",
"Ot c #99b6c4",
"Oy c #9fb9c6",
"Ou c #a0b8c4",
"Oi c #9eb9c2",
"Op c #97b6bb",
"Oa c #8fb2b6",
"Os c #91b7b8",
"Od c #8cbebb",
"Of c #82bab7",
"Og c #6dafad",
"Oh c #55a09c",
"Oj c #499591",
"Ok c #4b928e",
"Ol c #53908b",
"Oz c #558c87",
"Ox c #437c76",
"Oc c #599684",
"Ov c #569381",
"Ob c #569584",
"On c #56958a",
"Om c #4f9187",
"OM c #4c8d85",
"ON c #4f908a",
"OB c #4c958a",
"OV c #599f95",
"OC c #66a59d",
"OZ c #6ea9a3",
"OA c #79b0ab",
"OS c #7cb3ae",
"OD c #76afa9",
"OF c #70aba5",
"OG c #67a195",
"OH c #4f8881",
"OJ c #427672",
"OK c #3b6865",
"OL c #3c5a58",
"OP c #3c4f4d",
"OI c #3b4642",
"OU c #4b3e38",
"OY c #65a080",
"OT c #649f7f",
"OR c #669e81",
"OE c #6aa289",
"OW c #6da38c",
"OQ c #6ca18d",
"O! c #699c8b",
"O~ c #679a8b",
"O^ c #56a18a",
"O/ c #569e88",
"O( c #589786",
"O) c #5a9083",
"O_ c #5c8e85",
"O` c #5e8b86",
"O' c #4f7c79",
"O] c #386562",
"O[ c #23473b",
"O{ c #26453d",
"O} c #2d4640",
"O| c #3a4944",
"+  c #444943",
"+. c #4a463d",
"+X c #4e4236",
"+o c #513f31",
"+O c #524330",
"++ c #73b68a",
"+@ c #77b88d",
"+# c #79b78e",
"+$ c #76b28e",
"+% c #6ea786",
"+& c #64997b",
"+* c #598b70",
"+= c #508269",
"+- c #4b755f",
"+; c #406752",
"+: c #355546",
"+> c #2d473c",
"+, c #29403a",
"+< c #283e3c",
"+1 c #122a2a",
"+2 c #00090b",
"+3 c #030000",
"+4 c #120a08",
"+5 c #2c211f",
"+6 c #483936",
"+7 c #58453e",
"+8 c #584737",
"+9 c #54442b",
"+0 c #534427",
"+q c #4e4735",
"+w c #5b7456",
"+e c #566d50",
"+r c #4b5f44",
"+t c #394b35",
"+y c #283724",
"+u c #192414",
"+i c #0e1609",
"+p c #060e03",
"+a c #2f0b0d",
"+s c #2a0308",
"+d c #280007",
"+f c #2a000c",
"+g c #340b1b",
"+h c #3d1b2c",
"+j c #301325",
"+k c #15000d",
"+l c #060000",
"+z c #0a0000",
"+x c #1d0f0e",
"+c c #382624",
"+v c #4d3a33",
"+b c #554434",
"+n c #56482e",
"+m c #57492c",
"+M c #4f4836",
"+N c #040f00",
"+B c #000800",
"+V c #000500",
"+C c #000300",
"+Z c #000200",
"+A c #010302",
"+S c #020305",
"+D c #2d010e",
"+F c #2e0211",
"+G c #300413",
"+H c #320718",
"+J c #361122",
"+K c #381929",
"+L c #291222",
"+P c #120010",
"+I c #000b02",
"+U c #000802",
"+Y c #000602",
"+T c #091410",
"+R c #292b26",
"+E c #423e35",
"+W c #4f4539",
"+Q c #544737",
"+! c #554633",
/* pixels */
"   . X o O + @ # $ % & * = - ; : > , < 1 2 3 4 5 6",
" 7 8 9 0 q w e r t y u i p a s d f g h j k l z x c",
" v b n m M N B V C Z A S D F G H J K L P I U Y T R",
" E W Q ! ~ ^ / ( ) _ ` ' ] [ { } |. ...X.o.O.+.@.#",
".$.%.&.*.=.-.;.:.>.,.<.1.2.3.4.5.6.7.8.9.0.q.w.e.r",
".t.y.u.i.p.a.s.d.f.g.h.j.k.k.l.z.x.c.3.v.b.n.m.M.N",
".B.V.C.Z.A.S.D.F.G.H.J.K.L.P.I.U.Y.T.R.E.W.Q.!.~.^",
"./.(.).Z._.`.'.].[.{.}.|X X.XXXoXOX+X@X#X$X%X&X*.^",
"X=X=X-X;X:X>X,X<X1X2X3X4X5X6X7X8X9X0XqXwXeXrXtXyXu",
"XiXpXaXsXdXfXgXhXjXkXlXzXxXcXvXbXnXmXMXNXBXVXCXZXA",
"XSXDXFXGXHXJXKXLXPXIXUXYXTXRXEXWXQX!X~X^X/X(X)X_X`",
"X'X]X[X{X}X|o o.oXoooOo+o@o#o$o%o&o*o=o-o;o:o>o,o<",
"o1o2o3o4.`o5o6o7o8o9o0oqowoeorotoyouoiopoaosodofog",
"ohojokolozoxocovobonomoMoNoBoVoCoZoAoSoDoFoGoHoJoK",
"oLoPoIoUoYoToRoEoWoQo!o~o^o/o(o)o_o`o'o]o[o{o}o|O ",
"O.OXOoOOO+O@O#oaO$O%O&O*O=O-O;O:O>O,O<O1O2O3O4O5O6",
"O7O8O9O0 ]OqOwOeOrOtOyOuOiOpOaOsOdOfOgOhOjOkOlOzOx",
"OcOvObOXOnOmOMONOBOVOCOZOAOSODOFOG.VOHOJOKOLOPOIOU",
"OYOTOROEOWOQO!O~O^O/O(O)O_O`O'O]O[O{O}O|+ +.+X+o+O",
"+++@+#+$+%+&+*+=+-+;+:+>+,+<+1+2+3+4+5+6+7+8+9+0+q",
"+w+e+r+t+y+u+i+p+a+s+d+f+g+h+j+k+l+z+x+c+v+b+n+m+M",
"+N+B+V+C+Z+Z+A+S+D+F+G+H+J+K+L+P+I+U+Y+T+R+E+W+Q+!"
};
