/* XPM */
static char *freeimage[] = {
/* width height num_colors chars_per_pixel */
"17 70 372 2",
/* colors */
"   c #0f0e09",
" . c #100f0a",
" X c #080702",
" o c #090803",
" O c #070601",
" + c #0a0904",
" @ c #090804",
" # c #080703",
" $ c #0c0904",
" % c #0c0902",
" & c #0b0b03",
" * c #0a0a02",
" = c #0d0900",
" - c #0a0a00",
" ; c #0d0a01",
" : c #0c0900",
" > c #0c0703",
" , c #0e0905",
" < c #0d0a05",
" 1 c #0e0b04",
" 2 c #0d0a03",
" 3 c #100b07",
" 4 c #0e0b06",
" 5 c #110c08",
" 6 c #0f0c07",
" 7 c #100d08",
" 8 c #100c09",
" 9 c #0f0b08",
" 0 c #120d09",
" q c #120d0a",
" w c #130e0a",
" e c #130e08",
" r c #130f06",
" t c #180f0a",
" y c #160f09",
" u c #140f09",
" i c #14110a",
" p c #15100a",
" a c #19100b",
" s c #17100a",
" d c #15120b",
" f c #16110b",
" g c #17120c",
" h c #260d09",
" j c #1e0f0a",
" k c #16110d",
" l c #15110e",
" z c #1a100f",
" x c #1b100e",
" c c #16130a",
" v c #0e1706",
" b c #19110f",
" n c #290b09",
" m c #200e0a",
" M c #15100c",
" N c #14100d",
" B c #151209",
" V c #0e1406",
" C c #2c0a08",
" Z c #210e08",
" A c #14110c",
" S c #190f0e",
" D c #161209",
" F c #101406",
" G c #19110e",
" H c #310a05",
" J c #260d08",
" K c #180f08",
" L c #18100d",
" P c #190f0d",
" I c #111308",
" U c #390a04",
" Y c #2a0d05",
" T c #1a1007",
" R c #18110b",
" E c #131309",
" W c #19120c",
" Q c #18130d",
" ! c #3f0a04",
" ~ c #2f0d04",
" ^ c #1d1007",
" / c #1a100e",
" ( c #16130c",
" ) c #19140e",
" _ c #440903",
" ` c #320d04",
" ' c #1e1206",
" ] c #16130e",
" [ c #1b110f",
" { c #1a130b",
" } c #460a02",
" | c #350d03",
".  c #201205",
".. c #14140a",
".X c #1a120f",
".o c #1b140c",
".O c #410b0b",
".+ c #3d0f0f",
".@ c #2d0e0c",
".# c #220f0b",
".$ c #1e130f",
".% c #1c110d",
".& c #1c0d08",
".* c #22110a",
".= c #1a130d",
".- c #1b140e",
".; c #400b07",
".: c #3c0f0a",
".> c #2f0e09",
"., c #230e09",
".< c #1e130d",
".1 c #1b120d",
".2 c #410c04",
".3 c #3f1008",
".4 c #351007",
".5 c #2a1208",
".6 c #23150c",
".7 c #161511",
".8 c #400e03",
".9 c #401205",
".0 c #3b1307",
".q c #321507",
".w c #29150a",
".e c #1e150c",
".r c #15140f",
".t c #111612",
".y c #3c0d03",
".u c #3d0f02",
".i c #3e1303",
".p c #3a1304",
".a c #2f1204",
".s c #231208",
".d c #17140b",
".f c #0f140e",
".g c #1c150f",
".h c #310802",
".j c #360a01",
".k c #400f01",
".l c #421102",
".z c #380e00",
".x c #2b0f01",
".c c #201408",
".v c #2b0707",
".b c #330704",
".n c #441005",
".m c #4c1302",
".M c #451000",
".N c #3a1401",
".B c #2f1a09",
".V c #25190b",
".C c #2b080e",
".Z c #35090a",
".A c #48110a",
".S c #561708",
".D c #4f1501",
".F c #481905",
".G c #3d200e",
".H c #32210f",
".J c #290101",
".K c #320903",
".L c #3f1404",
".P c #502009",
".I c #592309",
".U c #541800",
".Y c #5c1b07",
".T c #743120",
".R c #5e3110",
".E c #462106",
".W c #210a00",
".Q c #130600",
".! c #1b1811",
".~ c #232019",
".^ c #1e1a0f",
"./ c #1d1709",
".( c #1e1412",
".) c #240203",
"._ c #280501",
".` c #320a00",
".' c #421500",
".] c #501c04",
".[ c #541300",
".{ c #581400",
".} c #6d3711",
".| c #6c3b1a",
"X  c #59341a",
"X. c #3c230f",
"XX c #211306",
"Xo c #120b01",
"XO c #131007",
"X+ c #211e17",
"X@ c #1d1610",
"X# c #1a0105",
"X$ c #1d0100",
"X% c #250400",
"X& c #340a00",
"X* c #471400",
"X= c #581e06",
"X- c #5c1a02",
"X; c #540d00",
"X: c #511300",
"X> c #622601",
"X, c #6c3614",
"X< c #65381b",
"X1 c #4f2f18",
"X2 c #321f10",
"X3 c #1c1209",
"X4 c #1b170e",
"X5 c #130409",
"X6 c #140202",
"X7 c #1d0400",
"X8 c #2a0500",
"X9 c #380a00",
"X0 c #521906",
"Xq c #62210b",
"Xw c #5d1902",
"Xe c #4c1000",
"Xr c #521500",
"Xt c #5d1e00",
"Xy c #672b07",
"Xu c #6d3818",
"Xi c #5f371e",
"Xp c #412517",
"Xa c #27150b",
"Xs c #1e170d",
"Xd c #140b0c",
"Xf c #110505",
"Xg c #170302",
"Xh c #200100",
"Xj c #2a0000",
"Xk c #3d0900",
"Xl c #4f1402",
"Xz c #531500",
"Xx c #461608",
"Xc c #4a1601",
"Xv c #5c1700",
"Xb c #622000",
"Xn c #64290b",
"Xm c #592912",
"XM c #4c230f",
"XN c #24160b",
"XB c #120806",
"XV c #1d0002",
"XC c #250200",
"XZ c #320500",
"XA c #3e0a00",
"XS c #400b00",
"XD c #2f0602",
"XF c #401006",
"XG c #551a08",
"XH c #5e1b00",
"XJ c #5b1a00",
"XK c #581c00",
"XL c #501a02",
"XP c #2d1209",
"XI c #1c130a",
"XU c #1a0f09",
"XY c #180606",
"XT c #250508",
"XR c #2e0807",
"XE c #330802",
"XW c #360a00",
"XQ c #3c0c0a",
"X! c #47120c",
"X~ c #541a0c",
"X^ c #591b06",
"X/ c #571600",
"X( c #581a03",
"X) c #511804",
"X_ c #450e00",
"X` c #350c06",
"X' c #1d1307",
"X] c #22150d",
"X[ c #1c0a0a",
"X{ c #150002",
"X} c #1d0005",
"X| c #250206",
"o  c #290302",
"o. c #2e0700",
"oX c #3f0600",
"oo c #3f0400",
"oO c #440800",
"o+ c #480a00",
"o@ c #4a0f00",
"o# c #521a0b",
"o$ c #4f1b0e",
"o% c #3e0e02",
"o& c #1e1711",
"o* c #190a05",
"o= c #180501",
"o- c #1b0100",
"o; c #210200",
"o: c #270303",
"o> c #2c0506",
"o, c #300902",
"o< c #310901",
"o1 c #370800",
"o2 c #3c0800",
"o3 c #3f0a00",
"o4 c #430e00",
"o5 c #481400",
"o6 c #4b1902",
"o7 c #1b1610",
"o8 c #180d07",
"o9 c #180602",
"o0 c #1a0200",
"oq c #1f0100",
"ow c #250302",
"oe c #280404",
"or c #2b0000",
"ot c #2e0100",
"oy c #350200",
"ou c #3a0500",
"oi c #3c0500",
"op c #3e0d00",
"oa c #3f0f01",
"os c #300d07",
"od c #181810",
"of c #1a150f",
"og c #1a110a",
"oh c #190c06",
"oj c #1b0200",
"ok c #230402",
"ol c #2d0100",
"oz c #300300",
"ox c #340201",
"oc c #330100",
"ov c #2f0101",
"ob c #2d0402",
"on c #2c0603",
"om c #25130f",
"oM c #16170f",
"oN c #1b100a",
"oB c #1b0905",
"oV c #1b0300",
"oC c #2b0804",
"oZ c #2b0303",
"oA c #280102",
"oS c #240002",
"oD c #220406",
"oF c #220809",
"oG c #210b0d",
"oH c #1b1813",
"oJ c #15160e",
"oK c #191911",
"oL c #1d1910",
"oP c #1f140e",
"oI c #1e0c08",
"oU c #1d0501",
"oY c #1e0000",
"oT c #1b0400",
"oR c #1c0300",
"oE c #1f0300",
"oW c #1e0604",
"oQ c #1f0b0a",
"o! c #201211",
"o~ c #211715",
"o^ c #191813",
"o/ c #16160e",
"o( c #1e150e",
"o) c #1f120c",
"o_ c #1e0b07",
"o` c #1e0501",
"o' c #200200",
"o] c #150100",
"o[ c #1a0300",
"o{ c #200400",
"o} c #230703",
"o| c #250905",
"O  c #250e08",
"O. c #25120b",
"OX c #24160d",
"Oo c #22150f",
/* pixels */
"                 . . . . . . . .  ",
" X X X X X X X X o o o o o o o o X",
" O O O O O O O O X X X X X X X X O",
" o o o o o o o o + + + + + + + + o",
" O O O O O O O O X X X X X X X X O",
" O O O O O O O O X X X X X X X X O",
" + + + + + + + + + + + + + + + + +",
" o o o o o o o o + + + + + + + + o",
" @ @ @ @ @ @ @ @ # # # # # # # # o",
" @ @ @ @ @ @ @ @ @ @ @ @ @ @ @ @ o",
" o o o o o o o o + + + + + + + + o",
" $ $ $ $ $ $ $ $ + + + + + + + + +",
" % % % % % % % % & & & & & & & & +",
" % % % % % % % % * * * * * * * * +",
" = = = = = = = = - - - - - - - - +",
" = = = = = = = = - - - - - - - - +",
" $ $ $ $ $ $ $ $ ; ; : : : : ; ; >",
" $ $ $ $ $ $ $ $ ; ; ; : : ; ; ; ,",
" < < < < < < < < 1 2 2 2 2 2 2 1 3",
" 4 4 4 4 4 4 4 4 1 1 2 2 2 2 1 1 5",
" 4 4 4 4 4 4 4 4 6 6 4 4 4 4 6 6 3",
" 6 6 6 6 6 6 6 6 6 6 6 4 4 6 6 6 3",
" 7 7 7 7 7 7 7 7 8 9 9 9 9 9 9 8 5",
" 7 7 7 7 7 7 7 7 8 8 9 9 9 9 8 8 0",
" 0 0 0 0 0 0 0 0 5 5 5 5 5 5 5 5 q",
" 0 0 0 0 0 0 0 0 5 5 5 5 5 5 5 5 q",
" 0 0 0 0 0 0 0 0 0 0 0 0 0 0 0 0 0",
" w w w w w w w w 0 0 0 0 0 0 0 0 w",
" w w w w w w w w 0 0 0 0 0 0 0 0 e",
" w w w w w w w w 0 0 0 0 0 0 0 0 e",
" w w w w w w w w w w w w w w w w r",
" w w w w w w w w w w w w w w w w r",
" t t y y u u i i u u u u u u u u u",
" t t y y u u i i u u u u u u u u u",
" t t y y u u i i p p p p p p p p u",
" a t s y u p i d p p p p p p p p u",
" a t s y u p i d p p p p p p p p p",
" a a s s p p d d p p p p p p p p f",
" a a s s p p d d f f f f f f f f f",
" a a s s p p d d f f f f f f f f g",
" h j k l z x c v b b b b b b b b g",
" n m M N z x B V b b b b b b b b f",
" C Z s A S x D F G G G G G G G G p",
" H J K A L P f I L L L L L L L L f",
" U Y T i k P R E W W W W W W W W Q",
" ! ~ ^ B k / G ( W W W W W W W W )",
" _ ` ' E ] / [ Q { { { { { { { { )",
" } |. .. ] [ [.X.o.o.o.o.o.o.o.o Q",
".O.+.@.#.$.%.&.* W W.=.=.=.=.-.-.-",
".;.:.>.,.<.1 t.% W.=.=.=.=.-.-.-.-",
".2.3.4.5.6.- ].7.=.=.=.=.=.-.-.-.-",
".8.9.0.q.w.e.r.t.=.=.=.=.-.-.-.-.-",
".y.u.i.p.a.s.d.f.=.=.=.-.-.-.-.g.g",
".h.j.k.l.z.x.c c.=.-.-.-.-.g.g.g.g",
".v.b.n.m.M.N.B.V.-.-.-.-.-.g.g.g.g",
".C.Z.A.S.D.F.G.H.-.-.-.-.g.g.g.g.g",
".J.K.L.P.I.U.Y.T.R.E.W.Q.!.~.^./.(",
".)._.`.'.].U.[.{.}.|X X.XXXoXOX+X@",
"X#X$X%X&X*X=X-X;X:X>X,X<X1X2X3 AX4",
"X5X6X7X8X9X0XqXwXeXrXtXyXuXiXpXaXs",
"XdXfXgXhXjXkXlXzXxXcXrXvXbXnXmXMXN",
" GXBX6XVXCXZXAXSXDXFXGXHXvXJXKXLXP",
"XIXUXYX#XTXRXEXWXQX!X~X^X/X(X)X_X`",
"X'X]X[X{X}X|o o.oXoooOo+o@o#o$o% U",
"o&.%o*o=o-o;o:o>o,o<o1o2o3o4o5o6 U",
"o7.-o8o9o0oqowoeorotoyouoiXAopoaos",
"odofogoho=ojoqokolozoxoxocovobonom",
"oModX4oNoBoVX$oqoConoZoAoSoDoFoGoH",
"oJoKoLoPoIoUX$oYoToRoEoEoWoQo!o~o^",
"o/ofo(o)o_o`o'o;o]o[o{o}o|O O.OXOo"
};
