/* XPM */
static char *freeimage[] = {
/* width height num_colors chars_per_pixel */
"36 15 357 2",
/* colors */
"   c #0f0600",
" . c #100700",
" X c #100901",
" o c #100c03",
" O c #110d04",
" + c #0e0a01",
" @ c #0c0900",
" # c #100d06",
" $ c #110e07",
" % c #110d0a",
" & c #14100f",
" * c #100c0d",
" = c #0d080c",
" - c #100b0f",
" ; c #120e05",
" : c #0d0900",
" > c #18140b",
" , c #130f06",
" < c #0f0b02",
" 1 c #120a08",
" 2 c #130e0b",
" 3 c #150909",
" 4 c #22070c",
" 5 c #360612",
" 6 c #470416",
" 7 c #4f0016",
" 8 c #420210",
" 9 c #480818",
" 0 c #4e0e1f",
" q c #4c0b1f",
" w c #0e0500",
" e c #110a02",
" r c #100d04",
" t c #121004",
" y c #110e05",
" u c #0b0801",
" i c #100d08",
" p c #0f0b08",
" a c #0e0a09",
" s c #130f0e",
" d c #120d07",
" f c #110c06",
" g c #0f0a04",
" h c #0d0802",
" j c #19140e",
" k c #100b05",
" l c #110c09",
" z c #140f0c",
" x c #120e0b",
" c c #130b09",
" v c #1c080a",
" b c #2d0810",
" n c #3c0614",
" m c #430314",
" M c #4c0a18",
" N c #450213",
" B c #460315",
" V c #4e0b1d",
" C c #120b03",
" Z c #0f0800",
" A c #0f0c03",
" S c #1d1a11",
" D c #282619",
" F c #252316",
" G c #19170b",
" H c #100e02",
" J c #0e0b04",
" K c #110c08",
" L c #15100c",
" P c #130e0a",
" I c #100b07",
" U c #120d09",
" Y c #13100b",
" T c #11100b",
" R c #0f0e09",
" E c #140a08",
" W c #1e0a0b",
" Q c #2a0a0f",
" ! c #310810",
" ~ c #470214",
" ^ c #490416",
" / c #150e06",
" ( c #0c0800",
" ) c #0d0a01",
" _ c #141108",
" ` c #2b281f",
" ' c #8b897a",
" ] c #838172",
" [ c #605e51",
" { c #343225",
" } c #1b190c",
" | c #121003",
".  c #110f02",
".. c #140f0b",
".X c #0f0a06",
".o c #0e0905",
".O c #110e09",
".+ c #10110b",
".@ c #0e110a",
".# c #1b0d0c",
".$ c #1f0d0d",
".% c #4a0517",
".& c #4c0817",
".* c #45010e",
".= c #400007",
".- c #0b0800",
".; c #0e0e04",
".: c #24241a",
".> c #666457",
"., c #959386",
".< c #b0aea1",
".1 c #9a9889",
".2 c #706e5f",
".3 c #474536",
".4 c #282617",
".5 c #171506",
".6 c #130e08",
".7 c #140f09",
".8 c #16110b",
".9 c #0e0903",
".0 c #0f0c05",
".q c #101008",
".w c #11120a",
".e c #10130a",
".r c #0f1008",
".t c #14110a",
".y c #40000c",
".u c #45030d",
".i c #4a090f",
".p c #5a1a1b",
".a c #0e0b02",
".s c #070700",
".d c #060600",
".f c #121208",
".g c #151209",
".h c #36332a",
".j c #5d5b4f",
".k c #868478",
".l c #acaa9d",
".z c #aeac9d",
".x c #848273",
".c c #595748",
".v c #383429",
".b c #201c11",
".n c #110d02",
".m c #0e0a00",
".M c #100c01",
".N c #130f04",
".B c #120e03",
".V c #12120a",
".C c #111109",
".Z c #101109",
".A c #460910",
".S c #65292b",
".D c #7e433d",
".F c #975d52",
".G c #0c0c02",
".H c #090900",
".J c #080800",
".K c #090b00",
".L c #0e0b06",
".P c #120f0a",
".I c #242118",
".U c #474539",
".Y c #727063",
".T c #9a988b",
".R c #b6b4a5",
".E c #999687",
".W c #6e6b5c",
".Q c #464334",
".! c #2b2819",
".~ c #1c190a",
".^ c #211e0f",
"./ c #221f10",
".( c #110e00",
".) c #1c150d",
"._ c #160f07",
".` c #140b04",
".' c #160d06",
".] c #170e07",
".[ c #141007",
".{ c #58201f",
".} c #814a43",
".| c #945f4f",
"X  c #9f6b55",
"X. c #0b0b01",
"XX c #101207",
"Xo c #0e1005",
"XO c #0d0908",
"X+ c #0e0a07",
"X@ c #17140b",
"X# c #1c1a0e",
"X$ c #353326",
"X% c #565447",
"X& c #8a8774",
"X* c #aba895",
"X= c #b5b29f",
"X- c #85826f",
"X; c #5d5a47",
"X: c #73705d",
"X> c #7e7b68",
"X, c #5c5946",
"X< c #221b13",
"X1 c #1a110a",
"X2 c #140903",
"X3 c #170a04",
"X4 c #190c06",
"X5 c #170c06",
"X6 c #181109",
"X7 c #713f38",
"X8 c #8c5b4d",
"X9 c #96664f",
"X0 c #a37456",
"Xq c #0d0b00",
"Xw c #0f0c07",
"Xe c #0b0a05",
"Xr c #0e0d08",
"Xt c #18130f",
"Xy c #272317",
"Xu c #403e2f",
"Xi c #717260",
"Xp c #9b9e8b",
"Xa c #b4b7a4",
"Xs c #d2d4c6",
"Xd c #ddddd5",
"Xf c #cac7c2",
"Xg c #75775f",
"Xh c #3c3724",
"Xj c #190c03",
"Xk c #1d0b09",
"Xl c #1a0608",
"Xz c #100003",
"Xx c #1d1314",
"Xc c #35302d",
"Xv c #834d41",
"Xb c #8d5943",
"Xn c #9b6944",
"Xm c #a57547",
"XM c #0c0b06",
"XN c #0d0c07",
"XB c #1b170c",
"XV c #181609",
"XC c #323321",
"XZ c #8d8e7c",
"XA c #dbdcce",
"XS c #e8e8de",
"XD c #e3e0d9",
"XF c #d6d6bc",
"XG c #95937e",
"XH c #454233",
"XJ c #060902",
"XK c #212d23",
"XL c #4c6255",
"XP c #698674",
"XI c #65685f",
"XU c #6c705f",
"XY c #747a5e",
"XT c #7a815f",
"XR c #0c0a00",
"XE c #0d0a03",
"XW c #160c0b",
"XQ c #150b09",
"X! c #120b01",
"X~ c #181206",
"X^ c #4f4c3d",
"X/ c #9d9b8c",
"X( c #c3c3b7",
"X) c #d3d3c7",
"X_ c #e7dfca",
"X` c #e0d9c7",
"X' c #929083",
"X] c #2d352a",
"X[ c #22362a",
"X{ c #5e8070",
"X} c #689983",
"X| c #40785d",
"o  c #56756f",
"o. c #59796e",
"oX c #5e7e6f",
"oo c #618271",
"oO c #0d0a05",
"o+ c #1a0f13",
"o@ c #110507",
"o# c #170c08",
"o$ c #160d04",
"o% c #201a0c",
"o& c #383629",
"o* c #484a3d",
"o= c #5b5f51",
"o- c #6d665e",
"o; c #726f68",
"o: c #737874",
"o> c #72817e",
"o, c #698681",
"o< c #557f75",
"o1 c #477c6c",
"o2 c #4b8674",
"o3 c #4d806f",
"o4 c #508372",
"o5 c #558877",
"o6 c #598c79",
"o7 c #0f0609",
"o8 c #150b0c",
"o9 c #140905",
"o0 c #120800",
"oq c #1c130a",
"ow c #0c0c00",
"oe c #000300",
"or c #0b170b",
"ot c #233833",
"oy c #465f5c",
"ou c #607c7d",
"oi c #628587",
"op c #5c8587",
"oa c #4e7f7c",
"os c #447772",
"od c #42776f",
"of c #528073",
"og c #558376",
"oh c #5a887b",
"oj c #5e8d7d",
"ok c #100f0b",
"ol c #1c130c",
"oz c #160b05",
"ox c #1e211a",
"oc c #3d4a43",
"ov c #52655f",
"ob c #58877d",
"on c #5b8d84",
"om c #518680",
"oM c #417873",
"oN c #3f7673",
"oB c #4a7c79",
"oV c #51807a",
"oC c #517e77",
"oZ c #4e877e",
"oA c #518b7d",
"oS c #56917f",
"oD c #5a957f",
"oF c #0c0f04",
"oG c #040400",
"oH c #0a0702",
"oJ c #353b39",
"oK c #708282",
"oL c #637d7e",
"oP c #4c715f",
"oI c #486f5d",
"oU c #4a7466",
"oY c #517b6f",
"oT c #51796e",
"oR c #55756a",
"oE c #5c7669",
"oW c #63776b",
"oQ c #538373",
"o! c #598b72",
"o~ c #619473",
"o^ c #679c72",
/* pixels */
"     . X X o O + @ # $ % & * = - ; : ; > , < O ; 1 2 2 3 4 5 6 7 8 9 0 q",
" w . X e o + + r t y @ u i p a s d f g h f j j k l z x c v b n m M N B V",
"   C Z X O : A S D F G H r A J $ K L L P K I U L K Y T R E W Q ! ~ ~ ~ ^",
" C / Z ( O ) _ ` ' ] [ { } |.  | L...X.o K K.X K.X.O.+.@ R P.#.$.%.&.*.=",
" e , + : r.-.;.:.>.,.<.1.2.3.4.5 h.6.6 f.7 j.8 k.9.0.q.w.e.r.q.t.y.u.i.p",
" ( o <.a r.s.d.f.g.h.j.k.l.z.x.c.v.b.n.m :.M.N.B d f $.t.V.C.r.Z.A.S.D.F",
" ( +.a.a.G.H.J.K.L.P.t.I.U.Y.T.R.E.W.Q.!.~.^./.(.)._.`.'.]._.[ _.{.}.|X ",
" o ) ) )X..;XXXoXOX+ i.tX@X#X$X%X&X*X=X-X;X:X>X,X<X1X2X3X4X5.]X6X7X8X9X0",
"Xq ).a.a J J.LXwXeXr R.OXw i..XtXyXuXiXpXaXsXdXfXgXhXjXkXlXzXxXcXvXbXnXm",
"Xq ) ) ) J J.L.LXMXN R.O i i P L /XBXVXCXZXAXSXDXFXGXH yXJXKXLXPXIXUXYXT",
"XR @ ) )XEXE.L.LXMXNXr.O i i K UXWXQX!X~X^X/X(X)X_X`X'X]X[X{X}X|o o.oXoo",
"XR @ @ @XEXEoOoOXNXNXr i.O i I Io+o@o#o$o%o&o*o=o-o;o:o>o,o<o1o2o3o4o5o6",
"XR @ @ @XEXEoOoOXNXNXr i.O i I Io7o8o9o0oqowoeorotoyouoiopoaosodofogohoj",
"XR @ ) )XEXE.L.LXMXNXr.O i i K UokXtoloz +oxocovobonomoMoNoBoVoCoZoAoSoD",
"Xq ) ) ) J J.L.LXMXN R.O i i P LoFoG Z /oHoJoKoLoPoIoUoYoToRoEoWoQo!o~o^"
};
