/* XPM */
static char *freeimage[] = {
/* width height num_colors chars_per_pixel */
"39 14 316 2",
/* colors */
"   c #120809",
" . c #0e0405",
" X c #0f0506",
" o c #110809",
" O c #0b0505",
" + c #0a0404",
" @ c #0c0606",
" # c #0b060c",
" $ c #0d060d",
" % c #0e080c",
" & c #0f0609",
" * c #0e0508",
" = c #100509",
" - c #110708",
" ; c #08080a",
" : c #09090b",
" > c #090708",
" , c #080607",
" < c #0a0605",
" 1 c #0c0807",
" 2 c #0d0908",
" 3 c #0e0905",
" 4 c #0f0a06",
" 5 c #0d0804",
" 6 c #0b0602",
" 7 c #0c0703",
" 8 c #070802",
" 9 c #080702",
" 0 c #080300",
" q c #130907",
" w c #160807",
" e c #271515",
" r c #352122",
" t c #080401",
" y c #060200",
" u c #050100",
" i c #020100",
" p c #010200",
" a c #030400",
" s c #060702",
" d c #010100",
" f c #020200",
" g c #030301",
" h c #030200",
" j c #010000",
" k c #030000",
" l c #040100",
" z c #050200",
" x c #070400",
" c c #090400",
" v c #0a0500",
" b c #0e0701",
" n c #110a02",
" m c #140d05",
" M c #0c0300",
" N c #0d0400",
" B c #100700",
" V c #130a01",
" C c #160d04",
" Z c #191007",
" A c #1d140b",
" S c #1f160d",
" D c #29210e",
" F c #3e3321",
" G c #504332",
" H c #6b5a4a",
" J c #816b5d",
" K c #8f7568",
" L c #7e6256",
" P c #282216",
" I c #292317",
" U c #272115",
" Y c #1f1b0f",
" T c #1b170b",
" R c #19170a",
" E c #1b190c",
" W c #171506",
" Q c #1a1809",
" ! c #201d0e",
" ~ c #252211",
" ^ c #2c2616",
" / c #302b18",
" ( c #35301d",
" ) c #3a3321",
" _ c #473a29",
" ` c #4d3d2d",
" ' c #544532",
" ] c #5b4c39",
" [ c #64533f",
" { c #6b5a46",
" } c #74624e",
" | c #796751",
".  c #826d5a",
".. c #846f5c",
".X c #887360",
".o c #8f7a67",
".O c #96816e",
".+ c #9c8774",
".@ c #a08b78",
".# c #a28d7a",
".$ c #b49c7a",
".% c #b59b7a",
".& c #b39676",
".* c #b09172",
".= c #ac896b",
".- c #a98467",
".; c #b18a6d",
".: c #bba08b",
".> c #c0a590",
"., c #b79e88",
".< c #b09781",
".1 c #ac967f",
".2 c #aa947d",
".3 c #a7917a",
".4 c #a48f74",
".5 c #a99175",
".6 c #ac9478",
".7 c #ae967a",
".8 c #b1987a",
".9 c #b49b7d",
".0 c #b89d7f",
".q c #ba9f81",
".w c #c1a07f",
".e c #c2a180",
".r c #c2a17e",
".t c #c3a17e",
".y c #c2a07b",
".u c #c4a07c",
".i c #c5a17d",
".p c #c7a47e",
".a c #c9a37f",
".s c #c8a27e",
".d c #caa480",
".f c #cba581",
".g c #bf996a",
".h c #ba9163",
".j c #b68b5e",
".k c #b88c5f",
".l c #b8895d",
".z c #aa794e",
".x c #ae7b50",
".c c #ca987f",
".v c #d09e85",
".b c #cfa086",
".n c #c8997f",
".m c #c3947a",
".M c #c19379",
".N c #be9076",
".B c #c09271",
".V c #c19372",
".C c #c09270",
".Z c #c1906f",
".A c #be8e6a",
".S c #be8c69",
".D c #be8c67",
".F c #bc8d63",
".G c #be8d64",
".H c #bc8b60",
".J c #bc895e",
".K c #bb885b",
".L c #bd885c",
".P c #be895d",
".I c #bf895d",
".U c #be885c",
".Y c #c08a5e",
".T c #c28c60",
".R c #be8e5e",
".E c #bf8c5d",
".W c #b98657",
".Q c #b48051",
".! c #b98355",
".~ c #b68052",
".^ c #b47b4e",
"./ c #915d48",
".( c #925e49",
".) c #8f5c47",
"._ c #895641",
".` c #83533d",
".' c #85553f",
".] c #855740",
".[ c #89573e",
".{ c #8b593e",
".} c #8f5c41",
".| c #915e43",
"X  c #925f42",
"X. c #966044",
"XX c #996445",
"Xo c #9b6647",
"XO c #976544",
"X+ c #996746",
"X@ c #9b6948",
"X# c #9f6a48",
"X$ c #a16c4a",
"X% c #a46e4a",
"X& c #a8724e",
"X* c #aa7450",
"X= c #b07650",
"X- c #b27852",
"X; c #b37953",
"X: c #a9754e",
"X> c #ae7a53",
"X, c #b17b55",
"X< c #af7953",
"X1 c #a8724c",
"X2 c #a16b45",
"X3 c #a76f4a",
"X4 c #36180e",
"X5 c #33150b",
"X6 c #2f1308",
"X7 c #2d1106",
"X8 c #290e03",
"X9 c #270c01",
"X0 c #280d02",
"Xq c #291105",
"Xw c #290d01",
"Xe c #2c0e03",
"Xr c #2f1106",
"Xt c #321507",
"Xy c #351508",
"Xu c #381809",
"Xi c #3c1b0c",
"Xp c #3e1d0e",
"Xa c #462015",
"Xs c #492316",
"Xd c #4d2519",
"Xf c #51291d",
"Xg c #572d1f",
"Xh c #5b3123",
"Xj c #603626",
"Xk c #633929",
"Xl c #6c3d29",
"Xz c #6e3f2b",
"Xx c #70412d",
"Xc c #734430",
"Xv c #764733",
"Xb c #794a36",
"Xn c #7c4d39",
"Xm c #7f503c",
"XM c #8d5b42",
"XN c #86543b",
"XB c #85533a",
"XV c #936148",
"XC c #915f46",
"XZ c #8e5c43",
"XA c #96644b",
"XS c #070101",
"XD c #040000",
"XF c #050000",
"XG c #090504",
"XH c #050402",
"XJ c #040301",
"XK c #070604",
"XL c #0d0503",
"XP c #0c0402",
"XI c #0c0200",
"XU c #0d0301",
"XY c #0e0402",
"XT c #180005",
"XR c #190004",
"XE c #1b0005",
"XW c #1c0106",
"XQ c #1e0105",
"X! c #1f0206",
"X~ c #220507",
"X^ c #250709",
"X/ c #2a0902",
"X( c #2b0a03",
"X) c #2c0b04",
"X_ c #2f0e07",
"X` c #311009",
"X' c #3e0d00",
"X] c #461506",
"X[ c #481909",
"X{ c #512212",
"X} c #4f2010",
"X| c #5b2c1c",
"o  c #643525",
"o. c #090803",
"oX c #0a0702",
"oo c #0b0803",
"oO c #0c0904",
"o+ c #0d0a05",
"o@ c #0a0904",
"o# c #0e0b06",
"o$ c #0f0c07",
"o% c #100805",
"o& c #0d0502",
"o* c #120806",
"o= c #0f0402",
"o- c #1a0a0a",
"o; c #170304",
"o: c #1a0104",
"o> c #2b1114",
"o, c #110906",
"o< c #120a07",
"o1 c #090e07",
"o2 c #0d1009",
"o3 c #0b0c06",
"o4 c #12110c",
"o5 c #100b07",
"o6 c #1a1511",
"o7 c #0b0a05",
"o8 c #100d08",
"o9 c #110c08",
"o0 c #130b08",
"oq c #140c09",
"ow c #10110b",
"oe c #0e0f09",
"or c #0f120b",
"ot c #0e110a",
"oy c #0c0f08",
"ou c #110e09",
"oi c #150d0a",
"op c #1a0c0b",
"oa c #150a08",
"os c #150b09",
/* pixels */
"   . X o o O + @ # $ % % & * = - ; : : > , < 1 2 3 4 4 5 6 6 7 3 8 9 0 q w e r",
" t y u i i p a s d f g h j k k l k z x c v b n m M N B V C Z A S D F G H J K L",
" P I U Y T R E E W Q ! ~ ^ / ( ) _ ` ' ] [ { } |. ...X.o.O.+.@.#.$.%.&.*.=.-.;",
".:.>.>.,.<.1.2.3.4.5.6.7.8.9.0.q.w.e.r.t.y.u.i.p.a.s.s.d.f.f.d.s.g.h.j.k.l.z.x",
".c.v.b.n.m.M.M.N.B.V.C.Z.A.S.S.D.F.G.G.H.J.K.L.P.I.U.U.Y.T.T.Y.U.R.E.W.Q.!.~.^",
"./.(.)._.`.`.'.].[.{.}.|X X.XXXoXOX+X@X#X$X%X&X*X=X=X=X-X;X;X;X-X:X>X,X<X1X2X3",
"X4X5X6X7X8X9X0XqXwXeXrXtXyXuXiXpXaXsXdXfXgXhXjXkXlXzXxXcXvXbXnXmXMXNXBXVXCXZXA",
"XSXDXFXG <XHXJXK + O @XLXPXIXUXYXTXRXEXWXQX!X~X^X/X(X)X(X(X)X_X`X'X]X[X{X}X|o ",
" 9 9 9 9 9o.o.o.oXoooooooOo+o+o+oOoOo+o+o+o+oOoOo@o#o$o$ 3 5o%o%o&o*o=o-o;o:o>",
" 9 9 9 9 9o.o.o.oXoooooooOo+o+o+oOo+o+o#o#o+o+oOo@o#o$o$ 4 4o,o<o1o2o3o4o$o5o6",
" 9 9 9 9 9o.o.o.oXoooooooOo+o+o+o+o+o#o#o#o#o+o+o7o#o8o8o9o5o0oqowoeoeorotoyot",
" 9 9 9 9 9o.o.o.oXoooooooOo+o+o+o+o#o#o$o$o#o#o+o7o#o8ouo9o9oqoiop woaosoq 4 7",
" 9 9 9 9 9o.o.o.oXoooooooOo+o+o+o+o#o#o$o$o#o#o+o7o#o8ouo9o9oqoiop woaosoq 4 7",
" 9 9 9 9 9o.o.o.oXoooooooOo+o+o+o+o+o#o#o#o#o+o+o7o#o8o8o9o5o0oqowoeoeorotoyot"
};
