/* XPM */
static char *freeimage[] = {
/* width height num_colors chars_per_pixel */
"99 25 74 1",
/* colors */
"  c #100f0b",
". c #080703",
"X c #060501",
"o c #090804",
"O c #070602",
"+ c #0a0905",
"@ c #060701",
"# c #050600",
"$ c #070802",
"% c #080702",
"& c #0a0702",
"* c #090803",
"= c #0a0904",
"- c #080903",
"; c #090a04",
": c #0b0a05",
"> c #0c0b06",
", c #0d0c07",
"< c #0e0d09",
"1 c #0c0b07",
"2 c #0f0e0a",
"3 c #0e0d08",
"4 c #0d0c08",
"5 c #0f0e09",
"6 c #0b0a06",
"7 c #0b0803",
"8 c #0c0904",
"9 c #0d0a05",
"0 c #0e0b06",
"q c #0f0c07",
"w c #070601",
"e c #040300",
"r c #090601",
"t c #060500",
"y c #050400",
"u c #020100",
"i c #070803",
"p c #100d08",
"a c #0a0809",
"s c #090708",
"d c #070506",
"f c #050304",
"g c #030102",
"h c #020001",
"j c #010000",
"k c #000000",
"l c #080607",
"z c #060405",
"x c #040203",
"c c #080904",
"v c #0b0704",
"b c #080500",
"n c #0a0603",
"m c #060300",
"M c #070400",
"N c #050200",
"B c #12110c",
"V c #100b07",
"C c #0e0a07",
"Z c #040402",
"A c #010100",
"S c #110c08",
"D c #0d0906",
"F c #030301",
"G c #120d09",
"H c #0c0805",
"J c #020200",
"K c #11100b",
"L c #130e0a",
"P c #110d0a",
"I c #0f0b08",
"U c #070604",
"Y c #040301",
"T c #010101",
/* pixels */
" .XoO.+.@@@##@@@@@@@@@@@$$$$$$$$###@@@@$@@@@$$$$$$$%%&&&&&&&&&&&**%%%*==$-----;;***=:>>>>>>>>>,,<11",
" .XoO.+.$@@##@@$@@@@@@@@$$$$$$$$##@@@@@$@@@$$$$$$$$%%&&&&&&&&&&&**%%%*==--------**==:>>>>>>>,,,,211",
" .XoO.+.$@@##@@$@@@@@@@@$$$$$$$$#@@@@@$$@@@$$$$-$$$%%&&&&&&&&&&&**%%%*==;;;-----*==::>>>>>,,3333244",
" .XoO.+.$$@@@@$$@@@@@@@@$$$$$$$$@@@@$$$$@$$$$---$$$%%&&&&&&&&&&&**%%%*======****==:::>>>,,,,3335244",
" .XoO.+.$$@@@@$$@@@@@@@@$$$$$$$$@@@@$$$$$$$$----$$$%%&&&&&&&&&&&**%%%*==========:::::>>>,,,,,,,,466",
" .XoO.+.-$$@@$$-@@@@@@@@$$$$$$$$@@$$$$$-$$$-----$$$%%&&&&&&&&&&&**%%%*==77888999>>>>>>>>,,,>::==+..",
" .XoO.+.-$$@@$$-@@@@@@@@$$$$$$$$@$$$$$--$$$----;$$$%%&&&&&&&&&&&**%%%*==&778900q>>>>>>>:,,>:=%%wXee",
" .XoO.+.-$$$$$$-@@@@@@@@$$$$$$$$@$$$$---$$----;;$$$%%&&&&&&&&&&&**%%%*==r&7890qq>>>>>>::3,>=%wtyeuu",
" .XoO.+.iiiiiiii$$$$$$$$$$$$$$$$$$$$$$$$$$$$$$$$********%%%%%%%%%%%%%*****==::>>0qpppq98asdfghjjkkk",
" .XoO.+.iiiiiiii$$$$$$$$$$$$$$$$$$$$$$$$$$$$$$$$********%%%%%%%%%%%%******==::>>00qppq99slzxghjjkkk",
" .XoO.+.cccccccc------------------------$$$$$$$$********%%%%%%%%%%%%******==::>>90qqq098dzfghjjjkkk",
" .XoO.+.oooooooo;;;;;;;;;;;;;;;;;;;;;;;;$$$$$$$$********%%%%%%%%%%%****=**==::>>990qq098fxghjjjjkkk",
" .XoO.+.oooooooo;;;;;;;;;;;;;;;;;;;;;;;;$$$$$$$$********%%%%%%%%%****===**==::>>900q097&gghjjjjjkkk",
" .XoO.+.vvvvvvvv;;;;;;;;;;;;;;;;;;;;;;;;$$$$$$$$********%%%%%%%%****====**==::>>00q097rbhhjjjjjjkkk",
" .XoO.+.nnnnnnnn------------------------$$$$$$$$********%%%%%%%%****====**==::>>qqq08&bmjjjjjjjjkkk",
" .XoO.+.nnnnnnnn------------------------$$$$$$$$********%%%%%%%%***=====**==::>>ppp08rMNjjjjjjjhkkk",
"B*w=%%=%%%%%%%%%%%%%%%%%%%%%%%%%%%%%%%%%********%%%%%%%%***=====***====::::00qVVqqC6.ZAkkkkkkkkkkkk",
"B*w=%%=%%%%%%%%%%%%%%%%%%%%%%%%%%%%%%%%%********%%%%%%%%***=====**=====::::00qVSqqC+.ZAkkkkkkkkkkkk",
"B*w=%%=%%%%%%%%%%%%%%%%%%%%%%%%%%%%%%%%%********%%%%%%%%***=====*=====::::>0qqSSqqC+OZAkkkkkkkkkkkk",
"B*w=%%=%%%%%%%%%%%%%%%%%%%%%%%%%%%%%%%%%********%%%%%%%%***=========::::::>0qqSSpqDoOFAkkkkkkkkkkkk",
"B*w=%%=%%%%%%%%%%%%%%%%%%%%%%%%%%%%%%%%%********%%%%%%%%***=========:::::>>qqpSSpqD.XFAkkkkkkkkkkkk",
"B*w=%%=%%%%%%%%%%%%%%%%%%%%%%%%%%%%%%%%%********%%%%%%%%***=======:::::>>>>qqpSGpqH.yJAAkkkkkkkkkkk",
"B*w=%%=%%%%%%%%%%%%%%%%%%%%%%%%%%%%%%%%%********%%%%%%%%***======:::::>>>>,qppGGpqHOyJAAkkkkkkkkkkk",
"B*w=%%=%%%%%%%%%%%%%%%%%%%%%%%%%%%%%%%%%********%%%%%%%%***======::::>>>>>,qppGGpqHOeJAAkkkkkkkkkkk",
"Kt**w=ww%%%%%%%%%%%%%%%%%%%%%%%%%%****%%******************==::>>:::>>,,,SSGGGGLLPIHUYTkkkkkkkkkkkkk"
};
