/* XPM */
static char *freeimage[] = {
/* width height num_colors chars_per_pixel */
"28 14 160 2",
/* colors */
"   c #1a1613",
" . c #191512",
" X c #181411",
" o c #171310",
" O c #16120f",
" + c #1a1414",
" @ c #1b1515",
" # c #1b1718",
" $ c #1c1819",
" % c #1b191c",
" & c #1c1a1d",
" * c #231b0e",
" = c #221a0d",
" - c #21190c",
" ; c #1e1913",
" : c #1f1a14",
" > c #201b15",
" , c #2a2112",
" < c #2e2516",
" 1 c #352c1d",
" 2 c #3c3324",
" 3 c #413829",
" 4 c #433a2b",
" 5 c #42392a",
" 6 c #382c1e",
" 7 c #372b1d",
" 8 c #31271b",
" 9 c #2d2317",
" 0 c #282015",
" q c #241c11",
" w c #21190e",
" e c #1e170d",
" r c #18130d",
" t c #17120c",
" y c #171516",
" u c #161415",
" i c #a58d71",
" p c #aa9276",
" a c #b29a7e",
" s c #b9a185",
" d c #bea68a",
" f c #c0a88c",
" g c #bfa78b",
" h c #c2a98a",
" j c #bea586",
" k c #b89f81",
" l c #b0997a",
" z c #a78f73",
" x c #9d886b",
" c c #978265",
" v c #947f64",
" b c #797061",
" n c #756c5d",
" m c #6e6556",
" M c #655c4d",
" N c #5c5344",
" B c #534a3b",
" V c #4d4435",
" C c #4a4132",
" Z c #4a4138",
" A c #453c33",
" S c #3e352c",
" D c #393027",
" F c #c39675",
" G c #c49776",
" H c #c59877",
" J c #c79a79",
" K c #c89b7a",
" L c #c99c7b",
" P c #ca9d74",
" I c #cb9e75",
" U c #cb9f78",
" Y c #cca079",
" T c #cca27c",
" R c #cda37d",
" E c #cea380",
" W c #cca480",
" Q c #c8aa84",
" ! c #c7a983",
" ~ c #c6a882",
" ^ c #c5a781",
" / c #c4a680",
" ( c #c3a57f",
" ) c #c5a886",
" _ c #c1a482",
" ` c #bb9e7c",
" ' c #b69977",
" ] c #b4795b",
" [ c #b3785a",
" { c #b27759",
" } c #b57a5c",
" | c #b77d58",
".  c #b57d58",
".. c #b57d5a",
".X c #b47e5a",
".o c #b47e5c",
".O c #b37d5b",
".+ c #b27d5b",
".@ c #b48156",
".# c #b58257",
".$ c #b68358",
".% c #b78459",
".& c #b9865b",
".* c #bc895e",
".= c #bd8a5f",
".- c #bf8c61",
".; c #c08c65",
".: c #c28e67",
".> c #c5916a",
"., c #c8946d",
".< c #7a4631",
".1 c #7b4732",
".2 c #7c4833",
".3 c #7d4934",
".4 c #7d4931",
".5 c #7b4930",
".6 c #7a482f",
".7 c #78462f",
".8 c #74442d",
".9 c #73432d",
".0 c #70422b",
".q c #723b27",
".w c #713a26",
".e c #733c28",
".r c #7e4a35",
".t c #834f3a",
".y c #86523d",
".u c #301408",
".i c #311509",
".p c #32160a",
".a c #33170b",
".s c #2f1307",
".d c #30150a",
".f c #2f1409",
".g c #2c1408",
".h c #2c140a",
".j c #2a1409",
".k c #2d100c",
".l c #2c0f0b",
".z c #2e110d",
".x c #2f120e",
".c c #2e110b",
".v c #1f1810",
".b c #201911",
".n c #211a12",
".m c #1d1812",
".M c #1d1814",
".N c #1d1a15",
".B c #1d1916",
".V c #1b1a18",
".C c #1c1d17",
".Z c #1a1b15",
".A c #191a14",
".S c #1c1c14",
".D c #1b1b13",
".F c #1f1812",
".G c #201913",
".H c #211a14",
".J c #221b15",
".K c #221b13",
/* pixels */
"   . X o o O O O + @ @ # $ % % & * = = - - - - = ; : > >",
" , < 1 2 3 4 4 5 6 7 8 9 0 q w e r r t t t t r r y u u u",
" i p a s d f g d h j k l z x c v b n m M N B V C Z A S D",
" F G H J K L L L P I U Y T R E W Q ! ~ ^ / ( ( ( ) _ ` '",
" ] [ { { { [ ] } | |. ...X.o.O.+.@.#.$.%.&.*.=.-.;.:.>.,",
".<.<.1.2.3.2.2.1.4.5.6.7.8.9.0.0.q.q.w.w.q.q.e.e.<.r.t.y",
".u.i.p.a.a.p.u.s.p.i.d.f.g.h.j.j.k.k.l.l.k.k.z.x.c.c.c.c",
".v.v.v.v.b.b.n.n.m.M.M.N.B.B.V.V.C.C.Z.A.A.A.A.A.S.D.D.D",
".F.G.G.G.G.G.H.H.J.J.J.J.J.J.J.J.J.J.J.J.J.J.J.J.K.K.K.K",
".G.G.G.G.H.H.H.H.J.J.J.J.J.J.J.J.J.J.J.J.J.J.J.J.K.K.K.K",
".G.G.H.H.H.H.J.J.J.J.J.J.J.J.J.J.J.J.J.J.J.J.J.J.K.K.K.K",
".H.H.H.H.J.J.J.J.J.J.J.J.J.J.J.J.J.J.J.J.J.J.J.J.K.K.K.K",
".H.H.H.H.J.J.J.J.J.J.J.J.J.J.J.J.J.J.J.J.J.J.J.J.K.K.K.K",
".G.G.H.H.H.H.J.J.J.J.J.J.J.J.J.J.J.J.J.J.J.J.J.J.K.K.K.K"
};
