/* XPM */
static char *freeimage[] = {
/* width height num_colors chars_per_pixel */
"85 70 39 1",
/* colors */
"  c #0f0f0f",
". c #070707",
"X c #060606",
"o c #080808",
"O c #050505",
"+ c #090909",
"@ c #0a0a0a",
"# c #0c0c0c",
"$ c #000000",
"% c #010101",
"& c #020202",
"* c #030303",
"= c #040404",
"- c #040402",
"; c #050601",
": c #090907",
"> c #070705",
", c #050503",
"< c #060604",
"1 c #060702",
"2 c #040500",
"3 c #070803",
"4 c #060701",
"5 c #070802",
"6 c #0b0b0b",
"7 c #050600",
"8 c #080703",
"9 c #0a0603",
"0 c #080903",
"q c #090803",
"w c #0d0d0d",
"e c #0a0702",
"r c #0b0803",
"t c #0c0904",
"y c #090a04",
"u c #0e0e0e",
"i c #0e0f0a",
"p c #080702",
"a c #0a0904",
/* pixels */
" .Xo..oOoooooooooooooooooooooooo++++++++@@@@@@@@@@@@@@@@oooo+++++++++++++++++@@@#####",
"o$$%$$$$$$$$$$$$%%%%%%%%$$$$$$$$$$$$$$$$%%%%%%%%%%%%%%%%%%%%%&&&&&&&&&&&%&&&&********",
"o$$%$$$$$$$$$$$$$$$$$$$$$$$$$$$$$$$$$$$$$$$$$$$$$$$$$$$$%%%%%&&&%%%%%%%%&&&&&***&&&&&",
"@&%=&&*%&&&&&&&&&&&&&&&&****************&&&&&&&&***********====O========OOOOOXXXXXXXX",
"o$$%$$$$$$$$$$$$$$$$$$$$%%%%%%%%%%%%%%%%$$$$$$$$%%%%%%%%%%%%%&&&&&&&&&&&&&*****======",
"o$$%$$$$%%%%%%%%$$$$$$$$$$$$$$$$%%%%%%%%%%%%%%%%&&&&&&&&$$%%%%&&&&&&&&&&&&&****======",
"@%$*%%&$&&&&&&&&********&&&&&&&&********&&&&&&&&========&*****==OOOOOOOO=OOOOXXXXXXXX",
"o$$&$$%$$$$$$$$$&&&&&&&&%%%%%%%%$$$$$$$$$$$$$$$$&&&&&&&&%%%&&&&*========**====OO*****",
"o%%*$$&$$$$$$$$$***&&%%%&&&&&&&&&&&&&&&&&&%%%%&&*&&&&*==&&&&&&&&********=============",
"o%%*$$&$$$$$$$$$&&&&&&&&&&&&&&&&&&&&&&&&&&%%%%&&*&&&&*==&&&&&&&&********=============",
"o%%*$$&$%%%%%%%%%%%&&***&&&&&&&&&&&&&&&&&&%%%%&&*&&&&*==&&&&&&&&********=============",
"o%%*$$&$&&&&&&&&%%&&&&**&&&&&&&&&&&&&&&&*&&%%&&**&&&&*==****************=============",
"o%%*$$&$&&&&&&&&**&&&&%%&&&&&&&&&&&&&&&&*&&%%&&**&&&&*==********=====================",
"o%%*$$&$&&&&&&&&***&&%%%&&&&&&&&&&&&&&&&**&&&&***&&&&*==********================OOOOO",
"o%%*$$&$&&&&&&&&&&&&&&&&&&&&&&&&&&&&&&&&**&&&&***&&&&*==********================OOOOO",
"o%%*$$&$%%%%%%%%%%%&&***&&&&&&&&&&&&&&&&**&&&&***&&&&*==********================OOOOO",
"o%%*%$&%&&&&&&&&%%%%%%%%&&&&&&&&&&&&&&&&&&&****=********===================--;;;:>,--",
"o%%*%$*%&&&&&&&&%%%%%%%%&&&&&&&&&&&&&&&&&&*****=********===================-,;;;>>,,,",
"o%%*%%*%&&&&&&&&&&&&&&&&&&&&&&&&&&&&&&&&&*****==********===================-,;;;<<,,,",
"o%%=%%*&********&&&&&&&&&&&&&&&&************====********===================,,;;1-,,<<",
"+%%=%%*&********&&&&&&&&&&&&&&&&************=============================OO,,1112;111",
"+&&=&%=&********&&&&&&&&&&&&&&&&**********=====O========================OOO,<1112;133",
"+&&=&&=&****************&&&&&&&&*********=====OO========================OOO,<11144455",
"+&&O&&=*****************&&&&&&&&*********====OOO========================OOO<<11144444",
"+%$*&&*%****************%%%%%%%%********========================****====XXX<<11144444",
"@%$*&&*%********************************========================***=====XXX<<11144444",
"@%%=&&=%********&&&&&&&&========********========================***====OXXX<<11144444",
"@&%=&*=&********&&&&&&&&OOOOOOOO********========================*====OOOXXX<<11144444",
"@&%=**=&********&&&&&&&&============================================OOOOXXX<<11144444",
"6&%=**=&********&&&&&&&&********===================================OOOOOXXX<<11144444",
"6&&O**O&****************===========================================OOOOXXXX<<11144444",
"6&&O**O&****************==========================================OOOOXXXXX<<11144444",
"#*&X==X*=====================================================OOOXXX<<1117777777755555",
"#*&X==X*====================================================OOOOXXX<<1117777777755555",
"#*&X==X*====================================================OOOOXXX<<1114444444455555",
"#*&X==X*===================================================OOOOXXXX<<1114444444455555",
"#*&X==X*=================================================OOOOXXXXXX<<1114444444455555",
"#*&X==X*================================================OOOOXXXXXXX<<1114444444455555",
"#*&X==X*================================================OOOOXXXXXXX<<1117777777755555",
"#*&X==X*================================================OOOXXXXXXXX<<1117777777755555",
"#*&X==X*==========================================OOOOXXXXX<<111444444443338899999999",
"#*&X==X*==========================================OOOOXXXXX<<111444444443338899999999",
"#*&X==X*==========================================OOOOXXXXX<<111444444443338899999999",
"#*&X==X*==========================================OOOOXXXXX<<111444444443338899999999",
"#*&X==X*==========================================OOOOXXXXX<<111444444443338899999999",
"#*&X==X*==========================================OOOOXXXXX<<111444444443338899999999",
"#*&X==X*==========================================OOOOXXXXX<<111444444443338899999999",
"#*&X==X*==========================================OOOOXXXXX<<111444444443338899999999",
"#*&X==X*========================OOO=====********OOO,,;;;444444444555500000000000qqqqq",
"#*&X==X*========================OOO=============OOO,,;;;444444444445555500000000qqqqq",
"#*&X==X*========================OOOOOOOOOOOOOOOOOOO,,;;;444444444444455500000000qqqqq",
"#*&X==X*=========================OOOOOOOOOOOOOOOXXX<<111444444447774444500000000qqqqq",
"#*&X==X*==========================OOOXXXXXXXXXXXXXX<<111444444447774444500000000qqqqq",
"#*&X==X*==========================OOXX..XXXXXXXXXXX<<111444444444444455500000000qqqqq",
"#*&X==X*==========================OOX...XXXXXXXXXXX<<111444444444445555500000000qqqqq",
"#*&X==X*==========================OOX..oXXXXXXXXXXX<<111444444444555500000000000qqqqq",
"w=*O*=O*========OOO==========OOO**=OOX..XXXXXXXX<<<111444444444474500000qqqqqqqqerrtt",
"w=*O*=O*========OOOO========OOOO*==OOXX.XXXXXXXX<<<111444444444444500y00qqqqqqqqerrtt",
"w=*O==X=========OOOO========OOOO===OOXXXXXXXXXXX<<<11144444444444450yyyyqqqqqqqqerrtt",
"uO*X==X=********XOOOO======OOOOX===OOXXXXXXXXXXX<<<11144444444444500yyyyqqqqqqqqerrtt",
"uO*X==X=========XXXOOOO==OOOOXXXOOOOOOOOXXXXXXXX<<<11144444444444450yyy0qqqqqqqqerrtt",
"uO=X=OX=========XXXXOOOOOOOOXXXXOOOOOOOOXXXXXXXX<<<111444444444474500000qqqqqqqqerrtt",
"uO=XOO.OOOOOOOOOXXXXOOOOOOOOXXXXOOOOOOOOXXXXXXXX<<<111444444444427455555qqqqqqqqerrtt",
"uX=XOO.OXXXXXXXXXXXXXOOOOOOXXXXXXOOOOOO=XXXXXXXX<<<111444444444422745555qqqqqqqqerrtt",
"i;23;;12<<<<<<<<OOOOOOOOOOOOOOOOOOOOOOOOXXX<<111111111114444444474500000qqqqqqqqpqqaa",
"i;23;;12<<<<<<<<OOOOOOOOOOOOOOOOOOOOOOOOXXX<<111111111114444444474500000qqqqqqqqpqqaa",
"i;23;;12<<<<<<<<XXXXXXXXXXXXXXXXXXXXXXXXXXX<<111111111114444444474500000qqqqqqqqpqqaa",
"i;23;;12<<<<<<<<XXXXXXXXXXXXXXXXXXXXXXXXXXX<<111111111114444444474500000qqqqqqqqpqqaa",
"i;23;;12<<<<<<<<XXXXXXXXXXXXXXXXXXXXXXXXXXX<<111111111114444444474500000qqqqqqqqpqqaa",
"i;23;;12<<<<<<<<XXXXXXXXXXXXXXXXXXXXXXXXXXX<<111111111114444444474500000qqqqqqqqpqqaa"
};
