/* XPM */
static char *freeimage[] = {
/* width height num_colors chars_per_pixel */
"38 15 373 2",
/* colors */
"   c #481019",
" . c #470f1a",
" X c #4b1522",
" o c #4a1623",
" O c #441424",
" + c #46172b",
" @ c #44172c",
" # c #42162d",
" $ c #3e242f",
" % c #2d161e",
" & c #210c11",
" * c #210e10",
" = c #1e100d",
" - c #191009",
" ; c #181206",
" : c #1b1509",
" > c #1c150d",
" , c #160f07",
" < c #19120a",
" 1 c #1e170f",
" 2 c #201911",
" 3 c #1f1810",
" 4 c #181109",
" 5 c #1b1215",
" 6 c #1a1112",
" 7 c #1b1311",
" 8 c #221a17",
" 9 c #1c150f",
" 0 c #140d05",
" q c #1f180e",
" w c #1b140e",
" e c #1d1610",
" r c #491019",
" t c #430b16",
" y c #430f1c",
" u c #451523",
" i c #431728",
" p c #451b2f",
" a c #441e33",
" s c #411e34",
" d c #29141b",
" f c #210e14",
" g c #1c0c0f",
" h c #1d0f0e",
" j c #1c110d",
" k c #161207",
" l c #191509",
" z c #1f1812",
" x c #19120c",
" c c #160f09",
" v c #110907",
" b c #1e1613",
" n c #17100a",
" m c #130c04",
" M c #1c150b",
" N c #221b11",
" B c #450913",
" V c #3f0712",
" C c #481929",
" Z c #431c2e",
" A c #422134",
" S c #40243a",
" D c #381f35",
" F c #1b0c0f",
" G c #1c0d10",
" H c #1a0e0e",
" J c #190f0d",
" K c #18110b",
" L c #151108",
" P c #141206",
" I c #141507",
" U c #120a07",
" Y c #18100d",
" T c #1d1512",
" R c #19110e",
" E c #1b1310",
" W c #170f0c",
" Q c #171008",
" ! c #241d13",
" ~ c #211b0f",
" ^ c #2a2418",
" / c #3c3628",
" ( c #2d2719",
" ) c #1e1711",
" _ c #3a0005",
" ` c #430c12",
" ' c #4f1d26",
" ] c #542a36",
" [ c #4c2c39",
" { c #462e3e",
" } c #3e2b3e",
" | c #261528",
".  c #170f0d",
".. c #1a120f",
".X c #15100a",
".o c #16130c",
".O c #14140a",
".+ c #131307",
".@ c #141408",
".# c #211916",
".$ c #1c1411",
".% c #140e02",
".& c #231d0f",
".* c #262012",
".= c #383224",
".- c #575143",
".; c #868072",
".: c #928c7e",
".> c #585242",
"., c #7a433e",
".< c #8b5855",
".1 c #956767",
".2 c #936c6f",
".3 c #84676c",
".4 c #78636c",
".5 c #594954",
".6 c #20121f",
".7 c #130e08",
".8 c #18130d",
".9 c #15120b",
".0 c #14110a",
".q c #19160d",
".w c #18150c",
".e c #121208",
".r c #131309",
".t c #1a130d",
".y c #312b1b",
".u c #474131",
".i c #666050",
".p c #9f9989",
".a c #bbb5a7",
".s c #a8a294",
".d c #7c7668",
".f c #3b3527",
".g c #9d6d57",
".h c #b08370",
".j c #b68c7c",
".k c #b38f83",
".l c #aa8d87",
".z c #a28a88",
".x c #796567",
".c c #29191c",
".v c #120f06",
".b c #17130a",
".n c #1b170e",
".m c #161209",
".M c #0f0b02",
".N c #130f06",
".B c #140d03",
".V c #181107",
".C c #1b140a",
".Z c #20190f",
".A c #383127",
".S c #554e44",
".D c #807a6a",
".F c #ada797",
".G c #b5af9f",
".H c #958f81",
".J c #666054",
".K c #453f33",
".L c #373026",
".P c #231c12",
".I c #ab815b",
".U c #bc9471",
".Y c #bd9979",
".T c #ba987f",
".R c #b29381",
".E c #ae9286",
".W c #8c736c",
".Q c #3d2521",
".! c #120e02",
".~ c #19150a",
".^ c #191208",
"./ c #1b140c",
".( c #160d06",
".) c #180f0a",
"._ c #281f1a",
".` c #272113",
".' c #251f11",
".] c #1f190b",
".[ c #464032",
".{ c #706a5c",
".} c #989284",
".| c #b6b0a2",
"X  c #aea898",
"X. c #837d6f",
"XX c #514b3d",
"Xo c #373125",
"XO c #292218",
"X+ c #b08a5b",
"X@ c #c29d70",
"X# c #c3a078",
"X$ c #c19e7e",
"X% c #b4947b",
"X& c #b49583",
"X* c #a18378",
"X= c #604439",
"X- c #0d0700",
"X; c #150f03",
"X: c #160d04",
"X> c #1c110b",
"X, c #2c1e1b",
"X< c #4a3c39",
"X1 c #86816e",
"X2 c #797461",
"X3 c #6b6653",
"X4 c #7d7865",
"X5 c #aaa592",
"X6 c #b9b4a1",
"X7 c #95907d",
"X8 c #6a6552",
"X9 c #403a2c",
"X0 c #2b2517",
"Xq c #221c10",
"Xw c #1f1715",
"Xe c #be8655",
"Xr c #c69263",
"Xt c #c89870",
"Xy c #bd9474",
"Xu c #b09079",
"Xi c #a68c7d",
"Xp c #968279",
"Xa c #887770",
"Xs c #38352c",
"Xd c #17190b",
"Xf c #050d00",
"Xg c #0e1900",
"Xh c #181e02",
"Xj c #2a2813",
"Xk c #716557",
"Xl c #c6b3ac",
"Xz c #e3dbd9",
"Xx c #d8d3cd",
"Xc c #c3c1b5",
"Xv c #a5a696",
"Xb c #807f6d",
"Xn c #524f40",
"Xm c #332d21",
"XM c #2c231a",
"XN c #7e8551",
"XB c #868e5b",
"XV c #889569",
"XC c #849670",
"XZ c #7d9676",
"XA c #78967c",
"XS c #71927f",
"XD c #688d7b",
"XF c #81b3b2",
"XG c #446665",
"XH c #131c1b",
"XJ c #140603",
"XK c #442d27",
"XL c #928076",
"XP c #d0cabc",
"XI c #e4e7d6",
"XU c #ede8e2",
"XY c #e0ddd4",
"XT c #a09e91",
"XR c #4e4c3d",
"XE c #252314",
"XW c #1b170b",
"XQ c #171006",
"X! c #678c7a",
"X~ c #6b9280",
"X^ c #6d9688",
"X/ c #6c978e",
"X( c #689693",
"X) c #639594",
"X_ c #5f9295",
"X` c #5a8f93",
"X' c #4ba9ab",
"X] c #77bec2",
"X[ c #668e90",
"X{ c #424c4d",
"X} c #766f69",
"X| c #cdc7b9",
"o  c #e3e7d0",
"o. c #c6d5b8",
"oX c #c6c8bb",
"oo c #aeafa1",
"oO c #646555",
"o+ c #201e0f",
"o@ c #141102",
"o# c #549088",
"o$ c #57938b",
"o% c #5b9891",
"o& c #5f9b99",
"o* c #5d9a9b",
"o= c #579799",
"o- c #559499",
"o; c #53949a",
"o: c #4e9199",
"o> c #549599",
"o, c #83bfbd",
"o< c #a6dace",
"o1 c #8fb4a3",
"o2 c #738472",
"o3 c #706d5c",
"o4 c #6d604f",
"o5 c #4b5143",
"o6 c #3e4233",
"o7 c #222313",
"o8 c #131001",
"o9 c #1a1408",
"o0 c #59947e",
"oq c #5b9682",
"ow c #5f9a86",
"oe c #5f9c8c",
"or c #5e9b8c",
"ot c #5c988c",
"oy c #5b978d",
"ou c #5c988e",
"oi c #658c9b",
"op c #5b9098",
"oa c #4c9091",
"os c #60aba6",
"od c #86c7c1",
"of c #779e9b",
"og c #3f494b",
"oh c #21161c",
"oj c #041203",
"ok c #091102",
"ol c #16180a",
"oz c #201a0e",
"ox c #1a1207",
"oc c #1a110a",
"ov c #171111",
"ob c #589d8a",
"on c #5a9f8d",
"om c #59a090",
"oM c #579f91",
"oN c #569e93",
"oB c #559e95",
"oV c #559d99",
"oC c #539e99",
"oZ c #539d9e",
"oA c #469697",
"oS c #44999c",
"oD c #40999d",
"oF c #3f9497",
"oG c #529da2",
"oH c #599a9e",
"oJ c #457f83",
"oK c #3a4b43",
"oL c #121e14",
"oP c #0b0d02",
"oI c #1b1107",
"oU c #1a1007",
"oY c #1b1811",
"oT c #5c967d",
"oR c #629c84",
"oE c #65a08a",
"oW c #61a08f",
"oQ c #5f9f91",
"o! c #5da097",
"o~ c #599f97",
"o^ c #549994",
"o/ c #51998b",
"o( c #5ba197",
"o) c #599a96",
"o_ c #569293",
"o` c #569292",
"o' c #4e8c87",
"o] c #498b7f",
"o[ c #519886",
"o{ c #647a78",
"o} c #273633",
"o| c #0b0d08",
"O  c #1b120b",
"O. c #1f1209",
"OX c #170d01",
"Oo c #191305",
"OO c #1c1a0d",
/* pixels */
"   . X o O + @ # $ % & * = - ; : > , < 1 1 2 3 4 5 5 6 7 8 9 0 q w 9 e e e e",
" r t y u i p a s d f g h j 4 k l z 9 9 x c x 9 c v 7 b n m M N ; 9 e e e e e",
" B V y C Z A S D F G H J K L P I U Y b T Y R E W 2 4 Q ! ~ ^ / ( ) e e e e e",
" _ ` ' ] [ { } |. .. R.X.o.O.+.@.#.$ Y W W R.. E.%.&.*.=.-.;.:.> z ) e e e e",
".,.<.1.2.3.4.5.6.7.8.9.0.q.w.e.r w c c 9 z.t K e.y.u.i.p.a.s.d.f z ) e e e e",
".g.h.j.k.l.z.x.c.v.w.b.b.n.m.M.N.B.V.C M.C.Z.A.S.D.F.G.H.J.K.L.P ) e e e e e",
".I.U.Y.T.R.E.W.Q.!.~.^.^./.(.)._.`.'.].`.[.{.}.|X X.XXXoXO > K.t 9 e e e e e",
"X+X@X#X$X%X&X*X=X-X;X;X:X>X>X,X<X1X2X3X4X5X6X7X8X9X0Xq q < K..Xw w 9 e e e e",
"XeXrXtXyXuXiXpXaXsXdXfXgXhXjXkXlXzXxXcXvXbXnXmXM w w w w w w w w e e e e e e",
"XNXBXVXCXZXAXSXDXFXGXHXJXKXLXPXIXUXYXTXRXEXWXQ.) w w w w w w w w e e e e e e",
"X!X~X^X/X(X)X_X`X'X]X[X{X}X|o o.oXoooOo+o@ M R 7 9 9 9 9 9 9 9 9 e e e e e e",
"o#o$o%o&o*o=o-o;o:o>o,o<o1o2o3o4o5o6o7o8o9 1 7 5 9 9 9 9 9 9 9 9 e e e e e e",
"o0oqowoeorotoyouoiopoaosodofogohojokolozoxoc Tov 9 9 9 9 9 9 9 9 e e e e e e",
"obonomoMoNoBoVoCoZoAoSoDoFoGoHoJoKoLoP MoIoU 3oY 9 9 9 9 9 9 9 9 e e e e e e",
"oToRoEoWoQo!o~o^o/o(o)o_o`o'o]o[o{o}o|O O.OXOoOO w w w w w w w w e e e e e e"
};
