/* XPM */
static char *freeimage[] = {
/* width height num_colors chars_per_pixel */
"38 33 657 2",
/* colors */
"   c #6b5e4b",
" . c #665a44",
" X c #63573f",
" o c #6b5f47",
" O c #685b48",
" + c #6e6151",
" @ c #62544b",
" # c #20110a",
" $ c #010800",
" % c #070000",
" & c #3a1912",
" * c #80523b",
" = c #9a664e",
" - c #9a6e61",
" ; c #7e6254",
" : c #6d5d43",
" > c #645d43",
" , c #655f45",
" < c #665f45",
" 1 c #675d42",
" 2 c #6a5c42",
" 3 c #6c5c45",
" 4 c #6b5c45",
" 5 c #695d47",
" 6 c #695d45",
" 7 c #685c44",
" 8 c #655845",
" 9 c #6d614b",
" 0 c #685c42",
" q c #675b43",
" w c #6e614e",
" e c #675a4a",
" r c #36281b",
" t c #000400",
" y c #221e1f",
" u c #432928",
" i c #704733",
" p c #926852",
" a c #94736a",
" s c #8a7972",
" d c #5b5a48",
" f c #6b5b44",
" g c #6c5c43",
" h c #6c5e43",
" j c #695e42",
" k c #685d41",
" l c #685c46",
" z c #695c49",
" x c #645746",
" c c #6e624c",
" v c #6a5e46",
" b c #6a5f43",
" n c #6b5f45",
" m c #6c6048",
" M c #564a34",
" N c #152324",
" B c #77767e",
" V c #867273",
" C c #785945",
" Z c #7c5d49",
" A c #83706c",
" S c #b5b5b7",
" D c #8c9b94",
" F c #715844",
" G c #705741",
" H c #705b40",
" J c #6e5f40",
" K c #685f40",
" L c #645d41",
" P c #6b5b4b",
" I c #695c4b",
" U c #6a5e48",
" Y c #6e6345",
" T c #6b6040",
" R c #695e40",
" E c #706549",
" W c #695d43",
" Q c #23272a",
" ! c #59525a",
" ~ c #6a5655",
" ^ c #634d36",
" / c #827058",
" ( c #a39e98",
" ) c #dbe9ea",
" _ c #aac5c0",
" ` c #6f594b",
" ' c #6d5342",
" ] c #715740",
" [ c #725f41",
" { c #69603f",
" } c #645f41",
" | c #685d47",
".  c #6d5b4d",
".. c #685d3f",
".X c #6d6246",
".o c #72664c",
".O c #60543c",
".+ c #3b312f",
".@ c #423338",
".# c #655651",
".$ c #6e6449",
".% c #929175",
".& c #9ca89e",
".* c #a2bcbb",
".= c #87aca4",
".- c #696b60",
".; c #63594d",
".: c #6c5543",
".> c #725e43",
"., c #6a6140",
".< c #646142",
".1 c #686049",
".2 c #6f5c4e",
".3 c #6a5e44",
".4 c #6e6347",
".5 c #64593d",
".6 c #726650",
".7 c #6a5d4c",
".8 c #443629",
".9 c #2c1a16",
".0 c #302428",
".q c #62615d",
".w c #697861",
".e c #7c9881",
".r c #658a83",
".t c #467472",
".y c #5a8d84",
".u c #668f8b",
".i c #5c6d67",
".p c #645a50",
".a c #705e48",
".s c #6a6142",
".d c #636341",
".f c #696248",
".g c #6f5c4d",
".h c #6c6143",
".j c #6d6244",
".k c #6d6050",
".l c #54453e",
".z c #2b1c19",
".x c #2d2220",
".c c #37373f",
".v c #597175",
".b c #71a195",
".n c #8accc0",
".m c #82c8ca",
".M c #5fa6ac",
".N c #67aea8",
".B c #69babd",
".V c #598787",
".C c #60625d",
".Z c #6e5e4e",
".A c #685f42",
".S c #646140",
".D c #696246",
".F c #6e5c48",
".G c #6c6141",
".H c #6a5f3f",
".J c #6c6046",
".K c #736655",
".L c #64564d",
".P c #3e2e2e",
".I c #221117",
".U c #2a2627",
".Y c #4c5868",
".T c #6993a1",
".R c #76bebd",
".E c #6cc6c6",
".W c #70ceda",
".Q c #7cd5e3",
".! c #84dad9",
".~ c #6cd9de",
".^ c #5a9b9f",
"./ c #5e6a6a",
".( c #6b5d50",
".) c #675c40",
"._ c #63603f",
".` c #696245",
".' c #70654f",
".] c #665c41",
".[ c #6f6144",
".{ c #71604e",
".} c #604b48",
".| c #361e2b",
"X  c #2e1229",
"X. c #332f3e",
"XX c #52565f",
"Xo c #76898d",
"XO c #9ac0c9",
"X+ c #a4e1f3",
"X@ c #8fe2f2",
"X# c #7de3e8",
"X$ c #73e4de",
"X% c #69e5f1",
"X& c #70cfd3",
"X* c #5d8e88",
"X= c #58584c",
"X- c #775549",
"X; c #805948",
"X: c #70583e",
"X> c #6b6543",
"X, c #6e5f48",
"X< c #655a44",
"X1 c #716348",
"X2 c #6d5c4a",
"X3 c #55403d",
"X4 c #482e3b",
"X5 c #361a30",
"X6 c #382636",
"X7 c #514a52",
"X8 c #758181",
"X9 c #a9c8ca",
"X0 c #caf8ff",
"Xq c #c3fdff",
"Xw c #b4f4fd",
"Xe c #a7edeb",
"Xr c #88eaf7",
"Xt c #81d9e3",
"Xy c #6eaeb0",
"Xu c #637c79",
"Xi c #695c53",
"Xp c #75594b",
"Xa c #74624c",
"Xs c #646047",
"Xd c #645a41",
"Xf c #6f6349",
"Xg c #716349",
"Xh c #6a5949",
"Xj c #523d3a",
"Xk c #4c323d",
"Xl c #412637",
"Xz c #623d4e",
"Xx c #685559",
"Xc c #797f75",
"Xv c #a9c3ba",
"Xb c #d7f6f8",
"Xn c #e3ffff",
"Xm c #e6faff",
"XM c #e6f4f7",
"XN c #c0f9ff",
"XB c #a6eefc",
"XV c #89d7e4",
"XC c #74abb0",
"XZ c #5c6b64",
"XA c #635645",
"XS c #766752",
"XD c #635e4b",
"XF c #71654d",
"XG c #70614a",
"XH c #705f4b",
"XJ c #5a4240",
"XK c #3f262c",
"XL c #513543",
"XP c #79515c",
"XI c #7d6a64",
"XU c #8a927b",
"XY c #b3cfb6",
"XT c #d9f8e9",
"XR c #e6f4f4",
"XE c #f0eaee",
"XW c #f7e3e5",
"XQ c #ecf8f8",
"X! c #caf9ff",
"X~ c #a5f4ff",
"X^ c #90dbe0",
"X/ c #70948a",
"X( c #615f48",
"X) c #716148",
"X_ c #6f604d",
"X` c #746850",
"X' c #70614c",
"X] c #756454",
"X[ c #735f54",
"X{ c #543c38",
"X} c #3d2227",
"X| c #62474e",
"o  c #785a5a",
"o. c #817565",
"oX c #90a07c",
"oo c #b7d9b4",
"oO c #d9fde3",
"o+ c #e2f6eb",
"o@ c #ede9e8",
"o# c #f5e3e3",
"o$ c #f5e6df",
"o% c #def8f7",
"o& c #bdffff",
"o* c #b4feff",
"o= c #a2cdc3",
"o- c #767b65",
"o; c #69583e",
"o: c #786046",
"o> c #6d5e47",
"o, c #71624d",
"o< c #7a6759",
"o1 c #6c554d",
"o2 c #462d29",
"o3 c #523839",
"o4 c #725559",
"o5 c #7f6860",
"o6 c #837d63",
"o7 c #8a9b71",
"o8 c #a9cda1",
"o9 c #cdf4d7",
"o0 c #dcfcef",
"oq c #e8fbf7",
"ow c #eef9f5",
"oe c #f5ece5",
"or c #e7fcf5",
"ot c #cefffd",
"oy c #c5ffff",
"ou c #beefeb",
"oi c #8d9e94",
"op c #675c48",
"oa c #765d3f",
"os c #6f6049",
"od c #6b5d43",
"of c #6f604b",
"og c #726151",
"oh c #715d52",
"oj c #523b35",
"ok c #6a4e4d",
"ol c #755958",
"oz c #7e685b",
"ox c #867b5f",
"oc c #8b9268",
"ov c #a4bb91",
"ob c #c1e3c8",
"on c #cef6eb",
"om c #d4fefa",
"oM c #d3fdfb",
"oN c #e7fcff",
"oB c #dffef9",
"oV c #d4fff8",
"oC c #c3fdfe",
"oZ c #bef8ff",
"oA c #9fc5d0",
"oS c #6d776f",
"oD c #6a5c41",
"oF c #706049",
"oG c #72644a",
"oH c #675642",
"oJ c #7c6b5b",
"oK c #634f46",
"oL c #3a221e",
"oP c #543b37",
"oI c #735754",
"oU c #715552",
"oY c #7e6457",
"oT c #88775d",
"oR c #8c8960",
"oE c #9da782",
"oW c #b4cdb7",
"oQ c #bde6de",
"o! c #c1f7f7",
"o~ c #bffdfc",
"o^ c #cdfcff",
"o/ c #caf6f5",
"o( c #d2fff6",
"o) c #c1f8fd",
"o_ c #bafaff",
"o` c #b0e6ff",
"o' c #7d9599",
"o] c #5e5c45",
"o[ c #72634e",
"o{ c #7e6e57",
"o} c #614d44",
"o| c #2e151b",
"O  c #543847",
"O. c #70555c",
"OX c #735756",
"Oo c #756651",
"OO c #84785e",
"O+ c #918869",
"O@ c #9a9a78",
"O# c #aab799",
"O$ c #b7d4be",
"O% c #b9e7dc",
"O& c #b9f0ed",
"O* c #c1f8f5",
"O= c #b3f2f9",
"O- c #c0feff",
"O; c #cbffff",
"O: c #b8edfb",
"O> c #b2e5f6",
"O, c #a0babb",
"O< c #635c49",
"O1 c #6f6147",
"O2 c #74644d",
"O3 c #5d493e",
"O4 c #31181e",
"O5 c #492d3b",
"O6 c #6a4f56",
"O7 c #715554",
"O8 c #766a54",
"O9 c #867a60",
"O0 c #908768",
"Oq c #949470",
"Ow c #9eac8b",
"Oe c #a7c4ae",
"Or c #abd6cc",
"Ot c #ace0dc",
"Oy c #acdedf",
"Ou c #b7f3fd",
"Oi c #bffdff",
"Op c #c1f7ff",
"Oa c #a8e0ef",
"Os c #a8e0f1",
"Od c #abc9cb",
"Of c #6d6c57",
"Og c #6e5f4a",
"Oh c #74664c",
"Oj c #6d5d44",
"Ok c #604c41",
"Ol c #3c2329",
"Oz c #422634",
"Ox c #5e434a",
"Oc c #6e524f",
"Ov c #776c56",
"Ob c #877d62",
"On c #8f8967",
"Om c #91916d",
"OM c #97a280",
"ON c #9cb69d",
"OB c #9ec7b9",
"OV c #a2d3cd",
"OC c #a4d1d6",
"OZ c #a8e0ed",
"OA c #b0e9fa",
"OS c #9fd8e9",
"OD c #a3def0",
"OF c #b0d3d5",
"OG c #6b735e",
"OH c #75674c",
"OJ c #6f5f46",
"OK c #665247",
"OL c #4c3337",
"OP c #462a38",
"OI c #52373c",
"OU c #6c504d",
"OY c #706853",
"OT c #817a5e",
"OR c #8d8765",
"OE c #908e68",
"OW c #949b79",
"OQ c #94ab91",
"O! c #98baaa",
"O~ c #9dc8bf",
"O^ c #a8cfd6",
"O/ c #9ecfde",
"O( c #a1d9ea",
"O) c #a6dae8",
"O_ c #96cfe2",
"O` c #a9e3f7",
"O' c #a9d1d3",
"O] c #646d58",
"O[ c #71614a",
"O{ c #736349",
"O} c #675446",
"O| c #533a3e",
"+  c #4f333f",
"+. c #492e33",
"+X c #6b4f4c",
"+o c #69634d",
"+O c #7a7558",
"++ c #898361",
"+@ c #8e8c65",
"+# c #929874",
"+$ c #90a387",
"+% c #91ae9c",
"+& c #96bab0",
"+* c #a3c6cc",
"+= c #9ccad9",
"+- c #9dd0e1",
"+; c #94c4d2",
"+: c #a0d5e7",
"+> c #b5ecff",
"+, c #94b7b9",
"+< c #646953",
"+1 c #71624b",
"+2 c #6d5f44",
"+3 c #655244",
"+4 c #51383b",
"+5 c #553945",
"+6 c #4c3136",
"+7 c #6a4e4a",
"+8 c #68664f",
"+9 c #88825e",
"+0 c #908c66",
"+q c #939772",
"+w c #909f82",
"+e c #8ca592",
"+r c #8eaca0",
"+t c #99bbbd",
"+y c #8ebac5",
"+u c #8fbfcd",
"+i c #9ac6d1",
"+p c #c0eefe",
"+a c #b2e1f3",
"+s c #6c8687",
"+d c #67624c",
"+f c #716147",
"+g c #695647",
"+h c #553c3f",
"+j c #5b4049",
"+k c #5a4043",
"+l c #664a46",
"+z c #65654d",
"+x c #747053",
"+c c #807c57",
"+v c #8a875e",
"+b c #90926b",
"+n c #8b9678",
"+m c #859884",
"+M c #849e91",
"+N c #88aaa9",
"+B c #7ca9af",
"+V c #8fbbc6",
"+C c #a8ced7",
"+Z c #b3dbe7",
"+A c #89aebe",
"+S c #576565",
"+D c #6e5e45",
"+F c #736548",
"+G c #726346",
"+H c #736051",
"+J c #5d4447",
"+K c #60454e",
"+L c #664c4f",
"+P c #624642",
"+I c #5a5a42",
"+U c #656446",
"+Y c #716d48",
"+T c #7c7950",
"+R c #85855f",
"+E c #80896a",
"+W c #788976",
"+Q c #778f81",
"+! c #72958f",
"+~ c #7fabae",
"+^ c #a5d2d8",
"+/ c #a7cad0",
"+( c #7799a3",
"+) c #577786",
"+_ c #626866",
"+` c #786048",
"+' c #74634f",
"+] c #72614d",
"+[ c #71604c",
"+{ c #6a5945",
"+} c #655440",
"+| c #636243",
"@  c #646546",
"@. c #66694c",
"@X c #6c7258",
"@o c #747e65",
"@O c #7d8b74",
"@+ c #859781",
"@@ c #8b9c89",
"@# c #89a9b6",
"@$ c #85a1ac",
"@% c #799096",
"@& c #6d7b7c",
"@* c #676c66",
"@= c #6a665b",
"@- c #6f6353",
"@; c #6f5f4f",
"@: c #726249",
"@> c #73624e",
"@, c #6e5d49",
"@< c #6b5a46",
"@1 c #6d684a",
"@2 c #6f6b4e",
"@3 c #727155",
"@4 c #76795e",
"@5 c #797e67",
"@6 c #7b856d",
"@7 c #7b8771",
"@8 c #7c8975",
"@9 c #677d7a",
"@0 c #677a74",
"@q c #657269",
"@w c #5f675a",
"@e c #60614f",
"@r c #68624c",
"@t c #6e6248",
"@y c #6f6146",
"@u c #6d6147",
"@i c #70694f",
"@p c #716d54",
"@a c #706e57",
"@s c #6c6e58",
"@d c #696c57",
"@f c #666b55",
"@g c #646952",
"@h c #656950",
"@j c #65684d",
"@k c #666547",
"@l c #6b6447",
"@z c #716646",
"@x c #746745",
"@c c #756744",
"@v c #73634a",
"@b c #73634c",
"@n c #72624b",
"@m c #75654e",
"@M c #70644c",
"@N c #6d654e",
"@B c #6b654d",
"@V c #6a654f",
"@C c #6f6444",
"@Z c #706545",
"@A c #726545",
"@S c #716444",
"@D c #736445",
"@F c #726344",
"@G c #77654d",
"@H c #76644c",
"@J c #75634b",
"@K c #73644d",
"@L c #72664e",
"@P c #73674f",
"@I c #756045",
"@U c #746047",
"@Y c #756148",
"@T c #736149",
"@R c #73614b",
"@E c #73614d",
"@W c #74644b",
"@Q c #715f47",
"@! c #726048",
"@~ c #726248",
"@^ c #77634b",
"@/ c #756149",
"@( c #75604b",
"@) c #77624f",
"@_ c #766352",
"@` c #756253",
"@' c #776557",
"@] c #75654c",
"@[ c #74644a",
"@{ c #736447",
"@} c #73654b",
"@| c #72634c",
"#  c #76664d",
"#. c #716245",
"#X c #756446",
"#o c #6f684b",
"#O c #6e6548",
"#+ c #6f6649",
"#@ c #73684c",
"## c #726447",
"#$ c #746649",
"#% c #796950",
"#& c #78684f",
"#* c #786a50",
"#= c #786851",
/* pixels */
"   . X o O + @ # $ % & * = - ; : > , < 1 2 3 4 5 6 6 6 6 6 6 6 6 7 7 7 7 7 7",
" 8 9 7 0 q w e r t y u i p a s d f g h j k 0 l z 6 6 6 6 6 6 6 6 7 7 7 7 7 7",
" x c v b j n m M N B V C Z A S D F G H J K L l P 6 6 6 6 6 6 6 6 7 7 7 7 7 7",
" I U 0 Y T R E W Q ! ~ ^ / ( ) _ ` ' ] [ { } |.  v v v v v v v v 6 6 6 6 6 6",
" 9 q b Y...X.o.O.+.@.#.$.%.&.*.=.-.;.:.>.,.<.1.2 v v v v v v v v v v v v v v",
" o.3.4 R.5.6.7.8.9.0.q.w.e.r.t.y.u.i.p.a.s.d.f.g o o o o o o o o v v v v v v",
" b.h.j k 5.k.l.z.x.c.v.b.n.m.M.N.B.V.C.Z.A.S.D.F o o o o o o o o v v v v v v",
".G.H R.J.K.L.P.I.U.Y.T.R.E.W.Q.!.~.^./.(.)._.` 3 o o o o o o o o o o o o o o",
".'.].j.[.{.}.|X X.XXXoXOX+X@X#X$X%X&X*X=X-X;X:X>X,X,X,X,X,X,X,X, m m m m m m",
"X<.$ kX1X2X3X4X5X6X7X8X9X0XqXwXeXrXtXyXuXiXpXaXsX,X,X,X,X,X,X,X, m m m m m m",
"XdXf jXgXhXjXkXlXzXxXcXvXbXnXmXMXNXBXVXCXZXAXSXDX,X,X,X,X,X,X,X, m m m m m m",
"XF 6XGXH.2XJXKXLXPXIXUXYXTXRXEXWXQX!X~X^X/X(X)X_X,X,X,X,X,X,X,X,X,X,X,X,X,X,",
"X` 4X'X]X[X{X}X|o o.oXoooOo+o@o#o$o%o&o*o=o-o;o:X,X,X,X,X,X,X,X,X,X,X,X,X,X,",
"o>o,X2o<o1o2o3o4o5o6o7o8o9o0oqowoeorotoyouoiopoaosososososososososososososos",
"odofogohojo2okolozoxocovobonomoMoNoBoVoCoZoAoSoDososososososososoFoFoFoFoFoF",
"oGoHoJoKoLoPoIoUoYoToRoEoWoQo!o~o^o/o(o)o_o`o'o]ososososososososoFoFoFoFoFoF",
"o[ 2o{o}o|O O.OXOoOOO+O@O#O$O%O&O*O=O-O;O:O>O,O<oFoFoFoFoFoFoFoFoFoFoFoFoFoF",
"X'O1O2O3O4O5O6O7O8O9O0OqOwOeOrOtOyOuOiOpOaOsOdOfoFoFoFoFoFoFoFoFoFoFoFoFoFoF",
"OgOhOjOkOlOzOxOcOvObOnOmOMONOBOVOCOZOAO:OSODOFOGoFoFoFoFoFoFoFoFoFoFoFoFoFoF",
"o>OHOJOKOLOPOIOUOYOTOROEOWOQO!O~O^O/O(O)O_O`O'O]O[O[O[O[O[O[O[O[X)X)X)X)X)X)",
"osX1O{O}O|+ +.+X+o+O+++@+#+$+%+&+*+=+-+;+:+>+,+<O[O[O[O[O[O[O[O[X)X)X)X)X)X)",
"+1+2O{+3+4+5+6+7+8+O+9+0+q+w+e+r+t+y+u+i+p+a+s+dO[O[O[O[O[O[O[O[+f+f+f+f+f+f",
"Xg.[+f+g+h+j+k+l+z+x+c+v+b+n+m+M+N+B+V+C+Z+A+S+DO[O[O[O[O[O[O[O[+f+f+f+f+f+f",
"O1+F+G+H+J+K+L+P+I+U+Y+T+R+E+W+Q+!+~+^+/+(+)+_+`O[O[O[O[O[O[O[O[+f+f+f+f+f+f",
"+'+]+]+'+[+{+}+}+|@ @.@X@o@O@+@@@#@$@%@&@*@=@-@;@:@:@:@:@:@:@:@:@:@:@:@:@:@:",
"@>+]+]+'@>@,@<@<@1@2@3@4@5@6@7@8@9@0@q@w@e@r@t@y@:@:@:@:@:@:@:@:@:@:@:@:@:@:",
"@>+]+]+'+'+]+[+]@u.$@i@p@a@s@d@f@g@h@j@k@l@z@x@c@v@v@v@v@v@v@v@v@:@:@:@:@:@:",
"@b@n@bO2O2O2@m@m@v@voG@M@N@B@V@V@C@Z@Z@A@S@D@F@F@v@v@v@v@v@v@v@v@:@:@:@:@:@:",
"@b@b@b@n@bO2O2O2@G@H@J@v@K@L@PX`@I@I@U@Y@T@R@E@>@v@v@v@v@v@v@v@v@:@:@:@:@:@:",
"@v@W@W@:@:@v@v@:@Q@!@T@T@:@~+f+f@^@/@(@)@_@`X]@'@v@v@v@v@v@v@v@v@v@v@v@v@v@v",
"@v@]@]@:@:@W@WX)@:@v@v@[@[@{+G+G@}XgXG@|@bXHXH@>@W@W@W@W@W@W@W@W@v@v@v@v@v@v",
"@:@]# @v@v@]@]@:@v@vX)+f#.+G@D#X#o#O#+#@#@#####$@W@W@W@W@W@W@W@W@v@v@v@v@v@v",
"#%#%#%#%#%#%#%#%#&#&#&#&#&#&#&#&#*#*#*#*#*#*#*#*#&#&#&#&#&#&#&#&#=#=#=#=#=#="
};
