/* XPM */
static char *freeimage[] = {
/* width height num_colors chars_per_pixel */
"46 14 381 2",
/* colors */
"   c #231514",
" . c #241613",
" X c #271d14",
" o c #1e170d",
" O c #1b170c",
" + c #201d16",
" @ c #1a1915",
" # c #171715",
" $ c #1e1a11",
" % c #18130d",
" & c #201815",
" * c #241a18",
" = c #221715",
" - c #261815",
" ; c #25160f",
" : c #1f1108",
" > c #23201b",
" , c #1d1812",
" < c #19140e",
" 1 c #1d160e",
" 2 c #1f160d",
" 3 c #1f150b",
" 4 c #23160d",
" 5 c #1e1711",
" 6 c #1d1610",
" 7 c #1b140e",
" 8 c #19120c",
" 9 c #17100a",
" 0 c #18110b",
" q c #1a130d",
" w c #17120c",
" e c #16110b",
" r c #150e08",
" t c #1f1812",
" y c #19120a",
" u c #1c180c",
" i c #171508",
" p c #151608",
" a c #191b10",
" s c #141710",
" d c #161813",
" f c #19150c",
" g c #1a1511",
" h c #1a1512",
" j c #191411",
" k c #1c1412",
" l c #211916",
" z c #271f1c",
" x c #16130e",
" c c #1b1813",
" v c #201b17",
" b c #1f1a14",
" n c #1c150f",
" m c #181109",
" M c #1b120b",
" N c #201913",
" B c #3d3528",
" V c #393222",
" C c #3a3320",
" Z c #36301a",
" A c #332e1a",
" S c #302b18",
" D c #292317",
" F c #2d261c",
" G c #2f2116",
" H c #30231a",
" J c #281e15",
" K c #201710",
" L c #14110c",
" P c #12110d",
" I c #161513",
" U c #231e1a",
" Y c #1f1a16",
" T c #191611",
" R c #181510",
" E c #1c1914",
" W c #1f1c17",
" Q c #1e1b16",
" ! c #b49a83",
" ~ c #b0947c",
" ^ c #b2977a",
" / c #b09578",
" ( c #af9175",
" ) c #a4866e",
" _ c #987764",
" ` c #9e7d6c",
" ' c #b59483",
" ] c #ba9b87",
" [ c #b09580",
" { c #9f8974",
" } c #847361",
" | c #625545",
".  c #3f352b",
".. c #21180f",
".X c #140b02",
".o c #191007",
".O c #201911",
".+ c #211c16",
".@ c #1d1a15",
".# c #161511",
".$ c #171612",
".% c #1a1a18",
".& c #c39478",
".* c #c29173",
".= c #c49172",
".- c #c59070",
".; c #c38a6c",
".: c #b5795f",
".> c #a36550",
"., c #aa6858",
".< c #c68e77",
".1 c #d8a288",
".2 c #dfb190",
".3 c #e3bb98",
".4 c #ddbb98",
".5 c #d5b89a",
".6 c #cab097",
".7 c #af9680",
".8 c #796655",
".9 c #524131",
".0 c #2a1a0b",
".q c #190d01",
".w c #1a1108",
".e c #1b1610",
".r c #8a5841",
".t c #8a583f",
".y c #8f593f",
".u c #92593e",
".i c #955740",
".p c #8b4835",
".a c #7d3527",
".s c #853b32",
".d c #ad6956",
".f c #c17f67",
".g c #c48866",
".h c #c69169",
".j c #c4936a",
".k c #c2966f",
".l c #cba380",
".z c #c59e81",
".x c #d1af93",
".c c #bb9c80",
".v c #977b63",
".b c #68523d",
".n c #392818",
".m c #1a0c00",
".M c #160c02",
".N c #20170e",
".B c #160f09",
".V c #211a14",
".C c #30150a",
".Z c #34180c",
".A c #3a1a0d",
".S c #3f190c",
".D c #4c2015",
".F c #4c1b16",
".G c #461010",
".H c #54191f",
".J c #924f49",
".K c #b77567",
".L c #c3876d",
".P c #d8a07b",
".I c #e0ac84",
".U c #c2926a",
".Y c #b68867",
".T c #b98c6f",
".R c #b68962",
".E c #c29671",
".W c #caa181",
".Q c #c09e82",
".! c #a1856d",
".~ c #725c47",
".^ c #3d2c1c",
"./ c #190900",
".( c #221b15",
".) c #1a150f",
"._ c #1b1a18",
".` c #1e1a17",
".' c #1e1613",
".] c #1d0f0c",
".[ c #291413",
".{ c #2c0f14",
".} c #260510",
".| c #351021",
"X  c #65262e",
"X. c #945857",
"XX c #a8705f",
"Xo c #ce9b7c",
"XO c #ddad89",
"X+ c #a17351",
"X@ c #74472a",
"X# c #75472f",
"X$ c #8c5628",
"X% c #98653a",
"X& c #a5754d",
"X* c #b18966",
"X= c #c3a082",
"X- c #c3a78f",
"X; c #a58c78",
"X: c #7d6855",
"X> c #322b25",
"X, c #211a12",
"X< c #221b13",
"X1 c #2c0a18",
"X2 c #571e27",
"X3 c #934543",
"X4 c #bd7060",
"X5 c #e5ac91",
"X6 c #9d7158",
"X7 c #260000",
"X8 c #441012",
"X9 c #4a1714",
"X0 c #521817",
"Xq c #672324",
"Xw c #843d39",
"Xe c #9b594b",
"Xr c #a87558",
"Xt c #b7946a",
"Xy c #bda672",
"Xu c #be9776",
"Xi c #8b694d",
"Xp c #452f1a",
"Xa c #130c04",
"Xs c #1e1913",
"Xd c #1c1910",
"Xf c #17170d",
"Xg c #13150a",
"Xh c #15160e",
"Xj c #191911",
"Xk c #1b110f",
"Xl c #201211",
"Xz c #221d1a",
"Xx c #28100e",
"Xc c #441711",
"Xv c #773f32",
"Xb c #b88874",
"Xn c #be9885",
"Xm c #664937",
"XM c #1b0100",
"XN c #270200",
"XB c #370b0a",
"XV c #440e0e",
"XC c #3e0001",
"XZ c #4b0a06",
"XA c #602517",
"XS c #753f27",
"XD c #986747",
"XF c #c19473",
"XG c #c7a081",
"XH c #b5957c",
"XJ c #7c6754",
"XK c #382c1e",
"XL c #130c02",
"XP c #120f08",
"XI c #1e1e16",
"XU c #160f07",
"XY c #1b1b11",
"XT c #181911",
"XR c #13140c",
"XE c #15120b",
"XW c #19110e",
"XQ c #180e0c",
"X! c #1c2216",
"X~ c #1c1c10",
"X^ c #1b0c05",
"X/ c #35140f",
"X( c #6c3c38",
"X) c #b78880",
"X_ c #b79886",
"X` c #55432b",
"X' c #26150d",
"X] c #230b07",
"X[ c #30110f",
"X{ c #2c0204",
"X} c #320002",
"X| c #3d0000",
"o  c #57100a",
"o. c #703c24",
"oX c #9d6b52",
"oo c #c79981",
"oO c #c8a389",
"o+ c #a38771",
"o@ c #6b5847",
"o# c #312819",
"o$ c #0b0700",
"o% c #22130c",
"o& c #1b1108",
"o* c #15150b",
"o= c #11120a",
"o- c #1f1f17",
"o; c #1a1712",
"o: c #221409",
"o> c #262418",
"o, c #1f201a",
"o< c #241415",
"o1 c #350a11",
"o2 c #71363a",
"o3 c #bc887d",
"o4 c #c69d87",
"o5 c #534b40",
"o6 c #1f160f",
"o7 c #1b0d0a",
"o8 c #2b1718",
"o9 c #2e0e13",
"o0 c #32030b",
"oq c #3c0008",
"ow c #4a070e",
"oe c #3c0300",
"or c #541a0e",
"ot c #7d4230",
"oy c #ae745e",
"ou c #d39f87",
"oi c #cca28a",
"op c #90705b",
"oa c #533825",
"os c #26130d",
"od c #160700",
"of c #1f1c13",
"og c #14160b",
"oh c #101109",
"oj c #14150d",
"ok c #111109",
"ol c #33120d",
"oz c #1f140e",
"ox c #141f17",
"oc c #1c211d",
"ov c #271113",
"ob c #3b090a",
"on c #763934",
"om c #c3887a",
"oM c #b4a69b",
"oN c #584e45",
"oB c #170e09",
"oV c #201614",
"oC c #271717",
"oZ c #240a0b",
"oA c #340d10",
"oS c #350709",
"oD c #4e171d",
"oF c #440a09",
"oG c #3f0000",
"oH c #571505",
"oJ c #8f4e38",
"oK c #c4886e",
"oL c #d29c82",
"oP c #c6947b",
"oI c #7a665f",
"oU c #3e2d25",
"oY c #180e05",
"oT c #19150a",
"oR c #181810",
"oE c #301315",
"oW c #231512",
"oQ c #212419",
"o! c #13190b",
"o~ c #201a0c",
"o^ c #34180d",
"o/ c #41150a",
"o( c #79453a",
"o) c #be9d94",
"o_ c #83665e",
"o` c #321b13",
"o' c #26130c",
"o] c #301d16",
"o[ c #260f07",
"o{ c #301409",
"o} c #321207",
"o| c #3c0b0e",
"O  c #461415",
"O. c #4a1511",
"OX c #410b01",
"Oo c #461101",
"OO c #66311f",
"O+ c #915e49",
"O@ c #ab7b65",
"O# c #9d8c84",
"O$ c #53463d",
"O% c #1b1308",
"O& c #141005",
"O* c #18160a",
"O= c #17140b",
/* pixels */
"   . X o O + @ # $ % & * = - ; : > , < 1 2 3 3 4 5 6 6 7 8 9 0 q w w w w e e e e 0 8 0 8 r t",
" 7 y u i p a s d f % g h j k l z x c v b n m m M 7 n n n 6 6 7 0 % w w w w e e e 0 8 0 8 r N",
" B V C Z A S D F G H J K n L P I U Y T R E W Q c 6 5 n q 6 N 6 9 % % % w w w w w 0 8 0 8 r N",
" ! ~ ^ / ( ) _ ` ' ] [ { } |. ...X.o.O.+.@.#.$.% t N 5 0 0 6 6 8 % % % % % w w w 0 8 0 8 r N",
".&.*.=.-.;.:.>.,.<.1.2.3.4.5.6.7.8.9.0.q.w.e c @ q 5 5 q 0 q n 7 < < < % % % % % 8 8 8 8 r N",
".r.t.y.u.i.p.a.s.d.f.g.h.j.k.l.z.x.c.v.b.n.m.M.N 9 8 6 5 5 n n 6 < < < < < % % % 8 q 8 q.B.V",
".C.Z.A.S.D.F.G.H.J.K.L.P.I.U.Y.T.R.E.W.Q.!.~.^./.( 7 8 5 N 5 n 6.).).) < < < < % 8 q 8 q.B.V",
"._.`.'.].[.{.}.|X X.XXXoXOX+X@X#X$X%X&X*X=X-X;X:X>.( 9 q t 6 7 5.).).).) < < < < 8 q 8 q.B.V",
"X,X,X<X<X<X<X,X,X1X2X3X4X5X6X7X8X9X0XqXwXeXrXtXyXuXiXp.qXa cXs %XdXfXgXhXj gXkXl q q 8 q r.V",
"X,X,X<X<X<X<X,X,XzXxXcXvXbXnXmXMXNXBXVXCXZXAXSXDXFXGXHXJXKXLXPXIXU fXYXTXRXEXWXQ q 7 8 q.B.V",
"X,X,X<X<X<X<X,X,X!X~X^X/X(X)X_X`X'X]X[X{X}XCX|o o.oXoooOo+o@o#o$o%o& fo*o=XTo-o; 7 7 q q.B.(",
"X,X,X<X<X<X<X,X,o:o>o,o<o1o2o3o4o5o6o7o8o9o0oqowoeorotoyouoiopoaosod.oofogohojok 7 n q 7 9.(",
"X,X,X<X<X<X<X,X,olozoxocovobonomoMoNoBoVoCoZoAoSoDoFoGoHoJoKoLoPoIoUoYoTXfogoRoR 7 n q 7 9.(",
"X,X,X<X<X<X<X,X,oEoWoQo!o~o^o/o(o)o_o`o'o]o[o{o}o|O O.OXOoOOO+O@O#O$O%O&O*O= f 1 7 7 q q.B.("
};
