/* XPM */
static char *freeimage[] = {
/* width height num_colors chars_per_pixel */
"25 22 500 2",
/* colors */
"   c #355e5a",
" . c #345d59",
" X c #305b54",
" o c #2c5952",
" O c #2c5b51",
" + c #2c5e53",
" @ c #2c6053",
" # c #295b52",
" $ c #2e6057",
" % c #33655c",
" & c #32645b",
" * c #36685f",
" = c #407269",
" - c #44766d",
" ; c #45776e",
" : c #527d74",
" > c #518076",
" , c #4e8679",
" < c #4e8b7c",
" 1 c #528f80",
" 2 c #578f82",
" 3 c #5b8f83",
" 4 c #5d8c82",
" 5 c #649c8f",
" 6 c #37605c",
" 7 c #335c58",
" 8 c #335e57",
" 9 c #336059",
" 0 c #305f55",
" q c #285a4f",
" w c #285a4e",
" e c #2b5f52",
" r c #306259",
" t c #34665d",
" y c #3f7168",
" u c #4d7f76",
" i c #517f75",
" p c #528479",
" a c #51897c",
" s c #4c897a",
" d c #518b7d",
" f c #5b9184",
" g c #63958a",
" h c #5e9689",
" j c #365f5b",
" k c #325b57",
" l c #2f5a53",
" z c #315c55",
" x c #2f5d53",
" c c #2d5b51",
" v c #2d5d51",
" b c #316155",
" n c #2f5e54",
" m c #346359",
" M c #37665c",
" N c #3f6e64",
" B c #427167",
" V c #447369",
" C c #47766c",
" Z c #4d7b70",
" A c #4e8074",
" S c #518779",
" D c #528c7d",
" F c #518e7e",
" G c #538d7e",
" H c #568f80",
" J c #5b9183",
" K c #305953",
" L c #2e5751",
" P c #2f5a51",
" I c #335e55",
" U c #325d53",
" Y c #2d584e",
" T c #2b594e",
" R c #305e53",
" E c #3c6a5f",
" W c #47756a",
" Q c #49776c",
" ! c #538176",
" ~ c #608e83",
" ^ c #59877c",
" / c #528276",
" ( c #4d7f73",
" ) c #4f8577",
" _ c #548d7e",
" ` c #589283",
" ' c #5a9485",
" ] c #5c9687",
" [ c #60988b",
" { c #315a56",
" } c #345d57",
" | c #315a52",
".  c #305850",
".. c #315950",
".X c #345c53",
".o c #4c7469",
".O c #5c8479",
".+ c #70988d",
".@ c #88b0a5",
".# c #8db5aa",
".$ c #89b1a6",
".% c #91b9ae",
".& c #8eb6ab",
".* c #8bb5ab",
".= c #7ea99f",
".- c #6f9a90",
".; c #618f84",
".: c #55877b",
".> c #508678",
"., c #589585",
".< c #5c9487",
".1 c #305955",
".2 c #315a54",
".3 c #345b56",
".4 c #325750",
".5 c #476a63",
".6 c #61847d",
".7 c #7c9c91",
".8 c #91b1a6",
".9 c #89a99e",
".0 c #84a499",
".q c #8aaa9f",
".w c #8fafa4",
".e c #98b8ad",
".r c #96b6ab",
".t c #94baaf",
".y c #97bbb1",
".u c #98bcb2",
".i c #90b6ab",
".p c #79a397",
".a c #629284",
".s c #598f7f",
".d c #5c9785",
".f c #5b9386",
".g c #2f5651",
".h c #2d544f",
".j c #345952",
".k c #4b6e68",
".l c #6f9089",
".z c #8aaba4",
".x c #9ab1a9",
".c c #a0b7af",
".v c #9fb6ae",
".b c #a8bfb7",
".n c #a5bcb4",
".m c #92a9a1",
".M c #98b7af",
".N c #9ab8b0",
".B c #a3beb7",
".V c #aac5be",
".C c #9ebfb6",
".Z c #81ab9f",
".A c #659889",
".S c #568f7e",
".D c #2b5551",
".F c #2d514d",
".G c #40635d",
".H c #6b8b86",
".J c #89a8a2",
".K c #8faea8",
".L c #94a89f",
".P c #60746b",
".I c #6a7e75",
".U c #a1b5ac",
".Y c #95a9a0",
".T c #859990",
".R c #a2b6ad",
".E c #9db1a8",
".W c #a6c1ba",
".Q c #92aba5",
".! c #8aa19b",
".~ c #98afa9",
".^ c #99bfb4",
"./ c #79a99b",
".( c #609686",
".) c #3b5d5c",
"._ c #325654",
".` c #335753",
".' c #2d524b",
".] c #5d8079",
".[ c #8ba9a1",
".{ c #869d97",
".} c #9db2ab",
".| c #829287",
"X  c #1d271e",
"X. c #5e5f59",
"XX c #4b4843",
"Xo c #918e89",
"XO c #2d322b",
"X+ c #a7b4aa",
"X@ c #a3b7ab",
"X# c #c0cdc4",
"X$ c #54635c",
"X% c #41544e",
"X& c #b2c9c3",
"X* c #a1bfb7",
"X= c #9bbdaf",
"X- c #a3cab7",
"X; c #80aa92",
"X: c #5c9680",
"X> c #345655",
"X, c #2e5550",
"X< c #40655e",
"X1 c #71948d",
"X2 c #869f99",
"X3 c #8b958c",
"X4 c #333a32",
"X5 c #eef1ea",
"X6 c #282923",
"X7 c #b0b3ac",
"X8 c #3c413a",
"X9 c #616d63",
"X0 c #d0ddd3",
"Xq c #a5afa6",
"Xw c #334037",
"Xe c #8a9d97",
"Xr c #a9c3ba",
"Xt c #9cbcb1",
"Xy c #9fc1b1",
"Xu c #a6c9b5",
"Xi c #95b8a2",
"Xp c #5e957e",
"Xa c #355756",
"Xs c #355957",
"Xd c #29504b",
"Xf c #456d65",
"Xg c #7c9f98",
"Xh c #87a69e",
"Xj c #89a29c",
"Xk c #a0b5ae",
"Xl c #8f908b",
"Xz c #32342f",
"Xx c #9ea59e",
"Xc c #2d372f",
"Xv c #bdc8c0",
"Xb c #8e9890",
"Xn c #2d342d",
"Xm c #cdd2cc",
"XM c #6d7067",
"XN c #4b554c",
"XB c #bdd1c6",
"XV c #a2beb2",
"XC c #97b9ab",
"XZ c #9ec0af",
"XA c #a7c8b3",
"XS c #a7c7b0",
"XD c #669b7f",
"XF c #365a58",
"XG c #355c59",
"XH c #2a514c",
"XJ c #406860",
"XK c #769b93",
"XL c #8aa9a1",
"XP c #8aa39d",
"XI c #9db4ac",
"XU c #999393",
"XY c #171916",
"XT c #404b45",
"XR c #91a29a",
"XE c #b2c6bd",
"XW c #b0bdb6",
"XQ c #343a36",
"X! c #70706e",
"X~ c #41443b",
"X^ c #9fa9a0",
"X/ c #b0c6ba",
"X( c #9ebcb0",
"X) c #95baa9",
"X_ c #9cbead",
"X` c #a8c9b4",
"X' c #a6c4ac",
"X] c #72a77d",
"X[ c #315553",
"X{ c #335a57",
"X} c #325b55",
"X| c #386159",
"o  c #6b9088",
"o. c #8fb0a7",
"oX c #8ba69f",
"oo c #98afa7",
"oO c #8d898a",
"o+ c #2d3130",
"o@ c #b6c7c1",
"o# c #aac4bb",
"o$ c #8faaa1",
"o% c #b4c7c1",
"o& c #909996",
"o* c #000201",
"o= c #5b655c",
"o- c #c9d6cd",
"o; c #98ada4",
"o: c #9cbab0",
"o> c #98bcae",
"o, c #9ec3b2",
"o< c #a1c7b2",
"o1 c #8eb199",
"o2 c #76ac78",
"o3 c #315855",
"o4 c #37605a",
"o5 c #537b72",
"o6 c #82a39a",
"o7 c #8ca7a0",
"o8 c #99b3aa",
"o9 c #8d9393",
"o0 c #3f4b49",
"oq c #b3cac4",
"ow c #8daca4",
"oe c #9ab5ae",
"or c #acbcb9",
"ot c #495352",
"oy c #aabfb8",
"ou c #98b1ab",
"oi c #9db8b3",
"op c #9cbdb6",
"oa c #9ec4b7",
"os c #8cb9a5",
"od c #6d9d85",
"of c #6ea677",
"og c #356059",
"oh c #305b52",
"oj c #3d655c",
"ok c #5f8077",
"ol c #7f9d95",
"oz c #96b0a7",
"ox c #a3b3b0",
"oc c #98ada8",
"ov c #91afa7",
"ob c #8aaba2",
"on c #8bafa5",
"om c #97b6ae",
"oM c #a0bbb4",
"oN c #a3bab4",
"oB c #a5c6bd",
"oV c #90afa9",
"oC c #9db7b6",
"oZ c #9fb7b7",
"oA c #9bb9b7",
"oS c #89b3a9",
"oD c #6a9f8d",
"oF c #56947d",
"oG c #629a81",
"oH c #345f58",
"oJ c #3a655c",
"oK c #365e55",
"oL c #3e6258",
"oP c #6d8b83",
"oI c #87a198",
"oU c #8ca5a1",
"oY c #95b0ab",
"oT c #8fb2ab",
"oR c #88ada5",
"oE c #8cafa8",
"oW c #92b1ab",
"oQ c #94b1ac",
"o! c #85b0a7",
"o~ c #9cc0bc",
"o^ c #96b0b1",
"o/ c #a5babf",
"o( c #99b5b8",
"o) c #709993",
"o_ c #4f897a",
"o` c #4d937b",
"o' c #59908a",
"o] c #081617",
"o[ c #1a2a2a",
"o{ c #314745",
"o} c #3e5b57",
"o| c #3d605a",
"O  c #39625a",
"O. c #3b6a60",
"OX c #427469",
"Oo c #6f998b",
"OO c #80a699",
"O+ c #93b1a9",
"O@ c #9ab1ab",
"O# c #97aea8",
"O$ c #94afaa",
"O% c #95b4ae",
"O& c #95b8b1",
"O* c #9bb5aa",
"O= c #9bb9ad",
"O- c #8db6a8",
"O; c #74a496",
"O: c #5c9284",
"O> c #508a7c",
"O, c #4f8c7d",
"O< c #538f83",
"O1 c #5b8e89",
"O2 c #000709",
"O3 c #000405",
"O4 c #000808",
"O5 c #061917",
"O6 c #17302c",
"O7 c #294641",
"O8 c #395a53",
"O9 c #42655e",
"O0 c #4c6d64",
"Oq c #5a7971",
"Ow c #6a8981",
"Oe c #78968c",
"Or c #81a196",
"Ot c #86a89a",
"Oy c #83a99a",
"Ou c #7ea797",
"Oi c #77a291",
"Op c #6e9a89",
"Oa c #5c8f7c",
"Os c #4f8973",
"Od c #4f8a74",
"Of c #529079",
"Og c #55907a",
"Oh c #528c76",
"Oj c #519681",
"Ok c #000000",
"Ol c #000100",
"Oz c #000200",
"Ox c #000300",
"Oc c #000804",
"Ov c #081410",
"Ob c #11201b",
"On c #193e36",
"Om c #20483f",
"OM c #2d5749",
"ON c #396856",
"OB c #497963",
"OV c #56866e",
"OC c #5d8b71",
"OZ c #5c8a6e",
"OA c #598272",
"OS c #5e8b77",
"OD c #61917b",
"OF c #5c9177",
"OG c #5b9074",
"OH c #609275",
"OJ c #669779",
"OK c #6b987b",
"OL c #68997c",
"OP c #070101",
"OI c #040000",
"OU c #030000",
"OY c #050100",
"OT c #030200",
"OR c #010000",
"OE c #010100",
"OW c #000907",
"OQ c #00120a",
"O! c #011b0e",
"O~ c #112818",
"O^ c #293a28",
"O/ c #404936",
"O( c #4c4f3c",
"O) c #4c7062",
"O_ c #557e6c",
"O` c #5f8f79",
"O' c #61987b",
"O] c #649d7c",
"O[ c #67a37d",
"O{ c #6ea880",
"O} c #72ab82",
"O| c #76ad85",
"+  c #040301",
"+. c #0c0009",
"+X c #0c0008",
"+o c #090001",
"+O c #0a0000",
"++ c #110000",
"+@ c #1f0000",
"+# c #320202",
"+$ c #3c0405",
"+% c #2b161b",
"+& c #352727",
"+* c #3d3a35",
"+= c #3d4538",
"+- c #3f503d",
"+; c #4a6248",
"+: c #5d775a",
"+> c #698667",
"+, c #618d69",
"+< c #030303",
"+1 c #010302",
"+2 c #000302",
"+3 c #000301",
"+4 c #000400",
"+5 c #000501",
"+6 c #000d08",
"+7 c #000404",
"+8 c #040402",
"+9 c #100805",
"+0 c #1f0b0a",
"+q c #270b0a",
"+w c #290706",
"+e c #36101d",
"+r c #391924",
"+t c #2f1c20",
"+y c #17120f",
"+u c #000500",
"+i c #000700",
"+p c #001403",
"+a c #0b200d",
"+s c #051e09",
/* pixels */
"   . X o O + @ @ # $ % & * = - ; : > , < 1 2 3 4 5",
" 6 7 8 9 0 q w e & % r t = y y u i p a < s d f g h",
" j k l z x c v b n m m M N B V C Z A S D F G H J h",
" k k K L P I U Y T R E W Q ! ~ ^ ^ / ( ) _ ` ' ] [",
" { k } } |. ...X.o.O.+.@.#.$.%.&.*.=.-.;.:.> D.,.<",
" ..1.2.3.4.4.5.6.7.8.9.0.q.w.e.r.t.y.u.i.p.a.s.d.f",
" k {.g.h.j.k.l.z.x.c.v.b.n.c.n.m.M.N.B.V.C.Z.A.S h",
".D j.3.F.G.H.J.K.L.P.I.U.Y.T.R.E.W.Q.!.~.W.^./.( h",
".)._.`.'.].[.{.}.|X X.XXXoXOX+X@X#X$X%X&X*X=X-X;X:",
"X>._X,X<X1.[X2.}X3X4X5X6X7X8X9X0XqXwXeXrXtXyXuXiXp",
"XaXsXdXfXgXhXjXkXlXzXxXcXvXbXnXmXMXNXBXVXCXZXAXSXD",
"XFXGXHXJXKXLXPXIXUXYXTXRXEXWXQX!X~X^X/X(X)X_X`X'X]",
"X[X{X}X|o o.oXoooOo+o@o#o$o%o&o*o=o-o;o:o>o,o<o1o2",
"o3 .o4 |o5o6o7o8o9o0oqXhowoeoroto;oyouoiopoaosodof",
"XG 6ogohojokolozoxocovobonomoMoNoBoVoCoZoAoSoDoFoG",
"o3 6oHoJoKoLoPoIoUoY.JoToRoEoWoQo!o~o^o/o(o)o_o`o'",
"o]o[o{o}o|O O.OXOoOOO+O@O#O$O%O&O*O=O-O;O:O>O,O<O1",
"O2O3O4O5O6O7O8O9O0OqOwOeOrOtOyOuOiOpOaOsOdOfOgOhOj",
"OkOlOlOzOxOcOvObOnOmOMONOBOVOCOZOAOSODOFOGOHOJOKOL",
"OPOIOUOYOTOROkOEO3OWOQO!O~O^O/O(O)O_O`O'O]O[O{O}O|",
"OIOIOUOY+ OROkOk+.+X+o+O+++@+#+$+%+&+*+=+-+;+:+>+,",
"+<+1+2+3Ox+4+5+6+7+7Ox+8+9+0+q+w+e+r+t+y+u+i+p+a+s"
};
