/* XPM */
static char *freeimage[] = {
/* width height num_colors chars_per_pixel */
"28 14 274 2",
/* colors */
"   c #486472",
" . c #3e5a65",
" X c #456467",
" o c #496d69",
" O c #4a7269",
" + c #4c766c",
" @ c #4c776d",
" # c #4f7d73",
" $ c #538377",
" % c #548778",
" & c #568b79",
" * c #59907d",
" = c #599482",
" - c #5c998a",
" ; c #5f9c94",
" : c #61a098",
" > c #5d9f9d",
" , c #62a4a2",
" < c #61a6a1",
" 1 c #5ba29c",
" 2 c #59a09c",
" 3 c #589fa1",
" 4 c #549da4",
" 5 c #5099a2",
" 6 c #4f9aa0",
" 7 c #4f99a2",
" 8 c #4b95a2",
" 9 c #468f9e",
" 0 c #4a6e6a",
" q c #4d776d",
" w c #4d786e",
" e c #507e74",
" r c #5b9889",
" t c #64a6a2",
" y c #67aca7",
" u c #64aba5",
" i c #5fa6a2",
" p c #5aa1a3",
" a c #569fa5",
" s c #559ea7",
" d c #509ba1",
" f c #496573",
" g c #3f5b66",
" h c #466568",
" j c #4e796f",
" k c #517f75",
" l c #588f7c",
" z c #5e9b93",
" x c #609f97",
" c c #60a2a0",
" v c #63a5a1",
" b c #67ada5",
" n c #6ab1a9",
" m c #68afab",
" M c #61a9a8",
" N c #59a2a8",
" B c #57a0a9",
" V c #519ca2",
" C c #509aa3",
" Z c #4e786e",
" A c #4f7a70",
" S c #538177",
" D c #548478",
" F c #578c7a",
" G c #5fa19d",
" H c #5fa59d",
" J c #67aea6",
" K c #6db4ae",
" L c #67afae",
" P c #5ba4aa",
" I c #569fa8",
" U c #529da3",
" Y c #519ba4",
" T c #4c96a3",
" R c #4a6674",
" E c #405c67",
" W c #4b736a",
" Q c #4f796f",
" ! c #507b71",
" ~ c #548278",
" ^ c #56867a",
" / c #56897a",
" ( c #588d7b",
" ) c #5a917e",
" _ c #5a9583",
" ` c #60a29e",
" ' c #5b9e97",
" ] c #5aa096",
" [ c #62aa9f",
" { c #69b0aa",
" } c #64aca9",
" | c #5ba5a8",
".  c #569fa6",
".. c #539ea4",
".X c #529ca5",
".o c #458e9d",
".O c #4b6775",
".+ c #476669",
".@ c #507a70",
".# c #527d73",
".$ c #56847a",
".% c #58887c",
".& c #588b7c",
".* c #5a8f7d",
".= c #5c9380",
".- c #5b9684",
".; c #5d9a8b",
".: c #609d95",
".> c #62a199",
"., c #5da099",
".< c #5fa29b",
".1 c #60a69c",
".2 c #61a8a0",
".3 c #5da5a2",
".4 c #59a3a6",
".5 c #5aa3aa",
".6 c #55a0a6",
".7 c #415d68",
".8 c #4b6f6b",
".9 c #4c746b",
".0 c #517b71",
".q c #537e74",
".w c #57857b",
".e c #5a8a7e",
".r c #5a8d7e",
".t c #5c917f",
".y c #5e9582",
".u c #5d9886",
".i c #5f9c8d",
".p c #629f97",
".a c #64a39b",
".s c #61a49d",
".d c #67aaa1",
".f c #68aea4",
".g c #64aca1",
".h c #5fa69e",
".j c #5ca4a1",
".k c #5aa4a5",
".l c #5aa3a9",
".z c #56a1a7",
".x c #539da6",
".c c #4c6876",
".v c #58867c",
".b c #5b8b7f",
".n c #5c8f80",
".m c #5d9280",
".M c #5f9683",
".N c #5e9987",
".B c #609d8e",
".V c #63a098",
".C c #65a49c",
".Z c #69aca5",
".A c #6db0a7",
".S c #6bb1a6",
".D c #65ada1",
".F c #62a9a1",
".G c #60a8a4",
".H c #5ca6a7",
".J c #57a0a6",
".K c #4a6779",
".L c #405d6b",
".P c #45666d",
".I c #49706d",
".U c #4b746c",
".Y c #517f74",
".T c #57877b",
".R c #568a7d",
".E c #5a8e81",
".W c #5c9284",
".Q c #5a9384",
".! c #5b9586",
".~ c #5e9b8b",
".^ c #68a595",
"./ c #6fae9d",
".( c #78bb8f",
".) c #79bc91",
"._ c #77bb94",
".` c #72b997",
".' c #6cb49e",
".] c #5da5a4",
".[ c #57a0a7",
".{ c #549ea7",
".} c #4d97a4",
".| c #448d9c",
"X  c #4c756d",
"X. c #517c72",
"XX c #588c7f",
"Xo c #5b9183",
"XO c #66a393",
"X+ c #6cab9a",
"X@ c #78ba94",
"X# c #79bb97",
"X$ c #78bb98",
"X% c #74bb9d",
"X& c #6eb6a2",
"X* c #67afa4",
"X= c #60a8a7",
"X- c #58a3a9",
"X; c #56a0a9",
"X: c #47686f",
"X> c #4b726f",
"X, c #4e776f",
"X< c #528075",
"X1 c #5c9586",
"X2 c #5e9889",
"X3 c #609d8d",
"X4 c #65a292",
"X5 c #68a796",
"X6 c #73b399",
"X7 c #75b59b",
"X8 c #76b89d",
"X9 c #73b9a1",
"X0 c #6eb5a3",
"Xq c #68b0a5",
"Xw c #4891a0",
"Xe c #4b687a",
"Xr c #425f6d",
"Xt c #496a71",
"Xy c #4e7572",
"Xu c #507971",
"Xi c #547f75",
"Xp c #538176",
"Xa c #5b8f82",
"Xs c #5d9385",
"Xd c #5f9889",
"Xf c #629c8d",
"Xg c #63a090",
"Xh c #6cab98",
"Xj c #6ead9a",
"Xk c #71b29e",
"Xl c #70b5a2",
"Xz c #6db4a4",
"Xx c #61a9a6",
"Xc c #5ca7ad",
"Xv c #509aa7",
"Xb c #539cab",
"Xn c #4d6a7c",
"Xm c #43606e",
"XM c #4a6b72",
"XN c #4f7673",
"XB c #517a72",
"XV c #558076",
"XC c #558378",
"XZ c #59897d",
"XA c #5d9184",
"XS c #609688",
"XD c #629b8c",
"XF c #649e8f",
"XG c #69a696",
"XH c #6aa998",
"XJ c #6dac9b",
"XK c #70b09f",
"XL c #70b5a3",
"XP c #6db4a6",
"XI c #68afa7",
"XU c #62aaa9",
"XY c #5da7aa",
"XT c #559fac",
"XR c #66afbe",
"XE c #619a8b",
"XW c #639d8e",
"XQ c #6aa797",
"X! c #6faf97",
"X~ c #71b199",
"X^ c #74b59f",
"X/ c #72b7a2",
"X( c #6fb6a8",
"X) c #6ab1ab",
"X_ c #64abad",
"X` c #5fa8ae",
"X' c #59a4aa",
"X] c #559fa8",
"X[ c #5da7b4",
"X{ c #6eb7c6",
/* pixels */
"   . X o O + @ # $ % & * = - ; : > , < 1 2 3 4 5 6 7 8 9",
"   . X 0 O q w e $ % & * = r ; : > t y u i p a s d 7 8 9",
" f g h 0 O q j k $ % & l = r z x c v b n m M N B V C 8 9",
" f g h 0 O Z A S D % F * = r z x v G H J K L P I U Y T 9",
" R E h 0 W Q ! ~ ^ / ( ) _ r ; : ` ' ] [ { } |. ...X T.o",
".O E.+ 0 W.@.#.$.%.&.*.=.-.;.:.>.,.<.1 [.2.3.4.5.6.X T.o",
".O.7.+.8.9.0.q.w.e.r.t.y.u.i.p.a.s.d.f.g.h.j.k.l.z.x T.o",
".c.7.+.8.9.0.q.v.b.n.m.M.N.B.V.C.Z.A.S.D.F.G.H.J.z.x T.o",
".K.L.P.I.U !.Y.T.R.E.W.Q.!.~.^./.(.)._.`.'.g.].[.z.{.}.|",
".K.L.P.IX X..Y ^.RXXXo.Q.!.~XOX+X@X#X$X%X&X*X=.lX-X;.}.|",
".K.LX:X>X,.#X<.T.RXXXoX1X2X3X4X5X6X7X8X9X0Xq M |.. Y TXw",
"XeXrXtXyXuXiXp.%XXXaXsXdXfXgXOX5XhXjXkXlXz JXx |Xc.xXvXb",
"XnXmXMXNXBXVXCXZXaXAXSXDXFXOXGXHXHXJXKXLXPXIXUXY.z 7XTXR",
"XnXmXtXyXuXVXCXZXaXAXSXEXWX4XQXJX!X~X^X/X(X)X_X`X'X]X[X{"
};
