/* XPM */
static char *freeimage[] = {
/* width height num_colors chars_per_pixel */
"49 15 117 2",
/* colors */
"   c #060604",
" . c #060702",
" X c #060701",
" o c #070802",
" O c #080904",
" + c #0a0b06",
" @ c #020300",
" # c #0e0f0a",
" $ c #000100",
" % c #0d0e09",
" & c #070601",
" * c #060500",
" = c #11100b",
" - c #020100",
" ; c #100f0a",
" : c #080702",
" > c #030200",
" , c #080903",
" < c #0a0702",
" 1 c #0d0804",
" 2 c #0e0905",
" 3 c #0e0903",
" 4 c #050601",
" 5 c #040500",
" 6 c #181914",
" 7 c #040300",
" 8 c #0c0b06",
" 9 c #090803",
" 0 c #0a0904",
" q c #0d0802",
" w c #070803",
" e c #0c0d08",
" r c #010200",
" t c #10110c",
" y c #070602",
" u c #010000",
" i c #13120e",
" p c #0b0a06",
" a c #0a0905",
" s c #080703",
" d c #0b0803",
" f c #0c0701",
" g c #0b0c07",
" h c #050400",
" j c #050600",
" k c #0c0904",
" l c #090a05",
" z c #4e4f4a",
" x c #676863",
" c c #31322d",
" v c #0b0a08",
" b c #4d4c4a",
" n c #131210",
" m c #0d0c0a",
" M c #595856",
" N c #1d1c1a",
" B c #292a25",
" V c #6f706b",
" C c #5a5b56",
" Z c #aeafaa",
" A c #2e2d2b",
" S c #939290",
" D c #555452",
" F c #040301",
" G c #353432",
" H c #acaba9",
" J c #21201e",
" K c #0f0a04",
" L c #0f100b",
" P c #32332e",
" I c #161712",
" U c #b5b6b1",
" Y c #3b3a38",
" T c #5a5957",
" R c #a7a6a4",
" E c #0a0907",
" W c #8a8987",
" Q c #62615f",
" ! c #080705",
" ~ c #23241f",
" ^ c #797a75",
" / c #82837e",
" ( c #a2a39e",
" ) c #12110f",
" _ c #9d9c9a",
" ` c #343331",
" ' c #302f2d",
" ] c #abaaa8",
" [ c #171614",
" { c #060606",
" } c #030400",
" | c #21221d",
".  c #bebfba",
".. c #83847f",
".X c #1a1b16",
".o c #383733",
".O c #7f7e7a",
".+ c #a09f9b",
".@ c #595854",
".# c #0e0b04",
".$ c #464742",
".% c #a5a6a1",
".& c #b1b0ac",
".* c #b2b1ad",
".= c #0d0c08",
".- c #090804",
".; c #0d0a03",
".: c #373833",
".> c #5c5b57",
"., c #51504c",
".< c #0e0d09",
".1 c #12110d",
".2 c #161511",
".3 c #060501",
".4 c #0c0902",
".5 c #0c0b07",
".6 c #0f0e0a",
/* pixels */
"       . . . X X o o o o o o o o . O + @ # @ $ % & * = - ; : & > , , o : : < < < 1 1 1 1 2 2 2 2 3",
"       . . . X X o o o o o o o o O . 4 + 4 5 6 $ = 7 : 8 > 9 0 0 o o o : : < < < 1 1 1 1 2 2 2 2 q",
"       . . . X X o o o o o o o o @ . 4 w e @ r t y y u i > p a s X X o : : d d d 1 1 1 1 2 2 2 2 f",
"       . . . X X o o o o o o o o 4 g O w . + $ $ u s a h 7 s u s j X X : 9 d k k 1 1 1 1 2 2 2 2 q",
"       . . . X X o o o o o o o o + w r w l z x c v b n u m > M N j X X : 9 d k k 1 1 1 1 2 2 2 2 3",
"       . . . X X o o o o o o o o 5 @ w $ B V C Z A S D u F G H J X X o : : d d d 1 1 1 1 2 2 2 2 K",
"       . . . X X o o o o o o o o 5 l L $ P C I U Y T R E u W Q ! o o o : : < < < 1 1 1 1 2 2 2 2 3",
"       . . . X X o o o o o o o o + w $ 5 ~ ^ / ( ) - _ ` ' ] [ u , , o : : < < < 1 1 1 1 2 2 2 2 q",
" { { {     . . . X X X X X X X X r e } @ |. ...X u s.o.O.+.@ - a 9 9 : : : : 9 9 0 0 0 0 0 0 0 0.#",
" { { {     . . . X X X X X X X X + 5 l $.$.% O $ 7 h p.&.*.= y.- 9 9 : : : : 9 9 0 0 0 0 0 0 0 0.;",
" { { {     . . . X X X X X X X X 5 O w $.: x @ 5 p.- u.>., u.< p 9 9 : : : : 9 9 0 0 0 0 0 0 0 0.;",
" { { {     . . . X X X X X X X X 5 g $ + $ $ g l s h.1 u >.2.3 7 9 9 : : : : 9 9 0 0 0 0 0 0 0 0.4",
" { { {     . . . X X X X X X X X } g w r } 4 O g.5 -.3.3.- p >.- 9 9 : : : : 9 9 0 0 0 0 0 0 0 0.4",
" { { {     . . . X X X X X X X X r O l 5 O O $ e.- a y i s u.6 a 9 9 : : : : 9 9 0 0 0 0 0 0 0 0.4",
" { { {     . . . X X X X X X X X l $ } # $ w e 5 h h.- 7.3 p y a 9 9 : : : : 9 9 0 0 0 0 0 0 0 0.4"
};
