/* XPM */
static char *freeimage[] = {
/* width height num_colors chars_per_pixel */
"103 22 356 2",
/* colors */
"   c #332b20",
" . c #2c2419",
" X c #2f271c",
" o c #2d251a",
" O c #2e261b",
" + c #30281d",
" @ c #2f291d",
" # c #302a1e",
" $ c #312b1f",
" % c #322c20",
" & c #332d21",
" * c #342c21",
" = c #352d22",
" - c #362e23",
" ; c #372f24",
" : c #383025",
" > c #362c22",
" , c #3d301d",
" < c #382922",
" 1 c #303539",
" 2 c #557b84",
" 3 c #5a8999",
" 4 c #527289",
" 5 c #546f84",
" 6 c #496d7b",
" 7 c #4b616f",
" 8 c #445c68",
" 9 c #3d5a60",
" 0 c #3c5e5f",
" q c #3e6061",
" w c #416062",
" e c #446167",
" r c #342e22",
" t c #352f23",
" y c #382e24",
" u c #392a23",
" i c #3b4044",
" p c #5b818a",
" a c #578696",
" s c #53738a",
" d c #536e83",
" f c #486c7a",
" g c #485e6c",
" h c #435b67",
" j c #3e5b61",
" k c #3f6162",
" l c #425f65",
" z c #31291e",
" x c #322a1f",
" c c #393126",
" v c #3a3026",
" b c #3c2f1c",
" n c #3a2b24",
" m c #4c5155",
" M c #638992",
" N c #528191",
" B c #516c81",
" V c #466a78",
" C c #455b69",
" Z c #425a66",
" A c #3f5c62",
" S c #406263",
" D c #416364",
" F c #405d63",
" G c #372f22",
" H c #383023",
" J c #393124",
" K c #3a3225",
" L c #3c3226",
" P c #3c2d26",
" I c #5b6064",
" U c #688e97",
" Y c #4c7b8b",
" T c #4f6a7f",
" R c #446876",
" E c #435967",
" W c #415965",
" Q c #3f5e60",
" ! c #372d23",
" ~ c #392f25",
" ^ c #3a3024",
" / c #3b3125",
" ( c #3b3326",
" ) c #3e311e",
" _ c #3e2f28",
" ` c #61666a",
" ' c #698f98",
" ] c #497888",
" [ c #517188",
" { c #4e697e",
" } c #416573",
" | c #3d5c5e",
".  c #3b3127",
".. c #3c3324",
".X c #3b3223",
".o c #3c3525",
".O c #3d3425",
".+ c #403320",
".@ c #3f3029",
".# c #5d6266",
".$ c #658b94",
".% c #477686",
".& c #4f6f86",
".* c #4c677c",
".= c #3f6371",
".- c #425866",
".; c #405864",
".: c #3b5a5c",
".> c #3c595f",
"., c #3a3227",
".< c #3c3228",
".1 c #3d3329",
".2 c #3e3526",
".3 c #3f3627",
".4 c #3e3727",
".5 c #3d3626",
".6 c #423522",
".7 c #40312a",
".8 c #54595d",
".9 c #5e848d",
".0 c #467585",
".q c #4d6d84",
".w c #4b667b",
".e c #3d616f",
".r c #405664",
".t c #3f5763",
".y c #3a595b",
".u c #3a575d",
".i c #403728",
".p c #443724",
".a c #41322b",
".s c #597f88",
".d c #4c6c83",
".f c #3c606e",
".g c #3f5563",
".h c #3d5f60",
".j c #39565c",
".k c #3f3529",
".l c #372d21",
".z c #392f23",
".x c #382e22",
".c c #3b3424",
".v c #42362a",
".b c #43372b",
".n c #44382c",
".m c #4a3a23",
".M c #3f4140",
".N c #536370",
".B c #5a7387",
".V c #4a697e",
".C c #3b5c6f",
".Z c #3a5b6c",
".A c #3e575b",
".S c #3d595c",
".D c #3e5d5f",
".F c #436566",
".G c #395b5c",
".H c #395558",
".J c #423628",
".K c #433729",
".L c #44382a",
".P c #4b3c27",
".I c #42392a",
".U c #363531",
".Y c #353e45",
".T c #475967",
".R c #556f80",
".E c #49687a",
".W c #325364",
".Q c #3f585d",
".! c #39565a",
".~ c #365558",
".^ c #3b5e60",
"./ c #36595b",
".( c #3d5c5f",
".) c #40362a",
"._ c #3e342a",
".` c #3d3327",
".' c #413829",
".] c #45392d",
".[ c #463a2e",
".{ c #433826",
".} c #4b3f31",
".| c #3c332c",
"X  c #201f1d",
"X. c #21282e",
"XX c #3e4f59",
"Xo c #4a616f",
"XO c #3d5a68",
"X+ c #375057",
"X@ c #3c575e",
"X# c #3d5c61",
"X$ c #3f6266",
"X% c #36595d",
"X& c #35565b",
"X* c #36555a",
"X= c #41372b",
"X- c #3e3428",
"X; c #413527",
"X: c #45392b",
"X> c #463a2c",
"X, c #473b2f",
"X< c #423928",
"X1 c #4c4032",
"X2 c #3f3229",
"X3 c #1b100a",
"X4 c #070302",
"X5 c #131b1e",
"X6 c #304149",
"X7 c #40545f",
"X8 c #415963",
"X9 c #3c5961",
"X0 c #3b5c63",
"Xq c #395c62",
"Xw c #3a5b62",
"Xe c #3e5c64",
"Xr c #433a2b",
"Xt c #463a2a",
"Xy c #473b2b",
"Xu c #473b2d",
"Xi c #483c2e",
"Xp c #493d2f",
"Xa c #4b4233",
"Xs c #322419",
"Xd c #180b03",
"Xf c #060000",
"Xg c #010103",
"Xh c #111c20",
"Xj c #22333a",
"Xk c #404e59",
"Xl c #475963",
"Xz c #455e65",
"Xx c #37565b",
"Xc c #355459",
"Xv c #443b2c",
"Xb c #45372a",
"Xn c #46382b",
"Xm c #47392c",
"XM c #483c2c",
"XN c #4a3e30",
"XB c #494031",
"XV c #3b2f23",
"XC c #22180f",
"XZ c #100604",
"XA c #040000",
"XS c #000000",
"XD c #000405",
"XF c #00080a",
"XG c #161d27",
"XH c #28323b",
"XJ c #3a4b52",
"XK c #435b5f",
"XL c #435c60",
"XP c #385155",
"XI c #453c2b",
"XU c #3e3524",
"XY c #403726",
"XT c #3d3423",
"XR c #3f3625",
"XE c #413827",
"XW c #483a2d",
"XQ c #483d2b",
"X! c #493e2c",
"X~ c #4a3e2e",
"X^ c #4b3f2f",
"X/ c #30261c",
"X( c #18100d",
"X) c #070206",
"X_ c #000004",
"X` c #000002",
"X' c #000100",
"X] c #000005",
"X[ c #0a1416",
"X{ c #213131",
"X} c #394d4c",
"X| c #485e5c",
"o  c #3d5150",
"o. c #4a3c2f",
"oX c #4a3f2d",
"oo c #4c4030",
"oO c #443727",
"o+ c #281e15",
"o@ c #0a0605",
"o# c #000007",
"o$ c #000009",
"o% c #020100",
"o& c #070300",
"o* c #050006",
"o= c #000407",
"o- c #000606",
"o; c #000e0d",
"o: c #182b29",
"o> c #2e413f",
"o, c #463d2e",
"o< c #453929",
"o1 c #493d2d",
"o2 c #4b402e",
"o3 c #4b3f33",
"o4 c #4f4232",
"o5 c #4d4030",
"o6 c #4f4333",
"o7 c #4d4131",
"o8 c #4c4332",
"o9 c #343128",
"o0 c #19160f",
"oq c #040205",
"ow c #020005",
"oe c #020200",
"or c #010101",
"ot c #473e2f",
"oy c #4c3f2f",
"ou c #504333",
"oi c #4e4232",
"op c #4d4433",
"oa c #4e4534",
"os c #473e2d",
"od c #29261d",
"of c #100d06",
"og c #030000",
"oh c #010002",
"oj c #010004",
"ok c #020202",
"ol c #483f30",
"oz c #4c412f",
"ox c #4c4034",
"oc c #534636",
"ov c #1c1910",
"ob c #0a0700",
"on c #030305",
"om c #030303",
"oM c #453c2d",
"oN c #4d4230",
"oB c #4d4133",
"oV c #4d4135",
"oC c #493c2c",
"oZ c #514434",
"oA c #524938",
"oS c #4a4130",
"oD c #362d1c",
"oF c #110e05",
"oG c #070400",
"oH c #020003",
"oJ c #4e4331",
"oK c #4e4234",
"oL c #4e4236",
"oP c #524535",
"oI c #504434",
"oU c #514535",
"oY c #504736",
"oT c #241b0a",
"oR c #090600",
"oE c #050100",
"oW c #554838",
"oQ c #0b0800",
"o! c #030104",
"o~ c #010100",
/* pixels */
"   . . X o o X O X X X X X X X X O O O X X X X + O O X X X X X + @ @ @ @ # # # # # # $ $ $ $ $ % % % % % % % % % % % % % % % % % % % % % % & & & * * = = - ; ; : > > > > > > > > , < 1 2 3 4 5 6 7 8 9 0 q w e",
" * . o + o o + O + + + + + + + + X X X X + + + + X X X X + + + + @ # # # # $ $ $ $ $ $ $ % % % % & & & & & & & & & & & & & & & & & r r r r r t t * = = - ; ; : : y y y y y y y y , u i p a s d f g h j q k w l",
" = o O z O O + X + + + + + + + + + + + z z z z z + + z z z z x x x x x x             * * * * = = = = = = = = = = - - - - - - - - ; ; ; ; ; : : : - - ; ; : : c c v v v v v v v v b n m M N s B V C Z A S D w F",
" - X X x X X x z z z z z z z z z z x x x x       x x x           * * * * * = = = = = = - - - - - ; ; ; ; ; ; ; ; G G G G G G G G H H H H J J J J H H H J J J K K L L L L L L L L b P I U Y 4 T R E W A S S Q j",
" ; + +   z z   x x x x x x x x x       * * * * = * * * = = = = = ! ! ! ! ! y y y y y y ~ ~ ~ ~ ~ v v v v v v v v ^ ^ ^ ^ ^ ^ ^ ^ ^ ^ ^ ^ / / / / K K K K ( ( ( ( L L L L L L L L ) _ ` ' ] [ { } E W A k q | 9",
" c z x * x x *   * * * * * * * * = = = = = - - - - - - - ; ; ; ; y y ~ ~ ~ ~ v v v v v v. . . . . . . . . . . . .................X.X.X...........o.o.o.o.o.o.o.o.O.O.O.O.O.O.O.O.+.@.#.$.%.&.*.=.-.; j q 0.:.>",
"., x   =     = * = = = = = = = = - - - - ; ; ; ; ; ; ; : : : : c v v v v. . . . . . . .<.<.<.<.1.<.<.<.<.<.<.<.<.O.O.O.O.O.O.O.O.O.O.2.2.2.2.2.3.4.4.5.5.5.5.5.5.3.3.3.3.3.3.3.3.6.7.8.9.0.q.w.e.r.t A q 0.y.u",
".,     - * * - = - - - - - - - - - ; ; ; ; : : : : : : : c c c c v. . . . . .<.<.<.<.<.<.1.1.1.1.<.<.<.<.<.<.<.<.2.2.2.2.2.2.2.2.3.3.3.i.i.i.i.i.4.4.4.4.4.4.5.5.i.i.i.i.i.i.i.i.p.a m.s.0.d.w.f.g.t A k.h.y.j",
".k.l.l ^.l.l.z.x.z.z.z.z ^ ^ ^ ^ ~ v v v v v. .  L L L L L L L L.c.c.c.c.o.o.o.o.O.O.2.2.2.2.3.3.2.2.2.3.3.3.3.3.2.2.2.2.2.2.2.2.v.v.v.v.v.v.v.v.v.v.v.v.v.b.b.b.v.b.b.b.b.b.n.n.m...M.N.B.V.C.Z.A.S.D.F.G.D.H",
".k.x.x ^.x.x ^.x.z.z ^ ^ ^ ^ ^ /. . . . .<.<.<.< L L L L L L L L.c.c.o.o.o.o.o.5.2.2.2.2.3.3.3.3.2.3.3.3.3.i.i.i.i.i.i.i.i.i.i.i.J.J.J.J.J.J.J.J.J.J.J.K.K.K.K.L.b.b.b.n.n.n.n.n.P.I.U.Y.T.R.E.W.Q.!.~.^./.(.!",
".).z.z /.z.x /.z ^ ^ ^ / / / / /.1.1.1.1.1._._._.`.`.`.`.`.`.`.`.o.o.o.5.5.5.5.5.2.3.3.3.3.i.i.i.3.3.i.i.i.i.'.'.'.'.'.'.'.'.'.'.K.K.K.K.K.K.K.K.K.K.K.L.L.L.L.L.n.n.].].].].].[.{.}.|X X.XXXoXOX+X@X#X$X%X&X*",
"X= ^ ^.` ^ ^ L / / / / L L L L L.`.`.`X-X-X-X-X-X-X-X-X-X-X-X-X-.2.2.2.3.3.3.3.3X;.J.J.J.J.K.K.K.J.J.K.K.K.K.L.L.L.L.L.L.L.L.L.L.L.L.L.L.L.L.L.L.L.LX:X:X:X:X>X>.[.[.[.[X,X,X,X,X<X1X2X3X4X5X6 ZX7X8X9X0XqXwXe",
"Xr.X.X.2.X.X.O.........O.O.O.O.2.`.`.`X-X-X-X-X-.3.3.3.3.3.3.3.3.3.3.3.i.i.i.i.'.K.K.K.K.K.L.L.L.K.K.L.L.L.LX:X:.L.L.L.L.L.L.L.LXtXtXtXtXtXtXtXtXtXtXtXtXyXyXyXyXuXuXiXiXiXiXpXpXa.nXsXdXfXgXhXjXkXlXz FXxXc.>",
"Xv.O.O.3.O...3.O.O.O.O.2.2.2.2.3.2.2.2.2.2.3.3.3.i.i.i.i.i.i.i.i.J.J.J.K.K.K.K.LXbXbXbXbXbXnXnXnXbXbXnXnXnXnXmXmXnXnXnXnXnXnXnXnXyXyXyXyXyXyXyXyXyXyXyXMXMXMXMXMXpXpXpXpXNXNXNXNXBXVXCXZXAXSXDXFXGXHXJXKXL.SXP",
"XIXUXUXYXUXTXYXUXUXUXUXUXRXRXRXR.3.3.i.i.i.i.i.'XEXEXEXEXEXEXEXE.K.K.K.K.L.L.L.LXbXnXnXnXnXnXmXmXnXnXnXmXmXmXmXWXWXWXWXWXWXWXWXWXQXQXQXQXQXQXQXQXQXQXQX!X!X!X!X!X~X~X~X^X^X^X^X^.KX/X(X)X_X`XSX'X]X]X[X{X}X|o ",
"XIXUXUXEXUXUXYXRXUXUXRXRXRXRXYXY.'.'.'.'.I.I.I.IXEXEXEXEXEXEXEXE.K.K.L.L.L.LX:X:XnXnXnXnXmXmXmXmXmXmXmXmXmXWXWXWo.o.o.o.o.o.o.o.XQXQXQXQXQXQXQXQX!X!X!X!X!oXoXoXX^X^X^X^oooooooooOo+o@o#o$X_o%o&o*X_o=o-o;o:o>",
"o,.3.3.I.i.i.I.'.J.K.K.K.K.L.L.L.K.K.L.L.L.LX:X:o<o<o<o<o<o<o<o<XtXtXyXyXyXyXMXMXMXMXMXMXMXMXMXMXMXMXMXMo1o1o1o1o2o2X^X^.}.}.}o3X^X^X^X^X^X^X^X^ooooooooooooooooo4o5o4o6o7o8o8XIo9o0X4oqowX`XSoeXSXSXSXSororor",
"ot.i.iXr.i.iXr.'.J.J.K.K.K.K.K.L.K.L.L.L.LX:X:X:XtXtXtXtXtXtXtXtXtXyXyXyXyXMXMXMXMXMXMXMXMXMXMXMXMXMXMo1o1o1o1o1o2o2X^X^.}.}.}o3X^X^X^X^X^X^X^X^oooooooooooooooooyo5ouoiX^opoaosodofogohojXgokXSXSXSXSXSororor",
"ol.'.'Xv.'.'XvXr.K.K.K.K.K.L.L.L.LX:X:X:X:X>X>X>XyXyXyXyXyXyXyXyXyXMXMXMXMo1o1o1o1o1o1o1o1o1o1o1o1o1o1o1X~X~X~X~ozozooooX1X1X1oxooooooooooooooooooooooooooooooooo5ouoco6X^opo8XYovobogohojonomXSXSXSXSXSororor",
"XB.'.IoM.I.IoMXr.L.L.LX:X:X:X:X>X>X>XuXuXuXuXiXiXMXMXMXMXMXMXMXMo1o1X~X~X~X~X^X^X^X^X^X^X^X^X^X^X^X^X^X^oooooooooNoNo7o7oBoBoBoVoioioioioioioioioioioioioioioioioCo5oZoioioAoSoDoFoGogoHowonomXSXSXSXSXSororor",
"XB.'.IoM.I.IoMXrX>X>X>X>X>XuXuXuXiXiXiXiXpXpXpXpX~X~X~X~X~X~X~X~X^X^X^X^ooooooooooooooooooooooooooooo7o7o7o7oioioJoJoioioKoKoKoLo6o6o6o6o6o6o6o6o6o6o6o6o6o6o6o6oZoPocoIoUoYXRoToRogoEoqojX`orXSXSXSXSXSororor",
"ol.'.'Xv.'.'XvXrX>X>X>X>X>XuXuXuXuXuXiXiXiXiXpXpX~X~X~X~X~X~X~X~X~X~X^X^X^X^ooooooooooooooooooooooooooooo7o7o7o7oJoJoioioKoKoKoLoioioioioioioioio6o6o6o6o6o6o6o6oWococoUoIopXToToQogogo!ojX`oro~XSXSXSXSororor"
};
