/* XPM */
static char *freeimage[] = {
/* width height num_colors chars_per_pixel */
"93 33 92 2",
/* colors */
"   c #655442",
" . c #635240",
" X c #61503e",
" o c #604f3d",
" O c #62513f",
" + c #605343",
" @ c #615444",
" # c #61553f",
" $ c #625640",
" % c #635741",
" & c #645842",
" * c #655943",
" = c #665a44",
" - c #675b45",
" ; c #685c46",
" : c #645542",
" > c #625340",
" , c #60513e",
" < c #61523f",
" 1 c #605342",
" 2 c #615443",
" 3 c #625544",
" 4 c #655643",
" 5 c #635441",
" 6 c #615441",
" 7 c #625542",
" 8 c #635643",
" 9 c #695d47",
" 0 c #645744",
" q c #605340",
" w c #5f523f",
" e c #655845",
" r c #60543e",
" t c #665742",
" y c #675843",
" u c #685944",
" i c #685946",
" p c #685c44",
" a c #675b43",
" s c #695d45",
" d c #6a5e46",
" f c #685e45",
" g c #695f46",
" h c #695a45",
" j c #695a47",
" k c #6b5f47",
" l c #6c6048",
" z c #695a43",
" x c #6e5f48",
" c c #685743",
" v c #6a5b46",
" b c #6a5b44",
" n c #6d6149",
" m c #695942",
" M c #6a5a43",
" N c #6b5b44",
" B c #6b5c45",
" V c #6d5e47",
" C c #6f5f48",
" Z c #6a5e48",
" A c #6c5d46",
" S c #6f6049",
" D c #706049",
" F c #695844",
" G c #6a5945",
" H c #6b5a46",
" J c #6b5f49",
" K c #71614a",
" L c #716148",
" P c #72624b",
" I c #726249",
" U c #726248",
" Y c #706352",
" T c #6e6150",
" R c #6c5f4e",
" E c #6b5e4d",
" W c #6d604f",
" Q c #6d614b",
" ! c #6e624c",
" ~ c #6f634d",
" ^ c #70644e",
" / c #71654f",
" ( c #71654d",
" ) c #72664e",
" _ c #74654e",
" ` c #746550",
" ' c #756651",
" ] c #766752",
" [ c #746850",
" { c #766750",
" } c #776750",
" | c #786650",
/* pixels */
"   . X o X O O O O O O O . . . . + + + + @ @ @ @ # # # $ $ $ $ % % % % % % & & & % % % % % % % % * * * * * * * * * * * * * * * * * * * * = = = = = = = = = = = = - - - - - - - - ; ; ; ; ;",
"   . X o X O O O O O O O O . . . + + + + @ @ @ @ # # $ $ $ $ % % % % % % & & & & & & & & & & & & * * * * * * * * * * * * * * * * * * * = = = = = = = = = = = = = - - - - - - - - ; ; ; ; ;",
" : > , , < > > < , < < < < > > > 1 1 2 2 2 2 3 3 $ $ $ $ % % % % % % % % & & & & & & & & & & & & * * * * * * * * * * * * * * * * * * * = = = = - - - - - - - - - - - - - - - - - ; ; ; ; ;",
" 4 5 < , < > > > < < < < < > > > 2 2 2 2 3 3 3 3 $ $ % % % % & & % % % & & & & * & & & & & & & & * * * * * * * * * * * * * * * * * = = = = - - - - - - - - - - - ; ; ; ; ; ; ; ; ; ; ; ; ;",
" 4 5 < < > 5 5 > < < < > > > > 5 6 6 7 7 7 7 8 8 % % % % & & & & % & & & & * * * * * * * * * * * = = = = = = = = = = = = = = = = = = = = - - - - - - - - - - - - ; ; ; ; ; ; ; ; 9 9 9 9 9",
" 0 7 q w q 6 6 6 q q q 6 6 6 6 6 7 7 7 7 8 8 8 8 % % & & & & * * & & & & * * * * = = = = = = = = = = = = = = = = = = = = = = = = = = = - - - - - - - - - - - - - ; ; ; ; ; ; ; ; 9 9 9 9 9",
" 0 7 q q 6 7 7 6 6 6 6 7 7 7 7 7 7 7 8 8 8 8 0 0 & & & & * * * * & & & & * * * * = = = = = = = = = = = = = = = = = = = = = = = = = = = - - - - ; ; ; ; ; ; ; ; ; ; ; ; ; ; ; ; ; 9 9 9 9 9",
" e 8 q q 6 7 7 6 7 7 7 7 7 8 8 8 $ % % % % & & & & & & & * * * * & & & * * * * * = = = = = = = = = = = = = = = = = = = = = = = = = = - - - - ; ; ; ; ; ; ; ; ; ; ; ; ; ; ; ; ; ; 9 9 9 9 9",
" * # r $ % # # $ % % % % % % % % & & & & & & & & & & & & & & & & t t t y y y y u y y y y u u u u i i i i i i i i - - - - - - - - p p p p p p p p a a a p p p p s s s s s d d d d f f f f f",
" * $ r $ % # # $ % % % % % % % % & & & & & & & & & & & & & & & & t t y y y y y u y y y u u u u u i i i i i i i i - - - - - - - - p p p p p p p p a a p p p p s s s s s s d d d d g g g g g",
" = $ r $ % $ # % & & & & & & & & & & & & & & & & & & & & & & & & t y y y y y u u y y y u u u u h j j j j j j j j - - - - - - - - p p p p p p p p p p p p s s s s s s d d d d k k g g g g g",
" = $ # % & $ $ % & & & & & & & & * * * * * * * * y y y y y y y y y y y y u u u u y u u u u h h h h h h h h h h h ; ; ; ; ; ; ; ; p p p p p p p p p p s s s s d d d d d d k k k k d d d d d",
" - % # & & % $ & & & & & & & & & * * * * * * * * y y y y y y y y y y y y u u u u u u u u h h h h h h h h h h h h ; ; ; ; ; ; ; ; s s s s s s s s s s s s d d d d d d k k k k l l k k k k k",
" - & $ & * % % & & & & & & & & & * * * * * * * * y y y y y y y y y y u u u u u h u u u h h h h h z z z z z z z z ; ; ; ; ; ; ; ; s s s s s s s s s s d d d d k k k k k k l l l l x x x x x",
" ; & $ & * & % * * * * * * * * * * * * * * * * * c c c c c c c c y u u u u u h h u u u h h h h v b b b b b b b b ; ; ; ; ; ; ; ; s s s s s s s s d d d d k k k k k k l l l l n n x x x x x",
" ; & % * = & % * * * * * * * * * * * * * * * * * c c c c c c c c y u u u u h h h u u h h h h v v b b b b b b b b ; ; ; ; ; ; ; ; s s s s s s s s d d d d k k k k k l l l l n n n x x x x x",
" 9 * % * = & % & * * * * * * * * * * * * = = = = u u u u u u u u m m M M M M N N z z z b b b b B p p p p s s s s s s s s s s s s V V V V V V V V x x x x x x x x x x x x x x x x C C C C C",
" 9 * % * = & % & * * * * * * * * * * * = = = = = u u u u u u u u m M M M M N N N z z b b b b b B p p p s s s s d d d d d d d d d V V V V V V V V x x x x x x x x x x x x x x x x C C C C C",
" 9 * % * = & % * * * * * * * * * * * * = = = = - h h h h h h h h z z z z z b b b z b b b b b B B s s s s s d d d d d d d d d d d V V V V V V V V x x x x x x x x x x x x x x x x C C C C C",
" 9 * & = = & & * y y y y y y y y y u u u u h h h h h h h h h h h z z z z b b b b b b b b B B B B s s s d d d d d d d d d d d d d V V V V V V V V x x x x x x x x x x x x x x x x C C C C C",
" Z = & = = & & * u u u u u u u u u u u u h h h h h h h h h h h h z z z b b b b B b b b b B B B B d d d d d k k k k k k k k k k k x x x x x x x x x x x x x x x x x x x x x x x x C C C C C",
" Z = & = - * & * u u u u u u u u u u u h h h h h h h h h h h h h a p p p p s s s b b B B B B B A d d d k k k k k l l l l l l l l x x x x x x x x S S S S S S S S S S S S S S S S D D D D D",
" Z = & = - * & = F F F F F F F F F F F G G G G H v v v v v v v v p p p p p s s s b B B B B B A A d k k k k l l l l l l l l l l l x x x x x x x x S S S S S S S S S S S S S S S S D D D D D",
" Z = * = - * & = F F F F F F F F F F G G G G H H v v v v v v v v p p p p s s s s b B B B B A A A k k k k l l l l l l l l l l l l x x x x x x x x S S S S S S S S S S S S S S S S D D D D D",
" J - * = - = = ; y y y y u u u u j j j j j j j j z z z b b b b B p p p p s s s s k k k k k k k k V V V V x x x x l l l l l l l l x x x x x x x x C C C C C C C C C C D D D D K K K K K K K",
" J - * = - = = ; y y y u u u u u j j j j j j j j z z b b b b b B p p p s s s s d k k k k k k k k V V V V x x x x l l l l l l l l x x x x x x x x C C C C C C C C C D D D D K K K K K K K K",
" J - * = - = = ; y y y u u u u h j j j j j j j j z b b b b b B B s s s s s d d d k k k k k k k k V V V V x x x x l l l l l l l l x x x x x x x x D D D D D D D D D D D D D K K K K K K K K",
" J - * = - = = ; y u u u u h h h v v v v v v v v b b b b B B B B s s s d d d d d k k k k k k k k V V V V x x x x x x x x x x x x x x x x x x x x D D D D D D D D D D D D K K K K L L L L L",
" J - * = - = = ; u u u u h h h h v v v v v v v v b b b b B B B B d d d d d k k k l l l l l l l l V V V V x x x x x x x x x x x x x x x x x x x x D D D D D D D D D D D K K K K P I I I I I",
" J - * = - = = ; u u u h h h h h b b b b b b b b b b B B B B B A d d d k k k k k l l l l l l l l V V V V x x x x x x x x x x x x S S S S S S S S D D D D D D D D D K K K K P P P U U U U U",
" J - * = - = = ; u u u h h h h v b b b b b b b b b B B B B B A A d k k k k l l l l l l l l l l l V V V V x x x x C C C C C C C C S S S S S S S S K K K K K K K K K K K K K P P P U U U U U",
" J - * = - = = ; u u h h h h v v b b b b b b b b b B B B B A A A k k k k l l l l l l l l l l l l V V V V x x x x C C C C C C C C S S S S S S S S K K K K K K K K K K K K P P P P U U U U U",
" Y T R E R W W W Q Q Q Q Q Q Q Q Q Q Q ! ! ! ! ! ~ ~ ~ ~ ~ ^ ^ ^ ^ ^ ~ ~ ~ ^ / / / / / / / / / / ( ( ( ( ) ) ) ) _ _ _ _ _ _ _ _ _ _ _ _ _ _ _ _ ` ` ' ' ' ' ] ] [ { { { } } | | } } } } }"
};
