/* XPM */
static char *freeimage[] = {
/* width height num_colors chars_per_pixel */
"30 14 354 2",
/* colors */
"   c #523e33",
" . c #455f54",
" X c #3c7974",
" o c #387273",
" O c #416f6c",
" + c #4b7b6d",
" @ c #4a7b68",
" # c #4f796b",
" $ c #51806e",
" % c #538270",
" & c #558673",
" * c #588c76",
" = c #5c927b",
" - c #619980",
" ; c #639d84",
" : c #659f86",
" > c #5e9d8c",
" , c #60a092",
" < c #60a199",
" 1 c #61a29e",
" 2 c #5ea09f",
" 3 c #5a9e9d",
" 4 c #589f9b",
" 5 c #579e98",
" 6 c #5ba09d",
" 7 c #559d9a",
" 8 c #539d9e",
" 9 c #4d9b9d",
" 0 c #4b999b",
" q c #458f90",
" w c #74624e",
" e c #4b6655",
" r c #347169",
" t c #36716f",
" y c #45746e",
" u c #4d7d6f",
" i c #4b7b6b",
" p c #4f796d",
" a c #507f6f",
" s c #528171",
" d c #558575",
" f c #578a77",
" g c #5a8f7b",
" h c #5e957e",
" j c #609a82",
" k c #639d85",
" l c #5e9e8d",
" z c #60a29e",
" x c #5da1a0",
" c c #5b9f9e",
" v c #59a09c",
" b c #59a29b",
" n c #5ea3a0",
" m c #579f9c",
" M c #56a0a1",
" N c #4f9d9f",
" B c #479192",
" V c #8d7c60",
" C c #4f6950",
" Z c #2e6b5c",
" A c #37726c",
" S c #46756f",
" D c #4c7a6d",
" F c #4a7a6c",
" G c #517a72",
" H c #4e7c71",
" J c #528075",
" K c #558579",
" L c #578a7b",
" P c #588d7d",
" I c #5b927f",
" U c #5d9683",
" Y c #619a87",
" T c #5f9f8e",
" R c #5ca2a0",
" E c #5ca39f",
" W c #5ca59e",
" Q c #60a7a3",
" ! c #5aa2a1",
" ~ c #58a4a4",
" ^ c #52a0a4",
" / c #4f9da1",
" ( c #489494",
" ) c #8c7958",
" _ c #496445",
" ` c #2c6a55",
" ' c #3a736c",
" ] c #44716a",
" [ c #467469",
" { c #49776c",
" } c #537a75",
" | c #4e7c72",
".  c #538177",
".. c #57867c",
".X c #588a7e",
".o c #588c7f",
".O c #5a9080",
".+ c #5c9584",
".@ c #609988",
".# c #5fa193",
".$ c #61a29a",
".% c #5ea2a1",
".& c #5da3a1",
".* c #5da5a1",
".= c #5fa8a1",
".- c #61a7a5",
".; c #5ca4a3",
".: c #59a4a7",
".> c #53a1a5",
"., c #509ea2",
".< c #499497",
".1 c #816e4e",
".2 c #455f42",
".3 c #2e6957",
".4 c #377069",
".5 c #3f6c67",
".6 c #467167",
".7 c #4a786e",
".8 c #547b78",
".9 c #507e74",
".0 c #558379",
".q c #59887e",
".w c #5a8c80",
".e c #5a8e81",
".r c #5b9181",
".t c #5d9685",
".y c #619a89",
".u c #5ea18f",
".i c #60a39a",
".p c #5fa49f",
".a c #5ea4a2",
".s c #5da5a2",
".d c #5fa7a3",
".f c #5ea9a2",
".g c #5fa7a4",
".h c #5aa4a3",
".j c #57a5a7",
".k c #51a0a4",
".l c #4d9ca0",
".z c #469496",
".x c #7b654d",
".c c #455d47",
".v c #2b6559",
".b c #316865",
".n c #3f6967",
".m c #4b766d",
".M c #4f7a71",
".N c #567a76",
".B c #568479",
".V c #5a8a7e",
".C c #5c8f80",
".Z c #5d9282",
".A c #5e9582",
".S c #5f9885",
".D c #629b88",
".F c #5fa394",
".G c #61a49b",
".H c #60a5a0",
".J c #5fa5a3",
".K c #5ea6a3",
".L c #5da8a3",
".P c #5ea6a5",
".I c #59a3a4",
".U c #56a4a8",
".Y c #509fa4",
".T c #4b9a9f",
".R c #449296",
".E c #6d5549",
".W c #3f5549",
".Q c #265e5b",
".! c #2d6266",
".~ c #416b6a",
".^ c #4c776e",
"./ c #4e796f",
".( c #577c75",
".) c #538272",
"._ c #568575",
".` c #598979",
".' c #5c8f7c",
".] c #5f9480",
".[ c #609780",
".{ c #619b83",
".} c #5ca18e",
".| c #60a69c",
"X  c #60a7a1",
"X. c #5ca7a3",
"XX c #5ca7a2",
"Xo c #5ba8a0",
"XO c #5ca6a5",
"X+ c #55a4a8",
"X@ c #4e9fa3",
"X# c #499a9e",
"X$ c #429195",
"X% c #5b423d",
"X& c #364b46",
"X* c #255b5d",
"X= c #2e636b",
"X- c #436c6e",
"X; c #4b746c",
"X: c #4b766c",
"X> c #597e77",
"X, c #558472",
"X< c #588976",
"X1 c #5b8f79",
"X2 c #5f957e",
"X3 c #619b82",
"X4 c #61a8a2",
"X5 c #5ba6a1",
"X6 c #5aa79f",
"X7 c #2f3841",
"X8 c #2c4349",
"X9 c #2c4f53",
"X0 c #40656b",
"Xq c #46656a",
"Xw c #516f71",
"Xe c #527770",
"Xr c #507e73",
"Xt c #528076",
"Xy c #56857d",
"Xu c #578980",
"Xi c #5a917e",
"Xp c #5c967d",
"Xa c #609b7d",
"Xs c #68a18e",
"Xd c #66a393",
"Xf c #62a498",
"Xg c #5ca39d",
"Xh c #5aa5a1",
"Xj c #5da9a7",
"Xk c #5fa9a8",
"Xl c #5da7a6",
"Xz c #5da8ad",
"Xx c #57a2a8",
"Xc c #56a0ab",
"Xv c #519ba8",
"Xb c #4d97a4",
"Xn c #438d98",
"Xm c #323b44",
"XM c #344b51",
"XN c #2a4d51",
"XB c #3c6167",
"XV c #4a696e",
"XC c #527072",
"XZ c #4f746d",
"XA c #4a786d",
"XS c #4c7a6f",
"XD c #55847c",
"XF c #588a81",
"XG c #5c9083",
"XH c #639a87",
"XJ c #6aa48b",
"XK c #70ab8d",
"XL c #76b097",
"XP c #74b29b",
"XI c #6db09f",
"XU c #62aa9f",
"XY c #5ca8a6",
"XT c #5ea8a9",
"XR c #5ca6a7",
"XE c #60abb0",
"XW c #59a4aa",
"XQ c #57a1ac",
"X! c #539daa",
"X~ c #4f99a6",
"X^ c #46909b",
"X/ c #2b343d",
"X( c #40575d",
"X) c #2d5054",
"X_ c #395e64",
"X` c #4b6a6f",
"X' c #4f6d6f",
"X] c #4d726b",
"X[ c #48766b",
"X{ c #517f75",
"X} c #53827a",
"X| c #54867d",
"o  c #578b7e",
"o. c #66a087",
"oX c #6da88a",
"oo c #75b18d",
"oO c #73b293",
"o+ c #6cb099",
"o@ c #61a99b",
"o# c #59a49f",
"o$ c #59a5a5",
"o% c #5ca6a9",
"o& c #5da6ac",
"o* c #5ba6ab",
"o= c #539ea4",
"o- c #519ba6",
"o; c #4e98a5",
"o: c #4b95a2",
"o> c #428c97",
"o, c #19222b",
"o< c #496066",
"o1 c #385b5f",
"o2 c #3a5f65",
"o3 c #47666b",
"o4 c #4b696b",
"o5 c #54837b",
"o6 c #55877e",
"o7 c #598d80",
"o8 c #609784",
"o9 c #68a289",
"o0 c #7cb98f",
"oq c #7bbb96",
"ow c #73b89c",
"oe c #65ae9d",
"or c #5aa59e",
"ot c #59a2a8",
"oy c #59a2a9",
"ou c #5aa5aa",
"oi c #529da3",
"op c #529ca7",
"oa c #509aa7",
"os c #448e99",
"od c #121b24",
"of c #4c6369",
"og c #3f6266",
"oh c #436267",
"oj c #51766f",
"ok c #4b796e",
"ol c #5d9481",
"oz c #69a486",
"ox c #76b38a",
"oc c #76b693",
"ov c #70b599",
"ob c #64ac9e",
"on c #5aa5a0",
"om c #57a2a5",
"oM c #58a1a8",
"oN c #57a0a7",
"oB c #57a2a7",
"oV c #509ba1",
"oC c #1d262f",
"oZ c #465d63",
"oA c #3b5e62",
"oS c #446368",
"oD c #518078",
"oF c #53857c",
"oG c #54887b",
"oH c #588f7c",
"oJ c #619c7e",
"oK c #69a583",
"oL c #6aa98c",
"oP c #66aa95",
"oI c #5da59a",
"oU c #58a39f",
"oY c #58a3a6",
"oT c #5aa3a9",
"oR c #55a0a5",
"oE c #4f9aa0",
"oW c #4f99a4",
"oQ c #408a95",
/* pixels */
"   . X o O + @ # $ % & * = - ; : > , < 1 2 3 4 5 6 7 8 9 0 q",
" w e r t y u i p a s d f g h j k l , < z x c v b n m M N 9 B",
" V C Z A S D F G H J K L P I U Y T , < z x R E W Q ! ~ ^ / (",
" ) _ ` ' ] [ { } |. ...X.o.O.+.@ T.#.$ z.%.&.*.=.-.;.:.>.,.<",
".1.2.3.4.5.6.7.8.9.0.q.w.e.r.t.y.u.#.i.p.a.s.d.f.g.h.j.k.l.z",
".x.c.v.b.n.m.M.N J.B.V.C.Z.A.S.D.u.F.G.H.J.K.L.f.P.I.U.Y.T.R",
".E.W.Q.!.~.^./.(.)._.`.'.].[ j.{.}.F.|X .gX.XXXoXO ~X+X@X#X$",
"X%X&X*X=X-X;X:X> %X,X<X1X2 -X3X3.}.F.|X4.gX.X5X6XO ~X+X@X#X$",
"X7X8X9X0XqXwXeXr HXtXyXu.oXiXpXaXsXdXfXgXhXjXkXlXzXxXcXvXbXn",
"XmXMXNXBXVXCXZXAXS.9XDXFXGXHXJXKXLXPXIXUX.XYXTXRXEXWXQX!X~X^",
"X/X(X)X_X`X'X]X[ HX{X}X|o .Ao.oXoooOo+o@o#o$o%o&o*o=o-o;o:o>",
"o,o<o1o2o3o4XZXS HX{o5o6o7o8o9XKo0oqowoeor ~otoyouoiopoao;os",
"odofogo2oho4ojokXS.9X}o6.ool ;ozoxocovobonomoMoNoBoVo-oao;Xn",
"oCoZoAo2oSX'oj [ok |oDoFoGoHXpoJoKoLoPoIoUoYoToyoRoEoWXbo:oQ"
};
