/* XPM */
static char *freeimage[] = {
/* width height num_colors chars_per_pixel */
"119 14 243 2",
/* colors */
"   c #428ca5",
" . c #459aaf",
" X c #15414e",
" o c #14110c",
" O c #1a1907",
" + c #171611",
" @ c #1b0f13",
" # c #16160e",
" $ c #1c150f",
" % c #1d1610",
" & c #1e1711",
" * c #1f1812",
" = c #201913",
" - c #211a14",
" ; c #221b15",
" : c #211a12",
" > c #211a10",
" , c #221b13",
" < c #201911",
" 1 c #482122",
" 2 c #664443",
" 3 c #593b39",
" 4 c #311917",
" 5 c #251611",
" 6 c #261d16",
" 7 c #1c1912",
" 8 c #1a1a12",
" 9 c #361216",
" 0 c #2e070c",
" q c #32070e",
" w c #42131b",
" e c #34070e",
" r c #31060d",
" t c #3a1117",
" y c #513331",
" u c #482c29",
" i c #39211d",
" p c #291811",
" a c #1c1209",
" s c #161207",
" d c #151509",
" f c #16180b",
" g c #1b140e",
" h c #19120c",
" j c #438da6",
" k c #479cb1",
" l c #143e4a",
" z c #120f0a",
" x c #181705",
" c c #181510",
" v c #1c1014",
" b c #181810",
" n c #2b0d0b",
" m c #351916",
" M c #2b130f",
" N c #200e0a",
" B c #251812",
" V c #231a13",
" C c #1b1610",
" Z c #1f1c15",
" A c #291514",
" S c #261110",
" D c #2a1011",
" F c #331517",
" G c #2d0f11",
" H c #290f10",
" J c #2c1414",
" K c #25100b",
" L c #240f0a",
" P c #200f08",
" I c #1d1008",
" U c #1a1108",
" Y c #19150a",
" T c #1a180c",
" R c #1a1a0e",
" E c #231c16",
" W c #448ea7",
" Q c #4a9fb3",
" ! c #133d49",
" ~ c #120d07",
" ^ c #171401",
" / c #1d1113",
" ( c #191911",
" ) c #231c14",
" _ c #281912",
" ` c #24150e",
" ' c #1f120a",
" ] c #221711",
" [ c #281f18",
" { c #1e1913",
" } c #1b1b13",
" | c #201b15",
".  c #231a15",
".. c #221713",
".X c #231512",
".o c #211813",
".O c #1e140b",
".+ c #1e150c",
".@ c #1f160d",
".# c #1f180e",
".$ c #1c180d",
".% c #1b170c",
".& c #458da5",
".* c #50a2b7",
".= c #123c48",
".- c #161300",
".; c #18150e",
".: c #1f1013",
".> c #1b180f",
"., c #1e1a0f",
".< c #211d12",
".1 c #221e13",
".2 c #181e14",
".3 c #1d1e16",
".4 c #1c1711",
".5 c #1d1a13",
".6 c #1a1a10",
".7 c #19190f",
".8 c #1a170e",
".9 c #1b170e",
".0 c #1d160e",
".q c #1a130d",
".w c #55a8ba",
".e c #143c46",
".r c #160f07",
".t c #191400",
".y c #1a150f",
".u c #1e0f12",
".i c #19160d",
".p c #221b11",
".a c #18180c",
".s c #1d1d11",
".d c #232115",
".f c #1f1c13",
".g c #1a160d",
".h c #251e18",
".j c #1f1f17",
".k c #211612",
".l c #1f1611",
".z c #171a0f",
".x c #16190e",
".c c #16180d",
".v c #16160c",
".b c #19150c",
".n c #1b140c",
".m c #1d140d",
".M c #1e150e",
".N c #488fa5",
".B c #5cadc0",
".V c #153d47",
".C c #181109",
".Z c #1e1010",
".A c #1a160b",
".S c #242216",
".D c #211f13",
".F c #211d14",
".G c #1f1b12",
".H c #1e1a11",
".J c #221d17",
".K c #201511",
".L c #261714",
".P c #251613",
".I c #221310",
".U c #1c1c12",
".Y c #1d1d13",
".T c #1e1b12",
".R c #1e170f",
".E c #1c150d",
".W c #1c130c",
".Q c #241d17",
".! c #4c93a9",
".~ c #62b3c4",
".^ c #163c45",
"./ c #181107",
".( c #181300",
".) c #1f0f10",
"._ c #241d15",
".` c #241a11",
".' c #1c130a",
".] c #1f1810",
".[ c #1d1812",
".{ c #231e18",
".} c #1d1d15",
".| c #201712",
"X  c #231814",
"X. c #241613",
"XX c #4f96ac",
"Xo c #65b6c7",
"XO c #180f06",
"X+ c #171000",
"X@ c #271811",
"X# c #2b1c15",
"X$ c #271a12",
"X% c #201d16",
"X& c #161c12",
"X* c #1a1b13",
"X= c #1f1a14",
"X- c #1e1b14",
"X; c #251714",
"X: c #1f1410",
"X> c #1d140f",
"X, c #549fbf",
"X< c #7ad1d8",
"X1 c #163f37",
"X2 c #150a04",
"X3 c #1d120c",
"X4 c #1c1411",
"X5 c #211614",
"X6 c #181a0f",
"X7 c #221a17",
"X8 c #211916",
"X9 c #56a7c5",
"X0 c #7ddadf",
"Xq c #17463c",
"Xw c #130c04",
"Xe c #1a110a",
"Xr c #1a120f",
"Xt c #201211",
"Xy c #15150b",
"Xu c #65c0db",
"Xi c #87edef",
"Xp c #1c5245",
"Xa c #151209",
"Xs c #221212",
"Xd c #18140b",
"Xf c #6acce5",
"Xg c #81eded",
"Xh c #104a3c",
"Xj c #0c0e03",
"Xk c #1b1310",
"Xl c #231313",
"Xz c #1c180f",
"Xx c #7ee0f9",
"Xc c #88f4f4",
"Xv c #0f493b",
"Xb c #0d0f04",
"Xn c #19110e",
"Xm c #1e0e0e",
"XM c #84dffa",
"XN c #8ff5f7",
"XB c #164c3f",
"XV c #16130a",
"XC c #1f0f0f",
/* pixels */
"   . X o O + @ # $ $ % % % % & & & & & & & & & & * * * * * = = = - = = = = = = * * * = = = = - - ; ; ; ; ; ; ; ; - - : : : > > > , , , , , , , , , , , , , , , , , , , , , : : < 1 2 3 4 5 6 7 8 9 0 q w w e r t y u i p a s d f $ % g $ h g ;",
" j k l z x c v b $ $ % % % % & & & & & & & & & & * * * * * = = = = = = = = = = = * = = = = - - - ; ; ; ; ; ; ; ; - - : : : > > > , , , , , , , , , , , , , , , , , , , , , , : < n m M N B V C Z A S D F F G H J K L P I U Y T R $ & g $ h g E",
" W Q ! ~ ^ c / ( $ $ % % % % & & & & & & & & & & * * * * * = = = = = = = = = = = = = = = = - - - ; ; ; ; ; ; ; ; - - : : : > > > , , , , , , , , , , , , , , , , , , ) ) , , : < _ ` ' ] [ ) % { } |. ...X...o &.O.+.@.#.#.$.%.% $ & g $ h g E",
".&.*.= ~.-.;.:.> $ $ % % % % & & & & & & & & & & * * * * * = = = = = = = = = = = = = = = - - - - ; ; ; ; ; ; ; ; - - : : : > > > , , , , , , , , , , , , , , , , , , ) ) ) , : :.,.<.1 ) , ) ; =.2.3 Z.4 % {.5 (.6.6.7.8.9.0.0.0 % & g %.q $ E",
".&.w.e.r.t.y.u.i $ $ % % % % & & * * * * * * * * * * * * * = = = * * * = = - - - = = = - - - - ; ; ; ; ; ; ; ; ; ; ; , , ,.p.p.p , , , , , , , , , , , , , , , , , ) ) ) ) , , :.a.s.d.f.g :.h ;.j Z =.k.k.l * {.z.x.c.v.b.n.m.M % & $ %.q $ E",
".N.B.V.C.t.9.Z.A $ $ % % % % & & * * * * * * * * * * * * * = = = * * * = = - - - = - - - - ; ; ; ; ; ; ; ; ; ; ; ; ; , , ,.p.p.p , , , , , , , , ) ) ) ) ) ) ) ) ) ) ) ) ) ) , :.S.D.<.F.G.H - E.J =.K.L.P.I.K. .U.Y.f.T.H.R.E.W % * $ %.q $.Q",
".!.~.^./.(.E.).A $ $ % % % % & & * * * * * * * * * * * * * = = = & * * = = - - ; - - - - - ; ; ; ; ; ; ; ; ; ; ; ; ; , , ,.p.p.p , , , , , , , , ) ) ) ) ) ) ) ) ) )._._ ) ) , :.`.@.'.] ).H.[.{.}.[.|X X..k.| - g $ % & * & & % % * $ %.q $.Q",
"XXXo.^XOX+.E.).$ $ $ % % % % & & * * * * * * * * * * * * * = = = & & * = = - ; ; - - - - ; ; ; ; ; ; ; ; ; ; ; ; ; ; , , ,.p.p.p , , , , , , , , ) ) ) ) ) ) ) ) ) )._._ ) ) , ,X@X#X$ ] ).G 7X%X&X*.5 * =X=X- }X;X..KX:X> % &.4 % * $ & g $.Q",
"X,X<X1X2X3X4X5X6 % % % & & & & &.R.R.R.R.].].].] * * * * * * * * * = = = = = - -X7X7 ; ; , , ,.p.] < < : : < <.] , , , , , , , , , , ) ) ) )._._ ) ) ) ) ) ) ) ) ) ) ) ) ) ) ) )._ ) , , : , , , > : : : - -X8X8 * * * * & & & & * & g * $ g E",
"X9X0XqXwXeXrXtXy % % % & & & & &.R.R.R.R.].].].] * * * * * * * * = = = = - - - -X7X7 ; ; , , ,.p < < : : : : < < , , , , , , , , , , ) ) ) )._._ ) ) ) ) ) ) ) ) ) ) ) ) ) ) ) )._ ) , , : , , , > : : : - -X8X8 = = * * * * & & * & $ * $ $ E",
"XuXiXpXa.EX4XsXd % % % & & & & &.R.R.R.R.].].].] * * * * * * * * = = - - - - ; ;X7X7 ; ; , , ,.p < : : , , : : < , , , , , , , , , , ) ) ) )._._ ) ) ) ) ) ) ) ) ) ) ) ) ) ) ) )._ ) , , : , , , > : : : - -X8X8 = = = = * * * * = * $ = % $.Q",
"XfXgXhXj.bXkXlXz % % % & & & & &.R.R.R.R.].].].] * * * * * * * * - - - - ; ; ; ;X7X7 ; ; , , ,.p : : , , , , : : , , , , , , , , , , ) ) ) )._._ ) ) ) ) ) ) ) ) ) ) ) ) ) ) ) )._ ) , , : , , , > : : : - -X8X8 - = = = = = * * = * % = % %.Q",
"XxXcXvXb.9XnXm.9 % % % & & & & &.R.R.R.R.].].].] * * * * * * * * - - - - ; ; ; ;X7X7 ; ; , , ,.p : : , , , , : : , , , , , , , , , , ) ) ) )._._ ) ) ) ) ) ) ) ) ) ) ) ) ) ) ) )._ ) , , : , , , > : : : - -X8X8 - = = = = = * * = * % = % %.Q",
"XMXNXBXV ,XkXCXz % % % & & & & &.R.R.R.R.].].].] * * * * * * * * = = - - - - ; ;X7X7 ; ; , , ,.p < : : , , : : < , , , , , , , , , , ) ) ) )._._ ) ) ) ) ) ) ) ) ) ) ) ) ) ) ) )._ ) , , : , , , > : : : - -X8X8 = = = = * * * * = * $ = % $.Q"
};
