/* XPM */
static char *freeimage[] = {
/* width height num_colors chars_per_pixel */
"35 33 579 2",
/* colors */
"   c #685c44",
" . c #675b43",
" X c #695d45",
" o c #6a5a4b",
" O c #665744",
" + c #665a40",
" @ c #685f42",
" # c #655f47",
" $ c #332d1f",
" % c #040000",
" & c #171018",
" * c #73403f",
" = c #936158",
" - c #8d6251",
" ; c #745b47",
" : c #625b49",
" > c #5a5b49",
" , c #645e46",
" < c #68593a",
" 1 c #69594a",
" 2 c #665946",
" 3 c #695d43",
" 4 c #6b6245",
" 5 c #6a6047",
" 6 c #3c3324",
" 7 c #100503",
" 8 c #2a1e22",
" 9 c #75403c",
" 0 c #946257",
" q c #906656",
" w c #7b6454",
" e c #766e63",
" r c #6b675b",
" t c #71593d",
" y c #675a4a",
" u c #6a5d4a",
" i c #6b5f47",
" p c #685d41",
" a c #6e6046",
" s c #564636",
" d c #37261e",
" f c #493735",
" g c #794b3e",
" h c #906555",
" j c #866556",
" k c #6f6158",
" l c #777672",
" z c #73726d",
" x c #665948",
" c c #765b40",
" v c #6a5e46",
" b c #685b4b",
" n c #6b5e4b",
" m c #67593f",
" M c #6e5e47",
" N c #685747",
" B c #59453a",
" V c #634f48",
" C c #705540",
" Z c #79634e",
" A c #6f6353",
" S c #595e58",
" D c #647678",
" F c #6e817f",
" G c #5f6154",
" H c #61553b",
" J c #695c49",
" K c #6e5f4a",
" L c #6d5e4b",
" P c #675747",
" I c #59493c",
" U c #54433b",
" Y c #66554e",
" T c #636349",
" R c #686a52",
" E c #6c7766",
" W c #5f7a75",
" Q c #679094",
" ! c #7ca8a9",
" ~ c #6e8e83",
" ^ c #556751",
" / c #695a45",
" ( c #71624f",
" ) c #716454",
" _ c #564940",
" ` c #342923",
" ' c #362c2a",
" ] c #514746",
" [ c #3e513d",
" { c #425541",
" } c #52685b",
" | c #4a716e",
".  c #4a8188",
".. c #6ca8b2",
".X c #6ca4a3",
".o c #457569",
".O c #6f5e42",
".+ c #6d5d44",
".@ c #706050",
".# c #61574d",
".$ c #3d3532",
".% c #201e1f",
".& c #27262b",
".* c #36373c",
".= c #294038",
".- c #2e4237",
".; c #3b4e48",
".: c #375659",
".> c #2d616f",
"., c #5092a2",
".< c #69adb6",
".1 c #4c8d8f",
".2 c #705b3e",
".3 c #74624a",
".4 c #6d5d4d",
".5 c #4b423b",
".6 c #292526",
".7 c #25252d",
".8 c #2c333d",
".9 c #262e39",
".0 c #1e3233",
".q c #2a3636",
".w c #333d3e",
".e c #2d444c",
".r c #204b5e",
".t c #3d7b92",
".y c #63aabc",
".u c #519ba6",
".i c #6d5f45",
".p c #695b41",
".a c #6c604a",
".s c #6e624c",
".d c #685d47",
".f c #685e45",
".g c #686145",
".h c #655e41",
".j c #635f39",
".k c #6f684e",
".l c #584b43",
".z c #322129",
".x c #2d1b2b",
".c c #332630",
".v c #372e31",
".b c #3c3934",
".n c #393937",
".m c #2d3134",
".M c #2f3b47",
".N c #243e4f",
".B c #204659",
".V c #376c7a",
".C c #55959e",
".Z c #88cfd1",
".A c #91a59a",
".S c #725b3c",
".D c #6c5e44",
".F c #6a5f49",
".G c #6c6247",
".H c #6d6348",
".J c #6f654c",
".K c #5c4f3f",
".L c #443230",
".P c #38232c",
".I c #422e39",
".U c #544548",
".Y c #5e574f",
".T c #605e4f",
".R c #596059",
".E c #566061",
".W c #455660",
".Q c #284354",
".! c #173d50",
".~ c #225362",
".^ c #649fa7",
"./ c #acedf1",
".( c #c1dad6",
".) c #72624b",
"._ c #6f634b",
".` c #6d6149",
".' c #6a5e48",
".] c #6f634d",
".[ c #614c49",
".{ c #45302f",
".} c #432a2e",
".| c #573e44",
"X  c #655152",
"X. c #74675e",
"XX c #807b67",
"Xo c #7f7e60",
"XO c #718278",
"X+ c #768985",
"X@ c #61787e",
"X# c #3b5765",
"X$ c #1b3e51",
"X% c #204b5b",
"X& c #8fbfcb",
"X* c #cbffff",
"X= c #91abac",
"X- c #665c50",
"X; c #6d5e47",
"X: c #70644c",
"X> c #685c42",
"X, c #6a5e44",
"X< c #6e5f48",
"X1 c #6f604b",
"X2 c #6f5f4f",
"X3 c #5b4b3c",
"X4 c #442534",
"X5 c #5d3f49",
"X6 c #785e5f",
"X7 c #7d6960",
"X8 c #817660",
"X9 c #8c8968",
"X0 c #8c8e66",
"Xq c #7a9687",
"Xw c #7c978e",
"Xe c #6e8c8e",
"Xr c #516f7a",
"Xt c #2b4c5d",
"Xy c #345868",
"Xu c #b8deeb",
"Xi c #cbf3fb",
"Xp c #6b7b78",
"Xa c #695d51",
"Xs c #6b604a",
"Xd c #6d634a",
"Xf c #6b6044",
"Xg c #6e6045",
"Xh c #71604e",
"Xj c #6a564b",
"Xk c #432f28",
"Xl c #3f1c34",
"Xz c #583647",
"Xx c #74535a",
"Xc c #816561",
"Xv c #82715d",
"Xb c #878161",
"Xn c #8f916a",
"Xm c #919a6f",
"XM c #80a38f",
"XN c #7b9d8f",
"XB c #70908f",
"XV c #607e88",
"XC c #416170",
"XZ c #3c5c6b",
"XA c #a4c4d1",
"XS c #a7c8d1",
"XD c #5f6251",
"XF c #6c5948",
"XG c #6c614d",
"XH c #6d6246",
"XJ c #6e6043",
"XK c #6e5e44",
"XL c #705d4c",
"XP c #5d4640",
"XI c #392121",
"XU c #512b42",
"XY c #6b4755",
"XT c #7a5a5b",
"XR c #7d6656",
"XE c #897b60",
"XW c #94916e",
"XQ c #939b74",
"X! c #8f9e77",
"X~ c #83a690",
"X^ c #81a395",
"X/ c #739390",
"X( c #6d8b93",
"X) c #5e7b89",
"X_ c #3b5866",
"X` c #62808b",
"X' c #718f99",
"X] c #655f45",
"X[ c #75604b",
"X{ c #6f5f48",
"X} c #6a624d",
"X| c #6d6244",
"o  c #6c5f3f",
"o. c #726147",
"oX c #6c5648",
"oo c #4c332f",
"oO c #42272c",
"o+ c #5f3a4b",
"o@ c #6d4d52",
"o# c #7a5e53",
"o$ c #826e55",
"o% c #908766",
"o& c #969a77",
"o* c #92a07f",
"o= c #8c9f81",
"o- c #81a38b",
"o; c #83a394",
"o: c #7a9994",
"o> c #708e96",
"o, c #6a8795",
"o< c #476472",
"o1 c #385660",
"o2 c #4b6971",
"o3 c #6f6a4d",
"o4 c #69614e",
"o5 c #665f45",
"o6 c #6c6143",
"o7 c #6a5d3b",
"o8 c #766549",
"o9 c #665042",
"o0 c #402625",
"oq c #51333b",
"ow c #65414b",
"oe c #6b4c4a",
"or c #7a604f",
"ot c #867758",
"oy c #8d8964",
"ou c #8e9573",
"oi c #8f9f84",
"op c #8fa58e",
"oa c #83a38c",
"os c #80a091",
"od c #69868c",
"of c #5b7984",
"og c #3b5963",
"oh c #436267",
"oj c #65654b",
"ok c #696353",
"ol c #695e42",
"oz c #71604c",
"ox c #766355",
"oc c #5c4442",
"ov c #3f242b",
"ob c #503442",
"on c #6b434e",
"om c #6f4d4e",
"oM c #795e53",
"oN c #85755b",
"oB c #8f8b66",
"oV c #959a72",
"oC c #97a27a",
"oZ c #96a57e",
"oA c #8b9f86",
"oS c #8ea595",
"oD c #7b9896",
"oF c #6c8d96",
"oG c #688799",
"oH c #506b7c",
"oJ c #415462",
"oK c #4d5e66",
"oL c #6c6145",
"oP c #716349",
"oI c #6d5a4c",
"oU c #573f3b",
"oY c #452a31",
"oT c #573b47",
"oR c #6d4850",
"oE c #745253",
"oW c #7f6558",
"oQ c #918d68",
"o! c #949971",
"o~ c #949f77",
"o^ c #92a07c",
"o/ c #8da488",
"o( c #8ba693",
"o) c #698b94",
"o_ c #5e7f90",
"o` c #4a6576",
"o' c #3e5462",
"o] c #4b5c66",
"o[ c #706049",
"o{ c #6e6248",
"o} c #6d6147",
"o| c #72644a",
"O  c #695648",
"O. c #58403c",
"OX c #4d3237",
"Oo c #573c45",
"OO c #6b484f",
"O+ c #725452",
"O@ c #7e685a",
"O# c #8a7c61",
"O$ c #939870",
"O% c #949e79",
"O& c #93a17e",
"O* c #8aa584",
"O= c #86a48c",
"O- c #769992",
"O; c #658a90",
"O: c #547888",
"O> c #446173",
"O, c #405566",
"O< c #4b5b6a",
"O1 c #6f6349",
"O2 c #6b5f45",
"O3 c #6f6147",
"O4 c #71614a",
"O5 c #6a5748",
"O6 c #5e4741",
"O7 c #53393a",
"O8 c #51363d",
"O9 c #67484d",
"O0 c #6f5651",
"Oq c #7b6857",
"Ow c #877c60",
"Oe c #8d8a67",
"Or c #919570",
"Ot c #929c79",
"Oy c #949f7f",
"Ou c #85a37f",
"Oi c #7d9f86",
"Op c #73998e",
"Oa c #63888e",
"Os c #4e7280",
"Od c #425f6f",
"Of c #455b69",
"Og c #4e5e6b",
"Oh c #6e624a",
"Oj c #695645",
"Ok c #5f493e",
"Ol c #593f3e",
"Oz c #53393c",
"Ox c #644a49",
"Oc c #6e574f",
"Ov c #7b6c59",
"Ob c #868060",
"On c #8d8d69",
"Om c #8f9571",
"OM c #8f9977",
"ON c #8f9a7c",
"OB c #84a383",
"OV c #7a9c84",
"OC c #6f928b",
"OZ c #5d8288",
"OA c #4a6c78",
"OS c #455f6e",
"OD c #4d5f6b",
"OF c #56636b",
"OG c #665342",
"OH c #5b4538",
"OJ c #5e4540",
"OK c #604645",
"OL c #5c4742",
"OP c #675549",
"OI c #776b55",
"OU c #858060",
"OY c #8e8e6a",
"OT c #8d9677",
"OR c #8b957a",
"OE c #839f88",
"OW c #6a8a87",
"OQ c #587980",
"O! c #4c6874",
"O~ c #4c606b",
"O^ c #556268",
"O/ c #616669",
"O( c #71624b",
"O) c #6d614b",
"O_ c #73634c",
"O` c #6c5a46",
"O' c #5e483b",
"O] c #614841",
"O[ c #674e4a",
"O{ c #5f4e47",
"O} c #635548",
"O| c #6e644b",
"+  c #787554",
"+. c #80825d",
"+X c #848a68",
"+o c #838c6f",
"+O c #828c73",
"++ c #768c7f",
"+@ c #708983",
"+# c #637f82",
"+$ c #58747f",
"+% c #556d79",
"+& c #58676e",
"+* c #5f6563",
"+= c #656660",
"+- c #6b5c45",
"+; c #76664f",
"+: c #776551",
"+> c #634a43",
"+, c #664d49",
"+< c #6c5e55",
"+1 c #6b5e4e",
"+2 c #686147",
"+3 c #6a6746",
"+4 c #6d6f4a",
"+5 c #717755",
"+6 c #727b5e",
"+7 c #737d64",
"+8 c #647771",
"+9 c #677b7a",
"+0 c #60777f",
"+q c #5d7581",
"+w c #627681",
"+e c #657074",
"+r c #646661",
"+t c #676558",
"+y c #6d5d46",
"+u c #645c45",
"+i c #686049",
"+p c #6c684f",
"+a c #706e55",
"+s c #73765b",
"+d c #767a5f",
"+f c #777d61",
"+g c #767f62",
"+h c #6b8987",
"+j c #6c8985",
"+k c #6e837e",
"+l c #6c7970",
"+z c #696c61",
"+x c #686556",
"+c c #6d6151",
"+v c #706350",
"+b c #726249",
"+n c #6b5f49",
"+m c #6c644d",
"+M c #6f6951",
"+N c #727258",
"+B c #73775c",
"+V c #697768",
"+C c #6a7766",
"+Z c #6c7363",
"+A c #6c6d5b",
"+S c #6d6653",
"+D c #77634b",
"+F c #72614d",
"+G c #70614c",
"+H c #6d624c",
"+J c #6d654e",
"+K c #6e6850",
"+L c #706c53",
"+P c #726e55",
"+I c #6d684b",
"+U c #6d664a",
"+Y c #6e6449",
"+T c #6e6347",
"+R c #716147",
"+E c #746045",
"+W c #766146",
"+Q c #776247",
"+! c #73634a",
"+~ c #716148",
"+^ c #74644b",
"+/ c #74624c",
"+( c #73614b",
"+) c #6f6049",
"+_ c #71654d",
"+` c #756544",
"+' c #736244",
"+] c #726143",
"+[ c #726145",
"+{ c #726346",
"+} c #736349",
"+| c #75654c",
"@  c #76674a",
"@. c #74644a",
"@X c #6f644e",
"@o c #6e6651",
"@O c #6c6451",
"@+ c #6a6350",
"@@ c #726248",
"@# c #75634b",
"@$ c #736149",
"@% c #6d624e",
"@& c #6d6550",
"@* c #6c6552",
"@= c #6a6552",
"@- c #696451",
"@; c #73654b",
"@: c #706046",
"@> c #71654b",
"@, c #766048",
"@< c #776245",
"@1 c #786344",
"@2 c #786443",
"@3 c #796242",
"@4 c #77674e",
"@5 c #76664d",
"@6 c #78684f",
"@7 c #786851",
"@8 c #796950",
/* pixels */
"                 . . .         X o O + @ # $ % & * = - ; : > , < X X X",
"                 . .         X X 1 2 3 4 5 6 7 8 9 0 q w e r 2 t . . .",
"                         X X X X y u i p a s d f g h j k l z x c      ",
"                     X X X X v v b n v m M N B V C Z A S D F G H i i i",
"                 X X X X v v v v u J K L P I U Y T R E W Q ! ~ ^ i i i",
" X X X X X X X X X X v v v v i i M / ( ) _ ` ' ] [ { } |. ...X.o X X X",
" X X X X X X X X v v v v i i i i.O.+.@.#.$.%.&.*.=.-.;.:.>.,.<.1      ",
" v v v v v v v v v v v v i i i i.2.3.4.5.6.7.8.9.0.q.w.e.r.t.y.u v v v",
" i i i i i i i i.i.p.a.s.d.f.g.h.j.k.l.z.x.c.v.b.n.m.M.N.B.V.C.Z.A.S.S",
" i i i i i i i i.D.i v.a.F.f.G.H.J.K.L.P.I.U.Y.T.R.E.W.Q.!.~.^./.(.).)",
" i i i i i i i i 3._   v.`.'.].a.[.{.}.|X X.XXXoXOX+X@X#X$X%X&X*X=X-X-",
"X;X;X;X;X;X;X;X; vX:X>X,X<X1X2X3X4X4X5X6X7X8X9X0XqXwXeXrXtXyXuXiXpXaXa",
"X<X<X<X<X<X<X<X<XsXdXfXg.DXhXjXkXlXzXxXcXvXbXnXmXMXNXBXVXCXZXAXSXDXFXF",
"X<X<X<X<X<X<X<X<XG 5XHXJXKXLXPXIXUXYXTXRXEXWXQX!X~X^X/X(X)X_X`X'X]X[X[",
"X{X{X{X{X{X{X{X{X}.fX|o o.oXoooOo+o@o#o$o%o&o*o=o-o;o:o>o,o<o1o2o3 J J",
"X{X{X{X{X{X{X{X{o4o5o6o7o8o9o0oqowoeorotoyouoiopoaoso:odX`ofogohojokok",
"X{X{X{X{X{X{X{X{Xfol.DozoxocovobonomoMoNoBoVoCoZoAoSoDoFoGoHoJoKXdXdXd",
"X{X{X{X{X{X{X{X{XHoLoPozoIoUoYoToRoEoWXEoQo!o~o^o/o(o:o)o_o`o'o]XdXdXd",
"o[o[o[o[o[o[o[o[o{o}o|ozO O.OXOoOOO+O@O#oQO$O%O&O*O=O-O;O:O>O,O<XdXdXd",
"o[o[o[o[o[o[o[o[O1O2O3O4O5O6O7O8O9O0OqOwOeOrOtOyOuOiOpOaOsOdOfOgOhOhOh",
"o[o[o[o[o[o[o[o[OhX,.io[OjOkOlOzOxOcOvObOnOmOMONOBOVOCOZOAOSODOF._._._",
"o[o[o[o[o[o[o[o[.a.` ao[OGOHOJOKOLOPOIOUOYOmOTOROEXqOWOQO!O~O^O/O(O(O(",
"O4O4O4O4O4O4O4O4O)X:X<O_O`O'O]O[O{O}O|+ +.+X+o+O+++@+#+$+%+&+*+=O(O(O(",
"O4O4O4O4O4O4O4O4.s._+-+;+:o9+>+,+<+1+2+3+4+5+6+7+8+9+0+q+w+e+r+tO(O(O(",
"O4O4O4O4O4O4O4O4O4.).).)O4X{ M+y+u+i+p+a+s+d+f+g+h+j+k+l+z+x+c+v+b+b+b",
"O4O4O4O4O4O4O4O4.).).)O4O4o[X{X{+nXs+m+M+a+N+s+B+V+C+Z+A+S.s.)+D+b+b+b",
"O4O4O4O4O4O4O4O4.).)O4O4O4O4O4.)+F+G.s+H+J+K+L+P+I+U+Y+T+R+E+W+Q+!+!+!",
"+~+~+~+~+~+~+~+~+b+b+~+~+~+b+!+^+/+(O4o[+)OhX:+_+`+'+]+[+{+}+b+b+!+!+!",
"+b+b+b+b+b+b+b+b+b+b+~+~+~+!+^+|+/+(+(+(+(.).).)@ @.oP._@X@o@O@++!+!+!",
"@@@@@@@@@@@@@@@@+R+R+R+R@@+}+}@.+b+b.3@#@#.3.3@$O(OhO)@%@&@*@=@-+!+!+!",
"@@@@@@@@@@@@@@@@+R+R@@@@@@@@@@@@o|o|@;+^+^@#.3.3o[o[o[O4o|o|o|O1+^+^+^",
"@@@@@@@@@@@@@@@@@:+R@@+}+}@@+R+R@>@>@>o|+!+!.3.3@,+W+Q@<@1@1@2@3+^+^+^",
"@4@5@5@5@5@4@6@6@6@6@6@6@6@6@6@6@6@6@6@6@6@6@6@6@7@7@7@7@7@7@7@7@8@8@8"
};
