/* XPM */
static char *freeimage[] = {
/* width height num_colors chars_per_pixel */
"45 14 365 2",
/* colors */
"   c #36928f",
" . c #44766d",
" X c #5a5947",
" o c #50341f",
" O c #351b0a",
" + c #251808",
" @ c #1a1004",
" # c #180a00",
" $ c #1a110c",
" % c #190f0d",
" & c #170d0b",
" * c #160e0b",
" = c #18100e",
" - c #181310",
" ; c #191313",
" : c #1c1412",
" > c #1b1311",
" , c #191411",
" < c #1a1512",
" 1 c #1a1613",
" 2 c #1b1714",
" 3 c #1b190c",
" 4 c #191a0c",
" 5 c #191b0d",
" 6 c #1a1c0e",
" 7 c #1a1c07",
" 8 c #1b1d08",
" 9 c #191b06",
" 0 c #1a1e0d",
" q c #1a1d0c",
" w c #1b190a",
" e c #1b1809",
" r c #3f8f90",
" t c #688d86",
" y c #a39685",
" u c #b9907a",
" i c #a9836e",
" p c #907562",
" a c #725c47",
" s c #634833",
" d c #433022",
" f c #3c291b",
" g c #332113",
" h c #2b190d",
" j c #261609",
" k c #25140a",
" l c #1e1109",
" z c #1b0e06",
" x c #1d1008",
" c c #231910",
" v c #261c13",
" b c #1f160d",
" n c #180f06",
" m c #150c03",
" M c #1b110f",
" N c #1a100e",
" B c #19110e",
" V c #17120e",
" C c #16110d",
" Z c #14110c",
" A c #140d07",
" S c #17100a",
" D c #19120c",
" F c #18110b",
" G c #150e08",
" H c #160f09",
" J c #1a130d",
" K c #1e1711",
" L c #17140d",
" P c #19140e",
" I c #1d140f",
" U c #1f1410",
" Y c #488e90",
" T c #738e87",
" R c #b39988",
" E c #d19e83",
" W c #d09d80",
" Q c #c9a285",
" ! c #c29e7e",
" ~ c #c29979",
" ^ c #b28f73",
" / c #aa886c",
" ( c #9f7d61",
" ) c #947257",
" _ c #8b6c50",
" ` c #87674e",
" ' c #84664c",
" ] c #82644a",
" [ c #7f6451",
" { c #7b604d",
" } c #816854",
" | c #937a66",
".  c #9c8671",
".. c #99836e",
".X c #927c67",
".o c #907b66",
".O c #846e63",
".+ c #806a5f",
".@ c #7b655a",
".# c #746055",
".$ c #6e5a4f",
".% c #675549",
".& c #604e42",
".* c #5b493d",
".= c #574338",
".- c #5a463b",
".; c #59453a",
".: c #544035",
".> c #4d392e",
"., c #4b372c",
".< c #503c31",
".1 c #564237",
".2 c #5b4b3e",
".3 c #6a584c",
".4 c #816b60",
".5 c #90786e",
".6 c #469091",
".7 c #708f87",
".8 c #b19b86",
".9 c #d09d7e",
".0 c #cf9d7a",
".q c #cda37d",
".w c #cba47b",
".e c #d0a379",
".r c #cf9f77",
".t c #cd9d75",
".y c #ca9d76",
".u c #c99d78",
".i c #c89c77",
".p c #c69b78",
".a c #c89a78",
".s c #c59976",
".d c #c99d7a",
".f c #d3a784",
".g c #daaf8c",
".h c #dbb08d",
".j c #d7af8b",
".k c #d8b28e",
".l c #d6b08c",
".z c #d5af8b",
".x c #d3af8b",
".c c #d5b18d",
".v c #d3b18c",
".b c #cfad88",
".n c #cba984",
".m c #d0ad8d",
".M c #d1ae8e",
".N c #cca989",
".B c #c7a484",
".V c #c6a383",
".C c #c9a686",
".Z c #cdaa8a",
".A c #c8a882",
".S c #c7a580",
".D c #c7a17d",
".F c #c69e7b",
".G c #308a8a",
".H c #5d8b81",
".J c #a39b84",
".K c #c9a281",
".L c #cca17e",
".P c #c6a47e",
".I c #c2a176",
".U c #c7a174",
".Y c #ce9a72",
".T c #cd9c74",
".R c #ce9d75",
".E c #cc9c76",
".W c #c99973",
".Q c #c79771",
".! c #cc9167",
".~ c #cf946a",
".^ c #c99065",
"./ c #c78e63",
".( c #c79165",
".) c #c58f63",
"._ c #c8956a",
".` c #c69368",
".' c #c49166",
".] c #c39267",
".[ c #c59469",
".{ c #c39468",
".} c #bf9064",
".| c #bb8c60",
"X  c #bf8f69",
"X. c #bd8d67",
"XX c #ba8a64",
"Xo c #b88862",
"XO c #b68660",
"X+ c #b5855f",
"X@ c #b3835d",
"X# c #b2825c",
"X$ c #ab7f52",
"X% c #ac7d51",
"X& c #af7c51",
"X* c #b07b51",
"X= c #2d9397",
"X- c #548d87",
"X; c #929582",
"X: c #b5977d",
"X> c #b79677",
"X, c #b3987a",
"X< c #b49775",
"X1 c #bb9974",
"X2 c #bd8c6c",
"X3 c #b88a69",
"X4 c #b58766",
"X5 c #b28365",
"X6 c #b08364",
"X7 c #af8265",
"X8 c #ad8164",
"X9 c #ab7f62",
"X0 c #ac7453",
"Xq c #b47c5b",
"Xw c #b37b5a",
"Xe c #a97351",
"Xr c #a36d4b",
"Xt c #a46f4d",
"Xy c #9f6a48",
"Xu c #996750",
"Xi c #96644d",
"Xp c #93614a",
"Xa c #906049",
"Xs c #8e5e47",
"Xd c #8a5c44",
"Xf c #85573f",
"Xg c #81533b",
"Xh c #7b4e39",
"Xj c #784b36",
"Xk c #744732",
"Xl c #724530",
"Xz c #71442f",
"Xx c #6f422d",
"Xc c #693c27",
"Xv c #653823",
"Xb c #6a3d26",
"Xn c #6e4029",
"Xm c #76432e",
"XM c #7b4732",
"XN c #218c96",
"XB c #468283",
"XV c #84877e",
"XC c #a58878",
"XZ c #a68272",
"XA c #9d7d6e",
"XS c #937261",
"XD c #946d5c",
"XF c #89634e",
"XG c #845e4b",
"XH c #7d5744",
"XJ c #75503d",
"XK c #6f4a38",
"XL c #6b4835",
"XP c #684434",
"XI c #664232",
"XU c #60382c",
"XY c #633b2f",
"XT c #623a2e",
"XR c #5a3427",
"XE c #563023",
"XW c #543022",
"XQ c #522e20",
"X! c #4e2a1c",
"X~ c #45241f",
"X^ c #43221d",
"X/ c #3e1f1a",
"X( c #3c1d18",
"X) c #381b15",
"X_ c #351812",
"X` c #32150f",
"X' c #2f140d",
"X] c #2d120b",
"X[ c #2e130c",
"X{ c #2c110a",
"X} c #2b120d",
"X| c #2e110d",
"o  c #30110e",
"o. c #34110f",
"oX c #258c9b",
"oo c #3d767f",
"oO c #696967",
"o+ c #7c5953",
"o@ c #704741",
"o# c #613b38",
"o$ c #532b29",
"o% c #542420",
"o& c #412116",
"o* c #3d1d12",
"o= c #39180f",
"o- c #33150b",
"o; c #30120a",
"o: c #2d1008",
"o> c #2b0e06",
"o, c #290c06",
"o< c #2a1115",
"o1 c #260d11",
"o2 c #220c0f",
"o3 c #230d10",
"o4 c #230f11",
"o5 c #220e10",
"o6 c #200d0f",
"o7 c #1d100a",
"o8 c #1e110b",
"o9 c #1d120c",
"o0 c #1d140d",
"oq c #1f160f",
"ow c #1d160c",
"oe c #1f180e",
"or c #211a10",
"ot c #20190f",
"oy c #1e170d",
"ou c #1c150b",
"oi c #1f1714",
"op c #201614",
"oa c #221413",
"os c #231313",
"od c #3d7d99",
"of c #2b7080",
"og c #275761",
"oh c #21252e",
"oj c #22090f",
"ok c #250d0d",
"ol c #1f0d0b",
"oz c #210d0c",
"ox c #1b140e",
"oc c #1c150f",
"ov c #1d1610",
"ob c #1f1810",
"on c #1f1812",
"om c #297990",
"oM c #1f7680",
"oN c #1f6064",
"oB c #1f3236",
"oV c #1f1516",
"oC c #16160e",
"oZ c #120f08",
"oA c #2a7f94",
"oS c #257f88",
"oD c #155b5d",
"oF c #10282a",
"oG c #140e0e",
"oH c #1a1d14",
"oJ c #181911",
"oK c #377f98",
"oL c #378592",
"oP c #164f56",
"oI c #0b181e",
"oU c #1c0c0f",
"oY c #1e0f0c",
"oT c #1f1611",
"oR c #3f87a0",
"oE c #42909d",
"oW c #134c53",
"oQ c #031016",
"o! c #1f0f12",
"o~ c #21120f",
"o^ c #201511",
"o/ c #3b90a5",
"o( c #39939c",
"o) c #0f5557",
"o_ c #00181a",
"o` c #1b1515",
"o' c #1c1912",
"o] c #11140b",
"o[ c #191a12",
/* pixels */
"   . X o O + @ # $ % & * = - ; ; : : > , < 1 2 2 3 3 3 4 4 5 5 6 7 7 8 8 7 7 9 9 0 q w e e",
" r t y u i p a s d f g h j k k k l z x c v b n m M N B B V C C Z A S D F G H J K L P I U U",
" Y T R E W Q ! ~ ^ / ( ) _ ` ' ] [ { } |. ...X.o.O.+.@.#.$.%.&.*.=.-.;.:.>.,.<.1.2.3.4.5.5",
".6.7.8.9.0.q.w.e.r.t.y.y.u.u.i.p.a.s.d.f.g.h.j.j.k.l.z.x.c.v.b.n.m.M.m.N.B.V.C.Z.A.S.D.F.F",
".G.H.J.K.L.P.I.U.Y.Y.Y.T.R.E.W.Q.!.~.~.^./.(.(.)._.`.'.].[.{.}.|X X.XXXoXOX+X@X#X$X%X&X*X*",
"X=X-X;X:X>X,X<X1X2X3X4X5X6X7X8X9X0XqXwXeXrXtXtXyXuXiXpXaXsXdXfXgXhXjXkXlXzXxXcXvXbXnXmXMXM",
"XNXBXVXCXZXAXSXDXFXGXHXJXKXLXPXIXUXYXTXRXEXWXQX!X~X^X/X(X)X_X`X'X]X]X]X[X'X'X]X{X}X|o o.o.",
"oXoooOo+o@o#o$o%o&o*o=o-o;o:o>o,o<o1o2o3o4o4o5o6o7o8o8o9o9o0oqoqowoeorotoyouowoeoiopoaosos",
"odofogohojokoloz D D D J Joxoxocovovov K K K K Koeoeoeobobobononononononononononononononon",
"omoMoNoBoV KoCoZ J J Joxoxocococovovov K K K K Koeoeoeobobobononononononononononononononon",
"oAoSoDoFoG LoHoJoxoxoxococovovovovovov K K K K Koeoeoeobobobononononononononononononononon",
"oKoLoPoIoUoYoT Uoxococovov K K Kovovov K K K K Koeoeoeobobobononononononononononononononon",
"oRoEoWoQo!o~ $o^oxococovov K K Kovovov K K K K Koeoeoeobobobononononononononononononononon",
"o/o(o)o_o`o'o]o[oxoxoxococovovovovovov K K K K Koeoeoeobobobononononononononononononononon"
};
