/* XPM */
static char *freeimage[] = {
/* width height num_colors chars_per_pixel */
"51 15 145 2",
/* colors */
"   c #1b140e",
" . c #1c150f",
" X c #1d1610",
" o c #1e1711",
" O c #1f1812",
" + c #1d160c",
" @ c #241d13",
" # c #221b11",
" $ c #1b140a",
" % c #20190f",
" & c #251e14",
" * c #1f180e",
" = c #221910",
" - c #241b12",
" ; c #21180f",
" : c #231a11",
" > c #1e150c",
" , c #1a1108",
" < c #2b2219",
" 1 c #20170e",
" 2 c #1e170d",
" 3 c #211a10",
" 4 c #231c14",
" 5 c #1e170f",
" 6 c #1b140c",
" 7 c #1c150d",
" 8 c #1d160e",
" 9 c #171008",
" 0 c #1a130b",
" q c #29221a",
" w c #1d140d",
" e c #231a13",
" r c #221912",
" t c #1f160f",
" y c #1b120b",
" u c #1c130c",
" i c #221b13",
" p c #211a12",
" a c #1f1810",
" s c #261f17",
" d c #19120a",
" f c #282119",
" g c #160f07",
" h c #241d15",
" j c #2b241c",
" k c #201913",
" l c #201911",
" z c #150e06",
" x c #231c16",
" c c #160f09",
" v c #3f3832",
" b c #5e5751",
" n c #6b6660",
" m c #26211b",
" M c #302b25",
" N c #514c46",
" B c #18130d",
" V c #221d17",
" C c #1f1a14",
" Z c #2c2721",
" A c #655e58",
" S c #221b15",
" D c #261f19",
" F c #1a130d",
" G c #211a14",
" H c #544d47",
" J c #756e68",
" K c #8c8781",
" L c #a19c96",
" P c #3d3832",
" I c #b1aca6",
" U c #3a352f",
" Y c #15100a",
" T c #19140e",
" R c #716c66",
" E c #918a84",
" W c #28211b",
" Q c #251e18",
" ! c #18110b",
" ~ c #27201a",
" ^ c #1f1714",
" / c #221a17",
" ( c #251d1a",
" ) c #1d1512",
" _ c #1e1613",
" ` c #1b1310",
" ' c #4d4542",
" ] c #5e5653",
" [ c #423f3a",
" { c #c7c4bf",
" } c #201d18",
" | c #a19e99",
".  c #888580",
".. c #110e09",
".X c #23201b",
".o c #afaca7",
".O c #4b4340",
".+ c #160e0b",
".@ c #170f0c",
".# c #231b18",
".$ c #1c1411",
".% c #201815",
".& c #211916",
".* c #59514e",
".= c #807875",
".- c #a7a49f",
".; c #7f7c77",
".: c #14110c",
".> c #3f3c37",
"., c #9d9a95",
".< c #7a7772",
".1 c #8b8883",
".2 c #150d0a",
".3 c #271f1c",
".4 c #231c12",
".5 c #6a625f",
".6 c #c7bfbc",
".7 c #79716e",
".8 c #19110e",
".9 c #18100d",
".0 c #6c6461",
".q c #8d8582",
".w c #b6aeab",
".e c #39312e",
".r c #8a827f",
".t c #0d0502",
".y c #261e1b",
".u c #473f3c",
".i c #d5cdca",
".p c #918986",
".a c #251e16",
".s c #17100a",
".d c #19120c",
".f c #6e6663",
".g c #544c49",
".h c #89817e",
".j c #38302d",
".k c #181109",
".l c #241d17",
".z c #120a07",
".x c #2a221f",
".c c #1a120f",
".v c #2b2320",
".b c #241c19",
".n c #2c2421",
/* pixels */
"     . . X X o o O O O O O O O O + @ # $ % & * + = - ; : > , < 1 @ $ @ # 2 3 + 2 O O O O O O O O O O O",
" . . . X X o o o O O O O O O O O 4 5 6 7 8 9 0 q w w e r t r y u 8 4 5 5 i 8 8 p O O O O O O O O O O O",
" . . X X o o O O O O O O O O O O 8 a 5 a s p 8 d i f g h g f h 4 0 j 5 7 i 6 a i O O O O O O O O O O O",
" X X X o O O O k O O O O O O O O 8 p p 8 4 5 i 6 d d d l 6 i z 5 5 7 7 i p a l 6 O O O O O O O O O O O",
" X X o o O O k k O O O O O O O O x o O O O c v b n m M N B V C Z A S o D F k S G O O O O O O O O O O O",
" X X o o O O k k O O O O O O O O G O x G G o H J K L P I U Y T R E W   Q ! o O ~ k k k k k k k k O O O",
" X X X o o O O O O O O O O O O O ^ / ( ) _ ` ' ] [ { } |. ...X.o.O.+.@ / ^.# _ _ k k k k k k k k O O O",
" . X X o o O O O O O O O O O O O /.$.%.&.&.@.*.=.-.;.:.>., }.<.1.2.%.3 _ _.3 ( ^ k k k k k k k k O O O",
" . . X o O O O o o o o o O O O O.4 0 i l G c.5.6.7.8 _.9.0.q.w.e X k S x G O O k G G k k k k k O O O O",
" . . X o O O O o o o o o O O O O * p 9 p   ..=.r.t.$.y.%.u.i.p.+ O k G S G k k k G G G G k k k k O O O",
" . . X o O O O o o o o o O O O O +.a 0 h.s.d.f.g ` /.9.& `.h.j ) G G G G S S G k S S G G G G k k O O O",
" . . X o O O O o o o o o O O O O 2.k 5 4.l !.#.z /.%.x ^ `.# ^ ( x G k k S x S G S S S S G G G G O O O",
" . . X o O O O o o o o o O O O O 3 6 h 6 x G.c.&.$ _.3.+.v.8.x.9 x G k k S x S G S S S S G G G G O O O",
" . . X o O O O o o o o o O O O O * s h 6   O ( _.b.% ` /.& ) `.x G G G G S S G k S S G G G G k k O O O",
" . . X o O O O o o o o o O O O O + a 6 i x ! _.% ( ) (.&.$.#.n.9 O k G S G k k k G G G G k k k k O O O"
};
