/* XPM */
static char *scripts[] = {
/* columns rows colors chars-per-pixel */
"30 30 181 2",
"   c #000000",
".  c #020B0D",
"X  c #030A10",
"o  c #05141A",
"O  c #051A16",
"+  c #091916",
"@  c #05202B",
"#  c #0B2623",
"$  c #092228",
"%  c #0B2921",
"&  c #0B2C33",
"*  c #0B2838",
"=  c #0D352D",
"-  c #0D3032",
";  c #11352C",
":  c #103D3E",
">  c #0D3747",
",  c #0C3944",
"<  c #113C42",
"1  c #0F403A",
"2  c #13423A",
"3  c #0F4253",
"4  c #13434F",
"5  c #154C46",
"6  c #154A4A",
"7  c #194E46",
"8  c #114353",
"9  c #165344",
"0  c #1A5242",
"q  c #1E5E4E",
"w  c #155557",
"e  c #18545C",
"r  c #1A5A52",
"t  c #124F61",
"y  c #184B66",
"u  c #175D67",
"i  c #175C6C",
"p  c #195B6B",
"a  c #135474",
"s  c #1E624D",
"d  c #1C6151",
"f  c #1F6662",
"g  c #1A6068",
"h  c #1A6777",
"j  c #18627E",
"k  c #1D6E72",
"l  c #1B6878",
"z  c #1F7073",
"x  c #215443",
"c  c #21604F",
"v  c #226D5A",
"b  c #216D73",
"n  c #21736D",
"m  c #2E7D68",
"M  c #227B7D",
"N  c #18678E",
"B  c #1A6B8C",
"V  c #1B6990",
"C  c #1D7383",
"Z  c #1C7088",
"A  c #1D759C",
"S  c #1E789A",
"D  c #206284",
"F  c #217C94",
"G  c #267A9E",
"H  c #278062",
"J  c #2B896E",
"K  c #268378",
"L  c #298574",
"P  c #2A947E",
"I  c #35906F",
"U  c #309A74",
"Y  c #389C78",
"T  c #1B80AC",
"R  c #1F88BF",
"E  c #278C88",
"W  c #298B89",
"Q  c #208093",
"!  c #268D9E",
"~  c #2B9080",
"^  c #2F9B8E",
"/  c #2A9695",
"(  c #29929A",
")  c #319D8D",
"_  c #2185A3",
"`  c #2189A3",
"'  c #228FB6",
"]  c #218CBA",
"[  c #2D9EA6",
"{  c #2493B1",
"}  c #279EBE",
"|  c #299EBF",
" . c #2FA188",
".. c #2FA79D",
"X. c #36AE95",
"o. c #34AB9A",
"O. c #38AF91",
"+. c #3BBC9E",
"@. c #2DA5B6",
"#. c #2CA4BA",
"$. c #32ACAF",
"%. c #36B7A3",
"&. c #35B3A8",
"*. c #3CBFA0",
"=. c #35BEB7",
"-. c #38BFBB",
";. c #2493CB",
":. c #279BC0",
">. c #309BC9",
",. c #2EABCB",
"<. c #29A7D0",
"1. c #28A1D8",
"2. c #2AADDE",
"3. c #2EB6D6",
"4. c #2DB3DB",
"5. c #2EB9D5",
"6. c #2EB8D8",
"7. c #31B4C1",
"8. c #34BECE",
"9. c #39BECF",
"0. c #31B6D6",
"q. c #30B5D9",
"w. c #32BCD2",
"e. c #31B8D8",
"r. c #3AB7DC",
"t. c #3EBDD7",
"y. c #3BBADB",
"u. c #27A7E8",
"i. c #26ABE4",
"p. c #25A9E9",
"a. c #29ACE2",
"s. c #28A8E9",
"d. c #2AB1E0",
"f. c #35ABE9",
"g. c #36B2E1",
"h. c #39B4E2",
"j. c #3AB8E0",
"k. c #3BC19C",
"l. c #39C3AF",
"z. c #3ECCA8",
"x. c #3AC2B4",
"c. c #3CCEBE",
"v. c #3FD6B7",
"b. c #3ED1BD",
"n. c #35C5C7",
"m. c #35C2CC",
"M. c #37C8C5",
"N. c #38C5C5",
"B. c #38C5C9",
"V. c #3ACBC3",
"C. c #39C8C8",
"Z. c #34C0D0",
"A. c #3DC0D3",
"S. c #3DD0C0",
"D. c #40B394",
"F. c #40CCA9",
"G. c #44D2A2",
"H. c #45DEAD",
"J. c #4FD4A9",
"K. c #41D6B5",
"L. c #41D4BA",
"P. c #43DBB3",
"I. c #42D8B8",
"U. c #4CD6BD",
"Y. c #48DEB0",
"T. c #4EDABA",
"R. c #52DDB4",
"E. c #52DEB8",
"W. c #47E2AD",
"Q. c #4AE3AB",
"!. c #53E3AE",
"~. c #53E4B2",
"^. c #60E9B1",
"/. c #44C7CF",
"(. c #45CCC7",
"). c #44CBCB",
"_. c #48CFC9",
"`. c #41C4D2",
"'. c #4DC7D6",
"]. c #49D2C2",
"[. c #52D0CC",
/* pixels */
"[.(._.].].].].U.U.U.T.U.U.T.T.T.E.T.R.E.E.R.E.~.~.~.~.~.~.~.",
"(.M.V.M.b.V.V.c.b.V.b.b.b.I.K.I.K.I.K.Y.K.W.Y.Y.Y.W.W.Q.Q.!.",
").V.V.C.V.V.V.V.b.b.b.b.b.L.L.L.K.P.I.P.P.P.P.Y.W.Q.G.9 O I ",
"/.B.C.V.V.V.V.V.V.V.b.c.b.b.L.L.K.v.I.I.P.P.P.P.K.W.; U m Y ",
").m.B.B.C.V.V.V.V.b.V.b.b.b.L.b.L.L.K.I.L.P.P.% s k.; 0 c x ",
"/.m.B.B.C.B.B.V.V.V.V.b.V.b.b.b.L.L.b.K.U.K.*.. d Y.J s 9 J.",
"`.m.m.m.B.B.C.V.V.V.V.V.V.b.b.V.b.L.b.L. .2 v +.O O.G.H.H.~.",
"`.m.m.m.m.m.m.V.B.V.V.V.V.V.V.b.V.b.b.o.= X.; P n 9 z.P.P.m ",
"`.Z.w.m.m.m.m.C.N.N.N.V.N.V.V.V.) c.K   ) L.L L I.I.K.z.0 D.",
"`.w.8.m.m.m.m.m.B.B.V.V.C.V.V.x.; n c.5 7 ) # l.L.I.X.q z.T.",
"t.w.Z.Z.w.m.m.m.B.m.m.B.M.V.V.V.W # 7 V.: ; %.b.L.X.q b.K.T.",
"t.w.w.8.w.w.8.m.Z.m.B.B.B.B.N.E r =.6 6 x.# P b.o.q L.K.L.T.",
"y.w.w.w.w.w.Z.8.m.m.m.m.m.B./ . W C.V.r ..=.=.&.r b.b.v.v.U.",
"y.e.3.e.e.w.w.8.w.w.m.m.m.M.C.b + M V.V.V.L.=.9 l.c.b.b.L.U.",
"y.q.6.w.6.w.w.w.w.w.m.Z.7.6 & $.$.: b N.V.L.f &.V.S.b.b.b.U.",
"y.4.q.3.3.w.w.w.w.m.w.m.p k m.M.- B.N.N.N.( n V.V.S.b.V.b.].",
"r.4.e.e.6.e.e.e.w.w.w.w.e k m.m.: [ M.B.N.6 C.M.V.V.V.V.V.].",
"j.2.d.q.3.,.` w.w.w.5.Z.7.& $ - , m.m.m.M / V.V.V.M.V.L.L.].",
"h.d.3.B o   & 3.e.,.C p ` Z.w.w.m.m.8.m.6 M.B.B.V.C.V.V.V.].",
"h.2.8       ` 4.F .       l t.8.m.8.m.( M m.B.B.B.B.V.V.V._.",
"g.8   . B ,.g.F     4 3     #.w.8.9.w.6 7.m.m.m.m.C.C.V.V.(.",
"G   . { d.d.} .   Z 3.6.$   Q e.w.Z.w.w m.8.m.m.B.C.B.B.V.(.",
"X   B a.a.2.*   t 4.4.q.&   l w.w.w.@.g Z.m.m.m.m.m.B.B.m.).",
"  o a.2.a.A   o <.4.4.3.$   ` q.q.w.F ! w.w.w.Z.m.m.m.m.M.).",
"  V a.a.1.O   A d.d.4.,.    :.w.0.6.u #.w.w.w.8.m.8.m.m.m.).",
"  ;.u.a.a   & d.d.a.2.:   , q.4.3.q.i w.w.w.w.w.w.m.w.m.m./.",
"  u.u.R     R i.a.a.a     _ 2.3.3.q.i q.0.w.3.w.w.m.m.8.m.`.",
"  @ N X   a i.p.A >     j d.4.g.4.4.p 4.w.3.w.w.w.8.w.w.8./.",
"        * s.p.G     X N 2.2.4.2.4.4.B { q.e.q.6.w.w.w.w.w.`.",
"      y f.f.f.D o y >.g.h.g.g.g.h.r.r.y.y.y.t.y.y.y.t.A.`.'."
};
