/* XPM */
static char *scripts2[] = {
/* columns rows colors chars-per-pixel */
"32 32 256 2",
"   c #1C1C32",
".  c #2B1D1C",
"X  c #39153A",
"o  c #2B1E32",
"O  c #2C2419",
"+  c #38231E",
"@  c #282537",
"#  c #2D2B2B",
"$  c #1A1B5B",
"%  c #1B1D4E",
"&  c #1B1879",
"*  c #111A69",
"=  c #15254D",
"-  c #1B2064",
";  c #241C48",
":  c #251857",
">  c #341C49",
",  c #351B46",
"<  c #3B1A5C",
"1  c #361B54",
"2  c #240C75",
"3  c #250D7B",
"4  c #2A0E7B",
"5  c #26176C",
"6  c #251473",
"7  c #24127B",
"8  c #2B117C",
"9  c #271774",
"0  c #330B69",
"q  c #340B75",
"w  c #320C7B",
"e  c #3A097C",
"r  c #380A77",
"t  c #381666",
"y  c #341475",
"u  c #322249",
"i  c #2F2347",
"p  c #2A2169",
"a  c #3F5628",
"s  c #4E191A",
"d  c #581A0D",
"f  c #5A1A16",
"g  c #44192C",
"h  c #560C28",
"j  c #581722",
"k  c #431D32",
"l  c #4E3718",
"z  c #5B260B",
"x  c #5A2518",
"c  c #523212",
"v  c #502822",
"b  c #68130C",
"n  c #6C151A",
"m  c #641817",
"M  c #790E1B",
"N  c #761909",
"B  c #751617",
"V  c #6D0C0F",
"C  c #671624",
"Z  c #791724",
"A  c #6B112C",
"S  c #662607",
"D  c #6C2014",
"F  c #652315",
"G  c #6A3615",
"H  c #752116",
"J  c #6D320C",
"K  c #6B3623",
"L  c #712621",
"P  c #753A2A",
"I  c #451656",
"U  c #431675",
"Y  c #55481A",
"T  c #454A07",
"R  c #5C5529",
"E  c #54653B",
"W  c #6F520E",
"Q  c #7A521E",
"!  c #6B4C12",
"~  c #684625",
"^  c #734A26",
"/  c #714E2B",
"(  c #616317",
")  c #776719",
"_  c #747912",
"`  c #6D6429",
"'  c #1D1588",
"]  c #240C81",
"[  c #2C0C83",
"{  c #290C8B",
"}  c #2E0C94",
"|  c #261285",
" . c #2C1182",
".. c #2E1188",
"X. c #201389",
"o. c #320D83",
"O. c #390A86",
"+. c #331785",
"@. c #2F1195",
"#. c #252B83",
"$. c #400887",
"%. c #4D0994",
"&. c #61459C",
"*. c #798F11",
"=. c #890C06",
"-. c #8B0D19",
";. c #860E17",
":. c #85180C",
">. c #891615",
",. c #900E0E",
"<. c #960B16",
"1. c #991A08",
"2. c #971418",
"3. c #8D0A22",
"4. c #851626",
"5. c #9C0427",
"6. c #9C1130",
"7. c #99221D",
"8. c #8C2D19",
"9. c #8B2620",
"0. c #A90909",
"q. c #A40915",
"w. c #A8150A",
"e. c #A31B13",
"r. c #A91A13",
"t. c #A81519",
"y. c #B80918",
"u. c #B21B0D",
"i. c #B31801",
"p. c #B11C12",
"a. c #B2191D",
"s. c #B81617",
"d. c #B60E0B",
"f. c #AB0A24",
"g. c #A91826",
"h. c #B50925",
"j. c #BA1624",
"k. c #AD0634",
"l. c #B62011",
"z. c #875A0E",
"x. c #8E4F14",
"c. c #845822",
"v. c #854720",
"b. c #80720F",
"n. c #917819",
"m. c #8C6C13",
"M. c #856921",
"N. c #91702D",
"B. c #936529",
"V. c #8C7845",
"C. c #C4090A",
"Z. c #CA090A",
"A. c #CC0C14",
"S. c #C60917",
"D. c #CC1308",
"F. c #C71417",
"G. c #D30C0C",
"H. c #DC0B03",
"J. c #DC090A",
"K. c #D70709",
"L. c #D20B13",
"P. c #DD0512",
"I. c #DA0B11",
"U. c #DA0A1A",
"Y. c #D8071C",
"T. c #D91305",
"R. c #D61707",
"E. c #DC1013",
"W. c #D71814",
"Q. c #C80924",
"!. c #CC1021",
"~. c #DB0322",
"^. c #DB0A22",
"/. c #D80528",
"(. c #D31427",
"). c #D20534",
"_. c #E40405",
"`. c #E3060B",
"'. c #E30A02",
"]. c #E30A0B",
"[. c #EB0402",
"{. c #EC040C",
"}. c #EA0B06",
"|. c #EA0B0A",
" X c #E30513",
".X c #E20A12",
"XX c #E30A19",
"oX c #EB0413",
"OX c #EA021C",
"+X c #E80718",
"@X c #E21102",
"#X c #E11414",
"$X c #F40602",
"%X c #F20409",
"&X c #F1090A",
"*X c #FA0404",
"=X c #F30413",
"-X c #F3021B",
";X c #FC0318",
":X c #F80416",
">X c #E50421",
",X c #EC032B",
"<X c #E60628",
"1X c #F50620",
"2X c #E01322",
"3X c #9B8D11",
"4X c #8E9231",
"5X c #958531",
"6X c #958A28",
"7X c #91A10D",
"8X c #AA8E22",
"9X c #B1A90A",
"0X c #ADB417",
"qX c #A6A92A",
"wX c #B5AB38",
"eX c #B8BD2B",
"rX c #B6A647",
"tX c #BAC327",
"yX c #B2CB18",
"uX c #BECC41",
"iX c #C5B714",
"pX c #CEBF0A",
"aX c #C9BE26",
"sX c #C4C716",
"dX c #C4D30D",
"fX c #D8C717",
"gX c #CCD711",
"hX c #CAC633",
"jX c #D1C829",
"kX c #C5D325",
"lX c #EFDA05",
"zX c #F5DD0B",
"xX c #F5DA06",
"cX c #E9D515",
"vX c #E6DB26",
"bX c #F1DE20",
"nX c #F1CE2A",
"mX c #ECE404",
"MX c #E9E808",
"NX c #EDE413",
"BX c #E6E217",
"VX c #EBF207",
"CX c #E9F617",
"ZX c #F1E301",
"AX c #F3EE0A",
"SX c #FCE402",
"DX c #FBE903",
"FX c #FAE70A",
"GX c #F7E816",
"HX c #F3F30A",
"JX c #F4F102",
"KX c #F5F213",
"LX c #E3E021",
"PX c #F2E827",
"IX c #E2F134",
"UX c #CEDD4C",
/* pixels */
"p t 5 < u > 1 I u u i i 1 u 1 1 I I < u u 1 t t < 1 I I t U y +.",
"%., c j.a.F.t.7.a.s.u.l.F.F.l.p.l.p.F.s.e.u.s.s.j.l.u.e.r.f.F = ",
": H #XS.w.t.u.D.#X;X1X(.j.p.w.w.<.e.g.(.:X=XA.r.1.s.].@X|.+X!.x ",
"m W.2./ 4Xv :.@X2X!.>.c W ) 5X6X5XM.R S r.<X).z R Z ,X=X|.E.(.U.",
"#X<.( tXR 4.<X^.f.x 6XfXzXHXAXHXDXDXxXeX( ,.W.a.x e.`.T.{.l.f j.",
">.` nXW 5.R.'.S.G tXKXAXmXZXmXmXmXxXmXSXPX_ h (.$XI.`.I.&Xj.Y Y ",
") IXn.M +XoXT.-.N.CXZXxXmXZXmXZXmXmXzXNXDXCX~ f.#XG.}.,XR.e.B.hX",
"KXpXx U.].OX].2.G dXKXGXDXSXDXDXDXDXVXBXmXJX8X=.A./.P./.F.,.z.DX",
"bX*.3.=XP.L.'./.f.H M.8X9XiXiXsXdXdXdXfXfXBXhX~ / ^ ! ^ ^ ~ *.CX",
"/ ~ w.-XJ.H.'.oX<XQ.0.;.n n B D m D D L H G ! ) 6XjXVXVXlXzXFXcX",
"m h G.{.^.{.'.H.H._.[.[.&X&X_.[.[.[.'.E.A.S.y.0.=.A Q eXVXMXvXQ ",
"D.-.S.].I.~.J.'.oX,XY.I.P.P. X X XP.>XJ.'.,X-XoX{.L.5.m 8XPX_ V ",
">.=X^.I._.>X+XH.].-X].].oXY.XXP.`.{.>XJ.'._. X`.{.{.@XS.s E =.R.",
"X e.|.A.y.T.!.Y.|.{.{.{._._._._.P.>XXXJ.].I.U.G.G.{._.E.>.b F.2.",
" .O i.E.A x 8.;.>.1.q.k.h.S.Z.K.P.~.=X;X:XoX X].].}.U.G.'.#Xg., ",
"@.- s W.2.# rXjXqX7Xn.n._ z.x.8.9.9.Z ;.3.q.C.K.{.`.!.J.*XA.g y ",
"7 [ 0 j R.h.Y BXDXVXBXxXNXGXPXLXBXdXyX0X7Xn.c.K 4.|.oX-Xg.g < w ",
"9 o.{ : M =X-.c.rX~ l v G ) 0XMXMXbXSXDXDXJXCXUXl I.*XL.k $ w 8 ",
"6 9 X. .$ >.R.:.s d.J.K.D.0.V M.vXAXNXbXvXfX9Xz.:.#X].n : $.X.9 ",
"8 ] 3 3 ] , Z I.oXOX`.J.J.*XA.V K z.z.v.P B N <.;XE.Z : 9 9 & | ",
"] 3 3 3 3 & = 2.$XG.^.Y.P.%X%XF.d.y.S.y./.>XXX{.W.B , p 9 y  .8 ",
"8 3  .4 ] } 7 @ i.$Xy.<.S.~.oX_.{.OXoXH.H.y.^. X:., p 9  .o. . .",
"3 8 8 3 2 w O.& . F.K.d O Y x L A C S F O N ;Xy.o y 8 ..o.4  .8 ",
"3 3 3 3 3 * e ..- k A.y.c qXkXiXiXiXhXV.j K.i.g ..4 o.o.8 8 | ] ",
"3 | 3 3 3 4 3 [ O.$ j S.y.z hXFXSXAX0XS U.Q.+ - | 9 4 4 5 9 [ [ ",
"3 3 2 7 3 4 & 4 4 6 $ C }.0.l jXFXwXj S.J.h 0 r & 7 8 3 9 3 4  .",
"3 3 3 3 3 3 4 ] 3 4 5 : B E.<.T qXc y.F.b ; ' [ y 8 4 8 8 4 8 8 ",
"3 3 3 3 2 3 3 ] ] 3 2 9 % 4.*X2.. 1.$Xm = | X.& r 8 8 8 8 8 7 8 ",
"] 3 3 3 3 2 3 ] 3 ] ] [ y   2.,XQ.oX<.; & O.q & ..8 8 4 8 8 8 8 ",
"3 3 2 3 3 2 3 ] ] ]  .{ 8 : X r.H.<.: 9 [ 5 : w [ 8 8 8 8 8 7 8 ",
"3 3 2 3 3 2 3 3 3 3 3 ' & r q . S u #.w w & 5 q o.8 8 8 8 4 8 8 ",
"3 3 3 3 3 3 3 2 2 3 3 4 4 ] } 1   U &.y r { { 7 6 8 8 8 4 4 8 8 "
};
